G04 #@! TF.GenerationSoftware,KiCad,Pcbnew,(5.0.1)-4*
G04 #@! TF.CreationDate,2019-05-17T17:50:28+02:00*
G04 #@! TF.ProjectId,nk-LoRa,6E6B2D4C6F52612E6B696361645F7063,R1*
G04 #@! TF.SameCoordinates,PX5f5e100PY5f5e100*
G04 #@! TF.FileFunction,Paste,Top*
G04 #@! TF.FilePolarity,Positive*
%FSLAX46Y46*%
G04 Gerber Fmt 4.6, Leading zero omitted, Abs format (unit mm)*
G04 Created by KiCad (PCBNEW (5.0.1)-4) date 17.05.2019 17:50:28*
%MOMM*%
%LPD*%
G01*
G04 APERTURE LIST*
%ADD10C,0.300000*%
%ADD11C,0.100000*%
%ADD12C,0.600000*%
%ADD13R,1.998980X1.198880*%
%ADD14R,1.400000X0.900000*%
%ADD15R,1.000000X0.700000*%
%ADD16R,1.450000X1.200000*%
%ADD17R,1.150000X1.200000*%
%ADD18R,0.700000X1.000000*%
%ADD19C,0.834059*%
%ADD20C,0.180000*%
%ADD21C,1.500000*%
%ADD22C,0.590000*%
%ADD23R,0.450000X0.300000*%
%ADD24C,0.250000*%
%ADD25C,1.050000*%
%ADD26R,0.800000X0.900000*%
%ADD27C,0.875000*%
G04 APERTURE END LIST*
D10*
X21637142Y-998571D02*
X22494285Y-998571D01*
X22065714Y-2498571D02*
X22065714Y-998571D01*
X23280000Y-998571D02*
X23565714Y-998571D01*
X23708571Y-1070000D01*
X23851428Y-1212857D01*
X23922857Y-1498571D01*
X23922857Y-1998571D01*
X23851428Y-2284285D01*
X23708571Y-2427142D01*
X23565714Y-2498571D01*
X23280000Y-2498571D01*
X23137142Y-2427142D01*
X22994285Y-2284285D01*
X22922857Y-1998571D01*
X22922857Y-1498571D01*
X22994285Y-1212857D01*
X23137142Y-1070000D01*
X23280000Y-998571D01*
X24565714Y-2498571D02*
X24565714Y-998571D01*
X25137142Y-998571D01*
X25280000Y-1070000D01*
X25351428Y-1141428D01*
X25422857Y-1284285D01*
X25422857Y-1498571D01*
X25351428Y-1641428D01*
X25280000Y-1712857D01*
X25137142Y-1784285D01*
X24565714Y-1784285D01*
X27208571Y-2498571D02*
X27208571Y-998571D01*
X27780000Y-998571D01*
X27922857Y-1070000D01*
X27994285Y-1141428D01*
X28065714Y-1284285D01*
X28065714Y-1498571D01*
X27994285Y-1641428D01*
X27922857Y-1712857D01*
X27780000Y-1784285D01*
X27208571Y-1784285D01*
X28637142Y-2070000D02*
X29351428Y-2070000D01*
X28494285Y-2498571D02*
X28994285Y-998571D01*
X29494285Y-2498571D01*
X29922857Y-2427142D02*
X30137142Y-2498571D01*
X30494285Y-2498571D01*
X30637142Y-2427142D01*
X30708571Y-2355714D01*
X30780000Y-2212857D01*
X30780000Y-2070000D01*
X30708571Y-1927142D01*
X30637142Y-1855714D01*
X30494285Y-1784285D01*
X30208571Y-1712857D01*
X30065714Y-1641428D01*
X29994285Y-1570000D01*
X29922857Y-1427142D01*
X29922857Y-1284285D01*
X29994285Y-1141428D01*
X30065714Y-1070000D01*
X30208571Y-998571D01*
X30565714Y-998571D01*
X30780000Y-1070000D01*
X31208571Y-998571D02*
X32065714Y-998571D01*
X31637142Y-2498571D02*
X31637142Y-998571D01*
X32565714Y-1712857D02*
X33065714Y-1712857D01*
X33280000Y-2498571D02*
X32565714Y-2498571D01*
X32565714Y-998571D01*
X33280000Y-998571D01*
G04 #@! TO.C,FID3*
X39303078Y15800000D02*
G75*
G03X39303078Y15800000I-103078J0D01*
G01*
X39303078Y1800000D02*
G75*
G03X39303078Y1800000I-103078J0D01*
G01*
X1003078Y5800000D02*
G75*
G03X1003078Y5800000I-103078J0D01*
G01*
G04 #@! TD*
D11*
G04 #@! TO.C,D1*
G36*
X16414703Y9899278D02*
X16429264Y9897118D01*
X16443543Y9893541D01*
X16457403Y9888582D01*
X16470710Y9882288D01*
X16483336Y9874720D01*
X16495159Y9865952D01*
X16506066Y9856066D01*
X16515952Y9845159D01*
X16524720Y9833336D01*
X16532288Y9820710D01*
X16538582Y9807403D01*
X16543541Y9793543D01*
X16547118Y9779264D01*
X16549278Y9764703D01*
X16550000Y9750000D01*
X16550000Y9350000D01*
X16549278Y9335297D01*
X16547118Y9320736D01*
X16543541Y9306457D01*
X16538582Y9292597D01*
X16532288Y9279290D01*
X16524720Y9266664D01*
X16515952Y9254841D01*
X16506066Y9243934D01*
X16495159Y9234048D01*
X16483336Y9225280D01*
X16470710Y9217712D01*
X16457403Y9211418D01*
X16443543Y9206459D01*
X16429264Y9202882D01*
X16414703Y9200722D01*
X16400000Y9200000D01*
X16100000Y9200000D01*
X16085297Y9200722D01*
X16070736Y9202882D01*
X16056457Y9206459D01*
X16042597Y9211418D01*
X16029290Y9217712D01*
X16016664Y9225280D01*
X16004841Y9234048D01*
X15993934Y9243934D01*
X15984048Y9254841D01*
X15975280Y9266664D01*
X15967712Y9279290D01*
X15961418Y9292597D01*
X15956459Y9306457D01*
X15952882Y9320736D01*
X15950722Y9335297D01*
X15950000Y9350000D01*
X15950000Y9750000D01*
X15950722Y9764703D01*
X15952882Y9779264D01*
X15956459Y9793543D01*
X15961418Y9807403D01*
X15967712Y9820710D01*
X15975280Y9833336D01*
X15984048Y9845159D01*
X15993934Y9856066D01*
X16004841Y9865952D01*
X16016664Y9874720D01*
X16029290Y9882288D01*
X16042597Y9888582D01*
X16056457Y9893541D01*
X16070736Y9897118D01*
X16085297Y9899278D01*
X16100000Y9900000D01*
X16400000Y9900000D01*
X16414703Y9899278D01*
X16414703Y9899278D01*
G37*
D12*
X16250000Y9550000D03*
D11*
G36*
X16414703Y8999278D02*
X16429264Y8997118D01*
X16443543Y8993541D01*
X16457403Y8988582D01*
X16470710Y8982288D01*
X16483336Y8974720D01*
X16495159Y8965952D01*
X16506066Y8956066D01*
X16515952Y8945159D01*
X16524720Y8933336D01*
X16532288Y8920710D01*
X16538582Y8907403D01*
X16543541Y8893543D01*
X16547118Y8879264D01*
X16549278Y8864703D01*
X16550000Y8850000D01*
X16550000Y8450000D01*
X16549278Y8435297D01*
X16547118Y8420736D01*
X16543541Y8406457D01*
X16538582Y8392597D01*
X16532288Y8379290D01*
X16524720Y8366664D01*
X16515952Y8354841D01*
X16506066Y8343934D01*
X16495159Y8334048D01*
X16483336Y8325280D01*
X16470710Y8317712D01*
X16457403Y8311418D01*
X16443543Y8306459D01*
X16429264Y8302882D01*
X16414703Y8300722D01*
X16400000Y8300000D01*
X16100000Y8300000D01*
X16085297Y8300722D01*
X16070736Y8302882D01*
X16056457Y8306459D01*
X16042597Y8311418D01*
X16029290Y8317712D01*
X16016664Y8325280D01*
X16004841Y8334048D01*
X15993934Y8343934D01*
X15984048Y8354841D01*
X15975280Y8366664D01*
X15967712Y8379290D01*
X15961418Y8392597D01*
X15956459Y8406457D01*
X15952882Y8420736D01*
X15950722Y8435297D01*
X15950000Y8450000D01*
X15950000Y8850000D01*
X15950722Y8864703D01*
X15952882Y8879264D01*
X15956459Y8893543D01*
X15961418Y8907403D01*
X15967712Y8920710D01*
X15975280Y8933336D01*
X15984048Y8945159D01*
X15993934Y8956066D01*
X16004841Y8965952D01*
X16016664Y8974720D01*
X16029290Y8982288D01*
X16042597Y8988582D01*
X16056457Y8993541D01*
X16070736Y8997118D01*
X16085297Y8999278D01*
X16100000Y9000000D01*
X16400000Y9000000D01*
X16414703Y8999278D01*
X16414703Y8999278D01*
G37*
D12*
X16250000Y8650000D03*
G04 #@! TD*
D13*
G04 #@! TO.C,X2*
X35237600Y9794360D03*
X35237600Y7777600D03*
X35237600Y12293720D03*
X35237600Y5293480D03*
G04 #@! TD*
D14*
G04 #@! TO.C,X3*
X32900000Y12125000D03*
D15*
X33100000Y13275000D03*
D16*
X32875000Y14425000D03*
D17*
X22475000Y12275000D03*
X22475000Y14865000D03*
D18*
X31250000Y15915000D03*
X30150000Y15915000D03*
X29050000Y15915000D03*
X27950000Y15915000D03*
X26850000Y15915000D03*
X25750000Y15915000D03*
X24650000Y15915000D03*
X23550000Y15915000D03*
G04 #@! TD*
D19*
G04 #@! TO.C,U2*
X22933333Y3533333D03*
D11*
G36*
X22627177Y4011001D02*
X23239489Y4011001D01*
X23411001Y3839489D01*
X23411001Y3227177D01*
X23239489Y3055665D01*
X22627177Y3055665D01*
X22455665Y3227177D01*
X22455665Y3839489D01*
X22627177Y4011001D01*
X22627177Y4011001D01*
G37*
D19*
X24000000Y3533333D03*
D11*
G36*
X23693844Y4011001D02*
X24306156Y4011001D01*
X24477668Y3839489D01*
X24477668Y3227177D01*
X24306156Y3055665D01*
X23693844Y3055665D01*
X23522332Y3227177D01*
X23522332Y3839489D01*
X23693844Y4011001D01*
X23693844Y4011001D01*
G37*
D19*
X25066667Y3533333D03*
D11*
G36*
X24760511Y4011001D02*
X25372823Y4011001D01*
X25544335Y3839489D01*
X25544335Y3227177D01*
X25372823Y3055665D01*
X24760511Y3055665D01*
X24588999Y3227177D01*
X24588999Y3839489D01*
X24760511Y4011001D01*
X24760511Y4011001D01*
G37*
D19*
X22933333Y4600000D03*
D11*
G36*
X22627177Y5077668D02*
X23239489Y5077668D01*
X23411001Y4906156D01*
X23411001Y4293844D01*
X23239489Y4122332D01*
X22627177Y4122332D01*
X22455665Y4293844D01*
X22455665Y4906156D01*
X22627177Y5077668D01*
X22627177Y5077668D01*
G37*
D19*
X24000000Y4600000D03*
D11*
G36*
X23693844Y5077668D02*
X24306156Y5077668D01*
X24477668Y4906156D01*
X24477668Y4293844D01*
X24306156Y4122332D01*
X23693844Y4122332D01*
X23522332Y4293844D01*
X23522332Y4906156D01*
X23693844Y5077668D01*
X23693844Y5077668D01*
G37*
D19*
X25066667Y4600000D03*
D11*
G36*
X24760511Y5077668D02*
X25372823Y5077668D01*
X25544335Y4906156D01*
X25544335Y4293844D01*
X25372823Y4122332D01*
X24760511Y4122332D01*
X24588999Y4293844D01*
X24588999Y4906156D01*
X24760511Y5077668D01*
X24760511Y5077668D01*
G37*
D19*
X22933333Y5666667D03*
D11*
G36*
X22627177Y6144335D02*
X23239489Y6144335D01*
X23411001Y5972823D01*
X23411001Y5360511D01*
X23239489Y5188999D01*
X22627177Y5188999D01*
X22455665Y5360511D01*
X22455665Y5972823D01*
X22627177Y6144335D01*
X22627177Y6144335D01*
G37*
D19*
X24000000Y5666667D03*
D11*
G36*
X23693844Y6144335D02*
X24306156Y6144335D01*
X24477668Y5972823D01*
X24477668Y5360511D01*
X24306156Y5188999D01*
X23693844Y5188999D01*
X23522332Y5360511D01*
X23522332Y5972823D01*
X23693844Y6144335D01*
X23693844Y6144335D01*
G37*
D19*
X25066667Y5666667D03*
D11*
G36*
X24760511Y6144335D02*
X25372823Y6144335D01*
X25544335Y5972823D01*
X25544335Y5360511D01*
X25372823Y5188999D01*
X24760511Y5188999D01*
X24588999Y5360511D01*
X24588999Y5972823D01*
X24760511Y6144335D01*
X24760511Y6144335D01*
G37*
G36*
X21774411Y2549783D02*
X21778779Y2549135D01*
X21783063Y2548062D01*
X21787221Y2546575D01*
X21791213Y2544686D01*
X21795001Y2542416D01*
X21798548Y2539785D01*
X21801820Y2536820D01*
X21804785Y2533548D01*
X21807416Y2530001D01*
X21809686Y2526213D01*
X21811575Y2522221D01*
X21813062Y2518063D01*
X21814135Y2513779D01*
X21814783Y2509411D01*
X21815000Y2505000D01*
X21815000Y1795000D01*
X21814783Y1790589D01*
X21814135Y1786221D01*
X21813062Y1781937D01*
X21811575Y1777779D01*
X21809686Y1773787D01*
X21807416Y1769999D01*
X21804785Y1766452D01*
X21801820Y1763180D01*
X21798548Y1760215D01*
X21795001Y1757584D01*
X21791213Y1755314D01*
X21787221Y1753425D01*
X21783063Y1751938D01*
X21778779Y1750865D01*
X21774411Y1750217D01*
X21770000Y1750000D01*
X21680000Y1750000D01*
X21675589Y1750217D01*
X21671221Y1750865D01*
X21666937Y1751938D01*
X21662779Y1753425D01*
X21658787Y1755314D01*
X21654999Y1757584D01*
X21651452Y1760215D01*
X21648180Y1763180D01*
X21645215Y1766452D01*
X21642584Y1769999D01*
X21640314Y1773787D01*
X21638425Y1777779D01*
X21636938Y1781937D01*
X21635865Y1786221D01*
X21635217Y1790589D01*
X21635000Y1795000D01*
X21635000Y2505000D01*
X21635217Y2509411D01*
X21635865Y2513779D01*
X21636938Y2518063D01*
X21638425Y2522221D01*
X21640314Y2526213D01*
X21642584Y2530001D01*
X21645215Y2533548D01*
X21648180Y2536820D01*
X21651452Y2539785D01*
X21654999Y2542416D01*
X21658787Y2544686D01*
X21662779Y2546575D01*
X21666937Y2548062D01*
X21671221Y2549135D01*
X21675589Y2549783D01*
X21680000Y2550000D01*
X21770000Y2550000D01*
X21774411Y2549783D01*
X21774411Y2549783D01*
G37*
D20*
X21725000Y2150000D03*
D11*
G36*
X22124411Y2549783D02*
X22128779Y2549135D01*
X22133063Y2548062D01*
X22137221Y2546575D01*
X22141213Y2544686D01*
X22145001Y2542416D01*
X22148548Y2539785D01*
X22151820Y2536820D01*
X22154785Y2533548D01*
X22157416Y2530001D01*
X22159686Y2526213D01*
X22161575Y2522221D01*
X22163062Y2518063D01*
X22164135Y2513779D01*
X22164783Y2509411D01*
X22165000Y2505000D01*
X22165000Y1795000D01*
X22164783Y1790589D01*
X22164135Y1786221D01*
X22163062Y1781937D01*
X22161575Y1777779D01*
X22159686Y1773787D01*
X22157416Y1769999D01*
X22154785Y1766452D01*
X22151820Y1763180D01*
X22148548Y1760215D01*
X22145001Y1757584D01*
X22141213Y1755314D01*
X22137221Y1753425D01*
X22133063Y1751938D01*
X22128779Y1750865D01*
X22124411Y1750217D01*
X22120000Y1750000D01*
X22030000Y1750000D01*
X22025589Y1750217D01*
X22021221Y1750865D01*
X22016937Y1751938D01*
X22012779Y1753425D01*
X22008787Y1755314D01*
X22004999Y1757584D01*
X22001452Y1760215D01*
X21998180Y1763180D01*
X21995215Y1766452D01*
X21992584Y1769999D01*
X21990314Y1773787D01*
X21988425Y1777779D01*
X21986938Y1781937D01*
X21985865Y1786221D01*
X21985217Y1790589D01*
X21985000Y1795000D01*
X21985000Y2505000D01*
X21985217Y2509411D01*
X21985865Y2513779D01*
X21986938Y2518063D01*
X21988425Y2522221D01*
X21990314Y2526213D01*
X21992584Y2530001D01*
X21995215Y2533548D01*
X21998180Y2536820D01*
X22001452Y2539785D01*
X22004999Y2542416D01*
X22008787Y2544686D01*
X22012779Y2546575D01*
X22016937Y2548062D01*
X22021221Y2549135D01*
X22025589Y2549783D01*
X22030000Y2550000D01*
X22120000Y2550000D01*
X22124411Y2549783D01*
X22124411Y2549783D01*
G37*
D20*
X22075000Y2150000D03*
D11*
G36*
X22474411Y2549783D02*
X22478779Y2549135D01*
X22483063Y2548062D01*
X22487221Y2546575D01*
X22491213Y2544686D01*
X22495001Y2542416D01*
X22498548Y2539785D01*
X22501820Y2536820D01*
X22504785Y2533548D01*
X22507416Y2530001D01*
X22509686Y2526213D01*
X22511575Y2522221D01*
X22513062Y2518063D01*
X22514135Y2513779D01*
X22514783Y2509411D01*
X22515000Y2505000D01*
X22515000Y1795000D01*
X22514783Y1790589D01*
X22514135Y1786221D01*
X22513062Y1781937D01*
X22511575Y1777779D01*
X22509686Y1773787D01*
X22507416Y1769999D01*
X22504785Y1766452D01*
X22501820Y1763180D01*
X22498548Y1760215D01*
X22495001Y1757584D01*
X22491213Y1755314D01*
X22487221Y1753425D01*
X22483063Y1751938D01*
X22478779Y1750865D01*
X22474411Y1750217D01*
X22470000Y1750000D01*
X22380000Y1750000D01*
X22375589Y1750217D01*
X22371221Y1750865D01*
X22366937Y1751938D01*
X22362779Y1753425D01*
X22358787Y1755314D01*
X22354999Y1757584D01*
X22351452Y1760215D01*
X22348180Y1763180D01*
X22345215Y1766452D01*
X22342584Y1769999D01*
X22340314Y1773787D01*
X22338425Y1777779D01*
X22336938Y1781937D01*
X22335865Y1786221D01*
X22335217Y1790589D01*
X22335000Y1795000D01*
X22335000Y2505000D01*
X22335217Y2509411D01*
X22335865Y2513779D01*
X22336938Y2518063D01*
X22338425Y2522221D01*
X22340314Y2526213D01*
X22342584Y2530001D01*
X22345215Y2533548D01*
X22348180Y2536820D01*
X22351452Y2539785D01*
X22354999Y2542416D01*
X22358787Y2544686D01*
X22362779Y2546575D01*
X22366937Y2548062D01*
X22371221Y2549135D01*
X22375589Y2549783D01*
X22380000Y2550000D01*
X22470000Y2550000D01*
X22474411Y2549783D01*
X22474411Y2549783D01*
G37*
D20*
X22425000Y2150000D03*
D11*
G36*
X22824411Y2549783D02*
X22828779Y2549135D01*
X22833063Y2548062D01*
X22837221Y2546575D01*
X22841213Y2544686D01*
X22845001Y2542416D01*
X22848548Y2539785D01*
X22851820Y2536820D01*
X22854785Y2533548D01*
X22857416Y2530001D01*
X22859686Y2526213D01*
X22861575Y2522221D01*
X22863062Y2518063D01*
X22864135Y2513779D01*
X22864783Y2509411D01*
X22865000Y2505000D01*
X22865000Y1795000D01*
X22864783Y1790589D01*
X22864135Y1786221D01*
X22863062Y1781937D01*
X22861575Y1777779D01*
X22859686Y1773787D01*
X22857416Y1769999D01*
X22854785Y1766452D01*
X22851820Y1763180D01*
X22848548Y1760215D01*
X22845001Y1757584D01*
X22841213Y1755314D01*
X22837221Y1753425D01*
X22833063Y1751938D01*
X22828779Y1750865D01*
X22824411Y1750217D01*
X22820000Y1750000D01*
X22730000Y1750000D01*
X22725589Y1750217D01*
X22721221Y1750865D01*
X22716937Y1751938D01*
X22712779Y1753425D01*
X22708787Y1755314D01*
X22704999Y1757584D01*
X22701452Y1760215D01*
X22698180Y1763180D01*
X22695215Y1766452D01*
X22692584Y1769999D01*
X22690314Y1773787D01*
X22688425Y1777779D01*
X22686938Y1781937D01*
X22685865Y1786221D01*
X22685217Y1790589D01*
X22685000Y1795000D01*
X22685000Y2505000D01*
X22685217Y2509411D01*
X22685865Y2513779D01*
X22686938Y2518063D01*
X22688425Y2522221D01*
X22690314Y2526213D01*
X22692584Y2530001D01*
X22695215Y2533548D01*
X22698180Y2536820D01*
X22701452Y2539785D01*
X22704999Y2542416D01*
X22708787Y2544686D01*
X22712779Y2546575D01*
X22716937Y2548062D01*
X22721221Y2549135D01*
X22725589Y2549783D01*
X22730000Y2550000D01*
X22820000Y2550000D01*
X22824411Y2549783D01*
X22824411Y2549783D01*
G37*
D20*
X22775000Y2150000D03*
D11*
G36*
X23174411Y2549783D02*
X23178779Y2549135D01*
X23183063Y2548062D01*
X23187221Y2546575D01*
X23191213Y2544686D01*
X23195001Y2542416D01*
X23198548Y2539785D01*
X23201820Y2536820D01*
X23204785Y2533548D01*
X23207416Y2530001D01*
X23209686Y2526213D01*
X23211575Y2522221D01*
X23213062Y2518063D01*
X23214135Y2513779D01*
X23214783Y2509411D01*
X23215000Y2505000D01*
X23215000Y1795000D01*
X23214783Y1790589D01*
X23214135Y1786221D01*
X23213062Y1781937D01*
X23211575Y1777779D01*
X23209686Y1773787D01*
X23207416Y1769999D01*
X23204785Y1766452D01*
X23201820Y1763180D01*
X23198548Y1760215D01*
X23195001Y1757584D01*
X23191213Y1755314D01*
X23187221Y1753425D01*
X23183063Y1751938D01*
X23178779Y1750865D01*
X23174411Y1750217D01*
X23170000Y1750000D01*
X23080000Y1750000D01*
X23075589Y1750217D01*
X23071221Y1750865D01*
X23066937Y1751938D01*
X23062779Y1753425D01*
X23058787Y1755314D01*
X23054999Y1757584D01*
X23051452Y1760215D01*
X23048180Y1763180D01*
X23045215Y1766452D01*
X23042584Y1769999D01*
X23040314Y1773787D01*
X23038425Y1777779D01*
X23036938Y1781937D01*
X23035865Y1786221D01*
X23035217Y1790589D01*
X23035000Y1795000D01*
X23035000Y2505000D01*
X23035217Y2509411D01*
X23035865Y2513779D01*
X23036938Y2518063D01*
X23038425Y2522221D01*
X23040314Y2526213D01*
X23042584Y2530001D01*
X23045215Y2533548D01*
X23048180Y2536820D01*
X23051452Y2539785D01*
X23054999Y2542416D01*
X23058787Y2544686D01*
X23062779Y2546575D01*
X23066937Y2548062D01*
X23071221Y2549135D01*
X23075589Y2549783D01*
X23080000Y2550000D01*
X23170000Y2550000D01*
X23174411Y2549783D01*
X23174411Y2549783D01*
G37*
D20*
X23125000Y2150000D03*
D11*
G36*
X23524411Y2549783D02*
X23528779Y2549135D01*
X23533063Y2548062D01*
X23537221Y2546575D01*
X23541213Y2544686D01*
X23545001Y2542416D01*
X23548548Y2539785D01*
X23551820Y2536820D01*
X23554785Y2533548D01*
X23557416Y2530001D01*
X23559686Y2526213D01*
X23561575Y2522221D01*
X23563062Y2518063D01*
X23564135Y2513779D01*
X23564783Y2509411D01*
X23565000Y2505000D01*
X23565000Y1795000D01*
X23564783Y1790589D01*
X23564135Y1786221D01*
X23563062Y1781937D01*
X23561575Y1777779D01*
X23559686Y1773787D01*
X23557416Y1769999D01*
X23554785Y1766452D01*
X23551820Y1763180D01*
X23548548Y1760215D01*
X23545001Y1757584D01*
X23541213Y1755314D01*
X23537221Y1753425D01*
X23533063Y1751938D01*
X23528779Y1750865D01*
X23524411Y1750217D01*
X23520000Y1750000D01*
X23430000Y1750000D01*
X23425589Y1750217D01*
X23421221Y1750865D01*
X23416937Y1751938D01*
X23412779Y1753425D01*
X23408787Y1755314D01*
X23404999Y1757584D01*
X23401452Y1760215D01*
X23398180Y1763180D01*
X23395215Y1766452D01*
X23392584Y1769999D01*
X23390314Y1773787D01*
X23388425Y1777779D01*
X23386938Y1781937D01*
X23385865Y1786221D01*
X23385217Y1790589D01*
X23385000Y1795000D01*
X23385000Y2505000D01*
X23385217Y2509411D01*
X23385865Y2513779D01*
X23386938Y2518063D01*
X23388425Y2522221D01*
X23390314Y2526213D01*
X23392584Y2530001D01*
X23395215Y2533548D01*
X23398180Y2536820D01*
X23401452Y2539785D01*
X23404999Y2542416D01*
X23408787Y2544686D01*
X23412779Y2546575D01*
X23416937Y2548062D01*
X23421221Y2549135D01*
X23425589Y2549783D01*
X23430000Y2550000D01*
X23520000Y2550000D01*
X23524411Y2549783D01*
X23524411Y2549783D01*
G37*
D20*
X23475000Y2150000D03*
D11*
G36*
X23874411Y2549783D02*
X23878779Y2549135D01*
X23883063Y2548062D01*
X23887221Y2546575D01*
X23891213Y2544686D01*
X23895001Y2542416D01*
X23898548Y2539785D01*
X23901820Y2536820D01*
X23904785Y2533548D01*
X23907416Y2530001D01*
X23909686Y2526213D01*
X23911575Y2522221D01*
X23913062Y2518063D01*
X23914135Y2513779D01*
X23914783Y2509411D01*
X23915000Y2505000D01*
X23915000Y1795000D01*
X23914783Y1790589D01*
X23914135Y1786221D01*
X23913062Y1781937D01*
X23911575Y1777779D01*
X23909686Y1773787D01*
X23907416Y1769999D01*
X23904785Y1766452D01*
X23901820Y1763180D01*
X23898548Y1760215D01*
X23895001Y1757584D01*
X23891213Y1755314D01*
X23887221Y1753425D01*
X23883063Y1751938D01*
X23878779Y1750865D01*
X23874411Y1750217D01*
X23870000Y1750000D01*
X23780000Y1750000D01*
X23775589Y1750217D01*
X23771221Y1750865D01*
X23766937Y1751938D01*
X23762779Y1753425D01*
X23758787Y1755314D01*
X23754999Y1757584D01*
X23751452Y1760215D01*
X23748180Y1763180D01*
X23745215Y1766452D01*
X23742584Y1769999D01*
X23740314Y1773787D01*
X23738425Y1777779D01*
X23736938Y1781937D01*
X23735865Y1786221D01*
X23735217Y1790589D01*
X23735000Y1795000D01*
X23735000Y2505000D01*
X23735217Y2509411D01*
X23735865Y2513779D01*
X23736938Y2518063D01*
X23738425Y2522221D01*
X23740314Y2526213D01*
X23742584Y2530001D01*
X23745215Y2533548D01*
X23748180Y2536820D01*
X23751452Y2539785D01*
X23754999Y2542416D01*
X23758787Y2544686D01*
X23762779Y2546575D01*
X23766937Y2548062D01*
X23771221Y2549135D01*
X23775589Y2549783D01*
X23780000Y2550000D01*
X23870000Y2550000D01*
X23874411Y2549783D01*
X23874411Y2549783D01*
G37*
D20*
X23825000Y2150000D03*
D11*
G36*
X24224411Y2549783D02*
X24228779Y2549135D01*
X24233063Y2548062D01*
X24237221Y2546575D01*
X24241213Y2544686D01*
X24245001Y2542416D01*
X24248548Y2539785D01*
X24251820Y2536820D01*
X24254785Y2533548D01*
X24257416Y2530001D01*
X24259686Y2526213D01*
X24261575Y2522221D01*
X24263062Y2518063D01*
X24264135Y2513779D01*
X24264783Y2509411D01*
X24265000Y2505000D01*
X24265000Y1795000D01*
X24264783Y1790589D01*
X24264135Y1786221D01*
X24263062Y1781937D01*
X24261575Y1777779D01*
X24259686Y1773787D01*
X24257416Y1769999D01*
X24254785Y1766452D01*
X24251820Y1763180D01*
X24248548Y1760215D01*
X24245001Y1757584D01*
X24241213Y1755314D01*
X24237221Y1753425D01*
X24233063Y1751938D01*
X24228779Y1750865D01*
X24224411Y1750217D01*
X24220000Y1750000D01*
X24130000Y1750000D01*
X24125589Y1750217D01*
X24121221Y1750865D01*
X24116937Y1751938D01*
X24112779Y1753425D01*
X24108787Y1755314D01*
X24104999Y1757584D01*
X24101452Y1760215D01*
X24098180Y1763180D01*
X24095215Y1766452D01*
X24092584Y1769999D01*
X24090314Y1773787D01*
X24088425Y1777779D01*
X24086938Y1781937D01*
X24085865Y1786221D01*
X24085217Y1790589D01*
X24085000Y1795000D01*
X24085000Y2505000D01*
X24085217Y2509411D01*
X24085865Y2513779D01*
X24086938Y2518063D01*
X24088425Y2522221D01*
X24090314Y2526213D01*
X24092584Y2530001D01*
X24095215Y2533548D01*
X24098180Y2536820D01*
X24101452Y2539785D01*
X24104999Y2542416D01*
X24108787Y2544686D01*
X24112779Y2546575D01*
X24116937Y2548062D01*
X24121221Y2549135D01*
X24125589Y2549783D01*
X24130000Y2550000D01*
X24220000Y2550000D01*
X24224411Y2549783D01*
X24224411Y2549783D01*
G37*
D20*
X24175000Y2150000D03*
D11*
G36*
X24574411Y2549783D02*
X24578779Y2549135D01*
X24583063Y2548062D01*
X24587221Y2546575D01*
X24591213Y2544686D01*
X24595001Y2542416D01*
X24598548Y2539785D01*
X24601820Y2536820D01*
X24604785Y2533548D01*
X24607416Y2530001D01*
X24609686Y2526213D01*
X24611575Y2522221D01*
X24613062Y2518063D01*
X24614135Y2513779D01*
X24614783Y2509411D01*
X24615000Y2505000D01*
X24615000Y1795000D01*
X24614783Y1790589D01*
X24614135Y1786221D01*
X24613062Y1781937D01*
X24611575Y1777779D01*
X24609686Y1773787D01*
X24607416Y1769999D01*
X24604785Y1766452D01*
X24601820Y1763180D01*
X24598548Y1760215D01*
X24595001Y1757584D01*
X24591213Y1755314D01*
X24587221Y1753425D01*
X24583063Y1751938D01*
X24578779Y1750865D01*
X24574411Y1750217D01*
X24570000Y1750000D01*
X24480000Y1750000D01*
X24475589Y1750217D01*
X24471221Y1750865D01*
X24466937Y1751938D01*
X24462779Y1753425D01*
X24458787Y1755314D01*
X24454999Y1757584D01*
X24451452Y1760215D01*
X24448180Y1763180D01*
X24445215Y1766452D01*
X24442584Y1769999D01*
X24440314Y1773787D01*
X24438425Y1777779D01*
X24436938Y1781937D01*
X24435865Y1786221D01*
X24435217Y1790589D01*
X24435000Y1795000D01*
X24435000Y2505000D01*
X24435217Y2509411D01*
X24435865Y2513779D01*
X24436938Y2518063D01*
X24438425Y2522221D01*
X24440314Y2526213D01*
X24442584Y2530001D01*
X24445215Y2533548D01*
X24448180Y2536820D01*
X24451452Y2539785D01*
X24454999Y2542416D01*
X24458787Y2544686D01*
X24462779Y2546575D01*
X24466937Y2548062D01*
X24471221Y2549135D01*
X24475589Y2549783D01*
X24480000Y2550000D01*
X24570000Y2550000D01*
X24574411Y2549783D01*
X24574411Y2549783D01*
G37*
D20*
X24525000Y2150000D03*
D11*
G36*
X24924411Y2549783D02*
X24928779Y2549135D01*
X24933063Y2548062D01*
X24937221Y2546575D01*
X24941213Y2544686D01*
X24945001Y2542416D01*
X24948548Y2539785D01*
X24951820Y2536820D01*
X24954785Y2533548D01*
X24957416Y2530001D01*
X24959686Y2526213D01*
X24961575Y2522221D01*
X24963062Y2518063D01*
X24964135Y2513779D01*
X24964783Y2509411D01*
X24965000Y2505000D01*
X24965000Y1795000D01*
X24964783Y1790589D01*
X24964135Y1786221D01*
X24963062Y1781937D01*
X24961575Y1777779D01*
X24959686Y1773787D01*
X24957416Y1769999D01*
X24954785Y1766452D01*
X24951820Y1763180D01*
X24948548Y1760215D01*
X24945001Y1757584D01*
X24941213Y1755314D01*
X24937221Y1753425D01*
X24933063Y1751938D01*
X24928779Y1750865D01*
X24924411Y1750217D01*
X24920000Y1750000D01*
X24830000Y1750000D01*
X24825589Y1750217D01*
X24821221Y1750865D01*
X24816937Y1751938D01*
X24812779Y1753425D01*
X24808787Y1755314D01*
X24804999Y1757584D01*
X24801452Y1760215D01*
X24798180Y1763180D01*
X24795215Y1766452D01*
X24792584Y1769999D01*
X24790314Y1773787D01*
X24788425Y1777779D01*
X24786938Y1781937D01*
X24785865Y1786221D01*
X24785217Y1790589D01*
X24785000Y1795000D01*
X24785000Y2505000D01*
X24785217Y2509411D01*
X24785865Y2513779D01*
X24786938Y2518063D01*
X24788425Y2522221D01*
X24790314Y2526213D01*
X24792584Y2530001D01*
X24795215Y2533548D01*
X24798180Y2536820D01*
X24801452Y2539785D01*
X24804999Y2542416D01*
X24808787Y2544686D01*
X24812779Y2546575D01*
X24816937Y2548062D01*
X24821221Y2549135D01*
X24825589Y2549783D01*
X24830000Y2550000D01*
X24920000Y2550000D01*
X24924411Y2549783D01*
X24924411Y2549783D01*
G37*
D20*
X24875000Y2150000D03*
D11*
G36*
X25274411Y2549783D02*
X25278779Y2549135D01*
X25283063Y2548062D01*
X25287221Y2546575D01*
X25291213Y2544686D01*
X25295001Y2542416D01*
X25298548Y2539785D01*
X25301820Y2536820D01*
X25304785Y2533548D01*
X25307416Y2530001D01*
X25309686Y2526213D01*
X25311575Y2522221D01*
X25313062Y2518063D01*
X25314135Y2513779D01*
X25314783Y2509411D01*
X25315000Y2505000D01*
X25315000Y1795000D01*
X25314783Y1790589D01*
X25314135Y1786221D01*
X25313062Y1781937D01*
X25311575Y1777779D01*
X25309686Y1773787D01*
X25307416Y1769999D01*
X25304785Y1766452D01*
X25301820Y1763180D01*
X25298548Y1760215D01*
X25295001Y1757584D01*
X25291213Y1755314D01*
X25287221Y1753425D01*
X25283063Y1751938D01*
X25278779Y1750865D01*
X25274411Y1750217D01*
X25270000Y1750000D01*
X25180000Y1750000D01*
X25175589Y1750217D01*
X25171221Y1750865D01*
X25166937Y1751938D01*
X25162779Y1753425D01*
X25158787Y1755314D01*
X25154999Y1757584D01*
X25151452Y1760215D01*
X25148180Y1763180D01*
X25145215Y1766452D01*
X25142584Y1769999D01*
X25140314Y1773787D01*
X25138425Y1777779D01*
X25136938Y1781937D01*
X25135865Y1786221D01*
X25135217Y1790589D01*
X25135000Y1795000D01*
X25135000Y2505000D01*
X25135217Y2509411D01*
X25135865Y2513779D01*
X25136938Y2518063D01*
X25138425Y2522221D01*
X25140314Y2526213D01*
X25142584Y2530001D01*
X25145215Y2533548D01*
X25148180Y2536820D01*
X25151452Y2539785D01*
X25154999Y2542416D01*
X25158787Y2544686D01*
X25162779Y2546575D01*
X25166937Y2548062D01*
X25171221Y2549135D01*
X25175589Y2549783D01*
X25180000Y2550000D01*
X25270000Y2550000D01*
X25274411Y2549783D01*
X25274411Y2549783D01*
G37*
D20*
X25225000Y2150000D03*
D11*
G36*
X25624411Y2549783D02*
X25628779Y2549135D01*
X25633063Y2548062D01*
X25637221Y2546575D01*
X25641213Y2544686D01*
X25645001Y2542416D01*
X25648548Y2539785D01*
X25651820Y2536820D01*
X25654785Y2533548D01*
X25657416Y2530001D01*
X25659686Y2526213D01*
X25661575Y2522221D01*
X25663062Y2518063D01*
X25664135Y2513779D01*
X25664783Y2509411D01*
X25665000Y2505000D01*
X25665000Y1795000D01*
X25664783Y1790589D01*
X25664135Y1786221D01*
X25663062Y1781937D01*
X25661575Y1777779D01*
X25659686Y1773787D01*
X25657416Y1769999D01*
X25654785Y1766452D01*
X25651820Y1763180D01*
X25648548Y1760215D01*
X25645001Y1757584D01*
X25641213Y1755314D01*
X25637221Y1753425D01*
X25633063Y1751938D01*
X25628779Y1750865D01*
X25624411Y1750217D01*
X25620000Y1750000D01*
X25530000Y1750000D01*
X25525589Y1750217D01*
X25521221Y1750865D01*
X25516937Y1751938D01*
X25512779Y1753425D01*
X25508787Y1755314D01*
X25504999Y1757584D01*
X25501452Y1760215D01*
X25498180Y1763180D01*
X25495215Y1766452D01*
X25492584Y1769999D01*
X25490314Y1773787D01*
X25488425Y1777779D01*
X25486938Y1781937D01*
X25485865Y1786221D01*
X25485217Y1790589D01*
X25485000Y1795000D01*
X25485000Y2505000D01*
X25485217Y2509411D01*
X25485865Y2513779D01*
X25486938Y2518063D01*
X25488425Y2522221D01*
X25490314Y2526213D01*
X25492584Y2530001D01*
X25495215Y2533548D01*
X25498180Y2536820D01*
X25501452Y2539785D01*
X25504999Y2542416D01*
X25508787Y2544686D01*
X25512779Y2546575D01*
X25516937Y2548062D01*
X25521221Y2549135D01*
X25525589Y2549783D01*
X25530000Y2550000D01*
X25620000Y2550000D01*
X25624411Y2549783D01*
X25624411Y2549783D01*
G37*
D20*
X25575000Y2150000D03*
D11*
G36*
X25974411Y2549783D02*
X25978779Y2549135D01*
X25983063Y2548062D01*
X25987221Y2546575D01*
X25991213Y2544686D01*
X25995001Y2542416D01*
X25998548Y2539785D01*
X26001820Y2536820D01*
X26004785Y2533548D01*
X26007416Y2530001D01*
X26009686Y2526213D01*
X26011575Y2522221D01*
X26013062Y2518063D01*
X26014135Y2513779D01*
X26014783Y2509411D01*
X26015000Y2505000D01*
X26015000Y1795000D01*
X26014783Y1790589D01*
X26014135Y1786221D01*
X26013062Y1781937D01*
X26011575Y1777779D01*
X26009686Y1773787D01*
X26007416Y1769999D01*
X26004785Y1766452D01*
X26001820Y1763180D01*
X25998548Y1760215D01*
X25995001Y1757584D01*
X25991213Y1755314D01*
X25987221Y1753425D01*
X25983063Y1751938D01*
X25978779Y1750865D01*
X25974411Y1750217D01*
X25970000Y1750000D01*
X25880000Y1750000D01*
X25875589Y1750217D01*
X25871221Y1750865D01*
X25866937Y1751938D01*
X25862779Y1753425D01*
X25858787Y1755314D01*
X25854999Y1757584D01*
X25851452Y1760215D01*
X25848180Y1763180D01*
X25845215Y1766452D01*
X25842584Y1769999D01*
X25840314Y1773787D01*
X25838425Y1777779D01*
X25836938Y1781937D01*
X25835865Y1786221D01*
X25835217Y1790589D01*
X25835000Y1795000D01*
X25835000Y2505000D01*
X25835217Y2509411D01*
X25835865Y2513779D01*
X25836938Y2518063D01*
X25838425Y2522221D01*
X25840314Y2526213D01*
X25842584Y2530001D01*
X25845215Y2533548D01*
X25848180Y2536820D01*
X25851452Y2539785D01*
X25854999Y2542416D01*
X25858787Y2544686D01*
X25862779Y2546575D01*
X25866937Y2548062D01*
X25871221Y2549135D01*
X25875589Y2549783D01*
X25880000Y2550000D01*
X25970000Y2550000D01*
X25974411Y2549783D01*
X25974411Y2549783D01*
G37*
D20*
X25925000Y2150000D03*
D11*
G36*
X26324411Y2549783D02*
X26328779Y2549135D01*
X26333063Y2548062D01*
X26337221Y2546575D01*
X26341213Y2544686D01*
X26345001Y2542416D01*
X26348548Y2539785D01*
X26351820Y2536820D01*
X26354785Y2533548D01*
X26357416Y2530001D01*
X26359686Y2526213D01*
X26361575Y2522221D01*
X26363062Y2518063D01*
X26364135Y2513779D01*
X26364783Y2509411D01*
X26365000Y2505000D01*
X26365000Y1795000D01*
X26364783Y1790589D01*
X26364135Y1786221D01*
X26363062Y1781937D01*
X26361575Y1777779D01*
X26359686Y1773787D01*
X26357416Y1769999D01*
X26354785Y1766452D01*
X26351820Y1763180D01*
X26348548Y1760215D01*
X26345001Y1757584D01*
X26341213Y1755314D01*
X26337221Y1753425D01*
X26333063Y1751938D01*
X26328779Y1750865D01*
X26324411Y1750217D01*
X26320000Y1750000D01*
X26230000Y1750000D01*
X26225589Y1750217D01*
X26221221Y1750865D01*
X26216937Y1751938D01*
X26212779Y1753425D01*
X26208787Y1755314D01*
X26204999Y1757584D01*
X26201452Y1760215D01*
X26198180Y1763180D01*
X26195215Y1766452D01*
X26192584Y1769999D01*
X26190314Y1773787D01*
X26188425Y1777779D01*
X26186938Y1781937D01*
X26185865Y1786221D01*
X26185217Y1790589D01*
X26185000Y1795000D01*
X26185000Y2505000D01*
X26185217Y2509411D01*
X26185865Y2513779D01*
X26186938Y2518063D01*
X26188425Y2522221D01*
X26190314Y2526213D01*
X26192584Y2530001D01*
X26195215Y2533548D01*
X26198180Y2536820D01*
X26201452Y2539785D01*
X26204999Y2542416D01*
X26208787Y2544686D01*
X26212779Y2546575D01*
X26216937Y2548062D01*
X26221221Y2549135D01*
X26225589Y2549783D01*
X26230000Y2550000D01*
X26320000Y2550000D01*
X26324411Y2549783D01*
X26324411Y2549783D01*
G37*
D20*
X26275000Y2150000D03*
D11*
G36*
X26809411Y3114783D02*
X26813779Y3114135D01*
X26818063Y3113062D01*
X26822221Y3111575D01*
X26826213Y3109686D01*
X26830001Y3107416D01*
X26833548Y3104785D01*
X26836820Y3101820D01*
X26839785Y3098548D01*
X26842416Y3095001D01*
X26844686Y3091213D01*
X26846575Y3087221D01*
X26848062Y3083063D01*
X26849135Y3078779D01*
X26849783Y3074411D01*
X26850000Y3070000D01*
X26850000Y2980000D01*
X26849783Y2975589D01*
X26849135Y2971221D01*
X26848062Y2966937D01*
X26846575Y2962779D01*
X26844686Y2958787D01*
X26842416Y2954999D01*
X26839785Y2951452D01*
X26836820Y2948180D01*
X26833548Y2945215D01*
X26830001Y2942584D01*
X26826213Y2940314D01*
X26822221Y2938425D01*
X26818063Y2936938D01*
X26813779Y2935865D01*
X26809411Y2935217D01*
X26805000Y2935000D01*
X26095000Y2935000D01*
X26090589Y2935217D01*
X26086221Y2935865D01*
X26081937Y2936938D01*
X26077779Y2938425D01*
X26073787Y2940314D01*
X26069999Y2942584D01*
X26066452Y2945215D01*
X26063180Y2948180D01*
X26060215Y2951452D01*
X26057584Y2954999D01*
X26055314Y2958787D01*
X26053425Y2962779D01*
X26051938Y2966937D01*
X26050865Y2971221D01*
X26050217Y2975589D01*
X26050000Y2980000D01*
X26050000Y3070000D01*
X26050217Y3074411D01*
X26050865Y3078779D01*
X26051938Y3083063D01*
X26053425Y3087221D01*
X26055314Y3091213D01*
X26057584Y3095001D01*
X26060215Y3098548D01*
X26063180Y3101820D01*
X26066452Y3104785D01*
X26069999Y3107416D01*
X26073787Y3109686D01*
X26077779Y3111575D01*
X26081937Y3113062D01*
X26086221Y3114135D01*
X26090589Y3114783D01*
X26095000Y3115000D01*
X26805000Y3115000D01*
X26809411Y3114783D01*
X26809411Y3114783D01*
G37*
D20*
X26450000Y3025000D03*
D11*
G36*
X26809411Y3464783D02*
X26813779Y3464135D01*
X26818063Y3463062D01*
X26822221Y3461575D01*
X26826213Y3459686D01*
X26830001Y3457416D01*
X26833548Y3454785D01*
X26836820Y3451820D01*
X26839785Y3448548D01*
X26842416Y3445001D01*
X26844686Y3441213D01*
X26846575Y3437221D01*
X26848062Y3433063D01*
X26849135Y3428779D01*
X26849783Y3424411D01*
X26850000Y3420000D01*
X26850000Y3330000D01*
X26849783Y3325589D01*
X26849135Y3321221D01*
X26848062Y3316937D01*
X26846575Y3312779D01*
X26844686Y3308787D01*
X26842416Y3304999D01*
X26839785Y3301452D01*
X26836820Y3298180D01*
X26833548Y3295215D01*
X26830001Y3292584D01*
X26826213Y3290314D01*
X26822221Y3288425D01*
X26818063Y3286938D01*
X26813779Y3285865D01*
X26809411Y3285217D01*
X26805000Y3285000D01*
X26095000Y3285000D01*
X26090589Y3285217D01*
X26086221Y3285865D01*
X26081937Y3286938D01*
X26077779Y3288425D01*
X26073787Y3290314D01*
X26069999Y3292584D01*
X26066452Y3295215D01*
X26063180Y3298180D01*
X26060215Y3301452D01*
X26057584Y3304999D01*
X26055314Y3308787D01*
X26053425Y3312779D01*
X26051938Y3316937D01*
X26050865Y3321221D01*
X26050217Y3325589D01*
X26050000Y3330000D01*
X26050000Y3420000D01*
X26050217Y3424411D01*
X26050865Y3428779D01*
X26051938Y3433063D01*
X26053425Y3437221D01*
X26055314Y3441213D01*
X26057584Y3445001D01*
X26060215Y3448548D01*
X26063180Y3451820D01*
X26066452Y3454785D01*
X26069999Y3457416D01*
X26073787Y3459686D01*
X26077779Y3461575D01*
X26081937Y3463062D01*
X26086221Y3464135D01*
X26090589Y3464783D01*
X26095000Y3465000D01*
X26805000Y3465000D01*
X26809411Y3464783D01*
X26809411Y3464783D01*
G37*
D20*
X26450000Y3375000D03*
D11*
G36*
X26809411Y3814783D02*
X26813779Y3814135D01*
X26818063Y3813062D01*
X26822221Y3811575D01*
X26826213Y3809686D01*
X26830001Y3807416D01*
X26833548Y3804785D01*
X26836820Y3801820D01*
X26839785Y3798548D01*
X26842416Y3795001D01*
X26844686Y3791213D01*
X26846575Y3787221D01*
X26848062Y3783063D01*
X26849135Y3778779D01*
X26849783Y3774411D01*
X26850000Y3770000D01*
X26850000Y3680000D01*
X26849783Y3675589D01*
X26849135Y3671221D01*
X26848062Y3666937D01*
X26846575Y3662779D01*
X26844686Y3658787D01*
X26842416Y3654999D01*
X26839785Y3651452D01*
X26836820Y3648180D01*
X26833548Y3645215D01*
X26830001Y3642584D01*
X26826213Y3640314D01*
X26822221Y3638425D01*
X26818063Y3636938D01*
X26813779Y3635865D01*
X26809411Y3635217D01*
X26805000Y3635000D01*
X26095000Y3635000D01*
X26090589Y3635217D01*
X26086221Y3635865D01*
X26081937Y3636938D01*
X26077779Y3638425D01*
X26073787Y3640314D01*
X26069999Y3642584D01*
X26066452Y3645215D01*
X26063180Y3648180D01*
X26060215Y3651452D01*
X26057584Y3654999D01*
X26055314Y3658787D01*
X26053425Y3662779D01*
X26051938Y3666937D01*
X26050865Y3671221D01*
X26050217Y3675589D01*
X26050000Y3680000D01*
X26050000Y3770000D01*
X26050217Y3774411D01*
X26050865Y3778779D01*
X26051938Y3783063D01*
X26053425Y3787221D01*
X26055314Y3791213D01*
X26057584Y3795001D01*
X26060215Y3798548D01*
X26063180Y3801820D01*
X26066452Y3804785D01*
X26069999Y3807416D01*
X26073787Y3809686D01*
X26077779Y3811575D01*
X26081937Y3813062D01*
X26086221Y3814135D01*
X26090589Y3814783D01*
X26095000Y3815000D01*
X26805000Y3815000D01*
X26809411Y3814783D01*
X26809411Y3814783D01*
G37*
D20*
X26450000Y3725000D03*
D11*
G36*
X26809411Y4164783D02*
X26813779Y4164135D01*
X26818063Y4163062D01*
X26822221Y4161575D01*
X26826213Y4159686D01*
X26830001Y4157416D01*
X26833548Y4154785D01*
X26836820Y4151820D01*
X26839785Y4148548D01*
X26842416Y4145001D01*
X26844686Y4141213D01*
X26846575Y4137221D01*
X26848062Y4133063D01*
X26849135Y4128779D01*
X26849783Y4124411D01*
X26850000Y4120000D01*
X26850000Y4030000D01*
X26849783Y4025589D01*
X26849135Y4021221D01*
X26848062Y4016937D01*
X26846575Y4012779D01*
X26844686Y4008787D01*
X26842416Y4004999D01*
X26839785Y4001452D01*
X26836820Y3998180D01*
X26833548Y3995215D01*
X26830001Y3992584D01*
X26826213Y3990314D01*
X26822221Y3988425D01*
X26818063Y3986938D01*
X26813779Y3985865D01*
X26809411Y3985217D01*
X26805000Y3985000D01*
X26095000Y3985000D01*
X26090589Y3985217D01*
X26086221Y3985865D01*
X26081937Y3986938D01*
X26077779Y3988425D01*
X26073787Y3990314D01*
X26069999Y3992584D01*
X26066452Y3995215D01*
X26063180Y3998180D01*
X26060215Y4001452D01*
X26057584Y4004999D01*
X26055314Y4008787D01*
X26053425Y4012779D01*
X26051938Y4016937D01*
X26050865Y4021221D01*
X26050217Y4025589D01*
X26050000Y4030000D01*
X26050000Y4120000D01*
X26050217Y4124411D01*
X26050865Y4128779D01*
X26051938Y4133063D01*
X26053425Y4137221D01*
X26055314Y4141213D01*
X26057584Y4145001D01*
X26060215Y4148548D01*
X26063180Y4151820D01*
X26066452Y4154785D01*
X26069999Y4157416D01*
X26073787Y4159686D01*
X26077779Y4161575D01*
X26081937Y4163062D01*
X26086221Y4164135D01*
X26090589Y4164783D01*
X26095000Y4165000D01*
X26805000Y4165000D01*
X26809411Y4164783D01*
X26809411Y4164783D01*
G37*
D20*
X26450000Y4075000D03*
D11*
G36*
X26809411Y4514783D02*
X26813779Y4514135D01*
X26818063Y4513062D01*
X26822221Y4511575D01*
X26826213Y4509686D01*
X26830001Y4507416D01*
X26833548Y4504785D01*
X26836820Y4501820D01*
X26839785Y4498548D01*
X26842416Y4495001D01*
X26844686Y4491213D01*
X26846575Y4487221D01*
X26848062Y4483063D01*
X26849135Y4478779D01*
X26849783Y4474411D01*
X26850000Y4470000D01*
X26850000Y4380000D01*
X26849783Y4375589D01*
X26849135Y4371221D01*
X26848062Y4366937D01*
X26846575Y4362779D01*
X26844686Y4358787D01*
X26842416Y4354999D01*
X26839785Y4351452D01*
X26836820Y4348180D01*
X26833548Y4345215D01*
X26830001Y4342584D01*
X26826213Y4340314D01*
X26822221Y4338425D01*
X26818063Y4336938D01*
X26813779Y4335865D01*
X26809411Y4335217D01*
X26805000Y4335000D01*
X26095000Y4335000D01*
X26090589Y4335217D01*
X26086221Y4335865D01*
X26081937Y4336938D01*
X26077779Y4338425D01*
X26073787Y4340314D01*
X26069999Y4342584D01*
X26066452Y4345215D01*
X26063180Y4348180D01*
X26060215Y4351452D01*
X26057584Y4354999D01*
X26055314Y4358787D01*
X26053425Y4362779D01*
X26051938Y4366937D01*
X26050865Y4371221D01*
X26050217Y4375589D01*
X26050000Y4380000D01*
X26050000Y4470000D01*
X26050217Y4474411D01*
X26050865Y4478779D01*
X26051938Y4483063D01*
X26053425Y4487221D01*
X26055314Y4491213D01*
X26057584Y4495001D01*
X26060215Y4498548D01*
X26063180Y4501820D01*
X26066452Y4504785D01*
X26069999Y4507416D01*
X26073787Y4509686D01*
X26077779Y4511575D01*
X26081937Y4513062D01*
X26086221Y4514135D01*
X26090589Y4514783D01*
X26095000Y4515000D01*
X26805000Y4515000D01*
X26809411Y4514783D01*
X26809411Y4514783D01*
G37*
D20*
X26450000Y4425000D03*
D11*
G36*
X26809411Y4864783D02*
X26813779Y4864135D01*
X26818063Y4863062D01*
X26822221Y4861575D01*
X26826213Y4859686D01*
X26830001Y4857416D01*
X26833548Y4854785D01*
X26836820Y4851820D01*
X26839785Y4848548D01*
X26842416Y4845001D01*
X26844686Y4841213D01*
X26846575Y4837221D01*
X26848062Y4833063D01*
X26849135Y4828779D01*
X26849783Y4824411D01*
X26850000Y4820000D01*
X26850000Y4730000D01*
X26849783Y4725589D01*
X26849135Y4721221D01*
X26848062Y4716937D01*
X26846575Y4712779D01*
X26844686Y4708787D01*
X26842416Y4704999D01*
X26839785Y4701452D01*
X26836820Y4698180D01*
X26833548Y4695215D01*
X26830001Y4692584D01*
X26826213Y4690314D01*
X26822221Y4688425D01*
X26818063Y4686938D01*
X26813779Y4685865D01*
X26809411Y4685217D01*
X26805000Y4685000D01*
X26095000Y4685000D01*
X26090589Y4685217D01*
X26086221Y4685865D01*
X26081937Y4686938D01*
X26077779Y4688425D01*
X26073787Y4690314D01*
X26069999Y4692584D01*
X26066452Y4695215D01*
X26063180Y4698180D01*
X26060215Y4701452D01*
X26057584Y4704999D01*
X26055314Y4708787D01*
X26053425Y4712779D01*
X26051938Y4716937D01*
X26050865Y4721221D01*
X26050217Y4725589D01*
X26050000Y4730000D01*
X26050000Y4820000D01*
X26050217Y4824411D01*
X26050865Y4828779D01*
X26051938Y4833063D01*
X26053425Y4837221D01*
X26055314Y4841213D01*
X26057584Y4845001D01*
X26060215Y4848548D01*
X26063180Y4851820D01*
X26066452Y4854785D01*
X26069999Y4857416D01*
X26073787Y4859686D01*
X26077779Y4861575D01*
X26081937Y4863062D01*
X26086221Y4864135D01*
X26090589Y4864783D01*
X26095000Y4865000D01*
X26805000Y4865000D01*
X26809411Y4864783D01*
X26809411Y4864783D01*
G37*
D20*
X26450000Y4775000D03*
D11*
G36*
X26809411Y5214783D02*
X26813779Y5214135D01*
X26818063Y5213062D01*
X26822221Y5211575D01*
X26826213Y5209686D01*
X26830001Y5207416D01*
X26833548Y5204785D01*
X26836820Y5201820D01*
X26839785Y5198548D01*
X26842416Y5195001D01*
X26844686Y5191213D01*
X26846575Y5187221D01*
X26848062Y5183063D01*
X26849135Y5178779D01*
X26849783Y5174411D01*
X26850000Y5170000D01*
X26850000Y5080000D01*
X26849783Y5075589D01*
X26849135Y5071221D01*
X26848062Y5066937D01*
X26846575Y5062779D01*
X26844686Y5058787D01*
X26842416Y5054999D01*
X26839785Y5051452D01*
X26836820Y5048180D01*
X26833548Y5045215D01*
X26830001Y5042584D01*
X26826213Y5040314D01*
X26822221Y5038425D01*
X26818063Y5036938D01*
X26813779Y5035865D01*
X26809411Y5035217D01*
X26805000Y5035000D01*
X26095000Y5035000D01*
X26090589Y5035217D01*
X26086221Y5035865D01*
X26081937Y5036938D01*
X26077779Y5038425D01*
X26073787Y5040314D01*
X26069999Y5042584D01*
X26066452Y5045215D01*
X26063180Y5048180D01*
X26060215Y5051452D01*
X26057584Y5054999D01*
X26055314Y5058787D01*
X26053425Y5062779D01*
X26051938Y5066937D01*
X26050865Y5071221D01*
X26050217Y5075589D01*
X26050000Y5080000D01*
X26050000Y5170000D01*
X26050217Y5174411D01*
X26050865Y5178779D01*
X26051938Y5183063D01*
X26053425Y5187221D01*
X26055314Y5191213D01*
X26057584Y5195001D01*
X26060215Y5198548D01*
X26063180Y5201820D01*
X26066452Y5204785D01*
X26069999Y5207416D01*
X26073787Y5209686D01*
X26077779Y5211575D01*
X26081937Y5213062D01*
X26086221Y5214135D01*
X26090589Y5214783D01*
X26095000Y5215000D01*
X26805000Y5215000D01*
X26809411Y5214783D01*
X26809411Y5214783D01*
G37*
D20*
X26450000Y5125000D03*
D11*
G36*
X26809411Y5564783D02*
X26813779Y5564135D01*
X26818063Y5563062D01*
X26822221Y5561575D01*
X26826213Y5559686D01*
X26830001Y5557416D01*
X26833548Y5554785D01*
X26836820Y5551820D01*
X26839785Y5548548D01*
X26842416Y5545001D01*
X26844686Y5541213D01*
X26846575Y5537221D01*
X26848062Y5533063D01*
X26849135Y5528779D01*
X26849783Y5524411D01*
X26850000Y5520000D01*
X26850000Y5430000D01*
X26849783Y5425589D01*
X26849135Y5421221D01*
X26848062Y5416937D01*
X26846575Y5412779D01*
X26844686Y5408787D01*
X26842416Y5404999D01*
X26839785Y5401452D01*
X26836820Y5398180D01*
X26833548Y5395215D01*
X26830001Y5392584D01*
X26826213Y5390314D01*
X26822221Y5388425D01*
X26818063Y5386938D01*
X26813779Y5385865D01*
X26809411Y5385217D01*
X26805000Y5385000D01*
X26095000Y5385000D01*
X26090589Y5385217D01*
X26086221Y5385865D01*
X26081937Y5386938D01*
X26077779Y5388425D01*
X26073787Y5390314D01*
X26069999Y5392584D01*
X26066452Y5395215D01*
X26063180Y5398180D01*
X26060215Y5401452D01*
X26057584Y5404999D01*
X26055314Y5408787D01*
X26053425Y5412779D01*
X26051938Y5416937D01*
X26050865Y5421221D01*
X26050217Y5425589D01*
X26050000Y5430000D01*
X26050000Y5520000D01*
X26050217Y5524411D01*
X26050865Y5528779D01*
X26051938Y5533063D01*
X26053425Y5537221D01*
X26055314Y5541213D01*
X26057584Y5545001D01*
X26060215Y5548548D01*
X26063180Y5551820D01*
X26066452Y5554785D01*
X26069999Y5557416D01*
X26073787Y5559686D01*
X26077779Y5561575D01*
X26081937Y5563062D01*
X26086221Y5564135D01*
X26090589Y5564783D01*
X26095000Y5565000D01*
X26805000Y5565000D01*
X26809411Y5564783D01*
X26809411Y5564783D01*
G37*
D20*
X26450000Y5475000D03*
D11*
G36*
X26809411Y5914783D02*
X26813779Y5914135D01*
X26818063Y5913062D01*
X26822221Y5911575D01*
X26826213Y5909686D01*
X26830001Y5907416D01*
X26833548Y5904785D01*
X26836820Y5901820D01*
X26839785Y5898548D01*
X26842416Y5895001D01*
X26844686Y5891213D01*
X26846575Y5887221D01*
X26848062Y5883063D01*
X26849135Y5878779D01*
X26849783Y5874411D01*
X26850000Y5870000D01*
X26850000Y5780000D01*
X26849783Y5775589D01*
X26849135Y5771221D01*
X26848062Y5766937D01*
X26846575Y5762779D01*
X26844686Y5758787D01*
X26842416Y5754999D01*
X26839785Y5751452D01*
X26836820Y5748180D01*
X26833548Y5745215D01*
X26830001Y5742584D01*
X26826213Y5740314D01*
X26822221Y5738425D01*
X26818063Y5736938D01*
X26813779Y5735865D01*
X26809411Y5735217D01*
X26805000Y5735000D01*
X26095000Y5735000D01*
X26090589Y5735217D01*
X26086221Y5735865D01*
X26081937Y5736938D01*
X26077779Y5738425D01*
X26073787Y5740314D01*
X26069999Y5742584D01*
X26066452Y5745215D01*
X26063180Y5748180D01*
X26060215Y5751452D01*
X26057584Y5754999D01*
X26055314Y5758787D01*
X26053425Y5762779D01*
X26051938Y5766937D01*
X26050865Y5771221D01*
X26050217Y5775589D01*
X26050000Y5780000D01*
X26050000Y5870000D01*
X26050217Y5874411D01*
X26050865Y5878779D01*
X26051938Y5883063D01*
X26053425Y5887221D01*
X26055314Y5891213D01*
X26057584Y5895001D01*
X26060215Y5898548D01*
X26063180Y5901820D01*
X26066452Y5904785D01*
X26069999Y5907416D01*
X26073787Y5909686D01*
X26077779Y5911575D01*
X26081937Y5913062D01*
X26086221Y5914135D01*
X26090589Y5914783D01*
X26095000Y5915000D01*
X26805000Y5915000D01*
X26809411Y5914783D01*
X26809411Y5914783D01*
G37*
D20*
X26450000Y5825000D03*
D11*
G36*
X26809411Y6264783D02*
X26813779Y6264135D01*
X26818063Y6263062D01*
X26822221Y6261575D01*
X26826213Y6259686D01*
X26830001Y6257416D01*
X26833548Y6254785D01*
X26836820Y6251820D01*
X26839785Y6248548D01*
X26842416Y6245001D01*
X26844686Y6241213D01*
X26846575Y6237221D01*
X26848062Y6233063D01*
X26849135Y6228779D01*
X26849783Y6224411D01*
X26850000Y6220000D01*
X26850000Y6130000D01*
X26849783Y6125589D01*
X26849135Y6121221D01*
X26848062Y6116937D01*
X26846575Y6112779D01*
X26844686Y6108787D01*
X26842416Y6104999D01*
X26839785Y6101452D01*
X26836820Y6098180D01*
X26833548Y6095215D01*
X26830001Y6092584D01*
X26826213Y6090314D01*
X26822221Y6088425D01*
X26818063Y6086938D01*
X26813779Y6085865D01*
X26809411Y6085217D01*
X26805000Y6085000D01*
X26095000Y6085000D01*
X26090589Y6085217D01*
X26086221Y6085865D01*
X26081937Y6086938D01*
X26077779Y6088425D01*
X26073787Y6090314D01*
X26069999Y6092584D01*
X26066452Y6095215D01*
X26063180Y6098180D01*
X26060215Y6101452D01*
X26057584Y6104999D01*
X26055314Y6108787D01*
X26053425Y6112779D01*
X26051938Y6116937D01*
X26050865Y6121221D01*
X26050217Y6125589D01*
X26050000Y6130000D01*
X26050000Y6220000D01*
X26050217Y6224411D01*
X26050865Y6228779D01*
X26051938Y6233063D01*
X26053425Y6237221D01*
X26055314Y6241213D01*
X26057584Y6245001D01*
X26060215Y6248548D01*
X26063180Y6251820D01*
X26066452Y6254785D01*
X26069999Y6257416D01*
X26073787Y6259686D01*
X26077779Y6261575D01*
X26081937Y6263062D01*
X26086221Y6264135D01*
X26090589Y6264783D01*
X26095000Y6265000D01*
X26805000Y6265000D01*
X26809411Y6264783D01*
X26809411Y6264783D01*
G37*
D20*
X26450000Y6175000D03*
D11*
G36*
X26324411Y7449783D02*
X26328779Y7449135D01*
X26333063Y7448062D01*
X26337221Y7446575D01*
X26341213Y7444686D01*
X26345001Y7442416D01*
X26348548Y7439785D01*
X26351820Y7436820D01*
X26354785Y7433548D01*
X26357416Y7430001D01*
X26359686Y7426213D01*
X26361575Y7422221D01*
X26363062Y7418063D01*
X26364135Y7413779D01*
X26364783Y7409411D01*
X26365000Y7405000D01*
X26365000Y6695000D01*
X26364783Y6690589D01*
X26364135Y6686221D01*
X26363062Y6681937D01*
X26361575Y6677779D01*
X26359686Y6673787D01*
X26357416Y6669999D01*
X26354785Y6666452D01*
X26351820Y6663180D01*
X26348548Y6660215D01*
X26345001Y6657584D01*
X26341213Y6655314D01*
X26337221Y6653425D01*
X26333063Y6651938D01*
X26328779Y6650865D01*
X26324411Y6650217D01*
X26320000Y6650000D01*
X26230000Y6650000D01*
X26225589Y6650217D01*
X26221221Y6650865D01*
X26216937Y6651938D01*
X26212779Y6653425D01*
X26208787Y6655314D01*
X26204999Y6657584D01*
X26201452Y6660215D01*
X26198180Y6663180D01*
X26195215Y6666452D01*
X26192584Y6669999D01*
X26190314Y6673787D01*
X26188425Y6677779D01*
X26186938Y6681937D01*
X26185865Y6686221D01*
X26185217Y6690589D01*
X26185000Y6695000D01*
X26185000Y7405000D01*
X26185217Y7409411D01*
X26185865Y7413779D01*
X26186938Y7418063D01*
X26188425Y7422221D01*
X26190314Y7426213D01*
X26192584Y7430001D01*
X26195215Y7433548D01*
X26198180Y7436820D01*
X26201452Y7439785D01*
X26204999Y7442416D01*
X26208787Y7444686D01*
X26212779Y7446575D01*
X26216937Y7448062D01*
X26221221Y7449135D01*
X26225589Y7449783D01*
X26230000Y7450000D01*
X26320000Y7450000D01*
X26324411Y7449783D01*
X26324411Y7449783D01*
G37*
D20*
X26275000Y7050000D03*
D11*
G36*
X25974411Y7449783D02*
X25978779Y7449135D01*
X25983063Y7448062D01*
X25987221Y7446575D01*
X25991213Y7444686D01*
X25995001Y7442416D01*
X25998548Y7439785D01*
X26001820Y7436820D01*
X26004785Y7433548D01*
X26007416Y7430001D01*
X26009686Y7426213D01*
X26011575Y7422221D01*
X26013062Y7418063D01*
X26014135Y7413779D01*
X26014783Y7409411D01*
X26015000Y7405000D01*
X26015000Y6695000D01*
X26014783Y6690589D01*
X26014135Y6686221D01*
X26013062Y6681937D01*
X26011575Y6677779D01*
X26009686Y6673787D01*
X26007416Y6669999D01*
X26004785Y6666452D01*
X26001820Y6663180D01*
X25998548Y6660215D01*
X25995001Y6657584D01*
X25991213Y6655314D01*
X25987221Y6653425D01*
X25983063Y6651938D01*
X25978779Y6650865D01*
X25974411Y6650217D01*
X25970000Y6650000D01*
X25880000Y6650000D01*
X25875589Y6650217D01*
X25871221Y6650865D01*
X25866937Y6651938D01*
X25862779Y6653425D01*
X25858787Y6655314D01*
X25854999Y6657584D01*
X25851452Y6660215D01*
X25848180Y6663180D01*
X25845215Y6666452D01*
X25842584Y6669999D01*
X25840314Y6673787D01*
X25838425Y6677779D01*
X25836938Y6681937D01*
X25835865Y6686221D01*
X25835217Y6690589D01*
X25835000Y6695000D01*
X25835000Y7405000D01*
X25835217Y7409411D01*
X25835865Y7413779D01*
X25836938Y7418063D01*
X25838425Y7422221D01*
X25840314Y7426213D01*
X25842584Y7430001D01*
X25845215Y7433548D01*
X25848180Y7436820D01*
X25851452Y7439785D01*
X25854999Y7442416D01*
X25858787Y7444686D01*
X25862779Y7446575D01*
X25866937Y7448062D01*
X25871221Y7449135D01*
X25875589Y7449783D01*
X25880000Y7450000D01*
X25970000Y7450000D01*
X25974411Y7449783D01*
X25974411Y7449783D01*
G37*
D20*
X25925000Y7050000D03*
D11*
G36*
X25624411Y7449783D02*
X25628779Y7449135D01*
X25633063Y7448062D01*
X25637221Y7446575D01*
X25641213Y7444686D01*
X25645001Y7442416D01*
X25648548Y7439785D01*
X25651820Y7436820D01*
X25654785Y7433548D01*
X25657416Y7430001D01*
X25659686Y7426213D01*
X25661575Y7422221D01*
X25663062Y7418063D01*
X25664135Y7413779D01*
X25664783Y7409411D01*
X25665000Y7405000D01*
X25665000Y6695000D01*
X25664783Y6690589D01*
X25664135Y6686221D01*
X25663062Y6681937D01*
X25661575Y6677779D01*
X25659686Y6673787D01*
X25657416Y6669999D01*
X25654785Y6666452D01*
X25651820Y6663180D01*
X25648548Y6660215D01*
X25645001Y6657584D01*
X25641213Y6655314D01*
X25637221Y6653425D01*
X25633063Y6651938D01*
X25628779Y6650865D01*
X25624411Y6650217D01*
X25620000Y6650000D01*
X25530000Y6650000D01*
X25525589Y6650217D01*
X25521221Y6650865D01*
X25516937Y6651938D01*
X25512779Y6653425D01*
X25508787Y6655314D01*
X25504999Y6657584D01*
X25501452Y6660215D01*
X25498180Y6663180D01*
X25495215Y6666452D01*
X25492584Y6669999D01*
X25490314Y6673787D01*
X25488425Y6677779D01*
X25486938Y6681937D01*
X25485865Y6686221D01*
X25485217Y6690589D01*
X25485000Y6695000D01*
X25485000Y7405000D01*
X25485217Y7409411D01*
X25485865Y7413779D01*
X25486938Y7418063D01*
X25488425Y7422221D01*
X25490314Y7426213D01*
X25492584Y7430001D01*
X25495215Y7433548D01*
X25498180Y7436820D01*
X25501452Y7439785D01*
X25504999Y7442416D01*
X25508787Y7444686D01*
X25512779Y7446575D01*
X25516937Y7448062D01*
X25521221Y7449135D01*
X25525589Y7449783D01*
X25530000Y7450000D01*
X25620000Y7450000D01*
X25624411Y7449783D01*
X25624411Y7449783D01*
G37*
D20*
X25575000Y7050000D03*
D11*
G36*
X25274411Y7449783D02*
X25278779Y7449135D01*
X25283063Y7448062D01*
X25287221Y7446575D01*
X25291213Y7444686D01*
X25295001Y7442416D01*
X25298548Y7439785D01*
X25301820Y7436820D01*
X25304785Y7433548D01*
X25307416Y7430001D01*
X25309686Y7426213D01*
X25311575Y7422221D01*
X25313062Y7418063D01*
X25314135Y7413779D01*
X25314783Y7409411D01*
X25315000Y7405000D01*
X25315000Y6695000D01*
X25314783Y6690589D01*
X25314135Y6686221D01*
X25313062Y6681937D01*
X25311575Y6677779D01*
X25309686Y6673787D01*
X25307416Y6669999D01*
X25304785Y6666452D01*
X25301820Y6663180D01*
X25298548Y6660215D01*
X25295001Y6657584D01*
X25291213Y6655314D01*
X25287221Y6653425D01*
X25283063Y6651938D01*
X25278779Y6650865D01*
X25274411Y6650217D01*
X25270000Y6650000D01*
X25180000Y6650000D01*
X25175589Y6650217D01*
X25171221Y6650865D01*
X25166937Y6651938D01*
X25162779Y6653425D01*
X25158787Y6655314D01*
X25154999Y6657584D01*
X25151452Y6660215D01*
X25148180Y6663180D01*
X25145215Y6666452D01*
X25142584Y6669999D01*
X25140314Y6673787D01*
X25138425Y6677779D01*
X25136938Y6681937D01*
X25135865Y6686221D01*
X25135217Y6690589D01*
X25135000Y6695000D01*
X25135000Y7405000D01*
X25135217Y7409411D01*
X25135865Y7413779D01*
X25136938Y7418063D01*
X25138425Y7422221D01*
X25140314Y7426213D01*
X25142584Y7430001D01*
X25145215Y7433548D01*
X25148180Y7436820D01*
X25151452Y7439785D01*
X25154999Y7442416D01*
X25158787Y7444686D01*
X25162779Y7446575D01*
X25166937Y7448062D01*
X25171221Y7449135D01*
X25175589Y7449783D01*
X25180000Y7450000D01*
X25270000Y7450000D01*
X25274411Y7449783D01*
X25274411Y7449783D01*
G37*
D20*
X25225000Y7050000D03*
D11*
G36*
X24924411Y7449783D02*
X24928779Y7449135D01*
X24933063Y7448062D01*
X24937221Y7446575D01*
X24941213Y7444686D01*
X24945001Y7442416D01*
X24948548Y7439785D01*
X24951820Y7436820D01*
X24954785Y7433548D01*
X24957416Y7430001D01*
X24959686Y7426213D01*
X24961575Y7422221D01*
X24963062Y7418063D01*
X24964135Y7413779D01*
X24964783Y7409411D01*
X24965000Y7405000D01*
X24965000Y6695000D01*
X24964783Y6690589D01*
X24964135Y6686221D01*
X24963062Y6681937D01*
X24961575Y6677779D01*
X24959686Y6673787D01*
X24957416Y6669999D01*
X24954785Y6666452D01*
X24951820Y6663180D01*
X24948548Y6660215D01*
X24945001Y6657584D01*
X24941213Y6655314D01*
X24937221Y6653425D01*
X24933063Y6651938D01*
X24928779Y6650865D01*
X24924411Y6650217D01*
X24920000Y6650000D01*
X24830000Y6650000D01*
X24825589Y6650217D01*
X24821221Y6650865D01*
X24816937Y6651938D01*
X24812779Y6653425D01*
X24808787Y6655314D01*
X24804999Y6657584D01*
X24801452Y6660215D01*
X24798180Y6663180D01*
X24795215Y6666452D01*
X24792584Y6669999D01*
X24790314Y6673787D01*
X24788425Y6677779D01*
X24786938Y6681937D01*
X24785865Y6686221D01*
X24785217Y6690589D01*
X24785000Y6695000D01*
X24785000Y7405000D01*
X24785217Y7409411D01*
X24785865Y7413779D01*
X24786938Y7418063D01*
X24788425Y7422221D01*
X24790314Y7426213D01*
X24792584Y7430001D01*
X24795215Y7433548D01*
X24798180Y7436820D01*
X24801452Y7439785D01*
X24804999Y7442416D01*
X24808787Y7444686D01*
X24812779Y7446575D01*
X24816937Y7448062D01*
X24821221Y7449135D01*
X24825589Y7449783D01*
X24830000Y7450000D01*
X24920000Y7450000D01*
X24924411Y7449783D01*
X24924411Y7449783D01*
G37*
D20*
X24875000Y7050000D03*
D11*
G36*
X24574411Y7449783D02*
X24578779Y7449135D01*
X24583063Y7448062D01*
X24587221Y7446575D01*
X24591213Y7444686D01*
X24595001Y7442416D01*
X24598548Y7439785D01*
X24601820Y7436820D01*
X24604785Y7433548D01*
X24607416Y7430001D01*
X24609686Y7426213D01*
X24611575Y7422221D01*
X24613062Y7418063D01*
X24614135Y7413779D01*
X24614783Y7409411D01*
X24615000Y7405000D01*
X24615000Y6695000D01*
X24614783Y6690589D01*
X24614135Y6686221D01*
X24613062Y6681937D01*
X24611575Y6677779D01*
X24609686Y6673787D01*
X24607416Y6669999D01*
X24604785Y6666452D01*
X24601820Y6663180D01*
X24598548Y6660215D01*
X24595001Y6657584D01*
X24591213Y6655314D01*
X24587221Y6653425D01*
X24583063Y6651938D01*
X24578779Y6650865D01*
X24574411Y6650217D01*
X24570000Y6650000D01*
X24480000Y6650000D01*
X24475589Y6650217D01*
X24471221Y6650865D01*
X24466937Y6651938D01*
X24462779Y6653425D01*
X24458787Y6655314D01*
X24454999Y6657584D01*
X24451452Y6660215D01*
X24448180Y6663180D01*
X24445215Y6666452D01*
X24442584Y6669999D01*
X24440314Y6673787D01*
X24438425Y6677779D01*
X24436938Y6681937D01*
X24435865Y6686221D01*
X24435217Y6690589D01*
X24435000Y6695000D01*
X24435000Y7405000D01*
X24435217Y7409411D01*
X24435865Y7413779D01*
X24436938Y7418063D01*
X24438425Y7422221D01*
X24440314Y7426213D01*
X24442584Y7430001D01*
X24445215Y7433548D01*
X24448180Y7436820D01*
X24451452Y7439785D01*
X24454999Y7442416D01*
X24458787Y7444686D01*
X24462779Y7446575D01*
X24466937Y7448062D01*
X24471221Y7449135D01*
X24475589Y7449783D01*
X24480000Y7450000D01*
X24570000Y7450000D01*
X24574411Y7449783D01*
X24574411Y7449783D01*
G37*
D20*
X24525000Y7050000D03*
D11*
G36*
X24224411Y7449783D02*
X24228779Y7449135D01*
X24233063Y7448062D01*
X24237221Y7446575D01*
X24241213Y7444686D01*
X24245001Y7442416D01*
X24248548Y7439785D01*
X24251820Y7436820D01*
X24254785Y7433548D01*
X24257416Y7430001D01*
X24259686Y7426213D01*
X24261575Y7422221D01*
X24263062Y7418063D01*
X24264135Y7413779D01*
X24264783Y7409411D01*
X24265000Y7405000D01*
X24265000Y6695000D01*
X24264783Y6690589D01*
X24264135Y6686221D01*
X24263062Y6681937D01*
X24261575Y6677779D01*
X24259686Y6673787D01*
X24257416Y6669999D01*
X24254785Y6666452D01*
X24251820Y6663180D01*
X24248548Y6660215D01*
X24245001Y6657584D01*
X24241213Y6655314D01*
X24237221Y6653425D01*
X24233063Y6651938D01*
X24228779Y6650865D01*
X24224411Y6650217D01*
X24220000Y6650000D01*
X24130000Y6650000D01*
X24125589Y6650217D01*
X24121221Y6650865D01*
X24116937Y6651938D01*
X24112779Y6653425D01*
X24108787Y6655314D01*
X24104999Y6657584D01*
X24101452Y6660215D01*
X24098180Y6663180D01*
X24095215Y6666452D01*
X24092584Y6669999D01*
X24090314Y6673787D01*
X24088425Y6677779D01*
X24086938Y6681937D01*
X24085865Y6686221D01*
X24085217Y6690589D01*
X24085000Y6695000D01*
X24085000Y7405000D01*
X24085217Y7409411D01*
X24085865Y7413779D01*
X24086938Y7418063D01*
X24088425Y7422221D01*
X24090314Y7426213D01*
X24092584Y7430001D01*
X24095215Y7433548D01*
X24098180Y7436820D01*
X24101452Y7439785D01*
X24104999Y7442416D01*
X24108787Y7444686D01*
X24112779Y7446575D01*
X24116937Y7448062D01*
X24121221Y7449135D01*
X24125589Y7449783D01*
X24130000Y7450000D01*
X24220000Y7450000D01*
X24224411Y7449783D01*
X24224411Y7449783D01*
G37*
D20*
X24175000Y7050000D03*
D11*
G36*
X23874411Y7449783D02*
X23878779Y7449135D01*
X23883063Y7448062D01*
X23887221Y7446575D01*
X23891213Y7444686D01*
X23895001Y7442416D01*
X23898548Y7439785D01*
X23901820Y7436820D01*
X23904785Y7433548D01*
X23907416Y7430001D01*
X23909686Y7426213D01*
X23911575Y7422221D01*
X23913062Y7418063D01*
X23914135Y7413779D01*
X23914783Y7409411D01*
X23915000Y7405000D01*
X23915000Y6695000D01*
X23914783Y6690589D01*
X23914135Y6686221D01*
X23913062Y6681937D01*
X23911575Y6677779D01*
X23909686Y6673787D01*
X23907416Y6669999D01*
X23904785Y6666452D01*
X23901820Y6663180D01*
X23898548Y6660215D01*
X23895001Y6657584D01*
X23891213Y6655314D01*
X23887221Y6653425D01*
X23883063Y6651938D01*
X23878779Y6650865D01*
X23874411Y6650217D01*
X23870000Y6650000D01*
X23780000Y6650000D01*
X23775589Y6650217D01*
X23771221Y6650865D01*
X23766937Y6651938D01*
X23762779Y6653425D01*
X23758787Y6655314D01*
X23754999Y6657584D01*
X23751452Y6660215D01*
X23748180Y6663180D01*
X23745215Y6666452D01*
X23742584Y6669999D01*
X23740314Y6673787D01*
X23738425Y6677779D01*
X23736938Y6681937D01*
X23735865Y6686221D01*
X23735217Y6690589D01*
X23735000Y6695000D01*
X23735000Y7405000D01*
X23735217Y7409411D01*
X23735865Y7413779D01*
X23736938Y7418063D01*
X23738425Y7422221D01*
X23740314Y7426213D01*
X23742584Y7430001D01*
X23745215Y7433548D01*
X23748180Y7436820D01*
X23751452Y7439785D01*
X23754999Y7442416D01*
X23758787Y7444686D01*
X23762779Y7446575D01*
X23766937Y7448062D01*
X23771221Y7449135D01*
X23775589Y7449783D01*
X23780000Y7450000D01*
X23870000Y7450000D01*
X23874411Y7449783D01*
X23874411Y7449783D01*
G37*
D20*
X23825000Y7050000D03*
D11*
G36*
X23524411Y7449783D02*
X23528779Y7449135D01*
X23533063Y7448062D01*
X23537221Y7446575D01*
X23541213Y7444686D01*
X23545001Y7442416D01*
X23548548Y7439785D01*
X23551820Y7436820D01*
X23554785Y7433548D01*
X23557416Y7430001D01*
X23559686Y7426213D01*
X23561575Y7422221D01*
X23563062Y7418063D01*
X23564135Y7413779D01*
X23564783Y7409411D01*
X23565000Y7405000D01*
X23565000Y6695000D01*
X23564783Y6690589D01*
X23564135Y6686221D01*
X23563062Y6681937D01*
X23561575Y6677779D01*
X23559686Y6673787D01*
X23557416Y6669999D01*
X23554785Y6666452D01*
X23551820Y6663180D01*
X23548548Y6660215D01*
X23545001Y6657584D01*
X23541213Y6655314D01*
X23537221Y6653425D01*
X23533063Y6651938D01*
X23528779Y6650865D01*
X23524411Y6650217D01*
X23520000Y6650000D01*
X23430000Y6650000D01*
X23425589Y6650217D01*
X23421221Y6650865D01*
X23416937Y6651938D01*
X23412779Y6653425D01*
X23408787Y6655314D01*
X23404999Y6657584D01*
X23401452Y6660215D01*
X23398180Y6663180D01*
X23395215Y6666452D01*
X23392584Y6669999D01*
X23390314Y6673787D01*
X23388425Y6677779D01*
X23386938Y6681937D01*
X23385865Y6686221D01*
X23385217Y6690589D01*
X23385000Y6695000D01*
X23385000Y7405000D01*
X23385217Y7409411D01*
X23385865Y7413779D01*
X23386938Y7418063D01*
X23388425Y7422221D01*
X23390314Y7426213D01*
X23392584Y7430001D01*
X23395215Y7433548D01*
X23398180Y7436820D01*
X23401452Y7439785D01*
X23404999Y7442416D01*
X23408787Y7444686D01*
X23412779Y7446575D01*
X23416937Y7448062D01*
X23421221Y7449135D01*
X23425589Y7449783D01*
X23430000Y7450000D01*
X23520000Y7450000D01*
X23524411Y7449783D01*
X23524411Y7449783D01*
G37*
D20*
X23475000Y7050000D03*
D11*
G36*
X23174411Y7449783D02*
X23178779Y7449135D01*
X23183063Y7448062D01*
X23187221Y7446575D01*
X23191213Y7444686D01*
X23195001Y7442416D01*
X23198548Y7439785D01*
X23201820Y7436820D01*
X23204785Y7433548D01*
X23207416Y7430001D01*
X23209686Y7426213D01*
X23211575Y7422221D01*
X23213062Y7418063D01*
X23214135Y7413779D01*
X23214783Y7409411D01*
X23215000Y7405000D01*
X23215000Y6695000D01*
X23214783Y6690589D01*
X23214135Y6686221D01*
X23213062Y6681937D01*
X23211575Y6677779D01*
X23209686Y6673787D01*
X23207416Y6669999D01*
X23204785Y6666452D01*
X23201820Y6663180D01*
X23198548Y6660215D01*
X23195001Y6657584D01*
X23191213Y6655314D01*
X23187221Y6653425D01*
X23183063Y6651938D01*
X23178779Y6650865D01*
X23174411Y6650217D01*
X23170000Y6650000D01*
X23080000Y6650000D01*
X23075589Y6650217D01*
X23071221Y6650865D01*
X23066937Y6651938D01*
X23062779Y6653425D01*
X23058787Y6655314D01*
X23054999Y6657584D01*
X23051452Y6660215D01*
X23048180Y6663180D01*
X23045215Y6666452D01*
X23042584Y6669999D01*
X23040314Y6673787D01*
X23038425Y6677779D01*
X23036938Y6681937D01*
X23035865Y6686221D01*
X23035217Y6690589D01*
X23035000Y6695000D01*
X23035000Y7405000D01*
X23035217Y7409411D01*
X23035865Y7413779D01*
X23036938Y7418063D01*
X23038425Y7422221D01*
X23040314Y7426213D01*
X23042584Y7430001D01*
X23045215Y7433548D01*
X23048180Y7436820D01*
X23051452Y7439785D01*
X23054999Y7442416D01*
X23058787Y7444686D01*
X23062779Y7446575D01*
X23066937Y7448062D01*
X23071221Y7449135D01*
X23075589Y7449783D01*
X23080000Y7450000D01*
X23170000Y7450000D01*
X23174411Y7449783D01*
X23174411Y7449783D01*
G37*
D20*
X23125000Y7050000D03*
D11*
G36*
X22824411Y7449783D02*
X22828779Y7449135D01*
X22833063Y7448062D01*
X22837221Y7446575D01*
X22841213Y7444686D01*
X22845001Y7442416D01*
X22848548Y7439785D01*
X22851820Y7436820D01*
X22854785Y7433548D01*
X22857416Y7430001D01*
X22859686Y7426213D01*
X22861575Y7422221D01*
X22863062Y7418063D01*
X22864135Y7413779D01*
X22864783Y7409411D01*
X22865000Y7405000D01*
X22865000Y6695000D01*
X22864783Y6690589D01*
X22864135Y6686221D01*
X22863062Y6681937D01*
X22861575Y6677779D01*
X22859686Y6673787D01*
X22857416Y6669999D01*
X22854785Y6666452D01*
X22851820Y6663180D01*
X22848548Y6660215D01*
X22845001Y6657584D01*
X22841213Y6655314D01*
X22837221Y6653425D01*
X22833063Y6651938D01*
X22828779Y6650865D01*
X22824411Y6650217D01*
X22820000Y6650000D01*
X22730000Y6650000D01*
X22725589Y6650217D01*
X22721221Y6650865D01*
X22716937Y6651938D01*
X22712779Y6653425D01*
X22708787Y6655314D01*
X22704999Y6657584D01*
X22701452Y6660215D01*
X22698180Y6663180D01*
X22695215Y6666452D01*
X22692584Y6669999D01*
X22690314Y6673787D01*
X22688425Y6677779D01*
X22686938Y6681937D01*
X22685865Y6686221D01*
X22685217Y6690589D01*
X22685000Y6695000D01*
X22685000Y7405000D01*
X22685217Y7409411D01*
X22685865Y7413779D01*
X22686938Y7418063D01*
X22688425Y7422221D01*
X22690314Y7426213D01*
X22692584Y7430001D01*
X22695215Y7433548D01*
X22698180Y7436820D01*
X22701452Y7439785D01*
X22704999Y7442416D01*
X22708787Y7444686D01*
X22712779Y7446575D01*
X22716937Y7448062D01*
X22721221Y7449135D01*
X22725589Y7449783D01*
X22730000Y7450000D01*
X22820000Y7450000D01*
X22824411Y7449783D01*
X22824411Y7449783D01*
G37*
D20*
X22775000Y7050000D03*
D11*
G36*
X22474411Y7449783D02*
X22478779Y7449135D01*
X22483063Y7448062D01*
X22487221Y7446575D01*
X22491213Y7444686D01*
X22495001Y7442416D01*
X22498548Y7439785D01*
X22501820Y7436820D01*
X22504785Y7433548D01*
X22507416Y7430001D01*
X22509686Y7426213D01*
X22511575Y7422221D01*
X22513062Y7418063D01*
X22514135Y7413779D01*
X22514783Y7409411D01*
X22515000Y7405000D01*
X22515000Y6695000D01*
X22514783Y6690589D01*
X22514135Y6686221D01*
X22513062Y6681937D01*
X22511575Y6677779D01*
X22509686Y6673787D01*
X22507416Y6669999D01*
X22504785Y6666452D01*
X22501820Y6663180D01*
X22498548Y6660215D01*
X22495001Y6657584D01*
X22491213Y6655314D01*
X22487221Y6653425D01*
X22483063Y6651938D01*
X22478779Y6650865D01*
X22474411Y6650217D01*
X22470000Y6650000D01*
X22380000Y6650000D01*
X22375589Y6650217D01*
X22371221Y6650865D01*
X22366937Y6651938D01*
X22362779Y6653425D01*
X22358787Y6655314D01*
X22354999Y6657584D01*
X22351452Y6660215D01*
X22348180Y6663180D01*
X22345215Y6666452D01*
X22342584Y6669999D01*
X22340314Y6673787D01*
X22338425Y6677779D01*
X22336938Y6681937D01*
X22335865Y6686221D01*
X22335217Y6690589D01*
X22335000Y6695000D01*
X22335000Y7405000D01*
X22335217Y7409411D01*
X22335865Y7413779D01*
X22336938Y7418063D01*
X22338425Y7422221D01*
X22340314Y7426213D01*
X22342584Y7430001D01*
X22345215Y7433548D01*
X22348180Y7436820D01*
X22351452Y7439785D01*
X22354999Y7442416D01*
X22358787Y7444686D01*
X22362779Y7446575D01*
X22366937Y7448062D01*
X22371221Y7449135D01*
X22375589Y7449783D01*
X22380000Y7450000D01*
X22470000Y7450000D01*
X22474411Y7449783D01*
X22474411Y7449783D01*
G37*
D20*
X22425000Y7050000D03*
D11*
G36*
X22124411Y7449783D02*
X22128779Y7449135D01*
X22133063Y7448062D01*
X22137221Y7446575D01*
X22141213Y7444686D01*
X22145001Y7442416D01*
X22148548Y7439785D01*
X22151820Y7436820D01*
X22154785Y7433548D01*
X22157416Y7430001D01*
X22159686Y7426213D01*
X22161575Y7422221D01*
X22163062Y7418063D01*
X22164135Y7413779D01*
X22164783Y7409411D01*
X22165000Y7405000D01*
X22165000Y6695000D01*
X22164783Y6690589D01*
X22164135Y6686221D01*
X22163062Y6681937D01*
X22161575Y6677779D01*
X22159686Y6673787D01*
X22157416Y6669999D01*
X22154785Y6666452D01*
X22151820Y6663180D01*
X22148548Y6660215D01*
X22145001Y6657584D01*
X22141213Y6655314D01*
X22137221Y6653425D01*
X22133063Y6651938D01*
X22128779Y6650865D01*
X22124411Y6650217D01*
X22120000Y6650000D01*
X22030000Y6650000D01*
X22025589Y6650217D01*
X22021221Y6650865D01*
X22016937Y6651938D01*
X22012779Y6653425D01*
X22008787Y6655314D01*
X22004999Y6657584D01*
X22001452Y6660215D01*
X21998180Y6663180D01*
X21995215Y6666452D01*
X21992584Y6669999D01*
X21990314Y6673787D01*
X21988425Y6677779D01*
X21986938Y6681937D01*
X21985865Y6686221D01*
X21985217Y6690589D01*
X21985000Y6695000D01*
X21985000Y7405000D01*
X21985217Y7409411D01*
X21985865Y7413779D01*
X21986938Y7418063D01*
X21988425Y7422221D01*
X21990314Y7426213D01*
X21992584Y7430001D01*
X21995215Y7433548D01*
X21998180Y7436820D01*
X22001452Y7439785D01*
X22004999Y7442416D01*
X22008787Y7444686D01*
X22012779Y7446575D01*
X22016937Y7448062D01*
X22021221Y7449135D01*
X22025589Y7449783D01*
X22030000Y7450000D01*
X22120000Y7450000D01*
X22124411Y7449783D01*
X22124411Y7449783D01*
G37*
D20*
X22075000Y7050000D03*
D11*
G36*
X21774411Y7449783D02*
X21778779Y7449135D01*
X21783063Y7448062D01*
X21787221Y7446575D01*
X21791213Y7444686D01*
X21795001Y7442416D01*
X21798548Y7439785D01*
X21801820Y7436820D01*
X21804785Y7433548D01*
X21807416Y7430001D01*
X21809686Y7426213D01*
X21811575Y7422221D01*
X21813062Y7418063D01*
X21814135Y7413779D01*
X21814783Y7409411D01*
X21815000Y7405000D01*
X21815000Y6695000D01*
X21814783Y6690589D01*
X21814135Y6686221D01*
X21813062Y6681937D01*
X21811575Y6677779D01*
X21809686Y6673787D01*
X21807416Y6669999D01*
X21804785Y6666452D01*
X21801820Y6663180D01*
X21798548Y6660215D01*
X21795001Y6657584D01*
X21791213Y6655314D01*
X21787221Y6653425D01*
X21783063Y6651938D01*
X21778779Y6650865D01*
X21774411Y6650217D01*
X21770000Y6650000D01*
X21680000Y6650000D01*
X21675589Y6650217D01*
X21671221Y6650865D01*
X21666937Y6651938D01*
X21662779Y6653425D01*
X21658787Y6655314D01*
X21654999Y6657584D01*
X21651452Y6660215D01*
X21648180Y6663180D01*
X21645215Y6666452D01*
X21642584Y6669999D01*
X21640314Y6673787D01*
X21638425Y6677779D01*
X21636938Y6681937D01*
X21635865Y6686221D01*
X21635217Y6690589D01*
X21635000Y6695000D01*
X21635000Y7405000D01*
X21635217Y7409411D01*
X21635865Y7413779D01*
X21636938Y7418063D01*
X21638425Y7422221D01*
X21640314Y7426213D01*
X21642584Y7430001D01*
X21645215Y7433548D01*
X21648180Y7436820D01*
X21651452Y7439785D01*
X21654999Y7442416D01*
X21658787Y7444686D01*
X21662779Y7446575D01*
X21666937Y7448062D01*
X21671221Y7449135D01*
X21675589Y7449783D01*
X21680000Y7450000D01*
X21770000Y7450000D01*
X21774411Y7449783D01*
X21774411Y7449783D01*
G37*
D20*
X21725000Y7050000D03*
D11*
G36*
X21909411Y6264783D02*
X21913779Y6264135D01*
X21918063Y6263062D01*
X21922221Y6261575D01*
X21926213Y6259686D01*
X21930001Y6257416D01*
X21933548Y6254785D01*
X21936820Y6251820D01*
X21939785Y6248548D01*
X21942416Y6245001D01*
X21944686Y6241213D01*
X21946575Y6237221D01*
X21948062Y6233063D01*
X21949135Y6228779D01*
X21949783Y6224411D01*
X21950000Y6220000D01*
X21950000Y6130000D01*
X21949783Y6125589D01*
X21949135Y6121221D01*
X21948062Y6116937D01*
X21946575Y6112779D01*
X21944686Y6108787D01*
X21942416Y6104999D01*
X21939785Y6101452D01*
X21936820Y6098180D01*
X21933548Y6095215D01*
X21930001Y6092584D01*
X21926213Y6090314D01*
X21922221Y6088425D01*
X21918063Y6086938D01*
X21913779Y6085865D01*
X21909411Y6085217D01*
X21905000Y6085000D01*
X21195000Y6085000D01*
X21190589Y6085217D01*
X21186221Y6085865D01*
X21181937Y6086938D01*
X21177779Y6088425D01*
X21173787Y6090314D01*
X21169999Y6092584D01*
X21166452Y6095215D01*
X21163180Y6098180D01*
X21160215Y6101452D01*
X21157584Y6104999D01*
X21155314Y6108787D01*
X21153425Y6112779D01*
X21151938Y6116937D01*
X21150865Y6121221D01*
X21150217Y6125589D01*
X21150000Y6130000D01*
X21150000Y6220000D01*
X21150217Y6224411D01*
X21150865Y6228779D01*
X21151938Y6233063D01*
X21153425Y6237221D01*
X21155314Y6241213D01*
X21157584Y6245001D01*
X21160215Y6248548D01*
X21163180Y6251820D01*
X21166452Y6254785D01*
X21169999Y6257416D01*
X21173787Y6259686D01*
X21177779Y6261575D01*
X21181937Y6263062D01*
X21186221Y6264135D01*
X21190589Y6264783D01*
X21195000Y6265000D01*
X21905000Y6265000D01*
X21909411Y6264783D01*
X21909411Y6264783D01*
G37*
D20*
X21550000Y6175000D03*
D11*
G36*
X21909411Y5914783D02*
X21913779Y5914135D01*
X21918063Y5913062D01*
X21922221Y5911575D01*
X21926213Y5909686D01*
X21930001Y5907416D01*
X21933548Y5904785D01*
X21936820Y5901820D01*
X21939785Y5898548D01*
X21942416Y5895001D01*
X21944686Y5891213D01*
X21946575Y5887221D01*
X21948062Y5883063D01*
X21949135Y5878779D01*
X21949783Y5874411D01*
X21950000Y5870000D01*
X21950000Y5780000D01*
X21949783Y5775589D01*
X21949135Y5771221D01*
X21948062Y5766937D01*
X21946575Y5762779D01*
X21944686Y5758787D01*
X21942416Y5754999D01*
X21939785Y5751452D01*
X21936820Y5748180D01*
X21933548Y5745215D01*
X21930001Y5742584D01*
X21926213Y5740314D01*
X21922221Y5738425D01*
X21918063Y5736938D01*
X21913779Y5735865D01*
X21909411Y5735217D01*
X21905000Y5735000D01*
X21195000Y5735000D01*
X21190589Y5735217D01*
X21186221Y5735865D01*
X21181937Y5736938D01*
X21177779Y5738425D01*
X21173787Y5740314D01*
X21169999Y5742584D01*
X21166452Y5745215D01*
X21163180Y5748180D01*
X21160215Y5751452D01*
X21157584Y5754999D01*
X21155314Y5758787D01*
X21153425Y5762779D01*
X21151938Y5766937D01*
X21150865Y5771221D01*
X21150217Y5775589D01*
X21150000Y5780000D01*
X21150000Y5870000D01*
X21150217Y5874411D01*
X21150865Y5878779D01*
X21151938Y5883063D01*
X21153425Y5887221D01*
X21155314Y5891213D01*
X21157584Y5895001D01*
X21160215Y5898548D01*
X21163180Y5901820D01*
X21166452Y5904785D01*
X21169999Y5907416D01*
X21173787Y5909686D01*
X21177779Y5911575D01*
X21181937Y5913062D01*
X21186221Y5914135D01*
X21190589Y5914783D01*
X21195000Y5915000D01*
X21905000Y5915000D01*
X21909411Y5914783D01*
X21909411Y5914783D01*
G37*
D20*
X21550000Y5825000D03*
D11*
G36*
X21909411Y5564783D02*
X21913779Y5564135D01*
X21918063Y5563062D01*
X21922221Y5561575D01*
X21926213Y5559686D01*
X21930001Y5557416D01*
X21933548Y5554785D01*
X21936820Y5551820D01*
X21939785Y5548548D01*
X21942416Y5545001D01*
X21944686Y5541213D01*
X21946575Y5537221D01*
X21948062Y5533063D01*
X21949135Y5528779D01*
X21949783Y5524411D01*
X21950000Y5520000D01*
X21950000Y5430000D01*
X21949783Y5425589D01*
X21949135Y5421221D01*
X21948062Y5416937D01*
X21946575Y5412779D01*
X21944686Y5408787D01*
X21942416Y5404999D01*
X21939785Y5401452D01*
X21936820Y5398180D01*
X21933548Y5395215D01*
X21930001Y5392584D01*
X21926213Y5390314D01*
X21922221Y5388425D01*
X21918063Y5386938D01*
X21913779Y5385865D01*
X21909411Y5385217D01*
X21905000Y5385000D01*
X21195000Y5385000D01*
X21190589Y5385217D01*
X21186221Y5385865D01*
X21181937Y5386938D01*
X21177779Y5388425D01*
X21173787Y5390314D01*
X21169999Y5392584D01*
X21166452Y5395215D01*
X21163180Y5398180D01*
X21160215Y5401452D01*
X21157584Y5404999D01*
X21155314Y5408787D01*
X21153425Y5412779D01*
X21151938Y5416937D01*
X21150865Y5421221D01*
X21150217Y5425589D01*
X21150000Y5430000D01*
X21150000Y5520000D01*
X21150217Y5524411D01*
X21150865Y5528779D01*
X21151938Y5533063D01*
X21153425Y5537221D01*
X21155314Y5541213D01*
X21157584Y5545001D01*
X21160215Y5548548D01*
X21163180Y5551820D01*
X21166452Y5554785D01*
X21169999Y5557416D01*
X21173787Y5559686D01*
X21177779Y5561575D01*
X21181937Y5563062D01*
X21186221Y5564135D01*
X21190589Y5564783D01*
X21195000Y5565000D01*
X21905000Y5565000D01*
X21909411Y5564783D01*
X21909411Y5564783D01*
G37*
D20*
X21550000Y5475000D03*
D11*
G36*
X21909411Y5214783D02*
X21913779Y5214135D01*
X21918063Y5213062D01*
X21922221Y5211575D01*
X21926213Y5209686D01*
X21930001Y5207416D01*
X21933548Y5204785D01*
X21936820Y5201820D01*
X21939785Y5198548D01*
X21942416Y5195001D01*
X21944686Y5191213D01*
X21946575Y5187221D01*
X21948062Y5183063D01*
X21949135Y5178779D01*
X21949783Y5174411D01*
X21950000Y5170000D01*
X21950000Y5080000D01*
X21949783Y5075589D01*
X21949135Y5071221D01*
X21948062Y5066937D01*
X21946575Y5062779D01*
X21944686Y5058787D01*
X21942416Y5054999D01*
X21939785Y5051452D01*
X21936820Y5048180D01*
X21933548Y5045215D01*
X21930001Y5042584D01*
X21926213Y5040314D01*
X21922221Y5038425D01*
X21918063Y5036938D01*
X21913779Y5035865D01*
X21909411Y5035217D01*
X21905000Y5035000D01*
X21195000Y5035000D01*
X21190589Y5035217D01*
X21186221Y5035865D01*
X21181937Y5036938D01*
X21177779Y5038425D01*
X21173787Y5040314D01*
X21169999Y5042584D01*
X21166452Y5045215D01*
X21163180Y5048180D01*
X21160215Y5051452D01*
X21157584Y5054999D01*
X21155314Y5058787D01*
X21153425Y5062779D01*
X21151938Y5066937D01*
X21150865Y5071221D01*
X21150217Y5075589D01*
X21150000Y5080000D01*
X21150000Y5170000D01*
X21150217Y5174411D01*
X21150865Y5178779D01*
X21151938Y5183063D01*
X21153425Y5187221D01*
X21155314Y5191213D01*
X21157584Y5195001D01*
X21160215Y5198548D01*
X21163180Y5201820D01*
X21166452Y5204785D01*
X21169999Y5207416D01*
X21173787Y5209686D01*
X21177779Y5211575D01*
X21181937Y5213062D01*
X21186221Y5214135D01*
X21190589Y5214783D01*
X21195000Y5215000D01*
X21905000Y5215000D01*
X21909411Y5214783D01*
X21909411Y5214783D01*
G37*
D20*
X21550000Y5125000D03*
D11*
G36*
X21909411Y4864783D02*
X21913779Y4864135D01*
X21918063Y4863062D01*
X21922221Y4861575D01*
X21926213Y4859686D01*
X21930001Y4857416D01*
X21933548Y4854785D01*
X21936820Y4851820D01*
X21939785Y4848548D01*
X21942416Y4845001D01*
X21944686Y4841213D01*
X21946575Y4837221D01*
X21948062Y4833063D01*
X21949135Y4828779D01*
X21949783Y4824411D01*
X21950000Y4820000D01*
X21950000Y4730000D01*
X21949783Y4725589D01*
X21949135Y4721221D01*
X21948062Y4716937D01*
X21946575Y4712779D01*
X21944686Y4708787D01*
X21942416Y4704999D01*
X21939785Y4701452D01*
X21936820Y4698180D01*
X21933548Y4695215D01*
X21930001Y4692584D01*
X21926213Y4690314D01*
X21922221Y4688425D01*
X21918063Y4686938D01*
X21913779Y4685865D01*
X21909411Y4685217D01*
X21905000Y4685000D01*
X21195000Y4685000D01*
X21190589Y4685217D01*
X21186221Y4685865D01*
X21181937Y4686938D01*
X21177779Y4688425D01*
X21173787Y4690314D01*
X21169999Y4692584D01*
X21166452Y4695215D01*
X21163180Y4698180D01*
X21160215Y4701452D01*
X21157584Y4704999D01*
X21155314Y4708787D01*
X21153425Y4712779D01*
X21151938Y4716937D01*
X21150865Y4721221D01*
X21150217Y4725589D01*
X21150000Y4730000D01*
X21150000Y4820000D01*
X21150217Y4824411D01*
X21150865Y4828779D01*
X21151938Y4833063D01*
X21153425Y4837221D01*
X21155314Y4841213D01*
X21157584Y4845001D01*
X21160215Y4848548D01*
X21163180Y4851820D01*
X21166452Y4854785D01*
X21169999Y4857416D01*
X21173787Y4859686D01*
X21177779Y4861575D01*
X21181937Y4863062D01*
X21186221Y4864135D01*
X21190589Y4864783D01*
X21195000Y4865000D01*
X21905000Y4865000D01*
X21909411Y4864783D01*
X21909411Y4864783D01*
G37*
D20*
X21550000Y4775000D03*
D11*
G36*
X21909411Y4514783D02*
X21913779Y4514135D01*
X21918063Y4513062D01*
X21922221Y4511575D01*
X21926213Y4509686D01*
X21930001Y4507416D01*
X21933548Y4504785D01*
X21936820Y4501820D01*
X21939785Y4498548D01*
X21942416Y4495001D01*
X21944686Y4491213D01*
X21946575Y4487221D01*
X21948062Y4483063D01*
X21949135Y4478779D01*
X21949783Y4474411D01*
X21950000Y4470000D01*
X21950000Y4380000D01*
X21949783Y4375589D01*
X21949135Y4371221D01*
X21948062Y4366937D01*
X21946575Y4362779D01*
X21944686Y4358787D01*
X21942416Y4354999D01*
X21939785Y4351452D01*
X21936820Y4348180D01*
X21933548Y4345215D01*
X21930001Y4342584D01*
X21926213Y4340314D01*
X21922221Y4338425D01*
X21918063Y4336938D01*
X21913779Y4335865D01*
X21909411Y4335217D01*
X21905000Y4335000D01*
X21195000Y4335000D01*
X21190589Y4335217D01*
X21186221Y4335865D01*
X21181937Y4336938D01*
X21177779Y4338425D01*
X21173787Y4340314D01*
X21169999Y4342584D01*
X21166452Y4345215D01*
X21163180Y4348180D01*
X21160215Y4351452D01*
X21157584Y4354999D01*
X21155314Y4358787D01*
X21153425Y4362779D01*
X21151938Y4366937D01*
X21150865Y4371221D01*
X21150217Y4375589D01*
X21150000Y4380000D01*
X21150000Y4470000D01*
X21150217Y4474411D01*
X21150865Y4478779D01*
X21151938Y4483063D01*
X21153425Y4487221D01*
X21155314Y4491213D01*
X21157584Y4495001D01*
X21160215Y4498548D01*
X21163180Y4501820D01*
X21166452Y4504785D01*
X21169999Y4507416D01*
X21173787Y4509686D01*
X21177779Y4511575D01*
X21181937Y4513062D01*
X21186221Y4514135D01*
X21190589Y4514783D01*
X21195000Y4515000D01*
X21905000Y4515000D01*
X21909411Y4514783D01*
X21909411Y4514783D01*
G37*
D20*
X21550000Y4425000D03*
D11*
G36*
X21909411Y4164783D02*
X21913779Y4164135D01*
X21918063Y4163062D01*
X21922221Y4161575D01*
X21926213Y4159686D01*
X21930001Y4157416D01*
X21933548Y4154785D01*
X21936820Y4151820D01*
X21939785Y4148548D01*
X21942416Y4145001D01*
X21944686Y4141213D01*
X21946575Y4137221D01*
X21948062Y4133063D01*
X21949135Y4128779D01*
X21949783Y4124411D01*
X21950000Y4120000D01*
X21950000Y4030000D01*
X21949783Y4025589D01*
X21949135Y4021221D01*
X21948062Y4016937D01*
X21946575Y4012779D01*
X21944686Y4008787D01*
X21942416Y4004999D01*
X21939785Y4001452D01*
X21936820Y3998180D01*
X21933548Y3995215D01*
X21930001Y3992584D01*
X21926213Y3990314D01*
X21922221Y3988425D01*
X21918063Y3986938D01*
X21913779Y3985865D01*
X21909411Y3985217D01*
X21905000Y3985000D01*
X21195000Y3985000D01*
X21190589Y3985217D01*
X21186221Y3985865D01*
X21181937Y3986938D01*
X21177779Y3988425D01*
X21173787Y3990314D01*
X21169999Y3992584D01*
X21166452Y3995215D01*
X21163180Y3998180D01*
X21160215Y4001452D01*
X21157584Y4004999D01*
X21155314Y4008787D01*
X21153425Y4012779D01*
X21151938Y4016937D01*
X21150865Y4021221D01*
X21150217Y4025589D01*
X21150000Y4030000D01*
X21150000Y4120000D01*
X21150217Y4124411D01*
X21150865Y4128779D01*
X21151938Y4133063D01*
X21153425Y4137221D01*
X21155314Y4141213D01*
X21157584Y4145001D01*
X21160215Y4148548D01*
X21163180Y4151820D01*
X21166452Y4154785D01*
X21169999Y4157416D01*
X21173787Y4159686D01*
X21177779Y4161575D01*
X21181937Y4163062D01*
X21186221Y4164135D01*
X21190589Y4164783D01*
X21195000Y4165000D01*
X21905000Y4165000D01*
X21909411Y4164783D01*
X21909411Y4164783D01*
G37*
D20*
X21550000Y4075000D03*
D11*
G36*
X21909411Y3814783D02*
X21913779Y3814135D01*
X21918063Y3813062D01*
X21922221Y3811575D01*
X21926213Y3809686D01*
X21930001Y3807416D01*
X21933548Y3804785D01*
X21936820Y3801820D01*
X21939785Y3798548D01*
X21942416Y3795001D01*
X21944686Y3791213D01*
X21946575Y3787221D01*
X21948062Y3783063D01*
X21949135Y3778779D01*
X21949783Y3774411D01*
X21950000Y3770000D01*
X21950000Y3680000D01*
X21949783Y3675589D01*
X21949135Y3671221D01*
X21948062Y3666937D01*
X21946575Y3662779D01*
X21944686Y3658787D01*
X21942416Y3654999D01*
X21939785Y3651452D01*
X21936820Y3648180D01*
X21933548Y3645215D01*
X21930001Y3642584D01*
X21926213Y3640314D01*
X21922221Y3638425D01*
X21918063Y3636938D01*
X21913779Y3635865D01*
X21909411Y3635217D01*
X21905000Y3635000D01*
X21195000Y3635000D01*
X21190589Y3635217D01*
X21186221Y3635865D01*
X21181937Y3636938D01*
X21177779Y3638425D01*
X21173787Y3640314D01*
X21169999Y3642584D01*
X21166452Y3645215D01*
X21163180Y3648180D01*
X21160215Y3651452D01*
X21157584Y3654999D01*
X21155314Y3658787D01*
X21153425Y3662779D01*
X21151938Y3666937D01*
X21150865Y3671221D01*
X21150217Y3675589D01*
X21150000Y3680000D01*
X21150000Y3770000D01*
X21150217Y3774411D01*
X21150865Y3778779D01*
X21151938Y3783063D01*
X21153425Y3787221D01*
X21155314Y3791213D01*
X21157584Y3795001D01*
X21160215Y3798548D01*
X21163180Y3801820D01*
X21166452Y3804785D01*
X21169999Y3807416D01*
X21173787Y3809686D01*
X21177779Y3811575D01*
X21181937Y3813062D01*
X21186221Y3814135D01*
X21190589Y3814783D01*
X21195000Y3815000D01*
X21905000Y3815000D01*
X21909411Y3814783D01*
X21909411Y3814783D01*
G37*
D20*
X21550000Y3725000D03*
D11*
G36*
X21909411Y3464783D02*
X21913779Y3464135D01*
X21918063Y3463062D01*
X21922221Y3461575D01*
X21926213Y3459686D01*
X21930001Y3457416D01*
X21933548Y3454785D01*
X21936820Y3451820D01*
X21939785Y3448548D01*
X21942416Y3445001D01*
X21944686Y3441213D01*
X21946575Y3437221D01*
X21948062Y3433063D01*
X21949135Y3428779D01*
X21949783Y3424411D01*
X21950000Y3420000D01*
X21950000Y3330000D01*
X21949783Y3325589D01*
X21949135Y3321221D01*
X21948062Y3316937D01*
X21946575Y3312779D01*
X21944686Y3308787D01*
X21942416Y3304999D01*
X21939785Y3301452D01*
X21936820Y3298180D01*
X21933548Y3295215D01*
X21930001Y3292584D01*
X21926213Y3290314D01*
X21922221Y3288425D01*
X21918063Y3286938D01*
X21913779Y3285865D01*
X21909411Y3285217D01*
X21905000Y3285000D01*
X21195000Y3285000D01*
X21190589Y3285217D01*
X21186221Y3285865D01*
X21181937Y3286938D01*
X21177779Y3288425D01*
X21173787Y3290314D01*
X21169999Y3292584D01*
X21166452Y3295215D01*
X21163180Y3298180D01*
X21160215Y3301452D01*
X21157584Y3304999D01*
X21155314Y3308787D01*
X21153425Y3312779D01*
X21151938Y3316937D01*
X21150865Y3321221D01*
X21150217Y3325589D01*
X21150000Y3330000D01*
X21150000Y3420000D01*
X21150217Y3424411D01*
X21150865Y3428779D01*
X21151938Y3433063D01*
X21153425Y3437221D01*
X21155314Y3441213D01*
X21157584Y3445001D01*
X21160215Y3448548D01*
X21163180Y3451820D01*
X21166452Y3454785D01*
X21169999Y3457416D01*
X21173787Y3459686D01*
X21177779Y3461575D01*
X21181937Y3463062D01*
X21186221Y3464135D01*
X21190589Y3464783D01*
X21195000Y3465000D01*
X21905000Y3465000D01*
X21909411Y3464783D01*
X21909411Y3464783D01*
G37*
D20*
X21550000Y3375000D03*
D11*
G36*
X21909411Y3114783D02*
X21913779Y3114135D01*
X21918063Y3113062D01*
X21922221Y3111575D01*
X21926213Y3109686D01*
X21930001Y3107416D01*
X21933548Y3104785D01*
X21936820Y3101820D01*
X21939785Y3098548D01*
X21942416Y3095001D01*
X21944686Y3091213D01*
X21946575Y3087221D01*
X21948062Y3083063D01*
X21949135Y3078779D01*
X21949783Y3074411D01*
X21950000Y3070000D01*
X21950000Y2980000D01*
X21949783Y2975589D01*
X21949135Y2971221D01*
X21948062Y2966937D01*
X21946575Y2962779D01*
X21944686Y2958787D01*
X21942416Y2954999D01*
X21939785Y2951452D01*
X21936820Y2948180D01*
X21933548Y2945215D01*
X21930001Y2942584D01*
X21926213Y2940314D01*
X21922221Y2938425D01*
X21918063Y2936938D01*
X21913779Y2935865D01*
X21909411Y2935217D01*
X21905000Y2935000D01*
X21195000Y2935000D01*
X21190589Y2935217D01*
X21186221Y2935865D01*
X21181937Y2936938D01*
X21177779Y2938425D01*
X21173787Y2940314D01*
X21169999Y2942584D01*
X21166452Y2945215D01*
X21163180Y2948180D01*
X21160215Y2951452D01*
X21157584Y2954999D01*
X21155314Y2958787D01*
X21153425Y2962779D01*
X21151938Y2966937D01*
X21150865Y2971221D01*
X21150217Y2975589D01*
X21150000Y2980000D01*
X21150000Y3070000D01*
X21150217Y3074411D01*
X21150865Y3078779D01*
X21151938Y3083063D01*
X21153425Y3087221D01*
X21155314Y3091213D01*
X21157584Y3095001D01*
X21160215Y3098548D01*
X21163180Y3101820D01*
X21166452Y3104785D01*
X21169999Y3107416D01*
X21173787Y3109686D01*
X21177779Y3111575D01*
X21181937Y3113062D01*
X21186221Y3114135D01*
X21190589Y3114783D01*
X21195000Y3115000D01*
X21905000Y3115000D01*
X21909411Y3114783D01*
X21909411Y3114783D01*
G37*
D20*
X21550000Y3025000D03*
G04 #@! TD*
D11*
G04 #@! TO.C,ANT1*
G36*
X1854113Y3499061D02*
X1873043Y3496253D01*
X1891606Y3491603D01*
X1909623Y3485157D01*
X1926922Y3476975D01*
X1943336Y3467137D01*
X1958707Y3455737D01*
X1972886Y3442886D01*
X1985737Y3428707D01*
X1997137Y3413336D01*
X2006975Y3396922D01*
X2015157Y3379623D01*
X2021603Y3361606D01*
X2026253Y3343043D01*
X2029061Y3324113D01*
X2030000Y3305000D01*
X2030000Y1695000D01*
X2029061Y1675887D01*
X2026253Y1656957D01*
X2021603Y1638394D01*
X2015157Y1620377D01*
X2006975Y1603078D01*
X1997137Y1586664D01*
X1985737Y1571293D01*
X1972886Y1557114D01*
X1958707Y1544263D01*
X1943336Y1532863D01*
X1926922Y1523025D01*
X1909623Y1514843D01*
X1891606Y1508397D01*
X1873043Y1503747D01*
X1854113Y1500939D01*
X1835000Y1500000D01*
X725000Y1500000D01*
X705887Y1500939D01*
X686957Y1503747D01*
X668394Y1508397D01*
X650377Y1514843D01*
X633078Y1523025D01*
X616664Y1532863D01*
X601293Y1544263D01*
X587114Y1557114D01*
X574263Y1571293D01*
X562863Y1586664D01*
X553025Y1603078D01*
X544843Y1620377D01*
X538397Y1638394D01*
X533747Y1656957D01*
X530939Y1675887D01*
X530000Y1695000D01*
X530000Y3305000D01*
X530939Y3324113D01*
X533747Y3343043D01*
X538397Y3361606D01*
X544843Y3379623D01*
X553025Y3396922D01*
X562863Y3413336D01*
X574263Y3428707D01*
X587114Y3442886D01*
X601293Y3455737D01*
X616664Y3467137D01*
X633078Y3476975D01*
X650377Y3485157D01*
X668394Y3491603D01*
X686957Y3496253D01*
X705887Y3499061D01*
X725000Y3500000D01*
X1835000Y3500000D01*
X1854113Y3499061D01*
X1854113Y3499061D01*
G37*
D21*
X1280000Y2500000D03*
D11*
G36*
X11354113Y3499061D02*
X11373043Y3496253D01*
X11391606Y3491603D01*
X11409623Y3485157D01*
X11426922Y3476975D01*
X11443336Y3467137D01*
X11458707Y3455737D01*
X11472886Y3442886D01*
X11485737Y3428707D01*
X11497137Y3413336D01*
X11506975Y3396922D01*
X11515157Y3379623D01*
X11521603Y3361606D01*
X11526253Y3343043D01*
X11529061Y3324113D01*
X11530000Y3305000D01*
X11530000Y1695000D01*
X11529061Y1675887D01*
X11526253Y1656957D01*
X11521603Y1638394D01*
X11515157Y1620377D01*
X11506975Y1603078D01*
X11497137Y1586664D01*
X11485737Y1571293D01*
X11472886Y1557114D01*
X11458707Y1544263D01*
X11443336Y1532863D01*
X11426922Y1523025D01*
X11409623Y1514843D01*
X11391606Y1508397D01*
X11373043Y1503747D01*
X11354113Y1500939D01*
X11335000Y1500000D01*
X10225000Y1500000D01*
X10205887Y1500939D01*
X10186957Y1503747D01*
X10168394Y1508397D01*
X10150377Y1514843D01*
X10133078Y1523025D01*
X10116664Y1532863D01*
X10101293Y1544263D01*
X10087114Y1557114D01*
X10074263Y1571293D01*
X10062863Y1586664D01*
X10053025Y1603078D01*
X10044843Y1620377D01*
X10038397Y1638394D01*
X10033747Y1656957D01*
X10030939Y1675887D01*
X10030000Y1695000D01*
X10030000Y3305000D01*
X10030939Y3324113D01*
X10033747Y3343043D01*
X10038397Y3361606D01*
X10044843Y3379623D01*
X10053025Y3396922D01*
X10062863Y3413336D01*
X10074263Y3428707D01*
X10087114Y3442886D01*
X10101293Y3455737D01*
X10116664Y3467137D01*
X10133078Y3476975D01*
X10150377Y3485157D01*
X10168394Y3491603D01*
X10186957Y3496253D01*
X10205887Y3499061D01*
X10225000Y3500000D01*
X11335000Y3500000D01*
X11354113Y3499061D01*
X11354113Y3499061D01*
G37*
D21*
X10780000Y2500000D03*
G04 #@! TD*
D11*
G04 #@! TO.C,C2*
G36*
X18176958Y7269290D02*
X18191276Y7267166D01*
X18205317Y7263649D01*
X18218946Y7258772D01*
X18232031Y7252583D01*
X18244447Y7245142D01*
X18256073Y7236519D01*
X18266798Y7226798D01*
X18276519Y7216073D01*
X18285142Y7204447D01*
X18292583Y7192031D01*
X18298772Y7178946D01*
X18303649Y7165317D01*
X18307166Y7151276D01*
X18309290Y7136958D01*
X18310000Y7122500D01*
X18310000Y6777500D01*
X18309290Y6763042D01*
X18307166Y6748724D01*
X18303649Y6734683D01*
X18298772Y6721054D01*
X18292583Y6707969D01*
X18285142Y6695553D01*
X18276519Y6683927D01*
X18266798Y6673202D01*
X18256073Y6663481D01*
X18244447Y6654858D01*
X18232031Y6647417D01*
X18218946Y6641228D01*
X18205317Y6636351D01*
X18191276Y6632834D01*
X18176958Y6630710D01*
X18162500Y6630000D01*
X17867500Y6630000D01*
X17853042Y6630710D01*
X17838724Y6632834D01*
X17824683Y6636351D01*
X17811054Y6641228D01*
X17797969Y6647417D01*
X17785553Y6654858D01*
X17773927Y6663481D01*
X17763202Y6673202D01*
X17753481Y6683927D01*
X17744858Y6695553D01*
X17737417Y6707969D01*
X17731228Y6721054D01*
X17726351Y6734683D01*
X17722834Y6748724D01*
X17720710Y6763042D01*
X17720000Y6777500D01*
X17720000Y7122500D01*
X17720710Y7136958D01*
X17722834Y7151276D01*
X17726351Y7165317D01*
X17731228Y7178946D01*
X17737417Y7192031D01*
X17744858Y7204447D01*
X17753481Y7216073D01*
X17763202Y7226798D01*
X17773927Y7236519D01*
X17785553Y7245142D01*
X17797969Y7252583D01*
X17811054Y7258772D01*
X17824683Y7263649D01*
X17838724Y7267166D01*
X17853042Y7269290D01*
X17867500Y7270000D01*
X18162500Y7270000D01*
X18176958Y7269290D01*
X18176958Y7269290D01*
G37*
D22*
X18015000Y6950000D03*
D11*
G36*
X19146958Y7269290D02*
X19161276Y7267166D01*
X19175317Y7263649D01*
X19188946Y7258772D01*
X19202031Y7252583D01*
X19214447Y7245142D01*
X19226073Y7236519D01*
X19236798Y7226798D01*
X19246519Y7216073D01*
X19255142Y7204447D01*
X19262583Y7192031D01*
X19268772Y7178946D01*
X19273649Y7165317D01*
X19277166Y7151276D01*
X19279290Y7136958D01*
X19280000Y7122500D01*
X19280000Y6777500D01*
X19279290Y6763042D01*
X19277166Y6748724D01*
X19273649Y6734683D01*
X19268772Y6721054D01*
X19262583Y6707969D01*
X19255142Y6695553D01*
X19246519Y6683927D01*
X19236798Y6673202D01*
X19226073Y6663481D01*
X19214447Y6654858D01*
X19202031Y6647417D01*
X19188946Y6641228D01*
X19175317Y6636351D01*
X19161276Y6632834D01*
X19146958Y6630710D01*
X19132500Y6630000D01*
X18837500Y6630000D01*
X18823042Y6630710D01*
X18808724Y6632834D01*
X18794683Y6636351D01*
X18781054Y6641228D01*
X18767969Y6647417D01*
X18755553Y6654858D01*
X18743927Y6663481D01*
X18733202Y6673202D01*
X18723481Y6683927D01*
X18714858Y6695553D01*
X18707417Y6707969D01*
X18701228Y6721054D01*
X18696351Y6734683D01*
X18692834Y6748724D01*
X18690710Y6763042D01*
X18690000Y6777500D01*
X18690000Y7122500D01*
X18690710Y7136958D01*
X18692834Y7151276D01*
X18696351Y7165317D01*
X18701228Y7178946D01*
X18707417Y7192031D01*
X18714858Y7204447D01*
X18723481Y7216073D01*
X18733202Y7226798D01*
X18743927Y7236519D01*
X18755553Y7245142D01*
X18767969Y7252583D01*
X18781054Y7258772D01*
X18794683Y7263649D01*
X18808724Y7267166D01*
X18823042Y7269290D01*
X18837500Y7270000D01*
X19132500Y7270000D01*
X19146958Y7269290D01*
X19146958Y7269290D01*
G37*
D22*
X18985000Y6950000D03*
G04 #@! TD*
D11*
G04 #@! TO.C,C3*
G36*
X18176958Y3369290D02*
X18191276Y3367166D01*
X18205317Y3363649D01*
X18218946Y3358772D01*
X18232031Y3352583D01*
X18244447Y3345142D01*
X18256073Y3336519D01*
X18266798Y3326798D01*
X18276519Y3316073D01*
X18285142Y3304447D01*
X18292583Y3292031D01*
X18298772Y3278946D01*
X18303649Y3265317D01*
X18307166Y3251276D01*
X18309290Y3236958D01*
X18310000Y3222500D01*
X18310000Y2877500D01*
X18309290Y2863042D01*
X18307166Y2848724D01*
X18303649Y2834683D01*
X18298772Y2821054D01*
X18292583Y2807969D01*
X18285142Y2795553D01*
X18276519Y2783927D01*
X18266798Y2773202D01*
X18256073Y2763481D01*
X18244447Y2754858D01*
X18232031Y2747417D01*
X18218946Y2741228D01*
X18205317Y2736351D01*
X18191276Y2732834D01*
X18176958Y2730710D01*
X18162500Y2730000D01*
X17867500Y2730000D01*
X17853042Y2730710D01*
X17838724Y2732834D01*
X17824683Y2736351D01*
X17811054Y2741228D01*
X17797969Y2747417D01*
X17785553Y2754858D01*
X17773927Y2763481D01*
X17763202Y2773202D01*
X17753481Y2783927D01*
X17744858Y2795553D01*
X17737417Y2807969D01*
X17731228Y2821054D01*
X17726351Y2834683D01*
X17722834Y2848724D01*
X17720710Y2863042D01*
X17720000Y2877500D01*
X17720000Y3222500D01*
X17720710Y3236958D01*
X17722834Y3251276D01*
X17726351Y3265317D01*
X17731228Y3278946D01*
X17737417Y3292031D01*
X17744858Y3304447D01*
X17753481Y3316073D01*
X17763202Y3326798D01*
X17773927Y3336519D01*
X17785553Y3345142D01*
X17797969Y3352583D01*
X17811054Y3358772D01*
X17824683Y3363649D01*
X17838724Y3367166D01*
X17853042Y3369290D01*
X17867500Y3370000D01*
X18162500Y3370000D01*
X18176958Y3369290D01*
X18176958Y3369290D01*
G37*
D22*
X18015000Y3050000D03*
D11*
G36*
X19146958Y3369290D02*
X19161276Y3367166D01*
X19175317Y3363649D01*
X19188946Y3358772D01*
X19202031Y3352583D01*
X19214447Y3345142D01*
X19226073Y3336519D01*
X19236798Y3326798D01*
X19246519Y3316073D01*
X19255142Y3304447D01*
X19262583Y3292031D01*
X19268772Y3278946D01*
X19273649Y3265317D01*
X19277166Y3251276D01*
X19279290Y3236958D01*
X19280000Y3222500D01*
X19280000Y2877500D01*
X19279290Y2863042D01*
X19277166Y2848724D01*
X19273649Y2834683D01*
X19268772Y2821054D01*
X19262583Y2807969D01*
X19255142Y2795553D01*
X19246519Y2783927D01*
X19236798Y2773202D01*
X19226073Y2763481D01*
X19214447Y2754858D01*
X19202031Y2747417D01*
X19188946Y2741228D01*
X19175317Y2736351D01*
X19161276Y2732834D01*
X19146958Y2730710D01*
X19132500Y2730000D01*
X18837500Y2730000D01*
X18823042Y2730710D01*
X18808724Y2732834D01*
X18794683Y2736351D01*
X18781054Y2741228D01*
X18767969Y2747417D01*
X18755553Y2754858D01*
X18743927Y2763481D01*
X18733202Y2773202D01*
X18723481Y2783927D01*
X18714858Y2795553D01*
X18707417Y2807969D01*
X18701228Y2821054D01*
X18696351Y2834683D01*
X18692834Y2848724D01*
X18690710Y2863042D01*
X18690000Y2877500D01*
X18690000Y3222500D01*
X18690710Y3236958D01*
X18692834Y3251276D01*
X18696351Y3265317D01*
X18701228Y3278946D01*
X18707417Y3292031D01*
X18714858Y3304447D01*
X18723481Y3316073D01*
X18733202Y3326798D01*
X18743927Y3336519D01*
X18755553Y3345142D01*
X18767969Y3352583D01*
X18781054Y3358772D01*
X18794683Y3363649D01*
X18808724Y3367166D01*
X18823042Y3369290D01*
X18837500Y3370000D01*
X19132500Y3370000D01*
X19146958Y3369290D01*
X19146958Y3369290D01*
G37*
D22*
X18985000Y3050000D03*
G04 #@! TD*
D11*
G04 #@! TO.C,C17*
G36*
X24946958Y1119290D02*
X24961276Y1117166D01*
X24975317Y1113649D01*
X24988946Y1108772D01*
X25002031Y1102583D01*
X25014447Y1095142D01*
X25026073Y1086519D01*
X25036798Y1076798D01*
X25046519Y1066073D01*
X25055142Y1054447D01*
X25062583Y1042031D01*
X25068772Y1028946D01*
X25073649Y1015317D01*
X25077166Y1001276D01*
X25079290Y986958D01*
X25080000Y972500D01*
X25080000Y627500D01*
X25079290Y613042D01*
X25077166Y598724D01*
X25073649Y584683D01*
X25068772Y571054D01*
X25062583Y557969D01*
X25055142Y545553D01*
X25046519Y533927D01*
X25036798Y523202D01*
X25026073Y513481D01*
X25014447Y504858D01*
X25002031Y497417D01*
X24988946Y491228D01*
X24975317Y486351D01*
X24961276Y482834D01*
X24946958Y480710D01*
X24932500Y480000D01*
X24637500Y480000D01*
X24623042Y480710D01*
X24608724Y482834D01*
X24594683Y486351D01*
X24581054Y491228D01*
X24567969Y497417D01*
X24555553Y504858D01*
X24543927Y513481D01*
X24533202Y523202D01*
X24523481Y533927D01*
X24514858Y545553D01*
X24507417Y557969D01*
X24501228Y571054D01*
X24496351Y584683D01*
X24492834Y598724D01*
X24490710Y613042D01*
X24490000Y627500D01*
X24490000Y972500D01*
X24490710Y986958D01*
X24492834Y1001276D01*
X24496351Y1015317D01*
X24501228Y1028946D01*
X24507417Y1042031D01*
X24514858Y1054447D01*
X24523481Y1066073D01*
X24533202Y1076798D01*
X24543927Y1086519D01*
X24555553Y1095142D01*
X24567969Y1102583D01*
X24581054Y1108772D01*
X24594683Y1113649D01*
X24608724Y1117166D01*
X24623042Y1119290D01*
X24637500Y1120000D01*
X24932500Y1120000D01*
X24946958Y1119290D01*
X24946958Y1119290D01*
G37*
D22*
X24785000Y800000D03*
D11*
G36*
X23976958Y1119290D02*
X23991276Y1117166D01*
X24005317Y1113649D01*
X24018946Y1108772D01*
X24032031Y1102583D01*
X24044447Y1095142D01*
X24056073Y1086519D01*
X24066798Y1076798D01*
X24076519Y1066073D01*
X24085142Y1054447D01*
X24092583Y1042031D01*
X24098772Y1028946D01*
X24103649Y1015317D01*
X24107166Y1001276D01*
X24109290Y986958D01*
X24110000Y972500D01*
X24110000Y627500D01*
X24109290Y613042D01*
X24107166Y598724D01*
X24103649Y584683D01*
X24098772Y571054D01*
X24092583Y557969D01*
X24085142Y545553D01*
X24076519Y533927D01*
X24066798Y523202D01*
X24056073Y513481D01*
X24044447Y504858D01*
X24032031Y497417D01*
X24018946Y491228D01*
X24005317Y486351D01*
X23991276Y482834D01*
X23976958Y480710D01*
X23962500Y480000D01*
X23667500Y480000D01*
X23653042Y480710D01*
X23638724Y482834D01*
X23624683Y486351D01*
X23611054Y491228D01*
X23597969Y497417D01*
X23585553Y504858D01*
X23573927Y513481D01*
X23563202Y523202D01*
X23553481Y533927D01*
X23544858Y545553D01*
X23537417Y557969D01*
X23531228Y571054D01*
X23526351Y584683D01*
X23522834Y598724D01*
X23520710Y613042D01*
X23520000Y627500D01*
X23520000Y972500D01*
X23520710Y986958D01*
X23522834Y1001276D01*
X23526351Y1015317D01*
X23531228Y1028946D01*
X23537417Y1042031D01*
X23544858Y1054447D01*
X23553481Y1066073D01*
X23563202Y1076798D01*
X23573927Y1086519D01*
X23585553Y1095142D01*
X23597969Y1102583D01*
X23611054Y1108772D01*
X23624683Y1113649D01*
X23638724Y1117166D01*
X23653042Y1119290D01*
X23667500Y1120000D01*
X23962500Y1120000D01*
X23976958Y1119290D01*
X23976958Y1119290D01*
G37*
D22*
X23815000Y800000D03*
G04 #@! TD*
D11*
G04 #@! TO.C,C18*
G36*
X35496958Y15319290D02*
X35511276Y15317166D01*
X35525317Y15313649D01*
X35538946Y15308772D01*
X35552031Y15302583D01*
X35564447Y15295142D01*
X35576073Y15286519D01*
X35586798Y15276798D01*
X35596519Y15266073D01*
X35605142Y15254447D01*
X35612583Y15242031D01*
X35618772Y15228946D01*
X35623649Y15215317D01*
X35627166Y15201276D01*
X35629290Y15186958D01*
X35630000Y15172500D01*
X35630000Y14827500D01*
X35629290Y14813042D01*
X35627166Y14798724D01*
X35623649Y14784683D01*
X35618772Y14771054D01*
X35612583Y14757969D01*
X35605142Y14745553D01*
X35596519Y14733927D01*
X35586798Y14723202D01*
X35576073Y14713481D01*
X35564447Y14704858D01*
X35552031Y14697417D01*
X35538946Y14691228D01*
X35525317Y14686351D01*
X35511276Y14682834D01*
X35496958Y14680710D01*
X35482500Y14680000D01*
X35187500Y14680000D01*
X35173042Y14680710D01*
X35158724Y14682834D01*
X35144683Y14686351D01*
X35131054Y14691228D01*
X35117969Y14697417D01*
X35105553Y14704858D01*
X35093927Y14713481D01*
X35083202Y14723202D01*
X35073481Y14733927D01*
X35064858Y14745553D01*
X35057417Y14757969D01*
X35051228Y14771054D01*
X35046351Y14784683D01*
X35042834Y14798724D01*
X35040710Y14813042D01*
X35040000Y14827500D01*
X35040000Y15172500D01*
X35040710Y15186958D01*
X35042834Y15201276D01*
X35046351Y15215317D01*
X35051228Y15228946D01*
X35057417Y15242031D01*
X35064858Y15254447D01*
X35073481Y15266073D01*
X35083202Y15276798D01*
X35093927Y15286519D01*
X35105553Y15295142D01*
X35117969Y15302583D01*
X35131054Y15308772D01*
X35144683Y15313649D01*
X35158724Y15317166D01*
X35173042Y15319290D01*
X35187500Y15320000D01*
X35482500Y15320000D01*
X35496958Y15319290D01*
X35496958Y15319290D01*
G37*
D22*
X35335000Y15000000D03*
D11*
G36*
X34526958Y15319290D02*
X34541276Y15317166D01*
X34555317Y15313649D01*
X34568946Y15308772D01*
X34582031Y15302583D01*
X34594447Y15295142D01*
X34606073Y15286519D01*
X34616798Y15276798D01*
X34626519Y15266073D01*
X34635142Y15254447D01*
X34642583Y15242031D01*
X34648772Y15228946D01*
X34653649Y15215317D01*
X34657166Y15201276D01*
X34659290Y15186958D01*
X34660000Y15172500D01*
X34660000Y14827500D01*
X34659290Y14813042D01*
X34657166Y14798724D01*
X34653649Y14784683D01*
X34648772Y14771054D01*
X34642583Y14757969D01*
X34635142Y14745553D01*
X34626519Y14733927D01*
X34616798Y14723202D01*
X34606073Y14713481D01*
X34594447Y14704858D01*
X34582031Y14697417D01*
X34568946Y14691228D01*
X34555317Y14686351D01*
X34541276Y14682834D01*
X34526958Y14680710D01*
X34512500Y14680000D01*
X34217500Y14680000D01*
X34203042Y14680710D01*
X34188724Y14682834D01*
X34174683Y14686351D01*
X34161054Y14691228D01*
X34147969Y14697417D01*
X34135553Y14704858D01*
X34123927Y14713481D01*
X34113202Y14723202D01*
X34103481Y14733927D01*
X34094858Y14745553D01*
X34087417Y14757969D01*
X34081228Y14771054D01*
X34076351Y14784683D01*
X34072834Y14798724D01*
X34070710Y14813042D01*
X34070000Y14827500D01*
X34070000Y15172500D01*
X34070710Y15186958D01*
X34072834Y15201276D01*
X34076351Y15215317D01*
X34081228Y15228946D01*
X34087417Y15242031D01*
X34094858Y15254447D01*
X34103481Y15266073D01*
X34113202Y15276798D01*
X34123927Y15286519D01*
X34135553Y15295142D01*
X34147969Y15302583D01*
X34161054Y15308772D01*
X34174683Y15313649D01*
X34188724Y15317166D01*
X34203042Y15319290D01*
X34217500Y15320000D01*
X34512500Y15320000D01*
X34526958Y15319290D01*
X34526958Y15319290D01*
G37*
D22*
X34365000Y15000000D03*
G04 #@! TD*
D11*
G04 #@! TO.C,R5*
G36*
X17526958Y9869290D02*
X17541276Y9867166D01*
X17555317Y9863649D01*
X17568946Y9858772D01*
X17582031Y9852583D01*
X17594447Y9845142D01*
X17606073Y9836519D01*
X17616798Y9826798D01*
X17626519Y9816073D01*
X17635142Y9804447D01*
X17642583Y9792031D01*
X17648772Y9778946D01*
X17653649Y9765317D01*
X17657166Y9751276D01*
X17659290Y9736958D01*
X17660000Y9722500D01*
X17660000Y9377500D01*
X17659290Y9363042D01*
X17657166Y9348724D01*
X17653649Y9334683D01*
X17648772Y9321054D01*
X17642583Y9307969D01*
X17635142Y9295553D01*
X17626519Y9283927D01*
X17616798Y9273202D01*
X17606073Y9263481D01*
X17594447Y9254858D01*
X17582031Y9247417D01*
X17568946Y9241228D01*
X17555317Y9236351D01*
X17541276Y9232834D01*
X17526958Y9230710D01*
X17512500Y9230000D01*
X17217500Y9230000D01*
X17203042Y9230710D01*
X17188724Y9232834D01*
X17174683Y9236351D01*
X17161054Y9241228D01*
X17147969Y9247417D01*
X17135553Y9254858D01*
X17123927Y9263481D01*
X17113202Y9273202D01*
X17103481Y9283927D01*
X17094858Y9295553D01*
X17087417Y9307969D01*
X17081228Y9321054D01*
X17076351Y9334683D01*
X17072834Y9348724D01*
X17070710Y9363042D01*
X17070000Y9377500D01*
X17070000Y9722500D01*
X17070710Y9736958D01*
X17072834Y9751276D01*
X17076351Y9765317D01*
X17081228Y9778946D01*
X17087417Y9792031D01*
X17094858Y9804447D01*
X17103481Y9816073D01*
X17113202Y9826798D01*
X17123927Y9836519D01*
X17135553Y9845142D01*
X17147969Y9852583D01*
X17161054Y9858772D01*
X17174683Y9863649D01*
X17188724Y9867166D01*
X17203042Y9869290D01*
X17217500Y9870000D01*
X17512500Y9870000D01*
X17526958Y9869290D01*
X17526958Y9869290D01*
G37*
D22*
X17365000Y9550000D03*
D11*
G36*
X18496958Y9869290D02*
X18511276Y9867166D01*
X18525317Y9863649D01*
X18538946Y9858772D01*
X18552031Y9852583D01*
X18564447Y9845142D01*
X18576073Y9836519D01*
X18586798Y9826798D01*
X18596519Y9816073D01*
X18605142Y9804447D01*
X18612583Y9792031D01*
X18618772Y9778946D01*
X18623649Y9765317D01*
X18627166Y9751276D01*
X18629290Y9736958D01*
X18630000Y9722500D01*
X18630000Y9377500D01*
X18629290Y9363042D01*
X18627166Y9348724D01*
X18623649Y9334683D01*
X18618772Y9321054D01*
X18612583Y9307969D01*
X18605142Y9295553D01*
X18596519Y9283927D01*
X18586798Y9273202D01*
X18576073Y9263481D01*
X18564447Y9254858D01*
X18552031Y9247417D01*
X18538946Y9241228D01*
X18525317Y9236351D01*
X18511276Y9232834D01*
X18496958Y9230710D01*
X18482500Y9230000D01*
X18187500Y9230000D01*
X18173042Y9230710D01*
X18158724Y9232834D01*
X18144683Y9236351D01*
X18131054Y9241228D01*
X18117969Y9247417D01*
X18105553Y9254858D01*
X18093927Y9263481D01*
X18083202Y9273202D01*
X18073481Y9283927D01*
X18064858Y9295553D01*
X18057417Y9307969D01*
X18051228Y9321054D01*
X18046351Y9334683D01*
X18042834Y9348724D01*
X18040710Y9363042D01*
X18040000Y9377500D01*
X18040000Y9722500D01*
X18040710Y9736958D01*
X18042834Y9751276D01*
X18046351Y9765317D01*
X18051228Y9778946D01*
X18057417Y9792031D01*
X18064858Y9804447D01*
X18073481Y9816073D01*
X18083202Y9826798D01*
X18093927Y9836519D01*
X18105553Y9845142D01*
X18117969Y9852583D01*
X18131054Y9858772D01*
X18144683Y9863649D01*
X18158724Y9867166D01*
X18173042Y9869290D01*
X18187500Y9870000D01*
X18482500Y9870000D01*
X18496958Y9869290D01*
X18496958Y9869290D01*
G37*
D22*
X18335000Y9550000D03*
G04 #@! TD*
D11*
G04 #@! TO.C,R6*
G36*
X35496958Y14219290D02*
X35511276Y14217166D01*
X35525317Y14213649D01*
X35538946Y14208772D01*
X35552031Y14202583D01*
X35564447Y14195142D01*
X35576073Y14186519D01*
X35586798Y14176798D01*
X35596519Y14166073D01*
X35605142Y14154447D01*
X35612583Y14142031D01*
X35618772Y14128946D01*
X35623649Y14115317D01*
X35627166Y14101276D01*
X35629290Y14086958D01*
X35630000Y14072500D01*
X35630000Y13727500D01*
X35629290Y13713042D01*
X35627166Y13698724D01*
X35623649Y13684683D01*
X35618772Y13671054D01*
X35612583Y13657969D01*
X35605142Y13645553D01*
X35596519Y13633927D01*
X35586798Y13623202D01*
X35576073Y13613481D01*
X35564447Y13604858D01*
X35552031Y13597417D01*
X35538946Y13591228D01*
X35525317Y13586351D01*
X35511276Y13582834D01*
X35496958Y13580710D01*
X35482500Y13580000D01*
X35187500Y13580000D01*
X35173042Y13580710D01*
X35158724Y13582834D01*
X35144683Y13586351D01*
X35131054Y13591228D01*
X35117969Y13597417D01*
X35105553Y13604858D01*
X35093927Y13613481D01*
X35083202Y13623202D01*
X35073481Y13633927D01*
X35064858Y13645553D01*
X35057417Y13657969D01*
X35051228Y13671054D01*
X35046351Y13684683D01*
X35042834Y13698724D01*
X35040710Y13713042D01*
X35040000Y13727500D01*
X35040000Y14072500D01*
X35040710Y14086958D01*
X35042834Y14101276D01*
X35046351Y14115317D01*
X35051228Y14128946D01*
X35057417Y14142031D01*
X35064858Y14154447D01*
X35073481Y14166073D01*
X35083202Y14176798D01*
X35093927Y14186519D01*
X35105553Y14195142D01*
X35117969Y14202583D01*
X35131054Y14208772D01*
X35144683Y14213649D01*
X35158724Y14217166D01*
X35173042Y14219290D01*
X35187500Y14220000D01*
X35482500Y14220000D01*
X35496958Y14219290D01*
X35496958Y14219290D01*
G37*
D22*
X35335000Y13900000D03*
D11*
G36*
X34526958Y14219290D02*
X34541276Y14217166D01*
X34555317Y14213649D01*
X34568946Y14208772D01*
X34582031Y14202583D01*
X34594447Y14195142D01*
X34606073Y14186519D01*
X34616798Y14176798D01*
X34626519Y14166073D01*
X34635142Y14154447D01*
X34642583Y14142031D01*
X34648772Y14128946D01*
X34653649Y14115317D01*
X34657166Y14101276D01*
X34659290Y14086958D01*
X34660000Y14072500D01*
X34660000Y13727500D01*
X34659290Y13713042D01*
X34657166Y13698724D01*
X34653649Y13684683D01*
X34648772Y13671054D01*
X34642583Y13657969D01*
X34635142Y13645553D01*
X34626519Y13633927D01*
X34616798Y13623202D01*
X34606073Y13613481D01*
X34594447Y13604858D01*
X34582031Y13597417D01*
X34568946Y13591228D01*
X34555317Y13586351D01*
X34541276Y13582834D01*
X34526958Y13580710D01*
X34512500Y13580000D01*
X34217500Y13580000D01*
X34203042Y13580710D01*
X34188724Y13582834D01*
X34174683Y13586351D01*
X34161054Y13591228D01*
X34147969Y13597417D01*
X34135553Y13604858D01*
X34123927Y13613481D01*
X34113202Y13623202D01*
X34103481Y13633927D01*
X34094858Y13645553D01*
X34087417Y13657969D01*
X34081228Y13671054D01*
X34076351Y13684683D01*
X34072834Y13698724D01*
X34070710Y13713042D01*
X34070000Y13727500D01*
X34070000Y14072500D01*
X34070710Y14086958D01*
X34072834Y14101276D01*
X34076351Y14115317D01*
X34081228Y14128946D01*
X34087417Y14142031D01*
X34094858Y14154447D01*
X34103481Y14166073D01*
X34113202Y14176798D01*
X34123927Y14186519D01*
X34135553Y14195142D01*
X34147969Y14202583D01*
X34161054Y14208772D01*
X34174683Y14213649D01*
X34188724Y14217166D01*
X34203042Y14219290D01*
X34217500Y14220000D01*
X34512500Y14220000D01*
X34526958Y14219290D01*
X34526958Y14219290D01*
G37*
D22*
X34365000Y13900000D03*
G04 #@! TD*
D11*
G04 #@! TO.C,R7*
G36*
X31346958Y8019290D02*
X31361276Y8017166D01*
X31375317Y8013649D01*
X31388946Y8008772D01*
X31402031Y8002583D01*
X31414447Y7995142D01*
X31426073Y7986519D01*
X31436798Y7976798D01*
X31446519Y7966073D01*
X31455142Y7954447D01*
X31462583Y7942031D01*
X31468772Y7928946D01*
X31473649Y7915317D01*
X31477166Y7901276D01*
X31479290Y7886958D01*
X31480000Y7872500D01*
X31480000Y7527500D01*
X31479290Y7513042D01*
X31477166Y7498724D01*
X31473649Y7484683D01*
X31468772Y7471054D01*
X31462583Y7457969D01*
X31455142Y7445553D01*
X31446519Y7433927D01*
X31436798Y7423202D01*
X31426073Y7413481D01*
X31414447Y7404858D01*
X31402031Y7397417D01*
X31388946Y7391228D01*
X31375317Y7386351D01*
X31361276Y7382834D01*
X31346958Y7380710D01*
X31332500Y7380000D01*
X31037500Y7380000D01*
X31023042Y7380710D01*
X31008724Y7382834D01*
X30994683Y7386351D01*
X30981054Y7391228D01*
X30967969Y7397417D01*
X30955553Y7404858D01*
X30943927Y7413481D01*
X30933202Y7423202D01*
X30923481Y7433927D01*
X30914858Y7445553D01*
X30907417Y7457969D01*
X30901228Y7471054D01*
X30896351Y7484683D01*
X30892834Y7498724D01*
X30890710Y7513042D01*
X30890000Y7527500D01*
X30890000Y7872500D01*
X30890710Y7886958D01*
X30892834Y7901276D01*
X30896351Y7915317D01*
X30901228Y7928946D01*
X30907417Y7942031D01*
X30914858Y7954447D01*
X30923481Y7966073D01*
X30933202Y7976798D01*
X30943927Y7986519D01*
X30955553Y7995142D01*
X30967969Y8002583D01*
X30981054Y8008772D01*
X30994683Y8013649D01*
X31008724Y8017166D01*
X31023042Y8019290D01*
X31037500Y8020000D01*
X31332500Y8020000D01*
X31346958Y8019290D01*
X31346958Y8019290D01*
G37*
D22*
X31185000Y7700000D03*
D11*
G36*
X30376958Y8019290D02*
X30391276Y8017166D01*
X30405317Y8013649D01*
X30418946Y8008772D01*
X30432031Y8002583D01*
X30444447Y7995142D01*
X30456073Y7986519D01*
X30466798Y7976798D01*
X30476519Y7966073D01*
X30485142Y7954447D01*
X30492583Y7942031D01*
X30498772Y7928946D01*
X30503649Y7915317D01*
X30507166Y7901276D01*
X30509290Y7886958D01*
X30510000Y7872500D01*
X30510000Y7527500D01*
X30509290Y7513042D01*
X30507166Y7498724D01*
X30503649Y7484683D01*
X30498772Y7471054D01*
X30492583Y7457969D01*
X30485142Y7445553D01*
X30476519Y7433927D01*
X30466798Y7423202D01*
X30456073Y7413481D01*
X30444447Y7404858D01*
X30432031Y7397417D01*
X30418946Y7391228D01*
X30405317Y7386351D01*
X30391276Y7382834D01*
X30376958Y7380710D01*
X30362500Y7380000D01*
X30067500Y7380000D01*
X30053042Y7380710D01*
X30038724Y7382834D01*
X30024683Y7386351D01*
X30011054Y7391228D01*
X29997969Y7397417D01*
X29985553Y7404858D01*
X29973927Y7413481D01*
X29963202Y7423202D01*
X29953481Y7433927D01*
X29944858Y7445553D01*
X29937417Y7457969D01*
X29931228Y7471054D01*
X29926351Y7484683D01*
X29922834Y7498724D01*
X29920710Y7513042D01*
X29920000Y7527500D01*
X29920000Y7872500D01*
X29920710Y7886958D01*
X29922834Y7901276D01*
X29926351Y7915317D01*
X29931228Y7928946D01*
X29937417Y7942031D01*
X29944858Y7954447D01*
X29953481Y7966073D01*
X29963202Y7976798D01*
X29973927Y7986519D01*
X29985553Y7995142D01*
X29997969Y8002583D01*
X30011054Y8008772D01*
X30024683Y8013649D01*
X30038724Y8017166D01*
X30053042Y8019290D01*
X30067500Y8020000D01*
X30362500Y8020000D01*
X30376958Y8019290D01*
X30376958Y8019290D01*
G37*
D22*
X30215000Y7700000D03*
G04 #@! TD*
D11*
G04 #@! TO.C,R8*
G36*
X30376958Y9019290D02*
X30391276Y9017166D01*
X30405317Y9013649D01*
X30418946Y9008772D01*
X30432031Y9002583D01*
X30444447Y8995142D01*
X30456073Y8986519D01*
X30466798Y8976798D01*
X30476519Y8966073D01*
X30485142Y8954447D01*
X30492583Y8942031D01*
X30498772Y8928946D01*
X30503649Y8915317D01*
X30507166Y8901276D01*
X30509290Y8886958D01*
X30510000Y8872500D01*
X30510000Y8527500D01*
X30509290Y8513042D01*
X30507166Y8498724D01*
X30503649Y8484683D01*
X30498772Y8471054D01*
X30492583Y8457969D01*
X30485142Y8445553D01*
X30476519Y8433927D01*
X30466798Y8423202D01*
X30456073Y8413481D01*
X30444447Y8404858D01*
X30432031Y8397417D01*
X30418946Y8391228D01*
X30405317Y8386351D01*
X30391276Y8382834D01*
X30376958Y8380710D01*
X30362500Y8380000D01*
X30067500Y8380000D01*
X30053042Y8380710D01*
X30038724Y8382834D01*
X30024683Y8386351D01*
X30011054Y8391228D01*
X29997969Y8397417D01*
X29985553Y8404858D01*
X29973927Y8413481D01*
X29963202Y8423202D01*
X29953481Y8433927D01*
X29944858Y8445553D01*
X29937417Y8457969D01*
X29931228Y8471054D01*
X29926351Y8484683D01*
X29922834Y8498724D01*
X29920710Y8513042D01*
X29920000Y8527500D01*
X29920000Y8872500D01*
X29920710Y8886958D01*
X29922834Y8901276D01*
X29926351Y8915317D01*
X29931228Y8928946D01*
X29937417Y8942031D01*
X29944858Y8954447D01*
X29953481Y8966073D01*
X29963202Y8976798D01*
X29973927Y8986519D01*
X29985553Y8995142D01*
X29997969Y9002583D01*
X30011054Y9008772D01*
X30024683Y9013649D01*
X30038724Y9017166D01*
X30053042Y9019290D01*
X30067500Y9020000D01*
X30362500Y9020000D01*
X30376958Y9019290D01*
X30376958Y9019290D01*
G37*
D22*
X30215000Y8700000D03*
D11*
G36*
X31346958Y9019290D02*
X31361276Y9017166D01*
X31375317Y9013649D01*
X31388946Y9008772D01*
X31402031Y9002583D01*
X31414447Y8995142D01*
X31426073Y8986519D01*
X31436798Y8976798D01*
X31446519Y8966073D01*
X31455142Y8954447D01*
X31462583Y8942031D01*
X31468772Y8928946D01*
X31473649Y8915317D01*
X31477166Y8901276D01*
X31479290Y8886958D01*
X31480000Y8872500D01*
X31480000Y8527500D01*
X31479290Y8513042D01*
X31477166Y8498724D01*
X31473649Y8484683D01*
X31468772Y8471054D01*
X31462583Y8457969D01*
X31455142Y8445553D01*
X31446519Y8433927D01*
X31436798Y8423202D01*
X31426073Y8413481D01*
X31414447Y8404858D01*
X31402031Y8397417D01*
X31388946Y8391228D01*
X31375317Y8386351D01*
X31361276Y8382834D01*
X31346958Y8380710D01*
X31332500Y8380000D01*
X31037500Y8380000D01*
X31023042Y8380710D01*
X31008724Y8382834D01*
X30994683Y8386351D01*
X30981054Y8391228D01*
X30967969Y8397417D01*
X30955553Y8404858D01*
X30943927Y8413481D01*
X30933202Y8423202D01*
X30923481Y8433927D01*
X30914858Y8445553D01*
X30907417Y8457969D01*
X30901228Y8471054D01*
X30896351Y8484683D01*
X30892834Y8498724D01*
X30890710Y8513042D01*
X30890000Y8527500D01*
X30890000Y8872500D01*
X30890710Y8886958D01*
X30892834Y8901276D01*
X30896351Y8915317D01*
X30901228Y8928946D01*
X30907417Y8942031D01*
X30914858Y8954447D01*
X30923481Y8966073D01*
X30933202Y8976798D01*
X30943927Y8986519D01*
X30955553Y8995142D01*
X30967969Y9002583D01*
X30981054Y9008772D01*
X30994683Y9013649D01*
X31008724Y9017166D01*
X31023042Y9019290D01*
X31037500Y9020000D01*
X31332500Y9020000D01*
X31346958Y9019290D01*
X31346958Y9019290D01*
G37*
D22*
X31185000Y8700000D03*
G04 #@! TD*
D23*
G04 #@! TO.C,U4*
X33500000Y8220000D03*
X32100000Y8720000D03*
X33500000Y9220000D03*
X32100000Y8220000D03*
X32100000Y9220000D03*
G04 #@! TD*
D11*
G04 #@! TO.C,U5*
G36*
X33763626Y5014699D02*
X33769693Y5013799D01*
X33775643Y5012309D01*
X33781418Y5010242D01*
X33786962Y5007620D01*
X33792223Y5004467D01*
X33797150Y5000813D01*
X33801694Y4996694D01*
X33805813Y4992150D01*
X33809467Y4987223D01*
X33812620Y4981962D01*
X33815242Y4976418D01*
X33817309Y4970643D01*
X33818799Y4964693D01*
X33819699Y4958626D01*
X33820000Y4952500D01*
X33820000Y4827500D01*
X33819699Y4821374D01*
X33818799Y4815307D01*
X33817309Y4809357D01*
X33815242Y4803582D01*
X33812620Y4798038D01*
X33809467Y4792777D01*
X33805813Y4787850D01*
X33801694Y4783306D01*
X33797150Y4779187D01*
X33792223Y4775533D01*
X33786962Y4772380D01*
X33781418Y4769758D01*
X33775643Y4767691D01*
X33769693Y4766201D01*
X33763626Y4765301D01*
X33757500Y4765000D01*
X33057500Y4765000D01*
X33051374Y4765301D01*
X33045307Y4766201D01*
X33039357Y4767691D01*
X33033582Y4769758D01*
X33028038Y4772380D01*
X33022777Y4775533D01*
X33017850Y4779187D01*
X33013306Y4783306D01*
X33009187Y4787850D01*
X33005533Y4792777D01*
X33002380Y4798038D01*
X32999758Y4803582D01*
X32997691Y4809357D01*
X32996201Y4815307D01*
X32995301Y4821374D01*
X32995000Y4827500D01*
X32995000Y4952500D01*
X32995301Y4958626D01*
X32996201Y4964693D01*
X32997691Y4970643D01*
X32999758Y4976418D01*
X33002380Y4981962D01*
X33005533Y4987223D01*
X33009187Y4992150D01*
X33013306Y4996694D01*
X33017850Y5000813D01*
X33022777Y5004467D01*
X33028038Y5007620D01*
X33033582Y5010242D01*
X33039357Y5012309D01*
X33045307Y5013799D01*
X33051374Y5014699D01*
X33057500Y5015000D01*
X33757500Y5015000D01*
X33763626Y5014699D01*
X33763626Y5014699D01*
G37*
D24*
X33407500Y4890000D03*
D11*
G36*
X33763626Y4514699D02*
X33769693Y4513799D01*
X33775643Y4512309D01*
X33781418Y4510242D01*
X33786962Y4507620D01*
X33792223Y4504467D01*
X33797150Y4500813D01*
X33801694Y4496694D01*
X33805813Y4492150D01*
X33809467Y4487223D01*
X33812620Y4481962D01*
X33815242Y4476418D01*
X33817309Y4470643D01*
X33818799Y4464693D01*
X33819699Y4458626D01*
X33820000Y4452500D01*
X33820000Y4327500D01*
X33819699Y4321374D01*
X33818799Y4315307D01*
X33817309Y4309357D01*
X33815242Y4303582D01*
X33812620Y4298038D01*
X33809467Y4292777D01*
X33805813Y4287850D01*
X33801694Y4283306D01*
X33797150Y4279187D01*
X33792223Y4275533D01*
X33786962Y4272380D01*
X33781418Y4269758D01*
X33775643Y4267691D01*
X33769693Y4266201D01*
X33763626Y4265301D01*
X33757500Y4265000D01*
X33057500Y4265000D01*
X33051374Y4265301D01*
X33045307Y4266201D01*
X33039357Y4267691D01*
X33033582Y4269758D01*
X33028038Y4272380D01*
X33022777Y4275533D01*
X33017850Y4279187D01*
X33013306Y4283306D01*
X33009187Y4287850D01*
X33005533Y4292777D01*
X33002380Y4298038D01*
X32999758Y4303582D01*
X32997691Y4309357D01*
X32996201Y4315307D01*
X32995301Y4321374D01*
X32995000Y4327500D01*
X32995000Y4452500D01*
X32995301Y4458626D01*
X32996201Y4464693D01*
X32997691Y4470643D01*
X32999758Y4476418D01*
X33002380Y4481962D01*
X33005533Y4487223D01*
X33009187Y4492150D01*
X33013306Y4496694D01*
X33017850Y4500813D01*
X33022777Y4504467D01*
X33028038Y4507620D01*
X33033582Y4510242D01*
X33039357Y4512309D01*
X33045307Y4513799D01*
X33051374Y4514699D01*
X33057500Y4515000D01*
X33757500Y4515000D01*
X33763626Y4514699D01*
X33763626Y4514699D01*
G37*
D24*
X33407500Y4390000D03*
D11*
G36*
X33763626Y4014699D02*
X33769693Y4013799D01*
X33775643Y4012309D01*
X33781418Y4010242D01*
X33786962Y4007620D01*
X33792223Y4004467D01*
X33797150Y4000813D01*
X33801694Y3996694D01*
X33805813Y3992150D01*
X33809467Y3987223D01*
X33812620Y3981962D01*
X33815242Y3976418D01*
X33817309Y3970643D01*
X33818799Y3964693D01*
X33819699Y3958626D01*
X33820000Y3952500D01*
X33820000Y3827500D01*
X33819699Y3821374D01*
X33818799Y3815307D01*
X33817309Y3809357D01*
X33815242Y3803582D01*
X33812620Y3798038D01*
X33809467Y3792777D01*
X33805813Y3787850D01*
X33801694Y3783306D01*
X33797150Y3779187D01*
X33792223Y3775533D01*
X33786962Y3772380D01*
X33781418Y3769758D01*
X33775643Y3767691D01*
X33769693Y3766201D01*
X33763626Y3765301D01*
X33757500Y3765000D01*
X33057500Y3765000D01*
X33051374Y3765301D01*
X33045307Y3766201D01*
X33039357Y3767691D01*
X33033582Y3769758D01*
X33028038Y3772380D01*
X33022777Y3775533D01*
X33017850Y3779187D01*
X33013306Y3783306D01*
X33009187Y3787850D01*
X33005533Y3792777D01*
X33002380Y3798038D01*
X32999758Y3803582D01*
X32997691Y3809357D01*
X32996201Y3815307D01*
X32995301Y3821374D01*
X32995000Y3827500D01*
X32995000Y3952500D01*
X32995301Y3958626D01*
X32996201Y3964693D01*
X32997691Y3970643D01*
X32999758Y3976418D01*
X33002380Y3981962D01*
X33005533Y3987223D01*
X33009187Y3992150D01*
X33013306Y3996694D01*
X33017850Y4000813D01*
X33022777Y4004467D01*
X33028038Y4007620D01*
X33033582Y4010242D01*
X33039357Y4012309D01*
X33045307Y4013799D01*
X33051374Y4014699D01*
X33057500Y4015000D01*
X33757500Y4015000D01*
X33763626Y4014699D01*
X33763626Y4014699D01*
G37*
D24*
X33407500Y3890000D03*
D11*
G36*
X33763626Y3514699D02*
X33769693Y3513799D01*
X33775643Y3512309D01*
X33781418Y3510242D01*
X33786962Y3507620D01*
X33792223Y3504467D01*
X33797150Y3500813D01*
X33801694Y3496694D01*
X33805813Y3492150D01*
X33809467Y3487223D01*
X33812620Y3481962D01*
X33815242Y3476418D01*
X33817309Y3470643D01*
X33818799Y3464693D01*
X33819699Y3458626D01*
X33820000Y3452500D01*
X33820000Y3327500D01*
X33819699Y3321374D01*
X33818799Y3315307D01*
X33817309Y3309357D01*
X33815242Y3303582D01*
X33812620Y3298038D01*
X33809467Y3292777D01*
X33805813Y3287850D01*
X33801694Y3283306D01*
X33797150Y3279187D01*
X33792223Y3275533D01*
X33786962Y3272380D01*
X33781418Y3269758D01*
X33775643Y3267691D01*
X33769693Y3266201D01*
X33763626Y3265301D01*
X33757500Y3265000D01*
X33057500Y3265000D01*
X33051374Y3265301D01*
X33045307Y3266201D01*
X33039357Y3267691D01*
X33033582Y3269758D01*
X33028038Y3272380D01*
X33022777Y3275533D01*
X33017850Y3279187D01*
X33013306Y3283306D01*
X33009187Y3287850D01*
X33005533Y3292777D01*
X33002380Y3298038D01*
X32999758Y3303582D01*
X32997691Y3309357D01*
X32996201Y3315307D01*
X32995301Y3321374D01*
X32995000Y3327500D01*
X32995000Y3452500D01*
X32995301Y3458626D01*
X32996201Y3464693D01*
X32997691Y3470643D01*
X32999758Y3476418D01*
X33002380Y3481962D01*
X33005533Y3487223D01*
X33009187Y3492150D01*
X33013306Y3496694D01*
X33017850Y3500813D01*
X33022777Y3504467D01*
X33028038Y3507620D01*
X33033582Y3510242D01*
X33039357Y3512309D01*
X33045307Y3513799D01*
X33051374Y3514699D01*
X33057500Y3515000D01*
X33757500Y3515000D01*
X33763626Y3514699D01*
X33763626Y3514699D01*
G37*
D24*
X33407500Y3390000D03*
D11*
G36*
X33763626Y3014699D02*
X33769693Y3013799D01*
X33775643Y3012309D01*
X33781418Y3010242D01*
X33786962Y3007620D01*
X33792223Y3004467D01*
X33797150Y3000813D01*
X33801694Y2996694D01*
X33805813Y2992150D01*
X33809467Y2987223D01*
X33812620Y2981962D01*
X33815242Y2976418D01*
X33817309Y2970643D01*
X33818799Y2964693D01*
X33819699Y2958626D01*
X33820000Y2952500D01*
X33820000Y2827500D01*
X33819699Y2821374D01*
X33818799Y2815307D01*
X33817309Y2809357D01*
X33815242Y2803582D01*
X33812620Y2798038D01*
X33809467Y2792777D01*
X33805813Y2787850D01*
X33801694Y2783306D01*
X33797150Y2779187D01*
X33792223Y2775533D01*
X33786962Y2772380D01*
X33781418Y2769758D01*
X33775643Y2767691D01*
X33769693Y2766201D01*
X33763626Y2765301D01*
X33757500Y2765000D01*
X33057500Y2765000D01*
X33051374Y2765301D01*
X33045307Y2766201D01*
X33039357Y2767691D01*
X33033582Y2769758D01*
X33028038Y2772380D01*
X33022777Y2775533D01*
X33017850Y2779187D01*
X33013306Y2783306D01*
X33009187Y2787850D01*
X33005533Y2792777D01*
X33002380Y2798038D01*
X32999758Y2803582D01*
X32997691Y2809357D01*
X32996201Y2815307D01*
X32995301Y2821374D01*
X32995000Y2827500D01*
X32995000Y2952500D01*
X32995301Y2958626D01*
X32996201Y2964693D01*
X32997691Y2970643D01*
X32999758Y2976418D01*
X33002380Y2981962D01*
X33005533Y2987223D01*
X33009187Y2992150D01*
X33013306Y2996694D01*
X33017850Y3000813D01*
X33022777Y3004467D01*
X33028038Y3007620D01*
X33033582Y3010242D01*
X33039357Y3012309D01*
X33045307Y3013799D01*
X33051374Y3014699D01*
X33057500Y3015000D01*
X33757500Y3015000D01*
X33763626Y3014699D01*
X33763626Y3014699D01*
G37*
D24*
X33407500Y2890000D03*
D11*
G36*
X33763626Y2514699D02*
X33769693Y2513799D01*
X33775643Y2512309D01*
X33781418Y2510242D01*
X33786962Y2507620D01*
X33792223Y2504467D01*
X33797150Y2500813D01*
X33801694Y2496694D01*
X33805813Y2492150D01*
X33809467Y2487223D01*
X33812620Y2481962D01*
X33815242Y2476418D01*
X33817309Y2470643D01*
X33818799Y2464693D01*
X33819699Y2458626D01*
X33820000Y2452500D01*
X33820000Y2327500D01*
X33819699Y2321374D01*
X33818799Y2315307D01*
X33817309Y2309357D01*
X33815242Y2303582D01*
X33812620Y2298038D01*
X33809467Y2292777D01*
X33805813Y2287850D01*
X33801694Y2283306D01*
X33797150Y2279187D01*
X33792223Y2275533D01*
X33786962Y2272380D01*
X33781418Y2269758D01*
X33775643Y2267691D01*
X33769693Y2266201D01*
X33763626Y2265301D01*
X33757500Y2265000D01*
X33057500Y2265000D01*
X33051374Y2265301D01*
X33045307Y2266201D01*
X33039357Y2267691D01*
X33033582Y2269758D01*
X33028038Y2272380D01*
X33022777Y2275533D01*
X33017850Y2279187D01*
X33013306Y2283306D01*
X33009187Y2287850D01*
X33005533Y2292777D01*
X33002380Y2298038D01*
X32999758Y2303582D01*
X32997691Y2309357D01*
X32996201Y2315307D01*
X32995301Y2321374D01*
X32995000Y2327500D01*
X32995000Y2452500D01*
X32995301Y2458626D01*
X32996201Y2464693D01*
X32997691Y2470643D01*
X32999758Y2476418D01*
X33002380Y2481962D01*
X33005533Y2487223D01*
X33009187Y2492150D01*
X33013306Y2496694D01*
X33017850Y2500813D01*
X33022777Y2504467D01*
X33028038Y2507620D01*
X33033582Y2510242D01*
X33039357Y2512309D01*
X33045307Y2513799D01*
X33051374Y2514699D01*
X33057500Y2515000D01*
X33757500Y2515000D01*
X33763626Y2514699D01*
X33763626Y2514699D01*
G37*
D24*
X33407500Y2390000D03*
D11*
G36*
X32788626Y2114699D02*
X32794693Y2113799D01*
X32800643Y2112309D01*
X32806418Y2110242D01*
X32811962Y2107620D01*
X32817223Y2104467D01*
X32822150Y2100813D01*
X32826694Y2096694D01*
X32830813Y2092150D01*
X32834467Y2087223D01*
X32837620Y2081962D01*
X32840242Y2076418D01*
X32842309Y2070643D01*
X32843799Y2064693D01*
X32844699Y2058626D01*
X32845000Y2052500D01*
X32845000Y1352500D01*
X32844699Y1346374D01*
X32843799Y1340307D01*
X32842309Y1334357D01*
X32840242Y1328582D01*
X32837620Y1323038D01*
X32834467Y1317777D01*
X32830813Y1312850D01*
X32826694Y1308306D01*
X32822150Y1304187D01*
X32817223Y1300533D01*
X32811962Y1297380D01*
X32806418Y1294758D01*
X32800643Y1292691D01*
X32794693Y1291201D01*
X32788626Y1290301D01*
X32782500Y1290000D01*
X32657500Y1290000D01*
X32651374Y1290301D01*
X32645307Y1291201D01*
X32639357Y1292691D01*
X32633582Y1294758D01*
X32628038Y1297380D01*
X32622777Y1300533D01*
X32617850Y1304187D01*
X32613306Y1308306D01*
X32609187Y1312850D01*
X32605533Y1317777D01*
X32602380Y1323038D01*
X32599758Y1328582D01*
X32597691Y1334357D01*
X32596201Y1340307D01*
X32595301Y1346374D01*
X32595000Y1352500D01*
X32595000Y2052500D01*
X32595301Y2058626D01*
X32596201Y2064693D01*
X32597691Y2070643D01*
X32599758Y2076418D01*
X32602380Y2081962D01*
X32605533Y2087223D01*
X32609187Y2092150D01*
X32613306Y2096694D01*
X32617850Y2100813D01*
X32622777Y2104467D01*
X32628038Y2107620D01*
X32633582Y2110242D01*
X32639357Y2112309D01*
X32645307Y2113799D01*
X32651374Y2114699D01*
X32657500Y2115000D01*
X32782500Y2115000D01*
X32788626Y2114699D01*
X32788626Y2114699D01*
G37*
D24*
X32720000Y1702500D03*
D11*
G36*
X32288626Y2114699D02*
X32294693Y2113799D01*
X32300643Y2112309D01*
X32306418Y2110242D01*
X32311962Y2107620D01*
X32317223Y2104467D01*
X32322150Y2100813D01*
X32326694Y2096694D01*
X32330813Y2092150D01*
X32334467Y2087223D01*
X32337620Y2081962D01*
X32340242Y2076418D01*
X32342309Y2070643D01*
X32343799Y2064693D01*
X32344699Y2058626D01*
X32345000Y2052500D01*
X32345000Y1352500D01*
X32344699Y1346374D01*
X32343799Y1340307D01*
X32342309Y1334357D01*
X32340242Y1328582D01*
X32337620Y1323038D01*
X32334467Y1317777D01*
X32330813Y1312850D01*
X32326694Y1308306D01*
X32322150Y1304187D01*
X32317223Y1300533D01*
X32311962Y1297380D01*
X32306418Y1294758D01*
X32300643Y1292691D01*
X32294693Y1291201D01*
X32288626Y1290301D01*
X32282500Y1290000D01*
X32157500Y1290000D01*
X32151374Y1290301D01*
X32145307Y1291201D01*
X32139357Y1292691D01*
X32133582Y1294758D01*
X32128038Y1297380D01*
X32122777Y1300533D01*
X32117850Y1304187D01*
X32113306Y1308306D01*
X32109187Y1312850D01*
X32105533Y1317777D01*
X32102380Y1323038D01*
X32099758Y1328582D01*
X32097691Y1334357D01*
X32096201Y1340307D01*
X32095301Y1346374D01*
X32095000Y1352500D01*
X32095000Y2052500D01*
X32095301Y2058626D01*
X32096201Y2064693D01*
X32097691Y2070643D01*
X32099758Y2076418D01*
X32102380Y2081962D01*
X32105533Y2087223D01*
X32109187Y2092150D01*
X32113306Y2096694D01*
X32117850Y2100813D01*
X32122777Y2104467D01*
X32128038Y2107620D01*
X32133582Y2110242D01*
X32139357Y2112309D01*
X32145307Y2113799D01*
X32151374Y2114699D01*
X32157500Y2115000D01*
X32282500Y2115000D01*
X32288626Y2114699D01*
X32288626Y2114699D01*
G37*
D24*
X32220000Y1702500D03*
D11*
G36*
X31788626Y2114699D02*
X31794693Y2113799D01*
X31800643Y2112309D01*
X31806418Y2110242D01*
X31811962Y2107620D01*
X31817223Y2104467D01*
X31822150Y2100813D01*
X31826694Y2096694D01*
X31830813Y2092150D01*
X31834467Y2087223D01*
X31837620Y2081962D01*
X31840242Y2076418D01*
X31842309Y2070643D01*
X31843799Y2064693D01*
X31844699Y2058626D01*
X31845000Y2052500D01*
X31845000Y1352500D01*
X31844699Y1346374D01*
X31843799Y1340307D01*
X31842309Y1334357D01*
X31840242Y1328582D01*
X31837620Y1323038D01*
X31834467Y1317777D01*
X31830813Y1312850D01*
X31826694Y1308306D01*
X31822150Y1304187D01*
X31817223Y1300533D01*
X31811962Y1297380D01*
X31806418Y1294758D01*
X31800643Y1292691D01*
X31794693Y1291201D01*
X31788626Y1290301D01*
X31782500Y1290000D01*
X31657500Y1290000D01*
X31651374Y1290301D01*
X31645307Y1291201D01*
X31639357Y1292691D01*
X31633582Y1294758D01*
X31628038Y1297380D01*
X31622777Y1300533D01*
X31617850Y1304187D01*
X31613306Y1308306D01*
X31609187Y1312850D01*
X31605533Y1317777D01*
X31602380Y1323038D01*
X31599758Y1328582D01*
X31597691Y1334357D01*
X31596201Y1340307D01*
X31595301Y1346374D01*
X31595000Y1352500D01*
X31595000Y2052500D01*
X31595301Y2058626D01*
X31596201Y2064693D01*
X31597691Y2070643D01*
X31599758Y2076418D01*
X31602380Y2081962D01*
X31605533Y2087223D01*
X31609187Y2092150D01*
X31613306Y2096694D01*
X31617850Y2100813D01*
X31622777Y2104467D01*
X31628038Y2107620D01*
X31633582Y2110242D01*
X31639357Y2112309D01*
X31645307Y2113799D01*
X31651374Y2114699D01*
X31657500Y2115000D01*
X31782500Y2115000D01*
X31788626Y2114699D01*
X31788626Y2114699D01*
G37*
D24*
X31720000Y1702500D03*
D11*
G36*
X31288626Y2114699D02*
X31294693Y2113799D01*
X31300643Y2112309D01*
X31306418Y2110242D01*
X31311962Y2107620D01*
X31317223Y2104467D01*
X31322150Y2100813D01*
X31326694Y2096694D01*
X31330813Y2092150D01*
X31334467Y2087223D01*
X31337620Y2081962D01*
X31340242Y2076418D01*
X31342309Y2070643D01*
X31343799Y2064693D01*
X31344699Y2058626D01*
X31345000Y2052500D01*
X31345000Y1352500D01*
X31344699Y1346374D01*
X31343799Y1340307D01*
X31342309Y1334357D01*
X31340242Y1328582D01*
X31337620Y1323038D01*
X31334467Y1317777D01*
X31330813Y1312850D01*
X31326694Y1308306D01*
X31322150Y1304187D01*
X31317223Y1300533D01*
X31311962Y1297380D01*
X31306418Y1294758D01*
X31300643Y1292691D01*
X31294693Y1291201D01*
X31288626Y1290301D01*
X31282500Y1290000D01*
X31157500Y1290000D01*
X31151374Y1290301D01*
X31145307Y1291201D01*
X31139357Y1292691D01*
X31133582Y1294758D01*
X31128038Y1297380D01*
X31122777Y1300533D01*
X31117850Y1304187D01*
X31113306Y1308306D01*
X31109187Y1312850D01*
X31105533Y1317777D01*
X31102380Y1323038D01*
X31099758Y1328582D01*
X31097691Y1334357D01*
X31096201Y1340307D01*
X31095301Y1346374D01*
X31095000Y1352500D01*
X31095000Y2052500D01*
X31095301Y2058626D01*
X31096201Y2064693D01*
X31097691Y2070643D01*
X31099758Y2076418D01*
X31102380Y2081962D01*
X31105533Y2087223D01*
X31109187Y2092150D01*
X31113306Y2096694D01*
X31117850Y2100813D01*
X31122777Y2104467D01*
X31128038Y2107620D01*
X31133582Y2110242D01*
X31139357Y2112309D01*
X31145307Y2113799D01*
X31151374Y2114699D01*
X31157500Y2115000D01*
X31282500Y2115000D01*
X31288626Y2114699D01*
X31288626Y2114699D01*
G37*
D24*
X31220000Y1702500D03*
D11*
G36*
X30788626Y2114699D02*
X30794693Y2113799D01*
X30800643Y2112309D01*
X30806418Y2110242D01*
X30811962Y2107620D01*
X30817223Y2104467D01*
X30822150Y2100813D01*
X30826694Y2096694D01*
X30830813Y2092150D01*
X30834467Y2087223D01*
X30837620Y2081962D01*
X30840242Y2076418D01*
X30842309Y2070643D01*
X30843799Y2064693D01*
X30844699Y2058626D01*
X30845000Y2052500D01*
X30845000Y1352500D01*
X30844699Y1346374D01*
X30843799Y1340307D01*
X30842309Y1334357D01*
X30840242Y1328582D01*
X30837620Y1323038D01*
X30834467Y1317777D01*
X30830813Y1312850D01*
X30826694Y1308306D01*
X30822150Y1304187D01*
X30817223Y1300533D01*
X30811962Y1297380D01*
X30806418Y1294758D01*
X30800643Y1292691D01*
X30794693Y1291201D01*
X30788626Y1290301D01*
X30782500Y1290000D01*
X30657500Y1290000D01*
X30651374Y1290301D01*
X30645307Y1291201D01*
X30639357Y1292691D01*
X30633582Y1294758D01*
X30628038Y1297380D01*
X30622777Y1300533D01*
X30617850Y1304187D01*
X30613306Y1308306D01*
X30609187Y1312850D01*
X30605533Y1317777D01*
X30602380Y1323038D01*
X30599758Y1328582D01*
X30597691Y1334357D01*
X30596201Y1340307D01*
X30595301Y1346374D01*
X30595000Y1352500D01*
X30595000Y2052500D01*
X30595301Y2058626D01*
X30596201Y2064693D01*
X30597691Y2070643D01*
X30599758Y2076418D01*
X30602380Y2081962D01*
X30605533Y2087223D01*
X30609187Y2092150D01*
X30613306Y2096694D01*
X30617850Y2100813D01*
X30622777Y2104467D01*
X30628038Y2107620D01*
X30633582Y2110242D01*
X30639357Y2112309D01*
X30645307Y2113799D01*
X30651374Y2114699D01*
X30657500Y2115000D01*
X30782500Y2115000D01*
X30788626Y2114699D01*
X30788626Y2114699D01*
G37*
D24*
X30720000Y1702500D03*
D11*
G36*
X30288626Y2114699D02*
X30294693Y2113799D01*
X30300643Y2112309D01*
X30306418Y2110242D01*
X30311962Y2107620D01*
X30317223Y2104467D01*
X30322150Y2100813D01*
X30326694Y2096694D01*
X30330813Y2092150D01*
X30334467Y2087223D01*
X30337620Y2081962D01*
X30340242Y2076418D01*
X30342309Y2070643D01*
X30343799Y2064693D01*
X30344699Y2058626D01*
X30345000Y2052500D01*
X30345000Y1352500D01*
X30344699Y1346374D01*
X30343799Y1340307D01*
X30342309Y1334357D01*
X30340242Y1328582D01*
X30337620Y1323038D01*
X30334467Y1317777D01*
X30330813Y1312850D01*
X30326694Y1308306D01*
X30322150Y1304187D01*
X30317223Y1300533D01*
X30311962Y1297380D01*
X30306418Y1294758D01*
X30300643Y1292691D01*
X30294693Y1291201D01*
X30288626Y1290301D01*
X30282500Y1290000D01*
X30157500Y1290000D01*
X30151374Y1290301D01*
X30145307Y1291201D01*
X30139357Y1292691D01*
X30133582Y1294758D01*
X30128038Y1297380D01*
X30122777Y1300533D01*
X30117850Y1304187D01*
X30113306Y1308306D01*
X30109187Y1312850D01*
X30105533Y1317777D01*
X30102380Y1323038D01*
X30099758Y1328582D01*
X30097691Y1334357D01*
X30096201Y1340307D01*
X30095301Y1346374D01*
X30095000Y1352500D01*
X30095000Y2052500D01*
X30095301Y2058626D01*
X30096201Y2064693D01*
X30097691Y2070643D01*
X30099758Y2076418D01*
X30102380Y2081962D01*
X30105533Y2087223D01*
X30109187Y2092150D01*
X30113306Y2096694D01*
X30117850Y2100813D01*
X30122777Y2104467D01*
X30128038Y2107620D01*
X30133582Y2110242D01*
X30139357Y2112309D01*
X30145307Y2113799D01*
X30151374Y2114699D01*
X30157500Y2115000D01*
X30282500Y2115000D01*
X30288626Y2114699D01*
X30288626Y2114699D01*
G37*
D24*
X30220000Y1702500D03*
D11*
G36*
X29888626Y2514699D02*
X29894693Y2513799D01*
X29900643Y2512309D01*
X29906418Y2510242D01*
X29911962Y2507620D01*
X29917223Y2504467D01*
X29922150Y2500813D01*
X29926694Y2496694D01*
X29930813Y2492150D01*
X29934467Y2487223D01*
X29937620Y2481962D01*
X29940242Y2476418D01*
X29942309Y2470643D01*
X29943799Y2464693D01*
X29944699Y2458626D01*
X29945000Y2452500D01*
X29945000Y2327500D01*
X29944699Y2321374D01*
X29943799Y2315307D01*
X29942309Y2309357D01*
X29940242Y2303582D01*
X29937620Y2298038D01*
X29934467Y2292777D01*
X29930813Y2287850D01*
X29926694Y2283306D01*
X29922150Y2279187D01*
X29917223Y2275533D01*
X29911962Y2272380D01*
X29906418Y2269758D01*
X29900643Y2267691D01*
X29894693Y2266201D01*
X29888626Y2265301D01*
X29882500Y2265000D01*
X29182500Y2265000D01*
X29176374Y2265301D01*
X29170307Y2266201D01*
X29164357Y2267691D01*
X29158582Y2269758D01*
X29153038Y2272380D01*
X29147777Y2275533D01*
X29142850Y2279187D01*
X29138306Y2283306D01*
X29134187Y2287850D01*
X29130533Y2292777D01*
X29127380Y2298038D01*
X29124758Y2303582D01*
X29122691Y2309357D01*
X29121201Y2315307D01*
X29120301Y2321374D01*
X29120000Y2327500D01*
X29120000Y2452500D01*
X29120301Y2458626D01*
X29121201Y2464693D01*
X29122691Y2470643D01*
X29124758Y2476418D01*
X29127380Y2481962D01*
X29130533Y2487223D01*
X29134187Y2492150D01*
X29138306Y2496694D01*
X29142850Y2500813D01*
X29147777Y2504467D01*
X29153038Y2507620D01*
X29158582Y2510242D01*
X29164357Y2512309D01*
X29170307Y2513799D01*
X29176374Y2514699D01*
X29182500Y2515000D01*
X29882500Y2515000D01*
X29888626Y2514699D01*
X29888626Y2514699D01*
G37*
D24*
X29532500Y2390000D03*
D11*
G36*
X29888626Y3014699D02*
X29894693Y3013799D01*
X29900643Y3012309D01*
X29906418Y3010242D01*
X29911962Y3007620D01*
X29917223Y3004467D01*
X29922150Y3000813D01*
X29926694Y2996694D01*
X29930813Y2992150D01*
X29934467Y2987223D01*
X29937620Y2981962D01*
X29940242Y2976418D01*
X29942309Y2970643D01*
X29943799Y2964693D01*
X29944699Y2958626D01*
X29945000Y2952500D01*
X29945000Y2827500D01*
X29944699Y2821374D01*
X29943799Y2815307D01*
X29942309Y2809357D01*
X29940242Y2803582D01*
X29937620Y2798038D01*
X29934467Y2792777D01*
X29930813Y2787850D01*
X29926694Y2783306D01*
X29922150Y2779187D01*
X29917223Y2775533D01*
X29911962Y2772380D01*
X29906418Y2769758D01*
X29900643Y2767691D01*
X29894693Y2766201D01*
X29888626Y2765301D01*
X29882500Y2765000D01*
X29182500Y2765000D01*
X29176374Y2765301D01*
X29170307Y2766201D01*
X29164357Y2767691D01*
X29158582Y2769758D01*
X29153038Y2772380D01*
X29147777Y2775533D01*
X29142850Y2779187D01*
X29138306Y2783306D01*
X29134187Y2787850D01*
X29130533Y2792777D01*
X29127380Y2798038D01*
X29124758Y2803582D01*
X29122691Y2809357D01*
X29121201Y2815307D01*
X29120301Y2821374D01*
X29120000Y2827500D01*
X29120000Y2952500D01*
X29120301Y2958626D01*
X29121201Y2964693D01*
X29122691Y2970643D01*
X29124758Y2976418D01*
X29127380Y2981962D01*
X29130533Y2987223D01*
X29134187Y2992150D01*
X29138306Y2996694D01*
X29142850Y3000813D01*
X29147777Y3004467D01*
X29153038Y3007620D01*
X29158582Y3010242D01*
X29164357Y3012309D01*
X29170307Y3013799D01*
X29176374Y3014699D01*
X29182500Y3015000D01*
X29882500Y3015000D01*
X29888626Y3014699D01*
X29888626Y3014699D01*
G37*
D24*
X29532500Y2890000D03*
D11*
G36*
X29888626Y3514699D02*
X29894693Y3513799D01*
X29900643Y3512309D01*
X29906418Y3510242D01*
X29911962Y3507620D01*
X29917223Y3504467D01*
X29922150Y3500813D01*
X29926694Y3496694D01*
X29930813Y3492150D01*
X29934467Y3487223D01*
X29937620Y3481962D01*
X29940242Y3476418D01*
X29942309Y3470643D01*
X29943799Y3464693D01*
X29944699Y3458626D01*
X29945000Y3452500D01*
X29945000Y3327500D01*
X29944699Y3321374D01*
X29943799Y3315307D01*
X29942309Y3309357D01*
X29940242Y3303582D01*
X29937620Y3298038D01*
X29934467Y3292777D01*
X29930813Y3287850D01*
X29926694Y3283306D01*
X29922150Y3279187D01*
X29917223Y3275533D01*
X29911962Y3272380D01*
X29906418Y3269758D01*
X29900643Y3267691D01*
X29894693Y3266201D01*
X29888626Y3265301D01*
X29882500Y3265000D01*
X29182500Y3265000D01*
X29176374Y3265301D01*
X29170307Y3266201D01*
X29164357Y3267691D01*
X29158582Y3269758D01*
X29153038Y3272380D01*
X29147777Y3275533D01*
X29142850Y3279187D01*
X29138306Y3283306D01*
X29134187Y3287850D01*
X29130533Y3292777D01*
X29127380Y3298038D01*
X29124758Y3303582D01*
X29122691Y3309357D01*
X29121201Y3315307D01*
X29120301Y3321374D01*
X29120000Y3327500D01*
X29120000Y3452500D01*
X29120301Y3458626D01*
X29121201Y3464693D01*
X29122691Y3470643D01*
X29124758Y3476418D01*
X29127380Y3481962D01*
X29130533Y3487223D01*
X29134187Y3492150D01*
X29138306Y3496694D01*
X29142850Y3500813D01*
X29147777Y3504467D01*
X29153038Y3507620D01*
X29158582Y3510242D01*
X29164357Y3512309D01*
X29170307Y3513799D01*
X29176374Y3514699D01*
X29182500Y3515000D01*
X29882500Y3515000D01*
X29888626Y3514699D01*
X29888626Y3514699D01*
G37*
D24*
X29532500Y3390000D03*
D11*
G36*
X29888626Y4014699D02*
X29894693Y4013799D01*
X29900643Y4012309D01*
X29906418Y4010242D01*
X29911962Y4007620D01*
X29917223Y4004467D01*
X29922150Y4000813D01*
X29926694Y3996694D01*
X29930813Y3992150D01*
X29934467Y3987223D01*
X29937620Y3981962D01*
X29940242Y3976418D01*
X29942309Y3970643D01*
X29943799Y3964693D01*
X29944699Y3958626D01*
X29945000Y3952500D01*
X29945000Y3827500D01*
X29944699Y3821374D01*
X29943799Y3815307D01*
X29942309Y3809357D01*
X29940242Y3803582D01*
X29937620Y3798038D01*
X29934467Y3792777D01*
X29930813Y3787850D01*
X29926694Y3783306D01*
X29922150Y3779187D01*
X29917223Y3775533D01*
X29911962Y3772380D01*
X29906418Y3769758D01*
X29900643Y3767691D01*
X29894693Y3766201D01*
X29888626Y3765301D01*
X29882500Y3765000D01*
X29182500Y3765000D01*
X29176374Y3765301D01*
X29170307Y3766201D01*
X29164357Y3767691D01*
X29158582Y3769758D01*
X29153038Y3772380D01*
X29147777Y3775533D01*
X29142850Y3779187D01*
X29138306Y3783306D01*
X29134187Y3787850D01*
X29130533Y3792777D01*
X29127380Y3798038D01*
X29124758Y3803582D01*
X29122691Y3809357D01*
X29121201Y3815307D01*
X29120301Y3821374D01*
X29120000Y3827500D01*
X29120000Y3952500D01*
X29120301Y3958626D01*
X29121201Y3964693D01*
X29122691Y3970643D01*
X29124758Y3976418D01*
X29127380Y3981962D01*
X29130533Y3987223D01*
X29134187Y3992150D01*
X29138306Y3996694D01*
X29142850Y4000813D01*
X29147777Y4004467D01*
X29153038Y4007620D01*
X29158582Y4010242D01*
X29164357Y4012309D01*
X29170307Y4013799D01*
X29176374Y4014699D01*
X29182500Y4015000D01*
X29882500Y4015000D01*
X29888626Y4014699D01*
X29888626Y4014699D01*
G37*
D24*
X29532500Y3890000D03*
D11*
G36*
X29888626Y4514699D02*
X29894693Y4513799D01*
X29900643Y4512309D01*
X29906418Y4510242D01*
X29911962Y4507620D01*
X29917223Y4504467D01*
X29922150Y4500813D01*
X29926694Y4496694D01*
X29930813Y4492150D01*
X29934467Y4487223D01*
X29937620Y4481962D01*
X29940242Y4476418D01*
X29942309Y4470643D01*
X29943799Y4464693D01*
X29944699Y4458626D01*
X29945000Y4452500D01*
X29945000Y4327500D01*
X29944699Y4321374D01*
X29943799Y4315307D01*
X29942309Y4309357D01*
X29940242Y4303582D01*
X29937620Y4298038D01*
X29934467Y4292777D01*
X29930813Y4287850D01*
X29926694Y4283306D01*
X29922150Y4279187D01*
X29917223Y4275533D01*
X29911962Y4272380D01*
X29906418Y4269758D01*
X29900643Y4267691D01*
X29894693Y4266201D01*
X29888626Y4265301D01*
X29882500Y4265000D01*
X29182500Y4265000D01*
X29176374Y4265301D01*
X29170307Y4266201D01*
X29164357Y4267691D01*
X29158582Y4269758D01*
X29153038Y4272380D01*
X29147777Y4275533D01*
X29142850Y4279187D01*
X29138306Y4283306D01*
X29134187Y4287850D01*
X29130533Y4292777D01*
X29127380Y4298038D01*
X29124758Y4303582D01*
X29122691Y4309357D01*
X29121201Y4315307D01*
X29120301Y4321374D01*
X29120000Y4327500D01*
X29120000Y4452500D01*
X29120301Y4458626D01*
X29121201Y4464693D01*
X29122691Y4470643D01*
X29124758Y4476418D01*
X29127380Y4481962D01*
X29130533Y4487223D01*
X29134187Y4492150D01*
X29138306Y4496694D01*
X29142850Y4500813D01*
X29147777Y4504467D01*
X29153038Y4507620D01*
X29158582Y4510242D01*
X29164357Y4512309D01*
X29170307Y4513799D01*
X29176374Y4514699D01*
X29182500Y4515000D01*
X29882500Y4515000D01*
X29888626Y4514699D01*
X29888626Y4514699D01*
G37*
D24*
X29532500Y4390000D03*
D11*
G36*
X29888626Y5014699D02*
X29894693Y5013799D01*
X29900643Y5012309D01*
X29906418Y5010242D01*
X29911962Y5007620D01*
X29917223Y5004467D01*
X29922150Y5000813D01*
X29926694Y4996694D01*
X29930813Y4992150D01*
X29934467Y4987223D01*
X29937620Y4981962D01*
X29940242Y4976418D01*
X29942309Y4970643D01*
X29943799Y4964693D01*
X29944699Y4958626D01*
X29945000Y4952500D01*
X29945000Y4827500D01*
X29944699Y4821374D01*
X29943799Y4815307D01*
X29942309Y4809357D01*
X29940242Y4803582D01*
X29937620Y4798038D01*
X29934467Y4792777D01*
X29930813Y4787850D01*
X29926694Y4783306D01*
X29922150Y4779187D01*
X29917223Y4775533D01*
X29911962Y4772380D01*
X29906418Y4769758D01*
X29900643Y4767691D01*
X29894693Y4766201D01*
X29888626Y4765301D01*
X29882500Y4765000D01*
X29182500Y4765000D01*
X29176374Y4765301D01*
X29170307Y4766201D01*
X29164357Y4767691D01*
X29158582Y4769758D01*
X29153038Y4772380D01*
X29147777Y4775533D01*
X29142850Y4779187D01*
X29138306Y4783306D01*
X29134187Y4787850D01*
X29130533Y4792777D01*
X29127380Y4798038D01*
X29124758Y4803582D01*
X29122691Y4809357D01*
X29121201Y4815307D01*
X29120301Y4821374D01*
X29120000Y4827500D01*
X29120000Y4952500D01*
X29120301Y4958626D01*
X29121201Y4964693D01*
X29122691Y4970643D01*
X29124758Y4976418D01*
X29127380Y4981962D01*
X29130533Y4987223D01*
X29134187Y4992150D01*
X29138306Y4996694D01*
X29142850Y5000813D01*
X29147777Y5004467D01*
X29153038Y5007620D01*
X29158582Y5010242D01*
X29164357Y5012309D01*
X29170307Y5013799D01*
X29176374Y5014699D01*
X29182500Y5015000D01*
X29882500Y5015000D01*
X29888626Y5014699D01*
X29888626Y5014699D01*
G37*
D24*
X29532500Y4890000D03*
D11*
G36*
X30288626Y5989699D02*
X30294693Y5988799D01*
X30300643Y5987309D01*
X30306418Y5985242D01*
X30311962Y5982620D01*
X30317223Y5979467D01*
X30322150Y5975813D01*
X30326694Y5971694D01*
X30330813Y5967150D01*
X30334467Y5962223D01*
X30337620Y5956962D01*
X30340242Y5951418D01*
X30342309Y5945643D01*
X30343799Y5939693D01*
X30344699Y5933626D01*
X30345000Y5927500D01*
X30345000Y5227500D01*
X30344699Y5221374D01*
X30343799Y5215307D01*
X30342309Y5209357D01*
X30340242Y5203582D01*
X30337620Y5198038D01*
X30334467Y5192777D01*
X30330813Y5187850D01*
X30326694Y5183306D01*
X30322150Y5179187D01*
X30317223Y5175533D01*
X30311962Y5172380D01*
X30306418Y5169758D01*
X30300643Y5167691D01*
X30294693Y5166201D01*
X30288626Y5165301D01*
X30282500Y5165000D01*
X30157500Y5165000D01*
X30151374Y5165301D01*
X30145307Y5166201D01*
X30139357Y5167691D01*
X30133582Y5169758D01*
X30128038Y5172380D01*
X30122777Y5175533D01*
X30117850Y5179187D01*
X30113306Y5183306D01*
X30109187Y5187850D01*
X30105533Y5192777D01*
X30102380Y5198038D01*
X30099758Y5203582D01*
X30097691Y5209357D01*
X30096201Y5215307D01*
X30095301Y5221374D01*
X30095000Y5227500D01*
X30095000Y5927500D01*
X30095301Y5933626D01*
X30096201Y5939693D01*
X30097691Y5945643D01*
X30099758Y5951418D01*
X30102380Y5956962D01*
X30105533Y5962223D01*
X30109187Y5967150D01*
X30113306Y5971694D01*
X30117850Y5975813D01*
X30122777Y5979467D01*
X30128038Y5982620D01*
X30133582Y5985242D01*
X30139357Y5987309D01*
X30145307Y5988799D01*
X30151374Y5989699D01*
X30157500Y5990000D01*
X30282500Y5990000D01*
X30288626Y5989699D01*
X30288626Y5989699D01*
G37*
D24*
X30220000Y5577500D03*
D11*
G36*
X30788626Y5989699D02*
X30794693Y5988799D01*
X30800643Y5987309D01*
X30806418Y5985242D01*
X30811962Y5982620D01*
X30817223Y5979467D01*
X30822150Y5975813D01*
X30826694Y5971694D01*
X30830813Y5967150D01*
X30834467Y5962223D01*
X30837620Y5956962D01*
X30840242Y5951418D01*
X30842309Y5945643D01*
X30843799Y5939693D01*
X30844699Y5933626D01*
X30845000Y5927500D01*
X30845000Y5227500D01*
X30844699Y5221374D01*
X30843799Y5215307D01*
X30842309Y5209357D01*
X30840242Y5203582D01*
X30837620Y5198038D01*
X30834467Y5192777D01*
X30830813Y5187850D01*
X30826694Y5183306D01*
X30822150Y5179187D01*
X30817223Y5175533D01*
X30811962Y5172380D01*
X30806418Y5169758D01*
X30800643Y5167691D01*
X30794693Y5166201D01*
X30788626Y5165301D01*
X30782500Y5165000D01*
X30657500Y5165000D01*
X30651374Y5165301D01*
X30645307Y5166201D01*
X30639357Y5167691D01*
X30633582Y5169758D01*
X30628038Y5172380D01*
X30622777Y5175533D01*
X30617850Y5179187D01*
X30613306Y5183306D01*
X30609187Y5187850D01*
X30605533Y5192777D01*
X30602380Y5198038D01*
X30599758Y5203582D01*
X30597691Y5209357D01*
X30596201Y5215307D01*
X30595301Y5221374D01*
X30595000Y5227500D01*
X30595000Y5927500D01*
X30595301Y5933626D01*
X30596201Y5939693D01*
X30597691Y5945643D01*
X30599758Y5951418D01*
X30602380Y5956962D01*
X30605533Y5962223D01*
X30609187Y5967150D01*
X30613306Y5971694D01*
X30617850Y5975813D01*
X30622777Y5979467D01*
X30628038Y5982620D01*
X30633582Y5985242D01*
X30639357Y5987309D01*
X30645307Y5988799D01*
X30651374Y5989699D01*
X30657500Y5990000D01*
X30782500Y5990000D01*
X30788626Y5989699D01*
X30788626Y5989699D01*
G37*
D24*
X30720000Y5577500D03*
D11*
G36*
X31288626Y5989699D02*
X31294693Y5988799D01*
X31300643Y5987309D01*
X31306418Y5985242D01*
X31311962Y5982620D01*
X31317223Y5979467D01*
X31322150Y5975813D01*
X31326694Y5971694D01*
X31330813Y5967150D01*
X31334467Y5962223D01*
X31337620Y5956962D01*
X31340242Y5951418D01*
X31342309Y5945643D01*
X31343799Y5939693D01*
X31344699Y5933626D01*
X31345000Y5927500D01*
X31345000Y5227500D01*
X31344699Y5221374D01*
X31343799Y5215307D01*
X31342309Y5209357D01*
X31340242Y5203582D01*
X31337620Y5198038D01*
X31334467Y5192777D01*
X31330813Y5187850D01*
X31326694Y5183306D01*
X31322150Y5179187D01*
X31317223Y5175533D01*
X31311962Y5172380D01*
X31306418Y5169758D01*
X31300643Y5167691D01*
X31294693Y5166201D01*
X31288626Y5165301D01*
X31282500Y5165000D01*
X31157500Y5165000D01*
X31151374Y5165301D01*
X31145307Y5166201D01*
X31139357Y5167691D01*
X31133582Y5169758D01*
X31128038Y5172380D01*
X31122777Y5175533D01*
X31117850Y5179187D01*
X31113306Y5183306D01*
X31109187Y5187850D01*
X31105533Y5192777D01*
X31102380Y5198038D01*
X31099758Y5203582D01*
X31097691Y5209357D01*
X31096201Y5215307D01*
X31095301Y5221374D01*
X31095000Y5227500D01*
X31095000Y5927500D01*
X31095301Y5933626D01*
X31096201Y5939693D01*
X31097691Y5945643D01*
X31099758Y5951418D01*
X31102380Y5956962D01*
X31105533Y5962223D01*
X31109187Y5967150D01*
X31113306Y5971694D01*
X31117850Y5975813D01*
X31122777Y5979467D01*
X31128038Y5982620D01*
X31133582Y5985242D01*
X31139357Y5987309D01*
X31145307Y5988799D01*
X31151374Y5989699D01*
X31157500Y5990000D01*
X31282500Y5990000D01*
X31288626Y5989699D01*
X31288626Y5989699D01*
G37*
D24*
X31220000Y5577500D03*
D11*
G36*
X31788626Y5989699D02*
X31794693Y5988799D01*
X31800643Y5987309D01*
X31806418Y5985242D01*
X31811962Y5982620D01*
X31817223Y5979467D01*
X31822150Y5975813D01*
X31826694Y5971694D01*
X31830813Y5967150D01*
X31834467Y5962223D01*
X31837620Y5956962D01*
X31840242Y5951418D01*
X31842309Y5945643D01*
X31843799Y5939693D01*
X31844699Y5933626D01*
X31845000Y5927500D01*
X31845000Y5227500D01*
X31844699Y5221374D01*
X31843799Y5215307D01*
X31842309Y5209357D01*
X31840242Y5203582D01*
X31837620Y5198038D01*
X31834467Y5192777D01*
X31830813Y5187850D01*
X31826694Y5183306D01*
X31822150Y5179187D01*
X31817223Y5175533D01*
X31811962Y5172380D01*
X31806418Y5169758D01*
X31800643Y5167691D01*
X31794693Y5166201D01*
X31788626Y5165301D01*
X31782500Y5165000D01*
X31657500Y5165000D01*
X31651374Y5165301D01*
X31645307Y5166201D01*
X31639357Y5167691D01*
X31633582Y5169758D01*
X31628038Y5172380D01*
X31622777Y5175533D01*
X31617850Y5179187D01*
X31613306Y5183306D01*
X31609187Y5187850D01*
X31605533Y5192777D01*
X31602380Y5198038D01*
X31599758Y5203582D01*
X31597691Y5209357D01*
X31596201Y5215307D01*
X31595301Y5221374D01*
X31595000Y5227500D01*
X31595000Y5927500D01*
X31595301Y5933626D01*
X31596201Y5939693D01*
X31597691Y5945643D01*
X31599758Y5951418D01*
X31602380Y5956962D01*
X31605533Y5962223D01*
X31609187Y5967150D01*
X31613306Y5971694D01*
X31617850Y5975813D01*
X31622777Y5979467D01*
X31628038Y5982620D01*
X31633582Y5985242D01*
X31639357Y5987309D01*
X31645307Y5988799D01*
X31651374Y5989699D01*
X31657500Y5990000D01*
X31782500Y5990000D01*
X31788626Y5989699D01*
X31788626Y5989699D01*
G37*
D24*
X31720000Y5577500D03*
D11*
G36*
X32288626Y5989699D02*
X32294693Y5988799D01*
X32300643Y5987309D01*
X32306418Y5985242D01*
X32311962Y5982620D01*
X32317223Y5979467D01*
X32322150Y5975813D01*
X32326694Y5971694D01*
X32330813Y5967150D01*
X32334467Y5962223D01*
X32337620Y5956962D01*
X32340242Y5951418D01*
X32342309Y5945643D01*
X32343799Y5939693D01*
X32344699Y5933626D01*
X32345000Y5927500D01*
X32345000Y5227500D01*
X32344699Y5221374D01*
X32343799Y5215307D01*
X32342309Y5209357D01*
X32340242Y5203582D01*
X32337620Y5198038D01*
X32334467Y5192777D01*
X32330813Y5187850D01*
X32326694Y5183306D01*
X32322150Y5179187D01*
X32317223Y5175533D01*
X32311962Y5172380D01*
X32306418Y5169758D01*
X32300643Y5167691D01*
X32294693Y5166201D01*
X32288626Y5165301D01*
X32282500Y5165000D01*
X32157500Y5165000D01*
X32151374Y5165301D01*
X32145307Y5166201D01*
X32139357Y5167691D01*
X32133582Y5169758D01*
X32128038Y5172380D01*
X32122777Y5175533D01*
X32117850Y5179187D01*
X32113306Y5183306D01*
X32109187Y5187850D01*
X32105533Y5192777D01*
X32102380Y5198038D01*
X32099758Y5203582D01*
X32097691Y5209357D01*
X32096201Y5215307D01*
X32095301Y5221374D01*
X32095000Y5227500D01*
X32095000Y5927500D01*
X32095301Y5933626D01*
X32096201Y5939693D01*
X32097691Y5945643D01*
X32099758Y5951418D01*
X32102380Y5956962D01*
X32105533Y5962223D01*
X32109187Y5967150D01*
X32113306Y5971694D01*
X32117850Y5975813D01*
X32122777Y5979467D01*
X32128038Y5982620D01*
X32133582Y5985242D01*
X32139357Y5987309D01*
X32145307Y5988799D01*
X32151374Y5989699D01*
X32157500Y5990000D01*
X32282500Y5990000D01*
X32288626Y5989699D01*
X32288626Y5989699D01*
G37*
D24*
X32220000Y5577500D03*
D11*
G36*
X32788626Y5989699D02*
X32794693Y5988799D01*
X32800643Y5987309D01*
X32806418Y5985242D01*
X32811962Y5982620D01*
X32817223Y5979467D01*
X32822150Y5975813D01*
X32826694Y5971694D01*
X32830813Y5967150D01*
X32834467Y5962223D01*
X32837620Y5956962D01*
X32840242Y5951418D01*
X32842309Y5945643D01*
X32843799Y5939693D01*
X32844699Y5933626D01*
X32845000Y5927500D01*
X32845000Y5227500D01*
X32844699Y5221374D01*
X32843799Y5215307D01*
X32842309Y5209357D01*
X32840242Y5203582D01*
X32837620Y5198038D01*
X32834467Y5192777D01*
X32830813Y5187850D01*
X32826694Y5183306D01*
X32822150Y5179187D01*
X32817223Y5175533D01*
X32811962Y5172380D01*
X32806418Y5169758D01*
X32800643Y5167691D01*
X32794693Y5166201D01*
X32788626Y5165301D01*
X32782500Y5165000D01*
X32657500Y5165000D01*
X32651374Y5165301D01*
X32645307Y5166201D01*
X32639357Y5167691D01*
X32633582Y5169758D01*
X32628038Y5172380D01*
X32622777Y5175533D01*
X32617850Y5179187D01*
X32613306Y5183306D01*
X32609187Y5187850D01*
X32605533Y5192777D01*
X32602380Y5198038D01*
X32599758Y5203582D01*
X32597691Y5209357D01*
X32596201Y5215307D01*
X32595301Y5221374D01*
X32595000Y5227500D01*
X32595000Y5927500D01*
X32595301Y5933626D01*
X32596201Y5939693D01*
X32597691Y5945643D01*
X32599758Y5951418D01*
X32602380Y5956962D01*
X32605533Y5962223D01*
X32609187Y5967150D01*
X32613306Y5971694D01*
X32617850Y5975813D01*
X32622777Y5979467D01*
X32628038Y5982620D01*
X32633582Y5985242D01*
X32639357Y5987309D01*
X32645307Y5988799D01*
X32651374Y5989699D01*
X32657500Y5990000D01*
X32782500Y5990000D01*
X32788626Y5989699D01*
X32788626Y5989699D01*
G37*
D24*
X32720000Y5577500D03*
D11*
G36*
X31119505Y3513796D02*
X31143773Y3510196D01*
X31167572Y3504235D01*
X31190671Y3495970D01*
X31212850Y3485480D01*
X31233893Y3472868D01*
X31253599Y3458253D01*
X31271777Y3441777D01*
X31288253Y3423599D01*
X31302868Y3403893D01*
X31315480Y3382850D01*
X31325970Y3360671D01*
X31334235Y3337572D01*
X31340196Y3313773D01*
X31343796Y3289505D01*
X31345000Y3265001D01*
X31345000Y2714999D01*
X31343796Y2690495D01*
X31340196Y2666227D01*
X31334235Y2642428D01*
X31325970Y2619329D01*
X31315480Y2597150D01*
X31302868Y2576107D01*
X31288253Y2556401D01*
X31271777Y2538223D01*
X31253599Y2521747D01*
X31233893Y2507132D01*
X31212850Y2494520D01*
X31190671Y2484030D01*
X31167572Y2475765D01*
X31143773Y2469804D01*
X31119505Y2466204D01*
X31095001Y2465000D01*
X30544999Y2465000D01*
X30520495Y2466204D01*
X30496227Y2469804D01*
X30472428Y2475765D01*
X30449329Y2484030D01*
X30427150Y2494520D01*
X30406107Y2507132D01*
X30386401Y2521747D01*
X30368223Y2538223D01*
X30351747Y2556401D01*
X30337132Y2576107D01*
X30324520Y2597150D01*
X30314030Y2619329D01*
X30305765Y2642428D01*
X30299804Y2666227D01*
X30296204Y2690495D01*
X30295000Y2714999D01*
X30295000Y3265001D01*
X30296204Y3289505D01*
X30299804Y3313773D01*
X30305765Y3337572D01*
X30314030Y3360671D01*
X30324520Y3382850D01*
X30337132Y3403893D01*
X30351747Y3423599D01*
X30368223Y3441777D01*
X30386401Y3458253D01*
X30406107Y3472868D01*
X30427150Y3485480D01*
X30449329Y3495970D01*
X30472428Y3504235D01*
X30496227Y3510196D01*
X30520495Y3513796D01*
X30544999Y3515000D01*
X31095001Y3515000D01*
X31119505Y3513796D01*
X31119505Y3513796D01*
G37*
D25*
X30820000Y2990000D03*
D11*
G36*
X32419505Y3513796D02*
X32443773Y3510196D01*
X32467572Y3504235D01*
X32490671Y3495970D01*
X32512850Y3485480D01*
X32533893Y3472868D01*
X32553599Y3458253D01*
X32571777Y3441777D01*
X32588253Y3423599D01*
X32602868Y3403893D01*
X32615480Y3382850D01*
X32625970Y3360671D01*
X32634235Y3337572D01*
X32640196Y3313773D01*
X32643796Y3289505D01*
X32645000Y3265001D01*
X32645000Y2714999D01*
X32643796Y2690495D01*
X32640196Y2666227D01*
X32634235Y2642428D01*
X32625970Y2619329D01*
X32615480Y2597150D01*
X32602868Y2576107D01*
X32588253Y2556401D01*
X32571777Y2538223D01*
X32553599Y2521747D01*
X32533893Y2507132D01*
X32512850Y2494520D01*
X32490671Y2484030D01*
X32467572Y2475765D01*
X32443773Y2469804D01*
X32419505Y2466204D01*
X32395001Y2465000D01*
X31844999Y2465000D01*
X31820495Y2466204D01*
X31796227Y2469804D01*
X31772428Y2475765D01*
X31749329Y2484030D01*
X31727150Y2494520D01*
X31706107Y2507132D01*
X31686401Y2521747D01*
X31668223Y2538223D01*
X31651747Y2556401D01*
X31637132Y2576107D01*
X31624520Y2597150D01*
X31614030Y2619329D01*
X31605765Y2642428D01*
X31599804Y2666227D01*
X31596204Y2690495D01*
X31595000Y2714999D01*
X31595000Y3265001D01*
X31596204Y3289505D01*
X31599804Y3313773D01*
X31605765Y3337572D01*
X31614030Y3360671D01*
X31624520Y3382850D01*
X31637132Y3403893D01*
X31651747Y3423599D01*
X31668223Y3441777D01*
X31686401Y3458253D01*
X31706107Y3472868D01*
X31727150Y3485480D01*
X31749329Y3495970D01*
X31772428Y3504235D01*
X31796227Y3510196D01*
X31820495Y3513796D01*
X31844999Y3515000D01*
X32395001Y3515000D01*
X32419505Y3513796D01*
X32419505Y3513796D01*
G37*
D25*
X32120000Y2990000D03*
D11*
G36*
X31119505Y4813796D02*
X31143773Y4810196D01*
X31167572Y4804235D01*
X31190671Y4795970D01*
X31212850Y4785480D01*
X31233893Y4772868D01*
X31253599Y4758253D01*
X31271777Y4741777D01*
X31288253Y4723599D01*
X31302868Y4703893D01*
X31315480Y4682850D01*
X31325970Y4660671D01*
X31334235Y4637572D01*
X31340196Y4613773D01*
X31343796Y4589505D01*
X31345000Y4565001D01*
X31345000Y4014999D01*
X31343796Y3990495D01*
X31340196Y3966227D01*
X31334235Y3942428D01*
X31325970Y3919329D01*
X31315480Y3897150D01*
X31302868Y3876107D01*
X31288253Y3856401D01*
X31271777Y3838223D01*
X31253599Y3821747D01*
X31233893Y3807132D01*
X31212850Y3794520D01*
X31190671Y3784030D01*
X31167572Y3775765D01*
X31143773Y3769804D01*
X31119505Y3766204D01*
X31095001Y3765000D01*
X30544999Y3765000D01*
X30520495Y3766204D01*
X30496227Y3769804D01*
X30472428Y3775765D01*
X30449329Y3784030D01*
X30427150Y3794520D01*
X30406107Y3807132D01*
X30386401Y3821747D01*
X30368223Y3838223D01*
X30351747Y3856401D01*
X30337132Y3876107D01*
X30324520Y3897150D01*
X30314030Y3919329D01*
X30305765Y3942428D01*
X30299804Y3966227D01*
X30296204Y3990495D01*
X30295000Y4014999D01*
X30295000Y4565001D01*
X30296204Y4589505D01*
X30299804Y4613773D01*
X30305765Y4637572D01*
X30314030Y4660671D01*
X30324520Y4682850D01*
X30337132Y4703893D01*
X30351747Y4723599D01*
X30368223Y4741777D01*
X30386401Y4758253D01*
X30406107Y4772868D01*
X30427150Y4785480D01*
X30449329Y4795970D01*
X30472428Y4804235D01*
X30496227Y4810196D01*
X30520495Y4813796D01*
X30544999Y4815000D01*
X31095001Y4815000D01*
X31119505Y4813796D01*
X31119505Y4813796D01*
G37*
D25*
X30820000Y4290000D03*
D11*
G36*
X32419505Y4813796D02*
X32443773Y4810196D01*
X32467572Y4804235D01*
X32490671Y4795970D01*
X32512850Y4785480D01*
X32533893Y4772868D01*
X32553599Y4758253D01*
X32571777Y4741777D01*
X32588253Y4723599D01*
X32602868Y4703893D01*
X32615480Y4682850D01*
X32625970Y4660671D01*
X32634235Y4637572D01*
X32640196Y4613773D01*
X32643796Y4589505D01*
X32645000Y4565001D01*
X32645000Y4014999D01*
X32643796Y3990495D01*
X32640196Y3966227D01*
X32634235Y3942428D01*
X32625970Y3919329D01*
X32615480Y3897150D01*
X32602868Y3876107D01*
X32588253Y3856401D01*
X32571777Y3838223D01*
X32553599Y3821747D01*
X32533893Y3807132D01*
X32512850Y3794520D01*
X32490671Y3784030D01*
X32467572Y3775765D01*
X32443773Y3769804D01*
X32419505Y3766204D01*
X32395001Y3765000D01*
X31844999Y3765000D01*
X31820495Y3766204D01*
X31796227Y3769804D01*
X31772428Y3775765D01*
X31749329Y3784030D01*
X31727150Y3794520D01*
X31706107Y3807132D01*
X31686401Y3821747D01*
X31668223Y3838223D01*
X31651747Y3856401D01*
X31637132Y3876107D01*
X31624520Y3897150D01*
X31614030Y3919329D01*
X31605765Y3942428D01*
X31599804Y3966227D01*
X31596204Y3990495D01*
X31595000Y4014999D01*
X31595000Y4565001D01*
X31596204Y4589505D01*
X31599804Y4613773D01*
X31605765Y4637572D01*
X31614030Y4660671D01*
X31624520Y4682850D01*
X31637132Y4703893D01*
X31651747Y4723599D01*
X31668223Y4741777D01*
X31686401Y4758253D01*
X31706107Y4772868D01*
X31727150Y4785480D01*
X31749329Y4795970D01*
X31772428Y4804235D01*
X31796227Y4810196D01*
X31820495Y4813796D01*
X31844999Y4815000D01*
X32395001Y4815000D01*
X32419505Y4813796D01*
X32419505Y4813796D01*
G37*
D25*
X32120000Y4290000D03*
G04 #@! TD*
D26*
G04 #@! TO.C,X1*
X19050000Y5700000D03*
X19050000Y4300000D03*
X17950000Y4300000D03*
X17950000Y5700000D03*
G04 #@! TD*
D11*
G04 #@! TO.C,C19*
G36*
X16686958Y2279290D02*
X16701276Y2277166D01*
X16715317Y2273649D01*
X16728946Y2268772D01*
X16742031Y2262583D01*
X16754447Y2255142D01*
X16766073Y2246519D01*
X16776798Y2236798D01*
X16786519Y2226073D01*
X16795142Y2214447D01*
X16802583Y2202031D01*
X16808772Y2188946D01*
X16813649Y2175317D01*
X16817166Y2161276D01*
X16819290Y2146958D01*
X16820000Y2132500D01*
X16820000Y1837500D01*
X16819290Y1823042D01*
X16817166Y1808724D01*
X16813649Y1794683D01*
X16808772Y1781054D01*
X16802583Y1767969D01*
X16795142Y1755553D01*
X16786519Y1743927D01*
X16776798Y1733202D01*
X16766073Y1723481D01*
X16754447Y1714858D01*
X16742031Y1707417D01*
X16728946Y1701228D01*
X16715317Y1696351D01*
X16701276Y1692834D01*
X16686958Y1690710D01*
X16672500Y1690000D01*
X16327500Y1690000D01*
X16313042Y1690710D01*
X16298724Y1692834D01*
X16284683Y1696351D01*
X16271054Y1701228D01*
X16257969Y1707417D01*
X16245553Y1714858D01*
X16233927Y1723481D01*
X16223202Y1733202D01*
X16213481Y1743927D01*
X16204858Y1755553D01*
X16197417Y1767969D01*
X16191228Y1781054D01*
X16186351Y1794683D01*
X16182834Y1808724D01*
X16180710Y1823042D01*
X16180000Y1837500D01*
X16180000Y2132500D01*
X16180710Y2146958D01*
X16182834Y2161276D01*
X16186351Y2175317D01*
X16191228Y2188946D01*
X16197417Y2202031D01*
X16204858Y2214447D01*
X16213481Y2226073D01*
X16223202Y2236798D01*
X16233927Y2246519D01*
X16245553Y2255142D01*
X16257969Y2262583D01*
X16271054Y2268772D01*
X16284683Y2273649D01*
X16298724Y2277166D01*
X16313042Y2279290D01*
X16327500Y2280000D01*
X16672500Y2280000D01*
X16686958Y2279290D01*
X16686958Y2279290D01*
G37*
D22*
X16500000Y1985000D03*
D11*
G36*
X16686958Y1309290D02*
X16701276Y1307166D01*
X16715317Y1303649D01*
X16728946Y1298772D01*
X16742031Y1292583D01*
X16754447Y1285142D01*
X16766073Y1276519D01*
X16776798Y1266798D01*
X16786519Y1256073D01*
X16795142Y1244447D01*
X16802583Y1232031D01*
X16808772Y1218946D01*
X16813649Y1205317D01*
X16817166Y1191276D01*
X16819290Y1176958D01*
X16820000Y1162500D01*
X16820000Y867500D01*
X16819290Y853042D01*
X16817166Y838724D01*
X16813649Y824683D01*
X16808772Y811054D01*
X16802583Y797969D01*
X16795142Y785553D01*
X16786519Y773927D01*
X16776798Y763202D01*
X16766073Y753481D01*
X16754447Y744858D01*
X16742031Y737417D01*
X16728946Y731228D01*
X16715317Y726351D01*
X16701276Y722834D01*
X16686958Y720710D01*
X16672500Y720000D01*
X16327500Y720000D01*
X16313042Y720710D01*
X16298724Y722834D01*
X16284683Y726351D01*
X16271054Y731228D01*
X16257969Y737417D01*
X16245553Y744858D01*
X16233927Y753481D01*
X16223202Y763202D01*
X16213481Y773927D01*
X16204858Y785553D01*
X16197417Y797969D01*
X16191228Y811054D01*
X16186351Y824683D01*
X16182834Y838724D01*
X16180710Y853042D01*
X16180000Y867500D01*
X16180000Y1162500D01*
X16180710Y1176958D01*
X16182834Y1191276D01*
X16186351Y1205317D01*
X16191228Y1218946D01*
X16197417Y1232031D01*
X16204858Y1244447D01*
X16213481Y1256073D01*
X16223202Y1266798D01*
X16233927Y1276519D01*
X16245553Y1285142D01*
X16257969Y1292583D01*
X16271054Y1298772D01*
X16284683Y1303649D01*
X16298724Y1307166D01*
X16313042Y1309290D01*
X16327500Y1310000D01*
X16672500Y1310000D01*
X16686958Y1309290D01*
X16686958Y1309290D01*
G37*
D22*
X16500000Y1015000D03*
G04 #@! TD*
D11*
G04 #@! TO.C,C20*
G36*
X13586958Y1309290D02*
X13601276Y1307166D01*
X13615317Y1303649D01*
X13628946Y1298772D01*
X13642031Y1292583D01*
X13654447Y1285142D01*
X13666073Y1276519D01*
X13676798Y1266798D01*
X13686519Y1256073D01*
X13695142Y1244447D01*
X13702583Y1232031D01*
X13708772Y1218946D01*
X13713649Y1205317D01*
X13717166Y1191276D01*
X13719290Y1176958D01*
X13720000Y1162500D01*
X13720000Y867500D01*
X13719290Y853042D01*
X13717166Y838724D01*
X13713649Y824683D01*
X13708772Y811054D01*
X13702583Y797969D01*
X13695142Y785553D01*
X13686519Y773927D01*
X13676798Y763202D01*
X13666073Y753481D01*
X13654447Y744858D01*
X13642031Y737417D01*
X13628946Y731228D01*
X13615317Y726351D01*
X13601276Y722834D01*
X13586958Y720710D01*
X13572500Y720000D01*
X13227500Y720000D01*
X13213042Y720710D01*
X13198724Y722834D01*
X13184683Y726351D01*
X13171054Y731228D01*
X13157969Y737417D01*
X13145553Y744858D01*
X13133927Y753481D01*
X13123202Y763202D01*
X13113481Y773927D01*
X13104858Y785553D01*
X13097417Y797969D01*
X13091228Y811054D01*
X13086351Y824683D01*
X13082834Y838724D01*
X13080710Y853042D01*
X13080000Y867500D01*
X13080000Y1162500D01*
X13080710Y1176958D01*
X13082834Y1191276D01*
X13086351Y1205317D01*
X13091228Y1218946D01*
X13097417Y1232031D01*
X13104858Y1244447D01*
X13113481Y1256073D01*
X13123202Y1266798D01*
X13133927Y1276519D01*
X13145553Y1285142D01*
X13157969Y1292583D01*
X13171054Y1298772D01*
X13184683Y1303649D01*
X13198724Y1307166D01*
X13213042Y1309290D01*
X13227500Y1310000D01*
X13572500Y1310000D01*
X13586958Y1309290D01*
X13586958Y1309290D01*
G37*
D22*
X13400000Y1015000D03*
D11*
G36*
X13586958Y2279290D02*
X13601276Y2277166D01*
X13615317Y2273649D01*
X13628946Y2268772D01*
X13642031Y2262583D01*
X13654447Y2255142D01*
X13666073Y2246519D01*
X13676798Y2236798D01*
X13686519Y2226073D01*
X13695142Y2214447D01*
X13702583Y2202031D01*
X13708772Y2188946D01*
X13713649Y2175317D01*
X13717166Y2161276D01*
X13719290Y2146958D01*
X13720000Y2132500D01*
X13720000Y1837500D01*
X13719290Y1823042D01*
X13717166Y1808724D01*
X13713649Y1794683D01*
X13708772Y1781054D01*
X13702583Y1767969D01*
X13695142Y1755553D01*
X13686519Y1743927D01*
X13676798Y1733202D01*
X13666073Y1723481D01*
X13654447Y1714858D01*
X13642031Y1707417D01*
X13628946Y1701228D01*
X13615317Y1696351D01*
X13601276Y1692834D01*
X13586958Y1690710D01*
X13572500Y1690000D01*
X13227500Y1690000D01*
X13213042Y1690710D01*
X13198724Y1692834D01*
X13184683Y1696351D01*
X13171054Y1701228D01*
X13157969Y1707417D01*
X13145553Y1714858D01*
X13133927Y1723481D01*
X13123202Y1733202D01*
X13113481Y1743927D01*
X13104858Y1755553D01*
X13097417Y1767969D01*
X13091228Y1781054D01*
X13086351Y1794683D01*
X13082834Y1808724D01*
X13080710Y1823042D01*
X13080000Y1837500D01*
X13080000Y2132500D01*
X13080710Y2146958D01*
X13082834Y2161276D01*
X13086351Y2175317D01*
X13091228Y2188946D01*
X13097417Y2202031D01*
X13104858Y2214447D01*
X13113481Y2226073D01*
X13123202Y2236798D01*
X13133927Y2246519D01*
X13145553Y2255142D01*
X13157969Y2262583D01*
X13171054Y2268772D01*
X13184683Y2273649D01*
X13198724Y2277166D01*
X13213042Y2279290D01*
X13227500Y2280000D01*
X13572500Y2280000D01*
X13586958Y2279290D01*
X13586958Y2279290D01*
G37*
D22*
X13400000Y1985000D03*
G04 #@! TD*
D11*
G04 #@! TO.C,L1*
G36*
X15646958Y1329290D02*
X15661276Y1327166D01*
X15675317Y1323649D01*
X15688946Y1318772D01*
X15702031Y1312583D01*
X15714447Y1305142D01*
X15726073Y1296519D01*
X15736798Y1286798D01*
X15746519Y1276073D01*
X15755142Y1264447D01*
X15762583Y1252031D01*
X15768772Y1238946D01*
X15773649Y1225317D01*
X15777166Y1211276D01*
X15779290Y1196958D01*
X15780000Y1182500D01*
X15780000Y837500D01*
X15779290Y823042D01*
X15777166Y808724D01*
X15773649Y794683D01*
X15768772Y781054D01*
X15762583Y767969D01*
X15755142Y755553D01*
X15746519Y743927D01*
X15736798Y733202D01*
X15726073Y723481D01*
X15714447Y714858D01*
X15702031Y707417D01*
X15688946Y701228D01*
X15675317Y696351D01*
X15661276Y692834D01*
X15646958Y690710D01*
X15632500Y690000D01*
X15337500Y690000D01*
X15323042Y690710D01*
X15308724Y692834D01*
X15294683Y696351D01*
X15281054Y701228D01*
X15267969Y707417D01*
X15255553Y714858D01*
X15243927Y723481D01*
X15233202Y733202D01*
X15223481Y743927D01*
X15214858Y755553D01*
X15207417Y767969D01*
X15201228Y781054D01*
X15196351Y794683D01*
X15192834Y808724D01*
X15190710Y823042D01*
X15190000Y837500D01*
X15190000Y1182500D01*
X15190710Y1196958D01*
X15192834Y1211276D01*
X15196351Y1225317D01*
X15201228Y1238946D01*
X15207417Y1252031D01*
X15214858Y1264447D01*
X15223481Y1276073D01*
X15233202Y1286798D01*
X15243927Y1296519D01*
X15255553Y1305142D01*
X15267969Y1312583D01*
X15281054Y1318772D01*
X15294683Y1323649D01*
X15308724Y1327166D01*
X15323042Y1329290D01*
X15337500Y1330000D01*
X15632500Y1330000D01*
X15646958Y1329290D01*
X15646958Y1329290D01*
G37*
D22*
X15485000Y1010000D03*
D11*
G36*
X14676958Y1329290D02*
X14691276Y1327166D01*
X14705317Y1323649D01*
X14718946Y1318772D01*
X14732031Y1312583D01*
X14744447Y1305142D01*
X14756073Y1296519D01*
X14766798Y1286798D01*
X14776519Y1276073D01*
X14785142Y1264447D01*
X14792583Y1252031D01*
X14798772Y1238946D01*
X14803649Y1225317D01*
X14807166Y1211276D01*
X14809290Y1196958D01*
X14810000Y1182500D01*
X14810000Y837500D01*
X14809290Y823042D01*
X14807166Y808724D01*
X14803649Y794683D01*
X14798772Y781054D01*
X14792583Y767969D01*
X14785142Y755553D01*
X14776519Y743927D01*
X14766798Y733202D01*
X14756073Y723481D01*
X14744447Y714858D01*
X14732031Y707417D01*
X14718946Y701228D01*
X14705317Y696351D01*
X14691276Y692834D01*
X14676958Y690710D01*
X14662500Y690000D01*
X14367500Y690000D01*
X14353042Y690710D01*
X14338724Y692834D01*
X14324683Y696351D01*
X14311054Y701228D01*
X14297969Y707417D01*
X14285553Y714858D01*
X14273927Y723481D01*
X14263202Y733202D01*
X14253481Y743927D01*
X14244858Y755553D01*
X14237417Y767969D01*
X14231228Y781054D01*
X14226351Y794683D01*
X14222834Y808724D01*
X14220710Y823042D01*
X14220000Y837500D01*
X14220000Y1182500D01*
X14220710Y1196958D01*
X14222834Y1211276D01*
X14226351Y1225317D01*
X14231228Y1238946D01*
X14237417Y1252031D01*
X14244858Y1264447D01*
X14253481Y1276073D01*
X14263202Y1286798D01*
X14273927Y1296519D01*
X14285553Y1305142D01*
X14297969Y1312583D01*
X14311054Y1318772D01*
X14324683Y1323649D01*
X14338724Y1327166D01*
X14353042Y1329290D01*
X14367500Y1330000D01*
X14662500Y1330000D01*
X14676958Y1329290D01*
X14676958Y1329290D01*
G37*
D22*
X14515000Y1010000D03*
G04 #@! TD*
D11*
G04 #@! TO.C,R13*
G36*
X27646958Y8719290D02*
X27661276Y8717166D01*
X27675317Y8713649D01*
X27688946Y8708772D01*
X27702031Y8702583D01*
X27714447Y8695142D01*
X27726073Y8686519D01*
X27736798Y8676798D01*
X27746519Y8666073D01*
X27755142Y8654447D01*
X27762583Y8642031D01*
X27768772Y8628946D01*
X27773649Y8615317D01*
X27777166Y8601276D01*
X27779290Y8586958D01*
X27780000Y8572500D01*
X27780000Y8227500D01*
X27779290Y8213042D01*
X27777166Y8198724D01*
X27773649Y8184683D01*
X27768772Y8171054D01*
X27762583Y8157969D01*
X27755142Y8145553D01*
X27746519Y8133927D01*
X27736798Y8123202D01*
X27726073Y8113481D01*
X27714447Y8104858D01*
X27702031Y8097417D01*
X27688946Y8091228D01*
X27675317Y8086351D01*
X27661276Y8082834D01*
X27646958Y8080710D01*
X27632500Y8080000D01*
X27337500Y8080000D01*
X27323042Y8080710D01*
X27308724Y8082834D01*
X27294683Y8086351D01*
X27281054Y8091228D01*
X27267969Y8097417D01*
X27255553Y8104858D01*
X27243927Y8113481D01*
X27233202Y8123202D01*
X27223481Y8133927D01*
X27214858Y8145553D01*
X27207417Y8157969D01*
X27201228Y8171054D01*
X27196351Y8184683D01*
X27192834Y8198724D01*
X27190710Y8213042D01*
X27190000Y8227500D01*
X27190000Y8572500D01*
X27190710Y8586958D01*
X27192834Y8601276D01*
X27196351Y8615317D01*
X27201228Y8628946D01*
X27207417Y8642031D01*
X27214858Y8654447D01*
X27223481Y8666073D01*
X27233202Y8676798D01*
X27243927Y8686519D01*
X27255553Y8695142D01*
X27267969Y8702583D01*
X27281054Y8708772D01*
X27294683Y8713649D01*
X27308724Y8717166D01*
X27323042Y8719290D01*
X27337500Y8720000D01*
X27632500Y8720000D01*
X27646958Y8719290D01*
X27646958Y8719290D01*
G37*
D22*
X27485000Y8400000D03*
D11*
G36*
X26676958Y8719290D02*
X26691276Y8717166D01*
X26705317Y8713649D01*
X26718946Y8708772D01*
X26732031Y8702583D01*
X26744447Y8695142D01*
X26756073Y8686519D01*
X26766798Y8676798D01*
X26776519Y8666073D01*
X26785142Y8654447D01*
X26792583Y8642031D01*
X26798772Y8628946D01*
X26803649Y8615317D01*
X26807166Y8601276D01*
X26809290Y8586958D01*
X26810000Y8572500D01*
X26810000Y8227500D01*
X26809290Y8213042D01*
X26807166Y8198724D01*
X26803649Y8184683D01*
X26798772Y8171054D01*
X26792583Y8157969D01*
X26785142Y8145553D01*
X26776519Y8133927D01*
X26766798Y8123202D01*
X26756073Y8113481D01*
X26744447Y8104858D01*
X26732031Y8097417D01*
X26718946Y8091228D01*
X26705317Y8086351D01*
X26691276Y8082834D01*
X26676958Y8080710D01*
X26662500Y8080000D01*
X26367500Y8080000D01*
X26353042Y8080710D01*
X26338724Y8082834D01*
X26324683Y8086351D01*
X26311054Y8091228D01*
X26297969Y8097417D01*
X26285553Y8104858D01*
X26273927Y8113481D01*
X26263202Y8123202D01*
X26253481Y8133927D01*
X26244858Y8145553D01*
X26237417Y8157969D01*
X26231228Y8171054D01*
X26226351Y8184683D01*
X26222834Y8198724D01*
X26220710Y8213042D01*
X26220000Y8227500D01*
X26220000Y8572500D01*
X26220710Y8586958D01*
X26222834Y8601276D01*
X26226351Y8615317D01*
X26231228Y8628946D01*
X26237417Y8642031D01*
X26244858Y8654447D01*
X26253481Y8666073D01*
X26263202Y8676798D01*
X26273927Y8686519D01*
X26285553Y8695142D01*
X26297969Y8702583D01*
X26311054Y8708772D01*
X26324683Y8713649D01*
X26338724Y8717166D01*
X26353042Y8719290D01*
X26367500Y8720000D01*
X26662500Y8720000D01*
X26676958Y8719290D01*
X26676958Y8719290D01*
G37*
D22*
X26515000Y8400000D03*
G04 #@! TD*
D11*
G04 #@! TO.C,R17*
G36*
X29726958Y11219290D02*
X29741276Y11217166D01*
X29755317Y11213649D01*
X29768946Y11208772D01*
X29782031Y11202583D01*
X29794447Y11195142D01*
X29806073Y11186519D01*
X29816798Y11176798D01*
X29826519Y11166073D01*
X29835142Y11154447D01*
X29842583Y11142031D01*
X29848772Y11128946D01*
X29853649Y11115317D01*
X29857166Y11101276D01*
X29859290Y11086958D01*
X29860000Y11072500D01*
X29860000Y10727500D01*
X29859290Y10713042D01*
X29857166Y10698724D01*
X29853649Y10684683D01*
X29848772Y10671054D01*
X29842583Y10657969D01*
X29835142Y10645553D01*
X29826519Y10633927D01*
X29816798Y10623202D01*
X29806073Y10613481D01*
X29794447Y10604858D01*
X29782031Y10597417D01*
X29768946Y10591228D01*
X29755317Y10586351D01*
X29741276Y10582834D01*
X29726958Y10580710D01*
X29712500Y10580000D01*
X29417500Y10580000D01*
X29403042Y10580710D01*
X29388724Y10582834D01*
X29374683Y10586351D01*
X29361054Y10591228D01*
X29347969Y10597417D01*
X29335553Y10604858D01*
X29323927Y10613481D01*
X29313202Y10623202D01*
X29303481Y10633927D01*
X29294858Y10645553D01*
X29287417Y10657969D01*
X29281228Y10671054D01*
X29276351Y10684683D01*
X29272834Y10698724D01*
X29270710Y10713042D01*
X29270000Y10727500D01*
X29270000Y11072500D01*
X29270710Y11086958D01*
X29272834Y11101276D01*
X29276351Y11115317D01*
X29281228Y11128946D01*
X29287417Y11142031D01*
X29294858Y11154447D01*
X29303481Y11166073D01*
X29313202Y11176798D01*
X29323927Y11186519D01*
X29335553Y11195142D01*
X29347969Y11202583D01*
X29361054Y11208772D01*
X29374683Y11213649D01*
X29388724Y11217166D01*
X29403042Y11219290D01*
X29417500Y11220000D01*
X29712500Y11220000D01*
X29726958Y11219290D01*
X29726958Y11219290D01*
G37*
D22*
X29565000Y10900000D03*
D11*
G36*
X30696958Y11219290D02*
X30711276Y11217166D01*
X30725317Y11213649D01*
X30738946Y11208772D01*
X30752031Y11202583D01*
X30764447Y11195142D01*
X30776073Y11186519D01*
X30786798Y11176798D01*
X30796519Y11166073D01*
X30805142Y11154447D01*
X30812583Y11142031D01*
X30818772Y11128946D01*
X30823649Y11115317D01*
X30827166Y11101276D01*
X30829290Y11086958D01*
X30830000Y11072500D01*
X30830000Y10727500D01*
X30829290Y10713042D01*
X30827166Y10698724D01*
X30823649Y10684683D01*
X30818772Y10671054D01*
X30812583Y10657969D01*
X30805142Y10645553D01*
X30796519Y10633927D01*
X30786798Y10623202D01*
X30776073Y10613481D01*
X30764447Y10604858D01*
X30752031Y10597417D01*
X30738946Y10591228D01*
X30725317Y10586351D01*
X30711276Y10582834D01*
X30696958Y10580710D01*
X30682500Y10580000D01*
X30387500Y10580000D01*
X30373042Y10580710D01*
X30358724Y10582834D01*
X30344683Y10586351D01*
X30331054Y10591228D01*
X30317969Y10597417D01*
X30305553Y10604858D01*
X30293927Y10613481D01*
X30283202Y10623202D01*
X30273481Y10633927D01*
X30264858Y10645553D01*
X30257417Y10657969D01*
X30251228Y10671054D01*
X30246351Y10684683D01*
X30242834Y10698724D01*
X30240710Y10713042D01*
X30240000Y10727500D01*
X30240000Y11072500D01*
X30240710Y11086958D01*
X30242834Y11101276D01*
X30246351Y11115317D01*
X30251228Y11128946D01*
X30257417Y11142031D01*
X30264858Y11154447D01*
X30273481Y11166073D01*
X30283202Y11176798D01*
X30293927Y11186519D01*
X30305553Y11195142D01*
X30317969Y11202583D01*
X30331054Y11208772D01*
X30344683Y11213649D01*
X30358724Y11217166D01*
X30373042Y11219290D01*
X30387500Y11220000D01*
X30682500Y11220000D01*
X30696958Y11219290D01*
X30696958Y11219290D01*
G37*
D22*
X30535000Y10900000D03*
G04 #@! TD*
D11*
G04 #@! TO.C,R18*
G36*
X31601958Y10669290D02*
X31616276Y10667166D01*
X31630317Y10663649D01*
X31643946Y10658772D01*
X31657031Y10652583D01*
X31669447Y10645142D01*
X31681073Y10636519D01*
X31691798Y10626798D01*
X31701519Y10616073D01*
X31710142Y10604447D01*
X31717583Y10592031D01*
X31723772Y10578946D01*
X31728649Y10565317D01*
X31732166Y10551276D01*
X31734290Y10536958D01*
X31735000Y10522500D01*
X31735000Y10177500D01*
X31734290Y10163042D01*
X31732166Y10148724D01*
X31728649Y10134683D01*
X31723772Y10121054D01*
X31717583Y10107969D01*
X31710142Y10095553D01*
X31701519Y10083927D01*
X31691798Y10073202D01*
X31681073Y10063481D01*
X31669447Y10054858D01*
X31657031Y10047417D01*
X31643946Y10041228D01*
X31630317Y10036351D01*
X31616276Y10032834D01*
X31601958Y10030710D01*
X31587500Y10030000D01*
X31292500Y10030000D01*
X31278042Y10030710D01*
X31263724Y10032834D01*
X31249683Y10036351D01*
X31236054Y10041228D01*
X31222969Y10047417D01*
X31210553Y10054858D01*
X31198927Y10063481D01*
X31188202Y10073202D01*
X31178481Y10083927D01*
X31169858Y10095553D01*
X31162417Y10107969D01*
X31156228Y10121054D01*
X31151351Y10134683D01*
X31147834Y10148724D01*
X31145710Y10163042D01*
X31145000Y10177500D01*
X31145000Y10522500D01*
X31145710Y10536958D01*
X31147834Y10551276D01*
X31151351Y10565317D01*
X31156228Y10578946D01*
X31162417Y10592031D01*
X31169858Y10604447D01*
X31178481Y10616073D01*
X31188202Y10626798D01*
X31198927Y10636519D01*
X31210553Y10645142D01*
X31222969Y10652583D01*
X31236054Y10658772D01*
X31249683Y10663649D01*
X31263724Y10667166D01*
X31278042Y10669290D01*
X31292500Y10670000D01*
X31587500Y10670000D01*
X31601958Y10669290D01*
X31601958Y10669290D01*
G37*
D22*
X31440000Y10350000D03*
D11*
G36*
X32571958Y10669290D02*
X32586276Y10667166D01*
X32600317Y10663649D01*
X32613946Y10658772D01*
X32627031Y10652583D01*
X32639447Y10645142D01*
X32651073Y10636519D01*
X32661798Y10626798D01*
X32671519Y10616073D01*
X32680142Y10604447D01*
X32687583Y10592031D01*
X32693772Y10578946D01*
X32698649Y10565317D01*
X32702166Y10551276D01*
X32704290Y10536958D01*
X32705000Y10522500D01*
X32705000Y10177500D01*
X32704290Y10163042D01*
X32702166Y10148724D01*
X32698649Y10134683D01*
X32693772Y10121054D01*
X32687583Y10107969D01*
X32680142Y10095553D01*
X32671519Y10083927D01*
X32661798Y10073202D01*
X32651073Y10063481D01*
X32639447Y10054858D01*
X32627031Y10047417D01*
X32613946Y10041228D01*
X32600317Y10036351D01*
X32586276Y10032834D01*
X32571958Y10030710D01*
X32557500Y10030000D01*
X32262500Y10030000D01*
X32248042Y10030710D01*
X32233724Y10032834D01*
X32219683Y10036351D01*
X32206054Y10041228D01*
X32192969Y10047417D01*
X32180553Y10054858D01*
X32168927Y10063481D01*
X32158202Y10073202D01*
X32148481Y10083927D01*
X32139858Y10095553D01*
X32132417Y10107969D01*
X32126228Y10121054D01*
X32121351Y10134683D01*
X32117834Y10148724D01*
X32115710Y10163042D01*
X32115000Y10177500D01*
X32115000Y10522500D01*
X32115710Y10536958D01*
X32117834Y10551276D01*
X32121351Y10565317D01*
X32126228Y10578946D01*
X32132417Y10592031D01*
X32139858Y10604447D01*
X32148481Y10616073D01*
X32158202Y10626798D01*
X32168927Y10636519D01*
X32180553Y10645142D01*
X32192969Y10652583D01*
X32206054Y10658772D01*
X32219683Y10663649D01*
X32233724Y10667166D01*
X32248042Y10669290D01*
X32262500Y10670000D01*
X32557500Y10670000D01*
X32571958Y10669290D01*
X32571958Y10669290D01*
G37*
D22*
X32410000Y10350000D03*
G04 #@! TD*
D11*
G04 #@! TO.C,R19*
G36*
X21576958Y9519290D02*
X21591276Y9517166D01*
X21605317Y9513649D01*
X21618946Y9508772D01*
X21632031Y9502583D01*
X21644447Y9495142D01*
X21656073Y9486519D01*
X21666798Y9476798D01*
X21676519Y9466073D01*
X21685142Y9454447D01*
X21692583Y9442031D01*
X21698772Y9428946D01*
X21703649Y9415317D01*
X21707166Y9401276D01*
X21709290Y9386958D01*
X21710000Y9372500D01*
X21710000Y9027500D01*
X21709290Y9013042D01*
X21707166Y8998724D01*
X21703649Y8984683D01*
X21698772Y8971054D01*
X21692583Y8957969D01*
X21685142Y8945553D01*
X21676519Y8933927D01*
X21666798Y8923202D01*
X21656073Y8913481D01*
X21644447Y8904858D01*
X21632031Y8897417D01*
X21618946Y8891228D01*
X21605317Y8886351D01*
X21591276Y8882834D01*
X21576958Y8880710D01*
X21562500Y8880000D01*
X21267500Y8880000D01*
X21253042Y8880710D01*
X21238724Y8882834D01*
X21224683Y8886351D01*
X21211054Y8891228D01*
X21197969Y8897417D01*
X21185553Y8904858D01*
X21173927Y8913481D01*
X21163202Y8923202D01*
X21153481Y8933927D01*
X21144858Y8945553D01*
X21137417Y8957969D01*
X21131228Y8971054D01*
X21126351Y8984683D01*
X21122834Y8998724D01*
X21120710Y9013042D01*
X21120000Y9027500D01*
X21120000Y9372500D01*
X21120710Y9386958D01*
X21122834Y9401276D01*
X21126351Y9415317D01*
X21131228Y9428946D01*
X21137417Y9442031D01*
X21144858Y9454447D01*
X21153481Y9466073D01*
X21163202Y9476798D01*
X21173927Y9486519D01*
X21185553Y9495142D01*
X21197969Y9502583D01*
X21211054Y9508772D01*
X21224683Y9513649D01*
X21238724Y9517166D01*
X21253042Y9519290D01*
X21267500Y9520000D01*
X21562500Y9520000D01*
X21576958Y9519290D01*
X21576958Y9519290D01*
G37*
D22*
X21415000Y9200000D03*
D11*
G36*
X22546958Y9519290D02*
X22561276Y9517166D01*
X22575317Y9513649D01*
X22588946Y9508772D01*
X22602031Y9502583D01*
X22614447Y9495142D01*
X22626073Y9486519D01*
X22636798Y9476798D01*
X22646519Y9466073D01*
X22655142Y9454447D01*
X22662583Y9442031D01*
X22668772Y9428946D01*
X22673649Y9415317D01*
X22677166Y9401276D01*
X22679290Y9386958D01*
X22680000Y9372500D01*
X22680000Y9027500D01*
X22679290Y9013042D01*
X22677166Y8998724D01*
X22673649Y8984683D01*
X22668772Y8971054D01*
X22662583Y8957969D01*
X22655142Y8945553D01*
X22646519Y8933927D01*
X22636798Y8923202D01*
X22626073Y8913481D01*
X22614447Y8904858D01*
X22602031Y8897417D01*
X22588946Y8891228D01*
X22575317Y8886351D01*
X22561276Y8882834D01*
X22546958Y8880710D01*
X22532500Y8880000D01*
X22237500Y8880000D01*
X22223042Y8880710D01*
X22208724Y8882834D01*
X22194683Y8886351D01*
X22181054Y8891228D01*
X22167969Y8897417D01*
X22155553Y8904858D01*
X22143927Y8913481D01*
X22133202Y8923202D01*
X22123481Y8933927D01*
X22114858Y8945553D01*
X22107417Y8957969D01*
X22101228Y8971054D01*
X22096351Y8984683D01*
X22092834Y8998724D01*
X22090710Y9013042D01*
X22090000Y9027500D01*
X22090000Y9372500D01*
X22090710Y9386958D01*
X22092834Y9401276D01*
X22096351Y9415317D01*
X22101228Y9428946D01*
X22107417Y9442031D01*
X22114858Y9454447D01*
X22123481Y9466073D01*
X22133202Y9476798D01*
X22143927Y9486519D01*
X22155553Y9495142D01*
X22167969Y9502583D01*
X22181054Y9508772D01*
X22194683Y9513649D01*
X22208724Y9517166D01*
X22223042Y9519290D01*
X22237500Y9520000D01*
X22532500Y9520000D01*
X22546958Y9519290D01*
X22546958Y9519290D01*
G37*
D22*
X22385000Y9200000D03*
G04 #@! TD*
D11*
G04 #@! TO.C,C22*
G36*
X21361958Y12959290D02*
X21376276Y12957166D01*
X21390317Y12953649D01*
X21403946Y12948772D01*
X21417031Y12942583D01*
X21429447Y12935142D01*
X21441073Y12926519D01*
X21451798Y12916798D01*
X21461519Y12906073D01*
X21470142Y12894447D01*
X21477583Y12882031D01*
X21483772Y12868946D01*
X21488649Y12855317D01*
X21492166Y12841276D01*
X21494290Y12826958D01*
X21495000Y12812500D01*
X21495000Y12517500D01*
X21494290Y12503042D01*
X21492166Y12488724D01*
X21488649Y12474683D01*
X21483772Y12461054D01*
X21477583Y12447969D01*
X21470142Y12435553D01*
X21461519Y12423927D01*
X21451798Y12413202D01*
X21441073Y12403481D01*
X21429447Y12394858D01*
X21417031Y12387417D01*
X21403946Y12381228D01*
X21390317Y12376351D01*
X21376276Y12372834D01*
X21361958Y12370710D01*
X21347500Y12370000D01*
X21002500Y12370000D01*
X20988042Y12370710D01*
X20973724Y12372834D01*
X20959683Y12376351D01*
X20946054Y12381228D01*
X20932969Y12387417D01*
X20920553Y12394858D01*
X20908927Y12403481D01*
X20898202Y12413202D01*
X20888481Y12423927D01*
X20879858Y12435553D01*
X20872417Y12447969D01*
X20866228Y12461054D01*
X20861351Y12474683D01*
X20857834Y12488724D01*
X20855710Y12503042D01*
X20855000Y12517500D01*
X20855000Y12812500D01*
X20855710Y12826958D01*
X20857834Y12841276D01*
X20861351Y12855317D01*
X20866228Y12868946D01*
X20872417Y12882031D01*
X20879858Y12894447D01*
X20888481Y12906073D01*
X20898202Y12916798D01*
X20908927Y12926519D01*
X20920553Y12935142D01*
X20932969Y12942583D01*
X20946054Y12948772D01*
X20959683Y12953649D01*
X20973724Y12957166D01*
X20988042Y12959290D01*
X21002500Y12960000D01*
X21347500Y12960000D01*
X21361958Y12959290D01*
X21361958Y12959290D01*
G37*
D22*
X21175000Y12665000D03*
D11*
G36*
X21361958Y13929290D02*
X21376276Y13927166D01*
X21390317Y13923649D01*
X21403946Y13918772D01*
X21417031Y13912583D01*
X21429447Y13905142D01*
X21441073Y13896519D01*
X21451798Y13886798D01*
X21461519Y13876073D01*
X21470142Y13864447D01*
X21477583Y13852031D01*
X21483772Y13838946D01*
X21488649Y13825317D01*
X21492166Y13811276D01*
X21494290Y13796958D01*
X21495000Y13782500D01*
X21495000Y13487500D01*
X21494290Y13473042D01*
X21492166Y13458724D01*
X21488649Y13444683D01*
X21483772Y13431054D01*
X21477583Y13417969D01*
X21470142Y13405553D01*
X21461519Y13393927D01*
X21451798Y13383202D01*
X21441073Y13373481D01*
X21429447Y13364858D01*
X21417031Y13357417D01*
X21403946Y13351228D01*
X21390317Y13346351D01*
X21376276Y13342834D01*
X21361958Y13340710D01*
X21347500Y13340000D01*
X21002500Y13340000D01*
X20988042Y13340710D01*
X20973724Y13342834D01*
X20959683Y13346351D01*
X20946054Y13351228D01*
X20932969Y13357417D01*
X20920553Y13364858D01*
X20908927Y13373481D01*
X20898202Y13383202D01*
X20888481Y13393927D01*
X20879858Y13405553D01*
X20872417Y13417969D01*
X20866228Y13431054D01*
X20861351Y13444683D01*
X20857834Y13458724D01*
X20855710Y13473042D01*
X20855000Y13487500D01*
X20855000Y13782500D01*
X20855710Y13796958D01*
X20857834Y13811276D01*
X20861351Y13825317D01*
X20866228Y13838946D01*
X20872417Y13852031D01*
X20879858Y13864447D01*
X20888481Y13876073D01*
X20898202Y13886798D01*
X20908927Y13896519D01*
X20920553Y13905142D01*
X20932969Y13912583D01*
X20946054Y13918772D01*
X20959683Y13923649D01*
X20973724Y13927166D01*
X20988042Y13929290D01*
X21002500Y13930000D01*
X21347500Y13930000D01*
X21361958Y13929290D01*
X21361958Y13929290D01*
G37*
D22*
X21175000Y13635000D03*
G04 #@! TD*
D11*
G04 #@! TO.C,C16*
G36*
X29452691Y1323947D02*
X29473926Y1320797D01*
X29494750Y1315581D01*
X29514962Y1308349D01*
X29534368Y1299170D01*
X29552781Y1288134D01*
X29570024Y1275346D01*
X29585930Y1260930D01*
X29600346Y1245024D01*
X29613134Y1227781D01*
X29624170Y1209368D01*
X29633349Y1189962D01*
X29640581Y1169750D01*
X29645797Y1148926D01*
X29648947Y1127691D01*
X29650000Y1106250D01*
X29650000Y593750D01*
X29648947Y572309D01*
X29645797Y551074D01*
X29640581Y530250D01*
X29633349Y510038D01*
X29624170Y490632D01*
X29613134Y472219D01*
X29600346Y454976D01*
X29585930Y439070D01*
X29570024Y424654D01*
X29552781Y411866D01*
X29534368Y400830D01*
X29514962Y391651D01*
X29494750Y384419D01*
X29473926Y379203D01*
X29452691Y376053D01*
X29431250Y375000D01*
X28993750Y375000D01*
X28972309Y376053D01*
X28951074Y379203D01*
X28930250Y384419D01*
X28910038Y391651D01*
X28890632Y400830D01*
X28872219Y411866D01*
X28854976Y424654D01*
X28839070Y439070D01*
X28824654Y454976D01*
X28811866Y472219D01*
X28800830Y490632D01*
X28791651Y510038D01*
X28784419Y530250D01*
X28779203Y551074D01*
X28776053Y572309D01*
X28775000Y593750D01*
X28775000Y1106250D01*
X28776053Y1127691D01*
X28779203Y1148926D01*
X28784419Y1169750D01*
X28791651Y1189962D01*
X28800830Y1209368D01*
X28811866Y1227781D01*
X28824654Y1245024D01*
X28839070Y1260930D01*
X28854976Y1275346D01*
X28872219Y1288134D01*
X28890632Y1299170D01*
X28910038Y1308349D01*
X28930250Y1315581D01*
X28951074Y1320797D01*
X28972309Y1323947D01*
X28993750Y1325000D01*
X29431250Y1325000D01*
X29452691Y1323947D01*
X29452691Y1323947D01*
G37*
D27*
X29212500Y850000D03*
D11*
G36*
X27877691Y1323947D02*
X27898926Y1320797D01*
X27919750Y1315581D01*
X27939962Y1308349D01*
X27959368Y1299170D01*
X27977781Y1288134D01*
X27995024Y1275346D01*
X28010930Y1260930D01*
X28025346Y1245024D01*
X28038134Y1227781D01*
X28049170Y1209368D01*
X28058349Y1189962D01*
X28065581Y1169750D01*
X28070797Y1148926D01*
X28073947Y1127691D01*
X28075000Y1106250D01*
X28075000Y593750D01*
X28073947Y572309D01*
X28070797Y551074D01*
X28065581Y530250D01*
X28058349Y510038D01*
X28049170Y490632D01*
X28038134Y472219D01*
X28025346Y454976D01*
X28010930Y439070D01*
X27995024Y424654D01*
X27977781Y411866D01*
X27959368Y400830D01*
X27939962Y391651D01*
X27919750Y384419D01*
X27898926Y379203D01*
X27877691Y376053D01*
X27856250Y375000D01*
X27418750Y375000D01*
X27397309Y376053D01*
X27376074Y379203D01*
X27355250Y384419D01*
X27335038Y391651D01*
X27315632Y400830D01*
X27297219Y411866D01*
X27279976Y424654D01*
X27264070Y439070D01*
X27249654Y454976D01*
X27236866Y472219D01*
X27225830Y490632D01*
X27216651Y510038D01*
X27209419Y530250D01*
X27204203Y551074D01*
X27201053Y572309D01*
X27200000Y593750D01*
X27200000Y1106250D01*
X27201053Y1127691D01*
X27204203Y1148926D01*
X27209419Y1169750D01*
X27216651Y1189962D01*
X27225830Y1209368D01*
X27236866Y1227781D01*
X27249654Y1245024D01*
X27264070Y1260930D01*
X27279976Y1275346D01*
X27297219Y1288134D01*
X27315632Y1299170D01*
X27335038Y1308349D01*
X27355250Y1315581D01*
X27376074Y1320797D01*
X27397309Y1323947D01*
X27418750Y1325000D01*
X27856250Y1325000D01*
X27877691Y1323947D01*
X27877691Y1323947D01*
G37*
D27*
X27637500Y850000D03*
G04 #@! TD*
M02*
