G04 #@! TF.GenerationSoftware,KiCad,Pcbnew,(5.0.1)-4*
G04 #@! TF.CreationDate,2019-05-17T17:50:28+02:00*
G04 #@! TF.ProjectId,nk-LoRa,6E6B2D4C6F52612E6B696361645F7063,R1*
G04 #@! TF.SameCoordinates,PX5f5e100PY5f5e100*
G04 #@! TF.FileFunction,Copper,L2,Inr,Signal*
G04 #@! TF.FilePolarity,Positive*
%FSLAX46Y46*%
G04 Gerber Fmt 4.6, Leading zero omitted, Abs format (unit mm)*
G04 Created by KiCad (PCBNEW (5.0.1)-4) date 17.05.2019 17:50:28*
%MOMM*%
%LPD*%
G01*
G04 APERTURE LIST*
G04 #@! TA.AperFunction,NonConductor*
%ADD10C,0.300000*%
G04 #@! TD*
G04 #@! TA.AperFunction,ViaPad*
%ADD11O,3.500120X1.501140*%
G04 #@! TD*
G04 #@! TA.AperFunction,ViaPad*
%ADD12C,0.500000*%
G04 #@! TD*
G04 #@! TA.AperFunction,ViaPad*
%ADD13C,0.450000*%
G04 #@! TD*
G04 #@! TA.AperFunction,Conductor*
%ADD14C,0.150000*%
G04 #@! TD*
G04 APERTURE END LIST*
D10*
X7980000Y-2538571D02*
X7980000Y-1038571D01*
X8694285Y-2538571D02*
X8694285Y-1038571D01*
X9551428Y-2538571D01*
X9551428Y-1038571D01*
X11051428Y-2538571D02*
X10194285Y-2538571D01*
X10622857Y-2538571D02*
X10622857Y-1038571D01*
X10480000Y-1252857D01*
X10337142Y-1395714D01*
X10194285Y-1467142D01*
D11*
G04 #@! TO.N,Net-(C18-Pad1)*
G04 #@! TO.C,X2*
X37638180Y3093840D03*
X37638180Y14493360D03*
G04 #@! TD*
D12*
G04 #@! TO.N,GND*
G04 #@! TO.C,U3*
X26050000Y10900000D03*
X26050000Y12000000D03*
X26050000Y13100000D03*
X24950000Y10900000D03*
X24950000Y12000000D03*
X24950000Y13100000D03*
X23850000Y10900000D03*
X23850000Y12000000D03*
X23850000Y13100000D03*
G04 #@! TD*
G04 #@! TO.N,GND*
G04 #@! TO.C,U2*
X22400000Y3000000D03*
X22400000Y4066667D03*
X22400000Y5133333D03*
X22400000Y6200000D03*
X23466667Y3000000D03*
X23466667Y4066667D03*
X23466667Y5133333D03*
X23466667Y6200000D03*
X24533333Y3000000D03*
X24533333Y4066667D03*
X24533333Y5133333D03*
X24533333Y6200000D03*
X25600000Y3000000D03*
X25600000Y4066667D03*
X25600000Y5133333D03*
X25600000Y6200000D03*
G04 #@! TD*
D13*
G04 #@! TO.N,GND*
X19450000Y16225000D03*
X19450000Y15425000D03*
X12575000Y1975000D03*
X14125000Y1775000D03*
X9500000Y10900000D03*
X8700000Y11700000D03*
X11000000Y9150000D03*
X10300000Y11700000D03*
X10300000Y8500000D03*
X11800000Y8500000D03*
X9500000Y10100000D03*
X11800000Y9150000D03*
X10300000Y10900000D03*
X10300000Y10100000D03*
X12200000Y11850000D03*
X9500000Y11700000D03*
X11000000Y8500000D03*
X8700000Y10900000D03*
X8700000Y8500000D03*
X10300000Y9300000D03*
X8700000Y10100000D03*
X8700000Y9300000D03*
X9500000Y8500000D03*
X9500000Y9300000D03*
X12200000Y12650000D03*
X10650000Y16225000D03*
X10650000Y17025000D03*
X10450000Y15550000D03*
X12200000Y13450000D03*
X9650000Y15550000D03*
X9650000Y14750000D03*
X10450000Y14750000D03*
X11450000Y16225000D03*
X11450000Y17025000D03*
X15550000Y10600000D03*
X12600000Y9150000D03*
X13400000Y9300000D03*
X15000000Y9300000D03*
X13975000Y10400000D03*
X13100000Y10400000D03*
X14200000Y9300000D03*
X14650000Y16225000D03*
X15450000Y17025000D03*
X16250000Y17025000D03*
X16250000Y16225000D03*
X15450000Y14675000D03*
X16250000Y14675000D03*
X14500000Y14700000D03*
X16250000Y15425000D03*
X15450000Y15425000D03*
X13850000Y16225000D03*
X14650000Y15425000D03*
X13850000Y15425000D03*
X13500000Y14700000D03*
X15450000Y16225000D03*
X14650000Y17025000D03*
X12250000Y17025000D03*
X13850000Y17025000D03*
X13050000Y17025000D03*
X12250000Y16225000D03*
X13050000Y16225000D03*
X20225000Y17025000D03*
X21775000Y17025000D03*
X17050000Y15425000D03*
X18650000Y16225000D03*
X18650000Y15425000D03*
X17050000Y14675000D03*
X19450000Y17025000D03*
X17050000Y17025000D03*
X17850000Y15425000D03*
X18650000Y17025000D03*
X17850000Y17025000D03*
X17050000Y16225000D03*
X17850000Y16225000D03*
X19600000Y10600000D03*
X20650000Y10600000D03*
X16600000Y7700000D03*
X18900000Y8000000D03*
X19700000Y8000000D03*
X18100000Y8000000D03*
X18550000Y10600000D03*
X16250000Y10600000D03*
X17650000Y10600000D03*
X16950000Y10600000D03*
X20500000Y8000000D03*
X15000000Y8500000D03*
X34900000Y6600000D03*
X18125000Y1650000D03*
X14100000Y14100000D03*
X14950000Y14100000D03*
X13425000Y13975000D03*
X15800000Y14100000D03*
X17500000Y14150000D03*
X16650000Y14100000D03*
X16250000Y11425000D03*
X15550000Y11425000D03*
X14850000Y11425000D03*
X16600000Y6100000D03*
X16600000Y3700000D03*
X16600000Y4500000D03*
X16600000Y5300000D03*
X16600000Y6900000D03*
X16600000Y2900000D03*
X17650000Y12700000D03*
X16950000Y12700000D03*
X16250000Y12700000D03*
X15550000Y12700000D03*
X20850000Y1650000D03*
X11000000Y6900000D03*
X9400000Y6900000D03*
X11800000Y6900000D03*
X10200000Y6900000D03*
X7800000Y6900000D03*
X6200000Y6900000D03*
X8600000Y6900000D03*
X7000000Y6900000D03*
X4600000Y6900000D03*
X3000000Y6900000D03*
X5400000Y6900000D03*
X3800000Y6900000D03*
X1400000Y6900000D03*
X2200000Y6900000D03*
X600000Y6900000D03*
X22100000Y600000D03*
X19975000Y1650000D03*
X19050000Y1650000D03*
X17250000Y1650000D03*
X7800000Y7700000D03*
X8600000Y7700000D03*
X7000000Y7700000D03*
X6200000Y7700000D03*
X5400000Y7700000D03*
X3000000Y7700000D03*
X4600000Y7700000D03*
X3800000Y7700000D03*
X11000000Y7700000D03*
X10200000Y7700000D03*
X9400000Y7700000D03*
X11800000Y7700000D03*
X2200000Y7700000D03*
X13400000Y2900000D03*
X13400000Y3700000D03*
X13400000Y4500000D03*
X13400000Y5300000D03*
X13400000Y6100000D03*
X13400000Y6900000D03*
X13400000Y7700000D03*
X13400000Y8500000D03*
X14200000Y8500000D03*
X14200000Y7700000D03*
X14200000Y6900000D03*
X14200000Y6100000D03*
X14200000Y5300000D03*
X14200000Y4500000D03*
X14200000Y3700000D03*
X14200000Y2900000D03*
X15000000Y2900000D03*
X15000000Y3700000D03*
X15000000Y4500000D03*
X15000000Y5300000D03*
X15800000Y5300000D03*
X15800000Y4500000D03*
X15800000Y3700000D03*
X15800000Y2900000D03*
X15800000Y6900000D03*
X15800000Y6100000D03*
X15000000Y6900000D03*
X15000000Y6100000D03*
X15000000Y7700000D03*
X12600000Y2900000D03*
X12600000Y6100000D03*
X12600000Y3700000D03*
X12600000Y6900000D03*
X12600000Y7700000D03*
X12600000Y8500000D03*
X12600000Y4500000D03*
X12600000Y5300000D03*
D12*
X31700000Y14825000D03*
X36700000Y6000000D03*
X33450000Y11150000D03*
X33700000Y15550000D03*
X33100000Y16650000D03*
X32300000Y16650000D03*
X31470000Y3640000D03*
D13*
X15775000Y1750000D03*
X15000000Y1750000D03*
X19850000Y7075000D03*
X27400000Y16800000D03*
X21950000Y16200000D03*
X14150000Y12700000D03*
X14850000Y12700000D03*
X17650000Y11425000D03*
X16950000Y11425000D03*
X19850000Y6100000D03*
X31200000Y9450000D03*
D12*
X35600000Y6300000D03*
D13*
X33750000Y5550000D03*
X35250000Y2350000D03*
X26250000Y14950000D03*
X29025000Y13275000D03*
X24225000Y14724990D03*
X26800000Y9250000D03*
X38830000Y5410000D03*
D12*
X33750000Y6575000D03*
D13*
X25550000Y550000D03*
X27411404Y2825008D03*
X30125000Y550000D03*
X32200000Y900000D03*
X15375000Y2275000D03*
X14550000Y2275000D03*
X15800000Y7700000D03*
X21775000Y10625002D03*
X13100000Y11200000D03*
X19800000Y9174990D03*
D12*
G04 #@! TO.N,+5V*
X35850000Y13250000D03*
X36500000Y13250000D03*
D13*
X31900000Y7725010D03*
G04 #@! TO.N,Net-(C4-Pad2)*
X20575000Y2325018D03*
G04 #@! TO.N,Net-(C5-Pad2)*
X20576063Y2975011D03*
G04 #@! TO.N,/EN*
X27651928Y2146459D03*
G04 #@! TO.N,+3V3*
X22600000Y1200000D03*
X19150000Y9550000D03*
X27650000Y14950000D03*
X28250000Y14950000D03*
D12*
X29550000Y5500000D03*
X31650000Y13450000D03*
X31650000Y14100000D03*
D13*
X30719976Y6409324D03*
X31050000Y11650000D03*
X21200000Y7900000D03*
X25925000Y7825010D03*
X31250000Y16850000D03*
X27950000Y3100000D03*
X30050000Y10300000D03*
D12*
X27749988Y4600000D03*
D13*
X23300000Y1200000D03*
X20570101Y3604895D03*
X33200000Y10350000D03*
X26749992Y7700000D03*
X20655817Y9246536D03*
X26700000Y550000D03*
X21225000Y2150000D03*
X20538451Y4874999D03*
G04 #@! TO.N,/RTS*
X31100000Y6900000D03*
D12*
X33407661Y1913856D03*
G04 #@! TO.N,/DTR*
X34400000Y4200000D03*
G04 #@! TO.N,/TXD*
X38250000Y8800000D03*
X34750000Y3600000D03*
D13*
G04 #@! TO.N,/RXD0*
X20450000Y6425000D03*
X26754941Y2208647D03*
D12*
G04 #@! TO.N,/RXD*
X34750000Y2900000D03*
X38709997Y6119997D03*
D13*
G04 #@! TO.N,/TXD0*
X20400002Y5800000D03*
X26842919Y1292583D03*
G04 #@! TO.N,Net-(R12-Pad1)*
X31225008Y900000D03*
G04 #@! TO.N,/SD_DETECT*
X32300000Y11300000D03*
X23125000Y8900000D03*
D12*
G04 #@! TO.N,/HD+*
X37400000Y8450000D03*
G04 #@! TO.N,/HD-*
X37400000Y9200000D03*
D13*
G04 #@! TO.N,/RF_RESET*
X25200000Y8750000D03*
X21199888Y7250000D03*
G04 #@! TO.N,/SD_DAT0*
X28049974Y7850012D03*
G04 #@! TO.N,/SD_CLK*
X27550000Y3600000D03*
X28101218Y6799989D03*
G04 #@! TO.N,/SD_CMD*
X29050000Y16800000D03*
G04 #@! TO.N,/RF_CS*
X22999980Y10050000D03*
G04 #@! TO.N,/RF_SCK*
X23700000Y9250000D03*
G04 #@! TO.N,/RF_MISO*
X24249988Y8500000D03*
G04 #@! TO.N,/RF_MOSI*
X23600000Y8500008D03*
G04 #@! TO.N,Net-(C22-Pad1)*
X23500000Y14725000D03*
X28075000Y16800000D03*
G04 #@! TO.N,/DIO2*
X21900000Y9950000D03*
X26881816Y10200000D03*
G04 #@! TO.N,/ANT_SW*
X12950000Y15450000D03*
X19975000Y5325004D03*
G04 #@! TO.N,/DIO1*
X22100169Y8100167D03*
G04 #@! TO.N,/RF_BUSY*
X25700000Y9250000D03*
X21002764Y6683303D03*
G04 #@! TO.N,/GPIO_0*
X27200000Y6550024D03*
G04 #@! TO.N,Net-(R11-Pad1)*
X28700000Y4049998D03*
G04 #@! TD*
D14*
G04 #@! TO.N,GND*
G36*
X27861845Y17198785D02*
X27788142Y17149538D01*
X27725462Y17086858D01*
X27676215Y17013155D01*
X27642294Y16931260D01*
X27625000Y16844321D01*
X27625000Y16755679D01*
X27642294Y16668740D01*
X27676215Y16586845D01*
X27725462Y16513142D01*
X27788142Y16450462D01*
X27861845Y16401215D01*
X27943740Y16367294D01*
X28030679Y16350000D01*
X28119321Y16350000D01*
X28206260Y16367294D01*
X28288155Y16401215D01*
X28361858Y16450462D01*
X28424538Y16513142D01*
X28473785Y16586845D01*
X28507706Y16668740D01*
X28525000Y16755679D01*
X28525000Y16844321D01*
X28507706Y16931260D01*
X28473785Y17013155D01*
X28424538Y17086858D01*
X28361858Y17149538D01*
X28288155Y17198785D01*
X28224864Y17225000D01*
X28900136Y17225000D01*
X28836845Y17198785D01*
X28763142Y17149538D01*
X28700462Y17086858D01*
X28651215Y17013155D01*
X28617294Y16931260D01*
X28600000Y16844321D01*
X28600000Y16755679D01*
X28617294Y16668740D01*
X28651215Y16586845D01*
X28700462Y16513142D01*
X28763142Y16450462D01*
X28836845Y16401215D01*
X28918740Y16367294D01*
X29005679Y16350000D01*
X29094321Y16350000D01*
X29181260Y16367294D01*
X29263155Y16401215D01*
X29336858Y16450462D01*
X29399538Y16513142D01*
X29448785Y16586845D01*
X29482706Y16668740D01*
X29500000Y16755679D01*
X29500000Y16844321D01*
X29482706Y16931260D01*
X29448785Y17013155D01*
X29399538Y17086858D01*
X29336858Y17149538D01*
X29263155Y17198785D01*
X29199864Y17225000D01*
X31001248Y17225000D01*
X30963142Y17199538D01*
X30900462Y17136858D01*
X30851215Y17063155D01*
X30817294Y16981260D01*
X30800000Y16894321D01*
X30800000Y16805679D01*
X30817294Y16718740D01*
X30851215Y16636845D01*
X30900462Y16563142D01*
X30963142Y16500462D01*
X31036845Y16451215D01*
X31118740Y16417294D01*
X31205679Y16400000D01*
X31294321Y16400000D01*
X31381260Y16417294D01*
X31463155Y16451215D01*
X31536858Y16500462D01*
X31599538Y16563142D01*
X31648785Y16636845D01*
X31682706Y16718740D01*
X31700000Y16805679D01*
X31700000Y16894321D01*
X31682706Y16981260D01*
X31648785Y17063155D01*
X31599538Y17136858D01*
X31536858Y17199538D01*
X31498752Y17225000D01*
X35125001Y17225000D01*
X35125000Y16800305D01*
X35062161Y16863144D01*
X34943416Y16942487D01*
X34811475Y16997139D01*
X34671406Y17025000D01*
X34528594Y17025000D01*
X34388525Y16997139D01*
X34256584Y16942487D01*
X34137839Y16863144D01*
X34036856Y16762161D01*
X33957513Y16643416D01*
X33902861Y16511475D01*
X33875000Y16371406D01*
X33875000Y16228594D01*
X33902861Y16088525D01*
X33957513Y15956584D01*
X34036856Y15837839D01*
X34137839Y15736856D01*
X34256584Y15657513D01*
X34388525Y15602861D01*
X34528594Y15575000D01*
X34671406Y15575000D01*
X34811475Y15602861D01*
X34943416Y15657513D01*
X35062161Y15736856D01*
X35163144Y15837839D01*
X35242487Y15956584D01*
X35297139Y16088525D01*
X35325000Y16228594D01*
X35325000Y16268332D01*
X35355800Y16251869D01*
X35426487Y16230426D01*
X35500000Y16223186D01*
X35518419Y16225000D01*
X39625001Y16225000D01*
X39625000Y1375000D01*
X35518419Y1375000D01*
X35500000Y1376814D01*
X35481581Y1375000D01*
X35426487Y1369574D01*
X35355800Y1348131D01*
X35325000Y1331668D01*
X35325000Y1371406D01*
X35297139Y1511475D01*
X35242487Y1643416D01*
X35163144Y1762161D01*
X35062161Y1863144D01*
X34943416Y1942487D01*
X34811475Y1997139D01*
X34671406Y2025000D01*
X34528594Y2025000D01*
X34388525Y1997139D01*
X34256584Y1942487D01*
X34137839Y1863144D01*
X34036856Y1762161D01*
X33957513Y1643416D01*
X33902861Y1511475D01*
X33875000Y1371406D01*
X33875000Y1228594D01*
X33902861Y1088525D01*
X33957513Y956584D01*
X34036856Y837839D01*
X34137839Y736856D01*
X34256584Y657513D01*
X34388525Y602861D01*
X34528594Y575000D01*
X34671406Y575000D01*
X34811475Y602861D01*
X34943416Y657513D01*
X35062161Y736856D01*
X35125001Y799696D01*
X35125000Y375000D01*
X27114589Y375000D01*
X27132706Y418740D01*
X27150000Y505679D01*
X27150000Y594321D01*
X27132706Y681260D01*
X27098785Y763155D01*
X27049538Y836858D01*
X27011189Y875207D01*
X27056074Y893798D01*
X27129777Y943045D01*
X27131053Y944321D01*
X30775008Y944321D01*
X30775008Y855679D01*
X30792302Y768740D01*
X30826223Y686845D01*
X30875470Y613142D01*
X30938150Y550462D01*
X31011853Y501215D01*
X31093748Y467294D01*
X31180687Y450000D01*
X31269329Y450000D01*
X31356268Y467294D01*
X31438163Y501215D01*
X31511866Y550462D01*
X31574546Y613142D01*
X31623793Y686845D01*
X31657714Y768740D01*
X31675008Y855679D01*
X31675008Y944321D01*
X31657714Y1031260D01*
X31623793Y1113155D01*
X31574546Y1186858D01*
X31511866Y1249538D01*
X31438163Y1298785D01*
X31356268Y1332706D01*
X31269329Y1350000D01*
X31180687Y1350000D01*
X31093748Y1332706D01*
X31011853Y1298785D01*
X30938150Y1249538D01*
X30875470Y1186858D01*
X30826223Y1113155D01*
X30792302Y1031260D01*
X30775008Y944321D01*
X27131053Y944321D01*
X27192457Y1005725D01*
X27241704Y1079428D01*
X27275625Y1161323D01*
X27292919Y1248262D01*
X27292919Y1336904D01*
X27275625Y1423843D01*
X27241704Y1505738D01*
X27192457Y1579441D01*
X27129777Y1642121D01*
X27056074Y1691368D01*
X26974179Y1725289D01*
X26887240Y1742583D01*
X26798598Y1742583D01*
X26711659Y1725289D01*
X26629764Y1691368D01*
X26556061Y1642121D01*
X26493381Y1579441D01*
X26444134Y1505738D01*
X26410213Y1423843D01*
X26392919Y1336904D01*
X26392919Y1248262D01*
X26410213Y1161323D01*
X26444134Y1079428D01*
X26493381Y1005725D01*
X26531730Y967376D01*
X26486845Y948785D01*
X26413142Y899538D01*
X26350462Y836858D01*
X26301215Y763155D01*
X26267294Y681260D01*
X26250000Y594321D01*
X26250000Y505679D01*
X26267294Y418740D01*
X26285411Y375000D01*
X12375000Y375000D01*
X12375000Y1244321D01*
X22150000Y1244321D01*
X22150000Y1155679D01*
X22167294Y1068740D01*
X22201215Y986845D01*
X22250462Y913142D01*
X22313142Y850462D01*
X22386845Y801215D01*
X22468740Y767294D01*
X22555679Y750000D01*
X22644321Y750000D01*
X22731260Y767294D01*
X22813155Y801215D01*
X22886858Y850462D01*
X22949538Y913142D01*
X22950000Y913833D01*
X22950462Y913142D01*
X23013142Y850462D01*
X23086845Y801215D01*
X23168740Y767294D01*
X23255679Y750000D01*
X23344321Y750000D01*
X23431260Y767294D01*
X23513155Y801215D01*
X23586858Y850462D01*
X23649538Y913142D01*
X23698785Y986845D01*
X23732706Y1068740D01*
X23750000Y1155679D01*
X23750000Y1244321D01*
X23732706Y1331260D01*
X23698785Y1413155D01*
X23649538Y1486858D01*
X23586858Y1549538D01*
X23513155Y1598785D01*
X23431260Y1632706D01*
X23344321Y1650000D01*
X23255679Y1650000D01*
X23168740Y1632706D01*
X23086845Y1598785D01*
X23013142Y1549538D01*
X22950462Y1486858D01*
X22950000Y1486167D01*
X22949538Y1486858D01*
X22886858Y1549538D01*
X22813155Y1598785D01*
X22731260Y1632706D01*
X22644321Y1650000D01*
X22555679Y1650000D01*
X22468740Y1632706D01*
X22386845Y1598785D01*
X22313142Y1549538D01*
X22250462Y1486858D01*
X22201215Y1413155D01*
X22167294Y1331260D01*
X22150000Y1244321D01*
X12375000Y1244321D01*
X12375000Y3649216D01*
X20120101Y3649216D01*
X20120101Y3560574D01*
X20137395Y3473635D01*
X20171316Y3391740D01*
X20220563Y3318037D01*
X20251628Y3286972D01*
X20226525Y3261869D01*
X20177278Y3188166D01*
X20143357Y3106271D01*
X20126063Y3019332D01*
X20126063Y2930690D01*
X20143357Y2843751D01*
X20177278Y2761856D01*
X20226525Y2688153D01*
X20264132Y2650546D01*
X20225462Y2611876D01*
X20176215Y2538173D01*
X20142294Y2456278D01*
X20125000Y2369339D01*
X20125000Y2280697D01*
X20142294Y2193758D01*
X20176215Y2111863D01*
X20225462Y2038160D01*
X20288142Y1975480D01*
X20361845Y1926233D01*
X20443740Y1892312D01*
X20530679Y1875018D01*
X20619321Y1875018D01*
X20706260Y1892312D01*
X20788155Y1926233D01*
X20821407Y1948452D01*
X20826215Y1936845D01*
X20875462Y1863142D01*
X20938142Y1800462D01*
X21011845Y1751215D01*
X21093740Y1717294D01*
X21180679Y1700000D01*
X21269321Y1700000D01*
X21356260Y1717294D01*
X21438155Y1751215D01*
X21511858Y1800462D01*
X21574538Y1863142D01*
X21623785Y1936845D01*
X21657706Y2018740D01*
X21675000Y2105679D01*
X21675000Y2194321D01*
X21663334Y2252968D01*
X26304941Y2252968D01*
X26304941Y2164326D01*
X26322235Y2077387D01*
X26356156Y1995492D01*
X26405403Y1921789D01*
X26468083Y1859109D01*
X26541786Y1809862D01*
X26623681Y1775941D01*
X26710620Y1758647D01*
X26799262Y1758647D01*
X26886201Y1775941D01*
X26968096Y1809862D01*
X27041799Y1859109D01*
X27104479Y1921789D01*
X27153726Y1995492D01*
X27187647Y2077387D01*
X27201928Y2149179D01*
X27201928Y2102138D01*
X27219222Y2015199D01*
X27253143Y1933304D01*
X27302390Y1859601D01*
X27365070Y1796921D01*
X27438773Y1747674D01*
X27520668Y1713753D01*
X27607607Y1696459D01*
X27696249Y1696459D01*
X27783188Y1713753D01*
X27865083Y1747674D01*
X27938786Y1796921D01*
X28001466Y1859601D01*
X28050713Y1933304D01*
X28062035Y1960639D01*
X32932661Y1960639D01*
X32932661Y1867073D01*
X32950915Y1775304D01*
X32986722Y1688859D01*
X33038705Y1611061D01*
X33104866Y1544900D01*
X33182664Y1492917D01*
X33269109Y1457110D01*
X33360878Y1438856D01*
X33454444Y1438856D01*
X33546213Y1457110D01*
X33632658Y1492917D01*
X33710456Y1544900D01*
X33776617Y1611061D01*
X33828600Y1688859D01*
X33864407Y1775304D01*
X33882661Y1867073D01*
X33882661Y1960639D01*
X33864407Y2052408D01*
X33828600Y2138853D01*
X33776617Y2216651D01*
X33710456Y2282812D01*
X33632658Y2334795D01*
X33546213Y2370602D01*
X33454444Y2388856D01*
X33360878Y2388856D01*
X33269109Y2370602D01*
X33182664Y2334795D01*
X33104866Y2282812D01*
X33038705Y2216651D01*
X32986722Y2138853D01*
X32950915Y2052408D01*
X32932661Y1960639D01*
X28062035Y1960639D01*
X28084634Y2015199D01*
X28101928Y2102138D01*
X28101928Y2190780D01*
X28084634Y2277719D01*
X28050713Y2359614D01*
X28001466Y2433317D01*
X27938786Y2495997D01*
X27865083Y2545244D01*
X27783188Y2579165D01*
X27696249Y2596459D01*
X27607607Y2596459D01*
X27520668Y2579165D01*
X27438773Y2545244D01*
X27365070Y2495997D01*
X27302390Y2433317D01*
X27253143Y2359614D01*
X27219222Y2277719D01*
X27204941Y2205927D01*
X27204941Y2252968D01*
X27187647Y2339907D01*
X27153726Y2421802D01*
X27104479Y2495505D01*
X27041799Y2558185D01*
X26968096Y2607432D01*
X26886201Y2641353D01*
X26799262Y2658647D01*
X26710620Y2658647D01*
X26623681Y2641353D01*
X26541786Y2607432D01*
X26468083Y2558185D01*
X26405403Y2495505D01*
X26356156Y2421802D01*
X26322235Y2339907D01*
X26304941Y2252968D01*
X21663334Y2252968D01*
X21657706Y2281260D01*
X21623785Y2363155D01*
X21574538Y2436858D01*
X21511858Y2499538D01*
X21438155Y2548785D01*
X21356260Y2582706D01*
X21269321Y2600000D01*
X21180679Y2600000D01*
X21093740Y2582706D01*
X21011845Y2548785D01*
X20978593Y2526566D01*
X20973785Y2538173D01*
X20924538Y2611876D01*
X20886931Y2649483D01*
X20925601Y2688153D01*
X20974848Y2761856D01*
X21008769Y2843751D01*
X21026063Y2930690D01*
X21026063Y3019332D01*
X21008769Y3106271D01*
X20974848Y3188166D01*
X20925601Y3261869D01*
X20894536Y3292934D01*
X20919639Y3318037D01*
X20968886Y3391740D01*
X21002807Y3473635D01*
X21020101Y3560574D01*
X21020101Y3644321D01*
X27100000Y3644321D01*
X27100000Y3555679D01*
X27117294Y3468740D01*
X27151215Y3386845D01*
X27200462Y3313142D01*
X27263142Y3250462D01*
X27336845Y3201215D01*
X27418740Y3167294D01*
X27501303Y3150871D01*
X27500000Y3144321D01*
X27500000Y3055679D01*
X27517294Y2968740D01*
X27551215Y2886845D01*
X27600462Y2813142D01*
X27663142Y2750462D01*
X27736845Y2701215D01*
X27818740Y2667294D01*
X27905679Y2650000D01*
X27994321Y2650000D01*
X28081260Y2667294D01*
X28163155Y2701215D01*
X28236858Y2750462D01*
X28299538Y2813142D01*
X28348785Y2886845D01*
X28382706Y2968740D01*
X28400000Y3055679D01*
X28400000Y3144321D01*
X28382706Y3231260D01*
X28348785Y3313155D01*
X28299538Y3386858D01*
X28236858Y3449538D01*
X28163155Y3498785D01*
X28081260Y3532706D01*
X27998697Y3549129D01*
X28000000Y3555679D01*
X28000000Y3644321D01*
X27982706Y3731260D01*
X27948785Y3813155D01*
X27899538Y3886858D01*
X27836858Y3949538D01*
X27763155Y3998785D01*
X27681260Y4032706D01*
X27594321Y4050000D01*
X27505679Y4050000D01*
X27418740Y4032706D01*
X27336845Y3998785D01*
X27263142Y3949538D01*
X27200462Y3886858D01*
X27151215Y3813155D01*
X27117294Y3731260D01*
X27100000Y3644321D01*
X21020101Y3644321D01*
X21020101Y3649216D01*
X21002807Y3736155D01*
X20968886Y3818050D01*
X20919639Y3891753D01*
X20856959Y3954433D01*
X20783256Y4003680D01*
X20701361Y4037601D01*
X20614422Y4054895D01*
X20525780Y4054895D01*
X20438841Y4037601D01*
X20356946Y4003680D01*
X20283243Y3954433D01*
X20220563Y3891753D01*
X20171316Y3818050D01*
X20137395Y3736155D01*
X20120101Y3649216D01*
X12375000Y3649216D01*
X12375000Y4094319D01*
X28250000Y4094319D01*
X28250000Y4005677D01*
X28267294Y3918738D01*
X28301215Y3836843D01*
X28350462Y3763140D01*
X28413142Y3700460D01*
X28486845Y3651213D01*
X28568740Y3617292D01*
X28655679Y3599998D01*
X28744321Y3599998D01*
X28831260Y3617292D01*
X28913155Y3651213D01*
X28986858Y3700460D01*
X29049538Y3763140D01*
X29098785Y3836843D01*
X29132706Y3918738D01*
X29150000Y4005677D01*
X29150000Y4094319D01*
X29132706Y4181258D01*
X29105566Y4246783D01*
X33925000Y4246783D01*
X33925000Y4153217D01*
X33943254Y4061448D01*
X33979061Y3975003D01*
X34031044Y3897205D01*
X34097205Y3831044D01*
X34175003Y3779061D01*
X34261448Y3743254D01*
X34292943Y3736989D01*
X34275000Y3646783D01*
X34275000Y3553217D01*
X34293254Y3461448D01*
X34329061Y3375003D01*
X34381044Y3297205D01*
X34428249Y3250000D01*
X34381044Y3202795D01*
X34329061Y3124997D01*
X34293254Y3038552D01*
X34275000Y2946783D01*
X34275000Y2853217D01*
X34293254Y2761448D01*
X34329061Y2675003D01*
X34381044Y2597205D01*
X34447205Y2531044D01*
X34525003Y2479061D01*
X34611448Y2443254D01*
X34703217Y2425000D01*
X34796783Y2425000D01*
X34888552Y2443254D01*
X34974997Y2479061D01*
X35052795Y2531044D01*
X35118956Y2597205D01*
X35170939Y2675003D01*
X35206746Y2761448D01*
X35225000Y2853217D01*
X35225000Y2946783D01*
X35206746Y3038552D01*
X35183845Y3093840D01*
X35658400Y3093840D01*
X35677236Y2902595D01*
X35733020Y2718699D01*
X35823609Y2549220D01*
X35945520Y2400670D01*
X36094070Y2278759D01*
X36263549Y2188170D01*
X36447445Y2132386D01*
X36590767Y2118270D01*
X38685593Y2118270D01*
X38828915Y2132386D01*
X39012811Y2188170D01*
X39182290Y2278759D01*
X39330840Y2400670D01*
X39452751Y2549220D01*
X39543340Y2718699D01*
X39599124Y2902595D01*
X39617960Y3093840D01*
X39599124Y3285085D01*
X39543340Y3468981D01*
X39452751Y3638460D01*
X39330840Y3787010D01*
X39182290Y3908921D01*
X39012811Y3999510D01*
X38828915Y4055294D01*
X38685593Y4069410D01*
X36590767Y4069410D01*
X36447445Y4055294D01*
X36263549Y3999510D01*
X36094070Y3908921D01*
X35945520Y3787010D01*
X35823609Y3638460D01*
X35733020Y3468981D01*
X35677236Y3285085D01*
X35658400Y3093840D01*
X35183845Y3093840D01*
X35170939Y3124997D01*
X35118956Y3202795D01*
X35071751Y3250000D01*
X35118956Y3297205D01*
X35170939Y3375003D01*
X35206746Y3461448D01*
X35225000Y3553217D01*
X35225000Y3646783D01*
X35206746Y3738552D01*
X35170939Y3824997D01*
X35118956Y3902795D01*
X35052795Y3968956D01*
X34974997Y4020939D01*
X34888552Y4056746D01*
X34857057Y4063011D01*
X34875000Y4153217D01*
X34875000Y4246783D01*
X34856746Y4338552D01*
X34820939Y4424997D01*
X34768956Y4502795D01*
X34702795Y4568956D01*
X34624997Y4620939D01*
X34538552Y4656746D01*
X34446783Y4675000D01*
X34353217Y4675000D01*
X34261448Y4656746D01*
X34175003Y4620939D01*
X34097205Y4568956D01*
X34031044Y4502795D01*
X33979061Y4424997D01*
X33943254Y4338552D01*
X33925000Y4246783D01*
X29105566Y4246783D01*
X29098785Y4263153D01*
X29049538Y4336856D01*
X28986858Y4399536D01*
X28913155Y4448783D01*
X28831260Y4482704D01*
X28744321Y4499998D01*
X28655679Y4499998D01*
X28568740Y4482704D01*
X28486845Y4448783D01*
X28413142Y4399536D01*
X28350462Y4336856D01*
X28301215Y4263153D01*
X28267294Y4181258D01*
X28250000Y4094319D01*
X12375000Y4094319D01*
X12375000Y5369325D01*
X19525000Y5369325D01*
X19525000Y5280683D01*
X19542294Y5193744D01*
X19576215Y5111849D01*
X19625462Y5038146D01*
X19688142Y4975466D01*
X19761845Y4926219D01*
X19843740Y4892298D01*
X19930679Y4875004D01*
X20019321Y4875004D01*
X20088451Y4888755D01*
X20088451Y4830678D01*
X20105745Y4743739D01*
X20139666Y4661844D01*
X20188913Y4588141D01*
X20251593Y4525461D01*
X20325296Y4476214D01*
X20407191Y4442293D01*
X20494130Y4424999D01*
X20582772Y4424999D01*
X20669711Y4442293D01*
X20751606Y4476214D01*
X20825309Y4525461D01*
X20887989Y4588141D01*
X20927172Y4646783D01*
X27274988Y4646783D01*
X27274988Y4553217D01*
X27293242Y4461448D01*
X27329049Y4375003D01*
X27381032Y4297205D01*
X27447193Y4231044D01*
X27524991Y4179061D01*
X27611436Y4143254D01*
X27703205Y4125000D01*
X27796771Y4125000D01*
X27888540Y4143254D01*
X27974985Y4179061D01*
X28052783Y4231044D01*
X28118944Y4297205D01*
X28170927Y4375003D01*
X28206734Y4461448D01*
X28224988Y4553217D01*
X28224988Y4646783D01*
X28206734Y4738552D01*
X28170927Y4824997D01*
X28118944Y4902795D01*
X28052783Y4968956D01*
X27974985Y5020939D01*
X27888540Y5056746D01*
X27796771Y5075000D01*
X27703205Y5075000D01*
X27611436Y5056746D01*
X27524991Y5020939D01*
X27447193Y4968956D01*
X27381032Y4902795D01*
X27329049Y4824997D01*
X27293242Y4738552D01*
X27274988Y4646783D01*
X20927172Y4646783D01*
X20937236Y4661844D01*
X20971157Y4743739D01*
X20988451Y4830678D01*
X20988451Y4919320D01*
X20971157Y5006259D01*
X20937236Y5088154D01*
X20887989Y5161857D01*
X20825309Y5224537D01*
X20751606Y5273784D01*
X20669711Y5307705D01*
X20582772Y5324999D01*
X20494130Y5324999D01*
X20425000Y5311248D01*
X20425000Y5350000D01*
X20444323Y5350000D01*
X20531262Y5367294D01*
X20613157Y5401215D01*
X20686860Y5450462D01*
X20749540Y5513142D01*
X20772018Y5546783D01*
X29075000Y5546783D01*
X29075000Y5453217D01*
X29093254Y5361448D01*
X29129061Y5275003D01*
X29181044Y5197205D01*
X29247205Y5131044D01*
X29325003Y5079061D01*
X29411448Y5043254D01*
X29503217Y5025000D01*
X29596783Y5025000D01*
X29688552Y5043254D01*
X29774997Y5079061D01*
X29852795Y5131044D01*
X29918956Y5197205D01*
X29970939Y5275003D01*
X30006746Y5361448D01*
X30025000Y5453217D01*
X30025000Y5546783D01*
X30006746Y5638552D01*
X29970939Y5724997D01*
X29918956Y5802795D01*
X29852795Y5868956D01*
X29774997Y5920939D01*
X29688552Y5956746D01*
X29596783Y5975000D01*
X29503217Y5975000D01*
X29411448Y5956746D01*
X29325003Y5920939D01*
X29247205Y5868956D01*
X29181044Y5802795D01*
X29129061Y5724997D01*
X29093254Y5638552D01*
X29075000Y5546783D01*
X20772018Y5546783D01*
X20798787Y5586845D01*
X20832708Y5668740D01*
X20850002Y5755679D01*
X20850002Y5844321D01*
X20832708Y5931260D01*
X20798787Y6013155D01*
X20749540Y6086858D01*
X20748897Y6087501D01*
X20799538Y6138142D01*
X20848785Y6211845D01*
X20865813Y6252954D01*
X20871504Y6250597D01*
X20958443Y6233303D01*
X21047085Y6233303D01*
X21134024Y6250597D01*
X21215919Y6284518D01*
X21289622Y6333765D01*
X21352302Y6396445D01*
X21401549Y6470148D01*
X21435470Y6552043D01*
X21443884Y6594345D01*
X26750000Y6594345D01*
X26750000Y6505703D01*
X26767294Y6418764D01*
X26801215Y6336869D01*
X26850462Y6263166D01*
X26913142Y6200486D01*
X26986845Y6151239D01*
X27068740Y6117318D01*
X27155679Y6100024D01*
X27244321Y6100024D01*
X27331260Y6117318D01*
X27413155Y6151239D01*
X27486858Y6200486D01*
X27549538Y6263166D01*
X27598785Y6336869D01*
X27632706Y6418764D01*
X27650000Y6505703D01*
X27650000Y6594345D01*
X27632706Y6681284D01*
X27598785Y6763179D01*
X27549538Y6836882D01*
X27542110Y6844310D01*
X27651218Y6844310D01*
X27651218Y6755668D01*
X27668512Y6668729D01*
X27702433Y6586834D01*
X27751680Y6513131D01*
X27814360Y6450451D01*
X27888063Y6401204D01*
X27969958Y6367283D01*
X28056897Y6349989D01*
X28145539Y6349989D01*
X28232478Y6367283D01*
X28314373Y6401204D01*
X28388076Y6450451D01*
X28391270Y6453645D01*
X30269976Y6453645D01*
X30269976Y6365003D01*
X30287270Y6278064D01*
X30321191Y6196169D01*
X30370438Y6122466D01*
X30433118Y6059786D01*
X30506821Y6010539D01*
X30588716Y5976618D01*
X30675655Y5959324D01*
X30764297Y5959324D01*
X30851236Y5976618D01*
X30933131Y6010539D01*
X31006834Y6059786D01*
X31069514Y6122466D01*
X31118761Y6196169D01*
X31152682Y6278064D01*
X31169976Y6365003D01*
X31169976Y6453645D01*
X31169697Y6455048D01*
X31231260Y6467294D01*
X31313155Y6501215D01*
X31386858Y6550462D01*
X31449538Y6613142D01*
X31457065Y6624407D01*
X36813270Y6624407D01*
X36813270Y6461913D01*
X36844971Y6302543D01*
X36907155Y6152419D01*
X36997431Y6017311D01*
X37112331Y5902411D01*
X37247439Y5812135D01*
X37397563Y5749951D01*
X37556933Y5718250D01*
X37719427Y5718250D01*
X37878797Y5749951D01*
X38028921Y5812135D01*
X38164029Y5902411D01*
X38251561Y5989943D01*
X38253251Y5981445D01*
X38289058Y5895000D01*
X38341041Y5817202D01*
X38407202Y5751041D01*
X38485000Y5699058D01*
X38571445Y5663251D01*
X38663214Y5644997D01*
X38756780Y5644997D01*
X38848549Y5663251D01*
X38934994Y5699058D01*
X39012792Y5751041D01*
X39078953Y5817202D01*
X39130936Y5895000D01*
X39166743Y5981445D01*
X39184997Y6073214D01*
X39184997Y6166780D01*
X39166743Y6258549D01*
X39130936Y6344994D01*
X39078953Y6422792D01*
X39012792Y6488953D01*
X38934994Y6540936D01*
X38848549Y6576743D01*
X38756780Y6594997D01*
X38663214Y6594997D01*
X38571445Y6576743D01*
X38485000Y6540936D01*
X38463090Y6526296D01*
X38463090Y6624407D01*
X38431389Y6783777D01*
X38369205Y6933901D01*
X38278929Y7069009D01*
X38164029Y7183909D01*
X38028921Y7274185D01*
X37878797Y7336369D01*
X37719427Y7368070D01*
X37556933Y7368070D01*
X37397563Y7336369D01*
X37247439Y7274185D01*
X37112331Y7183909D01*
X36997431Y7069009D01*
X36907155Y6933901D01*
X36844971Y6783777D01*
X36813270Y6624407D01*
X31457065Y6624407D01*
X31498785Y6686845D01*
X31532706Y6768740D01*
X31550000Y6855679D01*
X31550000Y6944321D01*
X31532706Y7031260D01*
X31498785Y7113155D01*
X31449538Y7186858D01*
X31386858Y7249538D01*
X31313155Y7298785D01*
X31231260Y7332706D01*
X31144321Y7350000D01*
X31055679Y7350000D01*
X30968740Y7332706D01*
X30886845Y7298785D01*
X30813142Y7249538D01*
X30750462Y7186858D01*
X30701215Y7113155D01*
X30667294Y7031260D01*
X30650000Y6944321D01*
X30650000Y6855679D01*
X30650279Y6854276D01*
X30588716Y6842030D01*
X30506821Y6808109D01*
X30433118Y6758862D01*
X30370438Y6696182D01*
X30321191Y6622479D01*
X30287270Y6540584D01*
X30269976Y6453645D01*
X28391270Y6453645D01*
X28450756Y6513131D01*
X28500003Y6586834D01*
X28533924Y6668729D01*
X28551218Y6755668D01*
X28551218Y6844310D01*
X28533924Y6931249D01*
X28500003Y7013144D01*
X28450756Y7086847D01*
X28388076Y7149527D01*
X28314373Y7198774D01*
X28232478Y7232695D01*
X28145539Y7249989D01*
X28056897Y7249989D01*
X27969958Y7232695D01*
X27888063Y7198774D01*
X27814360Y7149527D01*
X27751680Y7086847D01*
X27702433Y7013144D01*
X27668512Y6931249D01*
X27651218Y6844310D01*
X27542110Y6844310D01*
X27486858Y6899562D01*
X27413155Y6948809D01*
X27331260Y6982730D01*
X27244321Y7000024D01*
X27155679Y7000024D01*
X27068740Y6982730D01*
X26986845Y6948809D01*
X26913142Y6899562D01*
X26850462Y6836882D01*
X26801215Y6763179D01*
X26767294Y6681284D01*
X26750000Y6594345D01*
X21443884Y6594345D01*
X21452764Y6638982D01*
X21452764Y6727624D01*
X21435470Y6814563D01*
X21418718Y6855007D01*
X21486746Y6900462D01*
X21549426Y6963142D01*
X21598673Y7036845D01*
X21632594Y7118740D01*
X21649888Y7205679D01*
X21649888Y7294321D01*
X21632594Y7381260D01*
X21598673Y7463155D01*
X21549426Y7536858D01*
X21511340Y7574944D01*
X21549538Y7613142D01*
X21598785Y7686845D01*
X21632706Y7768740D01*
X21650000Y7855679D01*
X21650000Y7944321D01*
X21632706Y8031260D01*
X21598785Y8113155D01*
X21577849Y8144488D01*
X21650169Y8144488D01*
X21650169Y8055846D01*
X21667463Y7968907D01*
X21701384Y7887012D01*
X21750631Y7813309D01*
X21813311Y7750629D01*
X21887014Y7701382D01*
X21968909Y7667461D01*
X22055848Y7650167D01*
X22144490Y7650167D01*
X22231429Y7667461D01*
X22313324Y7701382D01*
X22387027Y7750629D01*
X22449707Y7813309D01*
X22487139Y7869331D01*
X25475000Y7869331D01*
X25475000Y7780689D01*
X25492294Y7693750D01*
X25526215Y7611855D01*
X25575462Y7538152D01*
X25638142Y7475472D01*
X25711845Y7426225D01*
X25793740Y7392304D01*
X25880679Y7375010D01*
X25969321Y7375010D01*
X26056260Y7392304D01*
X26138155Y7426225D01*
X26211858Y7475472D01*
X26274538Y7538152D01*
X26312168Y7594469D01*
X26317286Y7568740D01*
X26351207Y7486845D01*
X26400454Y7413142D01*
X26463134Y7350462D01*
X26536837Y7301215D01*
X26618732Y7267294D01*
X26705671Y7250000D01*
X26794313Y7250000D01*
X26881252Y7267294D01*
X26963147Y7301215D01*
X27036850Y7350462D01*
X27099530Y7413142D01*
X27148777Y7486845D01*
X27182698Y7568740D01*
X27199992Y7655679D01*
X27199992Y7744321D01*
X27182698Y7831260D01*
X27156574Y7894333D01*
X27599974Y7894333D01*
X27599974Y7805691D01*
X27617268Y7718752D01*
X27651189Y7636857D01*
X27700436Y7563154D01*
X27763116Y7500474D01*
X27836819Y7451227D01*
X27918714Y7417306D01*
X28005653Y7400012D01*
X28094295Y7400012D01*
X28181234Y7417306D01*
X28263129Y7451227D01*
X28336832Y7500474D01*
X28399512Y7563154D01*
X28448759Y7636857D01*
X28482680Y7718752D01*
X28492741Y7769331D01*
X31450000Y7769331D01*
X31450000Y7680689D01*
X31467294Y7593750D01*
X31501215Y7511855D01*
X31550462Y7438152D01*
X31613142Y7375472D01*
X31686845Y7326225D01*
X31768740Y7292304D01*
X31855679Y7275010D01*
X31944321Y7275010D01*
X32031260Y7292304D01*
X32113155Y7326225D01*
X32186858Y7375472D01*
X32249538Y7438152D01*
X32298785Y7511855D01*
X32332706Y7593750D01*
X32350000Y7680689D01*
X32350000Y7769331D01*
X32332706Y7856270D01*
X32298785Y7938165D01*
X32249538Y8011868D01*
X32186858Y8074548D01*
X32113155Y8123795D01*
X32031260Y8157716D01*
X31944321Y8175010D01*
X31855679Y8175010D01*
X31768740Y8157716D01*
X31686845Y8123795D01*
X31613142Y8074548D01*
X31550462Y8011868D01*
X31501215Y7938165D01*
X31467294Y7856270D01*
X31450000Y7769331D01*
X28492741Y7769331D01*
X28499974Y7805691D01*
X28499974Y7894333D01*
X28482680Y7981272D01*
X28448759Y8063167D01*
X28399512Y8136870D01*
X28336832Y8199550D01*
X28263129Y8248797D01*
X28181234Y8282718D01*
X28094295Y8300012D01*
X28005653Y8300012D01*
X27918714Y8282718D01*
X27836819Y8248797D01*
X27763116Y8199550D01*
X27700436Y8136870D01*
X27651189Y8063167D01*
X27617268Y7981272D01*
X27599974Y7894333D01*
X27156574Y7894333D01*
X27148777Y7913155D01*
X27099530Y7986858D01*
X27036850Y8049538D01*
X26963147Y8098785D01*
X26881252Y8132706D01*
X26794313Y8150000D01*
X26705671Y8150000D01*
X26618732Y8132706D01*
X26536837Y8098785D01*
X26463134Y8049538D01*
X26400454Y7986858D01*
X26362824Y7930541D01*
X26357706Y7956270D01*
X26323785Y8038165D01*
X26274538Y8111868D01*
X26211858Y8174548D01*
X26138155Y8223795D01*
X26056260Y8257716D01*
X25969321Y8275010D01*
X25880679Y8275010D01*
X25793740Y8257716D01*
X25711845Y8223795D01*
X25638142Y8174548D01*
X25575462Y8111868D01*
X25526215Y8038165D01*
X25492294Y7956270D01*
X25475000Y7869331D01*
X22487139Y7869331D01*
X22498954Y7887012D01*
X22532875Y7968907D01*
X22550169Y8055846D01*
X22550169Y8144488D01*
X22532875Y8231427D01*
X22498954Y8313322D01*
X22449707Y8387025D01*
X22387027Y8449705D01*
X22313324Y8498952D01*
X22231429Y8532873D01*
X22144490Y8550167D01*
X22055848Y8550167D01*
X21968909Y8532873D01*
X21887014Y8498952D01*
X21813311Y8449705D01*
X21750631Y8387025D01*
X21701384Y8313322D01*
X21667463Y8231427D01*
X21650169Y8144488D01*
X21577849Y8144488D01*
X21549538Y8186858D01*
X21486858Y8249538D01*
X21413155Y8298785D01*
X21331260Y8332706D01*
X21244321Y8350000D01*
X21155679Y8350000D01*
X21068740Y8332706D01*
X20986845Y8298785D01*
X20913142Y8249538D01*
X20850462Y8186858D01*
X20801215Y8113155D01*
X20767294Y8031260D01*
X20750000Y7944321D01*
X20750000Y7855679D01*
X20767294Y7768740D01*
X20801215Y7686845D01*
X20850462Y7613142D01*
X20888548Y7575056D01*
X20850350Y7536858D01*
X20801103Y7463155D01*
X20767182Y7381260D01*
X20749888Y7294321D01*
X20749888Y7205679D01*
X20767182Y7118740D01*
X20783934Y7078296D01*
X20715906Y7032841D01*
X20653226Y6970161D01*
X20603979Y6896458D01*
X20586951Y6855349D01*
X20581260Y6857706D01*
X20494321Y6875000D01*
X20405679Y6875000D01*
X20318740Y6857706D01*
X20236845Y6823785D01*
X20163142Y6774538D01*
X20100462Y6711858D01*
X20051215Y6638155D01*
X20017294Y6556260D01*
X20000000Y6469321D01*
X20000000Y6380679D01*
X20017294Y6293740D01*
X20051215Y6211845D01*
X20100462Y6138142D01*
X20101105Y6137499D01*
X20050464Y6086858D01*
X20001217Y6013155D01*
X19967296Y5931260D01*
X19950002Y5844321D01*
X19950002Y5775004D01*
X19930679Y5775004D01*
X19843740Y5757710D01*
X19761845Y5723789D01*
X19688142Y5674542D01*
X19625462Y5611862D01*
X19576215Y5538159D01*
X19542294Y5456264D01*
X19525000Y5369325D01*
X12375000Y5369325D01*
X12375000Y6600000D01*
X12373559Y6614632D01*
X12369291Y6628701D01*
X12362360Y6641668D01*
X12353033Y6653033D01*
X12341668Y6662360D01*
X12328701Y6669291D01*
X12314632Y6673559D01*
X12300000Y6675000D01*
X375000Y6675000D01*
X375000Y7355583D01*
X386856Y7337839D01*
X487839Y7236856D01*
X606584Y7157513D01*
X738525Y7102861D01*
X878594Y7075000D01*
X1021406Y7075000D01*
X1161475Y7102861D01*
X1293416Y7157513D01*
X1412161Y7236856D01*
X1513144Y7337839D01*
X1592487Y7456584D01*
X1647139Y7588525D01*
X1675000Y7728594D01*
X1675000Y7871406D01*
X1664340Y7925000D01*
X8400000Y7925000D01*
X8414632Y7926441D01*
X8428701Y7930709D01*
X8441668Y7937640D01*
X8453033Y7946967D01*
X8462360Y7958332D01*
X8469291Y7971299D01*
X8473559Y7985368D01*
X8475000Y8000000D01*
X8475000Y9594321D01*
X18700000Y9594321D01*
X18700000Y9505679D01*
X18717294Y9418740D01*
X18751215Y9336845D01*
X18800462Y9263142D01*
X18863142Y9200462D01*
X18936845Y9151215D01*
X19018740Y9117294D01*
X19105679Y9100000D01*
X19194321Y9100000D01*
X19281260Y9117294D01*
X19363155Y9151215D01*
X19436858Y9200462D01*
X19499538Y9263142D01*
X19518056Y9290857D01*
X20205817Y9290857D01*
X20205817Y9202215D01*
X20223111Y9115276D01*
X20257032Y9033381D01*
X20306279Y8959678D01*
X20368959Y8896998D01*
X20442662Y8847751D01*
X20524557Y8813830D01*
X20611496Y8796536D01*
X20700138Y8796536D01*
X20787077Y8813830D01*
X20868972Y8847751D01*
X20942675Y8896998D01*
X20989998Y8944321D01*
X22675000Y8944321D01*
X22675000Y8855679D01*
X22692294Y8768740D01*
X22726215Y8686845D01*
X22775462Y8613142D01*
X22838142Y8550462D01*
X22911845Y8501215D01*
X22993740Y8467294D01*
X23080679Y8450000D01*
X23151131Y8450000D01*
X23167294Y8368748D01*
X23201215Y8286853D01*
X23250462Y8213150D01*
X23313142Y8150470D01*
X23386845Y8101223D01*
X23468740Y8067302D01*
X23555679Y8050008D01*
X23644321Y8050008D01*
X23731260Y8067302D01*
X23813155Y8101223D01*
X23886858Y8150470D01*
X23924990Y8188602D01*
X23963130Y8150462D01*
X24036833Y8101215D01*
X24118728Y8067294D01*
X24205667Y8050000D01*
X24294309Y8050000D01*
X24381248Y8067294D01*
X24463143Y8101215D01*
X24536846Y8150462D01*
X24599526Y8213142D01*
X24648773Y8286845D01*
X24682694Y8368740D01*
X24699988Y8455679D01*
X24699988Y8544321D01*
X24682694Y8631260D01*
X24648773Y8713155D01*
X24599526Y8786858D01*
X24592063Y8794321D01*
X24750000Y8794321D01*
X24750000Y8705679D01*
X24767294Y8618740D01*
X24801215Y8536845D01*
X24850462Y8463142D01*
X24913142Y8400462D01*
X24986845Y8351215D01*
X25068740Y8317294D01*
X25155679Y8300000D01*
X25244321Y8300000D01*
X25331260Y8317294D01*
X25413155Y8351215D01*
X25486858Y8400462D01*
X25549538Y8463142D01*
X25598785Y8536845D01*
X25632706Y8618740D01*
X25650000Y8705679D01*
X25650000Y8794321D01*
X25648590Y8801410D01*
X25655679Y8800000D01*
X25744321Y8800000D01*
X25831260Y8817294D01*
X25913155Y8851215D01*
X25986858Y8900462D01*
X26049538Y8963142D01*
X26098785Y9036845D01*
X26132706Y9118740D01*
X26150000Y9205679D01*
X26150000Y9246783D01*
X36925000Y9246783D01*
X36925000Y9153217D01*
X36943254Y9061448D01*
X36979061Y8975003D01*
X37031044Y8897205D01*
X37097205Y8831044D01*
X37106250Y8825000D01*
X37097205Y8818956D01*
X37031044Y8752795D01*
X36979061Y8674997D01*
X36943254Y8588552D01*
X36925000Y8496783D01*
X36925000Y8403217D01*
X36943254Y8311448D01*
X36979061Y8225003D01*
X37031044Y8147205D01*
X37097205Y8081044D01*
X37175003Y8029061D01*
X37261448Y7993254D01*
X37353217Y7975000D01*
X37446783Y7975000D01*
X37538552Y7993254D01*
X37624997Y8029061D01*
X37702795Y8081044D01*
X37768956Y8147205D01*
X37820939Y8225003D01*
X37856746Y8311448D01*
X37875000Y8403217D01*
X37875000Y8496783D01*
X37872319Y8510264D01*
X37881044Y8497205D01*
X37947205Y8431044D01*
X38025003Y8379061D01*
X38111448Y8343254D01*
X38203217Y8325000D01*
X38296783Y8325000D01*
X38388552Y8343254D01*
X38474997Y8379061D01*
X38552795Y8431044D01*
X38618956Y8497205D01*
X38670939Y8575003D01*
X38706746Y8661448D01*
X38725000Y8753217D01*
X38725000Y8846783D01*
X38706746Y8938552D01*
X38670939Y9024997D01*
X38618956Y9102795D01*
X38552795Y9168956D01*
X38474997Y9220939D01*
X38388552Y9256746D01*
X38296783Y9275000D01*
X38203217Y9275000D01*
X38111448Y9256746D01*
X38025003Y9220939D01*
X37947205Y9168956D01*
X37881044Y9102795D01*
X37858157Y9068542D01*
X37875000Y9153217D01*
X37875000Y9246783D01*
X37856746Y9338552D01*
X37820939Y9424997D01*
X37768956Y9502795D01*
X37702795Y9568956D01*
X37624997Y9620939D01*
X37538552Y9656746D01*
X37446783Y9675000D01*
X37353217Y9675000D01*
X37261448Y9656746D01*
X37175003Y9620939D01*
X37097205Y9568956D01*
X37031044Y9502795D01*
X36979061Y9424997D01*
X36943254Y9338552D01*
X36925000Y9246783D01*
X26150000Y9246783D01*
X26150000Y9294321D01*
X26132706Y9381260D01*
X26098785Y9463155D01*
X26049538Y9536858D01*
X25986858Y9599538D01*
X25913155Y9648785D01*
X25831260Y9682706D01*
X25744321Y9700000D01*
X25655679Y9700000D01*
X25568740Y9682706D01*
X25486845Y9648785D01*
X25413142Y9599538D01*
X25350462Y9536858D01*
X25301215Y9463155D01*
X25267294Y9381260D01*
X25250000Y9294321D01*
X25250000Y9205679D01*
X25251410Y9198590D01*
X25244321Y9200000D01*
X25155679Y9200000D01*
X25068740Y9182706D01*
X24986845Y9148785D01*
X24913142Y9099538D01*
X24850462Y9036858D01*
X24801215Y8963155D01*
X24767294Y8881260D01*
X24750000Y8794321D01*
X24592063Y8794321D01*
X24536846Y8849538D01*
X24463143Y8898785D01*
X24381248Y8932706D01*
X24294309Y8950000D01*
X24205667Y8950000D01*
X24118728Y8932706D01*
X24036833Y8898785D01*
X23963130Y8849538D01*
X23924998Y8811406D01*
X23893380Y8843024D01*
X23913155Y8851215D01*
X23986858Y8900462D01*
X24049538Y8963142D01*
X24098785Y9036845D01*
X24132706Y9118740D01*
X24150000Y9205679D01*
X24150000Y9294321D01*
X24132706Y9381260D01*
X24098785Y9463155D01*
X24049538Y9536858D01*
X23986858Y9599538D01*
X23913155Y9648785D01*
X23831260Y9682706D01*
X23744321Y9700000D01*
X23655679Y9700000D01*
X23568740Y9682706D01*
X23486845Y9648785D01*
X23413142Y9599538D01*
X23350462Y9536858D01*
X23301215Y9463155D01*
X23267294Y9381260D01*
X23257531Y9332180D01*
X23256260Y9332706D01*
X23169321Y9350000D01*
X23080679Y9350000D01*
X22993740Y9332706D01*
X22911845Y9298785D01*
X22838142Y9249538D01*
X22775462Y9186858D01*
X22726215Y9113155D01*
X22692294Y9031260D01*
X22675000Y8944321D01*
X20989998Y8944321D01*
X21005355Y8959678D01*
X21054602Y9033381D01*
X21088523Y9115276D01*
X21105817Y9202215D01*
X21105817Y9290857D01*
X21088523Y9377796D01*
X21054602Y9459691D01*
X21005355Y9533394D01*
X20942675Y9596074D01*
X20868972Y9645321D01*
X20787077Y9679242D01*
X20700138Y9696536D01*
X20611496Y9696536D01*
X20524557Y9679242D01*
X20442662Y9645321D01*
X20368959Y9596074D01*
X20306279Y9533394D01*
X20257032Y9459691D01*
X20223111Y9377796D01*
X20205817Y9290857D01*
X19518056Y9290857D01*
X19548785Y9336845D01*
X19582706Y9418740D01*
X19600000Y9505679D01*
X19600000Y9594321D01*
X19582706Y9681260D01*
X19548785Y9763155D01*
X19499538Y9836858D01*
X19436858Y9899538D01*
X19363155Y9948785D01*
X19281260Y9982706D01*
X19222871Y9994321D01*
X21450000Y9994321D01*
X21450000Y9905679D01*
X21467294Y9818740D01*
X21501215Y9736845D01*
X21550462Y9663142D01*
X21613142Y9600462D01*
X21686845Y9551215D01*
X21768740Y9517294D01*
X21855679Y9500000D01*
X21944321Y9500000D01*
X22031260Y9517294D01*
X22113155Y9551215D01*
X22186858Y9600462D01*
X22249538Y9663142D01*
X22298785Y9736845D01*
X22332706Y9818740D01*
X22350000Y9905679D01*
X22350000Y9994321D01*
X22332706Y10081260D01*
X22327297Y10094321D01*
X22549980Y10094321D01*
X22549980Y10005679D01*
X22567274Y9918740D01*
X22601195Y9836845D01*
X22650442Y9763142D01*
X22713122Y9700462D01*
X22786825Y9651215D01*
X22868720Y9617294D01*
X22955659Y9600000D01*
X23044301Y9600000D01*
X23131240Y9617294D01*
X23213135Y9651215D01*
X23286838Y9700462D01*
X23349518Y9763142D01*
X23398765Y9836845D01*
X23432686Y9918740D01*
X23449980Y10005679D01*
X23449980Y10094321D01*
X23432686Y10181260D01*
X23406567Y10244321D01*
X26431816Y10244321D01*
X26431816Y10155679D01*
X26449110Y10068740D01*
X26483031Y9986845D01*
X26532278Y9913142D01*
X26594958Y9850462D01*
X26668661Y9801215D01*
X26750556Y9767294D01*
X26837495Y9750000D01*
X26926137Y9750000D01*
X27013076Y9767294D01*
X27094971Y9801215D01*
X27168674Y9850462D01*
X27231354Y9913142D01*
X27280601Y9986845D01*
X27314522Y10068740D01*
X27331816Y10155679D01*
X27331816Y10244321D01*
X27314522Y10331260D01*
X27309113Y10344321D01*
X29600000Y10344321D01*
X29600000Y10255679D01*
X29617294Y10168740D01*
X29651215Y10086845D01*
X29700462Y10013142D01*
X29763142Y9950462D01*
X29836845Y9901215D01*
X29918740Y9867294D01*
X30005679Y9850000D01*
X30094321Y9850000D01*
X30181260Y9867294D01*
X30263155Y9901215D01*
X30336858Y9950462D01*
X30399538Y10013142D01*
X30448785Y10086845D01*
X30482706Y10168740D01*
X30500000Y10255679D01*
X30500000Y10344321D01*
X30490054Y10394321D01*
X32750000Y10394321D01*
X32750000Y10305679D01*
X32767294Y10218740D01*
X32801215Y10136845D01*
X32850462Y10063142D01*
X32913142Y10000462D01*
X32986845Y9951215D01*
X33068740Y9917294D01*
X33155679Y9900000D01*
X33244321Y9900000D01*
X33331260Y9917294D01*
X33413155Y9951215D01*
X33486858Y10000462D01*
X33549538Y10063142D01*
X33598785Y10136845D01*
X33632706Y10218740D01*
X33650000Y10305679D01*
X33650000Y10394321D01*
X33632706Y10481260D01*
X33598785Y10563155D01*
X33549538Y10636858D01*
X33486858Y10699538D01*
X33413155Y10748785D01*
X33331260Y10782706D01*
X33244321Y10800000D01*
X33155679Y10800000D01*
X33068740Y10782706D01*
X32986845Y10748785D01*
X32913142Y10699538D01*
X32850462Y10636858D01*
X32801215Y10563155D01*
X32767294Y10481260D01*
X32750000Y10394321D01*
X30490054Y10394321D01*
X30482706Y10431260D01*
X30448785Y10513155D01*
X30399538Y10586858D01*
X30336858Y10649538D01*
X30263155Y10698785D01*
X30181260Y10732706D01*
X30094321Y10750000D01*
X30005679Y10750000D01*
X29918740Y10732706D01*
X29836845Y10698785D01*
X29763142Y10649538D01*
X29700462Y10586858D01*
X29651215Y10513155D01*
X29617294Y10431260D01*
X29600000Y10344321D01*
X27309113Y10344321D01*
X27280601Y10413155D01*
X27231354Y10486858D01*
X27168674Y10549538D01*
X27094971Y10598785D01*
X27013076Y10632706D01*
X26926137Y10650000D01*
X26837495Y10650000D01*
X26750556Y10632706D01*
X26668661Y10598785D01*
X26594958Y10549538D01*
X26532278Y10486858D01*
X26483031Y10413155D01*
X26449110Y10331260D01*
X26431816Y10244321D01*
X23406567Y10244321D01*
X23398765Y10263155D01*
X23349518Y10336858D01*
X23286838Y10399538D01*
X23213135Y10448785D01*
X23131240Y10482706D01*
X23044301Y10500000D01*
X22955659Y10500000D01*
X22868720Y10482706D01*
X22786825Y10448785D01*
X22713122Y10399538D01*
X22650442Y10336858D01*
X22601195Y10263155D01*
X22567274Y10181260D01*
X22549980Y10094321D01*
X22327297Y10094321D01*
X22298785Y10163155D01*
X22249538Y10236858D01*
X22186858Y10299538D01*
X22113155Y10348785D01*
X22031260Y10382706D01*
X21944321Y10400000D01*
X21855679Y10400000D01*
X21768740Y10382706D01*
X21686845Y10348785D01*
X21613142Y10299538D01*
X21550462Y10236858D01*
X21501215Y10163155D01*
X21467294Y10081260D01*
X21450000Y9994321D01*
X19222871Y9994321D01*
X19194321Y10000000D01*
X19105679Y10000000D01*
X19018740Y9982706D01*
X18936845Y9948785D01*
X18863142Y9899538D01*
X18800462Y9836858D01*
X18751215Y9763155D01*
X18717294Y9681260D01*
X18700000Y9594321D01*
X8475000Y9594321D01*
X8475000Y11694321D01*
X30600000Y11694321D01*
X30600000Y11605679D01*
X30617294Y11518740D01*
X30651215Y11436845D01*
X30700462Y11363142D01*
X30763142Y11300462D01*
X30836845Y11251215D01*
X30918740Y11217294D01*
X31005679Y11200000D01*
X31094321Y11200000D01*
X31181260Y11217294D01*
X31263155Y11251215D01*
X31336858Y11300462D01*
X31380717Y11344321D01*
X31850000Y11344321D01*
X31850000Y11255679D01*
X31867294Y11168740D01*
X31901215Y11086845D01*
X31950462Y11013142D01*
X32013142Y10950462D01*
X32086845Y10901215D01*
X32168740Y10867294D01*
X32255679Y10850000D01*
X32344321Y10850000D01*
X32431260Y10867294D01*
X32513155Y10901215D01*
X32586858Y10950462D01*
X32649538Y11013142D01*
X32698785Y11086845D01*
X32714707Y11125287D01*
X36813270Y11125287D01*
X36813270Y10962793D01*
X36844971Y10803423D01*
X36907155Y10653299D01*
X36997431Y10518191D01*
X37112331Y10403291D01*
X37247439Y10313015D01*
X37397563Y10250831D01*
X37556933Y10219130D01*
X37719427Y10219130D01*
X37878797Y10250831D01*
X38028921Y10313015D01*
X38164029Y10403291D01*
X38278929Y10518191D01*
X38369205Y10653299D01*
X38431389Y10803423D01*
X38463090Y10962793D01*
X38463090Y11125287D01*
X38431389Y11284657D01*
X38369205Y11434781D01*
X38278929Y11569889D01*
X38164029Y11684789D01*
X38028921Y11775065D01*
X37878797Y11837249D01*
X37719427Y11868950D01*
X37556933Y11868950D01*
X37397563Y11837249D01*
X37247439Y11775065D01*
X37112331Y11684789D01*
X36997431Y11569889D01*
X36907155Y11434781D01*
X36844971Y11284657D01*
X36813270Y11125287D01*
X32714707Y11125287D01*
X32732706Y11168740D01*
X32750000Y11255679D01*
X32750000Y11344321D01*
X32732706Y11431260D01*
X32698785Y11513155D01*
X32649538Y11586858D01*
X32586858Y11649538D01*
X32513155Y11698785D01*
X32431260Y11732706D01*
X32344321Y11750000D01*
X32255679Y11750000D01*
X32168740Y11732706D01*
X32086845Y11698785D01*
X32013142Y11649538D01*
X31950462Y11586858D01*
X31901215Y11513155D01*
X31867294Y11431260D01*
X31850000Y11344321D01*
X31380717Y11344321D01*
X31399538Y11363142D01*
X31448785Y11436845D01*
X31482706Y11518740D01*
X31500000Y11605679D01*
X31500000Y11694321D01*
X31482706Y11781260D01*
X31448785Y11863155D01*
X31399538Y11936858D01*
X31336858Y11999538D01*
X31263155Y12048785D01*
X31181260Y12082706D01*
X31094321Y12100000D01*
X31005679Y12100000D01*
X30918740Y12082706D01*
X30836845Y12048785D01*
X30763142Y11999538D01*
X30700462Y11936858D01*
X30651215Y11863155D01*
X30617294Y11781260D01*
X30600000Y11694321D01*
X8475000Y11694321D01*
X8475000Y14146783D01*
X31175000Y14146783D01*
X31175000Y14053217D01*
X31193254Y13961448D01*
X31229061Y13875003D01*
X31281044Y13797205D01*
X31303249Y13775000D01*
X31281044Y13752795D01*
X31229061Y13674997D01*
X31193254Y13588552D01*
X31175000Y13496783D01*
X31175000Y13403217D01*
X31193254Y13311448D01*
X31229061Y13225003D01*
X31281044Y13147205D01*
X31347205Y13081044D01*
X31425003Y13029061D01*
X31511448Y12993254D01*
X31603217Y12975000D01*
X31696783Y12975000D01*
X31788552Y12993254D01*
X31874997Y13029061D01*
X31952795Y13081044D01*
X32018956Y13147205D01*
X32070939Y13225003D01*
X32100671Y13296783D01*
X35375000Y13296783D01*
X35375000Y13203217D01*
X35393254Y13111448D01*
X35429061Y13025003D01*
X35481044Y12947205D01*
X35547205Y12881044D01*
X35625003Y12829061D01*
X35711448Y12793254D01*
X35803217Y12775000D01*
X35896783Y12775000D01*
X35988552Y12793254D01*
X36074997Y12829061D01*
X36152795Y12881044D01*
X36175000Y12903249D01*
X36197205Y12881044D01*
X36275003Y12829061D01*
X36361448Y12793254D01*
X36453217Y12775000D01*
X36546783Y12775000D01*
X36638552Y12793254D01*
X36724997Y12829061D01*
X36802795Y12881044D01*
X36868956Y12947205D01*
X36920939Y13025003D01*
X36956746Y13111448D01*
X36975000Y13203217D01*
X36975000Y13296783D01*
X36956746Y13388552D01*
X36920939Y13474997D01*
X36892346Y13517790D01*
X38685593Y13517790D01*
X38828915Y13531906D01*
X39012811Y13587690D01*
X39182290Y13678279D01*
X39330840Y13800190D01*
X39452751Y13948740D01*
X39543340Y14118219D01*
X39599124Y14302115D01*
X39617960Y14493360D01*
X39599124Y14684605D01*
X39543340Y14868501D01*
X39452751Y15037980D01*
X39330840Y15186530D01*
X39182290Y15308441D01*
X39012811Y15399030D01*
X38828915Y15454814D01*
X38685593Y15468930D01*
X36590767Y15468930D01*
X36447445Y15454814D01*
X36263549Y15399030D01*
X36094070Y15308441D01*
X35945520Y15186530D01*
X35823609Y15037980D01*
X35733020Y14868501D01*
X35677236Y14684605D01*
X35658400Y14493360D01*
X35677236Y14302115D01*
X35733020Y14118219D01*
X35823609Y13948740D01*
X35945520Y13800190D01*
X36094070Y13678279D01*
X36200694Y13621287D01*
X36197205Y13618956D01*
X36175000Y13596751D01*
X36152795Y13618956D01*
X36074997Y13670939D01*
X35988552Y13706746D01*
X35896783Y13725000D01*
X35803217Y13725000D01*
X35711448Y13706746D01*
X35625003Y13670939D01*
X35547205Y13618956D01*
X35481044Y13552795D01*
X35429061Y13474997D01*
X35393254Y13388552D01*
X35375000Y13296783D01*
X32100671Y13296783D01*
X32106746Y13311448D01*
X32125000Y13403217D01*
X32125000Y13496783D01*
X32106746Y13588552D01*
X32070939Y13674997D01*
X32018956Y13752795D01*
X31996751Y13775000D01*
X32018956Y13797205D01*
X32070939Y13875003D01*
X32106746Y13961448D01*
X32125000Y14053217D01*
X32125000Y14146783D01*
X32106746Y14238552D01*
X32070939Y14324997D01*
X32018956Y14402795D01*
X31952795Y14468956D01*
X31874997Y14520939D01*
X31788552Y14556746D01*
X31696783Y14575000D01*
X31603217Y14575000D01*
X31511448Y14556746D01*
X31425003Y14520939D01*
X31347205Y14468956D01*
X31281044Y14402795D01*
X31229061Y14324997D01*
X31193254Y14238552D01*
X31175000Y14146783D01*
X8475000Y14146783D01*
X8475000Y14769321D01*
X23050000Y14769321D01*
X23050000Y14680679D01*
X23067294Y14593740D01*
X23101215Y14511845D01*
X23150462Y14438142D01*
X23213142Y14375462D01*
X23286845Y14326215D01*
X23368740Y14292294D01*
X23455679Y14275000D01*
X23544321Y14275000D01*
X23631260Y14292294D01*
X23713155Y14326215D01*
X23786858Y14375462D01*
X23849538Y14438142D01*
X23898785Y14511845D01*
X23932706Y14593740D01*
X23950000Y14680679D01*
X23950000Y14769321D01*
X23932706Y14856260D01*
X23898785Y14938155D01*
X23861256Y14994321D01*
X27200000Y14994321D01*
X27200000Y14905679D01*
X27217294Y14818740D01*
X27251215Y14736845D01*
X27300462Y14663142D01*
X27363142Y14600462D01*
X27436845Y14551215D01*
X27518740Y14517294D01*
X27605679Y14500000D01*
X27694321Y14500000D01*
X27781260Y14517294D01*
X27863155Y14551215D01*
X27936858Y14600462D01*
X27950000Y14613604D01*
X27963142Y14600462D01*
X28036845Y14551215D01*
X28118740Y14517294D01*
X28205679Y14500000D01*
X28294321Y14500000D01*
X28381260Y14517294D01*
X28463155Y14551215D01*
X28536858Y14600462D01*
X28599538Y14663142D01*
X28648785Y14736845D01*
X28682706Y14818740D01*
X28700000Y14905679D01*
X28700000Y14994321D01*
X28682706Y15081260D01*
X28648785Y15163155D01*
X28599538Y15236858D01*
X28536858Y15299538D01*
X28463155Y15348785D01*
X28381260Y15382706D01*
X28294321Y15400000D01*
X28205679Y15400000D01*
X28118740Y15382706D01*
X28036845Y15348785D01*
X27963142Y15299538D01*
X27950000Y15286396D01*
X27936858Y15299538D01*
X27863155Y15348785D01*
X27781260Y15382706D01*
X27694321Y15400000D01*
X27605679Y15400000D01*
X27518740Y15382706D01*
X27436845Y15348785D01*
X27363142Y15299538D01*
X27300462Y15236858D01*
X27251215Y15163155D01*
X27217294Y15081260D01*
X27200000Y14994321D01*
X23861256Y14994321D01*
X23849538Y15011858D01*
X23786858Y15074538D01*
X23713155Y15123785D01*
X23631260Y15157706D01*
X23544321Y15175000D01*
X23455679Y15175000D01*
X23368740Y15157706D01*
X23286845Y15123785D01*
X23213142Y15074538D01*
X23150462Y15011858D01*
X23101215Y14938155D01*
X23067294Y14856260D01*
X23050000Y14769321D01*
X8475000Y14769321D01*
X8475000Y15494321D01*
X12500000Y15494321D01*
X12500000Y15405679D01*
X12517294Y15318740D01*
X12551215Y15236845D01*
X12600462Y15163142D01*
X12663142Y15100462D01*
X12736845Y15051215D01*
X12818740Y15017294D01*
X12905679Y15000000D01*
X12994321Y15000000D01*
X13081260Y15017294D01*
X13163155Y15051215D01*
X13236858Y15100462D01*
X13299538Y15163142D01*
X13348785Y15236845D01*
X13382706Y15318740D01*
X13400000Y15405679D01*
X13400000Y15494321D01*
X13382706Y15581260D01*
X13348785Y15663155D01*
X13299538Y15736858D01*
X13236858Y15799538D01*
X13163155Y15848785D01*
X13081260Y15882706D01*
X12994321Y15900000D01*
X12905679Y15900000D01*
X12818740Y15882706D01*
X12736845Y15848785D01*
X12663142Y15799538D01*
X12600462Y15736858D01*
X12551215Y15663155D01*
X12517294Y15581260D01*
X12500000Y15494321D01*
X8475000Y15494321D01*
X8475000Y17225000D01*
X27925136Y17225000D01*
X27861845Y17198785D01*
X27861845Y17198785D01*
G37*
X27861845Y17198785D02*
X27788142Y17149538D01*
X27725462Y17086858D01*
X27676215Y17013155D01*
X27642294Y16931260D01*
X27625000Y16844321D01*
X27625000Y16755679D01*
X27642294Y16668740D01*
X27676215Y16586845D01*
X27725462Y16513142D01*
X27788142Y16450462D01*
X27861845Y16401215D01*
X27943740Y16367294D01*
X28030679Y16350000D01*
X28119321Y16350000D01*
X28206260Y16367294D01*
X28288155Y16401215D01*
X28361858Y16450462D01*
X28424538Y16513142D01*
X28473785Y16586845D01*
X28507706Y16668740D01*
X28525000Y16755679D01*
X28525000Y16844321D01*
X28507706Y16931260D01*
X28473785Y17013155D01*
X28424538Y17086858D01*
X28361858Y17149538D01*
X28288155Y17198785D01*
X28224864Y17225000D01*
X28900136Y17225000D01*
X28836845Y17198785D01*
X28763142Y17149538D01*
X28700462Y17086858D01*
X28651215Y17013155D01*
X28617294Y16931260D01*
X28600000Y16844321D01*
X28600000Y16755679D01*
X28617294Y16668740D01*
X28651215Y16586845D01*
X28700462Y16513142D01*
X28763142Y16450462D01*
X28836845Y16401215D01*
X28918740Y16367294D01*
X29005679Y16350000D01*
X29094321Y16350000D01*
X29181260Y16367294D01*
X29263155Y16401215D01*
X29336858Y16450462D01*
X29399538Y16513142D01*
X29448785Y16586845D01*
X29482706Y16668740D01*
X29500000Y16755679D01*
X29500000Y16844321D01*
X29482706Y16931260D01*
X29448785Y17013155D01*
X29399538Y17086858D01*
X29336858Y17149538D01*
X29263155Y17198785D01*
X29199864Y17225000D01*
X31001248Y17225000D01*
X30963142Y17199538D01*
X30900462Y17136858D01*
X30851215Y17063155D01*
X30817294Y16981260D01*
X30800000Y16894321D01*
X30800000Y16805679D01*
X30817294Y16718740D01*
X30851215Y16636845D01*
X30900462Y16563142D01*
X30963142Y16500462D01*
X31036845Y16451215D01*
X31118740Y16417294D01*
X31205679Y16400000D01*
X31294321Y16400000D01*
X31381260Y16417294D01*
X31463155Y16451215D01*
X31536858Y16500462D01*
X31599538Y16563142D01*
X31648785Y16636845D01*
X31682706Y16718740D01*
X31700000Y16805679D01*
X31700000Y16894321D01*
X31682706Y16981260D01*
X31648785Y17063155D01*
X31599538Y17136858D01*
X31536858Y17199538D01*
X31498752Y17225000D01*
X35125001Y17225000D01*
X35125000Y16800305D01*
X35062161Y16863144D01*
X34943416Y16942487D01*
X34811475Y16997139D01*
X34671406Y17025000D01*
X34528594Y17025000D01*
X34388525Y16997139D01*
X34256584Y16942487D01*
X34137839Y16863144D01*
X34036856Y16762161D01*
X33957513Y16643416D01*
X33902861Y16511475D01*
X33875000Y16371406D01*
X33875000Y16228594D01*
X33902861Y16088525D01*
X33957513Y15956584D01*
X34036856Y15837839D01*
X34137839Y15736856D01*
X34256584Y15657513D01*
X34388525Y15602861D01*
X34528594Y15575000D01*
X34671406Y15575000D01*
X34811475Y15602861D01*
X34943416Y15657513D01*
X35062161Y15736856D01*
X35163144Y15837839D01*
X35242487Y15956584D01*
X35297139Y16088525D01*
X35325000Y16228594D01*
X35325000Y16268332D01*
X35355800Y16251869D01*
X35426487Y16230426D01*
X35500000Y16223186D01*
X35518419Y16225000D01*
X39625001Y16225000D01*
X39625000Y1375000D01*
X35518419Y1375000D01*
X35500000Y1376814D01*
X35481581Y1375000D01*
X35426487Y1369574D01*
X35355800Y1348131D01*
X35325000Y1331668D01*
X35325000Y1371406D01*
X35297139Y1511475D01*
X35242487Y1643416D01*
X35163144Y1762161D01*
X35062161Y1863144D01*
X34943416Y1942487D01*
X34811475Y1997139D01*
X34671406Y2025000D01*
X34528594Y2025000D01*
X34388525Y1997139D01*
X34256584Y1942487D01*
X34137839Y1863144D01*
X34036856Y1762161D01*
X33957513Y1643416D01*
X33902861Y1511475D01*
X33875000Y1371406D01*
X33875000Y1228594D01*
X33902861Y1088525D01*
X33957513Y956584D01*
X34036856Y837839D01*
X34137839Y736856D01*
X34256584Y657513D01*
X34388525Y602861D01*
X34528594Y575000D01*
X34671406Y575000D01*
X34811475Y602861D01*
X34943416Y657513D01*
X35062161Y736856D01*
X35125001Y799696D01*
X35125000Y375000D01*
X27114589Y375000D01*
X27132706Y418740D01*
X27150000Y505679D01*
X27150000Y594321D01*
X27132706Y681260D01*
X27098785Y763155D01*
X27049538Y836858D01*
X27011189Y875207D01*
X27056074Y893798D01*
X27129777Y943045D01*
X27131053Y944321D01*
X30775008Y944321D01*
X30775008Y855679D01*
X30792302Y768740D01*
X30826223Y686845D01*
X30875470Y613142D01*
X30938150Y550462D01*
X31011853Y501215D01*
X31093748Y467294D01*
X31180687Y450000D01*
X31269329Y450000D01*
X31356268Y467294D01*
X31438163Y501215D01*
X31511866Y550462D01*
X31574546Y613142D01*
X31623793Y686845D01*
X31657714Y768740D01*
X31675008Y855679D01*
X31675008Y944321D01*
X31657714Y1031260D01*
X31623793Y1113155D01*
X31574546Y1186858D01*
X31511866Y1249538D01*
X31438163Y1298785D01*
X31356268Y1332706D01*
X31269329Y1350000D01*
X31180687Y1350000D01*
X31093748Y1332706D01*
X31011853Y1298785D01*
X30938150Y1249538D01*
X30875470Y1186858D01*
X30826223Y1113155D01*
X30792302Y1031260D01*
X30775008Y944321D01*
X27131053Y944321D01*
X27192457Y1005725D01*
X27241704Y1079428D01*
X27275625Y1161323D01*
X27292919Y1248262D01*
X27292919Y1336904D01*
X27275625Y1423843D01*
X27241704Y1505738D01*
X27192457Y1579441D01*
X27129777Y1642121D01*
X27056074Y1691368D01*
X26974179Y1725289D01*
X26887240Y1742583D01*
X26798598Y1742583D01*
X26711659Y1725289D01*
X26629764Y1691368D01*
X26556061Y1642121D01*
X26493381Y1579441D01*
X26444134Y1505738D01*
X26410213Y1423843D01*
X26392919Y1336904D01*
X26392919Y1248262D01*
X26410213Y1161323D01*
X26444134Y1079428D01*
X26493381Y1005725D01*
X26531730Y967376D01*
X26486845Y948785D01*
X26413142Y899538D01*
X26350462Y836858D01*
X26301215Y763155D01*
X26267294Y681260D01*
X26250000Y594321D01*
X26250000Y505679D01*
X26267294Y418740D01*
X26285411Y375000D01*
X12375000Y375000D01*
X12375000Y1244321D01*
X22150000Y1244321D01*
X22150000Y1155679D01*
X22167294Y1068740D01*
X22201215Y986845D01*
X22250462Y913142D01*
X22313142Y850462D01*
X22386845Y801215D01*
X22468740Y767294D01*
X22555679Y750000D01*
X22644321Y750000D01*
X22731260Y767294D01*
X22813155Y801215D01*
X22886858Y850462D01*
X22949538Y913142D01*
X22950000Y913833D01*
X22950462Y913142D01*
X23013142Y850462D01*
X23086845Y801215D01*
X23168740Y767294D01*
X23255679Y750000D01*
X23344321Y750000D01*
X23431260Y767294D01*
X23513155Y801215D01*
X23586858Y850462D01*
X23649538Y913142D01*
X23698785Y986845D01*
X23732706Y1068740D01*
X23750000Y1155679D01*
X23750000Y1244321D01*
X23732706Y1331260D01*
X23698785Y1413155D01*
X23649538Y1486858D01*
X23586858Y1549538D01*
X23513155Y1598785D01*
X23431260Y1632706D01*
X23344321Y1650000D01*
X23255679Y1650000D01*
X23168740Y1632706D01*
X23086845Y1598785D01*
X23013142Y1549538D01*
X22950462Y1486858D01*
X22950000Y1486167D01*
X22949538Y1486858D01*
X22886858Y1549538D01*
X22813155Y1598785D01*
X22731260Y1632706D01*
X22644321Y1650000D01*
X22555679Y1650000D01*
X22468740Y1632706D01*
X22386845Y1598785D01*
X22313142Y1549538D01*
X22250462Y1486858D01*
X22201215Y1413155D01*
X22167294Y1331260D01*
X22150000Y1244321D01*
X12375000Y1244321D01*
X12375000Y3649216D01*
X20120101Y3649216D01*
X20120101Y3560574D01*
X20137395Y3473635D01*
X20171316Y3391740D01*
X20220563Y3318037D01*
X20251628Y3286972D01*
X20226525Y3261869D01*
X20177278Y3188166D01*
X20143357Y3106271D01*
X20126063Y3019332D01*
X20126063Y2930690D01*
X20143357Y2843751D01*
X20177278Y2761856D01*
X20226525Y2688153D01*
X20264132Y2650546D01*
X20225462Y2611876D01*
X20176215Y2538173D01*
X20142294Y2456278D01*
X20125000Y2369339D01*
X20125000Y2280697D01*
X20142294Y2193758D01*
X20176215Y2111863D01*
X20225462Y2038160D01*
X20288142Y1975480D01*
X20361845Y1926233D01*
X20443740Y1892312D01*
X20530679Y1875018D01*
X20619321Y1875018D01*
X20706260Y1892312D01*
X20788155Y1926233D01*
X20821407Y1948452D01*
X20826215Y1936845D01*
X20875462Y1863142D01*
X20938142Y1800462D01*
X21011845Y1751215D01*
X21093740Y1717294D01*
X21180679Y1700000D01*
X21269321Y1700000D01*
X21356260Y1717294D01*
X21438155Y1751215D01*
X21511858Y1800462D01*
X21574538Y1863142D01*
X21623785Y1936845D01*
X21657706Y2018740D01*
X21675000Y2105679D01*
X21675000Y2194321D01*
X21663334Y2252968D01*
X26304941Y2252968D01*
X26304941Y2164326D01*
X26322235Y2077387D01*
X26356156Y1995492D01*
X26405403Y1921789D01*
X26468083Y1859109D01*
X26541786Y1809862D01*
X26623681Y1775941D01*
X26710620Y1758647D01*
X26799262Y1758647D01*
X26886201Y1775941D01*
X26968096Y1809862D01*
X27041799Y1859109D01*
X27104479Y1921789D01*
X27153726Y1995492D01*
X27187647Y2077387D01*
X27201928Y2149179D01*
X27201928Y2102138D01*
X27219222Y2015199D01*
X27253143Y1933304D01*
X27302390Y1859601D01*
X27365070Y1796921D01*
X27438773Y1747674D01*
X27520668Y1713753D01*
X27607607Y1696459D01*
X27696249Y1696459D01*
X27783188Y1713753D01*
X27865083Y1747674D01*
X27938786Y1796921D01*
X28001466Y1859601D01*
X28050713Y1933304D01*
X28062035Y1960639D01*
X32932661Y1960639D01*
X32932661Y1867073D01*
X32950915Y1775304D01*
X32986722Y1688859D01*
X33038705Y1611061D01*
X33104866Y1544900D01*
X33182664Y1492917D01*
X33269109Y1457110D01*
X33360878Y1438856D01*
X33454444Y1438856D01*
X33546213Y1457110D01*
X33632658Y1492917D01*
X33710456Y1544900D01*
X33776617Y1611061D01*
X33828600Y1688859D01*
X33864407Y1775304D01*
X33882661Y1867073D01*
X33882661Y1960639D01*
X33864407Y2052408D01*
X33828600Y2138853D01*
X33776617Y2216651D01*
X33710456Y2282812D01*
X33632658Y2334795D01*
X33546213Y2370602D01*
X33454444Y2388856D01*
X33360878Y2388856D01*
X33269109Y2370602D01*
X33182664Y2334795D01*
X33104866Y2282812D01*
X33038705Y2216651D01*
X32986722Y2138853D01*
X32950915Y2052408D01*
X32932661Y1960639D01*
X28062035Y1960639D01*
X28084634Y2015199D01*
X28101928Y2102138D01*
X28101928Y2190780D01*
X28084634Y2277719D01*
X28050713Y2359614D01*
X28001466Y2433317D01*
X27938786Y2495997D01*
X27865083Y2545244D01*
X27783188Y2579165D01*
X27696249Y2596459D01*
X27607607Y2596459D01*
X27520668Y2579165D01*
X27438773Y2545244D01*
X27365070Y2495997D01*
X27302390Y2433317D01*
X27253143Y2359614D01*
X27219222Y2277719D01*
X27204941Y2205927D01*
X27204941Y2252968D01*
X27187647Y2339907D01*
X27153726Y2421802D01*
X27104479Y2495505D01*
X27041799Y2558185D01*
X26968096Y2607432D01*
X26886201Y2641353D01*
X26799262Y2658647D01*
X26710620Y2658647D01*
X26623681Y2641353D01*
X26541786Y2607432D01*
X26468083Y2558185D01*
X26405403Y2495505D01*
X26356156Y2421802D01*
X26322235Y2339907D01*
X26304941Y2252968D01*
X21663334Y2252968D01*
X21657706Y2281260D01*
X21623785Y2363155D01*
X21574538Y2436858D01*
X21511858Y2499538D01*
X21438155Y2548785D01*
X21356260Y2582706D01*
X21269321Y2600000D01*
X21180679Y2600000D01*
X21093740Y2582706D01*
X21011845Y2548785D01*
X20978593Y2526566D01*
X20973785Y2538173D01*
X20924538Y2611876D01*
X20886931Y2649483D01*
X20925601Y2688153D01*
X20974848Y2761856D01*
X21008769Y2843751D01*
X21026063Y2930690D01*
X21026063Y3019332D01*
X21008769Y3106271D01*
X20974848Y3188166D01*
X20925601Y3261869D01*
X20894536Y3292934D01*
X20919639Y3318037D01*
X20968886Y3391740D01*
X21002807Y3473635D01*
X21020101Y3560574D01*
X21020101Y3644321D01*
X27100000Y3644321D01*
X27100000Y3555679D01*
X27117294Y3468740D01*
X27151215Y3386845D01*
X27200462Y3313142D01*
X27263142Y3250462D01*
X27336845Y3201215D01*
X27418740Y3167294D01*
X27501303Y3150871D01*
X27500000Y3144321D01*
X27500000Y3055679D01*
X27517294Y2968740D01*
X27551215Y2886845D01*
X27600462Y2813142D01*
X27663142Y2750462D01*
X27736845Y2701215D01*
X27818740Y2667294D01*
X27905679Y2650000D01*
X27994321Y2650000D01*
X28081260Y2667294D01*
X28163155Y2701215D01*
X28236858Y2750462D01*
X28299538Y2813142D01*
X28348785Y2886845D01*
X28382706Y2968740D01*
X28400000Y3055679D01*
X28400000Y3144321D01*
X28382706Y3231260D01*
X28348785Y3313155D01*
X28299538Y3386858D01*
X28236858Y3449538D01*
X28163155Y3498785D01*
X28081260Y3532706D01*
X27998697Y3549129D01*
X28000000Y3555679D01*
X28000000Y3644321D01*
X27982706Y3731260D01*
X27948785Y3813155D01*
X27899538Y3886858D01*
X27836858Y3949538D01*
X27763155Y3998785D01*
X27681260Y4032706D01*
X27594321Y4050000D01*
X27505679Y4050000D01*
X27418740Y4032706D01*
X27336845Y3998785D01*
X27263142Y3949538D01*
X27200462Y3886858D01*
X27151215Y3813155D01*
X27117294Y3731260D01*
X27100000Y3644321D01*
X21020101Y3644321D01*
X21020101Y3649216D01*
X21002807Y3736155D01*
X20968886Y3818050D01*
X20919639Y3891753D01*
X20856959Y3954433D01*
X20783256Y4003680D01*
X20701361Y4037601D01*
X20614422Y4054895D01*
X20525780Y4054895D01*
X20438841Y4037601D01*
X20356946Y4003680D01*
X20283243Y3954433D01*
X20220563Y3891753D01*
X20171316Y3818050D01*
X20137395Y3736155D01*
X20120101Y3649216D01*
X12375000Y3649216D01*
X12375000Y4094319D01*
X28250000Y4094319D01*
X28250000Y4005677D01*
X28267294Y3918738D01*
X28301215Y3836843D01*
X28350462Y3763140D01*
X28413142Y3700460D01*
X28486845Y3651213D01*
X28568740Y3617292D01*
X28655679Y3599998D01*
X28744321Y3599998D01*
X28831260Y3617292D01*
X28913155Y3651213D01*
X28986858Y3700460D01*
X29049538Y3763140D01*
X29098785Y3836843D01*
X29132706Y3918738D01*
X29150000Y4005677D01*
X29150000Y4094319D01*
X29132706Y4181258D01*
X29105566Y4246783D01*
X33925000Y4246783D01*
X33925000Y4153217D01*
X33943254Y4061448D01*
X33979061Y3975003D01*
X34031044Y3897205D01*
X34097205Y3831044D01*
X34175003Y3779061D01*
X34261448Y3743254D01*
X34292943Y3736989D01*
X34275000Y3646783D01*
X34275000Y3553217D01*
X34293254Y3461448D01*
X34329061Y3375003D01*
X34381044Y3297205D01*
X34428249Y3250000D01*
X34381044Y3202795D01*
X34329061Y3124997D01*
X34293254Y3038552D01*
X34275000Y2946783D01*
X34275000Y2853217D01*
X34293254Y2761448D01*
X34329061Y2675003D01*
X34381044Y2597205D01*
X34447205Y2531044D01*
X34525003Y2479061D01*
X34611448Y2443254D01*
X34703217Y2425000D01*
X34796783Y2425000D01*
X34888552Y2443254D01*
X34974997Y2479061D01*
X35052795Y2531044D01*
X35118956Y2597205D01*
X35170939Y2675003D01*
X35206746Y2761448D01*
X35225000Y2853217D01*
X35225000Y2946783D01*
X35206746Y3038552D01*
X35183845Y3093840D01*
X35658400Y3093840D01*
X35677236Y2902595D01*
X35733020Y2718699D01*
X35823609Y2549220D01*
X35945520Y2400670D01*
X36094070Y2278759D01*
X36263549Y2188170D01*
X36447445Y2132386D01*
X36590767Y2118270D01*
X38685593Y2118270D01*
X38828915Y2132386D01*
X39012811Y2188170D01*
X39182290Y2278759D01*
X39330840Y2400670D01*
X39452751Y2549220D01*
X39543340Y2718699D01*
X39599124Y2902595D01*
X39617960Y3093840D01*
X39599124Y3285085D01*
X39543340Y3468981D01*
X39452751Y3638460D01*
X39330840Y3787010D01*
X39182290Y3908921D01*
X39012811Y3999510D01*
X38828915Y4055294D01*
X38685593Y4069410D01*
X36590767Y4069410D01*
X36447445Y4055294D01*
X36263549Y3999510D01*
X36094070Y3908921D01*
X35945520Y3787010D01*
X35823609Y3638460D01*
X35733020Y3468981D01*
X35677236Y3285085D01*
X35658400Y3093840D01*
X35183845Y3093840D01*
X35170939Y3124997D01*
X35118956Y3202795D01*
X35071751Y3250000D01*
X35118956Y3297205D01*
X35170939Y3375003D01*
X35206746Y3461448D01*
X35225000Y3553217D01*
X35225000Y3646783D01*
X35206746Y3738552D01*
X35170939Y3824997D01*
X35118956Y3902795D01*
X35052795Y3968956D01*
X34974997Y4020939D01*
X34888552Y4056746D01*
X34857057Y4063011D01*
X34875000Y4153217D01*
X34875000Y4246783D01*
X34856746Y4338552D01*
X34820939Y4424997D01*
X34768956Y4502795D01*
X34702795Y4568956D01*
X34624997Y4620939D01*
X34538552Y4656746D01*
X34446783Y4675000D01*
X34353217Y4675000D01*
X34261448Y4656746D01*
X34175003Y4620939D01*
X34097205Y4568956D01*
X34031044Y4502795D01*
X33979061Y4424997D01*
X33943254Y4338552D01*
X33925000Y4246783D01*
X29105566Y4246783D01*
X29098785Y4263153D01*
X29049538Y4336856D01*
X28986858Y4399536D01*
X28913155Y4448783D01*
X28831260Y4482704D01*
X28744321Y4499998D01*
X28655679Y4499998D01*
X28568740Y4482704D01*
X28486845Y4448783D01*
X28413142Y4399536D01*
X28350462Y4336856D01*
X28301215Y4263153D01*
X28267294Y4181258D01*
X28250000Y4094319D01*
X12375000Y4094319D01*
X12375000Y5369325D01*
X19525000Y5369325D01*
X19525000Y5280683D01*
X19542294Y5193744D01*
X19576215Y5111849D01*
X19625462Y5038146D01*
X19688142Y4975466D01*
X19761845Y4926219D01*
X19843740Y4892298D01*
X19930679Y4875004D01*
X20019321Y4875004D01*
X20088451Y4888755D01*
X20088451Y4830678D01*
X20105745Y4743739D01*
X20139666Y4661844D01*
X20188913Y4588141D01*
X20251593Y4525461D01*
X20325296Y4476214D01*
X20407191Y4442293D01*
X20494130Y4424999D01*
X20582772Y4424999D01*
X20669711Y4442293D01*
X20751606Y4476214D01*
X20825309Y4525461D01*
X20887989Y4588141D01*
X20927172Y4646783D01*
X27274988Y4646783D01*
X27274988Y4553217D01*
X27293242Y4461448D01*
X27329049Y4375003D01*
X27381032Y4297205D01*
X27447193Y4231044D01*
X27524991Y4179061D01*
X27611436Y4143254D01*
X27703205Y4125000D01*
X27796771Y4125000D01*
X27888540Y4143254D01*
X27974985Y4179061D01*
X28052783Y4231044D01*
X28118944Y4297205D01*
X28170927Y4375003D01*
X28206734Y4461448D01*
X28224988Y4553217D01*
X28224988Y4646783D01*
X28206734Y4738552D01*
X28170927Y4824997D01*
X28118944Y4902795D01*
X28052783Y4968956D01*
X27974985Y5020939D01*
X27888540Y5056746D01*
X27796771Y5075000D01*
X27703205Y5075000D01*
X27611436Y5056746D01*
X27524991Y5020939D01*
X27447193Y4968956D01*
X27381032Y4902795D01*
X27329049Y4824997D01*
X27293242Y4738552D01*
X27274988Y4646783D01*
X20927172Y4646783D01*
X20937236Y4661844D01*
X20971157Y4743739D01*
X20988451Y4830678D01*
X20988451Y4919320D01*
X20971157Y5006259D01*
X20937236Y5088154D01*
X20887989Y5161857D01*
X20825309Y5224537D01*
X20751606Y5273784D01*
X20669711Y5307705D01*
X20582772Y5324999D01*
X20494130Y5324999D01*
X20425000Y5311248D01*
X20425000Y5350000D01*
X20444323Y5350000D01*
X20531262Y5367294D01*
X20613157Y5401215D01*
X20686860Y5450462D01*
X20749540Y5513142D01*
X20772018Y5546783D01*
X29075000Y5546783D01*
X29075000Y5453217D01*
X29093254Y5361448D01*
X29129061Y5275003D01*
X29181044Y5197205D01*
X29247205Y5131044D01*
X29325003Y5079061D01*
X29411448Y5043254D01*
X29503217Y5025000D01*
X29596783Y5025000D01*
X29688552Y5043254D01*
X29774997Y5079061D01*
X29852795Y5131044D01*
X29918956Y5197205D01*
X29970939Y5275003D01*
X30006746Y5361448D01*
X30025000Y5453217D01*
X30025000Y5546783D01*
X30006746Y5638552D01*
X29970939Y5724997D01*
X29918956Y5802795D01*
X29852795Y5868956D01*
X29774997Y5920939D01*
X29688552Y5956746D01*
X29596783Y5975000D01*
X29503217Y5975000D01*
X29411448Y5956746D01*
X29325003Y5920939D01*
X29247205Y5868956D01*
X29181044Y5802795D01*
X29129061Y5724997D01*
X29093254Y5638552D01*
X29075000Y5546783D01*
X20772018Y5546783D01*
X20798787Y5586845D01*
X20832708Y5668740D01*
X20850002Y5755679D01*
X20850002Y5844321D01*
X20832708Y5931260D01*
X20798787Y6013155D01*
X20749540Y6086858D01*
X20748897Y6087501D01*
X20799538Y6138142D01*
X20848785Y6211845D01*
X20865813Y6252954D01*
X20871504Y6250597D01*
X20958443Y6233303D01*
X21047085Y6233303D01*
X21134024Y6250597D01*
X21215919Y6284518D01*
X21289622Y6333765D01*
X21352302Y6396445D01*
X21401549Y6470148D01*
X21435470Y6552043D01*
X21443884Y6594345D01*
X26750000Y6594345D01*
X26750000Y6505703D01*
X26767294Y6418764D01*
X26801215Y6336869D01*
X26850462Y6263166D01*
X26913142Y6200486D01*
X26986845Y6151239D01*
X27068740Y6117318D01*
X27155679Y6100024D01*
X27244321Y6100024D01*
X27331260Y6117318D01*
X27413155Y6151239D01*
X27486858Y6200486D01*
X27549538Y6263166D01*
X27598785Y6336869D01*
X27632706Y6418764D01*
X27650000Y6505703D01*
X27650000Y6594345D01*
X27632706Y6681284D01*
X27598785Y6763179D01*
X27549538Y6836882D01*
X27542110Y6844310D01*
X27651218Y6844310D01*
X27651218Y6755668D01*
X27668512Y6668729D01*
X27702433Y6586834D01*
X27751680Y6513131D01*
X27814360Y6450451D01*
X27888063Y6401204D01*
X27969958Y6367283D01*
X28056897Y6349989D01*
X28145539Y6349989D01*
X28232478Y6367283D01*
X28314373Y6401204D01*
X28388076Y6450451D01*
X28391270Y6453645D01*
X30269976Y6453645D01*
X30269976Y6365003D01*
X30287270Y6278064D01*
X30321191Y6196169D01*
X30370438Y6122466D01*
X30433118Y6059786D01*
X30506821Y6010539D01*
X30588716Y5976618D01*
X30675655Y5959324D01*
X30764297Y5959324D01*
X30851236Y5976618D01*
X30933131Y6010539D01*
X31006834Y6059786D01*
X31069514Y6122466D01*
X31118761Y6196169D01*
X31152682Y6278064D01*
X31169976Y6365003D01*
X31169976Y6453645D01*
X31169697Y6455048D01*
X31231260Y6467294D01*
X31313155Y6501215D01*
X31386858Y6550462D01*
X31449538Y6613142D01*
X31457065Y6624407D01*
X36813270Y6624407D01*
X36813270Y6461913D01*
X36844971Y6302543D01*
X36907155Y6152419D01*
X36997431Y6017311D01*
X37112331Y5902411D01*
X37247439Y5812135D01*
X37397563Y5749951D01*
X37556933Y5718250D01*
X37719427Y5718250D01*
X37878797Y5749951D01*
X38028921Y5812135D01*
X38164029Y5902411D01*
X38251561Y5989943D01*
X38253251Y5981445D01*
X38289058Y5895000D01*
X38341041Y5817202D01*
X38407202Y5751041D01*
X38485000Y5699058D01*
X38571445Y5663251D01*
X38663214Y5644997D01*
X38756780Y5644997D01*
X38848549Y5663251D01*
X38934994Y5699058D01*
X39012792Y5751041D01*
X39078953Y5817202D01*
X39130936Y5895000D01*
X39166743Y5981445D01*
X39184997Y6073214D01*
X39184997Y6166780D01*
X39166743Y6258549D01*
X39130936Y6344994D01*
X39078953Y6422792D01*
X39012792Y6488953D01*
X38934994Y6540936D01*
X38848549Y6576743D01*
X38756780Y6594997D01*
X38663214Y6594997D01*
X38571445Y6576743D01*
X38485000Y6540936D01*
X38463090Y6526296D01*
X38463090Y6624407D01*
X38431389Y6783777D01*
X38369205Y6933901D01*
X38278929Y7069009D01*
X38164029Y7183909D01*
X38028921Y7274185D01*
X37878797Y7336369D01*
X37719427Y7368070D01*
X37556933Y7368070D01*
X37397563Y7336369D01*
X37247439Y7274185D01*
X37112331Y7183909D01*
X36997431Y7069009D01*
X36907155Y6933901D01*
X36844971Y6783777D01*
X36813270Y6624407D01*
X31457065Y6624407D01*
X31498785Y6686845D01*
X31532706Y6768740D01*
X31550000Y6855679D01*
X31550000Y6944321D01*
X31532706Y7031260D01*
X31498785Y7113155D01*
X31449538Y7186858D01*
X31386858Y7249538D01*
X31313155Y7298785D01*
X31231260Y7332706D01*
X31144321Y7350000D01*
X31055679Y7350000D01*
X30968740Y7332706D01*
X30886845Y7298785D01*
X30813142Y7249538D01*
X30750462Y7186858D01*
X30701215Y7113155D01*
X30667294Y7031260D01*
X30650000Y6944321D01*
X30650000Y6855679D01*
X30650279Y6854276D01*
X30588716Y6842030D01*
X30506821Y6808109D01*
X30433118Y6758862D01*
X30370438Y6696182D01*
X30321191Y6622479D01*
X30287270Y6540584D01*
X30269976Y6453645D01*
X28391270Y6453645D01*
X28450756Y6513131D01*
X28500003Y6586834D01*
X28533924Y6668729D01*
X28551218Y6755668D01*
X28551218Y6844310D01*
X28533924Y6931249D01*
X28500003Y7013144D01*
X28450756Y7086847D01*
X28388076Y7149527D01*
X28314373Y7198774D01*
X28232478Y7232695D01*
X28145539Y7249989D01*
X28056897Y7249989D01*
X27969958Y7232695D01*
X27888063Y7198774D01*
X27814360Y7149527D01*
X27751680Y7086847D01*
X27702433Y7013144D01*
X27668512Y6931249D01*
X27651218Y6844310D01*
X27542110Y6844310D01*
X27486858Y6899562D01*
X27413155Y6948809D01*
X27331260Y6982730D01*
X27244321Y7000024D01*
X27155679Y7000024D01*
X27068740Y6982730D01*
X26986845Y6948809D01*
X26913142Y6899562D01*
X26850462Y6836882D01*
X26801215Y6763179D01*
X26767294Y6681284D01*
X26750000Y6594345D01*
X21443884Y6594345D01*
X21452764Y6638982D01*
X21452764Y6727624D01*
X21435470Y6814563D01*
X21418718Y6855007D01*
X21486746Y6900462D01*
X21549426Y6963142D01*
X21598673Y7036845D01*
X21632594Y7118740D01*
X21649888Y7205679D01*
X21649888Y7294321D01*
X21632594Y7381260D01*
X21598673Y7463155D01*
X21549426Y7536858D01*
X21511340Y7574944D01*
X21549538Y7613142D01*
X21598785Y7686845D01*
X21632706Y7768740D01*
X21650000Y7855679D01*
X21650000Y7944321D01*
X21632706Y8031260D01*
X21598785Y8113155D01*
X21577849Y8144488D01*
X21650169Y8144488D01*
X21650169Y8055846D01*
X21667463Y7968907D01*
X21701384Y7887012D01*
X21750631Y7813309D01*
X21813311Y7750629D01*
X21887014Y7701382D01*
X21968909Y7667461D01*
X22055848Y7650167D01*
X22144490Y7650167D01*
X22231429Y7667461D01*
X22313324Y7701382D01*
X22387027Y7750629D01*
X22449707Y7813309D01*
X22487139Y7869331D01*
X25475000Y7869331D01*
X25475000Y7780689D01*
X25492294Y7693750D01*
X25526215Y7611855D01*
X25575462Y7538152D01*
X25638142Y7475472D01*
X25711845Y7426225D01*
X25793740Y7392304D01*
X25880679Y7375010D01*
X25969321Y7375010D01*
X26056260Y7392304D01*
X26138155Y7426225D01*
X26211858Y7475472D01*
X26274538Y7538152D01*
X26312168Y7594469D01*
X26317286Y7568740D01*
X26351207Y7486845D01*
X26400454Y7413142D01*
X26463134Y7350462D01*
X26536837Y7301215D01*
X26618732Y7267294D01*
X26705671Y7250000D01*
X26794313Y7250000D01*
X26881252Y7267294D01*
X26963147Y7301215D01*
X27036850Y7350462D01*
X27099530Y7413142D01*
X27148777Y7486845D01*
X27182698Y7568740D01*
X27199992Y7655679D01*
X27199992Y7744321D01*
X27182698Y7831260D01*
X27156574Y7894333D01*
X27599974Y7894333D01*
X27599974Y7805691D01*
X27617268Y7718752D01*
X27651189Y7636857D01*
X27700436Y7563154D01*
X27763116Y7500474D01*
X27836819Y7451227D01*
X27918714Y7417306D01*
X28005653Y7400012D01*
X28094295Y7400012D01*
X28181234Y7417306D01*
X28263129Y7451227D01*
X28336832Y7500474D01*
X28399512Y7563154D01*
X28448759Y7636857D01*
X28482680Y7718752D01*
X28492741Y7769331D01*
X31450000Y7769331D01*
X31450000Y7680689D01*
X31467294Y7593750D01*
X31501215Y7511855D01*
X31550462Y7438152D01*
X31613142Y7375472D01*
X31686845Y7326225D01*
X31768740Y7292304D01*
X31855679Y7275010D01*
X31944321Y7275010D01*
X32031260Y7292304D01*
X32113155Y7326225D01*
X32186858Y7375472D01*
X32249538Y7438152D01*
X32298785Y7511855D01*
X32332706Y7593750D01*
X32350000Y7680689D01*
X32350000Y7769331D01*
X32332706Y7856270D01*
X32298785Y7938165D01*
X32249538Y8011868D01*
X32186858Y8074548D01*
X32113155Y8123795D01*
X32031260Y8157716D01*
X31944321Y8175010D01*
X31855679Y8175010D01*
X31768740Y8157716D01*
X31686845Y8123795D01*
X31613142Y8074548D01*
X31550462Y8011868D01*
X31501215Y7938165D01*
X31467294Y7856270D01*
X31450000Y7769331D01*
X28492741Y7769331D01*
X28499974Y7805691D01*
X28499974Y7894333D01*
X28482680Y7981272D01*
X28448759Y8063167D01*
X28399512Y8136870D01*
X28336832Y8199550D01*
X28263129Y8248797D01*
X28181234Y8282718D01*
X28094295Y8300012D01*
X28005653Y8300012D01*
X27918714Y8282718D01*
X27836819Y8248797D01*
X27763116Y8199550D01*
X27700436Y8136870D01*
X27651189Y8063167D01*
X27617268Y7981272D01*
X27599974Y7894333D01*
X27156574Y7894333D01*
X27148777Y7913155D01*
X27099530Y7986858D01*
X27036850Y8049538D01*
X26963147Y8098785D01*
X26881252Y8132706D01*
X26794313Y8150000D01*
X26705671Y8150000D01*
X26618732Y8132706D01*
X26536837Y8098785D01*
X26463134Y8049538D01*
X26400454Y7986858D01*
X26362824Y7930541D01*
X26357706Y7956270D01*
X26323785Y8038165D01*
X26274538Y8111868D01*
X26211858Y8174548D01*
X26138155Y8223795D01*
X26056260Y8257716D01*
X25969321Y8275010D01*
X25880679Y8275010D01*
X25793740Y8257716D01*
X25711845Y8223795D01*
X25638142Y8174548D01*
X25575462Y8111868D01*
X25526215Y8038165D01*
X25492294Y7956270D01*
X25475000Y7869331D01*
X22487139Y7869331D01*
X22498954Y7887012D01*
X22532875Y7968907D01*
X22550169Y8055846D01*
X22550169Y8144488D01*
X22532875Y8231427D01*
X22498954Y8313322D01*
X22449707Y8387025D01*
X22387027Y8449705D01*
X22313324Y8498952D01*
X22231429Y8532873D01*
X22144490Y8550167D01*
X22055848Y8550167D01*
X21968909Y8532873D01*
X21887014Y8498952D01*
X21813311Y8449705D01*
X21750631Y8387025D01*
X21701384Y8313322D01*
X21667463Y8231427D01*
X21650169Y8144488D01*
X21577849Y8144488D01*
X21549538Y8186858D01*
X21486858Y8249538D01*
X21413155Y8298785D01*
X21331260Y8332706D01*
X21244321Y8350000D01*
X21155679Y8350000D01*
X21068740Y8332706D01*
X20986845Y8298785D01*
X20913142Y8249538D01*
X20850462Y8186858D01*
X20801215Y8113155D01*
X20767294Y8031260D01*
X20750000Y7944321D01*
X20750000Y7855679D01*
X20767294Y7768740D01*
X20801215Y7686845D01*
X20850462Y7613142D01*
X20888548Y7575056D01*
X20850350Y7536858D01*
X20801103Y7463155D01*
X20767182Y7381260D01*
X20749888Y7294321D01*
X20749888Y7205679D01*
X20767182Y7118740D01*
X20783934Y7078296D01*
X20715906Y7032841D01*
X20653226Y6970161D01*
X20603979Y6896458D01*
X20586951Y6855349D01*
X20581260Y6857706D01*
X20494321Y6875000D01*
X20405679Y6875000D01*
X20318740Y6857706D01*
X20236845Y6823785D01*
X20163142Y6774538D01*
X20100462Y6711858D01*
X20051215Y6638155D01*
X20017294Y6556260D01*
X20000000Y6469321D01*
X20000000Y6380679D01*
X20017294Y6293740D01*
X20051215Y6211845D01*
X20100462Y6138142D01*
X20101105Y6137499D01*
X20050464Y6086858D01*
X20001217Y6013155D01*
X19967296Y5931260D01*
X19950002Y5844321D01*
X19950002Y5775004D01*
X19930679Y5775004D01*
X19843740Y5757710D01*
X19761845Y5723789D01*
X19688142Y5674542D01*
X19625462Y5611862D01*
X19576215Y5538159D01*
X19542294Y5456264D01*
X19525000Y5369325D01*
X12375000Y5369325D01*
X12375000Y6600000D01*
X12373559Y6614632D01*
X12369291Y6628701D01*
X12362360Y6641668D01*
X12353033Y6653033D01*
X12341668Y6662360D01*
X12328701Y6669291D01*
X12314632Y6673559D01*
X12300000Y6675000D01*
X375000Y6675000D01*
X375000Y7355583D01*
X386856Y7337839D01*
X487839Y7236856D01*
X606584Y7157513D01*
X738525Y7102861D01*
X878594Y7075000D01*
X1021406Y7075000D01*
X1161475Y7102861D01*
X1293416Y7157513D01*
X1412161Y7236856D01*
X1513144Y7337839D01*
X1592487Y7456584D01*
X1647139Y7588525D01*
X1675000Y7728594D01*
X1675000Y7871406D01*
X1664340Y7925000D01*
X8400000Y7925000D01*
X8414632Y7926441D01*
X8428701Y7930709D01*
X8441668Y7937640D01*
X8453033Y7946967D01*
X8462360Y7958332D01*
X8469291Y7971299D01*
X8473559Y7985368D01*
X8475000Y8000000D01*
X8475000Y9594321D01*
X18700000Y9594321D01*
X18700000Y9505679D01*
X18717294Y9418740D01*
X18751215Y9336845D01*
X18800462Y9263142D01*
X18863142Y9200462D01*
X18936845Y9151215D01*
X19018740Y9117294D01*
X19105679Y9100000D01*
X19194321Y9100000D01*
X19281260Y9117294D01*
X19363155Y9151215D01*
X19436858Y9200462D01*
X19499538Y9263142D01*
X19518056Y9290857D01*
X20205817Y9290857D01*
X20205817Y9202215D01*
X20223111Y9115276D01*
X20257032Y9033381D01*
X20306279Y8959678D01*
X20368959Y8896998D01*
X20442662Y8847751D01*
X20524557Y8813830D01*
X20611496Y8796536D01*
X20700138Y8796536D01*
X20787077Y8813830D01*
X20868972Y8847751D01*
X20942675Y8896998D01*
X20989998Y8944321D01*
X22675000Y8944321D01*
X22675000Y8855679D01*
X22692294Y8768740D01*
X22726215Y8686845D01*
X22775462Y8613142D01*
X22838142Y8550462D01*
X22911845Y8501215D01*
X22993740Y8467294D01*
X23080679Y8450000D01*
X23151131Y8450000D01*
X23167294Y8368748D01*
X23201215Y8286853D01*
X23250462Y8213150D01*
X23313142Y8150470D01*
X23386845Y8101223D01*
X23468740Y8067302D01*
X23555679Y8050008D01*
X23644321Y8050008D01*
X23731260Y8067302D01*
X23813155Y8101223D01*
X23886858Y8150470D01*
X23924990Y8188602D01*
X23963130Y8150462D01*
X24036833Y8101215D01*
X24118728Y8067294D01*
X24205667Y8050000D01*
X24294309Y8050000D01*
X24381248Y8067294D01*
X24463143Y8101215D01*
X24536846Y8150462D01*
X24599526Y8213142D01*
X24648773Y8286845D01*
X24682694Y8368740D01*
X24699988Y8455679D01*
X24699988Y8544321D01*
X24682694Y8631260D01*
X24648773Y8713155D01*
X24599526Y8786858D01*
X24592063Y8794321D01*
X24750000Y8794321D01*
X24750000Y8705679D01*
X24767294Y8618740D01*
X24801215Y8536845D01*
X24850462Y8463142D01*
X24913142Y8400462D01*
X24986845Y8351215D01*
X25068740Y8317294D01*
X25155679Y8300000D01*
X25244321Y8300000D01*
X25331260Y8317294D01*
X25413155Y8351215D01*
X25486858Y8400462D01*
X25549538Y8463142D01*
X25598785Y8536845D01*
X25632706Y8618740D01*
X25650000Y8705679D01*
X25650000Y8794321D01*
X25648590Y8801410D01*
X25655679Y8800000D01*
X25744321Y8800000D01*
X25831260Y8817294D01*
X25913155Y8851215D01*
X25986858Y8900462D01*
X26049538Y8963142D01*
X26098785Y9036845D01*
X26132706Y9118740D01*
X26150000Y9205679D01*
X26150000Y9246783D01*
X36925000Y9246783D01*
X36925000Y9153217D01*
X36943254Y9061448D01*
X36979061Y8975003D01*
X37031044Y8897205D01*
X37097205Y8831044D01*
X37106250Y8825000D01*
X37097205Y8818956D01*
X37031044Y8752795D01*
X36979061Y8674997D01*
X36943254Y8588552D01*
X36925000Y8496783D01*
X36925000Y8403217D01*
X36943254Y8311448D01*
X36979061Y8225003D01*
X37031044Y8147205D01*
X37097205Y8081044D01*
X37175003Y8029061D01*
X37261448Y7993254D01*
X37353217Y7975000D01*
X37446783Y7975000D01*
X37538552Y7993254D01*
X37624997Y8029061D01*
X37702795Y8081044D01*
X37768956Y8147205D01*
X37820939Y8225003D01*
X37856746Y8311448D01*
X37875000Y8403217D01*
X37875000Y8496783D01*
X37872319Y8510264D01*
X37881044Y8497205D01*
X37947205Y8431044D01*
X38025003Y8379061D01*
X38111448Y8343254D01*
X38203217Y8325000D01*
X38296783Y8325000D01*
X38388552Y8343254D01*
X38474997Y8379061D01*
X38552795Y8431044D01*
X38618956Y8497205D01*
X38670939Y8575003D01*
X38706746Y8661448D01*
X38725000Y8753217D01*
X38725000Y8846783D01*
X38706746Y8938552D01*
X38670939Y9024997D01*
X38618956Y9102795D01*
X38552795Y9168956D01*
X38474997Y9220939D01*
X38388552Y9256746D01*
X38296783Y9275000D01*
X38203217Y9275000D01*
X38111448Y9256746D01*
X38025003Y9220939D01*
X37947205Y9168956D01*
X37881044Y9102795D01*
X37858157Y9068542D01*
X37875000Y9153217D01*
X37875000Y9246783D01*
X37856746Y9338552D01*
X37820939Y9424997D01*
X37768956Y9502795D01*
X37702795Y9568956D01*
X37624997Y9620939D01*
X37538552Y9656746D01*
X37446783Y9675000D01*
X37353217Y9675000D01*
X37261448Y9656746D01*
X37175003Y9620939D01*
X37097205Y9568956D01*
X37031044Y9502795D01*
X36979061Y9424997D01*
X36943254Y9338552D01*
X36925000Y9246783D01*
X26150000Y9246783D01*
X26150000Y9294321D01*
X26132706Y9381260D01*
X26098785Y9463155D01*
X26049538Y9536858D01*
X25986858Y9599538D01*
X25913155Y9648785D01*
X25831260Y9682706D01*
X25744321Y9700000D01*
X25655679Y9700000D01*
X25568740Y9682706D01*
X25486845Y9648785D01*
X25413142Y9599538D01*
X25350462Y9536858D01*
X25301215Y9463155D01*
X25267294Y9381260D01*
X25250000Y9294321D01*
X25250000Y9205679D01*
X25251410Y9198590D01*
X25244321Y9200000D01*
X25155679Y9200000D01*
X25068740Y9182706D01*
X24986845Y9148785D01*
X24913142Y9099538D01*
X24850462Y9036858D01*
X24801215Y8963155D01*
X24767294Y8881260D01*
X24750000Y8794321D01*
X24592063Y8794321D01*
X24536846Y8849538D01*
X24463143Y8898785D01*
X24381248Y8932706D01*
X24294309Y8950000D01*
X24205667Y8950000D01*
X24118728Y8932706D01*
X24036833Y8898785D01*
X23963130Y8849538D01*
X23924998Y8811406D01*
X23893380Y8843024D01*
X23913155Y8851215D01*
X23986858Y8900462D01*
X24049538Y8963142D01*
X24098785Y9036845D01*
X24132706Y9118740D01*
X24150000Y9205679D01*
X24150000Y9294321D01*
X24132706Y9381260D01*
X24098785Y9463155D01*
X24049538Y9536858D01*
X23986858Y9599538D01*
X23913155Y9648785D01*
X23831260Y9682706D01*
X23744321Y9700000D01*
X23655679Y9700000D01*
X23568740Y9682706D01*
X23486845Y9648785D01*
X23413142Y9599538D01*
X23350462Y9536858D01*
X23301215Y9463155D01*
X23267294Y9381260D01*
X23257531Y9332180D01*
X23256260Y9332706D01*
X23169321Y9350000D01*
X23080679Y9350000D01*
X22993740Y9332706D01*
X22911845Y9298785D01*
X22838142Y9249538D01*
X22775462Y9186858D01*
X22726215Y9113155D01*
X22692294Y9031260D01*
X22675000Y8944321D01*
X20989998Y8944321D01*
X21005355Y8959678D01*
X21054602Y9033381D01*
X21088523Y9115276D01*
X21105817Y9202215D01*
X21105817Y9290857D01*
X21088523Y9377796D01*
X21054602Y9459691D01*
X21005355Y9533394D01*
X20942675Y9596074D01*
X20868972Y9645321D01*
X20787077Y9679242D01*
X20700138Y9696536D01*
X20611496Y9696536D01*
X20524557Y9679242D01*
X20442662Y9645321D01*
X20368959Y9596074D01*
X20306279Y9533394D01*
X20257032Y9459691D01*
X20223111Y9377796D01*
X20205817Y9290857D01*
X19518056Y9290857D01*
X19548785Y9336845D01*
X19582706Y9418740D01*
X19600000Y9505679D01*
X19600000Y9594321D01*
X19582706Y9681260D01*
X19548785Y9763155D01*
X19499538Y9836858D01*
X19436858Y9899538D01*
X19363155Y9948785D01*
X19281260Y9982706D01*
X19222871Y9994321D01*
X21450000Y9994321D01*
X21450000Y9905679D01*
X21467294Y9818740D01*
X21501215Y9736845D01*
X21550462Y9663142D01*
X21613142Y9600462D01*
X21686845Y9551215D01*
X21768740Y9517294D01*
X21855679Y9500000D01*
X21944321Y9500000D01*
X22031260Y9517294D01*
X22113155Y9551215D01*
X22186858Y9600462D01*
X22249538Y9663142D01*
X22298785Y9736845D01*
X22332706Y9818740D01*
X22350000Y9905679D01*
X22350000Y9994321D01*
X22332706Y10081260D01*
X22327297Y10094321D01*
X22549980Y10094321D01*
X22549980Y10005679D01*
X22567274Y9918740D01*
X22601195Y9836845D01*
X22650442Y9763142D01*
X22713122Y9700462D01*
X22786825Y9651215D01*
X22868720Y9617294D01*
X22955659Y9600000D01*
X23044301Y9600000D01*
X23131240Y9617294D01*
X23213135Y9651215D01*
X23286838Y9700462D01*
X23349518Y9763142D01*
X23398765Y9836845D01*
X23432686Y9918740D01*
X23449980Y10005679D01*
X23449980Y10094321D01*
X23432686Y10181260D01*
X23406567Y10244321D01*
X26431816Y10244321D01*
X26431816Y10155679D01*
X26449110Y10068740D01*
X26483031Y9986845D01*
X26532278Y9913142D01*
X26594958Y9850462D01*
X26668661Y9801215D01*
X26750556Y9767294D01*
X26837495Y9750000D01*
X26926137Y9750000D01*
X27013076Y9767294D01*
X27094971Y9801215D01*
X27168674Y9850462D01*
X27231354Y9913142D01*
X27280601Y9986845D01*
X27314522Y10068740D01*
X27331816Y10155679D01*
X27331816Y10244321D01*
X27314522Y10331260D01*
X27309113Y10344321D01*
X29600000Y10344321D01*
X29600000Y10255679D01*
X29617294Y10168740D01*
X29651215Y10086845D01*
X29700462Y10013142D01*
X29763142Y9950462D01*
X29836845Y9901215D01*
X29918740Y9867294D01*
X30005679Y9850000D01*
X30094321Y9850000D01*
X30181260Y9867294D01*
X30263155Y9901215D01*
X30336858Y9950462D01*
X30399538Y10013142D01*
X30448785Y10086845D01*
X30482706Y10168740D01*
X30500000Y10255679D01*
X30500000Y10344321D01*
X30490054Y10394321D01*
X32750000Y10394321D01*
X32750000Y10305679D01*
X32767294Y10218740D01*
X32801215Y10136845D01*
X32850462Y10063142D01*
X32913142Y10000462D01*
X32986845Y9951215D01*
X33068740Y9917294D01*
X33155679Y9900000D01*
X33244321Y9900000D01*
X33331260Y9917294D01*
X33413155Y9951215D01*
X33486858Y10000462D01*
X33549538Y10063142D01*
X33598785Y10136845D01*
X33632706Y10218740D01*
X33650000Y10305679D01*
X33650000Y10394321D01*
X33632706Y10481260D01*
X33598785Y10563155D01*
X33549538Y10636858D01*
X33486858Y10699538D01*
X33413155Y10748785D01*
X33331260Y10782706D01*
X33244321Y10800000D01*
X33155679Y10800000D01*
X33068740Y10782706D01*
X32986845Y10748785D01*
X32913142Y10699538D01*
X32850462Y10636858D01*
X32801215Y10563155D01*
X32767294Y10481260D01*
X32750000Y10394321D01*
X30490054Y10394321D01*
X30482706Y10431260D01*
X30448785Y10513155D01*
X30399538Y10586858D01*
X30336858Y10649538D01*
X30263155Y10698785D01*
X30181260Y10732706D01*
X30094321Y10750000D01*
X30005679Y10750000D01*
X29918740Y10732706D01*
X29836845Y10698785D01*
X29763142Y10649538D01*
X29700462Y10586858D01*
X29651215Y10513155D01*
X29617294Y10431260D01*
X29600000Y10344321D01*
X27309113Y10344321D01*
X27280601Y10413155D01*
X27231354Y10486858D01*
X27168674Y10549538D01*
X27094971Y10598785D01*
X27013076Y10632706D01*
X26926137Y10650000D01*
X26837495Y10650000D01*
X26750556Y10632706D01*
X26668661Y10598785D01*
X26594958Y10549538D01*
X26532278Y10486858D01*
X26483031Y10413155D01*
X26449110Y10331260D01*
X26431816Y10244321D01*
X23406567Y10244321D01*
X23398765Y10263155D01*
X23349518Y10336858D01*
X23286838Y10399538D01*
X23213135Y10448785D01*
X23131240Y10482706D01*
X23044301Y10500000D01*
X22955659Y10500000D01*
X22868720Y10482706D01*
X22786825Y10448785D01*
X22713122Y10399538D01*
X22650442Y10336858D01*
X22601195Y10263155D01*
X22567274Y10181260D01*
X22549980Y10094321D01*
X22327297Y10094321D01*
X22298785Y10163155D01*
X22249538Y10236858D01*
X22186858Y10299538D01*
X22113155Y10348785D01*
X22031260Y10382706D01*
X21944321Y10400000D01*
X21855679Y10400000D01*
X21768740Y10382706D01*
X21686845Y10348785D01*
X21613142Y10299538D01*
X21550462Y10236858D01*
X21501215Y10163155D01*
X21467294Y10081260D01*
X21450000Y9994321D01*
X19222871Y9994321D01*
X19194321Y10000000D01*
X19105679Y10000000D01*
X19018740Y9982706D01*
X18936845Y9948785D01*
X18863142Y9899538D01*
X18800462Y9836858D01*
X18751215Y9763155D01*
X18717294Y9681260D01*
X18700000Y9594321D01*
X8475000Y9594321D01*
X8475000Y11694321D01*
X30600000Y11694321D01*
X30600000Y11605679D01*
X30617294Y11518740D01*
X30651215Y11436845D01*
X30700462Y11363142D01*
X30763142Y11300462D01*
X30836845Y11251215D01*
X30918740Y11217294D01*
X31005679Y11200000D01*
X31094321Y11200000D01*
X31181260Y11217294D01*
X31263155Y11251215D01*
X31336858Y11300462D01*
X31380717Y11344321D01*
X31850000Y11344321D01*
X31850000Y11255679D01*
X31867294Y11168740D01*
X31901215Y11086845D01*
X31950462Y11013142D01*
X32013142Y10950462D01*
X32086845Y10901215D01*
X32168740Y10867294D01*
X32255679Y10850000D01*
X32344321Y10850000D01*
X32431260Y10867294D01*
X32513155Y10901215D01*
X32586858Y10950462D01*
X32649538Y11013142D01*
X32698785Y11086845D01*
X32714707Y11125287D01*
X36813270Y11125287D01*
X36813270Y10962793D01*
X36844971Y10803423D01*
X36907155Y10653299D01*
X36997431Y10518191D01*
X37112331Y10403291D01*
X37247439Y10313015D01*
X37397563Y10250831D01*
X37556933Y10219130D01*
X37719427Y10219130D01*
X37878797Y10250831D01*
X38028921Y10313015D01*
X38164029Y10403291D01*
X38278929Y10518191D01*
X38369205Y10653299D01*
X38431389Y10803423D01*
X38463090Y10962793D01*
X38463090Y11125287D01*
X38431389Y11284657D01*
X38369205Y11434781D01*
X38278929Y11569889D01*
X38164029Y11684789D01*
X38028921Y11775065D01*
X37878797Y11837249D01*
X37719427Y11868950D01*
X37556933Y11868950D01*
X37397563Y11837249D01*
X37247439Y11775065D01*
X37112331Y11684789D01*
X36997431Y11569889D01*
X36907155Y11434781D01*
X36844971Y11284657D01*
X36813270Y11125287D01*
X32714707Y11125287D01*
X32732706Y11168740D01*
X32750000Y11255679D01*
X32750000Y11344321D01*
X32732706Y11431260D01*
X32698785Y11513155D01*
X32649538Y11586858D01*
X32586858Y11649538D01*
X32513155Y11698785D01*
X32431260Y11732706D01*
X32344321Y11750000D01*
X32255679Y11750000D01*
X32168740Y11732706D01*
X32086845Y11698785D01*
X32013142Y11649538D01*
X31950462Y11586858D01*
X31901215Y11513155D01*
X31867294Y11431260D01*
X31850000Y11344321D01*
X31380717Y11344321D01*
X31399538Y11363142D01*
X31448785Y11436845D01*
X31482706Y11518740D01*
X31500000Y11605679D01*
X31500000Y11694321D01*
X31482706Y11781260D01*
X31448785Y11863155D01*
X31399538Y11936858D01*
X31336858Y11999538D01*
X31263155Y12048785D01*
X31181260Y12082706D01*
X31094321Y12100000D01*
X31005679Y12100000D01*
X30918740Y12082706D01*
X30836845Y12048785D01*
X30763142Y11999538D01*
X30700462Y11936858D01*
X30651215Y11863155D01*
X30617294Y11781260D01*
X30600000Y11694321D01*
X8475000Y11694321D01*
X8475000Y14146783D01*
X31175000Y14146783D01*
X31175000Y14053217D01*
X31193254Y13961448D01*
X31229061Y13875003D01*
X31281044Y13797205D01*
X31303249Y13775000D01*
X31281044Y13752795D01*
X31229061Y13674997D01*
X31193254Y13588552D01*
X31175000Y13496783D01*
X31175000Y13403217D01*
X31193254Y13311448D01*
X31229061Y13225003D01*
X31281044Y13147205D01*
X31347205Y13081044D01*
X31425003Y13029061D01*
X31511448Y12993254D01*
X31603217Y12975000D01*
X31696783Y12975000D01*
X31788552Y12993254D01*
X31874997Y13029061D01*
X31952795Y13081044D01*
X32018956Y13147205D01*
X32070939Y13225003D01*
X32100671Y13296783D01*
X35375000Y13296783D01*
X35375000Y13203217D01*
X35393254Y13111448D01*
X35429061Y13025003D01*
X35481044Y12947205D01*
X35547205Y12881044D01*
X35625003Y12829061D01*
X35711448Y12793254D01*
X35803217Y12775000D01*
X35896783Y12775000D01*
X35988552Y12793254D01*
X36074997Y12829061D01*
X36152795Y12881044D01*
X36175000Y12903249D01*
X36197205Y12881044D01*
X36275003Y12829061D01*
X36361448Y12793254D01*
X36453217Y12775000D01*
X36546783Y12775000D01*
X36638552Y12793254D01*
X36724997Y12829061D01*
X36802795Y12881044D01*
X36868956Y12947205D01*
X36920939Y13025003D01*
X36956746Y13111448D01*
X36975000Y13203217D01*
X36975000Y13296783D01*
X36956746Y13388552D01*
X36920939Y13474997D01*
X36892346Y13517790D01*
X38685593Y13517790D01*
X38828915Y13531906D01*
X39012811Y13587690D01*
X39182290Y13678279D01*
X39330840Y13800190D01*
X39452751Y13948740D01*
X39543340Y14118219D01*
X39599124Y14302115D01*
X39617960Y14493360D01*
X39599124Y14684605D01*
X39543340Y14868501D01*
X39452751Y15037980D01*
X39330840Y15186530D01*
X39182290Y15308441D01*
X39012811Y15399030D01*
X38828915Y15454814D01*
X38685593Y15468930D01*
X36590767Y15468930D01*
X36447445Y15454814D01*
X36263549Y15399030D01*
X36094070Y15308441D01*
X35945520Y15186530D01*
X35823609Y15037980D01*
X35733020Y14868501D01*
X35677236Y14684605D01*
X35658400Y14493360D01*
X35677236Y14302115D01*
X35733020Y14118219D01*
X35823609Y13948740D01*
X35945520Y13800190D01*
X36094070Y13678279D01*
X36200694Y13621287D01*
X36197205Y13618956D01*
X36175000Y13596751D01*
X36152795Y13618956D01*
X36074997Y13670939D01*
X35988552Y13706746D01*
X35896783Y13725000D01*
X35803217Y13725000D01*
X35711448Y13706746D01*
X35625003Y13670939D01*
X35547205Y13618956D01*
X35481044Y13552795D01*
X35429061Y13474997D01*
X35393254Y13388552D01*
X35375000Y13296783D01*
X32100671Y13296783D01*
X32106746Y13311448D01*
X32125000Y13403217D01*
X32125000Y13496783D01*
X32106746Y13588552D01*
X32070939Y13674997D01*
X32018956Y13752795D01*
X31996751Y13775000D01*
X32018956Y13797205D01*
X32070939Y13875003D01*
X32106746Y13961448D01*
X32125000Y14053217D01*
X32125000Y14146783D01*
X32106746Y14238552D01*
X32070939Y14324997D01*
X32018956Y14402795D01*
X31952795Y14468956D01*
X31874997Y14520939D01*
X31788552Y14556746D01*
X31696783Y14575000D01*
X31603217Y14575000D01*
X31511448Y14556746D01*
X31425003Y14520939D01*
X31347205Y14468956D01*
X31281044Y14402795D01*
X31229061Y14324997D01*
X31193254Y14238552D01*
X31175000Y14146783D01*
X8475000Y14146783D01*
X8475000Y14769321D01*
X23050000Y14769321D01*
X23050000Y14680679D01*
X23067294Y14593740D01*
X23101215Y14511845D01*
X23150462Y14438142D01*
X23213142Y14375462D01*
X23286845Y14326215D01*
X23368740Y14292294D01*
X23455679Y14275000D01*
X23544321Y14275000D01*
X23631260Y14292294D01*
X23713155Y14326215D01*
X23786858Y14375462D01*
X23849538Y14438142D01*
X23898785Y14511845D01*
X23932706Y14593740D01*
X23950000Y14680679D01*
X23950000Y14769321D01*
X23932706Y14856260D01*
X23898785Y14938155D01*
X23861256Y14994321D01*
X27200000Y14994321D01*
X27200000Y14905679D01*
X27217294Y14818740D01*
X27251215Y14736845D01*
X27300462Y14663142D01*
X27363142Y14600462D01*
X27436845Y14551215D01*
X27518740Y14517294D01*
X27605679Y14500000D01*
X27694321Y14500000D01*
X27781260Y14517294D01*
X27863155Y14551215D01*
X27936858Y14600462D01*
X27950000Y14613604D01*
X27963142Y14600462D01*
X28036845Y14551215D01*
X28118740Y14517294D01*
X28205679Y14500000D01*
X28294321Y14500000D01*
X28381260Y14517294D01*
X28463155Y14551215D01*
X28536858Y14600462D01*
X28599538Y14663142D01*
X28648785Y14736845D01*
X28682706Y14818740D01*
X28700000Y14905679D01*
X28700000Y14994321D01*
X28682706Y15081260D01*
X28648785Y15163155D01*
X28599538Y15236858D01*
X28536858Y15299538D01*
X28463155Y15348785D01*
X28381260Y15382706D01*
X28294321Y15400000D01*
X28205679Y15400000D01*
X28118740Y15382706D01*
X28036845Y15348785D01*
X27963142Y15299538D01*
X27950000Y15286396D01*
X27936858Y15299538D01*
X27863155Y15348785D01*
X27781260Y15382706D01*
X27694321Y15400000D01*
X27605679Y15400000D01*
X27518740Y15382706D01*
X27436845Y15348785D01*
X27363142Y15299538D01*
X27300462Y15236858D01*
X27251215Y15163155D01*
X27217294Y15081260D01*
X27200000Y14994321D01*
X23861256Y14994321D01*
X23849538Y15011858D01*
X23786858Y15074538D01*
X23713155Y15123785D01*
X23631260Y15157706D01*
X23544321Y15175000D01*
X23455679Y15175000D01*
X23368740Y15157706D01*
X23286845Y15123785D01*
X23213142Y15074538D01*
X23150462Y15011858D01*
X23101215Y14938155D01*
X23067294Y14856260D01*
X23050000Y14769321D01*
X8475000Y14769321D01*
X8475000Y15494321D01*
X12500000Y15494321D01*
X12500000Y15405679D01*
X12517294Y15318740D01*
X12551215Y15236845D01*
X12600462Y15163142D01*
X12663142Y15100462D01*
X12736845Y15051215D01*
X12818740Y15017294D01*
X12905679Y15000000D01*
X12994321Y15000000D01*
X13081260Y15017294D01*
X13163155Y15051215D01*
X13236858Y15100462D01*
X13299538Y15163142D01*
X13348785Y15236845D01*
X13382706Y15318740D01*
X13400000Y15405679D01*
X13400000Y15494321D01*
X13382706Y15581260D01*
X13348785Y15663155D01*
X13299538Y15736858D01*
X13236858Y15799538D01*
X13163155Y15848785D01*
X13081260Y15882706D01*
X12994321Y15900000D01*
X12905679Y15900000D01*
X12818740Y15882706D01*
X12736845Y15848785D01*
X12663142Y15799538D01*
X12600462Y15736858D01*
X12551215Y15663155D01*
X12517294Y15581260D01*
X12500000Y15494321D01*
X8475000Y15494321D01*
X8475000Y17225000D01*
X27925136Y17225000D01*
X27861845Y17198785D01*
G04 #@! TD*
M02*
