M48
;DRILL file {KiCad (5.0.1)-4} date 17.05.2019 17:50:31
;FORMAT={-:-/ absolute / metric / decimal}
FMAT,2
METRIC,TZ
T1C0.200
T2C1.001
%
G90
G05
M71
T1
X0.6Y6.9
X1.4Y6.9
X2.2Y7.7
X2.2Y6.9
X3.Y7.7
X3.Y6.9
X3.8Y7.7
X3.8Y6.9
X4.6Y7.7
X4.6Y6.9
X5.4Y7.7
X5.4Y6.9
X6.2Y7.7
X6.2Y6.9
X7.Y7.7
X7.Y6.9
X7.8Y7.7
X7.8Y6.9
X8.6Y7.7
X8.6Y6.9
X8.7Y11.7
X8.7Y10.9
X8.7Y10.1
X8.7Y9.3
X8.7Y8.5
X9.4Y7.7
X9.4Y6.9
X9.5Y11.7
X9.5Y10.9
X9.5Y10.1
X9.5Y9.3
X9.5Y8.5
X9.65Y15.55
X9.65Y14.75
X10.2Y7.7
X10.2Y6.9
X10.3Y11.7
X10.3Y10.9
X10.3Y10.1
X10.3Y9.3
X10.3Y8.5
X10.45Y15.55
X10.45Y14.75
X10.65Y17.025
X10.65Y16.225
X11.Y9.15
X11.Y8.5
X11.Y7.7
X11.Y6.9
X11.45Y17.025
X11.45Y16.225
X11.8Y9.15
X11.8Y8.5
X11.8Y7.7
X11.8Y6.9
X12.2Y13.45
X12.2Y12.65
X12.2Y11.85
X12.25Y17.025
X12.25Y16.225
X12.575Y1.975
X12.6Y9.15
X12.6Y8.5
X12.6Y7.7
X12.6Y6.9
X12.6Y6.1
X12.6Y5.3
X12.6Y4.5
X12.6Y3.7
X12.6Y2.9
X12.95Y15.45
X13.05Y17.025
X13.05Y16.225
X13.1Y11.2
X13.1Y10.4
X13.4Y9.3
X13.4Y8.5
X13.4Y7.7
X13.4Y6.9
X13.4Y6.1
X13.4Y5.3
X13.4Y4.5
X13.4Y3.7
X13.4Y2.9
X13.425Y13.975
X13.5Y14.7
X13.85Y17.025
X13.85Y16.225
X13.85Y15.425
X13.975Y10.4
X14.1Y14.1
X14.125Y1.775
X14.15Y12.7
X14.2Y9.3
X14.2Y8.5
X14.2Y7.7
X14.2Y6.9
X14.2Y6.1
X14.2Y5.3
X14.2Y4.5
X14.2Y3.7
X14.2Y2.9
X14.5Y14.7
X14.55Y2.275
X14.65Y17.025
X14.65Y16.225
X14.65Y15.425
X14.85Y12.7
X14.85Y11.425
X14.95Y14.1
X15.Y9.3
X15.Y8.5
X15.Y7.7
X15.Y6.9
X15.Y6.1
X15.Y5.3
X15.Y4.5
X15.Y3.7
X15.Y2.9
X15.Y1.75
X15.375Y2.275
X15.45Y17.025
X15.45Y16.225
X15.45Y15.425
X15.45Y14.675
X15.55Y12.7
X15.55Y11.425
X15.55Y10.6
X15.775Y1.75
X15.8Y14.1
X15.8Y7.7
X15.8Y6.9
X15.8Y6.1
X15.8Y5.3
X15.8Y4.5
X15.8Y3.7
X15.8Y2.9
X16.25Y17.025
X16.25Y16.225
X16.25Y15.425
X16.25Y14.675
X16.25Y12.7
X16.25Y11.425
X16.25Y10.6
X16.6Y7.7
X16.6Y6.9
X16.6Y6.1
X16.6Y5.3
X16.6Y4.5
X16.6Y3.7
X16.6Y2.9
X16.65Y14.1
X16.95Y12.7
X16.95Y11.425
X16.95Y10.6
X17.05Y17.025
X17.05Y16.225
X17.05Y15.425
X17.05Y14.675
X17.25Y1.65
X17.5Y14.15
X17.65Y12.7
X17.65Y11.425
X17.65Y10.6
X17.85Y17.025
X17.85Y16.225
X17.85Y15.425
X18.1Y8.
X18.125Y1.65
X18.55Y10.6
X18.65Y17.025
X18.65Y16.225
X18.65Y15.425
X18.9Y8.
X19.05Y1.65
X19.15Y9.55
X19.45Y17.025
X19.45Y16.225
X19.45Y15.425
X19.6Y10.6
X19.7Y8.
X19.8Y9.175
X19.85Y7.075
X19.85Y6.1
X19.975Y5.325
X19.975Y1.65
X20.225Y17.025
X20.4Y5.8
X20.45Y6.425
X20.5Y8.
X20.538Y4.875
X20.57Y3.605
X20.575Y2.325
X20.576Y2.975
X20.65Y10.6
X20.656Y9.247
X20.85Y1.65
X21.003Y6.683
X21.2Y7.25
X21.2Y7.9
X21.225Y2.15
X21.775Y17.025
X21.775Y10.625
X21.9Y9.95
X21.95Y16.2
X22.1Y0.6
X22.1Y8.1
X22.6Y1.2
X23.Y10.05
X23.125Y8.9
X23.3Y1.2
X23.5Y14.725
X23.6Y8.5
X23.7Y9.25
X24.225Y14.725
X24.25Y8.5
X25.2Y8.75
X25.55Y0.55
X25.7Y9.25
X25.925Y7.825
X26.25Y14.95
X26.7Y0.55
X26.75Y7.7
X26.755Y2.209
X26.8Y9.25
X26.843Y1.293
X26.882Y10.2
X27.2Y6.55
X27.4Y16.8
X27.411Y2.825
X27.55Y3.6
X27.65Y14.95
X27.652Y2.146
X27.75Y4.6
X27.95Y3.1
X28.05Y7.85
X28.075Y16.8
X28.101Y6.8
X28.25Y14.95
X28.7Y4.05
X29.025Y13.275
X29.05Y16.8
X29.55Y5.5
X30.05Y10.3
X30.125Y0.55
X30.72Y6.409
X31.05Y11.65
X31.1Y6.9
X31.2Y9.45
X31.225Y0.9
X31.25Y16.85
X31.47Y3.64
X31.65Y14.1
X31.65Y13.45
X31.7Y14.825
X31.9Y7.725
X32.2Y0.9
X32.3Y16.65
X32.3Y11.3
X33.1Y16.65
X33.2Y10.35
X33.408Y1.914
X33.45Y11.15
X33.7Y15.55
X33.75Y6.575
X33.75Y5.55
X34.4Y4.2
X34.75Y3.6
X34.75Y2.9
X34.9Y6.6
X35.25Y2.35
X35.6Y6.3
X35.85Y13.25
X36.5Y13.25
X36.7Y6.
X37.4Y9.2
X37.4Y8.45
X38.25Y8.8
X38.71Y6.12
X38.83Y5.41
X23.85Y13.1
X23.85Y12.
X23.85Y10.9
X24.95Y13.1
X24.95Y12.
X24.95Y10.9
X26.05Y13.1
X26.05Y12.
X26.05Y10.9
X22.4Y6.2
X22.4Y5.133
X22.4Y4.067
X22.4Y3.
X23.467Y6.2
X23.467Y5.133
X23.467Y4.067
X23.467Y3.
X24.533Y6.2
X24.533Y5.133
X24.533Y4.067
X24.533Y3.
X25.6Y6.2
X25.6Y5.133
X25.6Y4.067
X25.6Y3.
T2
X38.387Y14.493G85X36.889Y14.493
G05
X38.387Y3.094G85X36.889Y3.094
G05
T0
M30
