G04 #@! TF.GenerationSoftware,KiCad,Pcbnew,(5.0.1)-4*
G04 #@! TF.CreationDate,2019-05-17T17:50:28+02:00*
G04 #@! TF.ProjectId,nk-LoRa,6E6B2D4C6F52612E6B696361645F7063,R1*
G04 #@! TF.SameCoordinates,PX5f5e100PY5f5e100*
G04 #@! TF.FileFunction,Copper,L3,Inr,Signal*
G04 #@! TF.FilePolarity,Positive*
%FSLAX46Y46*%
G04 Gerber Fmt 4.6, Leading zero omitted, Abs format (unit mm)*
G04 Created by KiCad (PCBNEW (5.0.1)-4) date 17.05.2019 17:50:28*
%MOMM*%
%LPD*%
G01*
G04 APERTURE LIST*
G04 #@! TA.AperFunction,NonConductor*
%ADD10C,0.300000*%
G04 #@! TD*
G04 #@! TA.AperFunction,ViaPad*
%ADD11O,3.500120X1.501140*%
G04 #@! TD*
G04 #@! TA.AperFunction,ViaPad*
%ADD12C,0.500000*%
G04 #@! TD*
G04 #@! TA.AperFunction,ViaPad*
%ADD13C,0.450000*%
G04 #@! TD*
G04 #@! TA.AperFunction,Conductor*
%ADD14C,0.500000*%
G04 #@! TD*
G04 #@! TA.AperFunction,Conductor*
%ADD15C,0.150000*%
G04 #@! TD*
G04 #@! TA.AperFunction,Conductor*
%ADD16C,0.600000*%
G04 #@! TD*
G04 #@! TA.AperFunction,Conductor*
%ADD17C,0.200000*%
G04 #@! TD*
G04 APERTURE END LIST*
D10*
X12150000Y-2538571D02*
X12150000Y-1038571D01*
X12864285Y-2538571D02*
X12864285Y-1038571D01*
X13721428Y-2538571D01*
X13721428Y-1038571D01*
X14364285Y-1181428D02*
X14435714Y-1110000D01*
X14578571Y-1038571D01*
X14935714Y-1038571D01*
X15078571Y-1110000D01*
X15150000Y-1181428D01*
X15221428Y-1324285D01*
X15221428Y-1467142D01*
X15150000Y-1681428D01*
X14292857Y-2538571D01*
X15221428Y-2538571D01*
D11*
G04 #@! TO.N,Net-(C18-Pad1)*
G04 #@! TO.C,X2*
X37638180Y3093840D03*
X37638180Y14493360D03*
G04 #@! TD*
D12*
G04 #@! TO.N,GND*
G04 #@! TO.C,U3*
X26050000Y10900000D03*
X26050000Y12000000D03*
X26050000Y13100000D03*
X24950000Y10900000D03*
X24950000Y12000000D03*
X24950000Y13100000D03*
X23850000Y10900000D03*
X23850000Y12000000D03*
X23850000Y13100000D03*
G04 #@! TD*
G04 #@! TO.N,GND*
G04 #@! TO.C,U2*
X22400000Y3000000D03*
X22400000Y4066667D03*
X22400000Y5133333D03*
X22400000Y6200000D03*
X23466667Y3000000D03*
X23466667Y4066667D03*
X23466667Y5133333D03*
X23466667Y6200000D03*
X24533333Y3000000D03*
X24533333Y4066667D03*
X24533333Y5133333D03*
X24533333Y6200000D03*
X25600000Y3000000D03*
X25600000Y4066667D03*
X25600000Y5133333D03*
X25600000Y6200000D03*
G04 #@! TD*
D13*
G04 #@! TO.N,GND*
X19450000Y16225000D03*
X19450000Y15425000D03*
X12575000Y1975000D03*
X14125000Y1775000D03*
X9500000Y10900000D03*
X8700000Y11700000D03*
X11000000Y9150000D03*
X10300000Y11700000D03*
X10300000Y8500000D03*
X11800000Y8500000D03*
X9500000Y10100000D03*
X11800000Y9150000D03*
X10300000Y10900000D03*
X10300000Y10100000D03*
X12200000Y11850000D03*
X9500000Y11700000D03*
X11000000Y8500000D03*
X8700000Y10900000D03*
X8700000Y8500000D03*
X10300000Y9300000D03*
X8700000Y10100000D03*
X8700000Y9300000D03*
X9500000Y8500000D03*
X9500000Y9300000D03*
X12200000Y12650000D03*
X10650000Y16225000D03*
X10650000Y17025000D03*
X10450000Y15550000D03*
X12200000Y13450000D03*
X9650000Y15550000D03*
X9650000Y14750000D03*
X10450000Y14750000D03*
X11450000Y16225000D03*
X11450000Y17025000D03*
X15550000Y10600000D03*
X12600000Y9150000D03*
X13400000Y9300000D03*
X15000000Y9300000D03*
X13975000Y10400000D03*
X13100000Y10400000D03*
X14200000Y9300000D03*
X14650000Y16225000D03*
X15450000Y17025000D03*
X16250000Y17025000D03*
X16250000Y16225000D03*
X15450000Y14675000D03*
X16250000Y14675000D03*
X14500000Y14700000D03*
X16250000Y15425000D03*
X15450000Y15425000D03*
X13850000Y16225000D03*
X14650000Y15425000D03*
X13850000Y15425000D03*
X13500000Y14700000D03*
X15450000Y16225000D03*
X14650000Y17025000D03*
X12250000Y17025000D03*
X13850000Y17025000D03*
X13050000Y17025000D03*
X12250000Y16225000D03*
X13050000Y16225000D03*
X20225000Y17025000D03*
X21775000Y17025000D03*
X17050000Y15425000D03*
X18650000Y16225000D03*
X18650000Y15425000D03*
X17050000Y14675000D03*
X19450000Y17025000D03*
X17050000Y17025000D03*
X17850000Y15425000D03*
X18650000Y17025000D03*
X17850000Y17025000D03*
X17050000Y16225000D03*
X17850000Y16225000D03*
X19600000Y10600000D03*
X20650000Y10600000D03*
X16600000Y7700000D03*
X18900000Y8000000D03*
X19700000Y8000000D03*
X18100000Y8000000D03*
X18550000Y10600000D03*
X16250000Y10600000D03*
X17650000Y10600000D03*
X16950000Y10600000D03*
X20500000Y8000000D03*
X15000000Y8500000D03*
X34900000Y6600000D03*
X18125000Y1650000D03*
X14100000Y14100000D03*
X14950000Y14100000D03*
X13425000Y13975000D03*
X15800000Y14100000D03*
X17500000Y14150000D03*
X16650000Y14100000D03*
X16250000Y11425000D03*
X15550000Y11425000D03*
X14850000Y11425000D03*
X16600000Y6100000D03*
X16600000Y3700000D03*
X16600000Y4500000D03*
X16600000Y5300000D03*
X16600000Y6900000D03*
X16600000Y2900000D03*
X17650000Y12700000D03*
X16950000Y12700000D03*
X16250000Y12700000D03*
X15550000Y12700000D03*
X20850000Y1650000D03*
X11000000Y6900000D03*
X9400000Y6900000D03*
X11800000Y6900000D03*
X10200000Y6900000D03*
X7800000Y6900000D03*
X6200000Y6900000D03*
X8600000Y6900000D03*
X7000000Y6900000D03*
X4600000Y6900000D03*
X3000000Y6900000D03*
X5400000Y6900000D03*
X3800000Y6900000D03*
X1400000Y6900000D03*
X2200000Y6900000D03*
X600000Y6900000D03*
X22100000Y600000D03*
X19975000Y1650000D03*
X19050000Y1650000D03*
X17250000Y1650000D03*
X7800000Y7700000D03*
X8600000Y7700000D03*
X7000000Y7700000D03*
X6200000Y7700000D03*
X5400000Y7700000D03*
X3000000Y7700000D03*
X4600000Y7700000D03*
X3800000Y7700000D03*
X11000000Y7700000D03*
X10200000Y7700000D03*
X9400000Y7700000D03*
X11800000Y7700000D03*
X2200000Y7700000D03*
X13400000Y2900000D03*
X13400000Y3700000D03*
X13400000Y4500000D03*
X13400000Y5300000D03*
X13400000Y6100000D03*
X13400000Y6900000D03*
X13400000Y7700000D03*
X13400000Y8500000D03*
X14200000Y8500000D03*
X14200000Y7700000D03*
X14200000Y6900000D03*
X14200000Y6100000D03*
X14200000Y5300000D03*
X14200000Y4500000D03*
X14200000Y3700000D03*
X14200000Y2900000D03*
X15000000Y2900000D03*
X15000000Y3700000D03*
X15000000Y4500000D03*
X15000000Y5300000D03*
X15800000Y5300000D03*
X15800000Y4500000D03*
X15800000Y3700000D03*
X15800000Y2900000D03*
X15800000Y6900000D03*
X15800000Y6100000D03*
X15000000Y6900000D03*
X15000000Y6100000D03*
X15000000Y7700000D03*
X12600000Y2900000D03*
X12600000Y6100000D03*
X12600000Y3700000D03*
X12600000Y6900000D03*
X12600000Y7700000D03*
X12600000Y8500000D03*
X12600000Y4500000D03*
X12600000Y5300000D03*
D12*
X31700000Y14825000D03*
X36700000Y6000000D03*
X33450000Y11150000D03*
X33700000Y15550000D03*
X33100000Y16650000D03*
X32300000Y16650000D03*
X31470000Y3640000D03*
D13*
X15775000Y1750000D03*
X15000000Y1750000D03*
X19850000Y7075000D03*
X27400000Y16800000D03*
X21950000Y16200000D03*
X14150000Y12700000D03*
X14850000Y12700000D03*
X17650000Y11425000D03*
X16950000Y11425000D03*
X19850000Y6100000D03*
X31200000Y9450000D03*
D12*
X35600000Y6300000D03*
D13*
X33750000Y5550000D03*
X35250000Y2350000D03*
X26250000Y14950000D03*
X29025000Y13275000D03*
X24225000Y14724990D03*
X26800000Y9250000D03*
X38830000Y5410000D03*
D12*
X33750000Y6575000D03*
D13*
X25550000Y550000D03*
X27411404Y2825008D03*
X30125000Y550000D03*
X32200000Y900000D03*
X15375000Y2275000D03*
X14550000Y2275000D03*
X15800000Y7700000D03*
X21775000Y10625002D03*
X13100000Y11200000D03*
X19800000Y9174990D03*
D12*
G04 #@! TO.N,+5V*
X35850000Y13250000D03*
X36500000Y13250000D03*
D13*
X31900000Y7725010D03*
G04 #@! TO.N,Net-(C4-Pad2)*
X20575000Y2325018D03*
G04 #@! TO.N,Net-(C5-Pad2)*
X20576063Y2975011D03*
G04 #@! TO.N,/EN*
X27651928Y2146459D03*
G04 #@! TO.N,+3V3*
X22600000Y1200000D03*
X19150000Y9550000D03*
X27650000Y14950000D03*
X28250000Y14950000D03*
D12*
X29550000Y5500000D03*
X31650000Y13450000D03*
X31650000Y14100000D03*
D13*
X30719976Y6409324D03*
X31050000Y11650000D03*
X21200000Y7900000D03*
X25925000Y7825010D03*
X31250000Y16850000D03*
X27950000Y3100000D03*
X30050000Y10300000D03*
D12*
X27749988Y4600000D03*
D13*
X23300000Y1200000D03*
X20570101Y3604895D03*
X33200000Y10350000D03*
X26749992Y7700000D03*
X20655817Y9246536D03*
X26700000Y550000D03*
X21225000Y2150000D03*
X20538451Y4874999D03*
G04 #@! TO.N,/RTS*
X31100000Y6900000D03*
D12*
X33407661Y1913856D03*
G04 #@! TO.N,/DTR*
X34400000Y4200000D03*
G04 #@! TO.N,/TXD*
X38250000Y8800000D03*
X34750000Y3600000D03*
D13*
G04 #@! TO.N,/RXD0*
X20450000Y6425000D03*
X26754941Y2208647D03*
D12*
G04 #@! TO.N,/RXD*
X34750000Y2900000D03*
X38709997Y6119997D03*
D13*
G04 #@! TO.N,/TXD0*
X20400002Y5800000D03*
X26842919Y1292583D03*
G04 #@! TO.N,Net-(R12-Pad1)*
X31225008Y900000D03*
G04 #@! TO.N,/SD_DETECT*
X32300000Y11300000D03*
X23125000Y8900000D03*
D12*
G04 #@! TO.N,/HD+*
X37400000Y8450000D03*
G04 #@! TO.N,/HD-*
X37400000Y9200000D03*
D13*
G04 #@! TO.N,/RF_RESET*
X25200000Y8750000D03*
X21199888Y7250000D03*
G04 #@! TO.N,/SD_DAT0*
X28049974Y7850012D03*
G04 #@! TO.N,/SD_CLK*
X27550000Y3600000D03*
X28101218Y6799989D03*
G04 #@! TO.N,/SD_CMD*
X29050000Y16800000D03*
G04 #@! TO.N,/RF_CS*
X22999980Y10050000D03*
G04 #@! TO.N,/RF_SCK*
X23700000Y9250000D03*
G04 #@! TO.N,/RF_MISO*
X24249988Y8500000D03*
G04 #@! TO.N,/RF_MOSI*
X23600000Y8500008D03*
G04 #@! TO.N,Net-(C22-Pad1)*
X23500000Y14725000D03*
X28075000Y16800000D03*
G04 #@! TO.N,/DIO2*
X21900000Y9950000D03*
X26881816Y10200000D03*
G04 #@! TO.N,/ANT_SW*
X12950000Y15450000D03*
X19975000Y5325004D03*
G04 #@! TO.N,/DIO1*
X22100169Y8100167D03*
G04 #@! TO.N,/RF_BUSY*
X25700000Y9250000D03*
X21002764Y6683303D03*
G04 #@! TO.N,/GPIO_0*
X27200000Y6550024D03*
G04 #@! TO.N,Net-(R11-Pad1)*
X28700000Y4049998D03*
G04 #@! TD*
D14*
G04 #@! TO.N,+3V3*
X20325000Y9800000D02*
X20575000Y9550000D01*
X19400000Y9800000D02*
X19150000Y9550000D01*
X20650000Y9800000D02*
X19400000Y9800000D01*
X20655817Y9246536D02*
X20655817Y9794183D01*
X20655817Y9794183D02*
X20650000Y9800000D01*
D15*
G04 #@! TO.N,/RTS*
X31100000Y6900000D02*
X33407661Y4592339D01*
X33407661Y4592339D02*
X33407661Y2267409D01*
X33407661Y2267409D02*
X33407661Y1913856D01*
G04 #@! TO.N,/TXD*
X38250000Y8400000D02*
X38250000Y8800000D01*
X36150000Y6300000D02*
X38250000Y8400000D01*
X36150000Y5000000D02*
X36150000Y6300000D01*
X34750000Y3600000D02*
X36150000Y5000000D01*
G04 #@! TO.N,/RXD0*
X23625000Y5675000D02*
X24000000Y5300000D01*
X24621684Y2208647D02*
X26436743Y2208647D01*
X26436743Y2208647D02*
X26754941Y2208647D01*
X24000000Y2830331D02*
X24621684Y2208647D01*
X24000000Y5300000D02*
X24000000Y2830331D01*
X21196614Y5675000D02*
X23625000Y5675000D01*
X20476511Y6395103D02*
X21196614Y5675000D01*
G04 #@! TO.N,/RXD*
X37540000Y4950000D02*
X38459998Y5869998D01*
X38459998Y5869998D02*
X38709997Y6119997D01*
X36800000Y4950000D02*
X37540000Y4950000D01*
X34750000Y2900000D02*
X36800000Y4950000D01*
G04 #@! TO.N,/TXD0*
X26235502Y1900000D02*
X26842919Y1292583D01*
X21600002Y4600000D02*
X22575000Y4600000D01*
X20400002Y5800000D02*
X21600002Y4600000D01*
X22575000Y4600000D02*
X22925000Y4250000D01*
X22925000Y4250000D02*
X22925000Y2766666D01*
X22925000Y2766666D02*
X23791666Y1900000D01*
X23791666Y1900000D02*
X26235502Y1900000D01*
G04 #@! TO.N,/SD_DETECT*
X23125000Y8900000D02*
X23125000Y9425000D01*
X23125000Y9425000D02*
X23400000Y9700000D01*
X32300000Y11300000D02*
X31850000Y10850000D01*
X29000000Y10850000D02*
X27850000Y9700000D01*
X31850000Y10850000D02*
X29000000Y10850000D01*
X23400000Y9700000D02*
X27850000Y9700000D01*
G04 #@! TO.N,/RF_RESET*
X25200000Y8750000D02*
X23700000Y7250000D01*
X21518086Y7250000D02*
X21199888Y7250000D01*
X23700000Y7250000D02*
X21518086Y7250000D01*
D16*
G04 #@! TO.N,Net-(C22-Pad1)*
X28075000Y16225000D02*
X28075000Y16800000D01*
X27650000Y15800000D02*
X28075000Y16225000D01*
X24075000Y15800000D02*
X27650000Y15800000D01*
X23500000Y14725000D02*
X23500000Y15225000D01*
X23500000Y15225000D02*
X24075000Y15800000D01*
D15*
G04 #@! TO.N,/ANT_SW*
X12950000Y12350004D02*
X12950000Y15450000D01*
X17400000Y7900004D02*
X12950000Y12350004D01*
X17400000Y7000000D02*
X17400000Y7900004D01*
X19975000Y5325004D02*
X19074996Y5325004D01*
X19074996Y5325004D02*
X17400000Y7000000D01*
G04 #@! TO.N,/RF_BUSY*
X23983303Y6683303D02*
X21002764Y6683303D01*
X25700000Y9250000D02*
X25700000Y8400000D01*
X25700000Y8400000D02*
X23983303Y6683303D01*
G04 #@! TD*
D17*
G04 #@! TO.N,+3V3*
G36*
X27097205Y17168956D02*
X27031044Y17102795D01*
X26979061Y17024997D01*
X26943254Y16938552D01*
X26925000Y16846783D01*
X26925000Y16753217D01*
X26943254Y16661448D01*
X26979061Y16575003D01*
X27031044Y16497205D01*
X27097205Y16431044D01*
X27175003Y16379061D01*
X27245162Y16350000D01*
X24102011Y16350000D01*
X24075000Y16352660D01*
X24047989Y16350000D01*
X24047982Y16350000D01*
X23967181Y16342042D01*
X23863505Y16310592D01*
X23767958Y16259521D01*
X23725895Y16225000D01*
X23684210Y16190790D01*
X23666987Y16169804D01*
X23130191Y15633008D01*
X23109211Y15615790D01*
X23091993Y15594810D01*
X23091987Y15594804D01*
X23040479Y15532042D01*
X23019589Y15492958D01*
X22989409Y15436494D01*
X22957958Y15332819D01*
X22950000Y15252018D01*
X22950000Y15252008D01*
X22947340Y15225000D01*
X22950000Y15197992D01*
X22950000Y14697983D01*
X22957958Y14617182D01*
X22989408Y14513507D01*
X23040479Y14417958D01*
X23109210Y14334210D01*
X23192958Y14265479D01*
X23288506Y14214408D01*
X23392181Y14182958D01*
X23500000Y14172339D01*
X23607818Y14182958D01*
X23711493Y14214408D01*
X23807042Y14265479D01*
X23890790Y14334210D01*
X23914788Y14363451D01*
X23922205Y14356034D01*
X24000003Y14304051D01*
X24086448Y14268244D01*
X24178217Y14249990D01*
X24271783Y14249990D01*
X24363552Y14268244D01*
X24449997Y14304051D01*
X24527795Y14356034D01*
X24593956Y14422195D01*
X24645939Y14499993D01*
X24681746Y14586438D01*
X24700000Y14678207D01*
X24700000Y14771773D01*
X24681746Y14863542D01*
X24645939Y14949987D01*
X24593956Y15027785D01*
X24527795Y15093946D01*
X24449997Y15145929D01*
X24363552Y15181736D01*
X24271783Y15199990D01*
X24252807Y15199990D01*
X24302817Y15250000D01*
X25879176Y15250000D01*
X25829061Y15174997D01*
X25793254Y15088552D01*
X25775000Y14996783D01*
X25775000Y14903217D01*
X25793254Y14811448D01*
X25829061Y14725003D01*
X25881044Y14647205D01*
X25947205Y14581044D01*
X26025003Y14529061D01*
X26111448Y14493254D01*
X26203217Y14475000D01*
X26296783Y14475000D01*
X26388552Y14493254D01*
X26474997Y14529061D01*
X26552795Y14581044D01*
X26618956Y14647205D01*
X26670939Y14725003D01*
X26706746Y14811448D01*
X26719237Y14874246D01*
X31200000Y14874246D01*
X31200000Y14775754D01*
X31219215Y14679155D01*
X31256906Y14588161D01*
X31311625Y14506269D01*
X31381269Y14436625D01*
X31463161Y14381906D01*
X31554155Y14344215D01*
X31650754Y14325000D01*
X31749246Y14325000D01*
X31845845Y14344215D01*
X31936839Y14381906D01*
X32018731Y14436625D01*
X32088375Y14506269D01*
X32143094Y14588161D01*
X32180785Y14679155D01*
X32200000Y14775754D01*
X32200000Y14874246D01*
X32180785Y14970845D01*
X32143094Y15061839D01*
X32088375Y15143731D01*
X32018731Y15213375D01*
X31936839Y15268094D01*
X31845845Y15305785D01*
X31749246Y15325000D01*
X31650754Y15325000D01*
X31554155Y15305785D01*
X31463161Y15268094D01*
X31381269Y15213375D01*
X31311625Y15143731D01*
X31256906Y15061839D01*
X31219215Y14970845D01*
X31200000Y14874246D01*
X26719237Y14874246D01*
X26725000Y14903217D01*
X26725000Y14996783D01*
X26706746Y15088552D01*
X26670939Y15174997D01*
X26620824Y15250000D01*
X27622992Y15250000D01*
X27650000Y15247340D01*
X27677008Y15250000D01*
X27677018Y15250000D01*
X27757819Y15257958D01*
X27861494Y15289408D01*
X27957042Y15340479D01*
X28040790Y15409210D01*
X28058013Y15430196D01*
X28444804Y15816987D01*
X28465790Y15834210D01*
X28534521Y15917958D01*
X28584517Y16011494D01*
X28585592Y16013505D01*
X28617042Y16117181D01*
X28620591Y16153217D01*
X28625000Y16197982D01*
X28625000Y16197989D01*
X28627660Y16225000D01*
X28625000Y16252011D01*
X28625000Y16584807D01*
X28629061Y16575003D01*
X28681044Y16497205D01*
X28747205Y16431044D01*
X28825003Y16379061D01*
X28911448Y16343254D01*
X29003217Y16325000D01*
X29096783Y16325000D01*
X29188552Y16343254D01*
X29274997Y16379061D01*
X29352795Y16431044D01*
X29418956Y16497205D01*
X29470939Y16575003D01*
X29506746Y16661448D01*
X29514264Y16699246D01*
X31800000Y16699246D01*
X31800000Y16600754D01*
X31819215Y16504155D01*
X31856906Y16413161D01*
X31911625Y16331269D01*
X31981269Y16261625D01*
X32063161Y16206906D01*
X32154155Y16169215D01*
X32250754Y16150000D01*
X32349246Y16150000D01*
X32445845Y16169215D01*
X32536839Y16206906D01*
X32618731Y16261625D01*
X32688375Y16331269D01*
X32700000Y16348667D01*
X32711625Y16331269D01*
X32781269Y16261625D01*
X32863161Y16206906D01*
X32954155Y16169215D01*
X33050754Y16150000D01*
X33149246Y16150000D01*
X33245845Y16169215D01*
X33336839Y16206906D01*
X33418731Y16261625D01*
X33488375Y16331269D01*
X33543094Y16413161D01*
X33580785Y16504155D01*
X33600000Y16600754D01*
X33600000Y16699246D01*
X33580785Y16795845D01*
X33543094Y16886839D01*
X33488375Y16968731D01*
X33418731Y17038375D01*
X33336839Y17093094D01*
X33245845Y17130785D01*
X33149246Y17150000D01*
X33050754Y17150000D01*
X32954155Y17130785D01*
X32863161Y17093094D01*
X32781269Y17038375D01*
X32711625Y16968731D01*
X32700000Y16951333D01*
X32688375Y16968731D01*
X32618731Y17038375D01*
X32536839Y17093094D01*
X32445845Y17130785D01*
X32349246Y17150000D01*
X32250754Y17150000D01*
X32154155Y17130785D01*
X32063161Y17093094D01*
X31981269Y17038375D01*
X31911625Y16968731D01*
X31856906Y16886839D01*
X31819215Y16795845D01*
X31800000Y16699246D01*
X29514264Y16699246D01*
X29525000Y16753217D01*
X29525000Y16846783D01*
X29506746Y16938552D01*
X29470939Y17024997D01*
X29418956Y17102795D01*
X29352795Y17168956D01*
X29306334Y17200000D01*
X35100001Y17200000D01*
X35100000Y16860660D01*
X35078097Y16882563D01*
X34955258Y16964641D01*
X34818767Y17021178D01*
X34673869Y17050000D01*
X34526131Y17050000D01*
X34381233Y17021178D01*
X34244742Y16964641D01*
X34121903Y16882563D01*
X34017437Y16778097D01*
X33935359Y16655258D01*
X33878822Y16518767D01*
X33850000Y16373869D01*
X33850000Y16226131D01*
X33878822Y16081233D01*
X33910876Y16003848D01*
X33845845Y16030785D01*
X33749246Y16050000D01*
X33650754Y16050000D01*
X33554155Y16030785D01*
X33463161Y15993094D01*
X33381269Y15938375D01*
X33311625Y15868731D01*
X33256906Y15786839D01*
X33219215Y15695845D01*
X33200000Y15599246D01*
X33200000Y15500754D01*
X33219215Y15404155D01*
X33256906Y15313161D01*
X33311625Y15231269D01*
X33381269Y15161625D01*
X33463161Y15106906D01*
X33554155Y15069215D01*
X33650754Y15050000D01*
X33749246Y15050000D01*
X33845845Y15069215D01*
X33936839Y15106906D01*
X34018731Y15161625D01*
X34088375Y15231269D01*
X34143094Y15313161D01*
X34180785Y15404155D01*
X34200000Y15500754D01*
X34200000Y15599246D01*
X34184857Y15675372D01*
X34244742Y15635359D01*
X34381233Y15578822D01*
X34526131Y15550000D01*
X34673869Y15550000D01*
X34818767Y15578822D01*
X34955258Y15635359D01*
X35078097Y15717437D01*
X35182563Y15821903D01*
X35264641Y15944742D01*
X35321178Y16081233D01*
X35350000Y16226131D01*
X35350000Y16227503D01*
X35421586Y16205788D01*
X35500000Y16198065D01*
X35519646Y16200000D01*
X39600001Y16200000D01*
X39600001Y14767837D01*
X39566549Y14878114D01*
X39473639Y15051936D01*
X39348603Y15204293D01*
X39196246Y15329329D01*
X39022424Y15422239D01*
X38833816Y15479452D01*
X38686821Y15493930D01*
X36589539Y15493930D01*
X36442544Y15479452D01*
X36253936Y15422239D01*
X36080114Y15329329D01*
X35927757Y15204293D01*
X35802721Y15051936D01*
X35709811Y14878114D01*
X35652598Y14689506D01*
X35633279Y14493360D01*
X35652598Y14297214D01*
X35709811Y14108606D01*
X35802721Y13934784D01*
X35927757Y13782427D01*
X35989032Y13732140D01*
X35899246Y13750000D01*
X35800754Y13750000D01*
X35704155Y13730785D01*
X35613161Y13693094D01*
X35531269Y13638375D01*
X35461625Y13568731D01*
X35406906Y13486839D01*
X35369215Y13395845D01*
X35350000Y13299246D01*
X35350000Y13200754D01*
X35369215Y13104155D01*
X35406906Y13013161D01*
X35461625Y12931269D01*
X35531269Y12861625D01*
X35613161Y12806906D01*
X35704155Y12769215D01*
X35800754Y12750000D01*
X35899246Y12750000D01*
X35995845Y12769215D01*
X36086839Y12806906D01*
X36168731Y12861625D01*
X36175000Y12867894D01*
X36181269Y12861625D01*
X36263161Y12806906D01*
X36354155Y12769215D01*
X36450754Y12750000D01*
X36549246Y12750000D01*
X36645845Y12769215D01*
X36736839Y12806906D01*
X36818731Y12861625D01*
X36888375Y12931269D01*
X36943094Y13013161D01*
X36980785Y13104155D01*
X37000000Y13200754D01*
X37000000Y13299246D01*
X36980785Y13395845D01*
X36943094Y13486839D01*
X36939118Y13492790D01*
X38686821Y13492790D01*
X38833816Y13507268D01*
X39022424Y13564481D01*
X39196246Y13657391D01*
X39348603Y13782427D01*
X39473639Y13934784D01*
X39566549Y14108606D01*
X39600001Y14218883D01*
X39600000Y3368319D01*
X39566549Y3478594D01*
X39473639Y3652416D01*
X39348603Y3804773D01*
X39196246Y3929809D01*
X39022424Y4022719D01*
X38833816Y4079932D01*
X38686821Y4094410D01*
X36589539Y4094410D01*
X36442544Y4079932D01*
X36366476Y4056857D01*
X36934619Y4625000D01*
X37524047Y4625000D01*
X37540000Y4623429D01*
X37555953Y4625000D01*
X37555961Y4625000D01*
X37603711Y4629703D01*
X37664974Y4648287D01*
X37721434Y4678465D01*
X37770921Y4719079D01*
X37781101Y4731483D01*
X38364596Y5314976D01*
X38373254Y5271448D01*
X38409061Y5185003D01*
X38461044Y5107205D01*
X38527205Y5041044D01*
X38605003Y4989061D01*
X38691448Y4953254D01*
X38783217Y4935000D01*
X38876783Y4935000D01*
X38968552Y4953254D01*
X39054997Y4989061D01*
X39132795Y5041044D01*
X39198956Y5107205D01*
X39250939Y5185003D01*
X39286746Y5271448D01*
X39305000Y5363217D01*
X39305000Y5456783D01*
X39286746Y5548552D01*
X39250939Y5634997D01*
X39198956Y5712795D01*
X39132795Y5778956D01*
X39098691Y5801744D01*
X39153091Y5883158D01*
X39190782Y5974152D01*
X39209997Y6070751D01*
X39209997Y6169243D01*
X39190782Y6265842D01*
X39153091Y6356836D01*
X39098372Y6438728D01*
X39028728Y6508372D01*
X38946836Y6563091D01*
X38855842Y6600782D01*
X38759243Y6619997D01*
X38660751Y6619997D01*
X38564152Y6600782D01*
X38488090Y6569276D01*
X38488090Y6626869D01*
X38455428Y6791070D01*
X38391360Y6945743D01*
X38298348Y7084946D01*
X38179966Y7203328D01*
X38040763Y7296340D01*
X37886090Y7360408D01*
X37721889Y7393070D01*
X37702689Y7393070D01*
X38468524Y8158905D01*
X38480921Y8169079D01*
X38521535Y8218566D01*
X38551713Y8275026D01*
X38566922Y8325164D01*
X38570297Y8336288D01*
X38570895Y8342362D01*
X38575000Y8384039D01*
X38575000Y8384046D01*
X38576571Y8399999D01*
X38575000Y8415952D01*
X38575000Y8417894D01*
X38638375Y8481269D01*
X38693094Y8563161D01*
X38730785Y8654155D01*
X38750000Y8750754D01*
X38750000Y8849246D01*
X38730785Y8945845D01*
X38693094Y9036839D01*
X38638375Y9118731D01*
X38568731Y9188375D01*
X38486839Y9243094D01*
X38395845Y9280785D01*
X38299246Y9300000D01*
X38200754Y9300000D01*
X38104155Y9280785D01*
X38013161Y9243094D01*
X37931269Y9188375D01*
X37900000Y9157106D01*
X37900000Y9249246D01*
X37880785Y9345845D01*
X37843094Y9436839D01*
X37788375Y9518731D01*
X37718731Y9588375D01*
X37636839Y9643094D01*
X37545845Y9680785D01*
X37449246Y9700000D01*
X37350754Y9700000D01*
X37254155Y9680785D01*
X37163161Y9643094D01*
X37081269Y9588375D01*
X37011625Y9518731D01*
X36956906Y9436839D01*
X36919215Y9345845D01*
X36900000Y9249246D01*
X36900000Y9150754D01*
X36919215Y9054155D01*
X36956906Y8963161D01*
X37011625Y8881269D01*
X37067894Y8825000D01*
X37011625Y8768731D01*
X36956906Y8686839D01*
X36919215Y8595845D01*
X36900000Y8499246D01*
X36900000Y8400754D01*
X36919215Y8304155D01*
X36956906Y8213161D01*
X37011625Y8131269D01*
X37081269Y8061625D01*
X37163161Y8006906D01*
X37254155Y7969215D01*
X37342102Y7951721D01*
X35996682Y6606300D01*
X35988375Y6618731D01*
X35918731Y6688375D01*
X35836839Y6743094D01*
X35745845Y6780785D01*
X35649246Y6800000D01*
X35550754Y6800000D01*
X35454155Y6780785D01*
X35363161Y6743094D01*
X35356663Y6738752D01*
X35320939Y6824997D01*
X35268956Y6902795D01*
X35202795Y6968956D01*
X35124997Y7020939D01*
X35038552Y7056746D01*
X34946783Y7075000D01*
X34853217Y7075000D01*
X34761448Y7056746D01*
X34675003Y7020939D01*
X34597205Y6968956D01*
X34531044Y6902795D01*
X34479061Y6824997D01*
X34443254Y6738552D01*
X34425000Y6646783D01*
X34425000Y6553217D01*
X34443254Y6461448D01*
X34479061Y6375003D01*
X34531044Y6297205D01*
X34597205Y6231044D01*
X34675003Y6179061D01*
X34761448Y6143254D01*
X34853217Y6125000D01*
X34946783Y6125000D01*
X35038552Y6143254D01*
X35115078Y6174952D01*
X35119215Y6154155D01*
X35156906Y6063161D01*
X35211625Y5981269D01*
X35281269Y5911625D01*
X35363161Y5856906D01*
X35454155Y5819215D01*
X35550754Y5800000D01*
X35649246Y5800000D01*
X35745845Y5819215D01*
X35825001Y5852002D01*
X35825000Y5134619D01*
X34900000Y4209618D01*
X34900000Y4249246D01*
X34880785Y4345845D01*
X34843094Y4436839D01*
X34788375Y4518731D01*
X34718731Y4588375D01*
X34636839Y4643094D01*
X34545845Y4680785D01*
X34449246Y4700000D01*
X34350754Y4700000D01*
X34254155Y4680785D01*
X34163161Y4643094D01*
X34081269Y4588375D01*
X34011625Y4518731D01*
X33956906Y4436839D01*
X33919215Y4345845D01*
X33900000Y4249246D01*
X33900000Y4150754D01*
X33919215Y4054155D01*
X33956906Y3963161D01*
X34011625Y3881269D01*
X34081269Y3811625D01*
X34163161Y3756906D01*
X34254155Y3719215D01*
X34263546Y3717347D01*
X34250000Y3649246D01*
X34250000Y3550754D01*
X34269215Y3454155D01*
X34306906Y3363161D01*
X34361625Y3281269D01*
X34392894Y3250000D01*
X34361625Y3218731D01*
X34306906Y3136839D01*
X34269215Y3045845D01*
X34250000Y2949246D01*
X34250000Y2850754D01*
X34269215Y2754155D01*
X34306906Y2663161D01*
X34361625Y2581269D01*
X34431269Y2511625D01*
X34513161Y2456906D01*
X34604155Y2419215D01*
X34700754Y2400000D01*
X34775640Y2400000D01*
X34775000Y2396783D01*
X34775000Y2303217D01*
X34793254Y2211448D01*
X34829061Y2125003D01*
X34881044Y2047205D01*
X34947205Y1981044D01*
X35025003Y1929061D01*
X35111448Y1893254D01*
X35203217Y1875000D01*
X35296783Y1875000D01*
X35388552Y1893254D01*
X35474997Y1929061D01*
X35552795Y1981044D01*
X35618956Y2047205D01*
X35670939Y2125003D01*
X35706746Y2211448D01*
X35725000Y2303217D01*
X35725000Y2396783D01*
X35706746Y2488552D01*
X35670939Y2574997D01*
X35618956Y2652795D01*
X35552795Y2718956D01*
X35474997Y2770939D01*
X35388552Y2806746D01*
X35296783Y2825000D01*
X35244877Y2825000D01*
X35250000Y2850754D01*
X35250000Y2940382D01*
X35675673Y3366055D01*
X35652598Y3289986D01*
X35633279Y3093840D01*
X35652598Y2897694D01*
X35709811Y2709086D01*
X35802721Y2535264D01*
X35927757Y2382907D01*
X36080114Y2257871D01*
X36253936Y2164961D01*
X36442544Y2107748D01*
X36589539Y2093270D01*
X38686821Y2093270D01*
X38833816Y2107748D01*
X39022424Y2164961D01*
X39196246Y2257871D01*
X39348603Y2382907D01*
X39473639Y2535264D01*
X39566549Y2709086D01*
X39600000Y2819361D01*
X39600000Y1400000D01*
X35519647Y1400000D01*
X35500000Y1401935D01*
X35480354Y1400000D01*
X35480353Y1400000D01*
X35421586Y1394212D01*
X35350000Y1372497D01*
X35350000Y1373869D01*
X35321178Y1518767D01*
X35264641Y1655258D01*
X35182563Y1778097D01*
X35078097Y1882563D01*
X34955258Y1964641D01*
X34818767Y2021178D01*
X34673869Y2050000D01*
X34526131Y2050000D01*
X34381233Y2021178D01*
X34244742Y1964641D01*
X34121903Y1882563D01*
X34017437Y1778097D01*
X33935359Y1655258D01*
X33878822Y1518767D01*
X33850000Y1373869D01*
X33850000Y1226131D01*
X33878822Y1081233D01*
X33935359Y944742D01*
X34017437Y821903D01*
X34121903Y717437D01*
X34244742Y635359D01*
X34381233Y578822D01*
X34526131Y550000D01*
X34673869Y550000D01*
X34818767Y578822D01*
X34955258Y635359D01*
X35078097Y717437D01*
X35100001Y739341D01*
X35100000Y400000D01*
X30577004Y400000D01*
X30581746Y411448D01*
X30600000Y503217D01*
X30600000Y596783D01*
X30581746Y688552D01*
X30545939Y774997D01*
X30493956Y852795D01*
X30427795Y918956D01*
X30386149Y946783D01*
X30750008Y946783D01*
X30750008Y853217D01*
X30768262Y761448D01*
X30804069Y675003D01*
X30856052Y597205D01*
X30922213Y531044D01*
X31000011Y479061D01*
X31086456Y443254D01*
X31178225Y425000D01*
X31271791Y425000D01*
X31363560Y443254D01*
X31450005Y479061D01*
X31527803Y531044D01*
X31593964Y597205D01*
X31645947Y675003D01*
X31681754Y761448D01*
X31700008Y853217D01*
X31700008Y946783D01*
X31725000Y946783D01*
X31725000Y853217D01*
X31743254Y761448D01*
X31779061Y675003D01*
X31831044Y597205D01*
X31897205Y531044D01*
X31975003Y479061D01*
X32061448Y443254D01*
X32153217Y425000D01*
X32246783Y425000D01*
X32338552Y443254D01*
X32424997Y479061D01*
X32502795Y531044D01*
X32568956Y597205D01*
X32620939Y675003D01*
X32656746Y761448D01*
X32675000Y853217D01*
X32675000Y946783D01*
X32656746Y1038552D01*
X32620939Y1124997D01*
X32568956Y1202795D01*
X32502795Y1268956D01*
X32424997Y1320939D01*
X32338552Y1356746D01*
X32246783Y1375000D01*
X32153217Y1375000D01*
X32061448Y1356746D01*
X31975003Y1320939D01*
X31897205Y1268956D01*
X31831044Y1202795D01*
X31779061Y1124997D01*
X31743254Y1038552D01*
X31725000Y946783D01*
X31700008Y946783D01*
X31681754Y1038552D01*
X31645947Y1124997D01*
X31593964Y1202795D01*
X31527803Y1268956D01*
X31450005Y1320939D01*
X31363560Y1356746D01*
X31271791Y1375000D01*
X31178225Y1375000D01*
X31086456Y1356746D01*
X31000011Y1320939D01*
X30922213Y1268956D01*
X30856052Y1202795D01*
X30804069Y1124997D01*
X30768262Y1038552D01*
X30750008Y946783D01*
X30386149Y946783D01*
X30349997Y970939D01*
X30263552Y1006746D01*
X30171783Y1025000D01*
X30078217Y1025000D01*
X29986448Y1006746D01*
X29900003Y970939D01*
X29822205Y918956D01*
X29756044Y852795D01*
X29704061Y774997D01*
X29668254Y688552D01*
X29650000Y596783D01*
X29650000Y503217D01*
X29668254Y411448D01*
X29672996Y400000D01*
X26002004Y400000D01*
X26006746Y411448D01*
X26025000Y503217D01*
X26025000Y596783D01*
X26006746Y688552D01*
X25970939Y774997D01*
X25918956Y852795D01*
X25852795Y918956D01*
X25774997Y970939D01*
X25688552Y1006746D01*
X25596783Y1025000D01*
X25503217Y1025000D01*
X25411448Y1006746D01*
X25325003Y970939D01*
X25247205Y918956D01*
X25181044Y852795D01*
X25129061Y774997D01*
X25093254Y688552D01*
X25075000Y596783D01*
X25075000Y503217D01*
X25093254Y411448D01*
X25097996Y400000D01*
X23141422Y400000D01*
X22270711Y1270711D01*
X22255557Y1283147D01*
X22238268Y1292388D01*
X22219509Y1298079D01*
X22200000Y1300000D01*
X21841422Y1300000D01*
X21274131Y1867291D01*
X21270939Y1874997D01*
X21218956Y1952795D01*
X21152795Y2018956D01*
X21074997Y2070939D01*
X21067291Y2074131D01*
X21009255Y2132167D01*
X21031746Y2186466D01*
X21050000Y2278235D01*
X21050000Y2371801D01*
X21031746Y2463570D01*
X20995939Y2550015D01*
X20943956Y2627813D01*
X20922286Y2649483D01*
X20945019Y2672216D01*
X20997002Y2750014D01*
X21032809Y2836459D01*
X21051063Y2928228D01*
X21051063Y3021794D01*
X21032809Y3113563D01*
X20997002Y3200008D01*
X20945019Y3277806D01*
X20878858Y3343967D01*
X20801060Y3395950D01*
X20714615Y3431757D01*
X20622846Y3450011D01*
X20529280Y3450011D01*
X20437511Y3431757D01*
X20351066Y3395950D01*
X20273268Y3343967D01*
X20250000Y3320699D01*
X20250000Y4937476D01*
X20277795Y4956048D01*
X20343956Y5022209D01*
X20395939Y5100007D01*
X20431746Y5186452D01*
X20450000Y5278221D01*
X20450000Y5290384D01*
X21358906Y4381477D01*
X21369081Y4369079D01*
X21418568Y4328465D01*
X21465264Y4303506D01*
X21475028Y4298287D01*
X21536290Y4279703D01*
X21542364Y4279105D01*
X21584041Y4275000D01*
X21584048Y4275000D01*
X21600001Y4273429D01*
X21615954Y4275000D01*
X21945098Y4275000D01*
X21919215Y4212512D01*
X21900000Y4115913D01*
X21900000Y4017421D01*
X21919215Y3920822D01*
X21956906Y3829828D01*
X22011625Y3747936D01*
X22081269Y3678292D01*
X22163161Y3623573D01*
X22254155Y3585882D01*
X22350754Y3566667D01*
X22449246Y3566667D01*
X22545845Y3585882D01*
X22600000Y3608314D01*
X22600001Y3458353D01*
X22545845Y3480785D01*
X22449246Y3500000D01*
X22350754Y3500000D01*
X22254155Y3480785D01*
X22163161Y3443094D01*
X22081269Y3388375D01*
X22011625Y3318731D01*
X21956906Y3236839D01*
X21919215Y3145845D01*
X21900000Y3049246D01*
X21900000Y2950754D01*
X21919215Y2854155D01*
X21956906Y2763161D01*
X22011625Y2681269D01*
X22081269Y2611625D01*
X22163161Y2556906D01*
X22254155Y2519215D01*
X22350754Y2500000D01*
X22449246Y2500000D01*
X22545845Y2519215D01*
X22636839Y2556906D01*
X22662591Y2574113D01*
X22694080Y2535745D01*
X22706478Y2525570D01*
X23550570Y1681477D01*
X23560745Y1669079D01*
X23610232Y1628465D01*
X23666692Y1598287D01*
X23727955Y1579703D01*
X23775705Y1575000D01*
X23775713Y1575000D01*
X23791666Y1573429D01*
X23807619Y1575000D01*
X26100884Y1575000D01*
X26367919Y1307964D01*
X26367919Y1245800D01*
X26386173Y1154031D01*
X26421980Y1067586D01*
X26473963Y989788D01*
X26540124Y923627D01*
X26617922Y871644D01*
X26704367Y835837D01*
X26796136Y817583D01*
X26889702Y817583D01*
X26981471Y835837D01*
X27067916Y871644D01*
X27145714Y923627D01*
X27211875Y989788D01*
X27263858Y1067586D01*
X27299665Y1154031D01*
X27317919Y1245800D01*
X27317919Y1339366D01*
X27299665Y1431135D01*
X27263858Y1517580D01*
X27211875Y1595378D01*
X27145714Y1661539D01*
X27067916Y1713522D01*
X26981471Y1749329D01*
X26917840Y1761986D01*
X26979938Y1787708D01*
X27057736Y1839691D01*
X27123897Y1905852D01*
X27175880Y1983650D01*
X27192180Y2023001D01*
X27195182Y2007907D01*
X27230989Y1921462D01*
X27282972Y1843664D01*
X27349133Y1777503D01*
X27426931Y1725520D01*
X27513376Y1689713D01*
X27605145Y1671459D01*
X27698711Y1671459D01*
X27790480Y1689713D01*
X27876925Y1725520D01*
X27954723Y1777503D01*
X28020884Y1843664D01*
X28072867Y1921462D01*
X28108674Y2007907D01*
X28126928Y2099676D01*
X28126928Y2193242D01*
X28108674Y2285011D01*
X28072867Y2371456D01*
X28020884Y2449254D01*
X27954723Y2515415D01*
X27876925Y2567398D01*
X27824940Y2588931D01*
X27832343Y2600011D01*
X27868150Y2686456D01*
X27886404Y2778225D01*
X27886404Y2871791D01*
X27868150Y2963560D01*
X27832343Y3050005D01*
X27780360Y3127803D01*
X27742544Y3165619D01*
X27774997Y3179061D01*
X27852795Y3231044D01*
X27918956Y3297205D01*
X27970939Y3375003D01*
X28006746Y3461448D01*
X28025000Y3553217D01*
X28025000Y3646783D01*
X28006746Y3738552D01*
X27970939Y3824997D01*
X27918956Y3902795D01*
X27852795Y3968956D01*
X27774997Y4020939D01*
X27688552Y4056746D01*
X27596783Y4075000D01*
X27503217Y4075000D01*
X27411448Y4056746D01*
X27325003Y4020939D01*
X27247205Y3968956D01*
X27181044Y3902795D01*
X27129061Y3824997D01*
X27093254Y3738552D01*
X27075000Y3646783D01*
X27075000Y3553217D01*
X27093254Y3461448D01*
X27129061Y3375003D01*
X27181044Y3297205D01*
X27218860Y3259389D01*
X27186407Y3245947D01*
X27108609Y3193964D01*
X27042448Y3127803D01*
X26990465Y3050005D01*
X26954658Y2963560D01*
X26936404Y2871791D01*
X26936404Y2778225D01*
X26954658Y2686456D01*
X26977858Y2630448D01*
X26893493Y2665393D01*
X26801724Y2683647D01*
X26708158Y2683647D01*
X26616389Y2665393D01*
X26529944Y2629586D01*
X26452146Y2577603D01*
X26408190Y2533647D01*
X25780687Y2533647D01*
X25836839Y2556906D01*
X25918731Y2611625D01*
X25988375Y2681269D01*
X26043094Y2763161D01*
X26080785Y2854155D01*
X26100000Y2950754D01*
X26100000Y3049246D01*
X26080785Y3145845D01*
X26043094Y3236839D01*
X25988375Y3318731D01*
X25918731Y3388375D01*
X25836839Y3443094D01*
X25745845Y3480785D01*
X25649246Y3500000D01*
X25550754Y3500000D01*
X25454155Y3480785D01*
X25363161Y3443094D01*
X25281269Y3388375D01*
X25211625Y3318731D01*
X25156906Y3236839D01*
X25119215Y3145845D01*
X25100000Y3049246D01*
X25100000Y2950754D01*
X25119215Y2854155D01*
X25156906Y2763161D01*
X25211625Y2681269D01*
X25281269Y2611625D01*
X25363161Y2556906D01*
X25419313Y2533647D01*
X24756303Y2533647D01*
X24743918Y2546031D01*
X24770172Y2556906D01*
X24852064Y2611625D01*
X24921708Y2681269D01*
X24976427Y2763161D01*
X25014118Y2854155D01*
X25033333Y2950754D01*
X25033333Y3049246D01*
X25014118Y3145845D01*
X24976427Y3236839D01*
X24921708Y3318731D01*
X24852064Y3388375D01*
X24770172Y3443094D01*
X24679178Y3480785D01*
X24582579Y3500000D01*
X24484087Y3500000D01*
X24387488Y3480785D01*
X24325000Y3454902D01*
X24325000Y3611765D01*
X24387488Y3585882D01*
X24484087Y3566667D01*
X24582579Y3566667D01*
X24679178Y3585882D01*
X24770172Y3623573D01*
X24852064Y3678292D01*
X24921708Y3747936D01*
X24976427Y3829828D01*
X25014118Y3920822D01*
X25033333Y4017421D01*
X25033333Y4115913D01*
X25100000Y4115913D01*
X25100000Y4017421D01*
X25119215Y3920822D01*
X25156906Y3829828D01*
X25211625Y3747936D01*
X25281269Y3678292D01*
X25363161Y3623573D01*
X25454155Y3585882D01*
X25550754Y3566667D01*
X25649246Y3566667D01*
X25745845Y3585882D01*
X25836839Y3623573D01*
X25918731Y3678292D01*
X25988375Y3747936D01*
X26043094Y3829828D01*
X26080785Y3920822D01*
X26100000Y4017421D01*
X26100000Y4096781D01*
X28225000Y4096781D01*
X28225000Y4003215D01*
X28243254Y3911446D01*
X28279061Y3825001D01*
X28331044Y3747203D01*
X28397205Y3681042D01*
X28475003Y3629059D01*
X28561448Y3593252D01*
X28653217Y3574998D01*
X28746783Y3574998D01*
X28838552Y3593252D01*
X28924997Y3629059D01*
X29002795Y3681042D01*
X29010999Y3689246D01*
X30970000Y3689246D01*
X30970000Y3590754D01*
X30989215Y3494155D01*
X31026906Y3403161D01*
X31081625Y3321269D01*
X31151269Y3251625D01*
X31233161Y3196906D01*
X31324155Y3159215D01*
X31420754Y3140000D01*
X31519246Y3140000D01*
X31615845Y3159215D01*
X31706839Y3196906D01*
X31788731Y3251625D01*
X31858375Y3321269D01*
X31913094Y3403161D01*
X31950785Y3494155D01*
X31970000Y3590754D01*
X31970000Y3689246D01*
X31950785Y3785845D01*
X31913094Y3876839D01*
X31858375Y3958731D01*
X31788731Y4028375D01*
X31706839Y4083094D01*
X31615845Y4120785D01*
X31519246Y4140000D01*
X31420754Y4140000D01*
X31324155Y4120785D01*
X31233161Y4083094D01*
X31151269Y4028375D01*
X31081625Y3958731D01*
X31026906Y3876839D01*
X30989215Y3785845D01*
X30970000Y3689246D01*
X29010999Y3689246D01*
X29068956Y3747203D01*
X29120939Y3825001D01*
X29156746Y3911446D01*
X29175000Y4003215D01*
X29175000Y4096781D01*
X29156746Y4188550D01*
X29120939Y4274995D01*
X29068956Y4352793D01*
X29002795Y4418954D01*
X28924997Y4470937D01*
X28838552Y4506744D01*
X28746783Y4524998D01*
X28653217Y4524998D01*
X28561448Y4506744D01*
X28475003Y4470937D01*
X28397205Y4418954D01*
X28331044Y4352793D01*
X28279061Y4274995D01*
X28243254Y4188550D01*
X28225000Y4096781D01*
X26100000Y4096781D01*
X26100000Y4115913D01*
X26080785Y4212512D01*
X26043094Y4303506D01*
X25988375Y4385398D01*
X25918731Y4455042D01*
X25836839Y4509761D01*
X25745845Y4547452D01*
X25649246Y4566667D01*
X25550754Y4566667D01*
X25454155Y4547452D01*
X25363161Y4509761D01*
X25281269Y4455042D01*
X25211625Y4385398D01*
X25156906Y4303506D01*
X25119215Y4212512D01*
X25100000Y4115913D01*
X25033333Y4115913D01*
X25014118Y4212512D01*
X24976427Y4303506D01*
X24921708Y4385398D01*
X24852064Y4455042D01*
X24770172Y4509761D01*
X24679178Y4547452D01*
X24582579Y4566667D01*
X24484087Y4566667D01*
X24387488Y4547452D01*
X24325000Y4521569D01*
X24325000Y4678431D01*
X24387488Y4652548D01*
X24484087Y4633333D01*
X24582579Y4633333D01*
X24679178Y4652548D01*
X24770172Y4690239D01*
X24852064Y4744958D01*
X24921708Y4814602D01*
X24976427Y4896494D01*
X25014118Y4987488D01*
X25033333Y5084087D01*
X25033333Y5182579D01*
X25100000Y5182579D01*
X25100000Y5084087D01*
X25119215Y4987488D01*
X25156906Y4896494D01*
X25211625Y4814602D01*
X25281269Y4744958D01*
X25363161Y4690239D01*
X25454155Y4652548D01*
X25550754Y4633333D01*
X25649246Y4633333D01*
X25745845Y4652548D01*
X25836839Y4690239D01*
X25918731Y4744958D01*
X25988375Y4814602D01*
X26043094Y4896494D01*
X26080785Y4987488D01*
X26100000Y5084087D01*
X26100000Y5182579D01*
X26080785Y5279178D01*
X26043094Y5370172D01*
X25988375Y5452064D01*
X25918731Y5521708D01*
X25836839Y5576427D01*
X25745845Y5614118D01*
X25649246Y5633333D01*
X25550754Y5633333D01*
X25454155Y5614118D01*
X25363161Y5576427D01*
X25281269Y5521708D01*
X25211625Y5452064D01*
X25156906Y5370172D01*
X25119215Y5279178D01*
X25100000Y5182579D01*
X25033333Y5182579D01*
X25014118Y5279178D01*
X24976427Y5370172D01*
X24921708Y5452064D01*
X24852064Y5521708D01*
X24770172Y5576427D01*
X24679178Y5614118D01*
X24582579Y5633333D01*
X24484087Y5633333D01*
X24387488Y5614118D01*
X24296494Y5576427D01*
X24229785Y5531853D01*
X24218524Y5541095D01*
X23866101Y5893517D01*
X23864516Y5895448D01*
X23909761Y5963161D01*
X23947452Y6054155D01*
X23966667Y6150754D01*
X23966667Y6249246D01*
X23947452Y6345845D01*
X23942292Y6358303D01*
X23967350Y6358303D01*
X23983303Y6356732D01*
X23999256Y6358303D01*
X23999264Y6358303D01*
X24047014Y6363006D01*
X24061473Y6367392D01*
X24052548Y6345845D01*
X24033333Y6249246D01*
X24033333Y6150754D01*
X24052548Y6054155D01*
X24090239Y5963161D01*
X24144958Y5881269D01*
X24214602Y5811625D01*
X24296494Y5756906D01*
X24387488Y5719215D01*
X24484087Y5700000D01*
X24582579Y5700000D01*
X24679178Y5719215D01*
X24770172Y5756906D01*
X24852064Y5811625D01*
X24921708Y5881269D01*
X24976427Y5963161D01*
X25014118Y6054155D01*
X25033333Y6150754D01*
X25033333Y6249246D01*
X25100000Y6249246D01*
X25100000Y6150754D01*
X25119215Y6054155D01*
X25156906Y5963161D01*
X25211625Y5881269D01*
X25281269Y5811625D01*
X25363161Y5756906D01*
X25454155Y5719215D01*
X25550754Y5700000D01*
X25649246Y5700000D01*
X25745845Y5719215D01*
X25836839Y5756906D01*
X25918731Y5811625D01*
X25988375Y5881269D01*
X26043094Y5963161D01*
X26080785Y6054155D01*
X26100000Y6150754D01*
X26100000Y6249246D01*
X26080785Y6345845D01*
X26043094Y6436839D01*
X25988375Y6518731D01*
X25918731Y6588375D01*
X25906112Y6596807D01*
X26725000Y6596807D01*
X26725000Y6503241D01*
X26743254Y6411472D01*
X26779061Y6325027D01*
X26831044Y6247229D01*
X26897205Y6181068D01*
X26975003Y6129085D01*
X27061448Y6093278D01*
X27153217Y6075024D01*
X27246783Y6075024D01*
X27338552Y6093278D01*
X27424997Y6129085D01*
X27502795Y6181068D01*
X27568956Y6247229D01*
X27620939Y6325027D01*
X27656746Y6411472D01*
X27675000Y6503241D01*
X27675000Y6587737D01*
X27680279Y6574992D01*
X27732262Y6497194D01*
X27798423Y6431033D01*
X27876221Y6379050D01*
X27962666Y6343243D01*
X28054435Y6324989D01*
X28148001Y6324989D01*
X28239770Y6343243D01*
X28326215Y6379050D01*
X28404013Y6431033D01*
X28470174Y6497194D01*
X28522157Y6574992D01*
X28557964Y6661437D01*
X28576218Y6753206D01*
X28576218Y6846772D01*
X28557964Y6938541D01*
X28554551Y6946783D01*
X30625000Y6946783D01*
X30625000Y6853217D01*
X30643254Y6761448D01*
X30679061Y6675003D01*
X30731044Y6597205D01*
X30797205Y6531044D01*
X30875003Y6479061D01*
X30961448Y6443254D01*
X31053217Y6425000D01*
X31115382Y6425000D01*
X33082661Y4457720D01*
X33082662Y2295963D01*
X33019286Y2232587D01*
X32964567Y2150695D01*
X32926876Y2059701D01*
X32907661Y1963102D01*
X32907661Y1864610D01*
X32926876Y1768011D01*
X32964567Y1677017D01*
X33019286Y1595125D01*
X33088930Y1525481D01*
X33170822Y1470762D01*
X33261816Y1433071D01*
X33358415Y1413856D01*
X33456907Y1413856D01*
X33553506Y1433071D01*
X33644500Y1470762D01*
X33726392Y1525481D01*
X33796036Y1595125D01*
X33850755Y1677017D01*
X33888446Y1768011D01*
X33907661Y1864610D01*
X33907661Y1963102D01*
X33888446Y2059701D01*
X33850755Y2150695D01*
X33796036Y2232587D01*
X33732661Y2295962D01*
X33732661Y4576387D01*
X33734232Y4592340D01*
X33732661Y4608293D01*
X33732661Y4608300D01*
X33727958Y4656050D01*
X33709374Y4717313D01*
X33679196Y4773773D01*
X33638582Y4823260D01*
X33626185Y4833434D01*
X32862836Y5596783D01*
X33275000Y5596783D01*
X33275000Y5503217D01*
X33293254Y5411448D01*
X33329061Y5325003D01*
X33381044Y5247205D01*
X33447205Y5181044D01*
X33525003Y5129061D01*
X33611448Y5093254D01*
X33703217Y5075000D01*
X33796783Y5075000D01*
X33888552Y5093254D01*
X33974997Y5129061D01*
X34052795Y5181044D01*
X34118956Y5247205D01*
X34170939Y5325003D01*
X34206746Y5411448D01*
X34225000Y5503217D01*
X34225000Y5596783D01*
X34206746Y5688552D01*
X34170939Y5774997D01*
X34118956Y5852795D01*
X34052795Y5918956D01*
X33974997Y5970939D01*
X33888552Y6006746D01*
X33796783Y6025000D01*
X33703217Y6025000D01*
X33611448Y6006746D01*
X33525003Y5970939D01*
X33447205Y5918956D01*
X33381044Y5852795D01*
X33329061Y5774997D01*
X33293254Y5688552D01*
X33275000Y5596783D01*
X32862836Y5596783D01*
X31835373Y6624246D01*
X33250000Y6624246D01*
X33250000Y6525754D01*
X33269215Y6429155D01*
X33306906Y6338161D01*
X33361625Y6256269D01*
X33431269Y6186625D01*
X33513161Y6131906D01*
X33604155Y6094215D01*
X33700754Y6075000D01*
X33799246Y6075000D01*
X33895845Y6094215D01*
X33986839Y6131906D01*
X34068731Y6186625D01*
X34138375Y6256269D01*
X34193094Y6338161D01*
X34230785Y6429155D01*
X34250000Y6525754D01*
X34250000Y6624246D01*
X34230785Y6720845D01*
X34193094Y6811839D01*
X34138375Y6893731D01*
X34068731Y6963375D01*
X33986839Y7018094D01*
X33895845Y7055785D01*
X33799246Y7075000D01*
X33700754Y7075000D01*
X33604155Y7055785D01*
X33513161Y7018094D01*
X33431269Y6963375D01*
X33361625Y6893731D01*
X33306906Y6811839D01*
X33269215Y6720845D01*
X33250000Y6624246D01*
X31835373Y6624246D01*
X31575000Y6884618D01*
X31575000Y6946783D01*
X31556746Y7038552D01*
X31520939Y7124997D01*
X31468956Y7202795D01*
X31402795Y7268956D01*
X31324997Y7320939D01*
X31238552Y7356746D01*
X31146783Y7375000D01*
X31053217Y7375000D01*
X30961448Y7356746D01*
X30875003Y7320939D01*
X30797205Y7268956D01*
X30731044Y7202795D01*
X30679061Y7124997D01*
X30643254Y7038552D01*
X30625000Y6946783D01*
X28554551Y6946783D01*
X28522157Y7024986D01*
X28470174Y7102784D01*
X28404013Y7168945D01*
X28326215Y7220928D01*
X28239770Y7256735D01*
X28148001Y7274989D01*
X28054435Y7274989D01*
X27962666Y7256735D01*
X27876221Y7220928D01*
X27798423Y7168945D01*
X27732262Y7102784D01*
X27680279Y7024986D01*
X27644472Y6938541D01*
X27626218Y6846772D01*
X27626218Y6762276D01*
X27620939Y6775021D01*
X27568956Y6852819D01*
X27502795Y6918980D01*
X27424997Y6970963D01*
X27338552Y7006770D01*
X27246783Y7025024D01*
X27153217Y7025024D01*
X27061448Y7006770D01*
X26975003Y6970963D01*
X26897205Y6918980D01*
X26831044Y6852819D01*
X26779061Y6775021D01*
X26743254Y6688576D01*
X26725000Y6596807D01*
X25906112Y6596807D01*
X25836839Y6643094D01*
X25745845Y6680785D01*
X25649246Y6700000D01*
X25550754Y6700000D01*
X25454155Y6680785D01*
X25363161Y6643094D01*
X25281269Y6588375D01*
X25211625Y6518731D01*
X25156906Y6436839D01*
X25119215Y6345845D01*
X25100000Y6249246D01*
X25033333Y6249246D01*
X25014118Y6345845D01*
X24976427Y6436839D01*
X24921708Y6518731D01*
X24852064Y6588375D01*
X24770172Y6643094D01*
X24679178Y6680785D01*
X24582579Y6700000D01*
X24484087Y6700000D01*
X24453542Y6693924D01*
X25656413Y7896795D01*
X27574974Y7896795D01*
X27574974Y7803229D01*
X27593228Y7711460D01*
X27629035Y7625015D01*
X27681018Y7547217D01*
X27747179Y7481056D01*
X27824977Y7429073D01*
X27911422Y7393266D01*
X28003191Y7375012D01*
X28096757Y7375012D01*
X28188526Y7393266D01*
X28274971Y7429073D01*
X28352769Y7481056D01*
X28418930Y7547217D01*
X28470913Y7625015D01*
X28506720Y7711460D01*
X28518720Y7771793D01*
X31425000Y7771793D01*
X31425000Y7678227D01*
X31443254Y7586458D01*
X31479061Y7500013D01*
X31531044Y7422215D01*
X31597205Y7356054D01*
X31675003Y7304071D01*
X31761448Y7268264D01*
X31853217Y7250010D01*
X31946783Y7250010D01*
X32038552Y7268264D01*
X32124997Y7304071D01*
X32202795Y7356054D01*
X32268956Y7422215D01*
X32320939Y7500013D01*
X32356746Y7586458D01*
X32375000Y7678227D01*
X32375000Y7771793D01*
X32356746Y7863562D01*
X32320939Y7950007D01*
X32268956Y8027805D01*
X32202795Y8093966D01*
X32124997Y8145949D01*
X32038552Y8181756D01*
X31946783Y8200010D01*
X31853217Y8200010D01*
X31761448Y8181756D01*
X31675003Y8145949D01*
X31597205Y8093966D01*
X31531044Y8027805D01*
X31479061Y7950007D01*
X31443254Y7863562D01*
X31425000Y7771793D01*
X28518720Y7771793D01*
X28524974Y7803229D01*
X28524974Y7896795D01*
X28506720Y7988564D01*
X28470913Y8075009D01*
X28418930Y8152807D01*
X28352769Y8218968D01*
X28274971Y8270951D01*
X28188526Y8306758D01*
X28096757Y8325012D01*
X28003191Y8325012D01*
X27911422Y8306758D01*
X27824977Y8270951D01*
X27747179Y8218968D01*
X27681018Y8152807D01*
X27629035Y8075009D01*
X27593228Y7988564D01*
X27574974Y7896795D01*
X25656413Y7896795D01*
X25918523Y8158904D01*
X25930921Y8169079D01*
X25971535Y8218566D01*
X26001713Y8275026D01*
X26001713Y8275027D01*
X26020297Y8336288D01*
X26020895Y8342362D01*
X26025000Y8384039D01*
X26025000Y8384046D01*
X26026571Y8399999D01*
X26025000Y8415952D01*
X26025000Y8903249D01*
X26068956Y8947205D01*
X26120939Y9025003D01*
X26156746Y9111448D01*
X26175000Y9203217D01*
X26175000Y9296783D01*
X26159442Y9375000D01*
X26340558Y9375000D01*
X26325000Y9296783D01*
X26325000Y9203217D01*
X26343254Y9111448D01*
X26379061Y9025003D01*
X26431044Y8947205D01*
X26497205Y8881044D01*
X26575003Y8829061D01*
X26661448Y8793254D01*
X26753217Y8775000D01*
X26846783Y8775000D01*
X26938552Y8793254D01*
X27024997Y8829061D01*
X27102795Y8881044D01*
X27168956Y8947205D01*
X27220939Y9025003D01*
X27256746Y9111448D01*
X27275000Y9203217D01*
X27275000Y9296783D01*
X27259442Y9375000D01*
X27834047Y9375000D01*
X27850000Y9373429D01*
X27865953Y9375000D01*
X27865961Y9375000D01*
X27913711Y9379703D01*
X27974974Y9398287D01*
X28031434Y9428465D01*
X28080921Y9469079D01*
X28091101Y9481483D01*
X28106401Y9496783D01*
X30725000Y9496783D01*
X30725000Y9403217D01*
X30743254Y9311448D01*
X30779061Y9225003D01*
X30831044Y9147205D01*
X30897205Y9081044D01*
X30975003Y9029061D01*
X31061448Y8993254D01*
X31153217Y8975000D01*
X31246783Y8975000D01*
X31338552Y8993254D01*
X31424997Y9029061D01*
X31502795Y9081044D01*
X31568956Y9147205D01*
X31620939Y9225003D01*
X31656746Y9311448D01*
X31675000Y9403217D01*
X31675000Y9496783D01*
X31656746Y9588552D01*
X31620939Y9674997D01*
X31568956Y9752795D01*
X31502795Y9818956D01*
X31424997Y9870939D01*
X31338552Y9906746D01*
X31246783Y9925000D01*
X31153217Y9925000D01*
X31061448Y9906746D01*
X30975003Y9870939D01*
X30897205Y9818956D01*
X30831044Y9752795D01*
X30779061Y9674997D01*
X30743254Y9588552D01*
X30725000Y9496783D01*
X28106401Y9496783D01*
X29134620Y10525000D01*
X31834047Y10525000D01*
X31850000Y10523429D01*
X31865953Y10525000D01*
X31865961Y10525000D01*
X31913711Y10529703D01*
X31974974Y10548287D01*
X32031434Y10578465D01*
X32080921Y10619079D01*
X32091101Y10631483D01*
X32284618Y10825000D01*
X32346783Y10825000D01*
X32438552Y10843254D01*
X32524997Y10879061D01*
X32602795Y10931044D01*
X32668956Y10997205D01*
X32720939Y11075003D01*
X32756746Y11161448D01*
X32764264Y11199246D01*
X32950000Y11199246D01*
X32950000Y11100754D01*
X32969215Y11004155D01*
X33006906Y10913161D01*
X33061625Y10831269D01*
X33131269Y10761625D01*
X33213161Y10706906D01*
X33304155Y10669215D01*
X33400754Y10650000D01*
X33499246Y10650000D01*
X33595845Y10669215D01*
X33686839Y10706906D01*
X33768731Y10761625D01*
X33838375Y10831269D01*
X33893094Y10913161D01*
X33930785Y11004155D01*
X33950000Y11100754D01*
X33950000Y11127749D01*
X36788270Y11127749D01*
X36788270Y10960331D01*
X36820932Y10796130D01*
X36885000Y10641457D01*
X36978012Y10502254D01*
X37096394Y10383872D01*
X37235597Y10290860D01*
X37390270Y10226792D01*
X37554471Y10194130D01*
X37721889Y10194130D01*
X37886090Y10226792D01*
X38040763Y10290860D01*
X38179966Y10383872D01*
X38298348Y10502254D01*
X38391360Y10641457D01*
X38455428Y10796130D01*
X38488090Y10960331D01*
X38488090Y11127749D01*
X38455428Y11291950D01*
X38391360Y11446623D01*
X38298348Y11585826D01*
X38179966Y11704208D01*
X38040763Y11797220D01*
X37886090Y11861288D01*
X37721889Y11893950D01*
X37554471Y11893950D01*
X37390270Y11861288D01*
X37235597Y11797220D01*
X37096394Y11704208D01*
X36978012Y11585826D01*
X36885000Y11446623D01*
X36820932Y11291950D01*
X36788270Y11127749D01*
X33950000Y11127749D01*
X33950000Y11199246D01*
X33930785Y11295845D01*
X33893094Y11386839D01*
X33838375Y11468731D01*
X33768731Y11538375D01*
X33686839Y11593094D01*
X33595845Y11630785D01*
X33499246Y11650000D01*
X33400754Y11650000D01*
X33304155Y11630785D01*
X33213161Y11593094D01*
X33131269Y11538375D01*
X33061625Y11468731D01*
X33006906Y11386839D01*
X32969215Y11295845D01*
X32950000Y11199246D01*
X32764264Y11199246D01*
X32775000Y11253217D01*
X32775000Y11346783D01*
X32756746Y11438552D01*
X32720939Y11524997D01*
X32668956Y11602795D01*
X32602795Y11668956D01*
X32524997Y11720939D01*
X32438552Y11756746D01*
X32346783Y11775000D01*
X32253217Y11775000D01*
X32161448Y11756746D01*
X32075003Y11720939D01*
X31997205Y11668956D01*
X31931044Y11602795D01*
X31879061Y11524997D01*
X31843254Y11438552D01*
X31825000Y11346783D01*
X31825000Y11284618D01*
X31715382Y11175000D01*
X29015953Y11175000D01*
X29000000Y11176571D01*
X28984047Y11175000D01*
X28984039Y11175000D01*
X28936289Y11170297D01*
X28875026Y11151713D01*
X28818566Y11121535D01*
X28797697Y11104408D01*
X28781476Y11091096D01*
X28781472Y11091092D01*
X28769079Y11080921D01*
X28758908Y11068528D01*
X27715382Y10025000D01*
X27323465Y10025000D01*
X27338562Y10061448D01*
X27356816Y10153217D01*
X27356816Y10246783D01*
X27338562Y10338552D01*
X27302755Y10424997D01*
X27250772Y10502795D01*
X27184611Y10568956D01*
X27106813Y10620939D01*
X27020368Y10656746D01*
X26928599Y10675000D01*
X26835033Y10675000D01*
X26743264Y10656746D01*
X26656819Y10620939D01*
X26579021Y10568956D01*
X26512860Y10502795D01*
X26460877Y10424997D01*
X26425070Y10338552D01*
X26406816Y10246783D01*
X26406816Y10153217D01*
X26425070Y10061448D01*
X26440167Y10025000D01*
X23474980Y10025000D01*
X23474980Y10096783D01*
X23456726Y10188552D01*
X23420919Y10274997D01*
X23368936Y10352795D01*
X23302775Y10418956D01*
X23224977Y10470939D01*
X23138532Y10506746D01*
X23046763Y10525000D01*
X22953197Y10525000D01*
X22861428Y10506746D01*
X22774983Y10470939D01*
X22697185Y10418956D01*
X22631024Y10352795D01*
X22579041Y10274997D01*
X22543234Y10188552D01*
X22524980Y10096783D01*
X22524980Y10003217D01*
X22543234Y9911448D01*
X22579041Y9825003D01*
X22631024Y9747205D01*
X22697185Y9681044D01*
X22774983Y9629061D01*
X22849141Y9598343D01*
X22839895Y9581044D01*
X22823287Y9549973D01*
X22804703Y9488711D01*
X22798429Y9425000D01*
X22800001Y9409037D01*
X22800001Y9246752D01*
X22756044Y9202795D01*
X22704061Y9124997D01*
X22668254Y9038552D01*
X22650000Y8946783D01*
X22650000Y8853217D01*
X22668254Y8761448D01*
X22704061Y8675003D01*
X22756044Y8597205D01*
X22822205Y8531044D01*
X22900003Y8479061D01*
X22986448Y8443254D01*
X23078217Y8425000D01*
X23130614Y8425000D01*
X23143254Y8361456D01*
X23179061Y8275011D01*
X23231044Y8197213D01*
X23297205Y8131052D01*
X23375003Y8079069D01*
X23461448Y8043262D01*
X23553217Y8025008D01*
X23646783Y8025008D01*
X23738552Y8043262D01*
X23824997Y8079069D01*
X23902795Y8131052D01*
X23924990Y8153247D01*
X23947193Y8131044D01*
X24024991Y8079061D01*
X24056423Y8066041D01*
X23565382Y7575000D01*
X21546639Y7575000D01*
X21502683Y7618956D01*
X21424885Y7670939D01*
X21338440Y7706746D01*
X21246671Y7725000D01*
X21153105Y7725000D01*
X21061336Y7706746D01*
X20974891Y7670939D01*
X20950000Y7654307D01*
X20950000Y7845162D01*
X20956746Y7861448D01*
X20975000Y7953217D01*
X20975000Y8046783D01*
X20956746Y8138552D01*
X20953268Y8146950D01*
X21625169Y8146950D01*
X21625169Y8053384D01*
X21643423Y7961615D01*
X21679230Y7875170D01*
X21731213Y7797372D01*
X21797374Y7731211D01*
X21875172Y7679228D01*
X21961617Y7643421D01*
X22053386Y7625167D01*
X22146952Y7625167D01*
X22238721Y7643421D01*
X22325166Y7679228D01*
X22402964Y7731211D01*
X22469125Y7797372D01*
X22521108Y7875170D01*
X22556915Y7961615D01*
X22575169Y8053384D01*
X22575169Y8146950D01*
X22556915Y8238719D01*
X22521108Y8325164D01*
X22469125Y8402962D01*
X22402964Y8469123D01*
X22325166Y8521106D01*
X22238721Y8556913D01*
X22146952Y8575167D01*
X22053386Y8575167D01*
X21961617Y8556913D01*
X21875172Y8521106D01*
X21797374Y8469123D01*
X21731213Y8402962D01*
X21679230Y8325164D01*
X21643423Y8238719D01*
X21625169Y8146950D01*
X20953268Y8146950D01*
X20950000Y8154838D01*
X20950000Y8400000D01*
X20930970Y8495671D01*
X20876777Y8576777D01*
X20450000Y9003554D01*
X20450000Y9796446D01*
X20802646Y10149092D01*
X20874997Y10179061D01*
X20952795Y10231044D01*
X21018956Y10297205D01*
X21070939Y10375003D01*
X21106746Y10461448D01*
X21125000Y10553217D01*
X21125000Y10646783D01*
X21120027Y10671785D01*
X21300000Y10671785D01*
X21300000Y10578219D01*
X21318254Y10486450D01*
X21354061Y10400005D01*
X21406044Y10322207D01*
X21472205Y10256046D01*
X21514385Y10227862D01*
X21479061Y10174997D01*
X21443254Y10088552D01*
X21425000Y9996783D01*
X21425000Y9903217D01*
X21443254Y9811448D01*
X21479061Y9725003D01*
X21531044Y9647205D01*
X21597205Y9581044D01*
X21675003Y9529061D01*
X21761448Y9493254D01*
X21853217Y9475000D01*
X21946783Y9475000D01*
X22038552Y9493254D01*
X22124997Y9529061D01*
X22202795Y9581044D01*
X22268956Y9647205D01*
X22320939Y9725003D01*
X22356746Y9811448D01*
X22375000Y9903217D01*
X22375000Y9996783D01*
X22356746Y10088552D01*
X22320939Y10174997D01*
X22268956Y10252795D01*
X22202795Y10318956D01*
X22160615Y10347140D01*
X22195939Y10400005D01*
X22231746Y10486450D01*
X22250000Y10578219D01*
X22250000Y10671785D01*
X22231746Y10763554D01*
X22195939Y10849999D01*
X22143956Y10927797D01*
X22122507Y10949246D01*
X23350000Y10949246D01*
X23350000Y10850754D01*
X23369215Y10754155D01*
X23406906Y10663161D01*
X23461625Y10581269D01*
X23531269Y10511625D01*
X23613161Y10456906D01*
X23704155Y10419215D01*
X23800754Y10400000D01*
X23899246Y10400000D01*
X23995845Y10419215D01*
X24086839Y10456906D01*
X24168731Y10511625D01*
X24238375Y10581269D01*
X24293094Y10663161D01*
X24330785Y10754155D01*
X24350000Y10850754D01*
X24350000Y10949246D01*
X24450000Y10949246D01*
X24450000Y10850754D01*
X24469215Y10754155D01*
X24506906Y10663161D01*
X24561625Y10581269D01*
X24631269Y10511625D01*
X24713161Y10456906D01*
X24804155Y10419215D01*
X24900754Y10400000D01*
X24999246Y10400000D01*
X25095845Y10419215D01*
X25186839Y10456906D01*
X25268731Y10511625D01*
X25338375Y10581269D01*
X25393094Y10663161D01*
X25430785Y10754155D01*
X25450000Y10850754D01*
X25450000Y10949246D01*
X25550000Y10949246D01*
X25550000Y10850754D01*
X25569215Y10754155D01*
X25606906Y10663161D01*
X25661625Y10581269D01*
X25731269Y10511625D01*
X25813161Y10456906D01*
X25904155Y10419215D01*
X26000754Y10400000D01*
X26099246Y10400000D01*
X26195845Y10419215D01*
X26286839Y10456906D01*
X26368731Y10511625D01*
X26438375Y10581269D01*
X26493094Y10663161D01*
X26530785Y10754155D01*
X26550000Y10850754D01*
X26550000Y10949246D01*
X26530785Y11045845D01*
X26493094Y11136839D01*
X26438375Y11218731D01*
X26368731Y11288375D01*
X26286839Y11343094D01*
X26195845Y11380785D01*
X26099246Y11400000D01*
X26000754Y11400000D01*
X25904155Y11380785D01*
X25813161Y11343094D01*
X25731269Y11288375D01*
X25661625Y11218731D01*
X25606906Y11136839D01*
X25569215Y11045845D01*
X25550000Y10949246D01*
X25450000Y10949246D01*
X25430785Y11045845D01*
X25393094Y11136839D01*
X25338375Y11218731D01*
X25268731Y11288375D01*
X25186839Y11343094D01*
X25095845Y11380785D01*
X24999246Y11400000D01*
X24900754Y11400000D01*
X24804155Y11380785D01*
X24713161Y11343094D01*
X24631269Y11288375D01*
X24561625Y11218731D01*
X24506906Y11136839D01*
X24469215Y11045845D01*
X24450000Y10949246D01*
X24350000Y10949246D01*
X24330785Y11045845D01*
X24293094Y11136839D01*
X24238375Y11218731D01*
X24168731Y11288375D01*
X24086839Y11343094D01*
X23995845Y11380785D01*
X23899246Y11400000D01*
X23800754Y11400000D01*
X23704155Y11380785D01*
X23613161Y11343094D01*
X23531269Y11288375D01*
X23461625Y11218731D01*
X23406906Y11136839D01*
X23369215Y11045845D01*
X23350000Y10949246D01*
X22122507Y10949246D01*
X22077795Y10993958D01*
X21999997Y11045941D01*
X21913552Y11081748D01*
X21821783Y11100002D01*
X21728217Y11100002D01*
X21636448Y11081748D01*
X21550003Y11045941D01*
X21472205Y10993958D01*
X21406044Y10927797D01*
X21354061Y10849999D01*
X21318254Y10763554D01*
X21300000Y10671785D01*
X21120027Y10671785D01*
X21106746Y10738552D01*
X21070939Y10824997D01*
X21050000Y10856334D01*
X21050000Y12049246D01*
X23350000Y12049246D01*
X23350000Y11950754D01*
X23369215Y11854155D01*
X23406906Y11763161D01*
X23461625Y11681269D01*
X23531269Y11611625D01*
X23613161Y11556906D01*
X23704155Y11519215D01*
X23800754Y11500000D01*
X23899246Y11500000D01*
X23995845Y11519215D01*
X24086839Y11556906D01*
X24168731Y11611625D01*
X24238375Y11681269D01*
X24293094Y11763161D01*
X24330785Y11854155D01*
X24350000Y11950754D01*
X24350000Y12049246D01*
X24450000Y12049246D01*
X24450000Y11950754D01*
X24469215Y11854155D01*
X24506906Y11763161D01*
X24561625Y11681269D01*
X24631269Y11611625D01*
X24713161Y11556906D01*
X24804155Y11519215D01*
X24900754Y11500000D01*
X24999246Y11500000D01*
X25095845Y11519215D01*
X25186839Y11556906D01*
X25268731Y11611625D01*
X25338375Y11681269D01*
X25393094Y11763161D01*
X25430785Y11854155D01*
X25450000Y11950754D01*
X25450000Y12049246D01*
X25550000Y12049246D01*
X25550000Y11950754D01*
X25569215Y11854155D01*
X25606906Y11763161D01*
X25661625Y11681269D01*
X25731269Y11611625D01*
X25813161Y11556906D01*
X25904155Y11519215D01*
X26000754Y11500000D01*
X26099246Y11500000D01*
X26195845Y11519215D01*
X26286839Y11556906D01*
X26368731Y11611625D01*
X26438375Y11681269D01*
X26493094Y11763161D01*
X26530785Y11854155D01*
X26550000Y11950754D01*
X26550000Y12049246D01*
X26530785Y12145845D01*
X26493094Y12236839D01*
X26438375Y12318731D01*
X26368731Y12388375D01*
X26286839Y12443094D01*
X26195845Y12480785D01*
X26099246Y12500000D01*
X26000754Y12500000D01*
X25904155Y12480785D01*
X25813161Y12443094D01*
X25731269Y12388375D01*
X25661625Y12318731D01*
X25606906Y12236839D01*
X25569215Y12145845D01*
X25550000Y12049246D01*
X25450000Y12049246D01*
X25430785Y12145845D01*
X25393094Y12236839D01*
X25338375Y12318731D01*
X25268731Y12388375D01*
X25186839Y12443094D01*
X25095845Y12480785D01*
X24999246Y12500000D01*
X24900754Y12500000D01*
X24804155Y12480785D01*
X24713161Y12443094D01*
X24631269Y12388375D01*
X24561625Y12318731D01*
X24506906Y12236839D01*
X24469215Y12145845D01*
X24450000Y12049246D01*
X24350000Y12049246D01*
X24330785Y12145845D01*
X24293094Y12236839D01*
X24238375Y12318731D01*
X24168731Y12388375D01*
X24086839Y12443094D01*
X23995845Y12480785D01*
X23899246Y12500000D01*
X23800754Y12500000D01*
X23704155Y12480785D01*
X23613161Y12443094D01*
X23531269Y12388375D01*
X23461625Y12318731D01*
X23406906Y12236839D01*
X23369215Y12145845D01*
X23350000Y12049246D01*
X21050000Y12049246D01*
X21050000Y12096446D01*
X22102800Y13149246D01*
X23350000Y13149246D01*
X23350000Y13050754D01*
X23369215Y12954155D01*
X23406906Y12863161D01*
X23461625Y12781269D01*
X23531269Y12711625D01*
X23613161Y12656906D01*
X23704155Y12619215D01*
X23800754Y12600000D01*
X23899246Y12600000D01*
X23995845Y12619215D01*
X24086839Y12656906D01*
X24168731Y12711625D01*
X24238375Y12781269D01*
X24293094Y12863161D01*
X24330785Y12954155D01*
X24350000Y13050754D01*
X24350000Y13149246D01*
X24450000Y13149246D01*
X24450000Y13050754D01*
X24469215Y12954155D01*
X24506906Y12863161D01*
X24561625Y12781269D01*
X24631269Y12711625D01*
X24713161Y12656906D01*
X24804155Y12619215D01*
X24900754Y12600000D01*
X24999246Y12600000D01*
X25095845Y12619215D01*
X25186839Y12656906D01*
X25268731Y12711625D01*
X25338375Y12781269D01*
X25393094Y12863161D01*
X25430785Y12954155D01*
X25450000Y13050754D01*
X25450000Y13149246D01*
X25550000Y13149246D01*
X25550000Y13050754D01*
X25569215Y12954155D01*
X25606906Y12863161D01*
X25661625Y12781269D01*
X25731269Y12711625D01*
X25813161Y12656906D01*
X25904155Y12619215D01*
X26000754Y12600000D01*
X26099246Y12600000D01*
X26195845Y12619215D01*
X26286839Y12656906D01*
X26368731Y12711625D01*
X26438375Y12781269D01*
X26493094Y12863161D01*
X26530785Y12954155D01*
X26550000Y13050754D01*
X26550000Y13149246D01*
X26530785Y13245845D01*
X26499331Y13321783D01*
X28550000Y13321783D01*
X28550000Y13228217D01*
X28568254Y13136448D01*
X28604061Y13050003D01*
X28656044Y12972205D01*
X28722205Y12906044D01*
X28800003Y12854061D01*
X28886448Y12818254D01*
X28978217Y12800000D01*
X29071783Y12800000D01*
X29163552Y12818254D01*
X29249997Y12854061D01*
X29327795Y12906044D01*
X29393956Y12972205D01*
X29445939Y13050003D01*
X29481746Y13136448D01*
X29500000Y13228217D01*
X29500000Y13321783D01*
X29481746Y13413552D01*
X29445939Y13499997D01*
X29393956Y13577795D01*
X29327795Y13643956D01*
X29249997Y13695939D01*
X29163552Y13731746D01*
X29071783Y13750000D01*
X28978217Y13750000D01*
X28886448Y13731746D01*
X28800003Y13695939D01*
X28722205Y13643956D01*
X28656044Y13577795D01*
X28604061Y13499997D01*
X28568254Y13413552D01*
X28550000Y13321783D01*
X26499331Y13321783D01*
X26493094Y13336839D01*
X26438375Y13418731D01*
X26368731Y13488375D01*
X26286839Y13543094D01*
X26195845Y13580785D01*
X26099246Y13600000D01*
X26000754Y13600000D01*
X25904155Y13580785D01*
X25813161Y13543094D01*
X25731269Y13488375D01*
X25661625Y13418731D01*
X25606906Y13336839D01*
X25569215Y13245845D01*
X25550000Y13149246D01*
X25450000Y13149246D01*
X25430785Y13245845D01*
X25393094Y13336839D01*
X25338375Y13418731D01*
X25268731Y13488375D01*
X25186839Y13543094D01*
X25095845Y13580785D01*
X24999246Y13600000D01*
X24900754Y13600000D01*
X24804155Y13580785D01*
X24713161Y13543094D01*
X24631269Y13488375D01*
X24561625Y13418731D01*
X24506906Y13336839D01*
X24469215Y13245845D01*
X24450000Y13149246D01*
X24350000Y13149246D01*
X24330785Y13245845D01*
X24293094Y13336839D01*
X24238375Y13418731D01*
X24168731Y13488375D01*
X24086839Y13543094D01*
X23995845Y13580785D01*
X23899246Y13600000D01*
X23800754Y13600000D01*
X23704155Y13580785D01*
X23613161Y13543094D01*
X23531269Y13488375D01*
X23461625Y13418731D01*
X23406906Y13336839D01*
X23369215Y13245845D01*
X23350000Y13149246D01*
X22102800Y13149246D01*
X22576777Y13623223D01*
X22630970Y13704329D01*
X22650000Y13800000D01*
X22650000Y17200000D01*
X27143666Y17200000D01*
X27097205Y17168956D01*
X27097205Y17168956D01*
G37*
X27097205Y17168956D02*
X27031044Y17102795D01*
X26979061Y17024997D01*
X26943254Y16938552D01*
X26925000Y16846783D01*
X26925000Y16753217D01*
X26943254Y16661448D01*
X26979061Y16575003D01*
X27031044Y16497205D01*
X27097205Y16431044D01*
X27175003Y16379061D01*
X27245162Y16350000D01*
X24102011Y16350000D01*
X24075000Y16352660D01*
X24047989Y16350000D01*
X24047982Y16350000D01*
X23967181Y16342042D01*
X23863505Y16310592D01*
X23767958Y16259521D01*
X23725895Y16225000D01*
X23684210Y16190790D01*
X23666987Y16169804D01*
X23130191Y15633008D01*
X23109211Y15615790D01*
X23091993Y15594810D01*
X23091987Y15594804D01*
X23040479Y15532042D01*
X23019589Y15492958D01*
X22989409Y15436494D01*
X22957958Y15332819D01*
X22950000Y15252018D01*
X22950000Y15252008D01*
X22947340Y15225000D01*
X22950000Y15197992D01*
X22950000Y14697983D01*
X22957958Y14617182D01*
X22989408Y14513507D01*
X23040479Y14417958D01*
X23109210Y14334210D01*
X23192958Y14265479D01*
X23288506Y14214408D01*
X23392181Y14182958D01*
X23500000Y14172339D01*
X23607818Y14182958D01*
X23711493Y14214408D01*
X23807042Y14265479D01*
X23890790Y14334210D01*
X23914788Y14363451D01*
X23922205Y14356034D01*
X24000003Y14304051D01*
X24086448Y14268244D01*
X24178217Y14249990D01*
X24271783Y14249990D01*
X24363552Y14268244D01*
X24449997Y14304051D01*
X24527795Y14356034D01*
X24593956Y14422195D01*
X24645939Y14499993D01*
X24681746Y14586438D01*
X24700000Y14678207D01*
X24700000Y14771773D01*
X24681746Y14863542D01*
X24645939Y14949987D01*
X24593956Y15027785D01*
X24527795Y15093946D01*
X24449997Y15145929D01*
X24363552Y15181736D01*
X24271783Y15199990D01*
X24252807Y15199990D01*
X24302817Y15250000D01*
X25879176Y15250000D01*
X25829061Y15174997D01*
X25793254Y15088552D01*
X25775000Y14996783D01*
X25775000Y14903217D01*
X25793254Y14811448D01*
X25829061Y14725003D01*
X25881044Y14647205D01*
X25947205Y14581044D01*
X26025003Y14529061D01*
X26111448Y14493254D01*
X26203217Y14475000D01*
X26296783Y14475000D01*
X26388552Y14493254D01*
X26474997Y14529061D01*
X26552795Y14581044D01*
X26618956Y14647205D01*
X26670939Y14725003D01*
X26706746Y14811448D01*
X26719237Y14874246D01*
X31200000Y14874246D01*
X31200000Y14775754D01*
X31219215Y14679155D01*
X31256906Y14588161D01*
X31311625Y14506269D01*
X31381269Y14436625D01*
X31463161Y14381906D01*
X31554155Y14344215D01*
X31650754Y14325000D01*
X31749246Y14325000D01*
X31845845Y14344215D01*
X31936839Y14381906D01*
X32018731Y14436625D01*
X32088375Y14506269D01*
X32143094Y14588161D01*
X32180785Y14679155D01*
X32200000Y14775754D01*
X32200000Y14874246D01*
X32180785Y14970845D01*
X32143094Y15061839D01*
X32088375Y15143731D01*
X32018731Y15213375D01*
X31936839Y15268094D01*
X31845845Y15305785D01*
X31749246Y15325000D01*
X31650754Y15325000D01*
X31554155Y15305785D01*
X31463161Y15268094D01*
X31381269Y15213375D01*
X31311625Y15143731D01*
X31256906Y15061839D01*
X31219215Y14970845D01*
X31200000Y14874246D01*
X26719237Y14874246D01*
X26725000Y14903217D01*
X26725000Y14996783D01*
X26706746Y15088552D01*
X26670939Y15174997D01*
X26620824Y15250000D01*
X27622992Y15250000D01*
X27650000Y15247340D01*
X27677008Y15250000D01*
X27677018Y15250000D01*
X27757819Y15257958D01*
X27861494Y15289408D01*
X27957042Y15340479D01*
X28040790Y15409210D01*
X28058013Y15430196D01*
X28444804Y15816987D01*
X28465790Y15834210D01*
X28534521Y15917958D01*
X28584517Y16011494D01*
X28585592Y16013505D01*
X28617042Y16117181D01*
X28620591Y16153217D01*
X28625000Y16197982D01*
X28625000Y16197989D01*
X28627660Y16225000D01*
X28625000Y16252011D01*
X28625000Y16584807D01*
X28629061Y16575003D01*
X28681044Y16497205D01*
X28747205Y16431044D01*
X28825003Y16379061D01*
X28911448Y16343254D01*
X29003217Y16325000D01*
X29096783Y16325000D01*
X29188552Y16343254D01*
X29274997Y16379061D01*
X29352795Y16431044D01*
X29418956Y16497205D01*
X29470939Y16575003D01*
X29506746Y16661448D01*
X29514264Y16699246D01*
X31800000Y16699246D01*
X31800000Y16600754D01*
X31819215Y16504155D01*
X31856906Y16413161D01*
X31911625Y16331269D01*
X31981269Y16261625D01*
X32063161Y16206906D01*
X32154155Y16169215D01*
X32250754Y16150000D01*
X32349246Y16150000D01*
X32445845Y16169215D01*
X32536839Y16206906D01*
X32618731Y16261625D01*
X32688375Y16331269D01*
X32700000Y16348667D01*
X32711625Y16331269D01*
X32781269Y16261625D01*
X32863161Y16206906D01*
X32954155Y16169215D01*
X33050754Y16150000D01*
X33149246Y16150000D01*
X33245845Y16169215D01*
X33336839Y16206906D01*
X33418731Y16261625D01*
X33488375Y16331269D01*
X33543094Y16413161D01*
X33580785Y16504155D01*
X33600000Y16600754D01*
X33600000Y16699246D01*
X33580785Y16795845D01*
X33543094Y16886839D01*
X33488375Y16968731D01*
X33418731Y17038375D01*
X33336839Y17093094D01*
X33245845Y17130785D01*
X33149246Y17150000D01*
X33050754Y17150000D01*
X32954155Y17130785D01*
X32863161Y17093094D01*
X32781269Y17038375D01*
X32711625Y16968731D01*
X32700000Y16951333D01*
X32688375Y16968731D01*
X32618731Y17038375D01*
X32536839Y17093094D01*
X32445845Y17130785D01*
X32349246Y17150000D01*
X32250754Y17150000D01*
X32154155Y17130785D01*
X32063161Y17093094D01*
X31981269Y17038375D01*
X31911625Y16968731D01*
X31856906Y16886839D01*
X31819215Y16795845D01*
X31800000Y16699246D01*
X29514264Y16699246D01*
X29525000Y16753217D01*
X29525000Y16846783D01*
X29506746Y16938552D01*
X29470939Y17024997D01*
X29418956Y17102795D01*
X29352795Y17168956D01*
X29306334Y17200000D01*
X35100001Y17200000D01*
X35100000Y16860660D01*
X35078097Y16882563D01*
X34955258Y16964641D01*
X34818767Y17021178D01*
X34673869Y17050000D01*
X34526131Y17050000D01*
X34381233Y17021178D01*
X34244742Y16964641D01*
X34121903Y16882563D01*
X34017437Y16778097D01*
X33935359Y16655258D01*
X33878822Y16518767D01*
X33850000Y16373869D01*
X33850000Y16226131D01*
X33878822Y16081233D01*
X33910876Y16003848D01*
X33845845Y16030785D01*
X33749246Y16050000D01*
X33650754Y16050000D01*
X33554155Y16030785D01*
X33463161Y15993094D01*
X33381269Y15938375D01*
X33311625Y15868731D01*
X33256906Y15786839D01*
X33219215Y15695845D01*
X33200000Y15599246D01*
X33200000Y15500754D01*
X33219215Y15404155D01*
X33256906Y15313161D01*
X33311625Y15231269D01*
X33381269Y15161625D01*
X33463161Y15106906D01*
X33554155Y15069215D01*
X33650754Y15050000D01*
X33749246Y15050000D01*
X33845845Y15069215D01*
X33936839Y15106906D01*
X34018731Y15161625D01*
X34088375Y15231269D01*
X34143094Y15313161D01*
X34180785Y15404155D01*
X34200000Y15500754D01*
X34200000Y15599246D01*
X34184857Y15675372D01*
X34244742Y15635359D01*
X34381233Y15578822D01*
X34526131Y15550000D01*
X34673869Y15550000D01*
X34818767Y15578822D01*
X34955258Y15635359D01*
X35078097Y15717437D01*
X35182563Y15821903D01*
X35264641Y15944742D01*
X35321178Y16081233D01*
X35350000Y16226131D01*
X35350000Y16227503D01*
X35421586Y16205788D01*
X35500000Y16198065D01*
X35519646Y16200000D01*
X39600001Y16200000D01*
X39600001Y14767837D01*
X39566549Y14878114D01*
X39473639Y15051936D01*
X39348603Y15204293D01*
X39196246Y15329329D01*
X39022424Y15422239D01*
X38833816Y15479452D01*
X38686821Y15493930D01*
X36589539Y15493930D01*
X36442544Y15479452D01*
X36253936Y15422239D01*
X36080114Y15329329D01*
X35927757Y15204293D01*
X35802721Y15051936D01*
X35709811Y14878114D01*
X35652598Y14689506D01*
X35633279Y14493360D01*
X35652598Y14297214D01*
X35709811Y14108606D01*
X35802721Y13934784D01*
X35927757Y13782427D01*
X35989032Y13732140D01*
X35899246Y13750000D01*
X35800754Y13750000D01*
X35704155Y13730785D01*
X35613161Y13693094D01*
X35531269Y13638375D01*
X35461625Y13568731D01*
X35406906Y13486839D01*
X35369215Y13395845D01*
X35350000Y13299246D01*
X35350000Y13200754D01*
X35369215Y13104155D01*
X35406906Y13013161D01*
X35461625Y12931269D01*
X35531269Y12861625D01*
X35613161Y12806906D01*
X35704155Y12769215D01*
X35800754Y12750000D01*
X35899246Y12750000D01*
X35995845Y12769215D01*
X36086839Y12806906D01*
X36168731Y12861625D01*
X36175000Y12867894D01*
X36181269Y12861625D01*
X36263161Y12806906D01*
X36354155Y12769215D01*
X36450754Y12750000D01*
X36549246Y12750000D01*
X36645845Y12769215D01*
X36736839Y12806906D01*
X36818731Y12861625D01*
X36888375Y12931269D01*
X36943094Y13013161D01*
X36980785Y13104155D01*
X37000000Y13200754D01*
X37000000Y13299246D01*
X36980785Y13395845D01*
X36943094Y13486839D01*
X36939118Y13492790D01*
X38686821Y13492790D01*
X38833816Y13507268D01*
X39022424Y13564481D01*
X39196246Y13657391D01*
X39348603Y13782427D01*
X39473639Y13934784D01*
X39566549Y14108606D01*
X39600001Y14218883D01*
X39600000Y3368319D01*
X39566549Y3478594D01*
X39473639Y3652416D01*
X39348603Y3804773D01*
X39196246Y3929809D01*
X39022424Y4022719D01*
X38833816Y4079932D01*
X38686821Y4094410D01*
X36589539Y4094410D01*
X36442544Y4079932D01*
X36366476Y4056857D01*
X36934619Y4625000D01*
X37524047Y4625000D01*
X37540000Y4623429D01*
X37555953Y4625000D01*
X37555961Y4625000D01*
X37603711Y4629703D01*
X37664974Y4648287D01*
X37721434Y4678465D01*
X37770921Y4719079D01*
X37781101Y4731483D01*
X38364596Y5314976D01*
X38373254Y5271448D01*
X38409061Y5185003D01*
X38461044Y5107205D01*
X38527205Y5041044D01*
X38605003Y4989061D01*
X38691448Y4953254D01*
X38783217Y4935000D01*
X38876783Y4935000D01*
X38968552Y4953254D01*
X39054997Y4989061D01*
X39132795Y5041044D01*
X39198956Y5107205D01*
X39250939Y5185003D01*
X39286746Y5271448D01*
X39305000Y5363217D01*
X39305000Y5456783D01*
X39286746Y5548552D01*
X39250939Y5634997D01*
X39198956Y5712795D01*
X39132795Y5778956D01*
X39098691Y5801744D01*
X39153091Y5883158D01*
X39190782Y5974152D01*
X39209997Y6070751D01*
X39209997Y6169243D01*
X39190782Y6265842D01*
X39153091Y6356836D01*
X39098372Y6438728D01*
X39028728Y6508372D01*
X38946836Y6563091D01*
X38855842Y6600782D01*
X38759243Y6619997D01*
X38660751Y6619997D01*
X38564152Y6600782D01*
X38488090Y6569276D01*
X38488090Y6626869D01*
X38455428Y6791070D01*
X38391360Y6945743D01*
X38298348Y7084946D01*
X38179966Y7203328D01*
X38040763Y7296340D01*
X37886090Y7360408D01*
X37721889Y7393070D01*
X37702689Y7393070D01*
X38468524Y8158905D01*
X38480921Y8169079D01*
X38521535Y8218566D01*
X38551713Y8275026D01*
X38566922Y8325164D01*
X38570297Y8336288D01*
X38570895Y8342362D01*
X38575000Y8384039D01*
X38575000Y8384046D01*
X38576571Y8399999D01*
X38575000Y8415952D01*
X38575000Y8417894D01*
X38638375Y8481269D01*
X38693094Y8563161D01*
X38730785Y8654155D01*
X38750000Y8750754D01*
X38750000Y8849246D01*
X38730785Y8945845D01*
X38693094Y9036839D01*
X38638375Y9118731D01*
X38568731Y9188375D01*
X38486839Y9243094D01*
X38395845Y9280785D01*
X38299246Y9300000D01*
X38200754Y9300000D01*
X38104155Y9280785D01*
X38013161Y9243094D01*
X37931269Y9188375D01*
X37900000Y9157106D01*
X37900000Y9249246D01*
X37880785Y9345845D01*
X37843094Y9436839D01*
X37788375Y9518731D01*
X37718731Y9588375D01*
X37636839Y9643094D01*
X37545845Y9680785D01*
X37449246Y9700000D01*
X37350754Y9700000D01*
X37254155Y9680785D01*
X37163161Y9643094D01*
X37081269Y9588375D01*
X37011625Y9518731D01*
X36956906Y9436839D01*
X36919215Y9345845D01*
X36900000Y9249246D01*
X36900000Y9150754D01*
X36919215Y9054155D01*
X36956906Y8963161D01*
X37011625Y8881269D01*
X37067894Y8825000D01*
X37011625Y8768731D01*
X36956906Y8686839D01*
X36919215Y8595845D01*
X36900000Y8499246D01*
X36900000Y8400754D01*
X36919215Y8304155D01*
X36956906Y8213161D01*
X37011625Y8131269D01*
X37081269Y8061625D01*
X37163161Y8006906D01*
X37254155Y7969215D01*
X37342102Y7951721D01*
X35996682Y6606300D01*
X35988375Y6618731D01*
X35918731Y6688375D01*
X35836839Y6743094D01*
X35745845Y6780785D01*
X35649246Y6800000D01*
X35550754Y6800000D01*
X35454155Y6780785D01*
X35363161Y6743094D01*
X35356663Y6738752D01*
X35320939Y6824997D01*
X35268956Y6902795D01*
X35202795Y6968956D01*
X35124997Y7020939D01*
X35038552Y7056746D01*
X34946783Y7075000D01*
X34853217Y7075000D01*
X34761448Y7056746D01*
X34675003Y7020939D01*
X34597205Y6968956D01*
X34531044Y6902795D01*
X34479061Y6824997D01*
X34443254Y6738552D01*
X34425000Y6646783D01*
X34425000Y6553217D01*
X34443254Y6461448D01*
X34479061Y6375003D01*
X34531044Y6297205D01*
X34597205Y6231044D01*
X34675003Y6179061D01*
X34761448Y6143254D01*
X34853217Y6125000D01*
X34946783Y6125000D01*
X35038552Y6143254D01*
X35115078Y6174952D01*
X35119215Y6154155D01*
X35156906Y6063161D01*
X35211625Y5981269D01*
X35281269Y5911625D01*
X35363161Y5856906D01*
X35454155Y5819215D01*
X35550754Y5800000D01*
X35649246Y5800000D01*
X35745845Y5819215D01*
X35825001Y5852002D01*
X35825000Y5134619D01*
X34900000Y4209618D01*
X34900000Y4249246D01*
X34880785Y4345845D01*
X34843094Y4436839D01*
X34788375Y4518731D01*
X34718731Y4588375D01*
X34636839Y4643094D01*
X34545845Y4680785D01*
X34449246Y4700000D01*
X34350754Y4700000D01*
X34254155Y4680785D01*
X34163161Y4643094D01*
X34081269Y4588375D01*
X34011625Y4518731D01*
X33956906Y4436839D01*
X33919215Y4345845D01*
X33900000Y4249246D01*
X33900000Y4150754D01*
X33919215Y4054155D01*
X33956906Y3963161D01*
X34011625Y3881269D01*
X34081269Y3811625D01*
X34163161Y3756906D01*
X34254155Y3719215D01*
X34263546Y3717347D01*
X34250000Y3649246D01*
X34250000Y3550754D01*
X34269215Y3454155D01*
X34306906Y3363161D01*
X34361625Y3281269D01*
X34392894Y3250000D01*
X34361625Y3218731D01*
X34306906Y3136839D01*
X34269215Y3045845D01*
X34250000Y2949246D01*
X34250000Y2850754D01*
X34269215Y2754155D01*
X34306906Y2663161D01*
X34361625Y2581269D01*
X34431269Y2511625D01*
X34513161Y2456906D01*
X34604155Y2419215D01*
X34700754Y2400000D01*
X34775640Y2400000D01*
X34775000Y2396783D01*
X34775000Y2303217D01*
X34793254Y2211448D01*
X34829061Y2125003D01*
X34881044Y2047205D01*
X34947205Y1981044D01*
X35025003Y1929061D01*
X35111448Y1893254D01*
X35203217Y1875000D01*
X35296783Y1875000D01*
X35388552Y1893254D01*
X35474997Y1929061D01*
X35552795Y1981044D01*
X35618956Y2047205D01*
X35670939Y2125003D01*
X35706746Y2211448D01*
X35725000Y2303217D01*
X35725000Y2396783D01*
X35706746Y2488552D01*
X35670939Y2574997D01*
X35618956Y2652795D01*
X35552795Y2718956D01*
X35474997Y2770939D01*
X35388552Y2806746D01*
X35296783Y2825000D01*
X35244877Y2825000D01*
X35250000Y2850754D01*
X35250000Y2940382D01*
X35675673Y3366055D01*
X35652598Y3289986D01*
X35633279Y3093840D01*
X35652598Y2897694D01*
X35709811Y2709086D01*
X35802721Y2535264D01*
X35927757Y2382907D01*
X36080114Y2257871D01*
X36253936Y2164961D01*
X36442544Y2107748D01*
X36589539Y2093270D01*
X38686821Y2093270D01*
X38833816Y2107748D01*
X39022424Y2164961D01*
X39196246Y2257871D01*
X39348603Y2382907D01*
X39473639Y2535264D01*
X39566549Y2709086D01*
X39600000Y2819361D01*
X39600000Y1400000D01*
X35519647Y1400000D01*
X35500000Y1401935D01*
X35480354Y1400000D01*
X35480353Y1400000D01*
X35421586Y1394212D01*
X35350000Y1372497D01*
X35350000Y1373869D01*
X35321178Y1518767D01*
X35264641Y1655258D01*
X35182563Y1778097D01*
X35078097Y1882563D01*
X34955258Y1964641D01*
X34818767Y2021178D01*
X34673869Y2050000D01*
X34526131Y2050000D01*
X34381233Y2021178D01*
X34244742Y1964641D01*
X34121903Y1882563D01*
X34017437Y1778097D01*
X33935359Y1655258D01*
X33878822Y1518767D01*
X33850000Y1373869D01*
X33850000Y1226131D01*
X33878822Y1081233D01*
X33935359Y944742D01*
X34017437Y821903D01*
X34121903Y717437D01*
X34244742Y635359D01*
X34381233Y578822D01*
X34526131Y550000D01*
X34673869Y550000D01*
X34818767Y578822D01*
X34955258Y635359D01*
X35078097Y717437D01*
X35100001Y739341D01*
X35100000Y400000D01*
X30577004Y400000D01*
X30581746Y411448D01*
X30600000Y503217D01*
X30600000Y596783D01*
X30581746Y688552D01*
X30545939Y774997D01*
X30493956Y852795D01*
X30427795Y918956D01*
X30386149Y946783D01*
X30750008Y946783D01*
X30750008Y853217D01*
X30768262Y761448D01*
X30804069Y675003D01*
X30856052Y597205D01*
X30922213Y531044D01*
X31000011Y479061D01*
X31086456Y443254D01*
X31178225Y425000D01*
X31271791Y425000D01*
X31363560Y443254D01*
X31450005Y479061D01*
X31527803Y531044D01*
X31593964Y597205D01*
X31645947Y675003D01*
X31681754Y761448D01*
X31700008Y853217D01*
X31700008Y946783D01*
X31725000Y946783D01*
X31725000Y853217D01*
X31743254Y761448D01*
X31779061Y675003D01*
X31831044Y597205D01*
X31897205Y531044D01*
X31975003Y479061D01*
X32061448Y443254D01*
X32153217Y425000D01*
X32246783Y425000D01*
X32338552Y443254D01*
X32424997Y479061D01*
X32502795Y531044D01*
X32568956Y597205D01*
X32620939Y675003D01*
X32656746Y761448D01*
X32675000Y853217D01*
X32675000Y946783D01*
X32656746Y1038552D01*
X32620939Y1124997D01*
X32568956Y1202795D01*
X32502795Y1268956D01*
X32424997Y1320939D01*
X32338552Y1356746D01*
X32246783Y1375000D01*
X32153217Y1375000D01*
X32061448Y1356746D01*
X31975003Y1320939D01*
X31897205Y1268956D01*
X31831044Y1202795D01*
X31779061Y1124997D01*
X31743254Y1038552D01*
X31725000Y946783D01*
X31700008Y946783D01*
X31681754Y1038552D01*
X31645947Y1124997D01*
X31593964Y1202795D01*
X31527803Y1268956D01*
X31450005Y1320939D01*
X31363560Y1356746D01*
X31271791Y1375000D01*
X31178225Y1375000D01*
X31086456Y1356746D01*
X31000011Y1320939D01*
X30922213Y1268956D01*
X30856052Y1202795D01*
X30804069Y1124997D01*
X30768262Y1038552D01*
X30750008Y946783D01*
X30386149Y946783D01*
X30349997Y970939D01*
X30263552Y1006746D01*
X30171783Y1025000D01*
X30078217Y1025000D01*
X29986448Y1006746D01*
X29900003Y970939D01*
X29822205Y918956D01*
X29756044Y852795D01*
X29704061Y774997D01*
X29668254Y688552D01*
X29650000Y596783D01*
X29650000Y503217D01*
X29668254Y411448D01*
X29672996Y400000D01*
X26002004Y400000D01*
X26006746Y411448D01*
X26025000Y503217D01*
X26025000Y596783D01*
X26006746Y688552D01*
X25970939Y774997D01*
X25918956Y852795D01*
X25852795Y918956D01*
X25774997Y970939D01*
X25688552Y1006746D01*
X25596783Y1025000D01*
X25503217Y1025000D01*
X25411448Y1006746D01*
X25325003Y970939D01*
X25247205Y918956D01*
X25181044Y852795D01*
X25129061Y774997D01*
X25093254Y688552D01*
X25075000Y596783D01*
X25075000Y503217D01*
X25093254Y411448D01*
X25097996Y400000D01*
X23141422Y400000D01*
X22270711Y1270711D01*
X22255557Y1283147D01*
X22238268Y1292388D01*
X22219509Y1298079D01*
X22200000Y1300000D01*
X21841422Y1300000D01*
X21274131Y1867291D01*
X21270939Y1874997D01*
X21218956Y1952795D01*
X21152795Y2018956D01*
X21074997Y2070939D01*
X21067291Y2074131D01*
X21009255Y2132167D01*
X21031746Y2186466D01*
X21050000Y2278235D01*
X21050000Y2371801D01*
X21031746Y2463570D01*
X20995939Y2550015D01*
X20943956Y2627813D01*
X20922286Y2649483D01*
X20945019Y2672216D01*
X20997002Y2750014D01*
X21032809Y2836459D01*
X21051063Y2928228D01*
X21051063Y3021794D01*
X21032809Y3113563D01*
X20997002Y3200008D01*
X20945019Y3277806D01*
X20878858Y3343967D01*
X20801060Y3395950D01*
X20714615Y3431757D01*
X20622846Y3450011D01*
X20529280Y3450011D01*
X20437511Y3431757D01*
X20351066Y3395950D01*
X20273268Y3343967D01*
X20250000Y3320699D01*
X20250000Y4937476D01*
X20277795Y4956048D01*
X20343956Y5022209D01*
X20395939Y5100007D01*
X20431746Y5186452D01*
X20450000Y5278221D01*
X20450000Y5290384D01*
X21358906Y4381477D01*
X21369081Y4369079D01*
X21418568Y4328465D01*
X21465264Y4303506D01*
X21475028Y4298287D01*
X21536290Y4279703D01*
X21542364Y4279105D01*
X21584041Y4275000D01*
X21584048Y4275000D01*
X21600001Y4273429D01*
X21615954Y4275000D01*
X21945098Y4275000D01*
X21919215Y4212512D01*
X21900000Y4115913D01*
X21900000Y4017421D01*
X21919215Y3920822D01*
X21956906Y3829828D01*
X22011625Y3747936D01*
X22081269Y3678292D01*
X22163161Y3623573D01*
X22254155Y3585882D01*
X22350754Y3566667D01*
X22449246Y3566667D01*
X22545845Y3585882D01*
X22600000Y3608314D01*
X22600001Y3458353D01*
X22545845Y3480785D01*
X22449246Y3500000D01*
X22350754Y3500000D01*
X22254155Y3480785D01*
X22163161Y3443094D01*
X22081269Y3388375D01*
X22011625Y3318731D01*
X21956906Y3236839D01*
X21919215Y3145845D01*
X21900000Y3049246D01*
X21900000Y2950754D01*
X21919215Y2854155D01*
X21956906Y2763161D01*
X22011625Y2681269D01*
X22081269Y2611625D01*
X22163161Y2556906D01*
X22254155Y2519215D01*
X22350754Y2500000D01*
X22449246Y2500000D01*
X22545845Y2519215D01*
X22636839Y2556906D01*
X22662591Y2574113D01*
X22694080Y2535745D01*
X22706478Y2525570D01*
X23550570Y1681477D01*
X23560745Y1669079D01*
X23610232Y1628465D01*
X23666692Y1598287D01*
X23727955Y1579703D01*
X23775705Y1575000D01*
X23775713Y1575000D01*
X23791666Y1573429D01*
X23807619Y1575000D01*
X26100884Y1575000D01*
X26367919Y1307964D01*
X26367919Y1245800D01*
X26386173Y1154031D01*
X26421980Y1067586D01*
X26473963Y989788D01*
X26540124Y923627D01*
X26617922Y871644D01*
X26704367Y835837D01*
X26796136Y817583D01*
X26889702Y817583D01*
X26981471Y835837D01*
X27067916Y871644D01*
X27145714Y923627D01*
X27211875Y989788D01*
X27263858Y1067586D01*
X27299665Y1154031D01*
X27317919Y1245800D01*
X27317919Y1339366D01*
X27299665Y1431135D01*
X27263858Y1517580D01*
X27211875Y1595378D01*
X27145714Y1661539D01*
X27067916Y1713522D01*
X26981471Y1749329D01*
X26917840Y1761986D01*
X26979938Y1787708D01*
X27057736Y1839691D01*
X27123897Y1905852D01*
X27175880Y1983650D01*
X27192180Y2023001D01*
X27195182Y2007907D01*
X27230989Y1921462D01*
X27282972Y1843664D01*
X27349133Y1777503D01*
X27426931Y1725520D01*
X27513376Y1689713D01*
X27605145Y1671459D01*
X27698711Y1671459D01*
X27790480Y1689713D01*
X27876925Y1725520D01*
X27954723Y1777503D01*
X28020884Y1843664D01*
X28072867Y1921462D01*
X28108674Y2007907D01*
X28126928Y2099676D01*
X28126928Y2193242D01*
X28108674Y2285011D01*
X28072867Y2371456D01*
X28020884Y2449254D01*
X27954723Y2515415D01*
X27876925Y2567398D01*
X27824940Y2588931D01*
X27832343Y2600011D01*
X27868150Y2686456D01*
X27886404Y2778225D01*
X27886404Y2871791D01*
X27868150Y2963560D01*
X27832343Y3050005D01*
X27780360Y3127803D01*
X27742544Y3165619D01*
X27774997Y3179061D01*
X27852795Y3231044D01*
X27918956Y3297205D01*
X27970939Y3375003D01*
X28006746Y3461448D01*
X28025000Y3553217D01*
X28025000Y3646783D01*
X28006746Y3738552D01*
X27970939Y3824997D01*
X27918956Y3902795D01*
X27852795Y3968956D01*
X27774997Y4020939D01*
X27688552Y4056746D01*
X27596783Y4075000D01*
X27503217Y4075000D01*
X27411448Y4056746D01*
X27325003Y4020939D01*
X27247205Y3968956D01*
X27181044Y3902795D01*
X27129061Y3824997D01*
X27093254Y3738552D01*
X27075000Y3646783D01*
X27075000Y3553217D01*
X27093254Y3461448D01*
X27129061Y3375003D01*
X27181044Y3297205D01*
X27218860Y3259389D01*
X27186407Y3245947D01*
X27108609Y3193964D01*
X27042448Y3127803D01*
X26990465Y3050005D01*
X26954658Y2963560D01*
X26936404Y2871791D01*
X26936404Y2778225D01*
X26954658Y2686456D01*
X26977858Y2630448D01*
X26893493Y2665393D01*
X26801724Y2683647D01*
X26708158Y2683647D01*
X26616389Y2665393D01*
X26529944Y2629586D01*
X26452146Y2577603D01*
X26408190Y2533647D01*
X25780687Y2533647D01*
X25836839Y2556906D01*
X25918731Y2611625D01*
X25988375Y2681269D01*
X26043094Y2763161D01*
X26080785Y2854155D01*
X26100000Y2950754D01*
X26100000Y3049246D01*
X26080785Y3145845D01*
X26043094Y3236839D01*
X25988375Y3318731D01*
X25918731Y3388375D01*
X25836839Y3443094D01*
X25745845Y3480785D01*
X25649246Y3500000D01*
X25550754Y3500000D01*
X25454155Y3480785D01*
X25363161Y3443094D01*
X25281269Y3388375D01*
X25211625Y3318731D01*
X25156906Y3236839D01*
X25119215Y3145845D01*
X25100000Y3049246D01*
X25100000Y2950754D01*
X25119215Y2854155D01*
X25156906Y2763161D01*
X25211625Y2681269D01*
X25281269Y2611625D01*
X25363161Y2556906D01*
X25419313Y2533647D01*
X24756303Y2533647D01*
X24743918Y2546031D01*
X24770172Y2556906D01*
X24852064Y2611625D01*
X24921708Y2681269D01*
X24976427Y2763161D01*
X25014118Y2854155D01*
X25033333Y2950754D01*
X25033333Y3049246D01*
X25014118Y3145845D01*
X24976427Y3236839D01*
X24921708Y3318731D01*
X24852064Y3388375D01*
X24770172Y3443094D01*
X24679178Y3480785D01*
X24582579Y3500000D01*
X24484087Y3500000D01*
X24387488Y3480785D01*
X24325000Y3454902D01*
X24325000Y3611765D01*
X24387488Y3585882D01*
X24484087Y3566667D01*
X24582579Y3566667D01*
X24679178Y3585882D01*
X24770172Y3623573D01*
X24852064Y3678292D01*
X24921708Y3747936D01*
X24976427Y3829828D01*
X25014118Y3920822D01*
X25033333Y4017421D01*
X25033333Y4115913D01*
X25100000Y4115913D01*
X25100000Y4017421D01*
X25119215Y3920822D01*
X25156906Y3829828D01*
X25211625Y3747936D01*
X25281269Y3678292D01*
X25363161Y3623573D01*
X25454155Y3585882D01*
X25550754Y3566667D01*
X25649246Y3566667D01*
X25745845Y3585882D01*
X25836839Y3623573D01*
X25918731Y3678292D01*
X25988375Y3747936D01*
X26043094Y3829828D01*
X26080785Y3920822D01*
X26100000Y4017421D01*
X26100000Y4096781D01*
X28225000Y4096781D01*
X28225000Y4003215D01*
X28243254Y3911446D01*
X28279061Y3825001D01*
X28331044Y3747203D01*
X28397205Y3681042D01*
X28475003Y3629059D01*
X28561448Y3593252D01*
X28653217Y3574998D01*
X28746783Y3574998D01*
X28838552Y3593252D01*
X28924997Y3629059D01*
X29002795Y3681042D01*
X29010999Y3689246D01*
X30970000Y3689246D01*
X30970000Y3590754D01*
X30989215Y3494155D01*
X31026906Y3403161D01*
X31081625Y3321269D01*
X31151269Y3251625D01*
X31233161Y3196906D01*
X31324155Y3159215D01*
X31420754Y3140000D01*
X31519246Y3140000D01*
X31615845Y3159215D01*
X31706839Y3196906D01*
X31788731Y3251625D01*
X31858375Y3321269D01*
X31913094Y3403161D01*
X31950785Y3494155D01*
X31970000Y3590754D01*
X31970000Y3689246D01*
X31950785Y3785845D01*
X31913094Y3876839D01*
X31858375Y3958731D01*
X31788731Y4028375D01*
X31706839Y4083094D01*
X31615845Y4120785D01*
X31519246Y4140000D01*
X31420754Y4140000D01*
X31324155Y4120785D01*
X31233161Y4083094D01*
X31151269Y4028375D01*
X31081625Y3958731D01*
X31026906Y3876839D01*
X30989215Y3785845D01*
X30970000Y3689246D01*
X29010999Y3689246D01*
X29068956Y3747203D01*
X29120939Y3825001D01*
X29156746Y3911446D01*
X29175000Y4003215D01*
X29175000Y4096781D01*
X29156746Y4188550D01*
X29120939Y4274995D01*
X29068956Y4352793D01*
X29002795Y4418954D01*
X28924997Y4470937D01*
X28838552Y4506744D01*
X28746783Y4524998D01*
X28653217Y4524998D01*
X28561448Y4506744D01*
X28475003Y4470937D01*
X28397205Y4418954D01*
X28331044Y4352793D01*
X28279061Y4274995D01*
X28243254Y4188550D01*
X28225000Y4096781D01*
X26100000Y4096781D01*
X26100000Y4115913D01*
X26080785Y4212512D01*
X26043094Y4303506D01*
X25988375Y4385398D01*
X25918731Y4455042D01*
X25836839Y4509761D01*
X25745845Y4547452D01*
X25649246Y4566667D01*
X25550754Y4566667D01*
X25454155Y4547452D01*
X25363161Y4509761D01*
X25281269Y4455042D01*
X25211625Y4385398D01*
X25156906Y4303506D01*
X25119215Y4212512D01*
X25100000Y4115913D01*
X25033333Y4115913D01*
X25014118Y4212512D01*
X24976427Y4303506D01*
X24921708Y4385398D01*
X24852064Y4455042D01*
X24770172Y4509761D01*
X24679178Y4547452D01*
X24582579Y4566667D01*
X24484087Y4566667D01*
X24387488Y4547452D01*
X24325000Y4521569D01*
X24325000Y4678431D01*
X24387488Y4652548D01*
X24484087Y4633333D01*
X24582579Y4633333D01*
X24679178Y4652548D01*
X24770172Y4690239D01*
X24852064Y4744958D01*
X24921708Y4814602D01*
X24976427Y4896494D01*
X25014118Y4987488D01*
X25033333Y5084087D01*
X25033333Y5182579D01*
X25100000Y5182579D01*
X25100000Y5084087D01*
X25119215Y4987488D01*
X25156906Y4896494D01*
X25211625Y4814602D01*
X25281269Y4744958D01*
X25363161Y4690239D01*
X25454155Y4652548D01*
X25550754Y4633333D01*
X25649246Y4633333D01*
X25745845Y4652548D01*
X25836839Y4690239D01*
X25918731Y4744958D01*
X25988375Y4814602D01*
X26043094Y4896494D01*
X26080785Y4987488D01*
X26100000Y5084087D01*
X26100000Y5182579D01*
X26080785Y5279178D01*
X26043094Y5370172D01*
X25988375Y5452064D01*
X25918731Y5521708D01*
X25836839Y5576427D01*
X25745845Y5614118D01*
X25649246Y5633333D01*
X25550754Y5633333D01*
X25454155Y5614118D01*
X25363161Y5576427D01*
X25281269Y5521708D01*
X25211625Y5452064D01*
X25156906Y5370172D01*
X25119215Y5279178D01*
X25100000Y5182579D01*
X25033333Y5182579D01*
X25014118Y5279178D01*
X24976427Y5370172D01*
X24921708Y5452064D01*
X24852064Y5521708D01*
X24770172Y5576427D01*
X24679178Y5614118D01*
X24582579Y5633333D01*
X24484087Y5633333D01*
X24387488Y5614118D01*
X24296494Y5576427D01*
X24229785Y5531853D01*
X24218524Y5541095D01*
X23866101Y5893517D01*
X23864516Y5895448D01*
X23909761Y5963161D01*
X23947452Y6054155D01*
X23966667Y6150754D01*
X23966667Y6249246D01*
X23947452Y6345845D01*
X23942292Y6358303D01*
X23967350Y6358303D01*
X23983303Y6356732D01*
X23999256Y6358303D01*
X23999264Y6358303D01*
X24047014Y6363006D01*
X24061473Y6367392D01*
X24052548Y6345845D01*
X24033333Y6249246D01*
X24033333Y6150754D01*
X24052548Y6054155D01*
X24090239Y5963161D01*
X24144958Y5881269D01*
X24214602Y5811625D01*
X24296494Y5756906D01*
X24387488Y5719215D01*
X24484087Y5700000D01*
X24582579Y5700000D01*
X24679178Y5719215D01*
X24770172Y5756906D01*
X24852064Y5811625D01*
X24921708Y5881269D01*
X24976427Y5963161D01*
X25014118Y6054155D01*
X25033333Y6150754D01*
X25033333Y6249246D01*
X25100000Y6249246D01*
X25100000Y6150754D01*
X25119215Y6054155D01*
X25156906Y5963161D01*
X25211625Y5881269D01*
X25281269Y5811625D01*
X25363161Y5756906D01*
X25454155Y5719215D01*
X25550754Y5700000D01*
X25649246Y5700000D01*
X25745845Y5719215D01*
X25836839Y5756906D01*
X25918731Y5811625D01*
X25988375Y5881269D01*
X26043094Y5963161D01*
X26080785Y6054155D01*
X26100000Y6150754D01*
X26100000Y6249246D01*
X26080785Y6345845D01*
X26043094Y6436839D01*
X25988375Y6518731D01*
X25918731Y6588375D01*
X25906112Y6596807D01*
X26725000Y6596807D01*
X26725000Y6503241D01*
X26743254Y6411472D01*
X26779061Y6325027D01*
X26831044Y6247229D01*
X26897205Y6181068D01*
X26975003Y6129085D01*
X27061448Y6093278D01*
X27153217Y6075024D01*
X27246783Y6075024D01*
X27338552Y6093278D01*
X27424997Y6129085D01*
X27502795Y6181068D01*
X27568956Y6247229D01*
X27620939Y6325027D01*
X27656746Y6411472D01*
X27675000Y6503241D01*
X27675000Y6587737D01*
X27680279Y6574992D01*
X27732262Y6497194D01*
X27798423Y6431033D01*
X27876221Y6379050D01*
X27962666Y6343243D01*
X28054435Y6324989D01*
X28148001Y6324989D01*
X28239770Y6343243D01*
X28326215Y6379050D01*
X28404013Y6431033D01*
X28470174Y6497194D01*
X28522157Y6574992D01*
X28557964Y6661437D01*
X28576218Y6753206D01*
X28576218Y6846772D01*
X28557964Y6938541D01*
X28554551Y6946783D01*
X30625000Y6946783D01*
X30625000Y6853217D01*
X30643254Y6761448D01*
X30679061Y6675003D01*
X30731044Y6597205D01*
X30797205Y6531044D01*
X30875003Y6479061D01*
X30961448Y6443254D01*
X31053217Y6425000D01*
X31115382Y6425000D01*
X33082661Y4457720D01*
X33082662Y2295963D01*
X33019286Y2232587D01*
X32964567Y2150695D01*
X32926876Y2059701D01*
X32907661Y1963102D01*
X32907661Y1864610D01*
X32926876Y1768011D01*
X32964567Y1677017D01*
X33019286Y1595125D01*
X33088930Y1525481D01*
X33170822Y1470762D01*
X33261816Y1433071D01*
X33358415Y1413856D01*
X33456907Y1413856D01*
X33553506Y1433071D01*
X33644500Y1470762D01*
X33726392Y1525481D01*
X33796036Y1595125D01*
X33850755Y1677017D01*
X33888446Y1768011D01*
X33907661Y1864610D01*
X33907661Y1963102D01*
X33888446Y2059701D01*
X33850755Y2150695D01*
X33796036Y2232587D01*
X33732661Y2295962D01*
X33732661Y4576387D01*
X33734232Y4592340D01*
X33732661Y4608293D01*
X33732661Y4608300D01*
X33727958Y4656050D01*
X33709374Y4717313D01*
X33679196Y4773773D01*
X33638582Y4823260D01*
X33626185Y4833434D01*
X32862836Y5596783D01*
X33275000Y5596783D01*
X33275000Y5503217D01*
X33293254Y5411448D01*
X33329061Y5325003D01*
X33381044Y5247205D01*
X33447205Y5181044D01*
X33525003Y5129061D01*
X33611448Y5093254D01*
X33703217Y5075000D01*
X33796783Y5075000D01*
X33888552Y5093254D01*
X33974997Y5129061D01*
X34052795Y5181044D01*
X34118956Y5247205D01*
X34170939Y5325003D01*
X34206746Y5411448D01*
X34225000Y5503217D01*
X34225000Y5596783D01*
X34206746Y5688552D01*
X34170939Y5774997D01*
X34118956Y5852795D01*
X34052795Y5918956D01*
X33974997Y5970939D01*
X33888552Y6006746D01*
X33796783Y6025000D01*
X33703217Y6025000D01*
X33611448Y6006746D01*
X33525003Y5970939D01*
X33447205Y5918956D01*
X33381044Y5852795D01*
X33329061Y5774997D01*
X33293254Y5688552D01*
X33275000Y5596783D01*
X32862836Y5596783D01*
X31835373Y6624246D01*
X33250000Y6624246D01*
X33250000Y6525754D01*
X33269215Y6429155D01*
X33306906Y6338161D01*
X33361625Y6256269D01*
X33431269Y6186625D01*
X33513161Y6131906D01*
X33604155Y6094215D01*
X33700754Y6075000D01*
X33799246Y6075000D01*
X33895845Y6094215D01*
X33986839Y6131906D01*
X34068731Y6186625D01*
X34138375Y6256269D01*
X34193094Y6338161D01*
X34230785Y6429155D01*
X34250000Y6525754D01*
X34250000Y6624246D01*
X34230785Y6720845D01*
X34193094Y6811839D01*
X34138375Y6893731D01*
X34068731Y6963375D01*
X33986839Y7018094D01*
X33895845Y7055785D01*
X33799246Y7075000D01*
X33700754Y7075000D01*
X33604155Y7055785D01*
X33513161Y7018094D01*
X33431269Y6963375D01*
X33361625Y6893731D01*
X33306906Y6811839D01*
X33269215Y6720845D01*
X33250000Y6624246D01*
X31835373Y6624246D01*
X31575000Y6884618D01*
X31575000Y6946783D01*
X31556746Y7038552D01*
X31520939Y7124997D01*
X31468956Y7202795D01*
X31402795Y7268956D01*
X31324997Y7320939D01*
X31238552Y7356746D01*
X31146783Y7375000D01*
X31053217Y7375000D01*
X30961448Y7356746D01*
X30875003Y7320939D01*
X30797205Y7268956D01*
X30731044Y7202795D01*
X30679061Y7124997D01*
X30643254Y7038552D01*
X30625000Y6946783D01*
X28554551Y6946783D01*
X28522157Y7024986D01*
X28470174Y7102784D01*
X28404013Y7168945D01*
X28326215Y7220928D01*
X28239770Y7256735D01*
X28148001Y7274989D01*
X28054435Y7274989D01*
X27962666Y7256735D01*
X27876221Y7220928D01*
X27798423Y7168945D01*
X27732262Y7102784D01*
X27680279Y7024986D01*
X27644472Y6938541D01*
X27626218Y6846772D01*
X27626218Y6762276D01*
X27620939Y6775021D01*
X27568956Y6852819D01*
X27502795Y6918980D01*
X27424997Y6970963D01*
X27338552Y7006770D01*
X27246783Y7025024D01*
X27153217Y7025024D01*
X27061448Y7006770D01*
X26975003Y6970963D01*
X26897205Y6918980D01*
X26831044Y6852819D01*
X26779061Y6775021D01*
X26743254Y6688576D01*
X26725000Y6596807D01*
X25906112Y6596807D01*
X25836839Y6643094D01*
X25745845Y6680785D01*
X25649246Y6700000D01*
X25550754Y6700000D01*
X25454155Y6680785D01*
X25363161Y6643094D01*
X25281269Y6588375D01*
X25211625Y6518731D01*
X25156906Y6436839D01*
X25119215Y6345845D01*
X25100000Y6249246D01*
X25033333Y6249246D01*
X25014118Y6345845D01*
X24976427Y6436839D01*
X24921708Y6518731D01*
X24852064Y6588375D01*
X24770172Y6643094D01*
X24679178Y6680785D01*
X24582579Y6700000D01*
X24484087Y6700000D01*
X24453542Y6693924D01*
X25656413Y7896795D01*
X27574974Y7896795D01*
X27574974Y7803229D01*
X27593228Y7711460D01*
X27629035Y7625015D01*
X27681018Y7547217D01*
X27747179Y7481056D01*
X27824977Y7429073D01*
X27911422Y7393266D01*
X28003191Y7375012D01*
X28096757Y7375012D01*
X28188526Y7393266D01*
X28274971Y7429073D01*
X28352769Y7481056D01*
X28418930Y7547217D01*
X28470913Y7625015D01*
X28506720Y7711460D01*
X28518720Y7771793D01*
X31425000Y7771793D01*
X31425000Y7678227D01*
X31443254Y7586458D01*
X31479061Y7500013D01*
X31531044Y7422215D01*
X31597205Y7356054D01*
X31675003Y7304071D01*
X31761448Y7268264D01*
X31853217Y7250010D01*
X31946783Y7250010D01*
X32038552Y7268264D01*
X32124997Y7304071D01*
X32202795Y7356054D01*
X32268956Y7422215D01*
X32320939Y7500013D01*
X32356746Y7586458D01*
X32375000Y7678227D01*
X32375000Y7771793D01*
X32356746Y7863562D01*
X32320939Y7950007D01*
X32268956Y8027805D01*
X32202795Y8093966D01*
X32124997Y8145949D01*
X32038552Y8181756D01*
X31946783Y8200010D01*
X31853217Y8200010D01*
X31761448Y8181756D01*
X31675003Y8145949D01*
X31597205Y8093966D01*
X31531044Y8027805D01*
X31479061Y7950007D01*
X31443254Y7863562D01*
X31425000Y7771793D01*
X28518720Y7771793D01*
X28524974Y7803229D01*
X28524974Y7896795D01*
X28506720Y7988564D01*
X28470913Y8075009D01*
X28418930Y8152807D01*
X28352769Y8218968D01*
X28274971Y8270951D01*
X28188526Y8306758D01*
X28096757Y8325012D01*
X28003191Y8325012D01*
X27911422Y8306758D01*
X27824977Y8270951D01*
X27747179Y8218968D01*
X27681018Y8152807D01*
X27629035Y8075009D01*
X27593228Y7988564D01*
X27574974Y7896795D01*
X25656413Y7896795D01*
X25918523Y8158904D01*
X25930921Y8169079D01*
X25971535Y8218566D01*
X26001713Y8275026D01*
X26001713Y8275027D01*
X26020297Y8336288D01*
X26020895Y8342362D01*
X26025000Y8384039D01*
X26025000Y8384046D01*
X26026571Y8399999D01*
X26025000Y8415952D01*
X26025000Y8903249D01*
X26068956Y8947205D01*
X26120939Y9025003D01*
X26156746Y9111448D01*
X26175000Y9203217D01*
X26175000Y9296783D01*
X26159442Y9375000D01*
X26340558Y9375000D01*
X26325000Y9296783D01*
X26325000Y9203217D01*
X26343254Y9111448D01*
X26379061Y9025003D01*
X26431044Y8947205D01*
X26497205Y8881044D01*
X26575003Y8829061D01*
X26661448Y8793254D01*
X26753217Y8775000D01*
X26846783Y8775000D01*
X26938552Y8793254D01*
X27024997Y8829061D01*
X27102795Y8881044D01*
X27168956Y8947205D01*
X27220939Y9025003D01*
X27256746Y9111448D01*
X27275000Y9203217D01*
X27275000Y9296783D01*
X27259442Y9375000D01*
X27834047Y9375000D01*
X27850000Y9373429D01*
X27865953Y9375000D01*
X27865961Y9375000D01*
X27913711Y9379703D01*
X27974974Y9398287D01*
X28031434Y9428465D01*
X28080921Y9469079D01*
X28091101Y9481483D01*
X28106401Y9496783D01*
X30725000Y9496783D01*
X30725000Y9403217D01*
X30743254Y9311448D01*
X30779061Y9225003D01*
X30831044Y9147205D01*
X30897205Y9081044D01*
X30975003Y9029061D01*
X31061448Y8993254D01*
X31153217Y8975000D01*
X31246783Y8975000D01*
X31338552Y8993254D01*
X31424997Y9029061D01*
X31502795Y9081044D01*
X31568956Y9147205D01*
X31620939Y9225003D01*
X31656746Y9311448D01*
X31675000Y9403217D01*
X31675000Y9496783D01*
X31656746Y9588552D01*
X31620939Y9674997D01*
X31568956Y9752795D01*
X31502795Y9818956D01*
X31424997Y9870939D01*
X31338552Y9906746D01*
X31246783Y9925000D01*
X31153217Y9925000D01*
X31061448Y9906746D01*
X30975003Y9870939D01*
X30897205Y9818956D01*
X30831044Y9752795D01*
X30779061Y9674997D01*
X30743254Y9588552D01*
X30725000Y9496783D01*
X28106401Y9496783D01*
X29134620Y10525000D01*
X31834047Y10525000D01*
X31850000Y10523429D01*
X31865953Y10525000D01*
X31865961Y10525000D01*
X31913711Y10529703D01*
X31974974Y10548287D01*
X32031434Y10578465D01*
X32080921Y10619079D01*
X32091101Y10631483D01*
X32284618Y10825000D01*
X32346783Y10825000D01*
X32438552Y10843254D01*
X32524997Y10879061D01*
X32602795Y10931044D01*
X32668956Y10997205D01*
X32720939Y11075003D01*
X32756746Y11161448D01*
X32764264Y11199246D01*
X32950000Y11199246D01*
X32950000Y11100754D01*
X32969215Y11004155D01*
X33006906Y10913161D01*
X33061625Y10831269D01*
X33131269Y10761625D01*
X33213161Y10706906D01*
X33304155Y10669215D01*
X33400754Y10650000D01*
X33499246Y10650000D01*
X33595845Y10669215D01*
X33686839Y10706906D01*
X33768731Y10761625D01*
X33838375Y10831269D01*
X33893094Y10913161D01*
X33930785Y11004155D01*
X33950000Y11100754D01*
X33950000Y11127749D01*
X36788270Y11127749D01*
X36788270Y10960331D01*
X36820932Y10796130D01*
X36885000Y10641457D01*
X36978012Y10502254D01*
X37096394Y10383872D01*
X37235597Y10290860D01*
X37390270Y10226792D01*
X37554471Y10194130D01*
X37721889Y10194130D01*
X37886090Y10226792D01*
X38040763Y10290860D01*
X38179966Y10383872D01*
X38298348Y10502254D01*
X38391360Y10641457D01*
X38455428Y10796130D01*
X38488090Y10960331D01*
X38488090Y11127749D01*
X38455428Y11291950D01*
X38391360Y11446623D01*
X38298348Y11585826D01*
X38179966Y11704208D01*
X38040763Y11797220D01*
X37886090Y11861288D01*
X37721889Y11893950D01*
X37554471Y11893950D01*
X37390270Y11861288D01*
X37235597Y11797220D01*
X37096394Y11704208D01*
X36978012Y11585826D01*
X36885000Y11446623D01*
X36820932Y11291950D01*
X36788270Y11127749D01*
X33950000Y11127749D01*
X33950000Y11199246D01*
X33930785Y11295845D01*
X33893094Y11386839D01*
X33838375Y11468731D01*
X33768731Y11538375D01*
X33686839Y11593094D01*
X33595845Y11630785D01*
X33499246Y11650000D01*
X33400754Y11650000D01*
X33304155Y11630785D01*
X33213161Y11593094D01*
X33131269Y11538375D01*
X33061625Y11468731D01*
X33006906Y11386839D01*
X32969215Y11295845D01*
X32950000Y11199246D01*
X32764264Y11199246D01*
X32775000Y11253217D01*
X32775000Y11346783D01*
X32756746Y11438552D01*
X32720939Y11524997D01*
X32668956Y11602795D01*
X32602795Y11668956D01*
X32524997Y11720939D01*
X32438552Y11756746D01*
X32346783Y11775000D01*
X32253217Y11775000D01*
X32161448Y11756746D01*
X32075003Y11720939D01*
X31997205Y11668956D01*
X31931044Y11602795D01*
X31879061Y11524997D01*
X31843254Y11438552D01*
X31825000Y11346783D01*
X31825000Y11284618D01*
X31715382Y11175000D01*
X29015953Y11175000D01*
X29000000Y11176571D01*
X28984047Y11175000D01*
X28984039Y11175000D01*
X28936289Y11170297D01*
X28875026Y11151713D01*
X28818566Y11121535D01*
X28797697Y11104408D01*
X28781476Y11091096D01*
X28781472Y11091092D01*
X28769079Y11080921D01*
X28758908Y11068528D01*
X27715382Y10025000D01*
X27323465Y10025000D01*
X27338562Y10061448D01*
X27356816Y10153217D01*
X27356816Y10246783D01*
X27338562Y10338552D01*
X27302755Y10424997D01*
X27250772Y10502795D01*
X27184611Y10568956D01*
X27106813Y10620939D01*
X27020368Y10656746D01*
X26928599Y10675000D01*
X26835033Y10675000D01*
X26743264Y10656746D01*
X26656819Y10620939D01*
X26579021Y10568956D01*
X26512860Y10502795D01*
X26460877Y10424997D01*
X26425070Y10338552D01*
X26406816Y10246783D01*
X26406816Y10153217D01*
X26425070Y10061448D01*
X26440167Y10025000D01*
X23474980Y10025000D01*
X23474980Y10096783D01*
X23456726Y10188552D01*
X23420919Y10274997D01*
X23368936Y10352795D01*
X23302775Y10418956D01*
X23224977Y10470939D01*
X23138532Y10506746D01*
X23046763Y10525000D01*
X22953197Y10525000D01*
X22861428Y10506746D01*
X22774983Y10470939D01*
X22697185Y10418956D01*
X22631024Y10352795D01*
X22579041Y10274997D01*
X22543234Y10188552D01*
X22524980Y10096783D01*
X22524980Y10003217D01*
X22543234Y9911448D01*
X22579041Y9825003D01*
X22631024Y9747205D01*
X22697185Y9681044D01*
X22774983Y9629061D01*
X22849141Y9598343D01*
X22839895Y9581044D01*
X22823287Y9549973D01*
X22804703Y9488711D01*
X22798429Y9425000D01*
X22800001Y9409037D01*
X22800001Y9246752D01*
X22756044Y9202795D01*
X22704061Y9124997D01*
X22668254Y9038552D01*
X22650000Y8946783D01*
X22650000Y8853217D01*
X22668254Y8761448D01*
X22704061Y8675003D01*
X22756044Y8597205D01*
X22822205Y8531044D01*
X22900003Y8479061D01*
X22986448Y8443254D01*
X23078217Y8425000D01*
X23130614Y8425000D01*
X23143254Y8361456D01*
X23179061Y8275011D01*
X23231044Y8197213D01*
X23297205Y8131052D01*
X23375003Y8079069D01*
X23461448Y8043262D01*
X23553217Y8025008D01*
X23646783Y8025008D01*
X23738552Y8043262D01*
X23824997Y8079069D01*
X23902795Y8131052D01*
X23924990Y8153247D01*
X23947193Y8131044D01*
X24024991Y8079061D01*
X24056423Y8066041D01*
X23565382Y7575000D01*
X21546639Y7575000D01*
X21502683Y7618956D01*
X21424885Y7670939D01*
X21338440Y7706746D01*
X21246671Y7725000D01*
X21153105Y7725000D01*
X21061336Y7706746D01*
X20974891Y7670939D01*
X20950000Y7654307D01*
X20950000Y7845162D01*
X20956746Y7861448D01*
X20975000Y7953217D01*
X20975000Y8046783D01*
X20956746Y8138552D01*
X20953268Y8146950D01*
X21625169Y8146950D01*
X21625169Y8053384D01*
X21643423Y7961615D01*
X21679230Y7875170D01*
X21731213Y7797372D01*
X21797374Y7731211D01*
X21875172Y7679228D01*
X21961617Y7643421D01*
X22053386Y7625167D01*
X22146952Y7625167D01*
X22238721Y7643421D01*
X22325166Y7679228D01*
X22402964Y7731211D01*
X22469125Y7797372D01*
X22521108Y7875170D01*
X22556915Y7961615D01*
X22575169Y8053384D01*
X22575169Y8146950D01*
X22556915Y8238719D01*
X22521108Y8325164D01*
X22469125Y8402962D01*
X22402964Y8469123D01*
X22325166Y8521106D01*
X22238721Y8556913D01*
X22146952Y8575167D01*
X22053386Y8575167D01*
X21961617Y8556913D01*
X21875172Y8521106D01*
X21797374Y8469123D01*
X21731213Y8402962D01*
X21679230Y8325164D01*
X21643423Y8238719D01*
X21625169Y8146950D01*
X20953268Y8146950D01*
X20950000Y8154838D01*
X20950000Y8400000D01*
X20930970Y8495671D01*
X20876777Y8576777D01*
X20450000Y9003554D01*
X20450000Y9796446D01*
X20802646Y10149092D01*
X20874997Y10179061D01*
X20952795Y10231044D01*
X21018956Y10297205D01*
X21070939Y10375003D01*
X21106746Y10461448D01*
X21125000Y10553217D01*
X21125000Y10646783D01*
X21120027Y10671785D01*
X21300000Y10671785D01*
X21300000Y10578219D01*
X21318254Y10486450D01*
X21354061Y10400005D01*
X21406044Y10322207D01*
X21472205Y10256046D01*
X21514385Y10227862D01*
X21479061Y10174997D01*
X21443254Y10088552D01*
X21425000Y9996783D01*
X21425000Y9903217D01*
X21443254Y9811448D01*
X21479061Y9725003D01*
X21531044Y9647205D01*
X21597205Y9581044D01*
X21675003Y9529061D01*
X21761448Y9493254D01*
X21853217Y9475000D01*
X21946783Y9475000D01*
X22038552Y9493254D01*
X22124997Y9529061D01*
X22202795Y9581044D01*
X22268956Y9647205D01*
X22320939Y9725003D01*
X22356746Y9811448D01*
X22375000Y9903217D01*
X22375000Y9996783D01*
X22356746Y10088552D01*
X22320939Y10174997D01*
X22268956Y10252795D01*
X22202795Y10318956D01*
X22160615Y10347140D01*
X22195939Y10400005D01*
X22231746Y10486450D01*
X22250000Y10578219D01*
X22250000Y10671785D01*
X22231746Y10763554D01*
X22195939Y10849999D01*
X22143956Y10927797D01*
X22122507Y10949246D01*
X23350000Y10949246D01*
X23350000Y10850754D01*
X23369215Y10754155D01*
X23406906Y10663161D01*
X23461625Y10581269D01*
X23531269Y10511625D01*
X23613161Y10456906D01*
X23704155Y10419215D01*
X23800754Y10400000D01*
X23899246Y10400000D01*
X23995845Y10419215D01*
X24086839Y10456906D01*
X24168731Y10511625D01*
X24238375Y10581269D01*
X24293094Y10663161D01*
X24330785Y10754155D01*
X24350000Y10850754D01*
X24350000Y10949246D01*
X24450000Y10949246D01*
X24450000Y10850754D01*
X24469215Y10754155D01*
X24506906Y10663161D01*
X24561625Y10581269D01*
X24631269Y10511625D01*
X24713161Y10456906D01*
X24804155Y10419215D01*
X24900754Y10400000D01*
X24999246Y10400000D01*
X25095845Y10419215D01*
X25186839Y10456906D01*
X25268731Y10511625D01*
X25338375Y10581269D01*
X25393094Y10663161D01*
X25430785Y10754155D01*
X25450000Y10850754D01*
X25450000Y10949246D01*
X25550000Y10949246D01*
X25550000Y10850754D01*
X25569215Y10754155D01*
X25606906Y10663161D01*
X25661625Y10581269D01*
X25731269Y10511625D01*
X25813161Y10456906D01*
X25904155Y10419215D01*
X26000754Y10400000D01*
X26099246Y10400000D01*
X26195845Y10419215D01*
X26286839Y10456906D01*
X26368731Y10511625D01*
X26438375Y10581269D01*
X26493094Y10663161D01*
X26530785Y10754155D01*
X26550000Y10850754D01*
X26550000Y10949246D01*
X26530785Y11045845D01*
X26493094Y11136839D01*
X26438375Y11218731D01*
X26368731Y11288375D01*
X26286839Y11343094D01*
X26195845Y11380785D01*
X26099246Y11400000D01*
X26000754Y11400000D01*
X25904155Y11380785D01*
X25813161Y11343094D01*
X25731269Y11288375D01*
X25661625Y11218731D01*
X25606906Y11136839D01*
X25569215Y11045845D01*
X25550000Y10949246D01*
X25450000Y10949246D01*
X25430785Y11045845D01*
X25393094Y11136839D01*
X25338375Y11218731D01*
X25268731Y11288375D01*
X25186839Y11343094D01*
X25095845Y11380785D01*
X24999246Y11400000D01*
X24900754Y11400000D01*
X24804155Y11380785D01*
X24713161Y11343094D01*
X24631269Y11288375D01*
X24561625Y11218731D01*
X24506906Y11136839D01*
X24469215Y11045845D01*
X24450000Y10949246D01*
X24350000Y10949246D01*
X24330785Y11045845D01*
X24293094Y11136839D01*
X24238375Y11218731D01*
X24168731Y11288375D01*
X24086839Y11343094D01*
X23995845Y11380785D01*
X23899246Y11400000D01*
X23800754Y11400000D01*
X23704155Y11380785D01*
X23613161Y11343094D01*
X23531269Y11288375D01*
X23461625Y11218731D01*
X23406906Y11136839D01*
X23369215Y11045845D01*
X23350000Y10949246D01*
X22122507Y10949246D01*
X22077795Y10993958D01*
X21999997Y11045941D01*
X21913552Y11081748D01*
X21821783Y11100002D01*
X21728217Y11100002D01*
X21636448Y11081748D01*
X21550003Y11045941D01*
X21472205Y10993958D01*
X21406044Y10927797D01*
X21354061Y10849999D01*
X21318254Y10763554D01*
X21300000Y10671785D01*
X21120027Y10671785D01*
X21106746Y10738552D01*
X21070939Y10824997D01*
X21050000Y10856334D01*
X21050000Y12049246D01*
X23350000Y12049246D01*
X23350000Y11950754D01*
X23369215Y11854155D01*
X23406906Y11763161D01*
X23461625Y11681269D01*
X23531269Y11611625D01*
X23613161Y11556906D01*
X23704155Y11519215D01*
X23800754Y11500000D01*
X23899246Y11500000D01*
X23995845Y11519215D01*
X24086839Y11556906D01*
X24168731Y11611625D01*
X24238375Y11681269D01*
X24293094Y11763161D01*
X24330785Y11854155D01*
X24350000Y11950754D01*
X24350000Y12049246D01*
X24450000Y12049246D01*
X24450000Y11950754D01*
X24469215Y11854155D01*
X24506906Y11763161D01*
X24561625Y11681269D01*
X24631269Y11611625D01*
X24713161Y11556906D01*
X24804155Y11519215D01*
X24900754Y11500000D01*
X24999246Y11500000D01*
X25095845Y11519215D01*
X25186839Y11556906D01*
X25268731Y11611625D01*
X25338375Y11681269D01*
X25393094Y11763161D01*
X25430785Y11854155D01*
X25450000Y11950754D01*
X25450000Y12049246D01*
X25550000Y12049246D01*
X25550000Y11950754D01*
X25569215Y11854155D01*
X25606906Y11763161D01*
X25661625Y11681269D01*
X25731269Y11611625D01*
X25813161Y11556906D01*
X25904155Y11519215D01*
X26000754Y11500000D01*
X26099246Y11500000D01*
X26195845Y11519215D01*
X26286839Y11556906D01*
X26368731Y11611625D01*
X26438375Y11681269D01*
X26493094Y11763161D01*
X26530785Y11854155D01*
X26550000Y11950754D01*
X26550000Y12049246D01*
X26530785Y12145845D01*
X26493094Y12236839D01*
X26438375Y12318731D01*
X26368731Y12388375D01*
X26286839Y12443094D01*
X26195845Y12480785D01*
X26099246Y12500000D01*
X26000754Y12500000D01*
X25904155Y12480785D01*
X25813161Y12443094D01*
X25731269Y12388375D01*
X25661625Y12318731D01*
X25606906Y12236839D01*
X25569215Y12145845D01*
X25550000Y12049246D01*
X25450000Y12049246D01*
X25430785Y12145845D01*
X25393094Y12236839D01*
X25338375Y12318731D01*
X25268731Y12388375D01*
X25186839Y12443094D01*
X25095845Y12480785D01*
X24999246Y12500000D01*
X24900754Y12500000D01*
X24804155Y12480785D01*
X24713161Y12443094D01*
X24631269Y12388375D01*
X24561625Y12318731D01*
X24506906Y12236839D01*
X24469215Y12145845D01*
X24450000Y12049246D01*
X24350000Y12049246D01*
X24330785Y12145845D01*
X24293094Y12236839D01*
X24238375Y12318731D01*
X24168731Y12388375D01*
X24086839Y12443094D01*
X23995845Y12480785D01*
X23899246Y12500000D01*
X23800754Y12500000D01*
X23704155Y12480785D01*
X23613161Y12443094D01*
X23531269Y12388375D01*
X23461625Y12318731D01*
X23406906Y12236839D01*
X23369215Y12145845D01*
X23350000Y12049246D01*
X21050000Y12049246D01*
X21050000Y12096446D01*
X22102800Y13149246D01*
X23350000Y13149246D01*
X23350000Y13050754D01*
X23369215Y12954155D01*
X23406906Y12863161D01*
X23461625Y12781269D01*
X23531269Y12711625D01*
X23613161Y12656906D01*
X23704155Y12619215D01*
X23800754Y12600000D01*
X23899246Y12600000D01*
X23995845Y12619215D01*
X24086839Y12656906D01*
X24168731Y12711625D01*
X24238375Y12781269D01*
X24293094Y12863161D01*
X24330785Y12954155D01*
X24350000Y13050754D01*
X24350000Y13149246D01*
X24450000Y13149246D01*
X24450000Y13050754D01*
X24469215Y12954155D01*
X24506906Y12863161D01*
X24561625Y12781269D01*
X24631269Y12711625D01*
X24713161Y12656906D01*
X24804155Y12619215D01*
X24900754Y12600000D01*
X24999246Y12600000D01*
X25095845Y12619215D01*
X25186839Y12656906D01*
X25268731Y12711625D01*
X25338375Y12781269D01*
X25393094Y12863161D01*
X25430785Y12954155D01*
X25450000Y13050754D01*
X25450000Y13149246D01*
X25550000Y13149246D01*
X25550000Y13050754D01*
X25569215Y12954155D01*
X25606906Y12863161D01*
X25661625Y12781269D01*
X25731269Y12711625D01*
X25813161Y12656906D01*
X25904155Y12619215D01*
X26000754Y12600000D01*
X26099246Y12600000D01*
X26195845Y12619215D01*
X26286839Y12656906D01*
X26368731Y12711625D01*
X26438375Y12781269D01*
X26493094Y12863161D01*
X26530785Y12954155D01*
X26550000Y13050754D01*
X26550000Y13149246D01*
X26530785Y13245845D01*
X26499331Y13321783D01*
X28550000Y13321783D01*
X28550000Y13228217D01*
X28568254Y13136448D01*
X28604061Y13050003D01*
X28656044Y12972205D01*
X28722205Y12906044D01*
X28800003Y12854061D01*
X28886448Y12818254D01*
X28978217Y12800000D01*
X29071783Y12800000D01*
X29163552Y12818254D01*
X29249997Y12854061D01*
X29327795Y12906044D01*
X29393956Y12972205D01*
X29445939Y13050003D01*
X29481746Y13136448D01*
X29500000Y13228217D01*
X29500000Y13321783D01*
X29481746Y13413552D01*
X29445939Y13499997D01*
X29393956Y13577795D01*
X29327795Y13643956D01*
X29249997Y13695939D01*
X29163552Y13731746D01*
X29071783Y13750000D01*
X28978217Y13750000D01*
X28886448Y13731746D01*
X28800003Y13695939D01*
X28722205Y13643956D01*
X28656044Y13577795D01*
X28604061Y13499997D01*
X28568254Y13413552D01*
X28550000Y13321783D01*
X26499331Y13321783D01*
X26493094Y13336839D01*
X26438375Y13418731D01*
X26368731Y13488375D01*
X26286839Y13543094D01*
X26195845Y13580785D01*
X26099246Y13600000D01*
X26000754Y13600000D01*
X25904155Y13580785D01*
X25813161Y13543094D01*
X25731269Y13488375D01*
X25661625Y13418731D01*
X25606906Y13336839D01*
X25569215Y13245845D01*
X25550000Y13149246D01*
X25450000Y13149246D01*
X25430785Y13245845D01*
X25393094Y13336839D01*
X25338375Y13418731D01*
X25268731Y13488375D01*
X25186839Y13543094D01*
X25095845Y13580785D01*
X24999246Y13600000D01*
X24900754Y13600000D01*
X24804155Y13580785D01*
X24713161Y13543094D01*
X24631269Y13488375D01*
X24561625Y13418731D01*
X24506906Y13336839D01*
X24469215Y13245845D01*
X24450000Y13149246D01*
X24350000Y13149246D01*
X24330785Y13245845D01*
X24293094Y13336839D01*
X24238375Y13418731D01*
X24168731Y13488375D01*
X24086839Y13543094D01*
X23995845Y13580785D01*
X23899246Y13600000D01*
X23800754Y13600000D01*
X23704155Y13580785D01*
X23613161Y13543094D01*
X23531269Y13488375D01*
X23461625Y13418731D01*
X23406906Y13336839D01*
X23369215Y13245845D01*
X23350000Y13149246D01*
X22102800Y13149246D01*
X22576777Y13623223D01*
X22630970Y13704329D01*
X22650000Y13800000D01*
X22650000Y17200000D01*
X27143666Y17200000D01*
X27097205Y17168956D01*
G04 #@! TO.N,GND*
G36*
X22300000Y13841422D02*
X20729289Y12270711D01*
X20716853Y12255557D01*
X20707612Y12238268D01*
X20701921Y12219509D01*
X20700000Y12200000D01*
X20700000Y10541422D01*
X20458578Y10300000D01*
X20349560Y10300000D01*
X20325000Y10302419D01*
X20300440Y10300000D01*
X19424549Y10300000D01*
X19399999Y10302418D01*
X19375449Y10300000D01*
X19375440Y10300000D01*
X19301983Y10292765D01*
X19207733Y10264175D01*
X19120871Y10217746D01*
X19044736Y10155264D01*
X19029075Y10136181D01*
X18779081Y9886186D01*
X18732255Y9829128D01*
X18685826Y9742267D01*
X18657235Y9648017D01*
X18647581Y9550000D01*
X18657235Y9451983D01*
X18685826Y9357733D01*
X18732255Y9270872D01*
X18794737Y9194737D01*
X18870872Y9132255D01*
X18957733Y9085826D01*
X19051983Y9057235D01*
X19150000Y9047581D01*
X19248017Y9057235D01*
X19342267Y9085826D01*
X19429128Y9132255D01*
X19486186Y9179081D01*
X19607105Y9300000D01*
X20100000Y9300000D01*
X20100000Y8900000D01*
X20101921Y8880491D01*
X20107612Y8861732D01*
X20116853Y8844443D01*
X20129289Y8829289D01*
X20600000Y8358578D01*
X20600000Y7341422D01*
X19929289Y6670711D01*
X19916853Y6655557D01*
X19907612Y6638268D01*
X19901921Y6619509D01*
X19900000Y6600000D01*
X19900000Y5794391D01*
X19836448Y5781750D01*
X19750003Y5745943D01*
X19672205Y5693960D01*
X19628249Y5650004D01*
X19209615Y5650004D01*
X17725000Y7134618D01*
X17725000Y7884052D01*
X17726571Y7900005D01*
X17725000Y7915958D01*
X17725000Y7915965D01*
X17720297Y7963715D01*
X17701713Y8024978D01*
X17671535Y8081438D01*
X17630921Y8130925D01*
X17618523Y8141100D01*
X13275000Y12484622D01*
X13275000Y15103249D01*
X13318956Y15147205D01*
X13370939Y15225003D01*
X13406746Y15311448D01*
X13425000Y15403217D01*
X13425000Y15496783D01*
X13406746Y15588552D01*
X13370939Y15674997D01*
X13318956Y15752795D01*
X13252795Y15818956D01*
X13174997Y15870939D01*
X13088552Y15906746D01*
X12996783Y15925000D01*
X12903217Y15925000D01*
X12811448Y15906746D01*
X12725003Y15870939D01*
X12647205Y15818956D01*
X12581044Y15752795D01*
X12529061Y15674997D01*
X12493254Y15588552D01*
X12475000Y15496783D01*
X12475000Y15403217D01*
X12493254Y15311448D01*
X12529061Y15225003D01*
X12581044Y15147205D01*
X12625001Y15103248D01*
X12625000Y12365957D01*
X12623429Y12350004D01*
X12625000Y12334051D01*
X12625000Y12334044D01*
X12629703Y12286294D01*
X12648287Y12225031D01*
X12678465Y12168571D01*
X12719079Y12119083D01*
X12731483Y12108903D01*
X17075001Y7765384D01*
X17075000Y7015953D01*
X17073429Y7000000D01*
X17075000Y6984047D01*
X17075000Y6984040D01*
X17077876Y6954838D01*
X17079703Y6936289D01*
X17088194Y6908300D01*
X17098287Y6875027D01*
X17128465Y6818567D01*
X17169079Y6769079D01*
X17181483Y6758899D01*
X18833900Y5106481D01*
X18844075Y5094083D01*
X18893562Y5053469D01*
X18950022Y5023291D01*
X19011284Y5004707D01*
X19017358Y5004109D01*
X19059035Y5000004D01*
X19059042Y5000004D01*
X19074995Y4998433D01*
X19090948Y5000004D01*
X19628249Y5000004D01*
X19672205Y4956048D01*
X19750003Y4904065D01*
X19836448Y4868258D01*
X19900000Y4855617D01*
X19900000Y2600000D01*
X19901921Y2580491D01*
X19907612Y2561732D01*
X19916853Y2544443D01*
X19929289Y2529289D01*
X20100000Y2358578D01*
X20100000Y2278235D01*
X20118254Y2186466D01*
X20154061Y2100021D01*
X20206044Y2022223D01*
X20272205Y1956062D01*
X20350003Y1904079D01*
X20436448Y1868272D01*
X20528217Y1850018D01*
X20608560Y1850018D01*
X21629289Y829289D01*
X21644443Y816853D01*
X21661732Y807612D01*
X21680491Y801921D01*
X21700000Y800000D01*
X22058578Y800000D01*
X22200000Y658578D01*
X22200000Y400000D01*
X12400000Y400000D01*
X12400000Y6600000D01*
X12398079Y6619509D01*
X12392388Y6638268D01*
X12383147Y6655557D01*
X12370711Y6670711D01*
X12355557Y6683147D01*
X12338268Y6692388D01*
X12319509Y6698079D01*
X12300000Y6700000D01*
X400000Y6700000D01*
X400000Y7289340D01*
X471903Y7217437D01*
X594742Y7135359D01*
X731233Y7078822D01*
X876131Y7050000D01*
X1023869Y7050000D01*
X1168767Y7078822D01*
X1305258Y7135359D01*
X1428097Y7217437D01*
X1532563Y7321903D01*
X1614641Y7444742D01*
X1671178Y7581233D01*
X1700000Y7726131D01*
X1700000Y7873869D01*
X1694802Y7900000D01*
X8300000Y7900000D01*
X8319509Y7901921D01*
X8338268Y7907612D01*
X8355557Y7916853D01*
X8370711Y7929289D01*
X8383147Y7944443D01*
X8392388Y7961732D01*
X8398079Y7980491D01*
X8400000Y8000000D01*
X8400000Y17200000D01*
X22300000Y17200000D01*
X22300000Y13841422D01*
X22300000Y13841422D01*
G37*
X22300000Y13841422D02*
X20729289Y12270711D01*
X20716853Y12255557D01*
X20707612Y12238268D01*
X20701921Y12219509D01*
X20700000Y12200000D01*
X20700000Y10541422D01*
X20458578Y10300000D01*
X20349560Y10300000D01*
X20325000Y10302419D01*
X20300440Y10300000D01*
X19424549Y10300000D01*
X19399999Y10302418D01*
X19375449Y10300000D01*
X19375440Y10300000D01*
X19301983Y10292765D01*
X19207733Y10264175D01*
X19120871Y10217746D01*
X19044736Y10155264D01*
X19029075Y10136181D01*
X18779081Y9886186D01*
X18732255Y9829128D01*
X18685826Y9742267D01*
X18657235Y9648017D01*
X18647581Y9550000D01*
X18657235Y9451983D01*
X18685826Y9357733D01*
X18732255Y9270872D01*
X18794737Y9194737D01*
X18870872Y9132255D01*
X18957733Y9085826D01*
X19051983Y9057235D01*
X19150000Y9047581D01*
X19248017Y9057235D01*
X19342267Y9085826D01*
X19429128Y9132255D01*
X19486186Y9179081D01*
X19607105Y9300000D01*
X20100000Y9300000D01*
X20100000Y8900000D01*
X20101921Y8880491D01*
X20107612Y8861732D01*
X20116853Y8844443D01*
X20129289Y8829289D01*
X20600000Y8358578D01*
X20600000Y7341422D01*
X19929289Y6670711D01*
X19916853Y6655557D01*
X19907612Y6638268D01*
X19901921Y6619509D01*
X19900000Y6600000D01*
X19900000Y5794391D01*
X19836448Y5781750D01*
X19750003Y5745943D01*
X19672205Y5693960D01*
X19628249Y5650004D01*
X19209615Y5650004D01*
X17725000Y7134618D01*
X17725000Y7884052D01*
X17726571Y7900005D01*
X17725000Y7915958D01*
X17725000Y7915965D01*
X17720297Y7963715D01*
X17701713Y8024978D01*
X17671535Y8081438D01*
X17630921Y8130925D01*
X17618523Y8141100D01*
X13275000Y12484622D01*
X13275000Y15103249D01*
X13318956Y15147205D01*
X13370939Y15225003D01*
X13406746Y15311448D01*
X13425000Y15403217D01*
X13425000Y15496783D01*
X13406746Y15588552D01*
X13370939Y15674997D01*
X13318956Y15752795D01*
X13252795Y15818956D01*
X13174997Y15870939D01*
X13088552Y15906746D01*
X12996783Y15925000D01*
X12903217Y15925000D01*
X12811448Y15906746D01*
X12725003Y15870939D01*
X12647205Y15818956D01*
X12581044Y15752795D01*
X12529061Y15674997D01*
X12493254Y15588552D01*
X12475000Y15496783D01*
X12475000Y15403217D01*
X12493254Y15311448D01*
X12529061Y15225003D01*
X12581044Y15147205D01*
X12625001Y15103248D01*
X12625000Y12365957D01*
X12623429Y12350004D01*
X12625000Y12334051D01*
X12625000Y12334044D01*
X12629703Y12286294D01*
X12648287Y12225031D01*
X12678465Y12168571D01*
X12719079Y12119083D01*
X12731483Y12108903D01*
X17075001Y7765384D01*
X17075000Y7015953D01*
X17073429Y7000000D01*
X17075000Y6984047D01*
X17075000Y6984040D01*
X17077876Y6954838D01*
X17079703Y6936289D01*
X17088194Y6908300D01*
X17098287Y6875027D01*
X17128465Y6818567D01*
X17169079Y6769079D01*
X17181483Y6758899D01*
X18833900Y5106481D01*
X18844075Y5094083D01*
X18893562Y5053469D01*
X18950022Y5023291D01*
X19011284Y5004707D01*
X19017358Y5004109D01*
X19059035Y5000004D01*
X19059042Y5000004D01*
X19074995Y4998433D01*
X19090948Y5000004D01*
X19628249Y5000004D01*
X19672205Y4956048D01*
X19750003Y4904065D01*
X19836448Y4868258D01*
X19900000Y4855617D01*
X19900000Y2600000D01*
X19901921Y2580491D01*
X19907612Y2561732D01*
X19916853Y2544443D01*
X19929289Y2529289D01*
X20100000Y2358578D01*
X20100000Y2278235D01*
X20118254Y2186466D01*
X20154061Y2100021D01*
X20206044Y2022223D01*
X20272205Y1956062D01*
X20350003Y1904079D01*
X20436448Y1868272D01*
X20528217Y1850018D01*
X20608560Y1850018D01*
X21629289Y829289D01*
X21644443Y816853D01*
X21661732Y807612D01*
X21680491Y801921D01*
X21700000Y800000D01*
X22058578Y800000D01*
X22200000Y658578D01*
X22200000Y400000D01*
X12400000Y400000D01*
X12400000Y6600000D01*
X12398079Y6619509D01*
X12392388Y6638268D01*
X12383147Y6655557D01*
X12370711Y6670711D01*
X12355557Y6683147D01*
X12338268Y6692388D01*
X12319509Y6698079D01*
X12300000Y6700000D01*
X400000Y6700000D01*
X400000Y7289340D01*
X471903Y7217437D01*
X594742Y7135359D01*
X731233Y7078822D01*
X876131Y7050000D01*
X1023869Y7050000D01*
X1168767Y7078822D01*
X1305258Y7135359D01*
X1428097Y7217437D01*
X1532563Y7321903D01*
X1614641Y7444742D01*
X1671178Y7581233D01*
X1700000Y7726131D01*
X1700000Y7873869D01*
X1694802Y7900000D01*
X8300000Y7900000D01*
X8319509Y7901921D01*
X8338268Y7907612D01*
X8355557Y7916853D01*
X8370711Y7929289D01*
X8383147Y7944443D01*
X8392388Y7961732D01*
X8398079Y7980491D01*
X8400000Y8000000D01*
X8400000Y17200000D01*
X22300000Y17200000D01*
X22300000Y13841422D01*
G04 #@! TD*
M02*
