G04 #@! TF.GenerationSoftware,KiCad,Pcbnew,(5.0.1)-4*
G04 #@! TF.CreationDate,2019-05-17T17:50:28+02:00*
G04 #@! TF.ProjectId,nk-LoRa,6E6B2D4C6F52612E6B696361645F7063,R1*
G04 #@! TF.SameCoordinates,PX5f5e100PY5f5e100*
G04 #@! TF.FileFunction,Soldermask,Bot*
G04 #@! TF.FilePolarity,Negative*
%FSLAX46Y46*%
G04 Gerber Fmt 4.6, Leading zero omitted, Abs format (unit mm)*
G04 Created by KiCad (PCBNEW (5.0.1)-4) date 17.05.2019 17:50:28*
%MOMM*%
%LPD*%
G01*
G04 APERTURE LIST*
%ADD10C,0.300000*%
%ADD11C,0.150000*%
%ADD12C,0.100000*%
G04 APERTURE END LIST*
D10*
X22334285Y-1692857D02*
X22548571Y-1764285D01*
X22620000Y-1835714D01*
X22691428Y-1978571D01*
X22691428Y-2192857D01*
X22620000Y-2335714D01*
X22548571Y-2407142D01*
X22405714Y-2478571D01*
X21834285Y-2478571D01*
X21834285Y-978571D01*
X22334285Y-978571D01*
X22477142Y-1050000D01*
X22548571Y-1121428D01*
X22620000Y-1264285D01*
X22620000Y-1407142D01*
X22548571Y-1550000D01*
X22477142Y-1621428D01*
X22334285Y-1692857D01*
X21834285Y-1692857D01*
X23620000Y-978571D02*
X23905714Y-978571D01*
X24048571Y-1050000D01*
X24191428Y-1192857D01*
X24262857Y-1478571D01*
X24262857Y-1978571D01*
X24191428Y-2264285D01*
X24048571Y-2407142D01*
X23905714Y-2478571D01*
X23620000Y-2478571D01*
X23477142Y-2407142D01*
X23334285Y-2264285D01*
X23262857Y-1978571D01*
X23262857Y-1478571D01*
X23334285Y-1192857D01*
X23477142Y-1050000D01*
X23620000Y-978571D01*
X24691428Y-978571D02*
X25548571Y-978571D01*
X25120000Y-2478571D02*
X25120000Y-978571D01*
X27191428Y-2478571D02*
X27191428Y-978571D01*
X27691428Y-2050000D01*
X28191428Y-978571D01*
X28191428Y-2478571D01*
X28834285Y-2050000D02*
X29548571Y-2050000D01*
X28691428Y-2478571D02*
X29191428Y-978571D01*
X29691428Y-2478571D01*
X30120000Y-2407142D02*
X30334285Y-2478571D01*
X30691428Y-2478571D01*
X30834285Y-2407142D01*
X30905714Y-2335714D01*
X30977142Y-2192857D01*
X30977142Y-2050000D01*
X30905714Y-1907142D01*
X30834285Y-1835714D01*
X30691428Y-1764285D01*
X30405714Y-1692857D01*
X30262857Y-1621428D01*
X30191428Y-1550000D01*
X30120000Y-1407142D01*
X30120000Y-1264285D01*
X30191428Y-1121428D01*
X30262857Y-1050000D01*
X30405714Y-978571D01*
X30762857Y-978571D01*
X30977142Y-1050000D01*
X31620000Y-2478571D02*
X31620000Y-978571D01*
X32477142Y-2478571D02*
X31834285Y-1621428D01*
X32477142Y-978571D02*
X31620000Y-1835714D01*
D11*
G04 #@! TO.C,X2*
G36*
X36550580Y2499480D02*
X35950580Y3099480D01*
X35950000Y1300000D01*
X39350000Y1300000D01*
X39350580Y3099480D01*
X38750580Y2499480D01*
X36550580Y2499480D01*
G37*
X36550580Y2499480D02*
X35950580Y3099480D01*
X35950000Y1300000D01*
X39350000Y1300000D01*
X39350580Y3099480D01*
X38750580Y2499480D01*
X36550580Y2499480D01*
G36*
X38750580Y15099000D02*
X39350580Y14499000D01*
X39350000Y16300000D01*
X35950000Y16300000D01*
X35950580Y14499000D01*
X36550580Y15099000D01*
X38750580Y15099000D01*
G37*
X38750580Y15099000D02*
X39350580Y14499000D01*
X39350000Y16300000D01*
X35950000Y16300000D01*
X35950580Y14499000D01*
X36550580Y15099000D01*
X38750580Y15099000D01*
D12*
G36*
X34745845Y1780785D02*
X34836839Y1743094D01*
X34918731Y1688375D01*
X34988375Y1618731D01*
X35043094Y1536839D01*
X35080785Y1445845D01*
X35100000Y1349246D01*
X35100000Y1250754D01*
X35080785Y1154155D01*
X35043094Y1063161D01*
X34988375Y981269D01*
X34918731Y911625D01*
X34836839Y856906D01*
X34745845Y819215D01*
X34649246Y800000D01*
X34550754Y800000D01*
X34454155Y819215D01*
X34363161Y856906D01*
X34281269Y911625D01*
X34211625Y981269D01*
X34156906Y1063161D01*
X34119215Y1154155D01*
X34100000Y1250754D01*
X34100000Y1349246D01*
X34119215Y1445845D01*
X34156906Y1536839D01*
X34211625Y1618731D01*
X34281269Y1688375D01*
X34363161Y1743094D01*
X34454155Y1780785D01*
X34550754Y1800000D01*
X34649246Y1800000D01*
X34745845Y1780785D01*
X34745845Y1780785D01*
G37*
G36*
X32401191Y2016806D02*
X32431185Y2007708D01*
X32458821Y1992936D01*
X32483051Y1973051D01*
X32502936Y1948821D01*
X32517708Y1921185D01*
X32526806Y1891191D01*
X32530000Y1858767D01*
X32530000Y1441233D01*
X32526806Y1408809D01*
X32517708Y1378815D01*
X32502936Y1351179D01*
X32483051Y1326949D01*
X32458821Y1307064D01*
X32431185Y1292292D01*
X32401191Y1283194D01*
X32368767Y1280000D01*
X32001233Y1280000D01*
X31968809Y1283194D01*
X31938815Y1292292D01*
X31911179Y1307064D01*
X31886949Y1326949D01*
X31867064Y1351179D01*
X31852292Y1378815D01*
X31843194Y1408809D01*
X31840000Y1441233D01*
X31840000Y1858767D01*
X31843194Y1891191D01*
X31852292Y1921185D01*
X31867064Y1948821D01*
X31886949Y1973051D01*
X31911179Y1992936D01*
X31938815Y2007708D01*
X31968809Y2016806D01*
X32001233Y2020000D01*
X32368767Y2020000D01*
X32401191Y2016806D01*
X32401191Y2016806D01*
G37*
G36*
X31431191Y2016806D02*
X31461185Y2007708D01*
X31488821Y1992936D01*
X31513051Y1973051D01*
X31532936Y1948821D01*
X31547708Y1921185D01*
X31556806Y1891191D01*
X31560000Y1858767D01*
X31560000Y1441233D01*
X31556806Y1408809D01*
X31547708Y1378815D01*
X31532936Y1351179D01*
X31513051Y1326949D01*
X31488821Y1307064D01*
X31461185Y1292292D01*
X31431191Y1283194D01*
X31398767Y1280000D01*
X31031233Y1280000D01*
X30998809Y1283194D01*
X30968815Y1292292D01*
X30941179Y1307064D01*
X30916949Y1326949D01*
X30897064Y1351179D01*
X30882292Y1378815D01*
X30873194Y1408809D01*
X30870000Y1441233D01*
X30870000Y1858767D01*
X30873194Y1891191D01*
X30882292Y1921185D01*
X30897064Y1948821D01*
X30916949Y1973051D01*
X30941179Y1992936D01*
X30968815Y2007708D01*
X30998809Y2016806D01*
X31031233Y2020000D01*
X31398767Y2020000D01*
X31431191Y2016806D01*
X31431191Y2016806D01*
G37*
G36*
X1045845Y2380785D02*
X1123027Y2348815D01*
X1136839Y2343094D01*
X1211406Y2293270D01*
X1218731Y2288375D01*
X1288375Y2218731D01*
X1343094Y2136839D01*
X1380785Y2045845D01*
X1400000Y1949246D01*
X1400000Y1850754D01*
X1380785Y1754155D01*
X1343094Y1663161D01*
X1288375Y1581269D01*
X1218731Y1511625D01*
X1136839Y1456906D01*
X1045845Y1419215D01*
X949246Y1400000D01*
X850754Y1400000D01*
X754155Y1419215D01*
X663161Y1456906D01*
X581269Y1511625D01*
X511625Y1581269D01*
X456906Y1663161D01*
X419215Y1754155D01*
X400000Y1850754D01*
X400000Y1949246D01*
X419215Y2045845D01*
X456906Y2136839D01*
X511625Y2218731D01*
X581269Y2288375D01*
X588595Y2293270D01*
X663161Y2343094D01*
X676973Y2348815D01*
X754155Y2380785D01*
X850754Y2400000D01*
X949246Y2400000D01*
X1045845Y2380785D01*
X1045845Y2380785D01*
G37*
G36*
X24781191Y2466806D02*
X24811185Y2457708D01*
X24838821Y2442936D01*
X24863051Y2423051D01*
X24882936Y2398821D01*
X24897708Y2371185D01*
X24906806Y2341191D01*
X24910000Y2308767D01*
X24910000Y1891233D01*
X24906806Y1858809D01*
X24897708Y1828815D01*
X24882936Y1801179D01*
X24863051Y1776949D01*
X24838821Y1757064D01*
X24811185Y1742292D01*
X24781191Y1733194D01*
X24748767Y1730000D01*
X24381233Y1730000D01*
X24348809Y1733194D01*
X24318815Y1742292D01*
X24291179Y1757064D01*
X24266949Y1776949D01*
X24247064Y1801179D01*
X24232292Y1828815D01*
X24223194Y1858809D01*
X24220000Y1891233D01*
X24220000Y2308767D01*
X24223194Y2341191D01*
X24232292Y2371185D01*
X24247064Y2398821D01*
X24266949Y2423051D01*
X24291179Y2442936D01*
X24318815Y2457708D01*
X24348809Y2466806D01*
X24381233Y2470000D01*
X24748767Y2470000D01*
X24781191Y2466806D01*
X24781191Y2466806D01*
G37*
G36*
X23501191Y2466806D02*
X23531185Y2457708D01*
X23558821Y2442936D01*
X23583051Y2423051D01*
X23602936Y2398821D01*
X23617708Y2371185D01*
X23626806Y2341191D01*
X23630000Y2308767D01*
X23630000Y1891233D01*
X23626806Y1858809D01*
X23617708Y1828815D01*
X23602936Y1801179D01*
X23583051Y1776949D01*
X23558821Y1757064D01*
X23531185Y1742292D01*
X23501191Y1733194D01*
X23468767Y1730000D01*
X23101233Y1730000D01*
X23068809Y1733194D01*
X23038815Y1742292D01*
X23011179Y1757064D01*
X22986949Y1776949D01*
X22967064Y1801179D01*
X22952292Y1828815D01*
X22943194Y1858809D01*
X22940000Y1891233D01*
X22940000Y2308767D01*
X22943194Y2341191D01*
X22952292Y2371185D01*
X22967064Y2398821D01*
X22986949Y2423051D01*
X23011179Y2442936D01*
X23038815Y2457708D01*
X23068809Y2466806D01*
X23101233Y2470000D01*
X23468767Y2470000D01*
X23501191Y2466806D01*
X23501191Y2466806D01*
G37*
G36*
X22531191Y2466806D02*
X22561185Y2457708D01*
X22588821Y2442936D01*
X22613051Y2423051D01*
X22632936Y2398821D01*
X22647708Y2371185D01*
X22656806Y2341191D01*
X22660000Y2308767D01*
X22660000Y1891233D01*
X22656806Y1858809D01*
X22647708Y1828815D01*
X22632936Y1801179D01*
X22613051Y1776949D01*
X22588821Y1757064D01*
X22561185Y1742292D01*
X22531191Y1733194D01*
X22498767Y1730000D01*
X22131233Y1730000D01*
X22098809Y1733194D01*
X22068815Y1742292D01*
X22041179Y1757064D01*
X22016949Y1776949D01*
X21997064Y1801179D01*
X21982292Y1828815D01*
X21973194Y1858809D01*
X21970000Y1891233D01*
X21970000Y2308767D01*
X21973194Y2341191D01*
X21982292Y2371185D01*
X21997064Y2398821D01*
X22016949Y2423051D01*
X22041179Y2442936D01*
X22068815Y2457708D01*
X22098809Y2466806D01*
X22131233Y2470000D01*
X22498767Y2470000D01*
X22531191Y2466806D01*
X22531191Y2466806D01*
G37*
G36*
X25751191Y2466806D02*
X25781185Y2457708D01*
X25808821Y2442936D01*
X25833051Y2423051D01*
X25852936Y2398821D01*
X25867708Y2371185D01*
X25876806Y2341191D01*
X25880000Y2308767D01*
X25880000Y1891233D01*
X25876806Y1858809D01*
X25867708Y1828815D01*
X25852936Y1801179D01*
X25833051Y1776949D01*
X25808821Y1757064D01*
X25781185Y1742292D01*
X25751191Y1733194D01*
X25718767Y1730000D01*
X25351233Y1730000D01*
X25318809Y1733194D01*
X25288815Y1742292D01*
X25261179Y1757064D01*
X25236949Y1776949D01*
X25217064Y1801179D01*
X25202292Y1828815D01*
X25193194Y1858809D01*
X25190000Y1891233D01*
X25190000Y2308767D01*
X25193194Y2341191D01*
X25202292Y2371185D01*
X25217064Y2398821D01*
X25236949Y2423051D01*
X25261179Y2442936D01*
X25288815Y2457708D01*
X25318809Y2466806D01*
X25351233Y2470000D01*
X25718767Y2470000D01*
X25751191Y2466806D01*
X25751191Y2466806D01*
G37*
G36*
X28841191Y2481806D02*
X28871185Y2472708D01*
X28898821Y2457936D01*
X28923051Y2438051D01*
X28942936Y2413821D01*
X28957708Y2386185D01*
X28966806Y2356191D01*
X28970000Y2323767D01*
X28970000Y1956233D01*
X28966806Y1923809D01*
X28957708Y1893815D01*
X28942936Y1866179D01*
X28923051Y1841949D01*
X28898821Y1822064D01*
X28871185Y1807292D01*
X28841191Y1798194D01*
X28808767Y1795000D01*
X28391233Y1795000D01*
X28358809Y1798194D01*
X28328815Y1807292D01*
X28301179Y1822064D01*
X28276949Y1841949D01*
X28257064Y1866179D01*
X28242292Y1893815D01*
X28233194Y1923809D01*
X28230000Y1956233D01*
X28230000Y2323767D01*
X28233194Y2356191D01*
X28242292Y2386185D01*
X28257064Y2413821D01*
X28276949Y2438051D01*
X28301179Y2457936D01*
X28328815Y2472708D01*
X28358809Y2481806D01*
X28391233Y2485000D01*
X28808767Y2485000D01*
X28841191Y2481806D01*
X28841191Y2481806D01*
G37*
G36*
X20041191Y2681806D02*
X20071185Y2672708D01*
X20098821Y2657936D01*
X20123051Y2638051D01*
X20142936Y2613821D01*
X20157708Y2586185D01*
X20166806Y2556191D01*
X20170000Y2523767D01*
X20170000Y2156233D01*
X20166806Y2123809D01*
X20157708Y2093815D01*
X20142936Y2066179D01*
X20123051Y2041949D01*
X20098821Y2022064D01*
X20071185Y2007292D01*
X20041191Y1998194D01*
X20008767Y1995000D01*
X19591233Y1995000D01*
X19558809Y1998194D01*
X19528815Y2007292D01*
X19501179Y2022064D01*
X19476949Y2041949D01*
X19457064Y2066179D01*
X19442292Y2093815D01*
X19433194Y2123809D01*
X19430000Y2156233D01*
X19430000Y2523767D01*
X19433194Y2556191D01*
X19442292Y2586185D01*
X19457064Y2613821D01*
X19476949Y2638051D01*
X19501179Y2657936D01*
X19528815Y2672708D01*
X19558809Y2681806D01*
X19591233Y2685000D01*
X20008767Y2685000D01*
X20041191Y2681806D01*
X20041191Y2681806D01*
G37*
G36*
X18041191Y2681806D02*
X18071185Y2672708D01*
X18098821Y2657936D01*
X18123051Y2638051D01*
X18142936Y2613821D01*
X18157708Y2586185D01*
X18166806Y2556191D01*
X18170000Y2523767D01*
X18170000Y2156233D01*
X18166806Y2123809D01*
X18157708Y2093815D01*
X18142936Y2066179D01*
X18123051Y2041949D01*
X18098821Y2022064D01*
X18071185Y2007292D01*
X18041191Y1998194D01*
X18008767Y1995000D01*
X17591233Y1995000D01*
X17558809Y1998194D01*
X17528815Y2007292D01*
X17501179Y2022064D01*
X17476949Y2041949D01*
X17457064Y2066179D01*
X17442292Y2093815D01*
X17433194Y2123809D01*
X17430000Y2156233D01*
X17430000Y2523767D01*
X17433194Y2556191D01*
X17442292Y2586185D01*
X17457064Y2613821D01*
X17476949Y2638051D01*
X17501179Y2657936D01*
X17528815Y2672708D01*
X17558809Y2681806D01*
X17591233Y2685000D01*
X18008767Y2685000D01*
X18041191Y2681806D01*
X18041191Y2681806D01*
G37*
G36*
X19041191Y2681806D02*
X19071185Y2672708D01*
X19098821Y2657936D01*
X19123051Y2638051D01*
X19142936Y2613821D01*
X19157708Y2586185D01*
X19166806Y2556191D01*
X19170000Y2523767D01*
X19170000Y2156233D01*
X19166806Y2123809D01*
X19157708Y2093815D01*
X19142936Y2066179D01*
X19123051Y2041949D01*
X19098821Y2022064D01*
X19071185Y2007292D01*
X19041191Y1998194D01*
X19008767Y1995000D01*
X18591233Y1995000D01*
X18558809Y1998194D01*
X18528815Y2007292D01*
X18501179Y2022064D01*
X18476949Y2041949D01*
X18457064Y2066179D01*
X18442292Y2093815D01*
X18433194Y2123809D01*
X18430000Y2156233D01*
X18430000Y2523767D01*
X18433194Y2556191D01*
X18442292Y2586185D01*
X18457064Y2613821D01*
X18476949Y2638051D01*
X18501179Y2657936D01*
X18528815Y2672708D01*
X18558809Y2681806D01*
X18591233Y2685000D01*
X19008767Y2685000D01*
X19041191Y2681806D01*
X19041191Y2681806D01*
G37*
G36*
X33101191Y2986806D02*
X33131185Y2977708D01*
X33158821Y2962936D01*
X33183051Y2943051D01*
X33202936Y2918821D01*
X33217708Y2891185D01*
X33226806Y2861191D01*
X33230000Y2828767D01*
X33230000Y2411233D01*
X33226806Y2378809D01*
X33217708Y2348815D01*
X33202936Y2321179D01*
X33183051Y2296949D01*
X33158821Y2277064D01*
X33131185Y2262292D01*
X33101191Y2253194D01*
X33068767Y2250000D01*
X32701233Y2250000D01*
X32668809Y2253194D01*
X32638815Y2262292D01*
X32611179Y2277064D01*
X32586949Y2296949D01*
X32567064Y2321179D01*
X32552292Y2348815D01*
X32543194Y2378809D01*
X32540000Y2411233D01*
X32540000Y2828767D01*
X32543194Y2861191D01*
X32552292Y2891185D01*
X32567064Y2918821D01*
X32586949Y2943051D01*
X32611179Y2962936D01*
X32638815Y2977708D01*
X32668809Y2986806D01*
X32701233Y2990000D01*
X33068767Y2990000D01*
X33101191Y2986806D01*
X33101191Y2986806D01*
G37*
G36*
X34071191Y2986806D02*
X34101185Y2977708D01*
X34128821Y2962936D01*
X34153051Y2943051D01*
X34172936Y2918821D01*
X34187708Y2891185D01*
X34196806Y2861191D01*
X34200000Y2828767D01*
X34200000Y2411233D01*
X34196806Y2378809D01*
X34187708Y2348815D01*
X34172936Y2321179D01*
X34153051Y2296949D01*
X34128821Y2277064D01*
X34101185Y2262292D01*
X34071191Y2253194D01*
X34038767Y2250000D01*
X33671233Y2250000D01*
X33638809Y2253194D01*
X33608815Y2262292D01*
X33581179Y2277064D01*
X33556949Y2296949D01*
X33537064Y2321179D01*
X33522292Y2348815D01*
X33513194Y2378809D01*
X33510000Y2411233D01*
X33510000Y2828767D01*
X33513194Y2861191D01*
X33522292Y2891185D01*
X33537064Y2918821D01*
X33556949Y2943051D01*
X33581179Y2962936D01*
X33608815Y2977708D01*
X33638809Y2986806D01*
X33671233Y2990000D01*
X34038767Y2990000D01*
X34071191Y2986806D01*
X34071191Y2986806D01*
G37*
G36*
X38794609Y3882826D02*
X38945517Y3837048D01*
X39084595Y3762710D01*
X39206497Y3662667D01*
X39306540Y3540765D01*
X39380878Y3401687D01*
X39426656Y3250779D01*
X39442113Y3093840D01*
X39426656Y2936901D01*
X39380878Y2785993D01*
X39306540Y2646915D01*
X39206497Y2525013D01*
X39084595Y2424970D01*
X38945517Y2350632D01*
X38794609Y2304854D01*
X38676994Y2293270D01*
X36599366Y2293270D01*
X36481751Y2304854D01*
X36330843Y2350632D01*
X36191765Y2424970D01*
X36069863Y2525013D01*
X35969820Y2646915D01*
X35895482Y2785993D01*
X35849704Y2936901D01*
X35834247Y3093840D01*
X35849704Y3250779D01*
X35895482Y3401687D01*
X35969820Y3540765D01*
X36069863Y3662667D01*
X36191765Y3762710D01*
X36330843Y3837048D01*
X36481751Y3882826D01*
X36599366Y3894410D01*
X38676994Y3894410D01*
X38794609Y3882826D01*
X38794609Y3882826D01*
G37*
G36*
X28841191Y3451806D02*
X28871185Y3442708D01*
X28898821Y3427936D01*
X28923051Y3408051D01*
X28942936Y3383821D01*
X28957708Y3356185D01*
X28966806Y3326191D01*
X28970000Y3293767D01*
X28970000Y2926233D01*
X28966806Y2893809D01*
X28957708Y2863815D01*
X28942936Y2836179D01*
X28923051Y2811949D01*
X28898821Y2792064D01*
X28871185Y2777292D01*
X28841191Y2768194D01*
X28808767Y2765000D01*
X28391233Y2765000D01*
X28358809Y2768194D01*
X28328815Y2777292D01*
X28301179Y2792064D01*
X28276949Y2811949D01*
X28257064Y2836179D01*
X28242292Y2863815D01*
X28233194Y2893809D01*
X28230000Y2926233D01*
X28230000Y3293767D01*
X28233194Y3326191D01*
X28242292Y3356185D01*
X28257064Y3383821D01*
X28276949Y3408051D01*
X28301179Y3427936D01*
X28328815Y3442708D01*
X28358809Y3451806D01*
X28391233Y3455000D01*
X28808767Y3455000D01*
X28841191Y3451806D01*
X28841191Y3451806D01*
G37*
G36*
X21816191Y3506806D02*
X21846185Y3497708D01*
X21873821Y3482936D01*
X21898051Y3463051D01*
X21917936Y3438821D01*
X21932708Y3411185D01*
X21941806Y3381191D01*
X21945000Y3348767D01*
X21945000Y2981233D01*
X21941806Y2948809D01*
X21932708Y2918815D01*
X21917936Y2891179D01*
X21898051Y2866949D01*
X21873821Y2847064D01*
X21846185Y2832292D01*
X21816191Y2823194D01*
X21783767Y2820000D01*
X21366233Y2820000D01*
X21333809Y2823194D01*
X21303815Y2832292D01*
X21276179Y2847064D01*
X21251949Y2866949D01*
X21232064Y2891179D01*
X21217292Y2918815D01*
X21208194Y2948809D01*
X21205000Y2981233D01*
X21205000Y3348767D01*
X21208194Y3381191D01*
X21217292Y3411185D01*
X21232064Y3438821D01*
X21251949Y3463051D01*
X21276179Y3482936D01*
X21303815Y3497708D01*
X21333809Y3506806D01*
X21366233Y3510000D01*
X21783767Y3510000D01*
X21816191Y3506806D01*
X21816191Y3506806D01*
G37*
G36*
X19041191Y3651806D02*
X19071185Y3642708D01*
X19098821Y3627936D01*
X19123051Y3608051D01*
X19142936Y3583821D01*
X19157708Y3556185D01*
X19166806Y3526191D01*
X19170000Y3493767D01*
X19170000Y3126233D01*
X19166806Y3093809D01*
X19157708Y3063815D01*
X19142936Y3036179D01*
X19123051Y3011949D01*
X19098821Y2992064D01*
X19071185Y2977292D01*
X19041191Y2968194D01*
X19008767Y2965000D01*
X18591233Y2965000D01*
X18558809Y2968194D01*
X18528815Y2977292D01*
X18501179Y2992064D01*
X18476949Y3011949D01*
X18457064Y3036179D01*
X18442292Y3063815D01*
X18433194Y3093809D01*
X18430000Y3126233D01*
X18430000Y3493767D01*
X18433194Y3526191D01*
X18442292Y3556185D01*
X18457064Y3583821D01*
X18476949Y3608051D01*
X18501179Y3627936D01*
X18528815Y3642708D01*
X18558809Y3651806D01*
X18591233Y3655000D01*
X19008767Y3655000D01*
X19041191Y3651806D01*
X19041191Y3651806D01*
G37*
G36*
X20041191Y3651806D02*
X20071185Y3642708D01*
X20098821Y3627936D01*
X20123051Y3608051D01*
X20142936Y3583821D01*
X20157708Y3556185D01*
X20166806Y3526191D01*
X20170000Y3493767D01*
X20170000Y3126233D01*
X20166806Y3093809D01*
X20157708Y3063815D01*
X20142936Y3036179D01*
X20123051Y3011949D01*
X20098821Y2992064D01*
X20071185Y2977292D01*
X20041191Y2968194D01*
X20008767Y2965000D01*
X19591233Y2965000D01*
X19558809Y2968194D01*
X19528815Y2977292D01*
X19501179Y2992064D01*
X19476949Y3011949D01*
X19457064Y3036179D01*
X19442292Y3063815D01*
X19433194Y3093809D01*
X19430000Y3126233D01*
X19430000Y3493767D01*
X19433194Y3526191D01*
X19442292Y3556185D01*
X19457064Y3583821D01*
X19476949Y3608051D01*
X19501179Y3627936D01*
X19528815Y3642708D01*
X19558809Y3651806D01*
X19591233Y3655000D01*
X20008767Y3655000D01*
X20041191Y3651806D01*
X20041191Y3651806D01*
G37*
G36*
X18041191Y3651806D02*
X18071185Y3642708D01*
X18098821Y3627936D01*
X18123051Y3608051D01*
X18142936Y3583821D01*
X18157708Y3556185D01*
X18166806Y3526191D01*
X18170000Y3493767D01*
X18170000Y3126233D01*
X18166806Y3093809D01*
X18157708Y3063815D01*
X18142936Y3036179D01*
X18123051Y3011949D01*
X18098821Y2992064D01*
X18071185Y2977292D01*
X18041191Y2968194D01*
X18008767Y2965000D01*
X17591233Y2965000D01*
X17558809Y2968194D01*
X17528815Y2977292D01*
X17501179Y2992064D01*
X17476949Y3011949D01*
X17457064Y3036179D01*
X17442292Y3063815D01*
X17433194Y3093809D01*
X17430000Y3126233D01*
X17430000Y3493767D01*
X17433194Y3526191D01*
X17442292Y3556185D01*
X17457064Y3583821D01*
X17476949Y3608051D01*
X17501179Y3627936D01*
X17528815Y3642708D01*
X17558809Y3651806D01*
X17591233Y3655000D01*
X18008767Y3655000D01*
X18041191Y3651806D01*
X18041191Y3651806D01*
G37*
G36*
X34071191Y3976806D02*
X34101185Y3967708D01*
X34128821Y3952936D01*
X34153051Y3933051D01*
X34172936Y3908821D01*
X34187708Y3881185D01*
X34196806Y3851191D01*
X34200000Y3818767D01*
X34200000Y3401233D01*
X34196806Y3368809D01*
X34187708Y3338815D01*
X34172936Y3311179D01*
X34153051Y3286949D01*
X34128821Y3267064D01*
X34101185Y3252292D01*
X34071191Y3243194D01*
X34038767Y3240000D01*
X33671233Y3240000D01*
X33638809Y3243194D01*
X33608815Y3252292D01*
X33581179Y3267064D01*
X33556949Y3286949D01*
X33537064Y3311179D01*
X33522292Y3338815D01*
X33513194Y3368809D01*
X33510000Y3401233D01*
X33510000Y3818767D01*
X33513194Y3851191D01*
X33522292Y3881185D01*
X33537064Y3908821D01*
X33556949Y3933051D01*
X33581179Y3952936D01*
X33608815Y3967708D01*
X33638809Y3976806D01*
X33671233Y3980000D01*
X34038767Y3980000D01*
X34071191Y3976806D01*
X34071191Y3976806D01*
G37*
G36*
X33101191Y3976806D02*
X33131185Y3967708D01*
X33158821Y3952936D01*
X33183051Y3933051D01*
X33202936Y3908821D01*
X33217708Y3881185D01*
X33226806Y3851191D01*
X33230000Y3818767D01*
X33230000Y3401233D01*
X33226806Y3368809D01*
X33217708Y3338815D01*
X33202936Y3311179D01*
X33183051Y3286949D01*
X33158821Y3267064D01*
X33131185Y3252292D01*
X33101191Y3243194D01*
X33068767Y3240000D01*
X32701233Y3240000D01*
X32668809Y3243194D01*
X32638815Y3252292D01*
X32611179Y3267064D01*
X32586949Y3286949D01*
X32567064Y3311179D01*
X32552292Y3338815D01*
X32543194Y3368809D01*
X32540000Y3401233D01*
X32540000Y3818767D01*
X32543194Y3851191D01*
X32552292Y3881185D01*
X32567064Y3908821D01*
X32586949Y3933051D01*
X32611179Y3952936D01*
X32638815Y3967708D01*
X32668809Y3976806D01*
X32701233Y3980000D01*
X33068767Y3980000D01*
X33101191Y3976806D01*
X33101191Y3976806D01*
G37*
G36*
X26766191Y3956806D02*
X26796185Y3947708D01*
X26823821Y3932936D01*
X26848051Y3913051D01*
X26867936Y3888821D01*
X26882708Y3861185D01*
X26891806Y3831191D01*
X26895000Y3798767D01*
X26895000Y3431233D01*
X26891806Y3398809D01*
X26882708Y3368815D01*
X26867936Y3341179D01*
X26848051Y3316949D01*
X26823821Y3297064D01*
X26796185Y3282292D01*
X26766191Y3273194D01*
X26733767Y3270000D01*
X26316233Y3270000D01*
X26283809Y3273194D01*
X26253815Y3282292D01*
X26226179Y3297064D01*
X26201949Y3316949D01*
X26182064Y3341179D01*
X26167292Y3368815D01*
X26158194Y3398809D01*
X26155000Y3431233D01*
X26155000Y3798767D01*
X26158194Y3831191D01*
X26167292Y3861185D01*
X26182064Y3888821D01*
X26201949Y3913051D01*
X26226179Y3932936D01*
X26253815Y3947708D01*
X26283809Y3956806D01*
X26316233Y3960000D01*
X26733767Y3960000D01*
X26766191Y3956806D01*
X26766191Y3956806D01*
G37*
G36*
X29791191Y4106806D02*
X29821185Y4097708D01*
X29848821Y4082936D01*
X29873051Y4063051D01*
X29892936Y4038821D01*
X29907708Y4011185D01*
X29916806Y3981191D01*
X29920000Y3948767D01*
X29920000Y3581233D01*
X29916806Y3548809D01*
X29907708Y3518815D01*
X29892936Y3491179D01*
X29873051Y3466949D01*
X29848821Y3447064D01*
X29821185Y3432292D01*
X29791191Y3423194D01*
X29758767Y3420000D01*
X29341233Y3420000D01*
X29308809Y3423194D01*
X29278815Y3432292D01*
X29251179Y3447064D01*
X29226949Y3466949D01*
X29207064Y3491179D01*
X29192292Y3518815D01*
X29183194Y3548809D01*
X29180000Y3581233D01*
X29180000Y3948767D01*
X29183194Y3981191D01*
X29192292Y4011185D01*
X29207064Y4038821D01*
X29226949Y4063051D01*
X29251179Y4082936D01*
X29278815Y4097708D01*
X29308809Y4106806D01*
X29341233Y4110000D01*
X29758767Y4110000D01*
X29791191Y4106806D01*
X29791191Y4106806D01*
G37*
G36*
X21816191Y4476806D02*
X21846185Y4467708D01*
X21873821Y4452936D01*
X21898051Y4433051D01*
X21917936Y4408821D01*
X21932708Y4381185D01*
X21941806Y4351191D01*
X21945000Y4318767D01*
X21945000Y3951233D01*
X21941806Y3918809D01*
X21932708Y3888815D01*
X21917936Y3861179D01*
X21898051Y3836949D01*
X21873821Y3817064D01*
X21846185Y3802292D01*
X21816191Y3793194D01*
X21783767Y3790000D01*
X21366233Y3790000D01*
X21333809Y3793194D01*
X21303815Y3802292D01*
X21276179Y3817064D01*
X21251949Y3836949D01*
X21232064Y3861179D01*
X21217292Y3888815D01*
X21208194Y3918809D01*
X21205000Y3951233D01*
X21205000Y4318767D01*
X21208194Y4351191D01*
X21217292Y4381185D01*
X21232064Y4408821D01*
X21251949Y4433051D01*
X21276179Y4452936D01*
X21303815Y4467708D01*
X21333809Y4476806D01*
X21366233Y4480000D01*
X21783767Y4480000D01*
X21816191Y4476806D01*
X21816191Y4476806D01*
G37*
G36*
X39345845Y4880785D02*
X39423042Y4848809D01*
X39436839Y4843094D01*
X39518730Y4788376D01*
X39588376Y4718730D01*
X39612723Y4682292D01*
X39643094Y4636839D01*
X39680785Y4545845D01*
X39700000Y4449246D01*
X39700000Y4350754D01*
X39680785Y4254155D01*
X39643094Y4163161D01*
X39588376Y4081270D01*
X39518730Y4011624D01*
X39506591Y4003513D01*
X39436839Y3956906D01*
X39345845Y3919215D01*
X39249246Y3900000D01*
X39150754Y3900000D01*
X39054155Y3919215D01*
X38963161Y3956906D01*
X38893409Y4003513D01*
X38881270Y4011624D01*
X38811624Y4081270D01*
X38756906Y4163161D01*
X38719215Y4254155D01*
X38700000Y4350754D01*
X38700000Y4449246D01*
X38719215Y4545845D01*
X38756906Y4636839D01*
X38787277Y4682292D01*
X38811624Y4718730D01*
X38881270Y4788376D01*
X38963161Y4843094D01*
X38976958Y4848809D01*
X39054155Y4880785D01*
X39150754Y4900000D01*
X39249246Y4900000D01*
X39345845Y4880785D01*
X39345845Y4880785D01*
G37*
G36*
X20201191Y4666806D02*
X20231185Y4657708D01*
X20258821Y4642936D01*
X20283051Y4623051D01*
X20302936Y4598821D01*
X20317708Y4571185D01*
X20326806Y4541191D01*
X20330000Y4508767D01*
X20330000Y4091233D01*
X20326806Y4058809D01*
X20317708Y4028815D01*
X20302936Y4001179D01*
X20283051Y3976949D01*
X20258821Y3957064D01*
X20231185Y3942292D01*
X20201191Y3933194D01*
X20168767Y3930000D01*
X19801233Y3930000D01*
X19768809Y3933194D01*
X19738815Y3942292D01*
X19711179Y3957064D01*
X19686949Y3976949D01*
X19667064Y4001179D01*
X19652292Y4028815D01*
X19643194Y4058809D01*
X19640000Y4091233D01*
X19640000Y4508767D01*
X19643194Y4541191D01*
X19652292Y4571185D01*
X19667064Y4598821D01*
X19686949Y4623051D01*
X19711179Y4642936D01*
X19738815Y4657708D01*
X19768809Y4666806D01*
X19801233Y4670000D01*
X20168767Y4670000D01*
X20201191Y4666806D01*
X20201191Y4666806D01*
G37*
G36*
X19231191Y4666806D02*
X19261185Y4657708D01*
X19288821Y4642936D01*
X19313051Y4623051D01*
X19332936Y4598821D01*
X19347708Y4571185D01*
X19356806Y4541191D01*
X19360000Y4508767D01*
X19360000Y4091233D01*
X19356806Y4058809D01*
X19347708Y4028815D01*
X19332936Y4001179D01*
X19313051Y3976949D01*
X19288821Y3957064D01*
X19261185Y3942292D01*
X19231191Y3933194D01*
X19198767Y3930000D01*
X18831233Y3930000D01*
X18798809Y3933194D01*
X18768815Y3942292D01*
X18741179Y3957064D01*
X18716949Y3976949D01*
X18697064Y4001179D01*
X18682292Y4028815D01*
X18673194Y4058809D01*
X18670000Y4091233D01*
X18670000Y4508767D01*
X18673194Y4541191D01*
X18682292Y4571185D01*
X18697064Y4598821D01*
X18716949Y4623051D01*
X18741179Y4642936D01*
X18768815Y4657708D01*
X18798809Y4666806D01*
X18831233Y4670000D01*
X19198767Y4670000D01*
X19231191Y4666806D01*
X19231191Y4666806D01*
G37*
G36*
X37882520Y5855414D02*
X38046310Y5787570D01*
X38193717Y5689076D01*
X38319076Y5563717D01*
X38417570Y5416310D01*
X38485414Y5252520D01*
X38520000Y5078642D01*
X38520000Y4901358D01*
X38485414Y4727480D01*
X38417570Y4563690D01*
X38319076Y4416283D01*
X38193717Y4290924D01*
X38046310Y4192430D01*
X37882520Y4124586D01*
X37708642Y4090000D01*
X37531358Y4090000D01*
X37357480Y4124586D01*
X37193690Y4192430D01*
X37046283Y4290924D01*
X36920924Y4416283D01*
X36822430Y4563690D01*
X36754586Y4727480D01*
X36720000Y4901358D01*
X36720000Y5078642D01*
X36754586Y5252520D01*
X36822430Y5416310D01*
X36920924Y5563717D01*
X37046283Y5689076D01*
X37193690Y5787570D01*
X37357480Y5855414D01*
X37531358Y5890000D01*
X37708642Y5890000D01*
X37882520Y5855414D01*
X37882520Y5855414D01*
G37*
G36*
X26766191Y4926806D02*
X26796185Y4917708D01*
X26823821Y4902936D01*
X26848051Y4883051D01*
X26867936Y4858821D01*
X26882708Y4831185D01*
X26891806Y4801191D01*
X26895000Y4768767D01*
X26895000Y4401233D01*
X26891806Y4368809D01*
X26882708Y4338815D01*
X26867936Y4311179D01*
X26848051Y4286949D01*
X26823821Y4267064D01*
X26796185Y4252292D01*
X26766191Y4243194D01*
X26733767Y4240000D01*
X26316233Y4240000D01*
X26283809Y4243194D01*
X26253815Y4252292D01*
X26226179Y4267064D01*
X26201949Y4286949D01*
X26182064Y4311179D01*
X26167292Y4338815D01*
X26158194Y4368809D01*
X26155000Y4401233D01*
X26155000Y4768767D01*
X26158194Y4801191D01*
X26167292Y4831185D01*
X26182064Y4858821D01*
X26201949Y4883051D01*
X26226179Y4902936D01*
X26253815Y4917708D01*
X26283809Y4926806D01*
X26316233Y4930000D01*
X26733767Y4930000D01*
X26766191Y4926806D01*
X26766191Y4926806D01*
G37*
G36*
X30841191Y4956806D02*
X30871185Y4947708D01*
X30898821Y4932936D01*
X30923051Y4913051D01*
X30942936Y4888821D01*
X30957708Y4861185D01*
X30966806Y4831191D01*
X30970000Y4798767D01*
X30970000Y4431233D01*
X30966806Y4398809D01*
X30957708Y4368815D01*
X30942936Y4341179D01*
X30923051Y4316949D01*
X30898821Y4297064D01*
X30871185Y4282292D01*
X30841191Y4273194D01*
X30808767Y4270000D01*
X30391233Y4270000D01*
X30358809Y4273194D01*
X30328815Y4282292D01*
X30301179Y4297064D01*
X30276949Y4316949D01*
X30257064Y4341179D01*
X30242292Y4368815D01*
X30233194Y4398809D01*
X30230000Y4431233D01*
X30230000Y4798767D01*
X30233194Y4831191D01*
X30242292Y4861185D01*
X30257064Y4888821D01*
X30276949Y4913051D01*
X30301179Y4932936D01*
X30328815Y4947708D01*
X30358809Y4956806D01*
X30391233Y4960000D01*
X30808767Y4960000D01*
X30841191Y4956806D01*
X30841191Y4956806D01*
G37*
G36*
X32700000Y4325000D02*
X32200000Y4325000D01*
X32200000Y5075000D01*
X32700000Y5075000D01*
X32700000Y4325000D01*
X32700000Y4325000D01*
G37*
G36*
X32050000Y4325000D02*
X31550000Y4325000D01*
X31550000Y5075000D01*
X32050000Y5075000D01*
X32050000Y4325000D01*
X32050000Y4325000D01*
G37*
G36*
X33350000Y4325000D02*
X32850000Y4325000D01*
X32850000Y5075000D01*
X33350000Y5075000D01*
X33350000Y4325000D01*
X33350000Y4325000D01*
G37*
G36*
X29791191Y5076806D02*
X29821185Y5067708D01*
X29848821Y5052936D01*
X29873051Y5033051D01*
X29892936Y5008821D01*
X29907708Y4981185D01*
X29916806Y4951191D01*
X29920000Y4918767D01*
X29920000Y4551233D01*
X29916806Y4518809D01*
X29907708Y4488815D01*
X29892936Y4461179D01*
X29873051Y4436949D01*
X29848821Y4417064D01*
X29821185Y4402292D01*
X29791191Y4393194D01*
X29758767Y4390000D01*
X29341233Y4390000D01*
X29308809Y4393194D01*
X29278815Y4402292D01*
X29251179Y4417064D01*
X29226949Y4436949D01*
X29207064Y4461179D01*
X29192292Y4488815D01*
X29183194Y4518809D01*
X29180000Y4551233D01*
X29180000Y4918767D01*
X29183194Y4951191D01*
X29192292Y4981185D01*
X29207064Y5008821D01*
X29226949Y5033051D01*
X29251179Y5052936D01*
X29278815Y5067708D01*
X29308809Y5076806D01*
X29341233Y5080000D01*
X29758767Y5080000D01*
X29791191Y5076806D01*
X29791191Y5076806D01*
G37*
G36*
X34691191Y5356806D02*
X34721185Y5347708D01*
X34748821Y5332936D01*
X34773051Y5313051D01*
X34792936Y5288821D01*
X34807708Y5261185D01*
X34816806Y5231191D01*
X34820000Y5198767D01*
X34820000Y4831233D01*
X34816806Y4798809D01*
X34807708Y4768815D01*
X34792936Y4741179D01*
X34773051Y4716949D01*
X34748821Y4697064D01*
X34721185Y4682292D01*
X34691191Y4673194D01*
X34658767Y4670000D01*
X34241233Y4670000D01*
X34208809Y4673194D01*
X34178815Y4682292D01*
X34151179Y4697064D01*
X34126949Y4716949D01*
X34107064Y4741179D01*
X34092292Y4768815D01*
X34083194Y4798809D01*
X34080000Y4831233D01*
X34080000Y5198767D01*
X34083194Y5231191D01*
X34092292Y5261185D01*
X34107064Y5288821D01*
X34126949Y5313051D01*
X34151179Y5332936D01*
X34178815Y5347708D01*
X34208809Y5356806D01*
X34241233Y5360000D01*
X34658767Y5360000D01*
X34691191Y5356806D01*
X34691191Y5356806D01*
G37*
G36*
X21816191Y5406806D02*
X21846185Y5397708D01*
X21873821Y5382936D01*
X21898051Y5363051D01*
X21917936Y5338821D01*
X21932708Y5311185D01*
X21941806Y5281191D01*
X21945000Y5248767D01*
X21945000Y4881233D01*
X21941806Y4848809D01*
X21932708Y4818815D01*
X21917936Y4791179D01*
X21898051Y4766949D01*
X21873821Y4747064D01*
X21846185Y4732292D01*
X21816191Y4723194D01*
X21783767Y4720000D01*
X21366233Y4720000D01*
X21333809Y4723194D01*
X21303815Y4732292D01*
X21276179Y4747064D01*
X21251949Y4766949D01*
X21232064Y4791179D01*
X21217292Y4818815D01*
X21208194Y4848809D01*
X21205000Y4881233D01*
X21205000Y5248767D01*
X21208194Y5281191D01*
X21217292Y5311185D01*
X21232064Y5338821D01*
X21251949Y5363051D01*
X21276179Y5382936D01*
X21303815Y5397708D01*
X21333809Y5406806D01*
X21366233Y5410000D01*
X21783767Y5410000D01*
X21816191Y5406806D01*
X21816191Y5406806D01*
G37*
G36*
X30841191Y5926806D02*
X30871185Y5917708D01*
X30898821Y5902936D01*
X30923051Y5883051D01*
X30942936Y5858821D01*
X30957708Y5831185D01*
X30966806Y5801191D01*
X30970000Y5768767D01*
X30970000Y5401233D01*
X30966806Y5368809D01*
X30957708Y5338815D01*
X30942936Y5311179D01*
X30923051Y5286949D01*
X30898821Y5267064D01*
X30871185Y5252292D01*
X30841191Y5243194D01*
X30808767Y5240000D01*
X30391233Y5240000D01*
X30358809Y5243194D01*
X30328815Y5252292D01*
X30301179Y5267064D01*
X30276949Y5286949D01*
X30257064Y5311179D01*
X30242292Y5338815D01*
X30233194Y5368809D01*
X30230000Y5401233D01*
X30230000Y5768767D01*
X30233194Y5801191D01*
X30242292Y5831185D01*
X30257064Y5858821D01*
X30276949Y5883051D01*
X30301179Y5902936D01*
X30328815Y5917708D01*
X30358809Y5926806D01*
X30391233Y5930000D01*
X30808767Y5930000D01*
X30841191Y5926806D01*
X30841191Y5926806D01*
G37*
G36*
X34691191Y6326806D02*
X34721185Y6317708D01*
X34748821Y6302936D01*
X34773051Y6283051D01*
X34792936Y6258821D01*
X34807708Y6231185D01*
X34816806Y6201191D01*
X34820000Y6168767D01*
X34820000Y5801233D01*
X34816806Y5768809D01*
X34807708Y5738815D01*
X34792936Y5711179D01*
X34773051Y5686949D01*
X34748821Y5667064D01*
X34721185Y5652292D01*
X34691191Y5643194D01*
X34658767Y5640000D01*
X34241233Y5640000D01*
X34208809Y5643194D01*
X34178815Y5652292D01*
X34151179Y5667064D01*
X34126949Y5686949D01*
X34107064Y5711179D01*
X34092292Y5738815D01*
X34083194Y5768809D01*
X34080000Y5801233D01*
X34080000Y6168767D01*
X34083194Y6201191D01*
X34092292Y6231185D01*
X34107064Y6258821D01*
X34126949Y6283051D01*
X34151179Y6302936D01*
X34178815Y6317708D01*
X34208809Y6326806D01*
X34241233Y6330000D01*
X34658767Y6330000D01*
X34691191Y6326806D01*
X34691191Y6326806D01*
G37*
G36*
X21816191Y6376806D02*
X21846185Y6367708D01*
X21873821Y6352936D01*
X21898051Y6333051D01*
X21917936Y6308821D01*
X21932708Y6281185D01*
X21941806Y6251191D01*
X21945000Y6218767D01*
X21945000Y5851233D01*
X21941806Y5818809D01*
X21932708Y5788815D01*
X21917936Y5761179D01*
X21898051Y5736949D01*
X21873821Y5717064D01*
X21846185Y5702292D01*
X21816191Y5693194D01*
X21783767Y5690000D01*
X21366233Y5690000D01*
X21333809Y5693194D01*
X21303815Y5702292D01*
X21276179Y5717064D01*
X21251949Y5736949D01*
X21232064Y5761179D01*
X21217292Y5788815D01*
X21208194Y5818809D01*
X21205000Y5851233D01*
X21205000Y6218767D01*
X21208194Y6251191D01*
X21217292Y6281185D01*
X21232064Y6308821D01*
X21251949Y6333051D01*
X21276179Y6352936D01*
X21303815Y6367708D01*
X21333809Y6376806D01*
X21366233Y6380000D01*
X21783767Y6380000D01*
X21816191Y6376806D01*
X21816191Y6376806D01*
G37*
G36*
X28256191Y6441806D02*
X28286185Y6432708D01*
X28313821Y6417936D01*
X28338051Y6398051D01*
X28357936Y6373821D01*
X28372708Y6346185D01*
X28381806Y6316191D01*
X28385000Y6283767D01*
X28385000Y5866233D01*
X28381806Y5833809D01*
X28372708Y5803815D01*
X28357936Y5776179D01*
X28338051Y5751949D01*
X28313821Y5732064D01*
X28286185Y5717292D01*
X28256191Y5708194D01*
X28223767Y5705000D01*
X27856233Y5705000D01*
X27823809Y5708194D01*
X27793815Y5717292D01*
X27766179Y5732064D01*
X27741949Y5751949D01*
X27722064Y5776179D01*
X27707292Y5803815D01*
X27698194Y5833809D01*
X27695000Y5866233D01*
X27695000Y6283767D01*
X27698194Y6316191D01*
X27707292Y6346185D01*
X27722064Y6373821D01*
X27741949Y6398051D01*
X27766179Y6417936D01*
X27793815Y6432708D01*
X27823809Y6441806D01*
X27856233Y6445000D01*
X28223767Y6445000D01*
X28256191Y6441806D01*
X28256191Y6441806D01*
G37*
G36*
X29226191Y6441806D02*
X29256185Y6432708D01*
X29283821Y6417936D01*
X29308051Y6398051D01*
X29327936Y6373821D01*
X29342708Y6346185D01*
X29351806Y6316191D01*
X29355000Y6283767D01*
X29355000Y5866233D01*
X29351806Y5833809D01*
X29342708Y5803815D01*
X29327936Y5776179D01*
X29308051Y5751949D01*
X29283821Y5732064D01*
X29256185Y5717292D01*
X29226191Y5708194D01*
X29193767Y5705000D01*
X28826233Y5705000D01*
X28793809Y5708194D01*
X28763815Y5717292D01*
X28736179Y5732064D01*
X28711949Y5751949D01*
X28692064Y5776179D01*
X28677292Y5803815D01*
X28668194Y5833809D01*
X28665000Y5866233D01*
X28665000Y6283767D01*
X28668194Y6316191D01*
X28677292Y6346185D01*
X28692064Y6373821D01*
X28711949Y6398051D01*
X28736179Y6417936D01*
X28763815Y6432708D01*
X28793809Y6441806D01*
X28826233Y6445000D01*
X29193767Y6445000D01*
X29226191Y6441806D01*
X29226191Y6441806D01*
G37*
G36*
X37813167Y7120016D02*
X37922344Y7074794D01*
X38020601Y7009141D01*
X38104161Y6925581D01*
X38169814Y6827324D01*
X38215036Y6718147D01*
X38238090Y6602246D01*
X38238090Y6484074D01*
X38215036Y6368173D01*
X38169814Y6258996D01*
X38104161Y6160739D01*
X38020601Y6077179D01*
X37922344Y6011526D01*
X37813167Y5966304D01*
X37697266Y5943250D01*
X37579094Y5943250D01*
X37463193Y5966304D01*
X37354016Y6011526D01*
X37255759Y6077179D01*
X37172199Y6160739D01*
X37106546Y6258996D01*
X37061324Y6368173D01*
X37038270Y6484074D01*
X37038270Y6602246D01*
X37061324Y6718147D01*
X37106546Y6827324D01*
X37172199Y6925581D01*
X37255759Y7009141D01*
X37354016Y7074794D01*
X37463193Y7120016D01*
X37579094Y7143070D01*
X37697266Y7143070D01*
X37813167Y7120016D01*
X37813167Y7120016D01*
G37*
G36*
X33350000Y6225000D02*
X32850000Y6225000D01*
X32850000Y6975000D01*
X33350000Y6975000D01*
X33350000Y6225000D01*
X33350000Y6225000D01*
G37*
G36*
X32050000Y6225000D02*
X31550000Y6225000D01*
X31550000Y6975000D01*
X32050000Y6975000D01*
X32050000Y6225000D01*
X32050000Y6225000D01*
G37*
G36*
X32700000Y6225000D02*
X32200000Y6225000D01*
X32200000Y6975000D01*
X32700000Y6975000D01*
X32700000Y6225000D01*
X32700000Y6225000D01*
G37*
G36*
X36622520Y8395414D02*
X36786310Y8327570D01*
X36933717Y8229076D01*
X37059076Y8103717D01*
X37157570Y7956310D01*
X37225414Y7792520D01*
X37260000Y7618642D01*
X37260000Y7441358D01*
X37225414Y7267480D01*
X37157570Y7103690D01*
X37059076Y6956283D01*
X36933717Y6830924D01*
X36786310Y6732430D01*
X36622520Y6664586D01*
X36448642Y6630000D01*
X36271358Y6630000D01*
X36097480Y6664586D01*
X35933690Y6732430D01*
X35786283Y6830924D01*
X35660924Y6956283D01*
X35562430Y7103690D01*
X35494586Y7267480D01*
X35460000Y7441358D01*
X35460000Y7618642D01*
X35494586Y7792520D01*
X35562430Y7956310D01*
X35660924Y8103717D01*
X35786283Y8229076D01*
X35933690Y8327570D01*
X36097480Y8395414D01*
X36271358Y8430000D01*
X36448642Y8430000D01*
X36622520Y8395414D01*
X36622520Y8395414D01*
G37*
G36*
X39162520Y8415414D02*
X39326310Y8347570D01*
X39473717Y8249076D01*
X39599076Y8123717D01*
X39697570Y7976310D01*
X39765414Y7812520D01*
X39800000Y7638642D01*
X39800000Y7461358D01*
X39765414Y7287480D01*
X39697570Y7123690D01*
X39599076Y6976283D01*
X39473717Y6850924D01*
X39326310Y6752430D01*
X39162520Y6684586D01*
X38988642Y6650000D01*
X38811358Y6650000D01*
X38637480Y6684586D01*
X38473690Y6752430D01*
X38326283Y6850924D01*
X38200924Y6976283D01*
X38102430Y7123690D01*
X38034586Y7287480D01*
X38000000Y7461358D01*
X38000000Y7638642D01*
X38034586Y7812520D01*
X38102430Y7976310D01*
X38200924Y8123717D01*
X38326283Y8249076D01*
X38473690Y8347570D01*
X38637480Y8415414D01*
X38811358Y8450000D01*
X38988642Y8450000D01*
X39162520Y8415414D01*
X39162520Y8415414D01*
G37*
G36*
X25376191Y7416806D02*
X25406185Y7407708D01*
X25433821Y7392936D01*
X25458051Y7373051D01*
X25477936Y7348821D01*
X25492708Y7321185D01*
X25501806Y7291191D01*
X25505000Y7258767D01*
X25505000Y6841233D01*
X25501806Y6808809D01*
X25492708Y6778815D01*
X25477936Y6751179D01*
X25458051Y6726949D01*
X25433821Y6707064D01*
X25406185Y6692292D01*
X25376191Y6683194D01*
X25343767Y6680000D01*
X24976233Y6680000D01*
X24943809Y6683194D01*
X24913815Y6692292D01*
X24886179Y6707064D01*
X24861949Y6726949D01*
X24842064Y6751179D01*
X24827292Y6778815D01*
X24818194Y6808809D01*
X24815000Y6841233D01*
X24815000Y7258767D01*
X24818194Y7291191D01*
X24827292Y7321185D01*
X24842064Y7348821D01*
X24861949Y7373051D01*
X24886179Y7392936D01*
X24913815Y7407708D01*
X24943809Y7416806D01*
X24976233Y7420000D01*
X25343767Y7420000D01*
X25376191Y7416806D01*
X25376191Y7416806D01*
G37*
G36*
X24406191Y7416806D02*
X24436185Y7407708D01*
X24463821Y7392936D01*
X24488051Y7373051D01*
X24507936Y7348821D01*
X24522708Y7321185D01*
X24531806Y7291191D01*
X24535000Y7258767D01*
X24535000Y6841233D01*
X24531806Y6808809D01*
X24522708Y6778815D01*
X24507936Y6751179D01*
X24488051Y6726949D01*
X24463821Y6707064D01*
X24436185Y6692292D01*
X24406191Y6683194D01*
X24373767Y6680000D01*
X24006233Y6680000D01*
X23973809Y6683194D01*
X23943815Y6692292D01*
X23916179Y6707064D01*
X23891949Y6726949D01*
X23872064Y6751179D01*
X23857292Y6778815D01*
X23848194Y6808809D01*
X23845000Y6841233D01*
X23845000Y7258767D01*
X23848194Y7291191D01*
X23857292Y7321185D01*
X23872064Y7348821D01*
X23891949Y7373051D01*
X23916179Y7392936D01*
X23943815Y7407708D01*
X23973809Y7416806D01*
X24006233Y7420000D01*
X24373767Y7420000D01*
X24406191Y7416806D01*
X24406191Y7416806D01*
G37*
G36*
X23201191Y7416806D02*
X23231185Y7407708D01*
X23258821Y7392936D01*
X23283051Y7373051D01*
X23302936Y7348821D01*
X23317708Y7321185D01*
X23326806Y7291191D01*
X23330000Y7258767D01*
X23330000Y6841233D01*
X23326806Y6808809D01*
X23317708Y6778815D01*
X23302936Y6751179D01*
X23283051Y6726949D01*
X23258821Y6707064D01*
X23231185Y6692292D01*
X23201191Y6683194D01*
X23168767Y6680000D01*
X22801233Y6680000D01*
X22768809Y6683194D01*
X22738815Y6692292D01*
X22711179Y6707064D01*
X22686949Y6726949D01*
X22667064Y6751179D01*
X22652292Y6778815D01*
X22643194Y6808809D01*
X22640000Y6841233D01*
X22640000Y7258767D01*
X22643194Y7291191D01*
X22652292Y7321185D01*
X22667064Y7348821D01*
X22686949Y7373051D01*
X22711179Y7392936D01*
X22738815Y7407708D01*
X22768809Y7416806D01*
X22801233Y7420000D01*
X23168767Y7420000D01*
X23201191Y7416806D01*
X23201191Y7416806D01*
G37*
G36*
X22231191Y7416806D02*
X22261185Y7407708D01*
X22288821Y7392936D01*
X22313051Y7373051D01*
X22332936Y7348821D01*
X22347708Y7321185D01*
X22356806Y7291191D01*
X22360000Y7258767D01*
X22360000Y6841233D01*
X22356806Y6808809D01*
X22347708Y6778815D01*
X22332936Y6751179D01*
X22313051Y6726949D01*
X22288821Y6707064D01*
X22261185Y6692292D01*
X22231191Y6683194D01*
X22198767Y6680000D01*
X21831233Y6680000D01*
X21798809Y6683194D01*
X21768815Y6692292D01*
X21741179Y6707064D01*
X21716949Y6726949D01*
X21697064Y6751179D01*
X21682292Y6778815D01*
X21673194Y6808809D01*
X21670000Y6841233D01*
X21670000Y7258767D01*
X21673194Y7291191D01*
X21682292Y7321185D01*
X21697064Y7348821D01*
X21716949Y7373051D01*
X21741179Y7392936D01*
X21768815Y7407708D01*
X21798809Y7416806D01*
X21831233Y7420000D01*
X22198767Y7420000D01*
X22231191Y7416806D01*
X22231191Y7416806D01*
G37*
G36*
X1095845Y8280785D02*
X1154078Y8256664D01*
X1186839Y8243094D01*
X1268730Y8188376D01*
X1338376Y8118730D01*
X1393094Y8036839D01*
X1430785Y7945845D01*
X1450000Y7849246D01*
X1450000Y7750754D01*
X1430785Y7654155D01*
X1393094Y7563161D01*
X1338376Y7481270D01*
X1268730Y7411624D01*
X1205651Y7369476D01*
X1186839Y7356906D01*
X1095845Y7319215D01*
X999246Y7300000D01*
X900754Y7300000D01*
X804155Y7319215D01*
X713161Y7356906D01*
X694349Y7369476D01*
X631270Y7411624D01*
X561624Y7481270D01*
X506906Y7563161D01*
X469215Y7654155D01*
X450000Y7750754D01*
X450000Y7849246D01*
X469215Y7945845D01*
X506906Y8036839D01*
X561624Y8118730D01*
X631270Y8188376D01*
X713161Y8243094D01*
X745922Y8256664D01*
X804155Y8280785D01*
X900754Y8300000D01*
X999246Y8300000D01*
X1095845Y8280785D01*
X1095845Y8280785D01*
G37*
G36*
X27131191Y8916806D02*
X27161185Y8907708D01*
X27188821Y8892936D01*
X27213051Y8873051D01*
X27232936Y8848821D01*
X27247708Y8821185D01*
X27256806Y8791191D01*
X27260000Y8758767D01*
X27260000Y8341233D01*
X27256806Y8308809D01*
X27247708Y8278815D01*
X27232936Y8251179D01*
X27213051Y8226949D01*
X27188821Y8207064D01*
X27161185Y8192292D01*
X27131191Y8183194D01*
X27098767Y8180000D01*
X26731233Y8180000D01*
X26698809Y8183194D01*
X26668815Y8192292D01*
X26641179Y8207064D01*
X26616949Y8226949D01*
X26597064Y8251179D01*
X26582292Y8278815D01*
X26573194Y8308809D01*
X26570000Y8341233D01*
X26570000Y8758767D01*
X26573194Y8791191D01*
X26582292Y8821185D01*
X26597064Y8848821D01*
X26616949Y8873051D01*
X26641179Y8892936D01*
X26668815Y8907708D01*
X26698809Y8916806D01*
X26731233Y8920000D01*
X27098767Y8920000D01*
X27131191Y8916806D01*
X27131191Y8916806D01*
G37*
G36*
X28101191Y8916806D02*
X28131185Y8907708D01*
X28158821Y8892936D01*
X28183051Y8873051D01*
X28202936Y8848821D01*
X28217708Y8821185D01*
X28226806Y8791191D01*
X28230000Y8758767D01*
X28230000Y8341233D01*
X28226806Y8308809D01*
X28217708Y8278815D01*
X28202936Y8251179D01*
X28183051Y8226949D01*
X28158821Y8207064D01*
X28131185Y8192292D01*
X28101191Y8183194D01*
X28068767Y8180000D01*
X27701233Y8180000D01*
X27668809Y8183194D01*
X27638815Y8192292D01*
X27611179Y8207064D01*
X27586949Y8226949D01*
X27567064Y8251179D01*
X27552292Y8278815D01*
X27543194Y8308809D01*
X27540000Y8341233D01*
X27540000Y8758767D01*
X27543194Y8791191D01*
X27552292Y8821185D01*
X27567064Y8848821D01*
X27586949Y8873051D01*
X27611179Y8892936D01*
X27638815Y8907708D01*
X27668809Y8916806D01*
X27701233Y8920000D01*
X28068767Y8920000D01*
X28101191Y8916806D01*
X28101191Y8916806D01*
G37*
G36*
X7249765Y10047488D02*
X7273100Y10040410D01*
X7294599Y10028919D01*
X7313448Y10013448D01*
X7328919Y9994599D01*
X7340410Y9973100D01*
X7347488Y9949765D01*
X7350000Y9924267D01*
X7350000Y9075733D01*
X7347488Y9050235D01*
X7340410Y9026900D01*
X7328919Y9005401D01*
X7313448Y8986552D01*
X7294599Y8971081D01*
X7273100Y8959590D01*
X7249765Y8952512D01*
X7224267Y8950000D01*
X5575733Y8950000D01*
X5550235Y8952512D01*
X5526900Y8959590D01*
X5505401Y8971081D01*
X5486552Y8986552D01*
X5471081Y9005401D01*
X5459590Y9026900D01*
X5452512Y9050235D01*
X5450000Y9075733D01*
X5450000Y9924267D01*
X5452512Y9949765D01*
X5459590Y9973100D01*
X5471081Y9994599D01*
X5486552Y10013448D01*
X5505401Y10028919D01*
X5526900Y10040410D01*
X5550235Y10047488D01*
X5575733Y10050000D01*
X7224267Y10050000D01*
X7249765Y10047488D01*
X7249765Y10047488D01*
G37*
G36*
X36612520Y10935414D02*
X36776310Y10867570D01*
X36923717Y10769076D01*
X37049076Y10643717D01*
X37147570Y10496310D01*
X37215414Y10332520D01*
X37250000Y10158642D01*
X37250000Y9981358D01*
X37215414Y9807480D01*
X37147570Y9643690D01*
X37049076Y9496283D01*
X36923717Y9370924D01*
X36776310Y9272430D01*
X36612520Y9204586D01*
X36438642Y9170000D01*
X36261358Y9170000D01*
X36087480Y9204586D01*
X35923690Y9272430D01*
X35776283Y9370924D01*
X35650924Y9496283D01*
X35552430Y9643690D01*
X35484586Y9807480D01*
X35450000Y9981358D01*
X35450000Y10158642D01*
X35484586Y10332520D01*
X35552430Y10496310D01*
X35650924Y10643717D01*
X35776283Y10769076D01*
X35923690Y10867570D01*
X36087480Y10935414D01*
X36261358Y10970000D01*
X36438642Y10970000D01*
X36612520Y10935414D01*
X36612520Y10935414D01*
G37*
G36*
X39182520Y10935414D02*
X39346310Y10867570D01*
X39493717Y10769076D01*
X39619076Y10643717D01*
X39717570Y10496310D01*
X39785414Y10332520D01*
X39820000Y10158642D01*
X39820000Y9981358D01*
X39785414Y9807480D01*
X39717570Y9643690D01*
X39619076Y9496283D01*
X39493717Y9370924D01*
X39346310Y9272430D01*
X39182520Y9204586D01*
X39008642Y9170000D01*
X38831358Y9170000D01*
X38657480Y9204586D01*
X38493690Y9272430D01*
X38346283Y9370924D01*
X38220924Y9496283D01*
X38122430Y9643690D01*
X38054586Y9807480D01*
X38020000Y9981358D01*
X38020000Y10158642D01*
X38054586Y10332520D01*
X38122430Y10496310D01*
X38220924Y10643717D01*
X38346283Y10769076D01*
X38493690Y10867570D01*
X38657480Y10935414D01*
X38831358Y10970000D01*
X39008642Y10970000D01*
X39182520Y10935414D01*
X39182520Y10935414D01*
G37*
G36*
X11441191Y10206806D02*
X11471185Y10197708D01*
X11498821Y10182936D01*
X11523051Y10163051D01*
X11542936Y10138821D01*
X11557708Y10111185D01*
X11566806Y10081191D01*
X11570000Y10048767D01*
X11570000Y9681233D01*
X11566806Y9648809D01*
X11557708Y9618815D01*
X11542936Y9591179D01*
X11523051Y9566949D01*
X11498821Y9547064D01*
X11471185Y9532292D01*
X11441191Y9523194D01*
X11408767Y9520000D01*
X10991233Y9520000D01*
X10958809Y9523194D01*
X10928815Y9532292D01*
X10901179Y9547064D01*
X10876949Y9566949D01*
X10857064Y9591179D01*
X10842292Y9618815D01*
X10833194Y9648809D01*
X10830000Y9681233D01*
X10830000Y10048767D01*
X10833194Y10081191D01*
X10842292Y10111185D01*
X10857064Y10138821D01*
X10876949Y10163051D01*
X10901179Y10182936D01*
X10928815Y10197708D01*
X10958809Y10206806D01*
X10991233Y10210000D01*
X11408767Y10210000D01*
X11441191Y10206806D01*
X11441191Y10206806D01*
G37*
G36*
X12441191Y10206806D02*
X12471185Y10197708D01*
X12498821Y10182936D01*
X12523051Y10163051D01*
X12542936Y10138821D01*
X12557708Y10111185D01*
X12566806Y10081191D01*
X12570000Y10048767D01*
X12570000Y9681233D01*
X12566806Y9648809D01*
X12557708Y9618815D01*
X12542936Y9591179D01*
X12523051Y9566949D01*
X12498821Y9547064D01*
X12471185Y9532292D01*
X12441191Y9523194D01*
X12408767Y9520000D01*
X11991233Y9520000D01*
X11958809Y9523194D01*
X11928815Y9532292D01*
X11901179Y9547064D01*
X11876949Y9566949D01*
X11857064Y9591179D01*
X11842292Y9618815D01*
X11833194Y9648809D01*
X11830000Y9681233D01*
X11830000Y10048767D01*
X11833194Y10081191D01*
X11842292Y10111185D01*
X11857064Y10138821D01*
X11876949Y10163051D01*
X11901179Y10182936D01*
X11928815Y10197708D01*
X11958809Y10206806D01*
X11991233Y10210000D01*
X12408767Y10210000D01*
X12441191Y10206806D01*
X12441191Y10206806D01*
G37*
G36*
X23814611Y10498440D02*
X23828653Y10494180D01*
X23841601Y10487260D01*
X23852948Y10477948D01*
X23862260Y10466601D01*
X23869180Y10453653D01*
X23873440Y10439611D01*
X23875000Y10423769D01*
X23875000Y9651231D01*
X23873440Y9635389D01*
X23869180Y9621347D01*
X23862260Y9608399D01*
X23852948Y9597052D01*
X23841601Y9587740D01*
X23828653Y9580820D01*
X23814611Y9576560D01*
X23798769Y9575000D01*
X23601231Y9575000D01*
X23585389Y9576560D01*
X23571347Y9580820D01*
X23558399Y9587740D01*
X23547052Y9597052D01*
X23537740Y9608399D01*
X23530820Y9621347D01*
X23526560Y9635389D01*
X23525000Y9651231D01*
X23525000Y10423769D01*
X23526560Y10439611D01*
X23530820Y10453653D01*
X23537740Y10466601D01*
X23547052Y10477948D01*
X23558399Y10487260D01*
X23571347Y10494180D01*
X23585389Y10498440D01*
X23601231Y10500000D01*
X23798769Y10500000D01*
X23814611Y10498440D01*
X23814611Y10498440D01*
G37*
G36*
X24814611Y10498440D02*
X24828653Y10494180D01*
X24841601Y10487260D01*
X24852948Y10477948D01*
X24862260Y10466601D01*
X24869180Y10453653D01*
X24873440Y10439611D01*
X24875000Y10423769D01*
X24875000Y9651231D01*
X24873440Y9635389D01*
X24869180Y9621347D01*
X24862260Y9608399D01*
X24852948Y9597052D01*
X24841601Y9587740D01*
X24828653Y9580820D01*
X24814611Y9576560D01*
X24798769Y9575000D01*
X24601231Y9575000D01*
X24585389Y9576560D01*
X24571347Y9580820D01*
X24558399Y9587740D01*
X24547052Y9597052D01*
X24537740Y9608399D01*
X24530820Y9621347D01*
X24526560Y9635389D01*
X24525000Y9651231D01*
X24525000Y10423769D01*
X24526560Y10439611D01*
X24530820Y10453653D01*
X24537740Y10466601D01*
X24547052Y10477948D01*
X24558399Y10487260D01*
X24571347Y10494180D01*
X24585389Y10498440D01*
X24601231Y10500000D01*
X24798769Y10500000D01*
X24814611Y10498440D01*
X24814611Y10498440D01*
G37*
G36*
X24314611Y10498440D02*
X24328653Y10494180D01*
X24341601Y10487260D01*
X24352948Y10477948D01*
X24362260Y10466601D01*
X24369180Y10453653D01*
X24373440Y10439611D01*
X24375000Y10423769D01*
X24375000Y9651231D01*
X24373440Y9635389D01*
X24369180Y9621347D01*
X24362260Y9608399D01*
X24352948Y9597052D01*
X24341601Y9587740D01*
X24328653Y9580820D01*
X24314611Y9576560D01*
X24298769Y9575000D01*
X24101231Y9575000D01*
X24085389Y9576560D01*
X24071347Y9580820D01*
X24058399Y9587740D01*
X24047052Y9597052D01*
X24037740Y9608399D01*
X24030820Y9621347D01*
X24026560Y9635389D01*
X24025000Y9651231D01*
X24025000Y10423769D01*
X24026560Y10439611D01*
X24030820Y10453653D01*
X24037740Y10466601D01*
X24047052Y10477948D01*
X24058399Y10487260D01*
X24071347Y10494180D01*
X24085389Y10498440D01*
X24101231Y10500000D01*
X24298769Y10500000D01*
X24314611Y10498440D01*
X24314611Y10498440D01*
G37*
G36*
X26314611Y10498440D02*
X26328653Y10494180D01*
X26341601Y10487260D01*
X26352948Y10477948D01*
X26362260Y10466601D01*
X26369180Y10453653D01*
X26373440Y10439611D01*
X26375000Y10423769D01*
X26375000Y9651231D01*
X26373440Y9635389D01*
X26369180Y9621347D01*
X26362260Y9608399D01*
X26352948Y9597052D01*
X26341601Y9587740D01*
X26328653Y9580820D01*
X26314611Y9576560D01*
X26298769Y9575000D01*
X26101231Y9575000D01*
X26085389Y9576560D01*
X26071347Y9580820D01*
X26058399Y9587740D01*
X26047052Y9597052D01*
X26037740Y9608399D01*
X26030820Y9621347D01*
X26026560Y9635389D01*
X26025000Y9651231D01*
X26025000Y10423769D01*
X26026560Y10439611D01*
X26030820Y10453653D01*
X26037740Y10466601D01*
X26047052Y10477948D01*
X26058399Y10487260D01*
X26071347Y10494180D01*
X26085389Y10498440D01*
X26101231Y10500000D01*
X26298769Y10500000D01*
X26314611Y10498440D01*
X26314611Y10498440D01*
G37*
G36*
X25814611Y10498440D02*
X25828653Y10494180D01*
X25841601Y10487260D01*
X25852948Y10477948D01*
X25862260Y10466601D01*
X25869180Y10453653D01*
X25873440Y10439611D01*
X25875000Y10423769D01*
X25875000Y9651231D01*
X25873440Y9635389D01*
X25869180Y9621347D01*
X25862260Y9608399D01*
X25852948Y9597052D01*
X25841601Y9587740D01*
X25828653Y9580820D01*
X25814611Y9576560D01*
X25798769Y9575000D01*
X25601231Y9575000D01*
X25585389Y9576560D01*
X25571347Y9580820D01*
X25558399Y9587740D01*
X25547052Y9597052D01*
X25537740Y9608399D01*
X25530820Y9621347D01*
X25526560Y9635389D01*
X25525000Y9651231D01*
X25525000Y10423769D01*
X25526560Y10439611D01*
X25530820Y10453653D01*
X25537740Y10466601D01*
X25547052Y10477948D01*
X25558399Y10487260D01*
X25571347Y10494180D01*
X25585389Y10498440D01*
X25601231Y10500000D01*
X25798769Y10500000D01*
X25814611Y10498440D01*
X25814611Y10498440D01*
G37*
G36*
X25314611Y10498440D02*
X25328653Y10494180D01*
X25341601Y10487260D01*
X25352948Y10477948D01*
X25362260Y10466601D01*
X25369180Y10453653D01*
X25373440Y10439611D01*
X25375000Y10423769D01*
X25375000Y9651231D01*
X25373440Y9635389D01*
X25369180Y9621347D01*
X25362260Y9608399D01*
X25352948Y9597052D01*
X25341601Y9587740D01*
X25328653Y9580820D01*
X25314611Y9576560D01*
X25298769Y9575000D01*
X25101231Y9575000D01*
X25085389Y9576560D01*
X25071347Y9580820D01*
X25058399Y9587740D01*
X25047052Y9597052D01*
X25037740Y9608399D01*
X25030820Y9621347D01*
X25026560Y9635389D01*
X25025000Y9651231D01*
X25025000Y10423769D01*
X25026560Y10439611D01*
X25030820Y10453653D01*
X25037740Y10466601D01*
X25047052Y10477948D01*
X25058399Y10487260D01*
X25071347Y10494180D01*
X25085389Y10498440D01*
X25101231Y10500000D01*
X25298769Y10500000D01*
X25314611Y10498440D01*
X25314611Y10498440D01*
G37*
G36*
X28441191Y10656806D02*
X28471185Y10647708D01*
X28498821Y10632936D01*
X28523051Y10613051D01*
X28542936Y10588821D01*
X28557708Y10561185D01*
X28566806Y10531191D01*
X28570000Y10498767D01*
X28570000Y10131233D01*
X28566806Y10098809D01*
X28557708Y10068815D01*
X28542936Y10041179D01*
X28523051Y10016949D01*
X28498821Y9997064D01*
X28471185Y9982292D01*
X28441191Y9973194D01*
X28408767Y9970000D01*
X27991233Y9970000D01*
X27958809Y9973194D01*
X27928815Y9982292D01*
X27901179Y9997064D01*
X27876949Y10016949D01*
X27857064Y10041179D01*
X27842292Y10068815D01*
X27833194Y10098809D01*
X27830000Y10131233D01*
X27830000Y10498767D01*
X27833194Y10531191D01*
X27842292Y10561185D01*
X27857064Y10588821D01*
X27876949Y10613051D01*
X27901179Y10632936D01*
X27928815Y10647708D01*
X27958809Y10656806D01*
X27991233Y10660000D01*
X28408767Y10660000D01*
X28441191Y10656806D01*
X28441191Y10656806D01*
G37*
G36*
X32500000Y10050000D02*
X31300000Y10050000D01*
X31300000Y10750000D01*
X32500000Y10750000D01*
X32500000Y10050000D01*
X32500000Y10050000D01*
G37*
G36*
X35100000Y10050000D02*
X33900000Y10050000D01*
X33900000Y10750000D01*
X35100000Y10750000D01*
X35100000Y10050000D01*
X35100000Y10050000D01*
G37*
G36*
X37813167Y11620896D02*
X37922344Y11575674D01*
X38020601Y11510021D01*
X38104161Y11426461D01*
X38169814Y11328204D01*
X38215036Y11219027D01*
X38238090Y11103126D01*
X38238090Y10984954D01*
X38215036Y10869053D01*
X38169814Y10759876D01*
X38104161Y10661619D01*
X38020601Y10578059D01*
X37922344Y10512406D01*
X37813167Y10467184D01*
X37697266Y10444130D01*
X37579094Y10444130D01*
X37463193Y10467184D01*
X37354016Y10512406D01*
X37255759Y10578059D01*
X37172199Y10661619D01*
X37106546Y10759876D01*
X37061324Y10869053D01*
X37038270Y10984954D01*
X37038270Y11103126D01*
X37061324Y11219027D01*
X37106546Y11328204D01*
X37172199Y11426461D01*
X37255759Y11510021D01*
X37354016Y11575674D01*
X37463193Y11620896D01*
X37579094Y11643950D01*
X37697266Y11643950D01*
X37813167Y11620896D01*
X37813167Y11620896D01*
G37*
G36*
X12441191Y11176806D02*
X12471185Y11167708D01*
X12498821Y11152936D01*
X12523051Y11133051D01*
X12542936Y11108821D01*
X12557708Y11081185D01*
X12566806Y11051191D01*
X12570000Y11018767D01*
X12570000Y10651233D01*
X12566806Y10618809D01*
X12557708Y10588815D01*
X12542936Y10561179D01*
X12523051Y10536949D01*
X12498821Y10517064D01*
X12471185Y10502292D01*
X12441191Y10493194D01*
X12408767Y10490000D01*
X11991233Y10490000D01*
X11958809Y10493194D01*
X11928815Y10502292D01*
X11901179Y10517064D01*
X11876949Y10536949D01*
X11857064Y10561179D01*
X11842292Y10588815D01*
X11833194Y10618809D01*
X11830000Y10651233D01*
X11830000Y11018767D01*
X11833194Y11051191D01*
X11842292Y11081185D01*
X11857064Y11108821D01*
X11876949Y11133051D01*
X11901179Y11152936D01*
X11928815Y11167708D01*
X11958809Y11176806D01*
X11991233Y11180000D01*
X12408767Y11180000D01*
X12441191Y11176806D01*
X12441191Y11176806D01*
G37*
G36*
X11441191Y11176806D02*
X11471185Y11167708D01*
X11498821Y11152936D01*
X11523051Y11133051D01*
X11542936Y11108821D01*
X11557708Y11081185D01*
X11566806Y11051191D01*
X11570000Y11018767D01*
X11570000Y10651233D01*
X11566806Y10618809D01*
X11557708Y10588815D01*
X11542936Y10561179D01*
X11523051Y10536949D01*
X11498821Y10517064D01*
X11471185Y10502292D01*
X11441191Y10493194D01*
X11408767Y10490000D01*
X10991233Y10490000D01*
X10958809Y10493194D01*
X10928815Y10502292D01*
X10901179Y10517064D01*
X10876949Y10536949D01*
X10857064Y10561179D01*
X10842292Y10588815D01*
X10833194Y10618809D01*
X10830000Y10651233D01*
X10830000Y11018767D01*
X10833194Y11051191D01*
X10842292Y11081185D01*
X10857064Y11108821D01*
X10876949Y11133051D01*
X10901179Y11152936D01*
X10928815Y11167708D01*
X10958809Y11176806D01*
X10991233Y11180000D01*
X11408767Y11180000D01*
X11441191Y11176806D01*
X11441191Y11176806D01*
G37*
G36*
X27314611Y10923440D02*
X27328653Y10919180D01*
X27341601Y10912260D01*
X27352948Y10902948D01*
X27362260Y10891601D01*
X27369180Y10878653D01*
X27373440Y10864611D01*
X27375000Y10848769D01*
X27375000Y10651231D01*
X27373440Y10635389D01*
X27369180Y10621347D01*
X27362260Y10608399D01*
X27352948Y10597052D01*
X27341601Y10587740D01*
X27328653Y10580820D01*
X27314611Y10576560D01*
X27298769Y10575000D01*
X26526231Y10575000D01*
X26510389Y10576560D01*
X26496347Y10580820D01*
X26483399Y10587740D01*
X26472052Y10597052D01*
X26462740Y10608399D01*
X26455820Y10621347D01*
X26451560Y10635389D01*
X26450000Y10651231D01*
X26450000Y10848769D01*
X26451560Y10864611D01*
X26455820Y10878653D01*
X26462740Y10891601D01*
X26472052Y10902948D01*
X26483399Y10912260D01*
X26496347Y10919180D01*
X26510389Y10923440D01*
X26526231Y10925000D01*
X27298769Y10925000D01*
X27314611Y10923440D01*
X27314611Y10923440D01*
G37*
G36*
X23389611Y10923440D02*
X23403653Y10919180D01*
X23416601Y10912260D01*
X23427948Y10902948D01*
X23437260Y10891601D01*
X23444180Y10878653D01*
X23448440Y10864611D01*
X23450000Y10848769D01*
X23450000Y10651231D01*
X23448440Y10635389D01*
X23444180Y10621347D01*
X23437260Y10608399D01*
X23427948Y10597052D01*
X23416601Y10587740D01*
X23403653Y10580820D01*
X23389611Y10576560D01*
X23373769Y10575000D01*
X22601231Y10575000D01*
X22585389Y10576560D01*
X22571347Y10580820D01*
X22558399Y10587740D01*
X22547052Y10597052D01*
X22537740Y10608399D01*
X22530820Y10621347D01*
X22526560Y10635389D01*
X22525000Y10651231D01*
X22525000Y10848769D01*
X22526560Y10864611D01*
X22530820Y10878653D01*
X22537740Y10891601D01*
X22547052Y10902948D01*
X22558399Y10912260D01*
X22571347Y10919180D01*
X22585389Y10923440D01*
X22601231Y10925000D01*
X23373769Y10925000D01*
X23389611Y10923440D01*
X23389611Y10923440D01*
G37*
G36*
X26157691Y13395290D02*
X26202485Y13381703D01*
X26243763Y13359639D01*
X26279945Y13329945D01*
X26309639Y13293763D01*
X26331703Y13252485D01*
X26345290Y13207691D01*
X26350000Y13159877D01*
X26350000Y10840123D01*
X26345290Y10792309D01*
X26331703Y10747515D01*
X26309639Y10706237D01*
X26279945Y10670055D01*
X26243763Y10640361D01*
X26202485Y10618297D01*
X26157691Y10604710D01*
X26109877Y10600000D01*
X23790123Y10600000D01*
X23742309Y10604710D01*
X23697515Y10618297D01*
X23656237Y10640361D01*
X23620055Y10670055D01*
X23590361Y10706237D01*
X23568297Y10747515D01*
X23554710Y10792309D01*
X23550000Y10840123D01*
X23550000Y13159877D01*
X23554710Y13207691D01*
X23568297Y13252485D01*
X23590361Y13293763D01*
X23620055Y13329945D01*
X23656237Y13359639D01*
X23697515Y13381703D01*
X23742309Y13395290D01*
X23790123Y13400000D01*
X26109877Y13400000D01*
X26157691Y13395290D01*
X26157691Y13395290D01*
G37*
G36*
X28441191Y11626806D02*
X28471185Y11617708D01*
X28498821Y11602936D01*
X28523051Y11583051D01*
X28542936Y11558821D01*
X28557708Y11531185D01*
X28566806Y11501191D01*
X28570000Y11468767D01*
X28570000Y11101233D01*
X28566806Y11068809D01*
X28557708Y11038815D01*
X28542936Y11011179D01*
X28523051Y10986949D01*
X28498821Y10967064D01*
X28471185Y10952292D01*
X28441191Y10943194D01*
X28408767Y10940000D01*
X27991233Y10940000D01*
X27958809Y10943194D01*
X27928815Y10952292D01*
X27901179Y10967064D01*
X27876949Y10986949D01*
X27857064Y11011179D01*
X27842292Y11038815D01*
X27833194Y11068809D01*
X27830000Y11101233D01*
X27830000Y11468767D01*
X27833194Y11501191D01*
X27842292Y11531185D01*
X27857064Y11558821D01*
X27876949Y11583051D01*
X27901179Y11602936D01*
X27928815Y11617708D01*
X27958809Y11626806D01*
X27991233Y11630000D01*
X28408767Y11630000D01*
X28441191Y11626806D01*
X28441191Y11626806D01*
G37*
G36*
X35100000Y11000000D02*
X33900000Y11000000D01*
X33900000Y11700000D01*
X35100000Y11700000D01*
X35100000Y11000000D01*
X35100000Y11000000D01*
G37*
G36*
X19956191Y11766806D02*
X19986185Y11757708D01*
X20013821Y11742936D01*
X20038051Y11723051D01*
X20057936Y11698821D01*
X20072708Y11671185D01*
X20081806Y11641191D01*
X20085000Y11608767D01*
X20085000Y11191233D01*
X20081806Y11158809D01*
X20072708Y11128815D01*
X20057936Y11101179D01*
X20038051Y11076949D01*
X20013821Y11057064D01*
X19986185Y11042292D01*
X19956191Y11033194D01*
X19923767Y11030000D01*
X19556233Y11030000D01*
X19523809Y11033194D01*
X19493815Y11042292D01*
X19466179Y11057064D01*
X19441949Y11076949D01*
X19422064Y11101179D01*
X19407292Y11128815D01*
X19398194Y11158809D01*
X19395000Y11191233D01*
X19395000Y11608767D01*
X19398194Y11641191D01*
X19407292Y11671185D01*
X19422064Y11698821D01*
X19441949Y11723051D01*
X19466179Y11742936D01*
X19493815Y11757708D01*
X19523809Y11766806D01*
X19556233Y11770000D01*
X19923767Y11770000D01*
X19956191Y11766806D01*
X19956191Y11766806D01*
G37*
G36*
X20926191Y11766806D02*
X20956185Y11757708D01*
X20983821Y11742936D01*
X21008051Y11723051D01*
X21027936Y11698821D01*
X21042708Y11671185D01*
X21051806Y11641191D01*
X21055000Y11608767D01*
X21055000Y11191233D01*
X21051806Y11158809D01*
X21042708Y11128815D01*
X21027936Y11101179D01*
X21008051Y11076949D01*
X20983821Y11057064D01*
X20956185Y11042292D01*
X20926191Y11033194D01*
X20893767Y11030000D01*
X20526233Y11030000D01*
X20493809Y11033194D01*
X20463815Y11042292D01*
X20436179Y11057064D01*
X20411949Y11076949D01*
X20392064Y11101179D01*
X20377292Y11128815D01*
X20368194Y11158809D01*
X20365000Y11191233D01*
X20365000Y11608767D01*
X20368194Y11641191D01*
X20377292Y11671185D01*
X20392064Y11698821D01*
X20411949Y11723051D01*
X20436179Y11742936D01*
X20463815Y11757708D01*
X20493809Y11766806D01*
X20526233Y11770000D01*
X20893767Y11770000D01*
X20926191Y11766806D01*
X20926191Y11766806D01*
G37*
G36*
X21951191Y11756806D02*
X21981185Y11747708D01*
X22008821Y11732936D01*
X22033051Y11713051D01*
X22052936Y11688821D01*
X22067708Y11661185D01*
X22076806Y11631191D01*
X22080000Y11598767D01*
X22080000Y11231233D01*
X22076806Y11198809D01*
X22067708Y11168815D01*
X22052936Y11141179D01*
X22033051Y11116949D01*
X22008821Y11097064D01*
X21981185Y11082292D01*
X21951191Y11073194D01*
X21918767Y11070000D01*
X21501233Y11070000D01*
X21468809Y11073194D01*
X21438815Y11082292D01*
X21411179Y11097064D01*
X21386949Y11116949D01*
X21367064Y11141179D01*
X21352292Y11168815D01*
X21343194Y11198809D01*
X21340000Y11231233D01*
X21340000Y11598767D01*
X21343194Y11631191D01*
X21352292Y11661185D01*
X21367064Y11688821D01*
X21386949Y11713051D01*
X21411179Y11732936D01*
X21438815Y11747708D01*
X21468809Y11756806D01*
X21501233Y11760000D01*
X21918767Y11760000D01*
X21951191Y11756806D01*
X21951191Y11756806D01*
G37*
G36*
X18991191Y11756806D02*
X19021185Y11747708D01*
X19048821Y11732936D01*
X19073051Y11713051D01*
X19092936Y11688821D01*
X19107708Y11661185D01*
X19116806Y11631191D01*
X19120000Y11598767D01*
X19120000Y11231233D01*
X19116806Y11198809D01*
X19107708Y11168815D01*
X19092936Y11141179D01*
X19073051Y11116949D01*
X19048821Y11097064D01*
X19021185Y11082292D01*
X18991191Y11073194D01*
X18958767Y11070000D01*
X18541233Y11070000D01*
X18508809Y11073194D01*
X18478815Y11082292D01*
X18451179Y11097064D01*
X18426949Y11116949D01*
X18407064Y11141179D01*
X18392292Y11168815D01*
X18383194Y11198809D01*
X18380000Y11231233D01*
X18380000Y11598767D01*
X18383194Y11631191D01*
X18392292Y11661185D01*
X18407064Y11688821D01*
X18426949Y11713051D01*
X18451179Y11732936D01*
X18478815Y11747708D01*
X18508809Y11756806D01*
X18541233Y11760000D01*
X18958767Y11760000D01*
X18991191Y11756806D01*
X18991191Y11756806D01*
G37*
G36*
X27314611Y11423440D02*
X27328653Y11419180D01*
X27341601Y11412260D01*
X27352948Y11402948D01*
X27362260Y11391601D01*
X27369180Y11378653D01*
X27373440Y11364611D01*
X27375000Y11348769D01*
X27375000Y11151231D01*
X27373440Y11135389D01*
X27369180Y11121347D01*
X27362260Y11108399D01*
X27352948Y11097052D01*
X27341601Y11087740D01*
X27328653Y11080820D01*
X27314611Y11076560D01*
X27298769Y11075000D01*
X26526231Y11075000D01*
X26510389Y11076560D01*
X26496347Y11080820D01*
X26483399Y11087740D01*
X26472052Y11097052D01*
X26462740Y11108399D01*
X26455820Y11121347D01*
X26451560Y11135389D01*
X26450000Y11151231D01*
X26450000Y11348769D01*
X26451560Y11364611D01*
X26455820Y11378653D01*
X26462740Y11391601D01*
X26472052Y11402948D01*
X26483399Y11412260D01*
X26496347Y11419180D01*
X26510389Y11423440D01*
X26526231Y11425000D01*
X27298769Y11425000D01*
X27314611Y11423440D01*
X27314611Y11423440D01*
G37*
G36*
X23389611Y11423440D02*
X23403653Y11419180D01*
X23416601Y11412260D01*
X23427948Y11402948D01*
X23437260Y11391601D01*
X23444180Y11378653D01*
X23448440Y11364611D01*
X23450000Y11348769D01*
X23450000Y11151231D01*
X23448440Y11135389D01*
X23444180Y11121347D01*
X23437260Y11108399D01*
X23427948Y11097052D01*
X23416601Y11087740D01*
X23403653Y11080820D01*
X23389611Y11076560D01*
X23373769Y11075000D01*
X22601231Y11075000D01*
X22585389Y11076560D01*
X22571347Y11080820D01*
X22558399Y11087740D01*
X22547052Y11097052D01*
X22537740Y11108399D01*
X22530820Y11121347D01*
X22526560Y11135389D01*
X22525000Y11151231D01*
X22525000Y11348769D01*
X22526560Y11364611D01*
X22530820Y11378653D01*
X22537740Y11391601D01*
X22547052Y11402948D01*
X22558399Y11412260D01*
X22571347Y11419180D01*
X22585389Y11423440D01*
X22601231Y11425000D01*
X23373769Y11425000D01*
X23389611Y11423440D01*
X23389611Y11423440D01*
G37*
G36*
X27314611Y11923440D02*
X27328653Y11919180D01*
X27341601Y11912260D01*
X27352948Y11902948D01*
X27362260Y11891601D01*
X27369180Y11878653D01*
X27373440Y11864611D01*
X27375000Y11848769D01*
X27375000Y11651231D01*
X27373440Y11635389D01*
X27369180Y11621347D01*
X27362260Y11608399D01*
X27352948Y11597052D01*
X27341601Y11587740D01*
X27328653Y11580820D01*
X27314611Y11576560D01*
X27298769Y11575000D01*
X26526231Y11575000D01*
X26510389Y11576560D01*
X26496347Y11580820D01*
X26483399Y11587740D01*
X26472052Y11597052D01*
X26462740Y11608399D01*
X26455820Y11621347D01*
X26451560Y11635389D01*
X26450000Y11651231D01*
X26450000Y11848769D01*
X26451560Y11864611D01*
X26455820Y11878653D01*
X26462740Y11891601D01*
X26472052Y11902948D01*
X26483399Y11912260D01*
X26496347Y11919180D01*
X26510389Y11923440D01*
X26526231Y11925000D01*
X27298769Y11925000D01*
X27314611Y11923440D01*
X27314611Y11923440D01*
G37*
G36*
X23389611Y11923440D02*
X23403653Y11919180D01*
X23416601Y11912260D01*
X23427948Y11902948D01*
X23437260Y11891601D01*
X23444180Y11878653D01*
X23448440Y11864611D01*
X23450000Y11848769D01*
X23450000Y11651231D01*
X23448440Y11635389D01*
X23444180Y11621347D01*
X23437260Y11608399D01*
X23427948Y11597052D01*
X23416601Y11587740D01*
X23403653Y11580820D01*
X23389611Y11576560D01*
X23373769Y11575000D01*
X22601231Y11575000D01*
X22585389Y11576560D01*
X22571347Y11580820D01*
X22558399Y11587740D01*
X22547052Y11597052D01*
X22537740Y11608399D01*
X22530820Y11621347D01*
X22526560Y11635389D01*
X22525000Y11651231D01*
X22525000Y11848769D01*
X22526560Y11864611D01*
X22530820Y11878653D01*
X22537740Y11891601D01*
X22547052Y11902948D01*
X22558399Y11912260D01*
X22571347Y11919180D01*
X22585389Y11923440D01*
X22601231Y11925000D01*
X23373769Y11925000D01*
X23389611Y11923440D01*
X23389611Y11923440D01*
G37*
G36*
X37882520Y13465414D02*
X38046310Y13397570D01*
X38193717Y13299076D01*
X38319076Y13173717D01*
X38417570Y13026310D01*
X38485414Y12862520D01*
X38520000Y12688642D01*
X38520000Y12511358D01*
X38485414Y12337480D01*
X38417570Y12173690D01*
X38319076Y12026283D01*
X38193717Y11900924D01*
X38046310Y11802430D01*
X37882520Y11734586D01*
X37708642Y11700000D01*
X37531358Y11700000D01*
X37357480Y11734586D01*
X37193690Y11802430D01*
X37046283Y11900924D01*
X36920924Y12026283D01*
X36822430Y12173690D01*
X36754586Y12337480D01*
X36720000Y12511358D01*
X36720000Y12688642D01*
X36754586Y12862520D01*
X36822430Y13026310D01*
X36920924Y13173717D01*
X37046283Y13299076D01*
X37193690Y13397570D01*
X37357480Y13465414D01*
X37531358Y13500000D01*
X37708642Y13500000D01*
X37882520Y13465414D01*
X37882520Y13465414D01*
G37*
G36*
X13750000Y11800000D02*
X12750000Y11800000D01*
X12750000Y12300000D01*
X13750000Y12300000D01*
X13750000Y11800000D01*
X13750000Y11800000D01*
G37*
G36*
X11650000Y11800000D02*
X10650000Y11800000D01*
X10650000Y12300000D01*
X11650000Y12300000D01*
X11650000Y11800000D01*
X11650000Y11800000D01*
G37*
G36*
X30343722Y12894957D02*
X30391764Y12880384D01*
X30436048Y12856713D01*
X30474861Y12824861D01*
X30506713Y12786048D01*
X30530384Y12741764D01*
X30544957Y12693722D01*
X30550000Y12642518D01*
X30550000Y12082482D01*
X30544957Y12031278D01*
X30530384Y11983236D01*
X30506713Y11938952D01*
X30474861Y11900139D01*
X30436048Y11868287D01*
X30391764Y11844616D01*
X30343722Y11830043D01*
X30292518Y11825000D01*
X29307482Y11825000D01*
X29256278Y11830043D01*
X29208236Y11844616D01*
X29163952Y11868287D01*
X29125139Y11900139D01*
X29093287Y11938952D01*
X29069616Y11983236D01*
X29055043Y12031278D01*
X29050000Y12082482D01*
X29050000Y12642518D01*
X29055043Y12693722D01*
X29069616Y12741764D01*
X29093287Y12786048D01*
X29125139Y12824861D01*
X29163952Y12856713D01*
X29208236Y12880384D01*
X29256278Y12894957D01*
X29307482Y12900000D01*
X30292518Y12900000D01*
X30343722Y12894957D01*
X30343722Y12894957D01*
G37*
G36*
X35100000Y11950000D02*
X33900000Y11950000D01*
X33900000Y12650000D01*
X35100000Y12650000D01*
X35100000Y11950000D01*
X35100000Y11950000D01*
G37*
G36*
X32500000Y11950000D02*
X31300000Y11950000D01*
X31300000Y12650000D01*
X32500000Y12650000D01*
X32500000Y11950000D01*
X32500000Y11950000D01*
G37*
G36*
X19956191Y12766806D02*
X19986185Y12757708D01*
X20013821Y12742936D01*
X20038051Y12723051D01*
X20057936Y12698821D01*
X20072708Y12671185D01*
X20081806Y12641191D01*
X20085000Y12608767D01*
X20085000Y12191233D01*
X20081806Y12158809D01*
X20072708Y12128815D01*
X20057936Y12101179D01*
X20038051Y12076949D01*
X20013821Y12057064D01*
X19986185Y12042292D01*
X19956191Y12033194D01*
X19923767Y12030000D01*
X19556233Y12030000D01*
X19523809Y12033194D01*
X19493815Y12042292D01*
X19466179Y12057064D01*
X19441949Y12076949D01*
X19422064Y12101179D01*
X19407292Y12128815D01*
X19398194Y12158809D01*
X19395000Y12191233D01*
X19395000Y12608767D01*
X19398194Y12641191D01*
X19407292Y12671185D01*
X19422064Y12698821D01*
X19441949Y12723051D01*
X19466179Y12742936D01*
X19493815Y12757708D01*
X19523809Y12766806D01*
X19556233Y12770000D01*
X19923767Y12770000D01*
X19956191Y12766806D01*
X19956191Y12766806D01*
G37*
G36*
X20926191Y12766806D02*
X20956185Y12757708D01*
X20983821Y12742936D01*
X21008051Y12723051D01*
X21027936Y12698821D01*
X21042708Y12671185D01*
X21051806Y12641191D01*
X21055000Y12608767D01*
X21055000Y12191233D01*
X21051806Y12158809D01*
X21042708Y12128815D01*
X21027936Y12101179D01*
X21008051Y12076949D01*
X20983821Y12057064D01*
X20956185Y12042292D01*
X20926191Y12033194D01*
X20893767Y12030000D01*
X20526233Y12030000D01*
X20493809Y12033194D01*
X20463815Y12042292D01*
X20436179Y12057064D01*
X20411949Y12076949D01*
X20392064Y12101179D01*
X20377292Y12128815D01*
X20368194Y12158809D01*
X20365000Y12191233D01*
X20365000Y12608767D01*
X20368194Y12641191D01*
X20377292Y12671185D01*
X20392064Y12698821D01*
X20411949Y12723051D01*
X20436179Y12742936D01*
X20463815Y12757708D01*
X20493809Y12766806D01*
X20526233Y12770000D01*
X20893767Y12770000D01*
X20926191Y12766806D01*
X20926191Y12766806D01*
G37*
G36*
X18991191Y12726806D02*
X19021185Y12717708D01*
X19048821Y12702936D01*
X19073051Y12683051D01*
X19092936Y12658821D01*
X19107708Y12631185D01*
X19116806Y12601191D01*
X19120000Y12568767D01*
X19120000Y12201233D01*
X19116806Y12168809D01*
X19107708Y12138815D01*
X19092936Y12111179D01*
X19073051Y12086949D01*
X19048821Y12067064D01*
X19021185Y12052292D01*
X18991191Y12043194D01*
X18958767Y12040000D01*
X18541233Y12040000D01*
X18508809Y12043194D01*
X18478815Y12052292D01*
X18451179Y12067064D01*
X18426949Y12086949D01*
X18407064Y12111179D01*
X18392292Y12138815D01*
X18383194Y12168809D01*
X18380000Y12201233D01*
X18380000Y12568767D01*
X18383194Y12601191D01*
X18392292Y12631185D01*
X18407064Y12658821D01*
X18426949Y12683051D01*
X18451179Y12702936D01*
X18478815Y12717708D01*
X18508809Y12726806D01*
X18541233Y12730000D01*
X18958767Y12730000D01*
X18991191Y12726806D01*
X18991191Y12726806D01*
G37*
G36*
X21951191Y12726806D02*
X21981185Y12717708D01*
X22008821Y12702936D01*
X22033051Y12683051D01*
X22052936Y12658821D01*
X22067708Y12631185D01*
X22076806Y12601191D01*
X22080000Y12568767D01*
X22080000Y12201233D01*
X22076806Y12168809D01*
X22067708Y12138815D01*
X22052936Y12111179D01*
X22033051Y12086949D01*
X22008821Y12067064D01*
X21981185Y12052292D01*
X21951191Y12043194D01*
X21918767Y12040000D01*
X21501233Y12040000D01*
X21468809Y12043194D01*
X21438815Y12052292D01*
X21411179Y12067064D01*
X21386949Y12086949D01*
X21367064Y12111179D01*
X21352292Y12138815D01*
X21343194Y12168809D01*
X21340000Y12201233D01*
X21340000Y12568767D01*
X21343194Y12601191D01*
X21352292Y12631185D01*
X21367064Y12658821D01*
X21386949Y12683051D01*
X21411179Y12702936D01*
X21438815Y12717708D01*
X21468809Y12726806D01*
X21501233Y12730000D01*
X21918767Y12730000D01*
X21951191Y12726806D01*
X21951191Y12726806D01*
G37*
G36*
X23389611Y12423440D02*
X23403653Y12419180D01*
X23416601Y12412260D01*
X23427948Y12402948D01*
X23437260Y12391601D01*
X23444180Y12378653D01*
X23448440Y12364611D01*
X23450000Y12348769D01*
X23450000Y12151231D01*
X23448440Y12135389D01*
X23444180Y12121347D01*
X23437260Y12108399D01*
X23427948Y12097052D01*
X23416601Y12087740D01*
X23403653Y12080820D01*
X23389611Y12076560D01*
X23373769Y12075000D01*
X22601231Y12075000D01*
X22585389Y12076560D01*
X22571347Y12080820D01*
X22558399Y12087740D01*
X22547052Y12097052D01*
X22537740Y12108399D01*
X22530820Y12121347D01*
X22526560Y12135389D01*
X22525000Y12151231D01*
X22525000Y12348769D01*
X22526560Y12364611D01*
X22530820Y12378653D01*
X22537740Y12391601D01*
X22547052Y12402948D01*
X22558399Y12412260D01*
X22571347Y12419180D01*
X22585389Y12423440D01*
X22601231Y12425000D01*
X23373769Y12425000D01*
X23389611Y12423440D01*
X23389611Y12423440D01*
G37*
G36*
X27314611Y12423440D02*
X27328653Y12419180D01*
X27341601Y12412260D01*
X27352948Y12402948D01*
X27362260Y12391601D01*
X27369180Y12378653D01*
X27373440Y12364611D01*
X27375000Y12348769D01*
X27375000Y12151231D01*
X27373440Y12135389D01*
X27369180Y12121347D01*
X27362260Y12108399D01*
X27352948Y12097052D01*
X27341601Y12087740D01*
X27328653Y12080820D01*
X27314611Y12076560D01*
X27298769Y12075000D01*
X26526231Y12075000D01*
X26510389Y12076560D01*
X26496347Y12080820D01*
X26483399Y12087740D01*
X26472052Y12097052D01*
X26462740Y12108399D01*
X26455820Y12121347D01*
X26451560Y12135389D01*
X26450000Y12151231D01*
X26450000Y12348769D01*
X26451560Y12364611D01*
X26455820Y12378653D01*
X26462740Y12391601D01*
X26472052Y12402948D01*
X26483399Y12412260D01*
X26496347Y12419180D01*
X26510389Y12423440D01*
X26526231Y12425000D01*
X27298769Y12425000D01*
X27314611Y12423440D01*
X27314611Y12423440D01*
G37*
G36*
X10101191Y13066806D02*
X10131185Y13057708D01*
X10158821Y13042936D01*
X10183051Y13023051D01*
X10202936Y12998821D01*
X10217708Y12971185D01*
X10226806Y12941191D01*
X10230000Y12908767D01*
X10230000Y12491233D01*
X10226806Y12458809D01*
X10217708Y12428815D01*
X10202936Y12401179D01*
X10183051Y12376949D01*
X10158821Y12357064D01*
X10131185Y12342292D01*
X10101191Y12333194D01*
X10068767Y12330000D01*
X9701233Y12330000D01*
X9668809Y12333194D01*
X9638815Y12342292D01*
X9611179Y12357064D01*
X9586949Y12376949D01*
X9567064Y12401179D01*
X9552292Y12428815D01*
X9543194Y12458809D01*
X9540000Y12491233D01*
X9540000Y12908767D01*
X9543194Y12941191D01*
X9552292Y12971185D01*
X9567064Y12998821D01*
X9586949Y13023051D01*
X9611179Y13042936D01*
X9638815Y13057708D01*
X9668809Y13066806D01*
X9701233Y13070000D01*
X10068767Y13070000D01*
X10101191Y13066806D01*
X10101191Y13066806D01*
G37*
G36*
X9131191Y13066806D02*
X9161185Y13057708D01*
X9188821Y13042936D01*
X9213051Y13023051D01*
X9232936Y12998821D01*
X9247708Y12971185D01*
X9256806Y12941191D01*
X9260000Y12908767D01*
X9260000Y12491233D01*
X9256806Y12458809D01*
X9247708Y12428815D01*
X9232936Y12401179D01*
X9213051Y12376949D01*
X9188821Y12357064D01*
X9161185Y12342292D01*
X9131191Y12333194D01*
X9098767Y12330000D01*
X8731233Y12330000D01*
X8698809Y12333194D01*
X8668815Y12342292D01*
X8641179Y12357064D01*
X8616949Y12376949D01*
X8597064Y12401179D01*
X8582292Y12428815D01*
X8573194Y12458809D01*
X8570000Y12491233D01*
X8570000Y12908767D01*
X8573194Y12941191D01*
X8582292Y12971185D01*
X8597064Y12998821D01*
X8616949Y13023051D01*
X8641179Y13042936D01*
X8668815Y13057708D01*
X8698809Y13066806D01*
X8731233Y13070000D01*
X9098767Y13070000D01*
X9131191Y13066806D01*
X9131191Y13066806D01*
G37*
G36*
X13750000Y12450000D02*
X12750000Y12450000D01*
X12750000Y12950000D01*
X13750000Y12950000D01*
X13750000Y12450000D01*
X13750000Y12450000D01*
G37*
G36*
X11650000Y12450000D02*
X10650000Y12450000D01*
X10650000Y12950000D01*
X11650000Y12950000D01*
X11650000Y12450000D01*
X11650000Y12450000D01*
G37*
G36*
X23389611Y12923440D02*
X23403653Y12919180D01*
X23416601Y12912260D01*
X23427948Y12902948D01*
X23437260Y12891601D01*
X23444180Y12878653D01*
X23448440Y12864611D01*
X23450000Y12848769D01*
X23450000Y12651231D01*
X23448440Y12635389D01*
X23444180Y12621347D01*
X23437260Y12608399D01*
X23427948Y12597052D01*
X23416601Y12587740D01*
X23403653Y12580820D01*
X23389611Y12576560D01*
X23373769Y12575000D01*
X22601231Y12575000D01*
X22585389Y12576560D01*
X22571347Y12580820D01*
X22558399Y12587740D01*
X22547052Y12597052D01*
X22537740Y12608399D01*
X22530820Y12621347D01*
X22526560Y12635389D01*
X22525000Y12651231D01*
X22525000Y12848769D01*
X22526560Y12864611D01*
X22530820Y12878653D01*
X22537740Y12891601D01*
X22547052Y12902948D01*
X22558399Y12912260D01*
X22571347Y12919180D01*
X22585389Y12923440D01*
X22601231Y12925000D01*
X23373769Y12925000D01*
X23389611Y12923440D01*
X23389611Y12923440D01*
G37*
G36*
X27314611Y12923440D02*
X27328653Y12919180D01*
X27341601Y12912260D01*
X27352948Y12902948D01*
X27362260Y12891601D01*
X27369180Y12878653D01*
X27373440Y12864611D01*
X27375000Y12848769D01*
X27375000Y12651231D01*
X27373440Y12635389D01*
X27369180Y12621347D01*
X27362260Y12608399D01*
X27352948Y12597052D01*
X27341601Y12587740D01*
X27328653Y12580820D01*
X27314611Y12576560D01*
X27298769Y12575000D01*
X26526231Y12575000D01*
X26510389Y12576560D01*
X26496347Y12580820D01*
X26483399Y12587740D01*
X26472052Y12597052D01*
X26462740Y12608399D01*
X26455820Y12621347D01*
X26451560Y12635389D01*
X26450000Y12651231D01*
X26450000Y12848769D01*
X26451560Y12864611D01*
X26455820Y12878653D01*
X26462740Y12891601D01*
X26472052Y12902948D01*
X26483399Y12912260D01*
X26496347Y12919180D01*
X26510389Y12923440D01*
X26526231Y12925000D01*
X27298769Y12925000D01*
X27314611Y12923440D01*
X27314611Y12923440D01*
G37*
G36*
X28441191Y13616806D02*
X28471185Y13607708D01*
X28498821Y13592936D01*
X28523051Y13573051D01*
X28542936Y13548821D01*
X28557708Y13521185D01*
X28566806Y13491191D01*
X28570000Y13458767D01*
X28570000Y13091233D01*
X28566806Y13058809D01*
X28557708Y13028815D01*
X28542936Y13001179D01*
X28523051Y12976949D01*
X28498821Y12957064D01*
X28471185Y12942292D01*
X28441191Y12933194D01*
X28408767Y12930000D01*
X27991233Y12930000D01*
X27958809Y12933194D01*
X27928815Y12942292D01*
X27901179Y12957064D01*
X27876949Y12976949D01*
X27857064Y13001179D01*
X27842292Y13028815D01*
X27833194Y13058809D01*
X27830000Y13091233D01*
X27830000Y13458767D01*
X27833194Y13491191D01*
X27842292Y13521185D01*
X27857064Y13548821D01*
X27876949Y13573051D01*
X27901179Y13592936D01*
X27928815Y13607708D01*
X27958809Y13616806D01*
X27991233Y13620000D01*
X28408767Y13620000D01*
X28441191Y13616806D01*
X28441191Y13616806D01*
G37*
G36*
X20421191Y13766806D02*
X20451185Y13757708D01*
X20478821Y13742936D01*
X20503051Y13723051D01*
X20522936Y13698821D01*
X20537708Y13671185D01*
X20546806Y13641191D01*
X20550000Y13608767D01*
X20550000Y13191233D01*
X20546806Y13158809D01*
X20537708Y13128815D01*
X20522936Y13101179D01*
X20503051Y13076949D01*
X20478821Y13057064D01*
X20451185Y13042292D01*
X20421191Y13033194D01*
X20388767Y13030000D01*
X20021233Y13030000D01*
X19988809Y13033194D01*
X19958815Y13042292D01*
X19931179Y13057064D01*
X19906949Y13076949D01*
X19887064Y13101179D01*
X19872292Y13128815D01*
X19863194Y13158809D01*
X19860000Y13191233D01*
X19860000Y13608767D01*
X19863194Y13641191D01*
X19872292Y13671185D01*
X19887064Y13698821D01*
X19906949Y13723051D01*
X19931179Y13742936D01*
X19958815Y13757708D01*
X19988809Y13766806D01*
X20021233Y13770000D01*
X20388767Y13770000D01*
X20421191Y13766806D01*
X20421191Y13766806D01*
G37*
G36*
X19451191Y13766806D02*
X19481185Y13757708D01*
X19508821Y13742936D01*
X19533051Y13723051D01*
X19552936Y13698821D01*
X19567708Y13671185D01*
X19576806Y13641191D01*
X19580000Y13608767D01*
X19580000Y13191233D01*
X19576806Y13158809D01*
X19567708Y13128815D01*
X19552936Y13101179D01*
X19533051Y13076949D01*
X19508821Y13057064D01*
X19481185Y13042292D01*
X19451191Y13033194D01*
X19418767Y13030000D01*
X19051233Y13030000D01*
X19018809Y13033194D01*
X18988815Y13042292D01*
X18961179Y13057064D01*
X18936949Y13076949D01*
X18917064Y13101179D01*
X18902292Y13128815D01*
X18893194Y13158809D01*
X18890000Y13191233D01*
X18890000Y13608767D01*
X18893194Y13641191D01*
X18902292Y13671185D01*
X18917064Y13698821D01*
X18936949Y13723051D01*
X18961179Y13742936D01*
X18988815Y13757708D01*
X19018809Y13766806D01*
X19051233Y13770000D01*
X19418767Y13770000D01*
X19451191Y13766806D01*
X19451191Y13766806D01*
G37*
G36*
X15601191Y13786806D02*
X15631185Y13777708D01*
X15658821Y13762936D01*
X15683051Y13743051D01*
X15702936Y13718821D01*
X15717708Y13691185D01*
X15726806Y13661191D01*
X15730000Y13628767D01*
X15730000Y13211233D01*
X15726806Y13178809D01*
X15717708Y13148815D01*
X15702936Y13121179D01*
X15683051Y13096949D01*
X15658821Y13077064D01*
X15631185Y13062292D01*
X15601191Y13053194D01*
X15568767Y13050000D01*
X15201233Y13050000D01*
X15168809Y13053194D01*
X15138815Y13062292D01*
X15111179Y13077064D01*
X15086949Y13096949D01*
X15067064Y13121179D01*
X15052292Y13148815D01*
X15043194Y13178809D01*
X15040000Y13211233D01*
X15040000Y13628767D01*
X15043194Y13661191D01*
X15052292Y13691185D01*
X15067064Y13718821D01*
X15086949Y13743051D01*
X15111179Y13762936D01*
X15138815Y13777708D01*
X15168809Y13786806D01*
X15201233Y13790000D01*
X15568767Y13790000D01*
X15601191Y13786806D01*
X15601191Y13786806D01*
G37*
G36*
X14631191Y13786806D02*
X14661185Y13777708D01*
X14688821Y13762936D01*
X14713051Y13743051D01*
X14732936Y13718821D01*
X14747708Y13691185D01*
X14756806Y13661191D01*
X14760000Y13628767D01*
X14760000Y13211233D01*
X14756806Y13178809D01*
X14747708Y13148815D01*
X14732936Y13121179D01*
X14713051Y13096949D01*
X14688821Y13077064D01*
X14661185Y13062292D01*
X14631191Y13053194D01*
X14598767Y13050000D01*
X14231233Y13050000D01*
X14198809Y13053194D01*
X14168815Y13062292D01*
X14141179Y13077064D01*
X14116949Y13096949D01*
X14097064Y13121179D01*
X14082292Y13148815D01*
X14073194Y13178809D01*
X14070000Y13211233D01*
X14070000Y13628767D01*
X14073194Y13661191D01*
X14082292Y13691185D01*
X14097064Y13718821D01*
X14116949Y13743051D01*
X14141179Y13762936D01*
X14168815Y13777708D01*
X14198809Y13786806D01*
X14231233Y13790000D01*
X14598767Y13790000D01*
X14631191Y13786806D01*
X14631191Y13786806D01*
G37*
G36*
X16531191Y13786806D02*
X16561185Y13777708D01*
X16588821Y13762936D01*
X16613051Y13743051D01*
X16632936Y13718821D01*
X16647708Y13691185D01*
X16656806Y13661191D01*
X16660000Y13628767D01*
X16660000Y13211233D01*
X16656806Y13178809D01*
X16647708Y13148815D01*
X16632936Y13121179D01*
X16613051Y13096949D01*
X16588821Y13077064D01*
X16561185Y13062292D01*
X16531191Y13053194D01*
X16498767Y13050000D01*
X16131233Y13050000D01*
X16098809Y13053194D01*
X16068815Y13062292D01*
X16041179Y13077064D01*
X16016949Y13096949D01*
X15997064Y13121179D01*
X15982292Y13148815D01*
X15973194Y13178809D01*
X15970000Y13211233D01*
X15970000Y13628767D01*
X15973194Y13661191D01*
X15982292Y13691185D01*
X15997064Y13718821D01*
X16016949Y13743051D01*
X16041179Y13762936D01*
X16068815Y13777708D01*
X16098809Y13786806D01*
X16131233Y13790000D01*
X16498767Y13790000D01*
X16531191Y13786806D01*
X16531191Y13786806D01*
G37*
G36*
X17501191Y13786806D02*
X17531185Y13777708D01*
X17558821Y13762936D01*
X17583051Y13743051D01*
X17602936Y13718821D01*
X17617708Y13691185D01*
X17626806Y13661191D01*
X17630000Y13628767D01*
X17630000Y13211233D01*
X17626806Y13178809D01*
X17617708Y13148815D01*
X17602936Y13121179D01*
X17583051Y13096949D01*
X17558821Y13077064D01*
X17531185Y13062292D01*
X17501191Y13053194D01*
X17468767Y13050000D01*
X17101233Y13050000D01*
X17068809Y13053194D01*
X17038815Y13062292D01*
X17011179Y13077064D01*
X16986949Y13096949D01*
X16967064Y13121179D01*
X16952292Y13148815D01*
X16943194Y13178809D01*
X16940000Y13211233D01*
X16940000Y13628767D01*
X16943194Y13661191D01*
X16952292Y13691185D01*
X16967064Y13718821D01*
X16986949Y13743051D01*
X17011179Y13762936D01*
X17038815Y13777708D01*
X17068809Y13786806D01*
X17101233Y13790000D01*
X17468767Y13790000D01*
X17501191Y13786806D01*
X17501191Y13786806D01*
G37*
G36*
X21441191Y13756806D02*
X21471185Y13747708D01*
X21498821Y13732936D01*
X21523051Y13713051D01*
X21542936Y13688821D01*
X21557708Y13661185D01*
X21566806Y13631191D01*
X21570000Y13598767D01*
X21570000Y13231233D01*
X21566806Y13198809D01*
X21557708Y13168815D01*
X21542936Y13141179D01*
X21523051Y13116949D01*
X21498821Y13097064D01*
X21471185Y13082292D01*
X21441191Y13073194D01*
X21408767Y13070000D01*
X20991233Y13070000D01*
X20958809Y13073194D01*
X20928815Y13082292D01*
X20901179Y13097064D01*
X20876949Y13116949D01*
X20857064Y13141179D01*
X20842292Y13168815D01*
X20833194Y13198809D01*
X20830000Y13231233D01*
X20830000Y13598767D01*
X20833194Y13631191D01*
X20842292Y13661185D01*
X20857064Y13688821D01*
X20876949Y13713051D01*
X20901179Y13732936D01*
X20928815Y13747708D01*
X20958809Y13756806D01*
X20991233Y13760000D01*
X21408767Y13760000D01*
X21441191Y13756806D01*
X21441191Y13756806D01*
G37*
G36*
X18491191Y13756806D02*
X18521185Y13747708D01*
X18548821Y13732936D01*
X18573051Y13713051D01*
X18592936Y13688821D01*
X18607708Y13661185D01*
X18616806Y13631191D01*
X18620000Y13598767D01*
X18620000Y13231233D01*
X18616806Y13198809D01*
X18607708Y13168815D01*
X18592936Y13141179D01*
X18573051Y13116949D01*
X18548821Y13097064D01*
X18521185Y13082292D01*
X18491191Y13073194D01*
X18458767Y13070000D01*
X18041233Y13070000D01*
X18008809Y13073194D01*
X17978815Y13082292D01*
X17951179Y13097064D01*
X17926949Y13116949D01*
X17907064Y13141179D01*
X17892292Y13168815D01*
X17883194Y13198809D01*
X17880000Y13231233D01*
X17880000Y13598767D01*
X17883194Y13631191D01*
X17892292Y13661185D01*
X17907064Y13688821D01*
X17926949Y13713051D01*
X17951179Y13732936D01*
X17978815Y13747708D01*
X18008809Y13756806D01*
X18041233Y13760000D01*
X18458767Y13760000D01*
X18491191Y13756806D01*
X18491191Y13756806D01*
G37*
G36*
X23389611Y13423440D02*
X23403653Y13419180D01*
X23416601Y13412260D01*
X23427948Y13402948D01*
X23437260Y13391601D01*
X23444180Y13378653D01*
X23448440Y13364611D01*
X23450000Y13348769D01*
X23450000Y13151231D01*
X23448440Y13135389D01*
X23444180Y13121347D01*
X23437260Y13108399D01*
X23427948Y13097052D01*
X23416601Y13087740D01*
X23403653Y13080820D01*
X23389611Y13076560D01*
X23373769Y13075000D01*
X22601231Y13075000D01*
X22585389Y13076560D01*
X22571347Y13080820D01*
X22558399Y13087740D01*
X22547052Y13097052D01*
X22537740Y13108399D01*
X22530820Y13121347D01*
X22526560Y13135389D01*
X22525000Y13151231D01*
X22525000Y13348769D01*
X22526560Y13364611D01*
X22530820Y13378653D01*
X22537740Y13391601D01*
X22547052Y13402948D01*
X22558399Y13412260D01*
X22571347Y13419180D01*
X22585389Y13423440D01*
X22601231Y13425000D01*
X23373769Y13425000D01*
X23389611Y13423440D01*
X23389611Y13423440D01*
G37*
G36*
X27314611Y13423440D02*
X27328653Y13419180D01*
X27341601Y13412260D01*
X27352948Y13402948D01*
X27362260Y13391601D01*
X27369180Y13378653D01*
X27373440Y13364611D01*
X27375000Y13348769D01*
X27375000Y13151231D01*
X27373440Y13135389D01*
X27369180Y13121347D01*
X27362260Y13108399D01*
X27352948Y13097052D01*
X27341601Y13087740D01*
X27328653Y13080820D01*
X27314611Y13076560D01*
X27298769Y13075000D01*
X26526231Y13075000D01*
X26510389Y13076560D01*
X26496347Y13080820D01*
X26483399Y13087740D01*
X26472052Y13097052D01*
X26462740Y13108399D01*
X26455820Y13121347D01*
X26451560Y13135389D01*
X26450000Y13151231D01*
X26450000Y13348769D01*
X26451560Y13364611D01*
X26455820Y13378653D01*
X26462740Y13391601D01*
X26472052Y13402948D01*
X26483399Y13412260D01*
X26496347Y13419180D01*
X26510389Y13423440D01*
X26526231Y13425000D01*
X27298769Y13425000D01*
X27314611Y13423440D01*
X27314611Y13423440D01*
G37*
G36*
X11650000Y13100000D02*
X10650000Y13100000D01*
X10650000Y13600000D01*
X11650000Y13600000D01*
X11650000Y13100000D01*
X11650000Y13100000D01*
G37*
G36*
X13750000Y13100000D02*
X12750000Y13100000D01*
X12750000Y13600000D01*
X13750000Y13600000D01*
X13750000Y13100000D01*
X13750000Y13100000D01*
G37*
G36*
X34431191Y14066806D02*
X34461185Y14057708D01*
X34488821Y14042936D01*
X34513051Y14023051D01*
X34532936Y13998821D01*
X34547708Y13971185D01*
X34556806Y13941191D01*
X34560000Y13908767D01*
X34560000Y13491233D01*
X34556806Y13458809D01*
X34547708Y13428815D01*
X34532936Y13401179D01*
X34513051Y13376949D01*
X34488821Y13357064D01*
X34461185Y13342292D01*
X34431191Y13333194D01*
X34398767Y13330000D01*
X34031233Y13330000D01*
X33998809Y13333194D01*
X33968815Y13342292D01*
X33941179Y13357064D01*
X33916949Y13376949D01*
X33897064Y13401179D01*
X33882292Y13428815D01*
X33873194Y13458809D01*
X33870000Y13491233D01*
X33870000Y13908767D01*
X33873194Y13941191D01*
X33882292Y13971185D01*
X33897064Y13998821D01*
X33916949Y14023051D01*
X33941179Y14042936D01*
X33968815Y14057708D01*
X33998809Y14066806D01*
X34031233Y14070000D01*
X34398767Y14070000D01*
X34431191Y14066806D01*
X34431191Y14066806D01*
G37*
G36*
X10101191Y14066806D02*
X10131185Y14057708D01*
X10158821Y14042936D01*
X10183051Y14023051D01*
X10202936Y13998821D01*
X10217708Y13971185D01*
X10226806Y13941191D01*
X10230000Y13908767D01*
X10230000Y13491233D01*
X10226806Y13458809D01*
X10217708Y13428815D01*
X10202936Y13401179D01*
X10183051Y13376949D01*
X10158821Y13357064D01*
X10131185Y13342292D01*
X10101191Y13333194D01*
X10068767Y13330000D01*
X9701233Y13330000D01*
X9668809Y13333194D01*
X9638815Y13342292D01*
X9611179Y13357064D01*
X9586949Y13376949D01*
X9567064Y13401179D01*
X9552292Y13428815D01*
X9543194Y13458809D01*
X9540000Y13491233D01*
X9540000Y13908767D01*
X9543194Y13941191D01*
X9552292Y13971185D01*
X9567064Y13998821D01*
X9586949Y14023051D01*
X9611179Y14042936D01*
X9638815Y14057708D01*
X9668809Y14066806D01*
X9701233Y14070000D01*
X10068767Y14070000D01*
X10101191Y14066806D01*
X10101191Y14066806D01*
G37*
G36*
X35401191Y14066806D02*
X35431185Y14057708D01*
X35458821Y14042936D01*
X35483051Y14023051D01*
X35502936Y13998821D01*
X35517708Y13971185D01*
X35526806Y13941191D01*
X35530000Y13908767D01*
X35530000Y13491233D01*
X35526806Y13458809D01*
X35517708Y13428815D01*
X35502936Y13401179D01*
X35483051Y13376949D01*
X35458821Y13357064D01*
X35431185Y13342292D01*
X35401191Y13333194D01*
X35368767Y13330000D01*
X35001233Y13330000D01*
X34968809Y13333194D01*
X34938815Y13342292D01*
X34911179Y13357064D01*
X34886949Y13376949D01*
X34867064Y13401179D01*
X34852292Y13428815D01*
X34843194Y13458809D01*
X34840000Y13491233D01*
X34840000Y13908767D01*
X34843194Y13941191D01*
X34852292Y13971185D01*
X34867064Y13998821D01*
X34886949Y14023051D01*
X34911179Y14042936D01*
X34938815Y14057708D01*
X34968809Y14066806D01*
X35001233Y14070000D01*
X35368767Y14070000D01*
X35401191Y14066806D01*
X35401191Y14066806D01*
G37*
G36*
X9131191Y14066806D02*
X9161185Y14057708D01*
X9188821Y14042936D01*
X9213051Y14023051D01*
X9232936Y13998821D01*
X9247708Y13971185D01*
X9256806Y13941191D01*
X9260000Y13908767D01*
X9260000Y13491233D01*
X9256806Y13458809D01*
X9247708Y13428815D01*
X9232936Y13401179D01*
X9213051Y13376949D01*
X9188821Y13357064D01*
X9161185Y13342292D01*
X9131191Y13333194D01*
X9098767Y13330000D01*
X8731233Y13330000D01*
X8698809Y13333194D01*
X8668815Y13342292D01*
X8641179Y13357064D01*
X8616949Y13376949D01*
X8597064Y13401179D01*
X8582292Y13428815D01*
X8573194Y13458809D01*
X8570000Y13491233D01*
X8570000Y13908767D01*
X8573194Y13941191D01*
X8582292Y13971185D01*
X8597064Y13998821D01*
X8616949Y14023051D01*
X8641179Y14042936D01*
X8668815Y14057708D01*
X8698809Y14066806D01*
X8731233Y14070000D01*
X9098767Y14070000D01*
X9131191Y14066806D01*
X9131191Y14066806D01*
G37*
G36*
X33038841Y14445437D02*
X33082202Y14432284D01*
X33122159Y14410926D01*
X33157183Y14382183D01*
X33185926Y14347159D01*
X33207284Y14307202D01*
X33220437Y14263841D01*
X33225000Y14217517D01*
X33225000Y13707483D01*
X33220437Y13661159D01*
X33207284Y13617798D01*
X33185926Y13577841D01*
X33157183Y13542817D01*
X33122159Y13514074D01*
X33082202Y13492716D01*
X33038841Y13479563D01*
X32992517Y13475000D01*
X32407483Y13475000D01*
X32361159Y13479563D01*
X32317798Y13492716D01*
X32277841Y13514074D01*
X32242817Y13542817D01*
X32214074Y13577841D01*
X32192716Y13617798D01*
X32179563Y13661159D01*
X32175000Y13707483D01*
X32175000Y14217517D01*
X32179563Y14263841D01*
X32192716Y14307202D01*
X32214074Y14347159D01*
X32242817Y14382183D01*
X32277841Y14410926D01*
X32317798Y14432284D01*
X32361159Y14445437D01*
X32407483Y14450000D01*
X32992517Y14450000D01*
X33038841Y14445437D01*
X33038841Y14445437D01*
G37*
G36*
X23814611Y14423440D02*
X23828653Y14419180D01*
X23841601Y14412260D01*
X23852948Y14402948D01*
X23862260Y14391601D01*
X23869180Y14378653D01*
X23873440Y14364611D01*
X23875000Y14348769D01*
X23875000Y13576231D01*
X23873440Y13560389D01*
X23869180Y13546347D01*
X23862260Y13533399D01*
X23852948Y13522052D01*
X23841601Y13512740D01*
X23828653Y13505820D01*
X23814611Y13501560D01*
X23798769Y13500000D01*
X23601231Y13500000D01*
X23585389Y13501560D01*
X23571347Y13505820D01*
X23558399Y13512740D01*
X23547052Y13522052D01*
X23537740Y13533399D01*
X23530820Y13546347D01*
X23526560Y13560389D01*
X23525000Y13576231D01*
X23525000Y14348769D01*
X23526560Y14364611D01*
X23530820Y14378653D01*
X23537740Y14391601D01*
X23547052Y14402948D01*
X23558399Y14412260D01*
X23571347Y14419180D01*
X23585389Y14423440D01*
X23601231Y14425000D01*
X23798769Y14425000D01*
X23814611Y14423440D01*
X23814611Y14423440D01*
G37*
G36*
X25314611Y14423440D02*
X25328653Y14419180D01*
X25341601Y14412260D01*
X25352948Y14402948D01*
X25362260Y14391601D01*
X25369180Y14378653D01*
X25373440Y14364611D01*
X25375000Y14348769D01*
X25375000Y13576231D01*
X25373440Y13560389D01*
X25369180Y13546347D01*
X25362260Y13533399D01*
X25352948Y13522052D01*
X25341601Y13512740D01*
X25328653Y13505820D01*
X25314611Y13501560D01*
X25298769Y13500000D01*
X25101231Y13500000D01*
X25085389Y13501560D01*
X25071347Y13505820D01*
X25058399Y13512740D01*
X25047052Y13522052D01*
X25037740Y13533399D01*
X25030820Y13546347D01*
X25026560Y13560389D01*
X25025000Y13576231D01*
X25025000Y14348769D01*
X25026560Y14364611D01*
X25030820Y14378653D01*
X25037740Y14391601D01*
X25047052Y14402948D01*
X25058399Y14412260D01*
X25071347Y14419180D01*
X25085389Y14423440D01*
X25101231Y14425000D01*
X25298769Y14425000D01*
X25314611Y14423440D01*
X25314611Y14423440D01*
G37*
G36*
X24314611Y14423440D02*
X24328653Y14419180D01*
X24341601Y14412260D01*
X24352948Y14402948D01*
X24362260Y14391601D01*
X24369180Y14378653D01*
X24373440Y14364611D01*
X24375000Y14348769D01*
X24375000Y13576231D01*
X24373440Y13560389D01*
X24369180Y13546347D01*
X24362260Y13533399D01*
X24352948Y13522052D01*
X24341601Y13512740D01*
X24328653Y13505820D01*
X24314611Y13501560D01*
X24298769Y13500000D01*
X24101231Y13500000D01*
X24085389Y13501560D01*
X24071347Y13505820D01*
X24058399Y13512740D01*
X24047052Y13522052D01*
X24037740Y13533399D01*
X24030820Y13546347D01*
X24026560Y13560389D01*
X24025000Y13576231D01*
X24025000Y14348769D01*
X24026560Y14364611D01*
X24030820Y14378653D01*
X24037740Y14391601D01*
X24047052Y14402948D01*
X24058399Y14412260D01*
X24071347Y14419180D01*
X24085389Y14423440D01*
X24101231Y14425000D01*
X24298769Y14425000D01*
X24314611Y14423440D01*
X24314611Y14423440D01*
G37*
G36*
X25814611Y14423440D02*
X25828653Y14419180D01*
X25841601Y14412260D01*
X25852948Y14402948D01*
X25862260Y14391601D01*
X25869180Y14378653D01*
X25873440Y14364611D01*
X25875000Y14348769D01*
X25875000Y13576231D01*
X25873440Y13560389D01*
X25869180Y13546347D01*
X25862260Y13533399D01*
X25852948Y13522052D01*
X25841601Y13512740D01*
X25828653Y13505820D01*
X25814611Y13501560D01*
X25798769Y13500000D01*
X25601231Y13500000D01*
X25585389Y13501560D01*
X25571347Y13505820D01*
X25558399Y13512740D01*
X25547052Y13522052D01*
X25537740Y13533399D01*
X25530820Y13546347D01*
X25526560Y13560389D01*
X25525000Y13576231D01*
X25525000Y14348769D01*
X25526560Y14364611D01*
X25530820Y14378653D01*
X25537740Y14391601D01*
X25547052Y14402948D01*
X25558399Y14412260D01*
X25571347Y14419180D01*
X25585389Y14423440D01*
X25601231Y14425000D01*
X25798769Y14425000D01*
X25814611Y14423440D01*
X25814611Y14423440D01*
G37*
G36*
X26314611Y14423440D02*
X26328653Y14419180D01*
X26341601Y14412260D01*
X26352948Y14402948D01*
X26362260Y14391601D01*
X26369180Y14378653D01*
X26373440Y14364611D01*
X26375000Y14348769D01*
X26375000Y13576231D01*
X26373440Y13560389D01*
X26369180Y13546347D01*
X26362260Y13533399D01*
X26352948Y13522052D01*
X26341601Y13512740D01*
X26328653Y13505820D01*
X26314611Y13501560D01*
X26298769Y13500000D01*
X26101231Y13500000D01*
X26085389Y13501560D01*
X26071347Y13505820D01*
X26058399Y13512740D01*
X26047052Y13522052D01*
X26037740Y13533399D01*
X26030820Y13546347D01*
X26026560Y13560389D01*
X26025000Y13576231D01*
X26025000Y14348769D01*
X26026560Y14364611D01*
X26030820Y14378653D01*
X26037740Y14391601D01*
X26047052Y14402948D01*
X26058399Y14412260D01*
X26071347Y14419180D01*
X26085389Y14423440D01*
X26101231Y14425000D01*
X26298769Y14425000D01*
X26314611Y14423440D01*
X26314611Y14423440D01*
G37*
G36*
X24814611Y14423440D02*
X24828653Y14419180D01*
X24841601Y14412260D01*
X24852948Y14402948D01*
X24862260Y14391601D01*
X24869180Y14378653D01*
X24873440Y14364611D01*
X24875000Y14348769D01*
X24875000Y13576231D01*
X24873440Y13560389D01*
X24869180Y13546347D01*
X24862260Y13533399D01*
X24852948Y13522052D01*
X24841601Y13512740D01*
X24828653Y13505820D01*
X24814611Y13501560D01*
X24798769Y13500000D01*
X24601231Y13500000D01*
X24585389Y13501560D01*
X24571347Y13505820D01*
X24558399Y13512740D01*
X24547052Y13522052D01*
X24537740Y13533399D01*
X24530820Y13546347D01*
X24526560Y13560389D01*
X24525000Y13576231D01*
X24525000Y14348769D01*
X24526560Y14364611D01*
X24530820Y14378653D01*
X24537740Y14391601D01*
X24547052Y14402948D01*
X24558399Y14412260D01*
X24571347Y14419180D01*
X24585389Y14423440D01*
X24601231Y14425000D01*
X24798769Y14425000D01*
X24814611Y14423440D01*
X24814611Y14423440D01*
G37*
G36*
X38794609Y15282346D02*
X38945517Y15236568D01*
X39084595Y15162230D01*
X39206497Y15062187D01*
X39306540Y14940285D01*
X39380878Y14801207D01*
X39426656Y14650299D01*
X39442113Y14493360D01*
X39426656Y14336421D01*
X39380878Y14185513D01*
X39306540Y14046435D01*
X39206497Y13924533D01*
X39084595Y13824490D01*
X38945517Y13750152D01*
X38794609Y13704374D01*
X38676994Y13692790D01*
X36599366Y13692790D01*
X36481751Y13704374D01*
X36330843Y13750152D01*
X36191765Y13824490D01*
X36069863Y13924533D01*
X35969820Y14046435D01*
X35895482Y14185513D01*
X35849704Y14336421D01*
X35834247Y14493360D01*
X35849704Y14650299D01*
X35895482Y14801207D01*
X35969820Y14940285D01*
X36069863Y15062187D01*
X36191765Y15162230D01*
X36330843Y15236568D01*
X36481751Y15282346D01*
X36599366Y15293930D01*
X38676994Y15293930D01*
X38794609Y15282346D01*
X38794609Y15282346D01*
G37*
G36*
X30343722Y14769957D02*
X30391764Y14755384D01*
X30436048Y14731713D01*
X30474861Y14699861D01*
X30506713Y14661048D01*
X30530384Y14616764D01*
X30544957Y14568722D01*
X30550000Y14517518D01*
X30550000Y13957482D01*
X30544957Y13906278D01*
X30530384Y13858236D01*
X30506713Y13813952D01*
X30474861Y13775139D01*
X30436048Y13743287D01*
X30391764Y13719616D01*
X30343722Y13705043D01*
X30292518Y13700000D01*
X29307482Y13700000D01*
X29256278Y13705043D01*
X29208236Y13719616D01*
X29163952Y13743287D01*
X29125139Y13775139D01*
X29093287Y13813952D01*
X29069616Y13858236D01*
X29055043Y13906278D01*
X29050000Y13957482D01*
X29050000Y14517518D01*
X29055043Y14568722D01*
X29069616Y14616764D01*
X29093287Y14661048D01*
X29125139Y14699861D01*
X29163952Y14731713D01*
X29208236Y14755384D01*
X29256278Y14769957D01*
X29307482Y14775000D01*
X30292518Y14775000D01*
X30343722Y14769957D01*
X30343722Y14769957D01*
G37*
G36*
X28441191Y14586806D02*
X28471185Y14577708D01*
X28498821Y14562936D01*
X28523051Y14543051D01*
X28542936Y14518821D01*
X28557708Y14491185D01*
X28566806Y14461191D01*
X28570000Y14428767D01*
X28570000Y14061233D01*
X28566806Y14028809D01*
X28557708Y13998815D01*
X28542936Y13971179D01*
X28523051Y13946949D01*
X28498821Y13927064D01*
X28471185Y13912292D01*
X28441191Y13903194D01*
X28408767Y13900000D01*
X27991233Y13900000D01*
X27958809Y13903194D01*
X27928815Y13912292D01*
X27901179Y13927064D01*
X27876949Y13946949D01*
X27857064Y13971179D01*
X27842292Y13998815D01*
X27833194Y14028809D01*
X27830000Y14061233D01*
X27830000Y14428767D01*
X27833194Y14461191D01*
X27842292Y14491185D01*
X27857064Y14518821D01*
X27876949Y14543051D01*
X27901179Y14562936D01*
X27928815Y14577708D01*
X27958809Y14586806D01*
X27991233Y14590000D01*
X28408767Y14590000D01*
X28441191Y14586806D01*
X28441191Y14586806D01*
G37*
G36*
X19471191Y14776806D02*
X19501185Y14767708D01*
X19528821Y14752936D01*
X19553051Y14733051D01*
X19572936Y14708821D01*
X19587708Y14681185D01*
X19596806Y14651191D01*
X19600000Y14618767D01*
X19600000Y14201233D01*
X19596806Y14168809D01*
X19587708Y14138815D01*
X19572936Y14111179D01*
X19553051Y14086949D01*
X19528821Y14067064D01*
X19501185Y14052292D01*
X19471191Y14043194D01*
X19438767Y14040000D01*
X19071233Y14040000D01*
X19038809Y14043194D01*
X19008815Y14052292D01*
X18981179Y14067064D01*
X18956949Y14086949D01*
X18937064Y14111179D01*
X18922292Y14138815D01*
X18913194Y14168809D01*
X18910000Y14201233D01*
X18910000Y14618767D01*
X18913194Y14651191D01*
X18922292Y14681185D01*
X18937064Y14708821D01*
X18956949Y14733051D01*
X18981179Y14752936D01*
X19008815Y14767708D01*
X19038809Y14776806D01*
X19071233Y14780000D01*
X19438767Y14780000D01*
X19471191Y14776806D01*
X19471191Y14776806D01*
G37*
G36*
X20441191Y14776806D02*
X20471185Y14767708D01*
X20498821Y14752936D01*
X20523051Y14733051D01*
X20542936Y14708821D01*
X20557708Y14681185D01*
X20566806Y14651191D01*
X20570000Y14618767D01*
X20570000Y14201233D01*
X20566806Y14168809D01*
X20557708Y14138815D01*
X20542936Y14111179D01*
X20523051Y14086949D01*
X20498821Y14067064D01*
X20471185Y14052292D01*
X20441191Y14043194D01*
X20408767Y14040000D01*
X20041233Y14040000D01*
X20008809Y14043194D01*
X19978815Y14052292D01*
X19951179Y14067064D01*
X19926949Y14086949D01*
X19907064Y14111179D01*
X19892292Y14138815D01*
X19883194Y14168809D01*
X19880000Y14201233D01*
X19880000Y14618767D01*
X19883194Y14651191D01*
X19892292Y14681185D01*
X19907064Y14708821D01*
X19926949Y14733051D01*
X19951179Y14752936D01*
X19978815Y14767708D01*
X20008809Y14776806D01*
X20041233Y14780000D01*
X20408767Y14780000D01*
X20441191Y14776806D01*
X20441191Y14776806D01*
G37*
G36*
X18491191Y14726806D02*
X18521185Y14717708D01*
X18548821Y14702936D01*
X18573051Y14683051D01*
X18592936Y14658821D01*
X18607708Y14631185D01*
X18616806Y14601191D01*
X18620000Y14568767D01*
X18620000Y14201233D01*
X18616806Y14168809D01*
X18607708Y14138815D01*
X18592936Y14111179D01*
X18573051Y14086949D01*
X18548821Y14067064D01*
X18521185Y14052292D01*
X18491191Y14043194D01*
X18458767Y14040000D01*
X18041233Y14040000D01*
X18008809Y14043194D01*
X17978815Y14052292D01*
X17951179Y14067064D01*
X17926949Y14086949D01*
X17907064Y14111179D01*
X17892292Y14138815D01*
X17883194Y14168809D01*
X17880000Y14201233D01*
X17880000Y14568767D01*
X17883194Y14601191D01*
X17892292Y14631185D01*
X17907064Y14658821D01*
X17926949Y14683051D01*
X17951179Y14702936D01*
X17978815Y14717708D01*
X18008809Y14726806D01*
X18041233Y14730000D01*
X18458767Y14730000D01*
X18491191Y14726806D01*
X18491191Y14726806D01*
G37*
G36*
X21441191Y14726806D02*
X21471185Y14717708D01*
X21498821Y14702936D01*
X21523051Y14683051D01*
X21542936Y14658821D01*
X21557708Y14631185D01*
X21566806Y14601191D01*
X21570000Y14568767D01*
X21570000Y14201233D01*
X21566806Y14168809D01*
X21557708Y14138815D01*
X21542936Y14111179D01*
X21523051Y14086949D01*
X21498821Y14067064D01*
X21471185Y14052292D01*
X21441191Y14043194D01*
X21408767Y14040000D01*
X20991233Y14040000D01*
X20958809Y14043194D01*
X20928815Y14052292D01*
X20901179Y14067064D01*
X20876949Y14086949D01*
X20857064Y14111179D01*
X20842292Y14138815D01*
X20833194Y14168809D01*
X20830000Y14201233D01*
X20830000Y14568767D01*
X20833194Y14601191D01*
X20842292Y14631185D01*
X20857064Y14658821D01*
X20876949Y14683051D01*
X20901179Y14702936D01*
X20928815Y14717708D01*
X20958809Y14726806D01*
X20991233Y14730000D01*
X21408767Y14730000D01*
X21441191Y14726806D01*
X21441191Y14726806D01*
G37*
G36*
X11441191Y14856806D02*
X11471185Y14847708D01*
X11498821Y14832936D01*
X11523051Y14813051D01*
X11542936Y14788821D01*
X11557708Y14761185D01*
X11566806Y14731191D01*
X11570000Y14698767D01*
X11570000Y14331233D01*
X11566806Y14298809D01*
X11557708Y14268815D01*
X11542936Y14241179D01*
X11523051Y14216949D01*
X11498821Y14197064D01*
X11471185Y14182292D01*
X11441191Y14173194D01*
X11408767Y14170000D01*
X10991233Y14170000D01*
X10958809Y14173194D01*
X10928815Y14182292D01*
X10901179Y14197064D01*
X10876949Y14216949D01*
X10857064Y14241179D01*
X10842292Y14268815D01*
X10833194Y14298809D01*
X10830000Y14331233D01*
X10830000Y14698767D01*
X10833194Y14731191D01*
X10842292Y14761185D01*
X10857064Y14788821D01*
X10876949Y14813051D01*
X10901179Y14832936D01*
X10928815Y14847708D01*
X10958809Y14856806D01*
X10991233Y14860000D01*
X11408767Y14860000D01*
X11441191Y14856806D01*
X11441191Y14856806D01*
G37*
G36*
X12441191Y14856806D02*
X12471185Y14847708D01*
X12498821Y14832936D01*
X12523051Y14813051D01*
X12542936Y14788821D01*
X12557708Y14761185D01*
X12566806Y14731191D01*
X12570000Y14698767D01*
X12570000Y14331233D01*
X12566806Y14298809D01*
X12557708Y14268815D01*
X12542936Y14241179D01*
X12523051Y14216949D01*
X12498821Y14197064D01*
X12471185Y14182292D01*
X12441191Y14173194D01*
X12408767Y14170000D01*
X11991233Y14170000D01*
X11958809Y14173194D01*
X11928815Y14182292D01*
X11901179Y14197064D01*
X11876949Y14216949D01*
X11857064Y14241179D01*
X11842292Y14268815D01*
X11833194Y14298809D01*
X11830000Y14331233D01*
X11830000Y14698767D01*
X11833194Y14731191D01*
X11842292Y14761185D01*
X11857064Y14788821D01*
X11876949Y14813051D01*
X11901179Y14832936D01*
X11928815Y14847708D01*
X11958809Y14856806D01*
X11991233Y14860000D01*
X12408767Y14860000D01*
X12441191Y14856806D01*
X12441191Y14856806D01*
G37*
G36*
X9141191Y15056806D02*
X9171185Y15047708D01*
X9198821Y15032936D01*
X9223051Y15013051D01*
X9242936Y14988821D01*
X9257708Y14961185D01*
X9266806Y14931191D01*
X9270000Y14898767D01*
X9270000Y14531233D01*
X9266806Y14498809D01*
X9257708Y14468815D01*
X9242936Y14441179D01*
X9223051Y14416949D01*
X9198821Y14397064D01*
X9171185Y14382292D01*
X9141191Y14373194D01*
X9108767Y14370000D01*
X8691233Y14370000D01*
X8658809Y14373194D01*
X8628815Y14382292D01*
X8601179Y14397064D01*
X8576949Y14416949D01*
X8557064Y14441179D01*
X8542292Y14468815D01*
X8533194Y14498809D01*
X8530000Y14531233D01*
X8530000Y14898767D01*
X8533194Y14931191D01*
X8542292Y14961185D01*
X8557064Y14988821D01*
X8576949Y15013051D01*
X8601179Y15032936D01*
X8628815Y15047708D01*
X8658809Y15056806D01*
X8691233Y15060000D01*
X9108767Y15060000D01*
X9141191Y15056806D01*
X9141191Y15056806D01*
G37*
G36*
X35345845Y15780785D02*
X35436839Y15743094D01*
X35518730Y15688376D01*
X35588376Y15618730D01*
X35616293Y15576949D01*
X35643094Y15536839D01*
X35680785Y15445845D01*
X35700000Y15349246D01*
X35700000Y15250754D01*
X35680785Y15154155D01*
X35650286Y15080524D01*
X35643094Y15063161D01*
X35607223Y15009476D01*
X35588375Y14981269D01*
X35518731Y14911625D01*
X35436839Y14856906D01*
X35345845Y14819215D01*
X35249246Y14800000D01*
X35150754Y14800000D01*
X35054155Y14819215D01*
X34963161Y14856906D01*
X34881269Y14911625D01*
X34811625Y14981269D01*
X34792778Y15009476D01*
X34756906Y15063161D01*
X34749714Y15080524D01*
X34719215Y15154155D01*
X34700000Y15250754D01*
X34700000Y15349246D01*
X34719215Y15445845D01*
X34756906Y15536839D01*
X34783707Y15576949D01*
X34811624Y15618730D01*
X34881270Y15688376D01*
X34963161Y15743094D01*
X35054155Y15780785D01*
X35150754Y15800000D01*
X35249246Y15800000D01*
X35345845Y15780785D01*
X35345845Y15780785D01*
G37*
G36*
X20431191Y15766806D02*
X20461185Y15757708D01*
X20488821Y15742936D01*
X20513051Y15723051D01*
X20532936Y15698821D01*
X20547708Y15671185D01*
X20556806Y15641191D01*
X20560000Y15608767D01*
X20560000Y15191233D01*
X20556806Y15158809D01*
X20547708Y15128815D01*
X20532936Y15101179D01*
X20513051Y15076949D01*
X20488821Y15057064D01*
X20461185Y15042292D01*
X20431191Y15033194D01*
X20398767Y15030000D01*
X20031233Y15030000D01*
X19998809Y15033194D01*
X19968815Y15042292D01*
X19941179Y15057064D01*
X19916949Y15076949D01*
X19897064Y15101179D01*
X19882292Y15128815D01*
X19873194Y15158809D01*
X19870000Y15191233D01*
X19870000Y15608767D01*
X19873194Y15641191D01*
X19882292Y15671185D01*
X19897064Y15698821D01*
X19916949Y15723051D01*
X19941179Y15742936D01*
X19968815Y15757708D01*
X19998809Y15766806D01*
X20031233Y15770000D01*
X20398767Y15770000D01*
X20431191Y15766806D01*
X20431191Y15766806D01*
G37*
G36*
X21401191Y15766806D02*
X21431185Y15757708D01*
X21458821Y15742936D01*
X21483051Y15723051D01*
X21502936Y15698821D01*
X21517708Y15671185D01*
X21526806Y15641191D01*
X21530000Y15608767D01*
X21530000Y15191233D01*
X21526806Y15158809D01*
X21517708Y15128815D01*
X21502936Y15101179D01*
X21483051Y15076949D01*
X21458821Y15057064D01*
X21431185Y15042292D01*
X21401191Y15033194D01*
X21368767Y15030000D01*
X21001233Y15030000D01*
X20968809Y15033194D01*
X20938815Y15042292D01*
X20911179Y15057064D01*
X20886949Y15076949D01*
X20867064Y15101179D01*
X20852292Y15128815D01*
X20843194Y15158809D01*
X20840000Y15191233D01*
X20840000Y15608767D01*
X20843194Y15641191D01*
X20852292Y15671185D01*
X20867064Y15698821D01*
X20886949Y15723051D01*
X20911179Y15742936D01*
X20938815Y15757708D01*
X20968809Y15766806D01*
X21001233Y15770000D01*
X21368767Y15770000D01*
X21401191Y15766806D01*
X21401191Y15766806D01*
G37*
G36*
X33038841Y16020437D02*
X33082202Y16007284D01*
X33122159Y15985926D01*
X33157183Y15957183D01*
X33185926Y15922159D01*
X33207284Y15882202D01*
X33220437Y15838841D01*
X33225000Y15792517D01*
X33225000Y15282483D01*
X33220437Y15236159D01*
X33207284Y15192798D01*
X33185926Y15152841D01*
X33157183Y15117817D01*
X33122159Y15089074D01*
X33082202Y15067716D01*
X33038841Y15054563D01*
X32992517Y15050000D01*
X32407483Y15050000D01*
X32361159Y15054563D01*
X32317798Y15067716D01*
X32277841Y15089074D01*
X32242817Y15117817D01*
X32214074Y15152841D01*
X32192716Y15192798D01*
X32179563Y15236159D01*
X32175000Y15282483D01*
X32175000Y15792517D01*
X32179563Y15838841D01*
X32192716Y15882202D01*
X32214074Y15922159D01*
X32242817Y15957183D01*
X32277841Y15985926D01*
X32317798Y16007284D01*
X32361159Y16020437D01*
X32407483Y16025000D01*
X32992517Y16025000D01*
X33038841Y16020437D01*
X33038841Y16020437D01*
G37*
G36*
X11441191Y15826806D02*
X11471185Y15817708D01*
X11498821Y15802936D01*
X11523051Y15783051D01*
X11542936Y15758821D01*
X11557708Y15731185D01*
X11566806Y15701191D01*
X11570000Y15668767D01*
X11570000Y15301233D01*
X11566806Y15268809D01*
X11557708Y15238815D01*
X11542936Y15211179D01*
X11523051Y15186949D01*
X11498821Y15167064D01*
X11471185Y15152292D01*
X11441191Y15143194D01*
X11408767Y15140000D01*
X10991233Y15140000D01*
X10958809Y15143194D01*
X10928815Y15152292D01*
X10901179Y15167064D01*
X10876949Y15186949D01*
X10857064Y15211179D01*
X10842292Y15238815D01*
X10833194Y15268809D01*
X10830000Y15301233D01*
X10830000Y15668767D01*
X10833194Y15701191D01*
X10842292Y15731185D01*
X10857064Y15758821D01*
X10876949Y15783051D01*
X10901179Y15802936D01*
X10928815Y15817708D01*
X10958809Y15826806D01*
X10991233Y15830000D01*
X11408767Y15830000D01*
X11441191Y15826806D01*
X11441191Y15826806D01*
G37*
G36*
X12441191Y15826806D02*
X12471185Y15817708D01*
X12498821Y15802936D01*
X12523051Y15783051D01*
X12542936Y15758821D01*
X12557708Y15731185D01*
X12566806Y15701191D01*
X12570000Y15668767D01*
X12570000Y15301233D01*
X12566806Y15268809D01*
X12557708Y15238815D01*
X12542936Y15211179D01*
X12523051Y15186949D01*
X12498821Y15167064D01*
X12471185Y15152292D01*
X12441191Y15143194D01*
X12408767Y15140000D01*
X11991233Y15140000D01*
X11958809Y15143194D01*
X11928815Y15152292D01*
X11901179Y15167064D01*
X11876949Y15186949D01*
X11857064Y15211179D01*
X11842292Y15238815D01*
X11833194Y15268809D01*
X11830000Y15301233D01*
X11830000Y15668767D01*
X11833194Y15701191D01*
X11842292Y15731185D01*
X11857064Y15758821D01*
X11876949Y15783051D01*
X11901179Y15802936D01*
X11928815Y15817708D01*
X11958809Y15826806D01*
X11991233Y15830000D01*
X12408767Y15830000D01*
X12441191Y15826806D01*
X12441191Y15826806D01*
G37*
G36*
X24500000Y15200000D02*
X23500000Y15200000D01*
X23500000Y16100000D01*
X24500000Y16100000D01*
X24500000Y15200000D01*
X24500000Y15200000D01*
G37*
G36*
X25900000Y15200000D02*
X24900000Y15200000D01*
X24900000Y16100000D01*
X25900000Y16100000D01*
X25900000Y15200000D01*
X25900000Y15200000D01*
G37*
G36*
X9141191Y16026806D02*
X9171185Y16017708D01*
X9198821Y16002936D01*
X9223051Y15983051D01*
X9242936Y15958821D01*
X9257708Y15931185D01*
X9266806Y15901191D01*
X9270000Y15868767D01*
X9270000Y15501233D01*
X9266806Y15468809D01*
X9257708Y15438815D01*
X9242936Y15411179D01*
X9223051Y15386949D01*
X9198821Y15367064D01*
X9171185Y15352292D01*
X9141191Y15343194D01*
X9108767Y15340000D01*
X8691233Y15340000D01*
X8658809Y15343194D01*
X8628815Y15352292D01*
X8601179Y15367064D01*
X8576949Y15386949D01*
X8557064Y15411179D01*
X8542292Y15438815D01*
X8533194Y15468809D01*
X8530000Y15501233D01*
X8530000Y15868767D01*
X8533194Y15901191D01*
X8542292Y15931185D01*
X8557064Y15958821D01*
X8576949Y15983051D01*
X8601179Y16002936D01*
X8628815Y16017708D01*
X8658809Y16026806D01*
X8691233Y16030000D01*
X9108767Y16030000D01*
X9141191Y16026806D01*
X9141191Y16026806D01*
G37*
G36*
X26891191Y16056806D02*
X26921185Y16047708D01*
X26948821Y16032936D01*
X26973051Y16013051D01*
X26992936Y15988821D01*
X27007708Y15961185D01*
X27016806Y15931191D01*
X27020000Y15898767D01*
X27020000Y15531233D01*
X27016806Y15498809D01*
X27007708Y15468815D01*
X26992936Y15441179D01*
X26973051Y15416949D01*
X26948821Y15397064D01*
X26921185Y15382292D01*
X26891191Y15373194D01*
X26858767Y15370000D01*
X26441233Y15370000D01*
X26408809Y15373194D01*
X26378815Y15382292D01*
X26351179Y15397064D01*
X26326949Y15416949D01*
X26307064Y15441179D01*
X26292292Y15468815D01*
X26283194Y15498809D01*
X26280000Y15531233D01*
X26280000Y15898767D01*
X26283194Y15931191D01*
X26292292Y15961185D01*
X26307064Y15988821D01*
X26326949Y16013051D01*
X26351179Y16032936D01*
X26378815Y16047708D01*
X26408809Y16056806D01*
X26441233Y16060000D01*
X26858767Y16060000D01*
X26891191Y16056806D01*
X26891191Y16056806D01*
G37*
G36*
X22991191Y16056806D02*
X23021185Y16047708D01*
X23048821Y16032936D01*
X23073051Y16013051D01*
X23092936Y15988821D01*
X23107708Y15961185D01*
X23116806Y15931191D01*
X23120000Y15898767D01*
X23120000Y15531233D01*
X23116806Y15498809D01*
X23107708Y15468815D01*
X23092936Y15441179D01*
X23073051Y15416949D01*
X23048821Y15397064D01*
X23021185Y15382292D01*
X22991191Y15373194D01*
X22958767Y15370000D01*
X22541233Y15370000D01*
X22508809Y15373194D01*
X22478815Y15382292D01*
X22451179Y15397064D01*
X22426949Y15416949D01*
X22407064Y15441179D01*
X22392292Y15468815D01*
X22383194Y15498809D01*
X22380000Y15531233D01*
X22380000Y15898767D01*
X22383194Y15931191D01*
X22392292Y15961185D01*
X22407064Y15988821D01*
X22426949Y16013051D01*
X22451179Y16032936D01*
X22478815Y16047708D01*
X22508809Y16056806D01*
X22541233Y16060000D01*
X22958767Y16060000D01*
X22991191Y16056806D01*
X22991191Y16056806D01*
G37*
G36*
X28281191Y16266806D02*
X28311185Y16257708D01*
X28338821Y16242936D01*
X28363051Y16223051D01*
X28382936Y16198821D01*
X28397708Y16171185D01*
X28406806Y16141191D01*
X28410000Y16108767D01*
X28410000Y15691233D01*
X28406806Y15658809D01*
X28397708Y15628815D01*
X28382936Y15601179D01*
X28363051Y15576949D01*
X28338821Y15557064D01*
X28311185Y15542292D01*
X28281191Y15533194D01*
X28248767Y15530000D01*
X27881233Y15530000D01*
X27848809Y15533194D01*
X27818815Y15542292D01*
X27791179Y15557064D01*
X27766949Y15576949D01*
X27747064Y15601179D01*
X27732292Y15628815D01*
X27723194Y15658809D01*
X27720000Y15691233D01*
X27720000Y16108767D01*
X27723194Y16141191D01*
X27732292Y16171185D01*
X27747064Y16198821D01*
X27766949Y16223051D01*
X27791179Y16242936D01*
X27818815Y16257708D01*
X27848809Y16266806D01*
X27881233Y16270000D01*
X28248767Y16270000D01*
X28281191Y16266806D01*
X28281191Y16266806D01*
G37*
G36*
X29251191Y16266806D02*
X29281185Y16257708D01*
X29308821Y16242936D01*
X29333051Y16223051D01*
X29352936Y16198821D01*
X29367708Y16171185D01*
X29376806Y16141191D01*
X29380000Y16108767D01*
X29380000Y15691233D01*
X29376806Y15658809D01*
X29367708Y15628815D01*
X29352936Y15601179D01*
X29333051Y15576949D01*
X29308821Y15557064D01*
X29281185Y15542292D01*
X29251191Y15533194D01*
X29218767Y15530000D01*
X28851233Y15530000D01*
X28818809Y15533194D01*
X28788815Y15542292D01*
X28761179Y15557064D01*
X28736949Y15576949D01*
X28717064Y15601179D01*
X28702292Y15628815D01*
X28693194Y15658809D01*
X28690000Y15691233D01*
X28690000Y16108767D01*
X28693194Y16141191D01*
X28702292Y16171185D01*
X28717064Y16198821D01*
X28736949Y16223051D01*
X28761179Y16242936D01*
X28788815Y16257708D01*
X28818809Y16266806D01*
X28851233Y16270000D01*
X29218767Y16270000D01*
X29251191Y16266806D01*
X29251191Y16266806D01*
G37*
G36*
X30506191Y16266806D02*
X30536185Y16257708D01*
X30563821Y16242936D01*
X30588051Y16223051D01*
X30607936Y16198821D01*
X30622708Y16171185D01*
X30631806Y16141191D01*
X30635000Y16108767D01*
X30635000Y15691233D01*
X30631806Y15658809D01*
X30622708Y15628815D01*
X30607936Y15601179D01*
X30588051Y15576949D01*
X30563821Y15557064D01*
X30536185Y15542292D01*
X30506191Y15533194D01*
X30473767Y15530000D01*
X30106233Y15530000D01*
X30073809Y15533194D01*
X30043815Y15542292D01*
X30016179Y15557064D01*
X29991949Y15576949D01*
X29972064Y15601179D01*
X29957292Y15628815D01*
X29948194Y15658809D01*
X29945000Y15691233D01*
X29945000Y16108767D01*
X29948194Y16141191D01*
X29957292Y16171185D01*
X29972064Y16198821D01*
X29991949Y16223051D01*
X30016179Y16242936D01*
X30043815Y16257708D01*
X30073809Y16266806D01*
X30106233Y16270000D01*
X30473767Y16270000D01*
X30506191Y16266806D01*
X30506191Y16266806D01*
G37*
G36*
X31476191Y16266806D02*
X31506185Y16257708D01*
X31533821Y16242936D01*
X31558051Y16223051D01*
X31577936Y16198821D01*
X31592708Y16171185D01*
X31601806Y16141191D01*
X31605000Y16108767D01*
X31605000Y15691233D01*
X31601806Y15658809D01*
X31592708Y15628815D01*
X31577936Y15601179D01*
X31558051Y15576949D01*
X31533821Y15557064D01*
X31506185Y15542292D01*
X31476191Y15533194D01*
X31443767Y15530000D01*
X31076233Y15530000D01*
X31043809Y15533194D01*
X31013815Y15542292D01*
X30986179Y15557064D01*
X30961949Y15576949D01*
X30942064Y15601179D01*
X30927292Y15628815D01*
X30918194Y15658809D01*
X30915000Y15691233D01*
X30915000Y16108767D01*
X30918194Y16141191D01*
X30927292Y16171185D01*
X30942064Y16198821D01*
X30961949Y16223051D01*
X30986179Y16242936D01*
X31013815Y16257708D01*
X31043809Y16266806D01*
X31076233Y16270000D01*
X31443767Y16270000D01*
X31476191Y16266806D01*
X31476191Y16266806D01*
G37*
G36*
X34745845Y16780785D02*
X34836839Y16743094D01*
X34918730Y16688376D01*
X34988376Y16618730D01*
X35043094Y16536839D01*
X35080785Y16445845D01*
X35100000Y16349246D01*
X35100000Y16250754D01*
X35080785Y16154155D01*
X35055454Y16093000D01*
X35043094Y16063161D01*
X34988376Y15981270D01*
X34918730Y15911624D01*
X34854590Y15868767D01*
X34836839Y15856906D01*
X34745845Y15819215D01*
X34649246Y15800000D01*
X34550754Y15800000D01*
X34454155Y15819215D01*
X34363161Y15856906D01*
X34345410Y15868767D01*
X34281270Y15911624D01*
X34211624Y15981270D01*
X34156906Y16063161D01*
X34144546Y16093000D01*
X34119215Y16154155D01*
X34100000Y16250754D01*
X34100000Y16349246D01*
X34119215Y16445845D01*
X34156906Y16536839D01*
X34211624Y16618730D01*
X34281270Y16688376D01*
X34363161Y16743094D01*
X34454155Y16780785D01*
X34550754Y16800000D01*
X34649246Y16800000D01*
X34745845Y16780785D01*
X34745845Y16780785D01*
G37*
G36*
X7249765Y17047488D02*
X7273100Y17040410D01*
X7294599Y17028919D01*
X7313448Y17013448D01*
X7328919Y16994599D01*
X7340410Y16973100D01*
X7347488Y16949765D01*
X7350000Y16924267D01*
X7350000Y16075733D01*
X7347488Y16050235D01*
X7340410Y16026900D01*
X7328919Y16005401D01*
X7313448Y15986552D01*
X7294599Y15971081D01*
X7273100Y15959590D01*
X7249765Y15952512D01*
X7224267Y15950000D01*
X5575733Y15950000D01*
X5550235Y15952512D01*
X5526900Y15959590D01*
X5505401Y15971081D01*
X5486552Y15986552D01*
X5471081Y16005401D01*
X5459590Y16026900D01*
X5452512Y16050235D01*
X5450000Y16075733D01*
X5450000Y16924267D01*
X5452512Y16949765D01*
X5459590Y16973100D01*
X5471081Y16994599D01*
X5486552Y17013448D01*
X5505401Y17028919D01*
X5526900Y17040410D01*
X5550235Y17047488D01*
X5575733Y17050000D01*
X7224267Y17050000D01*
X7249765Y17047488D01*
X7249765Y17047488D01*
G37*
G36*
X20431191Y16716806D02*
X20461185Y16707708D01*
X20488821Y16692936D01*
X20513051Y16673051D01*
X20532936Y16648821D01*
X20547708Y16621185D01*
X20556806Y16591191D01*
X20560000Y16558767D01*
X20560000Y16141233D01*
X20556806Y16108809D01*
X20547708Y16078815D01*
X20532936Y16051179D01*
X20513051Y16026949D01*
X20488821Y16007064D01*
X20461185Y15992292D01*
X20431191Y15983194D01*
X20398767Y15980000D01*
X20031233Y15980000D01*
X19998809Y15983194D01*
X19968815Y15992292D01*
X19941179Y16007064D01*
X19916949Y16026949D01*
X19897064Y16051179D01*
X19882292Y16078815D01*
X19873194Y16108809D01*
X19870000Y16141233D01*
X19870000Y16558767D01*
X19873194Y16591191D01*
X19882292Y16621185D01*
X19897064Y16648821D01*
X19916949Y16673051D01*
X19941179Y16692936D01*
X19968815Y16707708D01*
X19998809Y16716806D01*
X20031233Y16720000D01*
X20398767Y16720000D01*
X20431191Y16716806D01*
X20431191Y16716806D01*
G37*
G36*
X21401191Y16716806D02*
X21431185Y16707708D01*
X21458821Y16692936D01*
X21483051Y16673051D01*
X21502936Y16648821D01*
X21517708Y16621185D01*
X21526806Y16591191D01*
X21530000Y16558767D01*
X21530000Y16141233D01*
X21526806Y16108809D01*
X21517708Y16078815D01*
X21502936Y16051179D01*
X21483051Y16026949D01*
X21458821Y16007064D01*
X21431185Y15992292D01*
X21401191Y15983194D01*
X21368767Y15980000D01*
X21001233Y15980000D01*
X20968809Y15983194D01*
X20938815Y15992292D01*
X20911179Y16007064D01*
X20886949Y16026949D01*
X20867064Y16051179D01*
X20852292Y16078815D01*
X20843194Y16108809D01*
X20840000Y16141233D01*
X20840000Y16558767D01*
X20843194Y16591191D01*
X20852292Y16621185D01*
X20867064Y16648821D01*
X20886949Y16673051D01*
X20911179Y16692936D01*
X20938815Y16707708D01*
X20968809Y16716806D01*
X21001233Y16720000D01*
X21368767Y16720000D01*
X21401191Y16716806D01*
X21401191Y16716806D01*
G37*
G36*
X24500000Y16300000D02*
X23500000Y16300000D01*
X23500000Y17200000D01*
X24500000Y17200000D01*
X24500000Y16300000D01*
X24500000Y16300000D01*
G37*
G36*
X25900000Y16300000D02*
X24900000Y16300000D01*
X24900000Y17200000D01*
X25900000Y17200000D01*
X25900000Y16300000D01*
X25900000Y16300000D01*
G37*
G36*
X9131191Y17066806D02*
X9161185Y17057708D01*
X9188821Y17042936D01*
X9213051Y17023051D01*
X9232936Y16998821D01*
X9247708Y16971185D01*
X9256806Y16941191D01*
X9260000Y16908767D01*
X9260000Y16491233D01*
X9256806Y16458809D01*
X9247708Y16428815D01*
X9232936Y16401179D01*
X9213051Y16376949D01*
X9188821Y16357064D01*
X9161185Y16342292D01*
X9131191Y16333194D01*
X9098767Y16330000D01*
X8731233Y16330000D01*
X8698809Y16333194D01*
X8668815Y16342292D01*
X8641179Y16357064D01*
X8616949Y16376949D01*
X8597064Y16401179D01*
X8582292Y16428815D01*
X8573194Y16458809D01*
X8570000Y16491233D01*
X8570000Y16908767D01*
X8573194Y16941191D01*
X8582292Y16971185D01*
X8597064Y16998821D01*
X8616949Y17023051D01*
X8641179Y17042936D01*
X8668815Y17057708D01*
X8698809Y17066806D01*
X8731233Y17070000D01*
X9098767Y17070000D01*
X9131191Y17066806D01*
X9131191Y17066806D01*
G37*
G36*
X10101191Y17066806D02*
X10131185Y17057708D01*
X10158821Y17042936D01*
X10183051Y17023051D01*
X10202936Y16998821D01*
X10217708Y16971185D01*
X10226806Y16941191D01*
X10230000Y16908767D01*
X10230000Y16491233D01*
X10226806Y16458809D01*
X10217708Y16428815D01*
X10202936Y16401179D01*
X10183051Y16376949D01*
X10158821Y16357064D01*
X10131185Y16342292D01*
X10101191Y16333194D01*
X10068767Y16330000D01*
X9701233Y16330000D01*
X9668809Y16333194D01*
X9638815Y16342292D01*
X9611179Y16357064D01*
X9586949Y16376949D01*
X9567064Y16401179D01*
X9552292Y16428815D01*
X9543194Y16458809D01*
X9540000Y16491233D01*
X9540000Y16908767D01*
X9543194Y16941191D01*
X9552292Y16971185D01*
X9567064Y16998821D01*
X9586949Y17023051D01*
X9611179Y17042936D01*
X9638815Y17057708D01*
X9668809Y17066806D01*
X9701233Y17070000D01*
X10068767Y17070000D01*
X10101191Y17066806D01*
X10101191Y17066806D01*
G37*
G36*
X26891191Y17026806D02*
X26921185Y17017708D01*
X26948821Y17002936D01*
X26973051Y16983051D01*
X26992936Y16958821D01*
X27007708Y16931185D01*
X27016806Y16901191D01*
X27020000Y16868767D01*
X27020000Y16501233D01*
X27016806Y16468809D01*
X27007708Y16438815D01*
X26992936Y16411179D01*
X26973051Y16386949D01*
X26948821Y16367064D01*
X26921185Y16352292D01*
X26891191Y16343194D01*
X26858767Y16340000D01*
X26441233Y16340000D01*
X26408809Y16343194D01*
X26378815Y16352292D01*
X26351179Y16367064D01*
X26326949Y16386949D01*
X26307064Y16411179D01*
X26292292Y16438815D01*
X26283194Y16468809D01*
X26280000Y16501233D01*
X26280000Y16868767D01*
X26283194Y16901191D01*
X26292292Y16931185D01*
X26307064Y16958821D01*
X26326949Y16983051D01*
X26351179Y17002936D01*
X26378815Y17017708D01*
X26408809Y17026806D01*
X26441233Y17030000D01*
X26858767Y17030000D01*
X26891191Y17026806D01*
X26891191Y17026806D01*
G37*
G36*
X22991191Y17026806D02*
X23021185Y17017708D01*
X23048821Y17002936D01*
X23073051Y16983051D01*
X23092936Y16958821D01*
X23107708Y16931185D01*
X23116806Y16901191D01*
X23120000Y16868767D01*
X23120000Y16501233D01*
X23116806Y16468809D01*
X23107708Y16438815D01*
X23092936Y16411179D01*
X23073051Y16386949D01*
X23048821Y16367064D01*
X23021185Y16352292D01*
X22991191Y16343194D01*
X22958767Y16340000D01*
X22541233Y16340000D01*
X22508809Y16343194D01*
X22478815Y16352292D01*
X22451179Y16367064D01*
X22426949Y16386949D01*
X22407064Y16411179D01*
X22392292Y16438815D01*
X22383194Y16468809D01*
X22380000Y16501233D01*
X22380000Y16868767D01*
X22383194Y16901191D01*
X22392292Y16931185D01*
X22407064Y16958821D01*
X22426949Y16983051D01*
X22451179Y17002936D01*
X22478815Y17017708D01*
X22508809Y17026806D01*
X22541233Y17030000D01*
X22958767Y17030000D01*
X22991191Y17026806D01*
X22991191Y17026806D01*
G37*
M02*
