  0
SECTION
  2
HEADER
  9
$ACADVER
  1
AC1009
  9
$INSBASE
 10
0.0
 20
0.0
 30
0.0
  9
$EXTMIN
 10
0.0
 20
0.0
 30
0.0
  9
$EXTMAX
 10
0.0
 20
0.0
 30
0.0
  0
ENDSEC
  0
SECTION
  2
TABLES
  0
TABLE
  2
VPORT
 70
0
  0
ENDTAB
  0
TABLE
  2
LTYPE
 70
1
  0
LTYPE
  2
CONTINUOUS
 70
0
  3
Solid line
 72
65
 73
0
 40
0.0
  0
ENDTAB
  0
TABLE
  2
LAYER
 70
1
  0
LAYER
  2
0
 70
64
 62
7
  6
continuous
  0
ENDTAB
  0
TABLE
  2
STYLE
 70
1
  0
STYLE
  2
STANDARD
 70
0
 40
0
 41
1.0
 50
0.0
 71
0
 42
1
 3
ARIAL.TTF
 4

  0
ENDTAB
  0
TABLE
  2
VIEW
 70
0
  0
ENDTAB
  0
ENDSEC
  0
SECTION
  2
BLOCKS
  0
BLOCK
  8
0
  2
PART__FEATURE045
 70
0
 10
0.0
 20
0.0
 30
0.0
  3
PART__FEATURE045
  0
POLYLINE
  8
0
 62
0
 70
0
 66
1
 10
0.0
 20
0.0
 30
0.0
  0
VERTEX
  8
0
 10
-8.898627654
 20
-50.6
 30
0.0
  0
VERTEX
  8
0
 10
-8.9486221095
 20
-50.5993572296
 30
0.0
  0
VERTEX
  8
0
 10
-8.99858062404
 20
-50.5973617178
 30
0.0
  0
VERTEX
  8
0
 10
-9.04845911149
 20
-50.5939057523
 30
0.0
  0
VERTEX
  8
0
 10
-9.09820282489
 20
-50.5888721904
 30
0.0
  0
VERTEX
  8
0
 10
-9.14774409466
 20
-50.5821344937
 30
0.0
  0
VERTEX
  8
0
 10
-9.18991942141
 20
-50.5749128125
 30
0.0
  0
SEQEND
  8
0
  0
POLYLINE
  8
0
 62
0
 70
0
 66
1
 10
0.0
 20
0.0
 30
0.0
  0
VERTEX
  8
0
 10
0.066994386475
 20
-40.8681566817
 30
0.0
  0
VERTEX
  8
0
 10
0.073754380345
 20
-40.917552607
 30
0.0
  0
VERTEX
  8
0
 10
0.0928084004822
 20
-40.9630564824
 30
0.0
  0
SEQEND
  8
0
  0
POLYLINE
  8
0
 62
0
 70
0
 66
1
 10
0.0
 20
0.0
 30
0.0
  0
VERTEX
  8
0
 10
1.93300561352
 20
-40.8681566817
 30
0.0
  0
VERTEX
  8
0
 10
1.92631584769
 20
-40.8187623335
 30
0.0
  0
VERTEX
  8
0
 10
1.90706072714
 20
-40.7727634776
 30
0.0
  0
VERTEX
  8
0
 10
1.87693371735
 20
-40.733027437
 30
0.0
  0
VERTEX
  8
0
 10
1.83823979138
 20
-40.7028853145
 30
0.0
  0
SEQEND
  8
0
  0
POLYLINE
  8
0
 62
0
 70
0
 66
1
 10
0.0
 20
0.0
 30
0.0
  0
VERTEX
  8
0
 10
7.83541019663
 20
-6.60475922207
 30
0.0
  0
VERTEX
  8
0
 10
7.83334337366
 20
-6.65470210988
 30
0.0
  0
VERTEX
  8
0
 10
7.83324922893
 20
-6.65582176913
 30
0.0
  0
SEQEND
  8
0
  0
POLYLINE
  8
0
 62
0
 70
0
 66
1
 10
0.0
 20
0.0
 30
0.0
  0
VERTEX
  8
0
 10
7.54896154374
 20
-6.49168819756
 30
0.0
  0
VERTEX
  8
0
 10
7.59112990719
 20
-6.46484807125
 30
0.0
  0
VERTEX
  8
0
 10
7.59210252282
 20
-6.46428547111
 30
0.0
  0
SEQEND
  8
0
  0
POLYLINE
  8
0
 62
0
 70
0
 66
1
 10
0.0
 20
0.0
 30
0.0
  0
VERTEX
  8
0
 10
7.07248728055
 20
-6.76428547111
 30
0.0
  0
VERTEX
  8
0
 10
7.11677250161
 20
-6.74110394839
 30
0.0
  0
VERTEX
  8
0
 10
7.11778922734
 20
-6.7406256505
 30
0.0
  0
SEQEND
  8
0
  0
POLYLINE
  8
0
 62
0
 70
0
 66
1
 10
0.0
 20
0.0
 30
0.0
  0
VERTEX
  8
0
 10
-7.83541019662
 20
-7.20475922207
 30
0.0
  0
VERTEX
  8
0
 10
-7.83334337366
 20
-7.15481633427
 30
0.0
  0
VERTEX
  8
0
 10
-7.83324922893
 20
-7.15369667501
 30
0.0
  0
SEQEND
  8
0
  0
POLYLINE
  8
0
 62
0
 70
0
 66
1
 10
0.0
 20
0.0
 30
0.0
  0
VERTEX
  8
0
 10
-7.54896154374
 20
-7.31783024659
 30
0.0
  0
VERTEX
  8
0
 10
-7.59112990719
 20
-7.34467037289
 30
0.0
  0
VERTEX
  8
0
 10
-7.59210252282
 20
-7.34523297304
 30
0.0
  0
SEQEND
  8
0
  0
POLYLINE
  8
0
 62
0
 70
0
 66
1
 10
0.0
 20
0.0
 30
0.0
  0
VERTEX
  8
0
 10
-7.07248728055
 20
-7.04523297304
 30
0.0
  0
VERTEX
  8
0
 10
-7.11677250161
 20
-7.06841449575
 30
0.0
  0
VERTEX
  8
0
 10
-7.11778922734
 20
-7.06889279364
 30
0.0
  0
SEQEND
  8
0
  0
POLYLINE
  8
0
 62
0
 70
0
 66
1
 10
0.0
 20
0.0
 30
0.0
  0
VERTEX
  8
0
 10
1.4362863616
 20
-40.469797814
 30
0.0
  0
VERTEX
  8
0
 10
1.41307102451
 20
-40.5057976783
 30
0.0
  0
SEQEND
  8
0
  0
POLYLINE
  8
0
 62
0
 70
0
 66
1
 10
0.0
 20
0.0
 30
0.0
  0
VERTEX
  8
0
 10
1.4362863616
 20
-40.469797814
 30
0.0
  0
VERTEX
  8
0
 10
1.4241264682
 20
-40.4213260198
 30
0.0
  0
VERTEX
  8
0
 10
1.40657895425
 20
-40.374534938
 30
0.0
  0
VERTEX
  8
0
 10
1.38387098932
 20
-40.3300182631
 30
0.0
  0
VERTEX
  8
0
 10
1.35634649182
 20
-40.2883076311
 30
0.0
  0
VERTEX
  8
0
 10
1.32428571093
 20
-40.2499747059
 30
0.0
  0
VERTEX
  8
0
 10
1.29261995832
 20
-40.219393306
 30
0.0
  0
SEQEND
  8
0
  0
POLYLINE
  8
0
 62
0
 70
0
 66
1
 10
0.0
 20
0.0
 30
0.0
  0
VERTEX
  8
0
 10
1.24893745294
 20
-40.2215099931
 30
0.0
  0
VERTEX
  8
0
 10
1.29261995832
 20
-40.219393306
 30
0.0
  0
SEQEND
  8
0
  0
POLYLINE
  8
0
 62
0
 70
0
 66
1
 10
0.0
 20
0.0
 30
0.0
  0
VERTEX
  8
0
 10
0.707380041681
 20
-40.219393306
 30
0.0
  0
VERTEX
  8
0
 10
0.75106254706
 20
-40.2215099931
 30
0.0
  0
SEQEND
  8
0
  0
POLYLINE
  8
0
 62
0
 70
0
 66
1
 10
0.0
 20
0.0
 30
0.0
  0
VERTEX
  8
0
 10
0.707380041681
 20
-40.219393306
 30
0.0
  0
VERTEX
  8
0
 10
0.671702207478
 20
-40.25438524
 30
0.0
  0
VERTEX
  8
0
 10
0.640161489271
 20
-40.2931484949
 30
0.0
  0
VERTEX
  8
0
 10
0.61315783458
 20
-40.3351977313
 30
0.0
  0
VERTEX
  8
0
 10
0.591086587645
 20
-40.3800331086
 30
0.0
  0
VERTEX
  8
0
 10
0.574167705254
 20
-40.4270560094
 30
0.0
  0
VERTEX
  8
0
 10
0.563713638395
 20
-40.469797814
 30
0.0
  0
SEQEND
  8
0
  0
POLYLINE
  8
0
 62
0
 70
0
 66
1
 10
0.0
 20
0.0
 30
0.0
  0
VERTEX
  8
0
 10
0.586928975487
 20
-40.5057976783
 30
0.0
  0
VERTEX
  8
0
 10
0.563713638395
 20
-40.469797814
 30
0.0
  0
SEQEND
  8
0
  0
POLYLINE
  8
0
 62
0
 70
0
 66
1
 10
0.0
 20
0.0
 30
0.0
  0
VERTEX
  8
0
 10
-6.14805243539
 20
-0.115480014935
 30
0.0
  0
VERTEX
  8
0
 10
-6.09843790273
 20
-0.119825898537
 30
0.0
  0
VERTEX
  8
0
 10
-6.04844482282
 20
-0.12053786356
 30
0.0
  0
VERTEX
  8
0
 10
-6.04811335269
 20
-0.120537892351
 30
0.0
  0
SEQEND
  8
0
  0
POLYLINE
  8
0
 62
0
 70
0
 66
1
 10
0.0
 20
0.0
 30
0.0
  0
VERTEX
  8
0
 10
6.04811335269
 20
-0.120537892351
 30
0.0
  0
VERTEX
  8
0
 10
6.09810658552
 20
-0.119835965984
 30
0.0
  0
VERTEX
  8
0
 10
6.14781110071
 20
-0.11570427612
 30
0.0
  0
VERTEX
  8
0
 10
6.14805243539
 20
-0.115480014935
 30
0.0
  0
SEQEND
  8
0
  0
POLYLINE
  8
0
 62
0
 70
0
 66
1
 10
0.0
 20
0.0
 30
0.0
  0
VERTEX
  8
0
 10
-3.88351052912
 20
-43.7164285489
 30
0.0
  0
VERTEX
  8
0
 10
-3.88056887429
 20
-43.6665483064
 30
0.0
  0
VERTEX
  8
0
 10
-3.87143140794
 20
-43.6174229347
 30
0.0
  0
VERTEX
  8
0
 10
-3.85631257985
 20
-43.5697966036
 30
0.0
  0
VERTEX
  8
0
 10
-3.83546072079
 20
-43.5243869614
 30
0.0
  0
VERTEX
  8
0
 10
-3.80915787878
 20
-43.4819025401
 30
0.0
  0
VERTEX
  8
0
 10
-3.77773732594
 20
-43.4430515529
 30
0.0
  0
VERTEX
  8
0
 10
-3.74160058163
 20
-43.408546156
 30
0.0
  0
VERTEX
  8
0
 10
-3.70135318893
 20
-43.3789346654
 30
0.0
  0
VERTEX
  8
0
 10
-3.6577360522
 20
-43.3545549548
 30
0.0
  0
VERTEX
  8
0
 10
-3.61145570633
 20
-43.3357139488
 30
0.0
  0
VERTEX
  8
0
 10
-3.56320823208
 20
-43.3227151408
 30
0.0
  0
VERTEX
  8
0
 10
-3.51371455322
 20
-43.315858076
 30
0.0
  0
VERTEX
  8
0
 10
-3.48525772523
 20
-43.3148031967
 30
0.0
  0
SEQEND
  8
0
  0
POLYLINE
  8
0
 62
0
 70
0
 66
1
 10
0.0
 20
0.0
 30
0.0
  0
VERTEX
  8
0
 10
-3.88351052912
 20
-43.7164285489
 30
0.0
  0
VERTEX
  8
0
 10
-3.88329394833
 20
-43.7664280799
 30
0.0
  0
VERTEX
  8
0
 10
-3.88307588899
 20
-43.8164276044
 30
0.0
  0
VERTEX
  8
0
 10
-3.88285634936
 20
-43.8664271224
 30
0.0
  0
VERTEX
  8
0
 10
-3.88263532763
 20
-43.9164266339
 30
0.0
  0
VERTEX
  8
0
 10
-3.88241282201
 20
-43.9664261388
 30
0.0
  0
VERTEX
  8
0
 10
-3.88218883069
 20
-44.0164256371
 30
0.0
  0
VERTEX
  8
0
 10
-3.88196335184
 20
-44.0664251286
 30
0.0
  0
VERTEX
  8
0
 10
-3.88173638362
 20
-44.1164246135
 30
0.0
  0
VERTEX
  8
0
 10
-3.88150792416
 20
-44.1664240916
 30
0.0
  0
VERTEX
  8
0
 10
-3.8812779716
 20
-44.2164235628
 30
0.0
  0
VERTEX
  8
0
 10
-3.88104652404
 20
-44.2664230271
 30
0.0
  0
VERTEX
  8
0
 10
-3.88081357958
 20
-44.3164224844
 30
0.0
  0
VERTEX
  8
0
 10
-3.88057913629
 20
-44.3664219348
 30
0.0
  0
VERTEX
  8
0
 10
-3.88034319225
 20
-44.4164213781
 30
0.0
  0
VERTEX
  8
0
 10
-3.88010574549
 20
-44.4664208143
 30
0.0
  0
VERTEX
  8
0
 10
-3.87986679406
 20
-44.5164202433
 30
0.0
  0
VERTEX
  8
0
 10
-3.87962633596
 20
-44.5664196651
 30
0.0
  0
VERTEX
  8
0
 10
-3.8793843692
 20
-44.6164190796
 30
0.0
  0
VERTEX
  8
0
 10
-3.87914089175
 20
-44.6664184868
 30
0.0
  0
VERTEX
  8
0
 10
-3.8788959016
 20
-44.7164178866
 30
0.0
  0
VERTEX
  8
0
 10
-3.87864939669
 20
-44.7664172789
 30
0.0
  0
VERTEX
  8
0
 10
-3.87840137494
 20
-44.8164166638
 30
0.0
  0
VERTEX
  8
0
 10
-3.8781518343
 20
-44.8664160411
 30
0.0
  0
VERTEX
  8
0
 10
-3.87790077264
 20
-44.9164154107
 30
0.0
  0
VERTEX
  8
0
 10
-3.87764818787
 20
-44.9664147727
 30
0.0
  0
VERTEX
  8
0
 10
-3.87739407784
 20
-45.016414127
 30
0.0
  0
VERTEX
  8
0
 10
-3.87713844041
 20
-45.0664134735
 30
0.0
  0
VERTEX
  8
0
 10
-3.87688127342
 20
-45.1164128122
 30
0.0
  0
VERTEX
  8
0
 10
-3.87662257467
 20
-45.1664121429
 30
0.0
  0
VERTEX
  8
0
 10
-3.87636234198
 20
-45.2164114657
 30
0.0
  0
VERTEX
  8
0
 10
-3.87610057312
 20
-45.2664107804
 30
0.0
  0
VERTEX
  8
0
 10
-3.87583726586
 20
-45.3164100871
 30
0.0
  0
VERTEX
  8
0
 10
-3.87557241795
 20
-45.3664093857
 30
0.0
  0
VERTEX
  8
0
 10
-3.87530602712
 20
-45.416408676
 30
0.0
  0
VERTEX
  8
0
 10
-3.87503809107
 20
-45.4664079581
 30
0.0
  0
VERTEX
  8
0
 10
-3.87476860752
 20
-45.5164072319
 30
0.0
  0
VERTEX
  8
0
 10
-3.87449757412
 20
-45.5664064973
 30
0.0
  0
VERTEX
  8
0
 10
-3.87422498855
 20
-45.6164057543
 30
0.0
  0
VERTEX
  8
0
 10
-3.87395084843
 20
-45.6664050027
 30
0.0
  0
VERTEX
  8
0
 10
-3.8736751514
 20
-45.7164042426
 30
0.0
  0
VERTEX
  8
0
 10
-3.87339789506
 20
-45.7664034739
 30
0.0
  0
VERTEX
  8
0
 10
-3.87311907699
 20
-45.8164026965
 30
0.0
  0
VERTEX
  8
0
 10
-3.87283869477
 20
-45.8664019104
 30
0.0
  0
VERTEX
  8
0
 10
-3.87255674593
 20
-45.9164011154
 30
0.0
  0
VERTEX
  8
0
 10
-3.87227322801
 20
-45.9664003116
 30
0.0
  0
VERTEX
  8
0
 10
-3.87198813851
 20
-46.0163994988
 30
0.0
  0
VERTEX
  8
0
 10
-3.87170147494
 20
-46.066398677
 30
0.0
  0
VERTEX
  8
0
 10
-3.87141323475
 20
-46.1163978462
 30
0.0
  0
VERTEX
  8
0
 10
-3.87112341541
 20
-46.1663970062
 30
0.0
  0
VERTEX
  8
0
 10
-3.87083201435
 20
-46.2163961571
 30
0.0
  0
VERTEX
  8
0
 10
-3.87053902897
 20
-46.2663952987
 30
0.0
  0
VERTEX
  8
0
 10
-3.87024445668
 20
-46.3163944309
 30
0.0
  0
VERTEX
  8
0
 10
-3.86994829485
 20
-46.3663935538
 30
0.0
  0
VERTEX
  8
0
 10
-3.86965054082
 20
-46.4163926672
 30
0.0
  0
VERTEX
  8
0
 10
-3.86935119194
 20
-46.4663917711
 30
0.0
  0
VERTEX
  8
0
 10
-3.86905024552
 20
-46.5163908654
 30
0.0
  0
VERTEX
  8
0
 10
-3.86874769885
 20
-46.5663899501
 30
0.0
  0
VERTEX
  8
0
 10
-3.8684435492
 20
-46.616389025
 30
0.0
  0
VERTEX
  8
0
 10
-3.86813779383
 20
-46.6663880901
 30
0.0
  0
VERTEX
  8
0
 10
-3.86783042996
 20
-46.7163871454
 30
0.0
  0
VERTEX
  8
0
 10
-3.86752145481
 20
-46.7663861907
 30
0.0
  0
VERTEX
  8
0
 10
-3.86721086556
 20
-46.816385226
 30
0.0
  0
VERTEX
  8
0
 10
-3.86689865938
 20
-46.8663842513
 30
0.0
  0
VERTEX
  8
0
 10
-3.86658483342
 20
-46.9163832664
 30
0.0
  0
VERTEX
  8
0
 10
-3.8662693848
 20
-46.9663822713
 30
0.0
  0
VERTEX
  8
0
 10
-3.86595231062
 20
-47.016381266
 30
0.0
  0
VERTEX
  8
0
 10
-3.86563360797
 20
-47.0663802502
 30
0.0
  0
VERTEX
  8
0
 10
-3.8653132739
 20
-47.1163792241
 30
0.0
  0
VERTEX
  8
0
 10
-3.86499130546
 20
-47.1663781874
 30
0.0
  0
VERTEX
  8
0
 10
-3.86466769964
 20
-47.2163771402
 30
0.0
  0
VERTEX
  8
0
 10
-3.86434245345
 20
-47.2663760823
 30
0.0
  0
VERTEX
  8
0
 10
-3.86401556386
 20
-47.3163750138
 30
0.0
  0
VERTEX
  8
0
 10
-3.86368702781
 20
-47.3663739344
 30
0.0
  0
VERTEX
  8
0
 10
-3.86335684222
 20
-47.4163728441
 30
0.0
  0
VERTEX
  8
0
 10
-3.86302500399
 20
-47.466371743
 30
0.0
  0
VERTEX
  8
0
 10
-3.86269151001
 20
-47.5163706308
 30
0.0
  0
VERTEX
  8
0
 10
-3.86235635711
 20
-47.5663695075
 30
0.0
  0
VERTEX
  8
0
 10
-3.86201954214
 20
-47.616368373
 30
0.0
  0
VERTEX
  8
0
 10
-3.8616810619
 20
-47.6663672273
 30
0.0
  0
VERTEX
  8
0
 10
-3.86134091317
 20
-47.7163660703
 30
0.0
  0
VERTEX
  8
0
 10
-3.8609990927
 20
-47.7663649019
 30
0.0
  0
VERTEX
  8
0
 10
-3.86065559724
 20
-47.816363722
 30
0.0
  0
VERTEX
  8
0
 10
-3.86031042348
 20
-47.8663625305
 30
0.0
  0
VERTEX
  8
0
 10
-3.85996356811
 20
-47.9163613274
 30
0.0
  0
VERTEX
  8
0
 10
-3.8596150278
 20
-47.9663601126
 30
0.0
  0
VERTEX
  8
0
 10
-3.85926479916
 20
-48.0163588859
 30
0.0
  0
VERTEX
  8
0
 10
-3.85891287882
 20
-48.0663576475
 30
0.0
  0
VERTEX
  8
0
 10
-3.85855926335
 20
-48.116356397
 30
0.0
  0
VERTEX
  8
0
 10
-3.85826115062
 20
-48.1583220726
 30
0.0
  0
SEQEND
  8
0
  0
POLYLINE
  8
0
 62
0
 70
0
 66
1
 10
0.0
 20
0.0
 30
0.0
  0
VERTEX
  8
0
 10
-3.45544185709
 20
-48.5553809352
 30
0.0
  0
VERTEX
  8
0
 10
-3.50530515488
 20
-48.5521778033
 30
0.0
  0
VERTEX
  8
0
 10
-3.55437572902
 20
-48.5427497896
 30
0.0
  0
VERTEX
  8
0
 10
-3.60193048664
 20
-48.5274040024
 30
0.0
  0
VERTEX
  8
0
 10
-3.64729678579
 20
-48.5064542434
 30
0.0
  0
VERTEX
  8
0
 10
-3.68980960563
 20
-48.4801943706
 30
0.0
  0
VERTEX
  8
0
 10
-3.72876271974
 20
-48.4488995916
 30
0.0
  0
VERTEX
  8
0
 10
-3.76340943902
 20
-48.4128968631
 30
0.0
  0
VERTEX
  8
0
 10
-3.79325283707
 20
-48.3728205651
 30
0.0
  0
VERTEX
  8
0
 10
-3.81788069435
 20
-48.3293435361
 30
0.0
  0
VERTEX
  8
0
 10
-3.83693442069
 20
-48.2831510566
 30
0.0
  0
VERTEX
  8
0
 10
-3.85010285129
 20
-48.2349500497
 30
0.0
  0
VERTEX
  8
0
 10
-3.85711443304
 20
-48.1854779822
 30
0.0
  0
VERTEX
  8
0
 10
-3.85826115062
 20
-48.1583220726
 30
0.0
  0
SEQEND
  8
0
  0
POLYLINE
  8
0
 62
0
 70
0
 66
1
 10
0.0
 20
0.0
 30
0.0
  0
VERTEX
  8
0
 10
3.85826115062
 20
-48.1583220726
 30
0.0
  0
VERTEX
  8
0
 10
3.85473564087
 20
-48.2081640145
 30
0.0
  0
VERTEX
  8
0
 10
3.84495041952
 20
-48.2571633748
 30
0.0
  0
VERTEX
  8
0
 10
3.829093845
 20
-48.3045478379
 30
0.0
  0
VERTEX
  8
0
 10
3.80743724513
 20
-48.3495781366
 30
0.0
  0
VERTEX
  8
0
 10
3.78033182755
 20
-48.3915548485
 30
0.0
  0
VERTEX
  8
0
 10
3.7482123164
 20
-48.4298315542
 30
0.0
  0
VERTEX
  8
0
 10
3.71153855782
 20
-48.4637673135
 30
0.0
  0
VERTEX
  8
0
 10
3.67090092644
 20
-48.4928431548
 30
0.0
  0
VERTEX
  8
0
 10
3.62701970265
 20
-48.5167466381
 30
0.0
  0
VERTEX
  8
0
 10
3.58057371781
 20
-48.5351781489
 30
0.0
  0
VERTEX
  8
0
 10
3.53223486758
 20
-48.5478363805
 30
0.0
  0
VERTEX
  8
0
 10
3.48270450322
 20
-48.554430551
 30
0.0
  0
VERTEX
  8
0
 10
3.45544185709
 20
-48.5553809352
 30
0.0
  0
SEQEND
  8
0
  0
POLYLINE
  8
0
 62
0
 70
0
 66
1
 10
0.0
 20
0.0
 30
0.0
  0
VERTEX
  8
0
 10
3.85826115062
 20
-48.1583220726
 30
0.0
  0
VERTEX
  8
0
 10
3.85861619153
 20
-48.1083233331
 30
0.0
  0
VERTEX
  8
0
 10
3.85896953442
 20
-48.0583245817
 30
0.0
  0
VERTEX
  8
0
 10
3.85932118273
 20
-48.0083258182
 30
0.0
  0
VERTEX
  8
0
 10
3.85967113988
 20
-47.958327043
 30
0.0
  0
VERTEX
  8
0
 10
3.86001940926
 20
-47.9083282559
 30
0.0
  0
VERTEX
  8
0
 10
3.86036599423
 20
-47.8583294571
 30
0.0
  0
VERTEX
  8
0
 10
3.86071089812
 20
-47.8083306467
 30
0.0
  0
VERTEX
  8
0
 10
3.86105412425
 20
-47.7583318248
 30
0.0
  0
VERTEX
  8
0
 10
3.86139567591
 20
-47.7083329914
 30
0.0
  0
VERTEX
  8
0
 10
3.86173555635
 20
-47.6583341466
 30
0.0
  0
VERTEX
  8
0
 10
3.86207376882
 20
-47.6083352905
 30
0.0
  0
VERTEX
  8
0
 10
3.86241031654
 20
-47.5583364231
 30
0.0
  0
VERTEX
  8
0
 10
3.86274520269
 20
-47.5083375446
 30
0.0
  0
VERTEX
  8
0
 10
3.86307843044
 20
-47.458338655
 30
0.0
  0
VERTEX
  8
0
 10
3.86341000294
 20
-47.4083397545
 30
0.0
  0
VERTEX
  8
0
 10
3.86373992329
 20
-47.3583408429
 30
0.0
  0
VERTEX
  8
0
 10
3.86406819461
 20
-47.3083419206
 30
0.0
  0
VERTEX
  8
0
 10
3.86439481996
 20
-47.2583429874
 30
0.0
  0
VERTEX
  8
0
 10
3.8647198024
 20
-47.2083440436
 30
0.0
  0
VERTEX
  8
0
 10
3.86504314494
 20
-47.1583450891
 30
0.0
  0
VERTEX
  8
0
 10
3.8653648506
 20
-47.1083461241
 30
0.0
  0
VERTEX
  8
0
 10
3.86568492236
 20
-47.0583471485
 30
0.0
  0
VERTEX
  8
0
 10
3.86600336317
 20
-47.0083481626
 30
0.0
  0
VERTEX
  8
0
 10
3.86632017598
 20
-46.9583491663
 30
0.0
  0
VERTEX
  8
0
 10
3.8666353637
 20
-46.9083501598
 30
0.0
  0
VERTEX
  8
0
 10
3.86694892923
 20
-46.858351143
 30
0.0
  0
VERTEX
  8
0
 10
3.86726087543
 20
-46.8083521161
 30
0.0
  0
VERTEX
  8
0
 10
3.86757120516
 20
-46.7583530792
 30
0.0
  0
VERTEX
  8
0
 10
3.86787992124
 20
-46.7083540322
 30
0.0
  0
VERTEX
  8
0
 10
3.8681870265
 20
-46.6583549754
 30
0.0
  0
VERTEX
  8
0
 10
3.8684925237
 20
-46.6083559087
 30
0.0
  0
VERTEX
  8
0
 10
3.86879641562
 20
-46.5583568322
 30
0.0
  0
VERTEX
  8
0
 10
3.869098705
 20
-46.508357746
 30
0.0
  0
VERTEX
  8
0
 10
3.86939939457
 20
-46.4583586501
 30
0.0
  0
VERTEX
  8
0
 10
3.86969848703
 20
-46.4083595447
 30
0.0
  0
VERTEX
  8
0
 10
3.86999598507
 20
-46.3583604298
 30
0.0
  0
VERTEX
  8
0
 10
3.87029189134
 20
-46.3083613054
 30
0.0
  0
VERTEX
  8
0
 10
3.87058620849
 20
-46.2583621716
 30
0.0
  0
VERTEX
  8
0
 10
3.87087893915
 20
-46.2083630286
 30
0.0
  0
VERTEX
  8
0
 10
3.87117008591
 20
-46.1583638762
 30
0.0
  0
VERTEX
  8
0
 10
3.87145965136
 20
-46.1083647147
 30
0.0
  0
VERTEX
  8
0
 10
3.87174763807
 20
-46.0583655441
 30
0.0
  0
VERTEX
  8
0
 10
3.87203404857
 20
-46.0083663644
 30
0.0
  0
VERTEX
  8
0
 10
3.8723188854
 20
-45.9583671757
 30
0.0
  0
VERTEX
  8
0
 10
3.87260215106
 20
-45.9083679781
 30
0.0
  0
VERTEX
  8
0
 10
3.87288384803
 20
-45.8583687717
 30
0.0
  0
VERTEX
  8
0
 10
3.87316397879
 20
-45.8083695564
 30
0.0
  0
VERTEX
  8
0
 10
3.87344254578
 20
-45.7583703324
 30
0.0
  0
VERTEX
  8
0
 10
3.87371955143
 20
-45.7083710998
 30
0.0
  0
VERTEX
  8
0
 10
3.87399499815
 20
-45.6583718585
 30
0.0
  0
VERTEX
  8
0
 10
3.87426888835
 20
-45.6083726086
 30
0.0
  0
VERTEX
  8
0
 10
3.87454122438
 20
-45.5583733503
 30
0.0
  0
VERTEX
  8
0
 10
3.87481200861
 20
-45.5083740836
 30
0.0
  0
VERTEX
  8
0
 10
3.87508124338
 20
-45.4583748084
 30
0.0
  0
VERTEX
  8
0
 10
3.87534893101
 20
-45.408375525
 30
0.0
  0
VERTEX
  8
0
 10
3.8756150738
 20
-45.3583762333
 30
0.0
  0
VERTEX
  8
0
 10
3.87587967403
 20
-45.3083769335
 30
0.0
  0
VERTEX
  8
0
 10
3.87614273397
 20
-45.2583776255
 30
0.0
  0
VERTEX
  8
0
 10
3.87640425587
 20
-45.2083783094
 30
0.0
  0
VERTEX
  8
0
 10
3.87666424196
 20
-45.1583789854
 30
0.0
  0
VERTEX
  8
0
 10
3.87692269445
 20
-45.1083796534
 30
0.0
  0
VERTEX
  8
0
 10
3.87717961555
 20
-45.0583803134
 30
0.0
  0
VERTEX
  8
0
 10
3.87743500744
 20
-45.0083809657
 30
0.0
  0
VERTEX
  8
0
 10
3.87768887226
 20
-44.9583816102
 30
0.0
  0
VERTEX
  8
0
 10
3.87794121218
 20
-44.9083822469
 30
0.0
  0
VERTEX
  8
0
 10
3.87819202932
 20
-44.858382876
 30
0.0
  0
VERTEX
  8
0
 10
3.87844132579
 20
-44.8083834975
 30
0.0
  0
VERTEX
  8
0
 10
3.87868910369
 20
-44.7583841115
 30
0.0
  0
VERTEX
  8
0
 10
3.8789353651
 20
-44.7083847179
 30
0.0
  0
VERTEX
  8
0
 10
3.87918011208
 20
-44.6583853169
 30
0.0
  0
VERTEX
  8
0
 10
3.87942334667
 20
-44.6083859086
 30
0.0
  0
VERTEX
  8
0
 10
3.87966507091
 20
-44.5583864929
 30
0.0
  0
VERTEX
  8
0
 10
3.8799052868
 20
-44.5083870699
 30
0.0
  0
VERTEX
  8
0
 10
3.88014399635
 20
-44.4583876398
 30
0.0
  0
VERTEX
  8
0
 10
3.88038120154
 20
-44.4083882024
 30
0.0
  0
VERTEX
  8
0
 10
3.88061690434
 20
-44.358388758
 30
0.0
  0
VERTEX
  8
0
 10
3.88085110668
 20
-44.3083893065
 30
0.0
  0
VERTEX
  8
0
 10
3.88108381051
 20
-44.258389848
 30
0.0
  0
VERTEX
  8
0
 10
3.88131501775
 20
-44.2083903826
 30
0.0
  0
VERTEX
  8
0
 10
3.8815447303
 20
-44.1583909103
 30
0.0
  0
VERTEX
  8
0
 10
3.88177295004
 20
-44.1083914311
 30
0.0
  0
VERTEX
  8
0
 10
3.88199967885
 20
-44.0583919452
 30
0.0
  0
VERTEX
  8
0
 10
3.88222491858
 20
-44.0083924525
 30
0.0
  0
VERTEX
  8
0
 10
3.88244867107
 20
-43.9583929532
 30
0.0
  0
VERTEX
  8
0
 10
3.88267093816
 20
-43.9083934472
 30
0.0
  0
VERTEX
  8
0
 10
3.88289172164
 20
-43.8583939347
 30
0.0
  0
VERTEX
  8
0
 10
3.88311102333
 20
-43.8083944156
 30
0.0
  0
VERTEX
  8
0
 10
3.88332884499
 20
-43.7583948901
 30
0.0
  0
VERTEX
  8
0
 10
3.88351052912
 20
-43.7164285489
 30
0.0
  0
SEQEND
  8
0
  0
POLYLINE
  8
0
 62
0
 70
0
 66
1
 10
0.0
 20
0.0
 30
0.0
  0
VERTEX
  8
0
 10
3.48525772523
 20
-43.3148031967
 30
0.0
  0
VERTEX
  8
0
 10
3.53511786521
 20
-43.3180427977
 30
0.0
  0
VERTEX
  8
0
 10
3.58416493864
 20
-43.3275873585
 30
0.0
  0
VERTEX
  8
0
 10
3.6316503264
 20
-43.3431427832
 30
0.0
  0
VERTEX
  8
0
 10
3.67687050102
 20
-43.3644030094
 30
0.0
  0
VERTEX
  8
0
 10
3.71912996873
 20
-43.3910661348
 30
0.0
  0
VERTEX
  8
0
 10
3.75770529882
 20
-43.4228236852
 30
0.0
  0
VERTEX
  8
0
 10
3.79185829866
 20
-43.4592938585
 30
0.0
  0
VERTEX
  8
0
 10
3.82109143395
 20
-43.4998169589
 30
0.0
  0
VERTEX
  8
0
 10
3.84506143
 20
-43.5436605944
 30
0.0
  0
VERTEX
  8
0
 10
3.8634780407
 20
-43.5901117178
 30
0.0
  0
VERTEX
  8
0
 10
3.87607550825
 20
-43.6384661844
 30
0.0
  0
VERTEX
  8
0
 10
3.88259978197
 20
-43.6880058528
 30
0.0
  0
VERTEX
  8
0
 10
3.88351052912
 20
-43.7164285489
 30
0.0
  0
SEQEND
  8
0
  0
POLYLINE
  8
0
 62
0
 70
0
 66
1
 10
0.0
 20
0.0
 30
0.0
  0
VERTEX
  8
0
 10
-8.8988741818
 20
-49.1162852249
 30
0.0
  0
VERTEX
  8
0
 10
-8.89848590649
 20
-49.0662867325
 30
0.0
  0
VERTEX
  8
0
 10
-8.89809940034
 20
-49.0162882264
 30
0.0
  0
VERTEX
  8
0
 10
-8.89771465938
 20
-48.9662897067
 30
0.0
  0
VERTEX
  8
0
 10
-8.89733167966
 20
-48.9162911735
 30
0.0
  0
VERTEX
  8
0
 10
-8.89695045727
 20
-48.8662926268
 30
0.0
  0
VERTEX
  8
0
 10
-8.89657098833
 20
-48.8162940668
 30
0.0
  0
VERTEX
  8
0
 10
-8.89619326898
 20
-48.7662954935
 30
0.0
  0
VERTEX
  8
0
 10
-8.89581729539
 20
-48.7162969071
 30
0.0
  0
VERTEX
  8
0
 10
-8.89544306377
 20
-48.6662983076
 30
0.0
  0
VERTEX
  8
0
 10
-8.89507057035
 20
-48.6162996952
 30
0.0
  0
VERTEX
  8
0
 10
-8.8946998114
 20
-48.5663010698
 30
0.0
  0
VERTEX
  8
0
 10
-8.89433078319
 20
-48.5163024317
 30
0.0
  0
VERTEX
  8
0
 10
-8.89396348204
 20
-48.4663037808
 30
0.0
  0
VERTEX
  8
0
 10
-8.89359790431
 20
-48.4163051173
 30
0.0
  0
VERTEX
  8
0
 10
-8.89323404635
 20
-48.3663064412
 30
0.0
  0
VERTEX
  8
0
 10
-8.89287190457
 20
-48.3163077527
 30
0.0
  0
VERTEX
  8
0
 10
-8.89251147539
 20
-48.2663090518
 30
0.0
  0
VERTEX
  8
0
 10
-8.89215275526
 20
-48.2163103386
 30
0.0
  0
VERTEX
  8
0
 10
-8.89179574067
 20
-48.1663116132
 30
0.0
  0
VERTEX
  8
0
 10
-8.89144042811
 20
-48.1163128757
 30
0.0
  0
VERTEX
  8
0
 10
-8.89108681411
 20
-48.0663141262
 30
0.0
  0
VERTEX
  8
0
 10
-8.89073489525
 20
-48.0163153647
 30
0.0
  0
VERTEX
  8
0
 10
-8.89038466808
 20
-47.9663165913
 30
0.0
  0
VERTEX
  8
0
 10
-8.89003612923
 20
-47.9163178061
 30
0.0
  0
VERTEX
  8
0
 10
-8.88968927533
 20
-47.8663190092
 30
0.0
  0
VERTEX
  8
0
 10
-8.88934410304
 20
-47.8163202006
 30
0.0
  0
VERTEX
  8
0
 10
-8.88900060903
 20
-47.7663213805
 30
0.0
  0
VERTEX
  8
0
 10
-8.88865879002
 20
-47.7163225489
 30
0.0
  0
VERTEX
  8
0
 10
-8.88831864274
 20
-47.666323706
 30
0.0
  0
VERTEX
  8
0
 10
-8.88798016395
 20
-47.6163248517
 30
0.0
  0
VERTEX
  8
0
 10
-8.88764335043
 20
-47.5663259861
 30
0.0
  0
VERTEX
  8
0
 10
-8.88730819898
 20
-47.5163271094
 30
0.0
  0
VERTEX
  8
0
 10
-8.88697470644
 20
-47.4663282216
 30
0.0
  0
VERTEX
  8
0
 10
-8.88664286966
 20
-47.4163293227
 30
0.0
  0
VERTEX
  8
0
 10
-8.8863126855
 20
-47.366330413
 30
0.0
  0
VERTEX
  8
0
 10
-8.88598415088
 20
-47.3163314923
 30
0.0
  0
VERTEX
  8
0
 10
-8.88565726272
 20
-47.2663325609
 30
0.0
  0
VERTEX
  8
0
 10
-8.88533201796
 20
-47.2163336188
 30
0.0
  0
VERTEX
  8
0
 10
-8.88500841358
 20
-47.166334666
 30
0.0
  0
VERTEX
  8
0
 10
-8.88468644655
 20
-47.1163357026
 30
0.0
  0
VERTEX
  8
0
 10
-8.8843661139
 20
-47.0663367288
 30
0.0
  0
VERTEX
  8
0
 10
-8.88404741267
 20
-47.0163377445
 30
0.0
  0
VERTEX
  8
0
 10
-8.88373033991
 20
-46.9663387498
 30
0.0
  0
VERTEX
  8
0
 10
-8.88341489271
 20
-46.9163397449
 30
0.0
  0
VERTEX
  8
0
 10
-8.88310106816
 20
-46.8663407298
 30
0.0
  0
VERTEX
  8
0
 10
-8.88278886339
 20
-46.8163417045
 30
0.0
  0
VERTEX
  8
0
 10
-8.88247827554
 20
-46.7663426692
 30
0.0
  0
VERTEX
  8
0
 10
-8.88216930179
 20
-46.7163436238
 30
0.0
  0
VERTEX
  8
0
 10
-8.88186193933
 20
-46.6663445686
 30
0.0
  0
VERTEX
  8
0
 10
-8.88155618535
 20
-46.6163455034
 30
0.0
  0
VERTEX
  8
0
 10
-8.8812520371
 20
-46.5663464285
 30
0.0
  0
VERTEX
  8
0
 10
-8.88094949182
 20
-46.5163473439
 30
0.0
  0
VERTEX
  8
0
 10
-8.88064854679
 20
-46.4663482495
 30
0.0
  0
VERTEX
  8
0
 10
-8.8803491993
 20
-46.4163491456
 30
0.0
  0
VERTEX
  8
0
 10
-8.88005144667
 20
-46.3663500322
 30
0.0
  0
VERTEX
  8
0
 10
-8.87975528622
 20
-46.3163509093
 30
0.0
  0
VERTEX
  8
0
 10
-8.87946071531
 20
-46.2663517771
 30
0.0
  0
VERTEX
  8
0
 10
-8.87916773131
 20
-46.2163526355
 30
0.0
  0
VERTEX
  8
0
 10
-8.87887633163
 20
-46.1663534846
 30
0.0
  0
VERTEX
  8
0
 10
-8.87858651366
 20
-46.1163543246
 30
0.0
  0
VERTEX
  8
0
 10
-8.87829827485
 20
-46.0663551554
 30
0.0
  0
VERTEX
  8
0
 10
-8.87801161265
 20
-46.0163559772
 30
0.0
  0
VERTEX
  8
0
 10
-8.87772652452
 20
-45.9663567899
 30
0.0
  0
VERTEX
  8
0
 10
-8.87744300797
 20
-45.9163575938
 30
0.0
  0
VERTEX
  8
0
 10
-8.87716106049
 20
-45.8663583887
 30
0.0
  0
VERTEX
  8
0
 10
-8.87688067963
 20
-45.8163591748
 30
0.0
  0
VERTEX
  8
0
 10
-8.87660186292
 20
-45.7663599522
 30
0.0
  0
VERTEX
  8
0
 10
-8.87632460794
 20
-45.716360721
 30
0.0
  0
VERTEX
  8
0
 10
-8.87604891227
 20
-45.666361481
 30
0.0
  0
VERTEX
  8
0
 10
-8.87577477351
 20
-45.6163622326
 30
0.0
  0
VERTEX
  8
0
 10
-8.87550218928
 20
-45.5663629756
 30
0.0
  0
VERTEX
  8
0
 10
-8.87523115724
 20
-45.5163637102
 30
0.0
  0
VERTEX
  8
0
 10
-8.87496167503
 20
-45.4663644364
 30
0.0
  0
VERTEX
  8
0
 10
-8.87469374033
 20
-45.4163651543
 30
0.0
  0
VERTEX
  8
0
 10
-8.87442735084
 20
-45.3663658639
 30
0.0
  0
VERTEX
  8
0
 10
-8.87416250427
 20
-45.3163665654
 30
0.0
  0
VERTEX
  8
0
 10
-8.87389919835
 20
-45.2663672587
 30
0.0
  0
VERTEX
  8
0
 10
-8.87363743083
 20
-45.2163679439
 30
0.0
  0
VERTEX
  8
0
 10
-8.87337719948
 20
-45.1663686211
 30
0.0
  0
VERTEX
  8
0
 10
-8.87311850207
 20
-45.1163692904
 30
0.0
  0
VERTEX
  8
0
 10
-8.87286133641
 20
-45.0663699517
 30
0.0
  0
VERTEX
  8
0
 10
-8.87260570031
 20
-45.0163706052
 30
0.0
  0
VERTEX
  8
0
 10
-8.87235159161
 20
-44.966371251
 30
0.0
  0
VERTEX
  8
0
 10
-8.87209900816
 20
-44.9163718889
 30
0.0
  0
VERTEX
  8
0
 10
-8.87184794783
 20
-44.8663725193
 30
0.0
  0
VERTEX
  8
0
 10
-8.87159840851
 20
-44.816373142
 30
0.0
  0
VERTEX
  8
0
 10
-8.87135038809
 20
-44.7663737571
 30
0.0
  0
VERTEX
  8
0
 10
-8.87110388449
 20
-44.7163743648
 30
0.0
  0
VERTEX
  8
0
 10
-8.87085889565
 20
-44.666374965
 30
0.0
  0
VERTEX
  8
0
 10
-8.87061541953
 20
-44.6163755578
 30
0.0
  0
VERTEX
  8
0
 10
-8.87037345408
 20
-44.5663761432
 30
0.0
  0
VERTEX
  8
0
 10
-8.87013299729
 20
-44.5163767214
 30
0.0
  0
VERTEX
  8
0
 10
-8.86989404717
 20
-44.4663772924
 30
0.0
  0
VERTEX
  8
0
 10
-8.86965660172
 20
-44.4163778562
 30
0.0
  0
VERTEX
  8
0
 10
-8.86942065898
 20
-44.3663784129
 30
0.0
  0
VERTEX
  8
0
 10
-8.86918621701
 20
-44.3163789626
 30
0.0
  0
VERTEX
  8
0
 10
-8.86895327385
 20
-44.2663795052
 30
0.0
  0
VERTEX
  8
0
 10
-8.86872182759
 20
-44.2163800409
 30
0.0
  0
VERTEX
  8
0
 10
-8.86849187633
 20
-44.1663805697
 30
0.0
  0
VERTEX
  8
0
 10
-8.86826341817
 20
-44.1163810916
 30
0.0
  0
VERTEX
  8
0
 10
-8.86803645124
 20
-44.0663816067
 30
0.0
  0
VERTEX
  8
0
 10
-8.86781097369
 20
-44.0163821151
 30
0.0
  0
VERTEX
  8
0
 10
-8.86758698366
 20
-43.9663826169
 30
0.0
  0
VERTEX
  8
0
 10
-8.86736447934
 20
-43.9163831119
 30
0.0
  0
VERTEX
  8
0
 10
-8.8671434589
 20
-43.8663836004
 30
0.0
  0
VERTEX
  8
0
 10
-8.86692392055
 20
-43.8163840824
 30
0.0
  0
VERTEX
  8
0
 10
-8.86670586251
 20
-43.7663845579
 30
0.0
  0
VERTEX
  8
0
 10
-8.866489283
 20
-43.716385027
 30
0.0
  0
VERTEX
  8
0
 10
-8.86627418028
 20
-43.6663854897
 30
0.0
  0
VERTEX
  8
0
 10
-8.86606055259
 20
-43.6163859461
 30
0.0
  0
VERTEX
  8
0
 10
-8.86584839823
 20
-43.5663863962
 30
0.0
  0
VERTEX
  8
0
 10
-8.86563771548
 20
-43.51638684
 30
0.0
  0
VERTEX
  8
0
 10
-8.86542850264
 20
-43.4663872777
 30
0.0
  0
VERTEX
  8
0
 10
-8.86522075803
 20
-43.4163877093
 30
0.0
  0
VERTEX
  8
0
 10
-8.86501447999
 20
-43.3663881348
 30
0.0
  0
VERTEX
  8
0
 10
-8.86480966686
 20
-43.3163885543
 30
0.0
  0
VERTEX
  8
0
 10
-8.86460631701
 20
-43.2663889678
 30
0.0
  0
VERTEX
  8
0
 10
-8.86440442881
 20
-43.2163893754
 30
0.0
  0
VERTEX
  8
0
 10
-8.86420400065
 20
-43.1663897771
 30
0.0
  0
VERTEX
  8
0
 10
-8.86400503094
 20
-43.116390173
 30
0.0
  0
VERTEX
  8
0
 10
-8.86380751808
 20
-43.0663905632
 30
0.0
  0
VERTEX
  8
0
 10
-8.86361146053
 20
-43.0163909475
 30
0.0
  0
VERTEX
  8
0
 10
-8.86341685671
 20
-42.9663913262
 30
0.0
  0
VERTEX
  8
0
 10
-8.86322370509
 20
-42.9163916993
 30
0.0
  0
VERTEX
  8
0
 10
-8.86303200414
 20
-42.8663920668
 30
0.0
  0
VERTEX
  8
0
 10
-8.86284175236
 20
-42.8163924288
 30
0.0
  0
VERTEX
  8
0
 10
-8.86265294823
 20
-42.7663927853
 30
0.0
  0
VERTEX
  8
0
 10
-8.86246559027
 20
-42.7163931363
 30
0.0
  0
VERTEX
  8
0
 10
-8.86227967701
 20
-42.6663934819
 30
0.0
  0
VERTEX
  8
0
 10
-8.86209520699
 20
-42.6163938222
 30
0.0
  0
VERTEX
  8
0
 10
-8.86191217876
 20
-42.5663941572
 30
0.0
  0
VERTEX
  8
0
 10
-8.86173059088
 20
-42.516394487
 30
0.0
  0
VERTEX
  8
0
 10
-8.86155044195
 20
-42.4663948115
 30
0.0
  0
VERTEX
  8
0
 10
-8.86137173055
 20
-42.4163951309
 30
0.0
  0
VERTEX
  8
0
 10
-8.86119445528
 20
-42.3663954452
 30
0.0
  0
VERTEX
  8
0
 10
-8.86101861478
 20
-42.3163957544
 30
0.0
  0
VERTEX
  8
0
 10
-8.86084420765
 20
-42.2663960585
 30
0.0
  0
VERTEX
  8
0
 10
-8.86067123257
 20
-42.2163963577
 30
0.0
  0
VERTEX
  8
0
 10
-8.86049968817
 20
-42.166396652
 30
0.0
  0
VERTEX
  8
0
 10
-8.86032957313
 20
-42.1163969414
 30
0.0
  0
VERTEX
  8
0
 10
-8.86016088613
 20
-42.066397226
 30
0.0
  0
VERTEX
  8
0
 10
-8.85999362587
 20
-42.0163975057
 30
0.0
  0
VERTEX
  8
0
 10
-8.85993908301
 20
-42.0
 30
0.0
  0
SEQEND
  8
0
  0
POLYLINE
  8
0
 62
0
 70
0
 66
1
 10
0.0
 20
0.0
 30
0.0
  0
VERTEX
  8
0
 10
-8.85487449441
 20
-40.2
 30
0.0
  0
VERTEX
  8
0
 10
-8.85475967256
 20
-40.1500001318
 30
0.0
  0
VERTEX
  8
0
 10
-8.85464623651
 20
-40.1000002605
 30
0.0
  0
VERTEX
  8
0
 10
-8.85453418541
 20
-40.0500003861
 30
0.0
  0
VERTEX
  8
0
 10
-8.85442351844
 20
-40.0000005086
 30
0.0
  0
VERTEX
  8
0
 10
-8.85431423478
 20
-39.950000628
 30
0.0
  0
VERTEX
  8
0
 10
-8.85420633361
 20
-39.9000007444
 30
0.0
  0
VERTEX
  8
0
 10
-8.85409981413
 20
-39.8500008579
 30
0.0
  0
VERTEX
  8
0
 10
-8.85399467556
 20
-39.8000009684
 30
0.0
  0
VERTEX
  8
0
 10
-8.85389091712
 20
-39.7500010761
 30
0.0
  0
VERTEX
  8
0
 10
-8.85378853804
 20
-39.7000011809
 30
0.0
  0
VERTEX
  8
0
 10
-8.85368753756
 20
-39.6500012829
 30
0.0
  0
VERTEX
  8
0
 10
-8.85358791495
 20
-39.6000013822
 30
0.0
  0
VERTEX
  8
0
 10
-8.85348966946
 20
-39.5500014787
 30
0.0
  0
VERTEX
  8
0
 10
-8.85339280038
 20
-39.5000015725
 30
0.0
  0
VERTEX
  8
0
 10
-8.85329730698
 20
-39.4500016637
 30
0.0
  0
VERTEX
  8
0
 10
-8.85320318857
 20
-39.4000017523
 30
0.0
  0
VERTEX
  8
0
 10
-8.85311044445
 20
-39.3500018383
 30
0.0
  0
VERTEX
  8
0
 10
-8.85301907395
 20
-39.3000019218
 30
0.0
  0
VERTEX
  8
0
 10
-8.85292907639
 20
-39.2500020028
 30
0.0
  0
VERTEX
  8
0
 10
-8.8528404511
 20
-39.2000020813
 30
0.0
  0
VERTEX
  8
0
 10
-8.85275319745
 20
-39.1500021575
 30
0.0
  0
VERTEX
  8
0
 10
-8.85266731479
 20
-39.1000022312
 30
0.0
  0
VERTEX
  8
0
 10
-8.85258280249
 20
-39.0500023027
 30
0.0
  0
VERTEX
  8
0
 10
-8.85249965993
 20
-39.0000023718
 30
0.0
  0
VERTEX
  8
0
 10
-8.85241788651
 20
-38.9500024387
 30
0.0
  0
VERTEX
  8
0
 10
-8.85233748162
 20
-38.9000025033
 30
0.0
  0
VERTEX
  8
0
 10
-8.85225844469
 20
-38.8500025658
 30
0.0
  0
VERTEX
  8
0
 10
-8.85218077512
 20
-38.8000026261
 30
0.0
  0
VERTEX
  8
0
 10
-8.85210447236
 20
-38.7500026843
 30
0.0
  0
VERTEX
  8
0
 10
-8.85202953585
 20
-38.7000027405
 30
0.0
  0
VERTEX
  8
0
 10
-8.85195596504
 20
-38.6500027946
 30
0.0
  0
VERTEX
  8
0
 10
-8.85188375939
 20
-38.6000028468
 30
0.0
  0
VERTEX
  8
0
 10
-8.85181291839
 20
-38.5500028969
 30
0.0
  0
VERTEX
  8
0
 10
-8.85174344151
 20
-38.5000029452
 30
0.0
  0
VERTEX
  8
0
 10
-8.85167532824
 20
-38.4500029916
 30
0.0
  0
VERTEX
  8
0
 10
-8.8516085781
 20
-38.4000030362
 30
0.0
  0
VERTEX
  8
0
 10
-8.8515431906
 20
-38.3500030789
 30
0.0
  0
VERTEX
  8
0
 10
-8.85147916526
 20
-38.3000031199
 30
0.0
  0
VERTEX
  8
0
 10
-8.85141650161
 20
-38.2500031592
 30
0.0
  0
VERTEX
  8
0
 10
-8.85135519921
 20
-38.2000031968
 30
0.0
  0
VERTEX
  8
0
 10
-8.85129525761
 20
-38.1500032327
 30
0.0
  0
VERTEX
  8
0
 10
-8.85123667637
 20
-38.100003267
 30
0.0
  0
VERTEX
  8
0
 10
-8.85117945506
 20
-38.0500032998
 30
0.0
  0
VERTEX
  8
0
 10
-8.85112359328
 20
-38.000003331
 30
0.0
  0
VERTEX
  8
0
 10
-8.85106909062
 20
-37.9500033607
 30
0.0
  0
VERTEX
  8
0
 10
-8.85101594668
 20
-37.9000033889
 30
0.0
  0
VERTEX
  8
0
 10
-8.85096416108
 20
-37.8500034157
 30
0.0
  0
VERTEX
  8
0
 10
-8.85091373344
 20
-37.8000034412
 30
0.0
  0
VERTEX
  8
0
 10
-8.8508646634
 20
-37.7500034652
 30
0.0
  0
VERTEX
  8
0
 10
-8.85081695061
 20
-37.700003488
 30
0.0
  0
VERTEX
  8
0
 10
-8.85077059472
 20
-37.6500035095
 30
0.0
  0
VERTEX
  8
0
 10
-8.85072559539
 20
-37.6000035298
 30
0.0
  0
VERTEX
  8
0
 10
-8.8506819523
 20
-37.5500035488
 30
0.0
  0
VERTEX
  8
0
 10
-8.85063966514
 20
-37.5000035667
 30
0.0
  0
VERTEX
  8
0
 10
-8.85059873359
 20
-37.4500035834
 30
0.0
  0
VERTEX
  8
0
 10
-8.85055915737
 20
-37.4000035991
 30
0.0
  0
VERTEX
  8
0
 10
-8.85052093618
 20
-37.3500036137
 30
0.0
  0
VERTEX
  8
0
 10
-8.85048406976
 20
-37.3000036273
 30
0.0
  0
VERTEX
  8
0
 10
-8.85044855784
 20
-37.2500036399
 30
0.0
  0
VERTEX
  8
0
 10
-8.85041440015
 20
-37.2000036516
 30
0.0
  0
VERTEX
  8
0
 10
-8.85038159646
 20
-37.1500036624
 30
0.0
  0
VERTEX
  8
0
 10
-8.85035014653
 20
-37.1000036722
 30
0.0
  0
VERTEX
  8
0
 10
-8.85032005013
 20
-37.0500036813
 30
0.0
  0
VERTEX
  8
0
 10
-8.85029130704
 20
-37.0000036896
 30
0.0
  0
VERTEX
  8
0
 10
-8.85026391706
 20
-36.9500036971
 30
0.0
  0
VERTEX
  8
0
 10
-8.85023788
 20
-36.9000037039
 30
0.0
  0
VERTEX
  8
0
 10
-8.85021319565
 20
-36.8500037099
 30
0.0
  0
VERTEX
  8
0
 10
-8.85018986385
 20
-36.8000037154
 30
0.0
  0
VERTEX
  8
0
 10
-8.85016788442
 20
-36.7500037202
 30
0.0
  0
VERTEX
  8
0
 10
-8.85014725722
 20
-36.7000037245
 30
0.0
  0
VERTEX
  8
0
 10
-8.85012798209
 20
-36.6500037282
 30
0.0
  0
VERTEX
  8
0
 10
-8.85011005889
 20
-36.6000037314
 30
0.0
  0
VERTEX
  8
0
 10
-8.85009348749
 20
-36.5500037342
 30
0.0
  0
VERTEX
  8
0
 10
-8.85007826777
 20
-36.5000037365
 30
0.0
  0
VERTEX
  8
0
 10
-8.85006439963
 20
-36.4500037384
 30
0.0
  0
VERTEX
  8
0
 10
-8.85005188297
 20
-36.40000374
 30
0.0
  0
VERTEX
  8
0
 10
-8.85004071769
 20
-36.3500037412
 30
0.0
  0
VERTEX
  8
0
 10
-8.85003090371
 20
-36.3000037422
 30
0.0
  0
VERTEX
  8
0
 10
-8.85002244097
 20
-36.2500037429
 30
0.0
  0
VERTEX
  8
0
 10
-8.8500153294
 20
-36.2000037434
 30
0.0
  0
VERTEX
  8
0
 10
-8.85000956896
 20
-36.1500037437
 30
0.0
  0
VERTEX
  8
0
 10
-8.85000515959
 20
-36.1000037439
 30
0.0
  0
VERTEX
  8
0
 10
-8.85000210128
 20
-36.050003744
 30
0.0
  0
VERTEX
  8
0
 10
-8.85000039399
 20
-36.0000037441
 30
0.0
  0
VERTEX
  8
0
 10
-8.85
 20
-35.961818303
 30
0.0
  0
SEQEND
  8
0
  0
POLYLINE
  8
0
 62
0
 70
0
 66
1
 10
0.0
 20
0.0
 30
0.0
  0
VERTEX
  8
0
 10
8.8988741818
 20
-49.1162852249
 30
0.0
  0
VERTEX
  8
0
 10
8.89848590649
 20
-49.0662867325
 30
0.0
  0
VERTEX
  8
0
 10
8.89809940034
 20
-49.0162882264
 30
0.0
  0
VERTEX
  8
0
 10
8.89771465938
 20
-48.9662897067
 30
0.0
  0
VERTEX
  8
0
 10
8.89733167966
 20
-48.9162911735
 30
0.0
  0
VERTEX
  8
0
 10
8.89695045727
 20
-48.8662926268
 30
0.0
  0
VERTEX
  8
0
 10
8.89657098833
 20
-48.8162940668
 30
0.0
  0
VERTEX
  8
0
 10
8.89619326898
 20
-48.7662954935
 30
0.0
  0
VERTEX
  8
0
 10
8.89581729539
 20
-48.7162969071
 30
0.0
  0
VERTEX
  8
0
 10
8.89544306377
 20
-48.6662983076
 30
0.0
  0
VERTEX
  8
0
 10
8.89507057035
 20
-48.6162996952
 30
0.0
  0
VERTEX
  8
0
 10
8.8946998114
 20
-48.5663010698
 30
0.0
  0
VERTEX
  8
0
 10
8.89433078319
 20
-48.5163024317
 30
0.0
  0
VERTEX
  8
0
 10
8.89396348204
 20
-48.4663037808
 30
0.0
  0
VERTEX
  8
0
 10
8.89359790431
 20
-48.4163051173
 30
0.0
  0
VERTEX
  8
0
 10
8.89323404635
 20
-48.3663064412
 30
0.0
  0
VERTEX
  8
0
 10
8.89287190457
 20
-48.3163077527
 30
0.0
  0
VERTEX
  8
0
 10
8.89251147539
 20
-48.2663090518
 30
0.0
  0
VERTEX
  8
0
 10
8.89215275526
 20
-48.2163103386
 30
0.0
  0
VERTEX
  8
0
 10
8.89179574067
 20
-48.1663116132
 30
0.0
  0
VERTEX
  8
0
 10
8.89144042811
 20
-48.1163128757
 30
0.0
  0
VERTEX
  8
0
 10
8.89108681411
 20
-48.0663141262
 30
0.0
  0
VERTEX
  8
0
 10
8.89073489525
 20
-48.0163153647
 30
0.0
  0
VERTEX
  8
0
 10
8.89038466808
 20
-47.9663165913
 30
0.0
  0
VERTEX
  8
0
 10
8.89003612923
 20
-47.9163178061
 30
0.0
  0
VERTEX
  8
0
 10
8.88968927533
 20
-47.8663190092
 30
0.0
  0
VERTEX
  8
0
 10
8.88934410304
 20
-47.8163202006
 30
0.0
  0
VERTEX
  8
0
 10
8.88900060903
 20
-47.7663213805
 30
0.0
  0
VERTEX
  8
0
 10
8.88865879002
 20
-47.7163225489
 30
0.0
  0
VERTEX
  8
0
 10
8.88831864274
 20
-47.666323706
 30
0.0
  0
VERTEX
  8
0
 10
8.88798016395
 20
-47.6163248517
 30
0.0
  0
VERTEX
  8
0
 10
8.88764335043
 20
-47.5663259861
 30
0.0
  0
VERTEX
  8
0
 10
8.88730819898
 20
-47.5163271094
 30
0.0
  0
VERTEX
  8
0
 10
8.88697470644
 20
-47.4663282216
 30
0.0
  0
VERTEX
  8
0
 10
8.88664286966
 20
-47.4163293227
 30
0.0
  0
VERTEX
  8
0
 10
8.8863126855
 20
-47.366330413
 30
0.0
  0
VERTEX
  8
0
 10
8.88598415088
 20
-47.3163314923
 30
0.0
  0
VERTEX
  8
0
 10
8.88565726272
 20
-47.2663325609
 30
0.0
  0
VERTEX
  8
0
 10
8.88533201796
 20
-47.2163336188
 30
0.0
  0
VERTEX
  8
0
 10
8.88500841358
 20
-47.166334666
 30
0.0
  0
VERTEX
  8
0
 10
8.88468644655
 20
-47.1163357026
 30
0.0
  0
VERTEX
  8
0
 10
8.8843661139
 20
-47.0663367288
 30
0.0
  0
VERTEX
  8
0
 10
8.88404741267
 20
-47.0163377445
 30
0.0
  0
VERTEX
  8
0
 10
8.88373033991
 20
-46.9663387498
 30
0.0
  0
VERTEX
  8
0
 10
8.88341489271
 20
-46.9163397449
 30
0.0
  0
VERTEX
  8
0
 10
8.88310106816
 20
-46.8663407298
 30
0.0
  0
VERTEX
  8
0
 10
8.88278886339
 20
-46.8163417045
 30
0.0
  0
VERTEX
  8
0
 10
8.88247827554
 20
-46.7663426692
 30
0.0
  0
VERTEX
  8
0
 10
8.88216930179
 20
-46.7163436238
 30
0.0
  0
VERTEX
  8
0
 10
8.88186193933
 20
-46.6663445686
 30
0.0
  0
VERTEX
  8
0
 10
8.88155618535
 20
-46.6163455034
 30
0.0
  0
VERTEX
  8
0
 10
8.8812520371
 20
-46.5663464285
 30
0.0
  0
VERTEX
  8
0
 10
8.88094949182
 20
-46.5163473439
 30
0.0
  0
VERTEX
  8
0
 10
8.88064854679
 20
-46.4663482495
 30
0.0
  0
VERTEX
  8
0
 10
8.8803491993
 20
-46.4163491456
 30
0.0
  0
VERTEX
  8
0
 10
8.88005144667
 20
-46.3663500322
 30
0.0
  0
VERTEX
  8
0
 10
8.87975528622
 20
-46.3163509093
 30
0.0
  0
VERTEX
  8
0
 10
8.87946071531
 20
-46.2663517771
 30
0.0
  0
VERTEX
  8
0
 10
8.87916773131
 20
-46.2163526355
 30
0.0
  0
VERTEX
  8
0
 10
8.87887633163
 20
-46.1663534846
 30
0.0
  0
VERTEX
  8
0
 10
8.87858651366
 20
-46.1163543246
 30
0.0
  0
VERTEX
  8
0
 10
8.87829827485
 20
-46.0663551554
 30
0.0
  0
VERTEX
  8
0
 10
8.87801161265
 20
-46.0163559772
 30
0.0
  0
VERTEX
  8
0
 10
8.87772652452
 20
-45.9663567899
 30
0.0
  0
VERTEX
  8
0
 10
8.87744300797
 20
-45.9163575938
 30
0.0
  0
VERTEX
  8
0
 10
8.87716106049
 20
-45.8663583887
 30
0.0
  0
VERTEX
  8
0
 10
8.87688067963
 20
-45.8163591748
 30
0.0
  0
VERTEX
  8
0
 10
8.87660186292
 20
-45.7663599522
 30
0.0
  0
VERTEX
  8
0
 10
8.87632460794
 20
-45.716360721
 30
0.0
  0
VERTEX
  8
0
 10
8.87604891227
 20
-45.666361481
 30
0.0
  0
VERTEX
  8
0
 10
8.87577477351
 20
-45.6163622326
 30
0.0
  0
VERTEX
  8
0
 10
8.87550218928
 20
-45.5663629756
 30
0.0
  0
VERTEX
  8
0
 10
8.87523115724
 20
-45.5163637102
 30
0.0
  0
VERTEX
  8
0
 10
8.87496167503
 20
-45.4663644364
 30
0.0
  0
VERTEX
  8
0
 10
8.87469374033
 20
-45.4163651543
 30
0.0
  0
VERTEX
  8
0
 10
8.87442735084
 20
-45.3663658639
 30
0.0
  0
VERTEX
  8
0
 10
8.87416250427
 20
-45.3163665654
 30
0.0
  0
VERTEX
  8
0
 10
8.87389919835
 20
-45.2663672587
 30
0.0
  0
VERTEX
  8
0
 10
8.87363743083
 20
-45.2163679439
 30
0.0
  0
VERTEX
  8
0
 10
8.87337719948
 20
-45.1663686211
 30
0.0
  0
VERTEX
  8
0
 10
8.87311850207
 20
-45.1163692904
 30
0.0
  0
VERTEX
  8
0
 10
8.87286133641
 20
-45.0663699517
 30
0.0
  0
VERTEX
  8
0
 10
8.87260570031
 20
-45.0163706052
 30
0.0
  0
VERTEX
  8
0
 10
8.87235159161
 20
-44.966371251
 30
0.0
  0
VERTEX
  8
0
 10
8.87209900816
 20
-44.9163718889
 30
0.0
  0
VERTEX
  8
0
 10
8.87184794783
 20
-44.8663725193
 30
0.0
  0
VERTEX
  8
0
 10
8.87159840851
 20
-44.816373142
 30
0.0
  0
VERTEX
  8
0
 10
8.87135038809
 20
-44.7663737571
 30
0.0
  0
VERTEX
  8
0
 10
8.87110388449
 20
-44.7163743648
 30
0.0
  0
VERTEX
  8
0
 10
8.87085889565
 20
-44.666374965
 30
0.0
  0
VERTEX
  8
0
 10
8.87061541953
 20
-44.6163755578
 30
0.0
  0
VERTEX
  8
0
 10
8.87037345408
 20
-44.5663761432
 30
0.0
  0
VERTEX
  8
0
 10
8.87013299729
 20
-44.5163767214
 30
0.0
  0
VERTEX
  8
0
 10
8.86989404717
 20
-44.4663772924
 30
0.0
  0
VERTEX
  8
0
 10
8.86965660172
 20
-44.4163778562
 30
0.0
  0
VERTEX
  8
0
 10
8.86942065898
 20
-44.3663784129
 30
0.0
  0
VERTEX
  8
0
 10
8.86918621701
 20
-44.3163789626
 30
0.0
  0
VERTEX
  8
0
 10
8.86895327385
 20
-44.2663795052
 30
0.0
  0
VERTEX
  8
0
 10
8.86872182759
 20
-44.2163800409
 30
0.0
  0
VERTEX
  8
0
 10
8.86849187633
 20
-44.1663805697
 30
0.0
  0
VERTEX
  8
0
 10
8.86826341817
 20
-44.1163810916
 30
0.0
  0
VERTEX
  8
0
 10
8.86803645124
 20
-44.0663816067
 30
0.0
  0
VERTEX
  8
0
 10
8.86781097369
 20
-44.0163821151
 30
0.0
  0
VERTEX
  8
0
 10
8.86758698366
 20
-43.9663826169
 30
0.0
  0
VERTEX
  8
0
 10
8.86736447934
 20
-43.9163831119
 30
0.0
  0
VERTEX
  8
0
 10
8.8671434589
 20
-43.8663836004
 30
0.0
  0
VERTEX
  8
0
 10
8.86692392055
 20
-43.8163840824
 30
0.0
  0
VERTEX
  8
0
 10
8.86670586251
 20
-43.7663845579
 30
0.0
  0
VERTEX
  8
0
 10
8.866489283
 20
-43.716385027
 30
0.0
  0
VERTEX
  8
0
 10
8.86627418028
 20
-43.6663854897
 30
0.0
  0
VERTEX
  8
0
 10
8.86606055259
 20
-43.6163859461
 30
0.0
  0
VERTEX
  8
0
 10
8.86584839823
 20
-43.5663863962
 30
0.0
  0
VERTEX
  8
0
 10
8.86563771548
 20
-43.51638684
 30
0.0
  0
VERTEX
  8
0
 10
8.86542850264
 20
-43.4663872777
 30
0.0
  0
VERTEX
  8
0
 10
8.86522075803
 20
-43.4163877093
 30
0.0
  0
VERTEX
  8
0
 10
8.86501447999
 20
-43.3663881348
 30
0.0
  0
VERTEX
  8
0
 10
8.86480966686
 20
-43.3163885543
 30
0.0
  0
VERTEX
  8
0
 10
8.86460631701
 20
-43.2663889678
 30
0.0
  0
VERTEX
  8
0
 10
8.86440442881
 20
-43.2163893754
 30
0.0
  0
VERTEX
  8
0
 10
8.86420400065
 20
-43.1663897771
 30
0.0
  0
VERTEX
  8
0
 10
8.86400503094
 20
-43.116390173
 30
0.0
  0
VERTEX
  8
0
 10
8.86380751808
 20
-43.0663905632
 30
0.0
  0
VERTEX
  8
0
 10
8.86361146053
 20
-43.0163909475
 30
0.0
  0
VERTEX
  8
0
 10
8.86341685671
 20
-42.9663913262
 30
0.0
  0
VERTEX
  8
0
 10
8.86322370509
 20
-42.9163916993
 30
0.0
  0
VERTEX
  8
0
 10
8.86303200414
 20
-42.8663920668
 30
0.0
  0
VERTEX
  8
0
 10
8.86284175236
 20
-42.8163924288
 30
0.0
  0
VERTEX
  8
0
 10
8.86265294823
 20
-42.7663927853
 30
0.0
  0
VERTEX
  8
0
 10
8.86246559027
 20
-42.7163931363
 30
0.0
  0
VERTEX
  8
0
 10
8.86227967701
 20
-42.6663934819
 30
0.0
  0
VERTEX
  8
0
 10
8.86209520699
 20
-42.6163938222
 30
0.0
  0
VERTEX
  8
0
 10
8.86191217876
 20
-42.5663941572
 30
0.0
  0
VERTEX
  8
0
 10
8.86173059088
 20
-42.516394487
 30
0.0
  0
VERTEX
  8
0
 10
8.86155044195
 20
-42.4663948115
 30
0.0
  0
VERTEX
  8
0
 10
8.86137173055
 20
-42.4163951309
 30
0.0
  0
VERTEX
  8
0
 10
8.86119445528
 20
-42.3663954452
 30
0.0
  0
VERTEX
  8
0
 10
8.86101861478
 20
-42.3163957544
 30
0.0
  0
VERTEX
  8
0
 10
8.86084420765
 20
-42.2663960585
 30
0.0
  0
VERTEX
  8
0
 10
8.86067123257
 20
-42.2163963577
 30
0.0
  0
VERTEX
  8
0
 10
8.86049968817
 20
-42.166396652
 30
0.0
  0
VERTEX
  8
0
 10
8.86032957313
 20
-42.1163969414
 30
0.0
  0
VERTEX
  8
0
 10
8.86016088613
 20
-42.066397226
 30
0.0
  0
VERTEX
  8
0
 10
8.85999362587
 20
-42.0163975057
 30
0.0
  0
VERTEX
  8
0
 10
8.85993908301
 20
-42.0
 30
0.0
  0
SEQEND
  8
0
  0
POLYLINE
  8
0
 62
0
 70
0
 66
1
 10
0.0
 20
0.0
 30
0.0
  0
VERTEX
  8
0
 10
8.85487449441
 20
-40.2
 30
0.0
  0
VERTEX
  8
0
 10
8.85475967256
 20
-40.1500001318
 30
0.0
  0
VERTEX
  8
0
 10
8.85464623651
 20
-40.1000002605
 30
0.0
  0
VERTEX
  8
0
 10
8.85453418541
 20
-40.0500003861
 30
0.0
  0
VERTEX
  8
0
 10
8.85442351844
 20
-40.0000005086
 30
0.0
  0
VERTEX
  8
0
 10
8.85431423478
 20
-39.950000628
 30
0.0
  0
VERTEX
  8
0
 10
8.85420633361
 20
-39.9000007444
 30
0.0
  0
VERTEX
  8
0
 10
8.85409981413
 20
-39.8500008579
 30
0.0
  0
VERTEX
  8
0
 10
8.85399467556
 20
-39.8000009684
 30
0.0
  0
VERTEX
  8
0
 10
8.85389091712
 20
-39.7500010761
 30
0.0
  0
VERTEX
  8
0
 10
8.85378853804
 20
-39.7000011809
 30
0.0
  0
VERTEX
  8
0
 10
8.85368753756
 20
-39.6500012829
 30
0.0
  0
VERTEX
  8
0
 10
8.85358791495
 20
-39.6000013822
 30
0.0
  0
VERTEX
  8
0
 10
8.85348966946
 20
-39.5500014787
 30
0.0
  0
VERTEX
  8
0
 10
8.85339280038
 20
-39.5000015725
 30
0.0
  0
VERTEX
  8
0
 10
8.85329730698
 20
-39.4500016637
 30
0.0
  0
VERTEX
  8
0
 10
8.85320318857
 20
-39.4000017523
 30
0.0
  0
VERTEX
  8
0
 10
8.85311044445
 20
-39.3500018383
 30
0.0
  0
VERTEX
  8
0
 10
8.85301907395
 20
-39.3000019218
 30
0.0
  0
VERTEX
  8
0
 10
8.85292907639
 20
-39.2500020028
 30
0.0
  0
VERTEX
  8
0
 10
8.8528404511
 20
-39.2000020813
 30
0.0
  0
VERTEX
  8
0
 10
8.85275319745
 20
-39.1500021575
 30
0.0
  0
VERTEX
  8
0
 10
8.85266731479
 20
-39.1000022312
 30
0.0
  0
VERTEX
  8
0
 10
8.85258280249
 20
-39.0500023027
 30
0.0
  0
VERTEX
  8
0
 10
8.85249965993
 20
-39.0000023718
 30
0.0
  0
VERTEX
  8
0
 10
8.85241788651
 20
-38.9500024387
 30
0.0
  0
VERTEX
  8
0
 10
8.85233748162
 20
-38.9000025033
 30
0.0
  0
VERTEX
  8
0
 10
8.85225844469
 20
-38.8500025658
 30
0.0
  0
VERTEX
  8
0
 10
8.85218077512
 20
-38.8000026261
 30
0.0
  0
VERTEX
  8
0
 10
8.85210447236
 20
-38.7500026843
 30
0.0
  0
VERTEX
  8
0
 10
8.85202953585
 20
-38.7000027405
 30
0.0
  0
VERTEX
  8
0
 10
8.85195596504
 20
-38.6500027946
 30
0.0
  0
VERTEX
  8
0
 10
8.85188375939
 20
-38.6000028468
 30
0.0
  0
VERTEX
  8
0
 10
8.85181291839
 20
-38.5500028969
 30
0.0
  0
VERTEX
  8
0
 10
8.85174344151
 20
-38.5000029452
 30
0.0
  0
VERTEX
  8
0
 10
8.85167532824
 20
-38.4500029916
 30
0.0
  0
VERTEX
  8
0
 10
8.8516085781
 20
-38.4000030362
 30
0.0
  0
VERTEX
  8
0
 10
8.8515431906
 20
-38.3500030789
 30
0.0
  0
VERTEX
  8
0
 10
8.85147916526
 20
-38.3000031199
 30
0.0
  0
VERTEX
  8
0
 10
8.85141650161
 20
-38.2500031592
 30
0.0
  0
VERTEX
  8
0
 10
8.85135519921
 20
-38.2000031968
 30
0.0
  0
VERTEX
  8
0
 10
8.85129525761
 20
-38.1500032327
 30
0.0
  0
VERTEX
  8
0
 10
8.85123667637
 20
-38.100003267
 30
0.0
  0
VERTEX
  8
0
 10
8.85117945506
 20
-38.0500032998
 30
0.0
  0
VERTEX
  8
0
 10
8.85112359328
 20
-38.000003331
 30
0.0
  0
VERTEX
  8
0
 10
8.85106909062
 20
-37.9500033607
 30
0.0
  0
VERTEX
  8
0
 10
8.85101594668
 20
-37.9000033889
 30
0.0
  0
VERTEX
  8
0
 10
8.85096416108
 20
-37.8500034157
 30
0.0
  0
VERTEX
  8
0
 10
8.85091373344
 20
-37.8000034412
 30
0.0
  0
VERTEX
  8
0
 10
8.8508646634
 20
-37.7500034652
 30
0.0
  0
VERTEX
  8
0
 10
8.85081695061
 20
-37.700003488
 30
0.0
  0
VERTEX
  8
0
 10
8.85077059472
 20
-37.6500035095
 30
0.0
  0
VERTEX
  8
0
 10
8.85072559539
 20
-37.6000035298
 30
0.0
  0
VERTEX
  8
0
 10
8.8506819523
 20
-37.5500035488
 30
0.0
  0
VERTEX
  8
0
 10
8.85063966514
 20
-37.5000035667
 30
0.0
  0
VERTEX
  8
0
 10
8.85059873359
 20
-37.4500035834
 30
0.0
  0
VERTEX
  8
0
 10
8.85055915737
 20
-37.4000035991
 30
0.0
  0
VERTEX
  8
0
 10
8.85052093618
 20
-37.3500036137
 30
0.0
  0
VERTEX
  8
0
 10
8.85048406976
 20
-37.3000036273
 30
0.0
  0
VERTEX
  8
0
 10
8.85044855784
 20
-37.2500036399
 30
0.0
  0
VERTEX
  8
0
 10
8.85041440015
 20
-37.2000036516
 30
0.0
  0
VERTEX
  8
0
 10
8.85038159646
 20
-37.1500036624
 30
0.0
  0
VERTEX
  8
0
 10
8.85035014653
 20
-37.1000036722
 30
0.0
  0
VERTEX
  8
0
 10
8.85032005013
 20
-37.0500036813
 30
0.0
  0
VERTEX
  8
0
 10
8.85029130704
 20
-37.0000036896
 30
0.0
  0
VERTEX
  8
0
 10
8.85026391706
 20
-36.9500036971
 30
0.0
  0
VERTEX
  8
0
 10
8.85023788
 20
-36.9000037039
 30
0.0
  0
VERTEX
  8
0
 10
8.85021319565
 20
-36.8500037099
 30
0.0
  0
VERTEX
  8
0
 10
8.85018986385
 20
-36.8000037154
 30
0.0
  0
VERTEX
  8
0
 10
8.85016788442
 20
-36.7500037202
 30
0.0
  0
VERTEX
  8
0
 10
8.85014725722
 20
-36.7000037245
 30
0.0
  0
VERTEX
  8
0
 10
8.85012798209
 20
-36.6500037282
 30
0.0
  0
VERTEX
  8
0
 10
8.85011005889
 20
-36.6000037314
 30
0.0
  0
VERTEX
  8
0
 10
8.85009348749
 20
-36.5500037342
 30
0.0
  0
VERTEX
  8
0
 10
8.85007826777
 20
-36.5000037365
 30
0.0
  0
VERTEX
  8
0
 10
8.85006439963
 20
-36.4500037384
 30
0.0
  0
VERTEX
  8
0
 10
8.85005188297
 20
-36.40000374
 30
0.0
  0
VERTEX
  8
0
 10
8.85004071769
 20
-36.3500037412
 30
0.0
  0
VERTEX
  8
0
 10
8.85003090371
 20
-36.3000037422
 30
0.0
  0
VERTEX
  8
0
 10
8.85002244097
 20
-36.2500037429
 30
0.0
  0
VERTEX
  8
0
 10
8.8500153294
 20
-36.2000037434
 30
0.0
  0
VERTEX
  8
0
 10
8.85000956896
 20
-36.1500037437
 30
0.0
  0
VERTEX
  8
0
 10
8.85000515959
 20
-36.1000037439
 30
0.0
  0
VERTEX
  8
0
 10
8.85000210128
 20
-36.050003744
 30
0.0
  0
VERTEX
  8
0
 10
8.85000039399
 20
-36.0000037441
 30
0.0
  0
VERTEX
  8
0
 10
8.85
 20
-35.961818303
 30
0.0
  0
SEQEND
  8
0
  0
POLYLINE
  8
0
 62
0
 70
0
 66
1
 10
0.0
 20
0.0
 30
0.0
  0
VERTEX
  8
0
 10
0.854479150737
 20
-40.9733586067
 30
0.0
  0
VERTEX
  8
0
 10
0.902543153753
 20
-40.987041137
 30
0.0
  0
VERTEX
  8
0
 10
0.951839152733
 20
-40.9952432154
 30
0.0
  0
VERTEX
  8
0
 10
1.00174413819
 20
-40.9978608221
 30
0.0
  0
VERTEX
  8
0
 10
1.05162696358
 20
-40.9948502024
 30
0.0
  0
VERTEX
  8
0
 10
1.10085716841
 20
-40.9862619221
 30
0.0
  0
VERTEX
  8
0
 10
1.14552084926
 20
-40.9733586067
 30
0.0
  0
SEQEND
  8
0
  0
POLYLINE
  8
0
 62
0
 70
0
 66
1
 10
0.0
 20
0.0
 30
0.0
  0
VERTEX
  8
0
 10
1.14552084926
 20
-40.9733586067
 30
0.0
  0
VERTEX
  8
0
 10
1.1888733844
 20
-40.9982696022
 30
0.0
  0
VERTEX
  8
0
 10
1.23222617867
 20
-41.0231801467
 30
0.0
  0
VERTEX
  8
0
 10
1.27557923217
 20
-41.0480902401
 30
0.0
  0
VERTEX
  8
0
 10
1.31893254496
 20
-41.0729998822
 30
0.0
  0
VERTEX
  8
0
 10
1.36228611713
 20
-41.0979090729
 30
0.0
  0
VERTEX
  8
0
 10
1.40563994876
 20
-41.122817812
 30
0.0
  0
VERTEX
  8
0
 10
1.44899403992
 20
-41.1477260993
 30
0.0
  0
VERTEX
  8
0
 10
1.49234839069
 20
-41.1726339348
 30
0.0
  0
VERTEX
  8
0
 10
1.53570300116
 20
-41.1975413183
 30
0.0
  0
VERTEX
  8
0
 10
1.54842899669
 20
-41.2048523355
 30
0.0
  0
SEQEND
  8
0
  0
POLYLINE
  8
0
 62
0
 70
0
 66
1
 10
0.0
 20
0.0
 30
0.0
  0
VERTEX
  8
0
 10
1.54842899669
 20
-41.2048523355
 30
0.0
  0
VERTEX
  8
0
 10
1.59460733493
 20
-41.2236338569
 30
0.0
  0
VERTEX
  8
0
 10
1.64407761602
 20
-41.229874443
 30
0.0
  0
VERTEX
  8
0
 10
1.69347173634
 20
-41.2231402359
 30
0.0
  0
VERTEX
  8
0
 10
1.73927190737
 20
-41.2034530181
 30
0.0
  0
VERTEX
  8
0
 10
1.7784689096
 20
-41.1726330587
 30
0.0
  0
VERTEX
  8
0
 10
1.80656638977
 20
-41.1359005982
 30
0.0
  0
SEQEND
  8
0
  0
POLYLINE
  8
0
 62
0
 70
0
 66
1
 10
0.0
 20
0.0
 30
0.0
  0
VERTEX
  8
0
 10
1.80656638977
 20
-41.1359005982
 30
0.0
  0
VERTEX
  8
0
 10
1.8317245621
 20
-41.0926910348
 30
0.0
  0
VERTEX
  8
0
 10
1.85688137806
 20
-41.0494806818
 30
0.0
  0
VERTEX
  8
0
 10
1.88203683842
 20
-41.0062695395
 30
0.0
  0
VERTEX
  8
0
 10
1.90719094398
 20
-40.9630576086
 30
0.0
  0
VERTEX
  8
0
 10
1.90719159952
 20
-40.9630564824
 30
0.0
  0
SEQEND
  8
0
  0
POLYLINE
  8
0
 62
0
 70
0
 66
1
 10
0.0
 20
0.0
 30
0.0
  0
VERTEX
  8
0
 10
1.90719159952
 20
-40.9630564824
 30
0.0
  0
VERTEX
  8
0
 10
1.92638422181
 20
-40.9170424689
 30
0.0
  0
VERTEX
  8
0
 10
1.93300561352
 20
-40.8681566817
 30
0.0
  0
SEQEND
  8
0
  0
POLYLINE
  8
0
 62
0
 70
0
 66
1
 10
0.0
 20
0.0
 30
0.0
  0
VERTEX
  8
0
 10
1.83823979138
 20
-40.7028853145
 30
0.0
  0
VERTEX
  8
0
 10
1.79498720619
 20
-40.6778011786
 30
0.0
  0
VERTEX
  8
0
 10
1.75173435579
 20
-40.6527175
 30
0.0
  0
VERTEX
  8
0
 10
1.70848124031
 20
-40.6276342785
 30
0.0
  0
VERTEX
  8
0
 10
1.66522785985
 20
-40.6025515139
 30
0.0
  0
VERTEX
  8
0
 10
1.62197421451
 20
-40.5774692061
 30
0.0
  0
VERTEX
  8
0
 10
1.57872030443
 20
-40.5523873548
 30
0.0
  0
VERTEX
  8
0
 10
1.53546612969
 20
-40.52730596
 30
0.0
  0
VERTEX
  8
0
 10
1.49221169041
 20
-40.5022250213
 30
0.0
  0
VERTEX
  8
0
 10
1.4489569867
 20
-40.4771445388
 30
0.0
  0
VERTEX
  8
0
 10
1.4362863616
 20
-40.469797814
 30
0.0
  0
SEQEND
  8
0
  0
POLYLINE
  8
0
 62
0
 70
0
 66
1
 10
0.0
 20
0.0
 30
0.0
  0
VERTEX
  8
0
 10
1.29261995832
 20
-40.219393306
 30
0.0
  0
VERTEX
  8
0
 10
1.2927930191
 20
-40.1693936056
 30
0.0
  0
VERTEX
  8
0
 10
1.29296400044
 20
-40.1193938979
 30
0.0
  0
VERTEX
  8
0
 10
1.29313290363
 20
-40.0693941832
 30
0.0
  0
VERTEX
  8
0
 10
1.29329972991
 20
-40.0193944615
 30
0.0
  0
VERTEX
  8
0
 10
1.29346448051
 20
-39.9693947329
 30
0.0
  0
VERTEX
  8
0
 10
1.29362715667
 20
-39.9193949976
 30
0.0
  0
VERTEX
  8
0
 10
1.29378775959
 20
-39.8693952555
 30
0.0
  0
VERTEX
  8
0
 10
1.29394629044
 20
-39.8193955068
 30
0.0
  0
VERTEX
  8
0
 10
1.29410275042
 20
-39.7693957516
 30
0.0
  0
VERTEX
  8
0
 10
1.29414815959
 20
-39.7547592221
 30
0.0
  0
SEQEND
  8
0
  0
POLYLINE
  8
0
 62
0
 70
0
 66
1
 10
0.0
 20
0.0
 30
0.0
  0
VERTEX
  8
0
 10
1.29414815959
 20
-39.7547592221
 30
0.0
  0
VERTEX
  8
0
 10
1.28779044588
 20
-39.7053067563
 30
0.0
  0
VERTEX
  8
0
 10
1.26912947572
 20
-39.6590633497
 30
0.0
  0
VERTEX
  8
0
 10
1.23940109731
 20
-39.6190350665
 30
0.0
  0
VERTEX
  8
0
 10
1.20030920981
 20
-39.5880885623
 30
0.0
  0
VERTEX
  8
0
 10
1.15465695221
 20
-39.5680225639
 30
0.0
  0
VERTEX
  8
0
 10
1.10542940588
 20
-39.5601025413
 30
0.0
  0
VERTEX
  8
0
 10
1.1
 20
-39.5600237685
 30
0.0
  0
SEQEND
  8
0
  0
POLYLINE
  8
0
 62
0
 70
0
 66
1
 10
0.0
 20
0.0
 30
0.0
  0
VERTEX
  8
0
 10
0.9
 20
-39.5600237685
 30
0.0
  0
VERTEX
  8
0
 10
0.850569200621
 20
-39.5665456095
 30
0.0
  0
VERTEX
  8
0
 10
0.804383761392
 20
-39.5853511492
 30
0.0
  0
VERTEX
  8
0
 10
0.764435683367
 20
-39.6151872827
 30
0.0
  0
VERTEX
  8
0
 10
0.733600086804
 20
-39.654366639
 30
0.0
  0
VERTEX
  8
0
 10
0.713675533522
 20
-39.7000804518
 30
0.0
  0
VERTEX
  8
0
 10
0.705913640032
 20
-39.749333275
 30
0.0
  0
VERTEX
  8
0
 10
0.705851840409
 20
-39.7547592221
 30
0.0
  0
SEQEND
  8
0
  0
POLYLINE
  8
0
 62
0
 70
0
 66
1
 10
0.0
 20
0.0
 30
0.0
  0
VERTEX
  8
0
 10
0.705851840409
 20
-39.7547592221
 30
0.0
  0
VERTEX
  8
0
 10
0.706007694389
 20
-39.8047589792
 30
0.0
  0
VERTEX
  8
0
 10
0.706165618912
 20
-39.8547587298
 30
0.0
  0
VERTEX
  8
0
 10
0.706325615147
 20
-39.9047584738
 30
0.0
  0
VERTEX
  8
0
 10
0.706487684277
 20
-39.9547582111
 30
0.0
  0
VERTEX
  8
0
 10
0.706651827501
 20
-40.0047579417
 30
0.0
  0
VERTEX
  8
0
 10
0.706818046036
 20
-40.0547576654
 30
0.0
  0
VERTEX
  8
0
 10
0.706986341115
 20
-40.1047573821
 30
0.0
  0
VERTEX
  8
0
 10
0.707156713986
 20
-40.1547570919
 30
0.0
  0
VERTEX
  8
0
 10
0.707329165915
 20
-40.2047567945
 30
0.0
  0
VERTEX
  8
0
 10
0.707380041681
 20
-40.219393306
 30
0.0
  0
SEQEND
  8
0
  0
POLYLINE
  8
0
 62
0
 70
0
 66
1
 10
0.0
 20
0.0
 30
0.0
  0
VERTEX
  8
0
 10
0.563713638395
 20
-40.469797814
 30
0.0
  0
VERTEX
  8
0
 10
0.520458857242
 20
-40.494878163
 30
0.0
  0
VERTEX
  8
0
 10
0.477204340491
 20
-40.5199589681
 30
0.0
  0
VERTEX
  8
0
 10
0.43395008825
 20
-40.5450402293
 30
0.0
  0
VERTEX
  8
0
 10
0.390696100626
 20
-40.5701219468
 30
0.0
  0
VERTEX
  8
0
 10
0.347442377729
 20
-40.5952041209
 30
0.0
  0
VERTEX
  8
0
 10
0.304188919667
 20
-40.6202867516
 30
0.0
  0
VERTEX
  8
0
 10
0.260935726552
 20
-40.6453698392
 30
0.0
  0
VERTEX
  8
0
 10
0.217682798492
 20
-40.6704533839
 30
0.0
  0
VERTEX
  8
0
 10
0.1744301356
 20
-40.6955373859
 30
0.0
  0
VERTEX
  8
0
 10
0.161760208617
 20
-40.7028853145
 30
0.0
  0
SEQEND
  8
0
  0
POLYLINE
  8
0
 62
0
 70
0
 66
1
 10
0.0
 20
0.0
 30
0.0
  0
VERTEX
  8
0
 10
0.161760208617
 20
-40.7028853145
 30
0.0
  0
VERTEX
  8
0
 10
0.122506945248
 20
-40.7336054491
 30
0.0
  0
VERTEX
  8
0
 10
0.0925455335712
 20
-40.7734668832
 30
0.0
  0
VERTEX
  8
0
 10
0.0734757280853
 20
-40.8195428256
 30
0.0
  0
VERTEX
  8
0
 10
0.066994386475
 20
-40.8681566817
 30
0.0
  0
SEQEND
  8
0
  0
POLYLINE
  8
0
 62
0
 70
0
 66
1
 10
0.0
 20
0.0
 30
0.0
  0
VERTEX
  8
0
 10
0.0928084004822
 20
-40.9630564824
 30
0.0
  0
VERTEX
  8
0
 10
0.117962506
 20
-41.0062684134
 30
0.0
  0
VERTEX
  8
0
 10
0.143117966333
 20
-41.0494795556
 30
0.0
  0
VERTEX
  8
0
 10
0.168274782255
 20
-41.0926899087
 30
0.0
  0
VERTEX
  8
0
 10
0.193432954551
 20
-41.1358994721
 30
0.0
  0
VERTEX
  8
0
 10
0.193433610233
 20
-41.1359005982
 30
0.0
  0
SEQEND
  8
0
  0
POLYLINE
  8
0
 62
0
 70
0
 66
1
 10
0.0
 20
0.0
 30
0.0
  0
VERTEX
  8
0
 10
0.193433610233
 20
-41.1359005982
 30
0.0
  0
VERTEX
  8
0
 10
0.224110937936
 20
-41.1751951198
 30
0.0
  0
VERTEX
  8
0
 10
0.26387741543
 20
-41.2052776517
 30
0.0
  0
VERTEX
  8
0
 10
0.310046045366
 20
-41.2240794698
 30
0.0
  0
VERTEX
  8
0
 10
0.359562449981
 20
-41.2298603635
 30
0.0
  0
VERTEX
  8
0
 10
0.408906522816
 20
-41.2226925443
 30
0.0
  0
VERTEX
  8
0
 10
0.451571003311
 20
-41.2048523355
 30
0.0
  0
SEQEND
  8
0
  0
POLYLINE
  8
0
 62
0
 70
0
 66
1
 10
0.0
 20
0.0
 30
0.0
  0
VERTEX
  8
0
 10
0.451571003311
 20
-41.2048523355
 30
0.0
  0
VERTEX
  8
0
 10
0.494925690022
 20
-41.1799450847
 30
0.0
  0
VERTEX
  8
0
 10
0.538280117014
 20
-41.1550373819
 30
0.0
  0
VERTEX
  8
0
 10
0.581634284369
 20
-41.1301292271
 30
0.0
  0
VERTEX
  8
0
 10
0.624988192167
 20
-41.1052206206
 30
0.0
  0
VERTEX
  8
0
 10
0.668341840487
 20
-41.0803115625
 30
0.0
  0
VERTEX
  8
0
 10
0.711695229407
 20
-41.0554020529
 30
0.0
  0
VERTEX
  8
0
 10
0.755048359008
 20
-41.0304920919
 30
0.0
  0
VERTEX
  8
0
 10
0.798401229365
 20
-41.0055816798
 30
0.0
  0
VERTEX
  8
0
 10
0.841753840558
 20
-40.9806708167
 30
0.0
  0
VERTEX
  8
0
 10
0.854479150737
 20
-40.9733586067
 30
0.0
  0
SEQEND
  8
0
  0
POLYLINE
  8
0
 62
0
 70
0
 66
1
 10
0.0
 20
0.0
 30
0.0
  0
VERTEX
  8
0
 10
0.854479150737
 20
-40.9733586067
 30
0.0
  0
VERTEX
  8
0
 10
0.835866428427
 20
-40.9369699947
 30
0.0
  0
SEQEND
  8
0
  0
POLYLINE
  8
0
 62
0
 70
0
 66
1
 10
0.0
 20
0.0
 30
0.0
  0
VERTEX
  8
0
 10
1.16413357157
 20
-40.9369699947
 30
0.0
  0
VERTEX
  8
0
 10
1.14552084926
 20
-40.9733586067
 30
0.0
  0
SEQEND
  8
0
  0
POLYLINE
  8
0
 62
0
 70
0
 66
1
 10
0.0
 20
0.0
 30
0.0
  0
VERTEX
  8
0
 10
-0.911038961039
 20
-28.3435200467
 30
0.0
  0
VERTEX
  8
0
 10
-0.908744218215
 20
-28.3934605585
 30
0.0
  0
VERTEX
  8
0
 10
-0.902075248858
 20
-28.4429939478
 30
0.0
  0
VERTEX
  8
0
 10
-0.890844387747
 20
-28.4916955649
 30
0.0
  0
VERTEX
  8
0
 10
-0.874395722184
 20
-28.5388833689
 30
0.0
  0
VERTEX
  8
0
 10
-0.852957209816
 20
-28.5840338815
 30
0.0
  0
VERTEX
  8
0
 10
-0.827446995312
 20
-28.6270103452
 30
0.0
  0
VERTEX
  8
0
 10
-0.797583877124
 20
-28.6670893462
 30
0.0
  0
VERTEX
  8
0
 10
-0.764217098941
 20
-28.7043028731
 30
0.0
  0
VERTEX
  8
0
 10
-0.727425900896
 20
-28.7381322766
 30
0.0
  0
VERTEX
  8
0
 10
-0.687651774646
 20
-28.7684059278
 30
0.0
  0
VERTEX
  8
0
 10
-0.645479041563
 20
-28.7952357128
 30
0.0
  0
VERTEX
  8
0
 10
-0.601095153469
 20
-28.8182301044
 30
0.0
  0
VERTEX
  8
0
 10
-0.55530971239
 20
-28.8383062522
 30
0.0
  0
VERTEX
  8
0
 10
-0.508469811632
 20
-28.8557808809
 30
0.0
  0
VERTEX
  8
0
 10
-0.460750993715
 20
-28.8706922879
 30
0.0
  0
VERTEX
  8
0
 10
-0.412322988463
 20
-28.8831083082
 30
0.0
  0
VERTEX
  8
0
 10
-0.363367190858
 20
-28.8932612877
 30
0.0
  0
VERTEX
  8
0
 10
-0.343506493506
 20
-28.8970508908
 30
0.0
  0
SEQEND
  8
0
  0
POLYLINE
  8
0
 62
0
 70
0
 66
1
 10
0.0
 20
0.0
 30
0.0
  0
VERTEX
  8
0
 10
0.0154017857143
 20
-27.4931547869
 30
0.0
  0
VERTEX
  8
0
 10
0.0653971192142
 20
-27.4938263267
 30
0.0
  0
VERTEX
  8
0
 10
0.115372972705
 20
-27.4953368324
 30
0.0
  0
VERTEX
  8
0
 10
0.165288306009
 20
-27.4982204893
 30
0.0
  0
VERTEX
  8
0
 10
0.215125661685
 20
-27.5022400259
 30
0.0
  0
VERTEX
  8
0
 10
0.264855684587
 20
-27.5074128632
 30
0.0
  0
VERTEX
  8
0
 10
0.314386023918
 20
-27.5142300417
 30
0.0
  0
VERTEX
  8
0
 10
0.363668186723
 20
-27.5226617886
 30
0.0
  0
VERTEX
  8
0
 10
0.41269659802
 20
-27.5324614494
 30
0.0
  0
VERTEX
  8
0
 10
0.461365595419
 20
-27.5439083964
 30
0.0
  0
VERTEX
  8
0
 10
0.509550956525
 20
-27.5572441315
 30
0.0
  0
VERTEX
  8
0
 10
0.557157735558
 20
-27.5725162936
 30
0.0
  0
VERTEX
  8
0
 10
0.604072341846
 20
-27.5897970484
 30
0.0
  0
VERTEX
  8
0
 10
0.650199293843
 20
-27.6090825947
 30
0.0
  0
VERTEX
  8
0
 10
0.69548104687
 20
-27.6302769
 30
0.0
  0
VERTEX
  8
0
 10
0.739816895578
 20
-27.6533838673
 30
0.0
  0
VERTEX
  8
0
 10
0.78302509699
 20
-27.6785341547
 30
0.0
  0
VERTEX
  8
0
 10
0.82496558852
 20
-27.7057476708
 30
0.0
  0
VERTEX
  8
0
 10
0.865672828925
 20
-27.7347722695
 30
0.0
  0
VERTEX
  8
0
 10
0.904528835613
 20
-27.7662234772
 30
0.0
  0
VERTEX
  8
0
 10
0.941272981086
 20
-27.8001228218
 30
0.0
  0
VERTEX
  8
0
 10
0.975946114695
 20
-27.8361360209
 30
0.0
  0
VERTEX
  8
0
 10
1.00826925383
 20
-27.8742731802
 30
0.0
  0
VERTEX
  8
0
 10
1.03828428685
 20
-27.9142521466
 30
0.0
  0
VERTEX
  8
0
 10
1.06556125023
 20
-27.9561445754
 30
0.0
  0
VERTEX
  8
0
 10
1.09021602754
 20
-27.9996360067
 30
0.0
  0
VERTEX
  8
0
 10
1.11216055766
 20
-28.0445521284
 30
0.0
  0
VERTEX
  8
0
 10
1.13097980069
 20
-28.0908654905
 30
0.0
  0
VERTEX
  8
0
 10
1.14677278586
 20
-28.1382967226
 30
0.0
  0
VERTEX
  8
0
 10
1.15944184244
 20
-28.1866554995
 30
0.0
  0
VERTEX
  8
0
 10
1.16889062848
 20
-28.2357464392
 30
0.0
  0
VERTEX
  8
0
 10
1.17567029771
 20
-28.2852789966
 30
0.0
  0
VERTEX
  8
0
 10
1.17913356612
 20
-28.3351462147
 30
0.0
  0
VERTEX
  8
0
 10
1.17987012987
 20
-28.372456735
 30
0.0
  0
SEQEND
  8
0
  0
POLYLINE
  8
0
 62
0
 70
0
 66
1
 10
0.0
 20
0.0
 30
0.0
  0
VERTEX
  8
0
 10
-7.11778922734
 20
-6.7406256505
 30
0.0
  0
VERTEX
  8
0
 10
-7.07346081438
 20
-6.76372446134
 30
0.0
  0
VERTEX
  8
0
 10
-7.07248728055
 20
-6.76428547111
 30
0.0
  0
SEQEND
  8
0
  0
POLYLINE
  8
0
 62
0
 70
0
 66
1
 10
0.0
 20
0.0
 30
0.0
  0
VERTEX
  8
0
 10
-7.59210252282
 20
-6.46428547111
 30
0.0
  0
VERTEX
  8
0
 10
-7.54988412473
 20
-6.4910468362
 30
0.0
  0
VERTEX
  8
0
 10
-7.54896154374
 20
-6.49168819756
 30
0.0
  0
SEQEND
  8
0
  0
POLYLINE
  8
0
 62
0
 70
0
 66
1
 10
0.0
 20
0.0
 30
0.0
  0
VERTEX
  8
0
 10
-7.83324922893
 20
-6.65582176913
 30
0.0
  0
VERTEX
  8
0
 10
-7.83540927842
 20
-6.60588283199
 30
0.0
  0
VERTEX
  8
0
 10
-7.83541019663
 20
-6.60475922207
 30
0.0
  0
SEQEND
  8
0
  0
POLYLINE
  8
0
 62
0
 70
0
 66
1
 10
0.0
 20
0.0
 30
0.0
  0
VERTEX
  8
0
 10
-8.88910478343
 20
-2.6
 30
0.0
  0
VERTEX
  8
0
 10
-8.89140927543
 20
-2.64985666014
 30
0.0
  0
VERTEX
  8
0
 10
-8.89212428915
 20
-2.69985135725
 30
0.0
  0
VERTEX
  8
0
 10
-8.89248169209
 20
-2.74985001594
 30
0.0
  0
VERTEX
  8
0
 10
-8.89259313743
 20
-2.79984984975
 30
0.0
  0
VERTEX
  8
0
 10
-8.89259313841
 20
-2.8
 30
0.0
  0
SEQEND
  8
0
  0
POLYLINE
  8
0
 62
0
 70
0
 66
1
 10
0.0
 20
0.0
 30
0.0
  0
VERTEX
  8
0
 10
-8.88038389598
 20
-2.8
 30
0.0
  0
VERTEX
  8
0
 10
-8.88049466503
 20
-2.75000016466
 30
0.0
  0
VERTEX
  8
0
 10
-8.88085123183
 20
-2.70000149987
 30
0.0
  0
VERTEX
  8
0
 10
-8.88156478692
 20
-2.65000678097
 30
0.0
  0
VERTEX
  8
0
 10
-8.88376454416
 20
-2.6000953561
 30
0.0
  0
VERTEX
  8
0
 10
-8.88387225096
 20
-2.6
 30
0.0
  0
SEQEND
  8
0
  0
POLYLINE
  8
0
 62
0
 70
0
 66
1
 10
0.0
 20
0.0
 30
0.0
  0
VERTEX
  8
0
 10
-8.89259313841
 20
-4.4
 30
0.0
  0
VERTEX
  8
0
 10
-8.89248236936
 20
-4.44999983534
 30
0.0
  0
VERTEX
  8
0
 10
-8.89212580257
 20
-4.49999850013
 30
0.0
  0
VERTEX
  8
0
 10
-8.89141224748
 20
-4.54999321903
 30
0.0
  0
VERTEX
  8
0
 10
-8.88921249024
 20
-4.5999046439
 30
0.0
  0
VERTEX
  8
0
 10
-8.88910478343
 20
-4.6
 30
0.0
  0
SEQEND
  8
0
  0
POLYLINE
  8
0
 62
0
 70
0
 66
1
 10
0.0
 20
0.0
 30
0.0
  0
VERTEX
  8
0
 10
-8.88910478343
 20
-40.0
 30
0.0
  0
VERTEX
  8
0
 10
-8.89140927543
 20
-40.0498566601
 30
0.0
  0
VERTEX
  8
0
 10
-8.89212428915
 20
-40.0998513572
 30
0.0
  0
VERTEX
  8
0
 10
-8.89248169209
 20
-40.1498500159
 30
0.0
  0
VERTEX
  8
0
 10
-8.89259313743
 20
-40.1998498497
 30
0.0
  0
VERTEX
  8
0
 10
-8.89259313841
 20
-40.2
 30
0.0
  0
SEQEND
  8
0
  0
POLYLINE
  8
0
 62
0
 70
0
 66
1
 10
0.0
 20
0.0
 30
0.0
  0
VERTEX
  8
0
 10
-8.88038389598
 20
-40.2
 30
0.0
  0
VERTEX
  8
0
 10
-8.88049466503
 20
-40.1500001647
 30
0.0
  0
VERTEX
  8
0
 10
-8.88085123183
 20
-40.1000014999
 30
0.0
  0
VERTEX
  8
0
 10
-8.88156478692
 20
-40.050006781
 30
0.0
  0
VERTEX
  8
0
 10
-8.88376454416
 20
-40.0000953561
 30
0.0
  0
VERTEX
  8
0
 10
-8.88387225096
 20
-40.0
 30
0.0
  0
SEQEND
  8
0
  0
POLYLINE
  8
0
 62
0
 70
0
 66
1
 10
0.0
 20
0.0
 30
0.0
  0
VERTEX
  8
0
 10
-8.89259313841
 20
-41.8
 30
0.0
  0
VERTEX
  8
0
 10
-8.89248236936
 20
-41.8499998353
 30
0.0
  0
VERTEX
  8
0
 10
-8.89212580257
 20
-41.8999985001
 30
0.0
  0
VERTEX
  8
0
 10
-8.89141224748
 20
-41.949993219
 30
0.0
  0
VERTEX
  8
0
 10
-8.88921249024
 20
-41.9999046439
 30
0.0
  0
VERTEX
  8
0
 10
-8.88910478343
 20
-42.0
 30
0.0
  0
SEQEND
  8
0
  0
POLYLINE
  8
0
 62
0
 70
0
 66
1
 10
0.0
 20
0.0
 30
0.0
  0
VERTEX
  8
0
 10
7.11778922734
 20
-7.06889279365
 30
0.0
  0
VERTEX
  8
0
 10
7.07346081438
 20
-7.04579398281
 30
0.0
  0
VERTEX
  8
0
 10
7.07248728055
 20
-7.04523297304
 30
0.0
  0
SEQEND
  8
0
  0
POLYLINE
  8
0
 62
0
 70
0
 66
1
 10
0.0
 20
0.0
 30
0.0
  0
VERTEX
  8
0
 10
7.59210252282
 20
-7.34523297304
 30
0.0
  0
VERTEX
  8
0
 10
7.54988412473
 20
-7.31847160795
 30
0.0
  0
VERTEX
  8
0
 10
7.54896154374
 20
-7.31783024659
 30
0.0
  0
SEQEND
  8
0
  0
POLYLINE
  8
0
 62
0
 70
0
 66
1
 10
0.0
 20
0.0
 30
0.0
  0
VERTEX
  8
0
 10
7.83324922893
 20
-7.15369667501
 30
0.0
  0
VERTEX
  8
0
 10
7.83540927842
 20
-7.20363561216
 30
0.0
  0
VERTEX
  8
0
 10
7.83541019663
 20
-7.20475922207
 30
0.0
  0
SEQEND
  8
0
  0
POLYLINE
  8
0
 62
0
 70
0
 66
1
 10
0.0
 20
0.0
 30
0.0
  0
VERTEX
  8
0
 10
8.88038951059
 20
-4.4
 30
0.0
  0
VERTEX
  8
0
 10
8.88050021217
 20
-4.44999983554
 30
0.0
  0
VERTEX
  8
0
 10
8.88085656177
 20
-4.49999850196
 30
0.0
  0
VERTEX
  8
0
 10
8.88156968233
 20
-4.54999322729
 30
0.0
  0
VERTEX
  8
0
 10
8.88376815583
 20
-4.59990474394
 30
0.0
  0
VERTEX
  8
0
 10
8.88387574056
 20
-4.6
 30
0.0
  0
SEQEND
  8
0
  0
POLYLINE
  8
0
 62
0
 70
0
 66
1
 10
0.0
 20
0.0
 30
0.0
  0
VERTEX
  8
0
 10
8.89259131548
 20
-2.8
 30
0.0
  0
VERTEX
  8
0
 10
8.89248061391
 20
-2.75000016446
 30
0.0
  0
VERTEX
  8
0
 10
8.89212426431
 20
-2.70000149804
 30
0.0
  0
VERTEX
  8
0
 10
8.89141114375
 20
-2.65000677271
 30
0.0
  0
VERTEX
  8
0
 10
8.88921267024
 20
-2.60009525606
 30
0.0
  0
VERTEX
  8
0
 10
8.88910508551
 20
-2.6
 30
0.0
  0
SEQEND
  8
0
  0
POLYLINE
  8
0
 62
0
 70
0
 66
1
 10
0.0
 20
0.0
 30
0.0
  0
VERTEX
  8
0
 10
8.88910508551
 20
-4.6
 30
0.0
  0
VERTEX
  8
0
 10
8.89140817676
 20
-4.55014318381
 30
0.0
  0
VERTEX
  8
0
 10
8.89212275346
 20
-4.50014848021
 30
0.0
  0
VERTEX
  8
0
 10
8.89247993779
 20
-4.45014981988
 30
0.0
  0
VERTEX
  8
0
 10
8.8925913145
 20
-4.40014998587
 30
0.0
  0
VERTEX
  8
0
 10
8.89259131548
 20
-4.4
 30
0.0
  0
SEQEND
  8
0
  0
POLYLINE
  8
0
 62
0
 70
0
 66
1
 10
0.0
 20
0.0
 30
0.0
  0
VERTEX
  8
0
 10
8.89259131548
 20
-40.2
 30
0.0
  0
VERTEX
  8
0
 10
8.89248061391
 20
-40.1500001645
 30
0.0
  0
VERTEX
  8
0
 10
8.89212426431
 20
-40.100001498
 30
0.0
  0
VERTEX
  8
0
 10
8.89141114375
 20
-40.0500067727
 30
0.0
  0
VERTEX
  8
0
 10
8.88921267024
 20
-40.0000952561
 30
0.0
  0
VERTEX
  8
0
 10
8.88910508551
 20
-40.0
 30
0.0
  0
SEQEND
  8
0
  0
POLYLINE
  8
0
 62
0
 70
0
 66
1
 10
0.0
 20
0.0
 30
0.0
  0
VERTEX
  8
0
 10
8.88910508551
 20
-42.0
 30
0.0
  0
VERTEX
  8
0
 10
8.89140817676
 20
-41.9501431838
 30
0.0
  0
VERTEX
  8
0
 10
8.89212275346
 20
-41.9001484802
 30
0.0
  0
VERTEX
  8
0
 10
8.89247993779
 20
-41.8501498199
 30
0.0
  0
VERTEX
  8
0
 10
8.8925913145
 20
-41.8001499859
 30
0.0
  0
VERTEX
  8
0
 10
8.89259131548
 20
-41.8
 30
0.0
  0
SEQEND
  8
0
  0
POLYLINE
  8
0
 62
0
 70
0
 66
1
 10
0.0
 20
0.0
 30
0.0
  0
VERTEX
  8
0
 10
-9.70027409305
 20
0.0
 30
0.0
  0
VERTEX
  8
0
 10
-9.74975551126
 20
-0.00621326906458
 30
0.0
  0
VERTEX
  8
0
 10
-9.79615848114
 20
-0.0244816530307
 30
0.0
  0
VERTEX
  8
0
 10
-9.83658424369
 20
-0.0536826599483
 30
0.0
  0
VERTEX
  8
0
 10
-9.86850344114
 20
-0.0919984828743
 30
0.0
  0
VERTEX
  8
0
 10
-9.88992520505
 20
-0.137032553561
 30
0.0
  0
VERTEX
  8
0
 10
-9.89952688933
 20
-0.185969342405
 30
0.0
  0
VERTEX
  8
0
 10
-9.9
 20
-0.199725906951
 30
0.0
  0
SEQEND
  8
0
  0
POLYLINE
  8
0
 62
0
 70
0
 66
1
 10
0.0
 20
0.0
 30
0.0
  0
VERTEX
  8
0
 10
-9.89966592995
 20
-49.5999519425
 30
0.0
  0
VERTEX
  8
0
 10
-9.89899982636
 20
-49.6499461002
 30
0.0
  0
VERTEX
  8
0
 10
-9.89698472381
 20
-49.6999038376
 30
0.0
  0
VERTEX
  8
0
 10
-9.89351339972
 20
-49.7497812699
 30
0.0
  0
VERTEX
  8
0
 10
-9.88846925235
 20
-49.7995239249
 30
0.0
  0
VERTEX
  8
0
 10
-9.88172632906
 20
-49.8490645007
 30
0.0
  0
VERTEX
  8
0
 10
-9.87314988094
 20
-49.8983202963
 30
0.0
  0
VERTEX
  8
0
 10
-9.8625976972
 20
-49.947190382
 30
0.0
  0
VERTEX
  8
0
 10
-9.8499225338
 20
-49.9955526619
 30
0.0
  0
VERTEX
  8
0
 10
-9.83497599229
 20
-50.0432611271
 30
0.0
  0
VERTEX
  8
0
 10
-9.81761418888
 20
-50.0901437771
 30
0.0
  0
VERTEX
  8
0
 10
-9.79770542952
 20
-50.1360019071
 30
0.0
  0
VERTEX
  8
0
 10
-9.77513981319
 20
-50.1806116418
 30
0.0
  0
VERTEX
  8
0
 10
-9.74984018775
 20
-50.2237286407
 30
0.0
  0
VERTEX
  8
0
 10
-9.72177322457
 20
-50.2650966607
 30
0.0
  0
VERTEX
  8
0
 10
-9.69095873938
 20
-50.3044600128
 30
0.0
  0
VERTEX
  8
0
 10
-9.6574750836
 20
-50.3415789315
 30
0.0
  0
VERTEX
  8
0
 10
-9.62145879108
 20
-50.3762457588
 30
0.0
  0
VERTEX
  8
0
 10
-9.58309778869
 20
-50.4082991392
 30
0.0
  0
VERTEX
  8
0
 10
-9.54261905308
 20
-50.4376335652
 30
0.0
  0
VERTEX
  8
0
 10
-9.50027297749
 20
-50.4642026919
 30
0.0
  0
VERTEX
  8
0
 10
-9.45631730936
 20
-50.4880164105
 30
0.0
  0
VERTEX
  8
0
 10
-9.41100316355
 20
-50.5091330654
 30
0.0
  0
VERTEX
  8
0
 10
-9.3645646211
 20
-50.5276489222
 30
0.0
  0
VERTEX
  8
0
 10
-9.31721230847
 20
-50.5436869617
 30
0.0
  0
VERTEX
  8
0
 10
-9.26913051578
 20
-50.5573865469
 30
0.0
  0
VERTEX
  8
0
 10
-9.23061342512
 20
-50.5666795634
 30
0.0
  0
SEQEND
  8
0
  0
POLYLINE
  8
0
 62
0
 70
0
 66
1
 10
0.0
 20
0.0
 30
0.0
  0
VERTEX
  8
0
 10
-9.23061342512
 20
-50.5666795634
 30
0.0
  0
VERTEX
  8
0
 10
-9.18160226038
 20
-50.5765567531
 30
0.0
  0
VERTEX
  8
0
 10
-9.13224124076
 20
-50.5845062858
 30
0.0
  0
VERTEX
  8
0
 10
-9.08262489598
 20
-50.5906680963
 30
0.0
  0
VERTEX
  8
0
 10
-9.03283049145
 20
-50.5951741078
 30
0.0
  0
VERTEX
  8
0
 10
-8.9829207835
 20
-50.5981471893
 30
0.0
  0
VERTEX
  8
0
 10
-8.93294648321
 20
-50.5997008018
 30
0.0
  0
VERTEX
  8
0
 10
-8.898627654
 20
-50.6
 30
0.0
  0
SEQEND
  8
0
  0
POLYLINE
  8
0
 62
0
 70
0
 66
1
 10
0.0
 20
0.0
 30
0.0
  0
VERTEX
  8
0
 10
8.898627654
 20
-50.6
 30
0.0
  0
VERTEX
  8
0
 10
8.94862173343
 20
-50.5993275197
 30
0.0
  0
VERTEX
  8
0
 10
8.99857936235
 20
-50.5973095172
 30
0.0
  0
VERTEX
  8
0
 10
9.04845687055
 20
-50.593839137
 30
0.0
  0
VERTEX
  8
0
 10
9.0982000633
 20
-50.5888001735
 30
0.0
  0
VERTEX
  8
0
 10
9.14774199223
 20
-50.5820670903
 30
0.0
  0
VERTEX
  8
0
 10
9.19700040131
 20
-50.5735055622
 30
0.0
  0
VERTEX
  8
0
 10
9.24587491026
 20
-50.5629737856
 30
0.0
  0
VERTEX
  8
0
 10
9.29424408837
 20
-50.5503248741
 30
0.0
  0
VERTEX
  8
0
 10
9.34196270841
 20
-50.5354106888
 30
0.0
  0
VERTEX
  8
0
 10
9.35398563176
 20
-50.5312351411
 30
0.0
  0
SEQEND
  8
0
  0
POLYLINE
  8
0
 62
0
 70
0
 66
1
 10
0.0
 20
0.0
 30
0.0
  0
VERTEX
  8
0
 10
9.35398563176
 20
-50.5312351411
 30
0.0
  0
VERTEX
  8
0
 10
9.40064289202
 20
-50.513276952
 30
0.0
  0
VERTEX
  8
0
 10
9.44622624804
 20
-50.4927473395
 30
0.0
  0
VERTEX
  8
0
 10
9.49050696108
 20
-50.4695431434
 30
0.0
  0
VERTEX
  8
0
 10
9.53323749394
 20
-50.4435964528
 30
0.0
  0
VERTEX
  8
0
 10
9.57416096569
 20
-50.4148854269
 30
0.0
  0
VERTEX
  8
0
 10
9.61302436157
 20
-50.3834428808
 30
0.0
  0
VERTEX
  8
0
 10
9.64959425851
 20
-50.3493604853
 30
0.0
  0
VERTEX
  8
0
 10
9.68367276405
 20
-50.3127869653
 30
0.0
  0
VERTEX
  8
0
 10
9.7151108231
 20
-50.2739199446
 30
0.0
  0
VERTEX
  8
0
 10
9.74381641593
 20
-50.2329926688
 30
0.0
  0
VERTEX
  8
0
 10
9.76975640458
 20
-50.1902580756
 30
0.0
  0
VERTEX
  8
0
 10
9.7929523688
 20
-50.1459730588
 30
0.0
  0
VERTEX
  8
0
 10
9.81347204005
 20
-50.1003852355
 30
0.0
  0
VERTEX
  8
0
 10
9.83141848395
 20
-50.0537234644
 30
0.0
  0
VERTEX
  8
0
 10
9.84691901075
 20
-50.0061922887
 30
0.0
  0
VERTEX
  8
0
 10
9.86011520467
 20
-49.9579697364
 30
0.0
  0
VERTEX
  8
0
 10
9.87115479077
 20
-49.9092075828
 30
0.0
  0
VERTEX
  8
0
 10
9.88018551627
 20
-49.8600331682
 30
0.0
  0
VERTEX
  8
0
 10
9.88735088402
 20
-49.810552029
 30
0.0
  0
VERTEX
  8
0
 10
9.89278741688
 20
-49.7608508137
 30
0.0
  0
VERTEX
  8
0
 10
9.89662309555
 20
-49.7110001487
 30
0.0
  0
VERTEX
  8
0
 10
9.89897664371
 20
-49.6610572712
 30
0.0
  0
VERTEX
  8
0
 10
9.89995739289
 20
-49.6110683462
 30
0.0
  0
VERTEX
  8
0
 10
9.89999908501
 20
-49.6000325223
 30
0.0
  0
SEQEND
  8
0
  0
POLYLINE
  8
0
 62
0
 70
0
 66
1
 10
0.0
 20
0.0
 30
0.0
  0
VERTEX
  8
0
 10
9.9
 20
-0.199725906951
 30
0.0
  0
VERTEX
  8
0
 10
9.89378673094
 20
-0.150244488742
 30
0.0
  0
VERTEX
  8
0
 10
9.87551834697
 20
-0.103841518864
 30
0.0
  0
VERTEX
  8
0
 10
9.84631734005
 20
-0.0634157563056
 30
0.0
  0
VERTEX
  8
0
 10
9.80800151713
 20
-0.0314965588563
 30
0.0
  0
VERTEX
  8
0
 10
9.76296744644
 20
-0.0100747949537
 30
0.0
  0
VERTEX
  8
0
 10
9.7140306576
 20
-0.000473110671303
 30
0.0
  0
VERTEX
  8
0
 10
9.70027409305
 20
0.0
 30
0.0
  0
SEQEND
  8
0
  0
POLYLINE
  8
0
 62
0
 70
0
 66
1
 10
0.0
 20
0.0
 30
0.0
  0
VERTEX
  8
0
 10
6.14805243539
 20
-0.689587878341
 30
0.0
  0
VERTEX
  8
0
 10
6.09809768579
 20
-0.691038771861
 30
0.0
  0
VERTEX
  8
0
 10
6.04811335269
 20
-0.691272467536
 30
0.0
  0
SEQEND
  8
0
  0
POLYLINE
  8
0
 62
0
 70
0
 66
1
 10
0.0
 20
0.0
 30
0.0
  0
VERTEX
  8
0
 10
-6.04811335269
 20
-0.691272467536
 30
0.0
  0
VERTEX
  8
0
 10
-6.09811260161
 20
-0.691038621577
 30
0.0
  0
VERTEX
  8
0
 10
-6.14805243539
 20
-0.689587878341
 30
0.0
  0
SEQEND
  8
0
  0
POLYLINE
  8
0
 62
0
 70
0
 66
1
 10
0.0
 20
0.0
 30
0.0
  0
VERTEX
  8
0
 10
-2.6
 20
-47.7
 30
0.0
  0
VERTEX
  8
0
 10
-2.64986144312
 20
-47.6967764281
 30
0.0
  0
VERTEX
  8
0
 10
-2.69891420849
 20
-47.6872607112
 30
0.0
  0
VERTEX
  8
0
 10
-2.74641419347
 20
-47.6717489711
 30
0.0
  0
VERTEX
  8
0
 10
-2.79167423275
 20
-47.6505721892
 30
0.0
  0
VERTEX
  8
0
 10
-2.83402618521
 20
-47.6240544315
 30
0.0
  0
VERTEX
  8
0
 10
-2.87276847651
 20
-47.5924994204
 30
0.0
  0
VERTEX
  8
0
 10
-2.9071562538
 20
-47.5562493131
 30
0.0
  0
VERTEX
  8
0
 10
-2.93675337598
 20
-47.5159904959
 30
0.0
  0
VERTEX
  8
0
 10
-2.96108576782
 20
-47.472348321
 30
0.0
  0
VERTEX
  8
0
 10
-2.97974471207
 20
-47.4259959551
 30
0.0
  0
VERTEX
  8
0
 10
-2.99244482544
 20
-47.377669657
 30
0.0
  0
VERTEX
  8
0
 10
-2.99901930671
 20
-47.3281364005
 30
0.0
  0
VERTEX
  8
0
 10
-3.0
 20
-47.3
 30
0.0
  0
SEQEND
  8
0
  0
POLYLINE
  8
0
 62
0
 70
0
 66
1
 10
0.0
 20
0.0
 30
0.0
  0
VERTEX
  8
0
 10
3.0
 20
-47.3
 30
0.0
  0
VERTEX
  8
0
 10
2.9968640247
 20
-47.3498687184
 30
0.0
  0
VERTEX
  8
0
 10
2.98753180026
 20
-47.398957094
 30
0.0
  0
VERTEX
  8
0
 10
2.97216924955
 20
-47.4465045393
 30
0.0
  0
VERTEX
  8
0
 10
2.95101223038
 20
-47.4917719133
 30
0.0
  0
VERTEX
  8
0
 10
2.9243755443
 20
-47.5340474762
 30
0.0
  0
VERTEX
  8
0
 10
2.89266688967
 20
-47.5726647996
 30
0.0
  0
VERTEX
  8
0
 10
2.8562752906
 20
-47.6069006388
 30
0.0
  0
VERTEX
  8
0
 10
2.81583402764
 20
-47.6362485565
 30
0.0
  0
VERTEX
  8
0
 10
2.77211248139
 20
-47.6604430638
 30
0.0
  0
VERTEX
  8
0
 10
2.7257916785
 20
-47.6791868019
 30
0.0
  0
VERTEX
  8
0
 10
2.67753289936
 20
-47.6921450222
 30
0.0
  0
VERTEX
  8
0
 10
2.62803513584
 20
-47.6989716841
 30
0.0
  0
VERTEX
  8
0
 10
2.6
 20
-47.7
 30
0.0
  0
SEQEND
  8
0
  0
POLYLINE
  8
0
 62
0
 70
0
 66
1
 10
0.0
 20
0.0
 30
0.0
  0
VERTEX
  8
0
 10
-3.0
 20
-44.6
 30
0.0
  0
VERTEX
  8
0
 10
-2.99681395053
 20
-44.5501353226
 30
0.0
  0
VERTEX
  8
0
 10
-2.98739867373
 20
-44.5010627124
 30
0.0
  0
VERTEX
  8
0
 10
-2.97199221139
 20
-44.4535287999
 30
0.0
  0
VERTEX
  8
0
 10
-2.95085600967
 20
-44.4082509075
 30
0.0
  0
VERTEX
  8
0
 10
-2.9242821735
 20
-44.3659354948
 30
0.0
  0
VERTEX
  8
0
 10
-2.89261691378
 20
-44.3272835311
 30
0.0
  0
VERTEX
  8
0
 10
-2.85625966817
 20
-44.2930107596
 30
0.0
  0
VERTEX
  8
0
 10
-2.81583988304
 20
-44.2636339646
 30
0.0
  0
VERTEX
  8
0
 10
-2.77211524572
 20
-44.2394459214
 30
0.0
  0
VERTEX
  8
0
 10
-2.72578005822
 20
-44.220738301
 30
0.0
  0
VERTEX
  8
0
 10
-2.67750967056
 20
-44.2078230774
 30
0.0
  0
VERTEX
  8
0
 10
-2.62800793602
 20
-44.2010233901
 30
0.0
  0
VERTEX
  8
0
 10
-2.6
 20
-44.2
 30
0.0
  0
SEQEND
  8
0
  0
POLYLINE
  8
0
 62
0
 70
0
 66
1
 10
0.0
 20
0.0
 30
0.0
  0
VERTEX
  8
0
 10
2.6
 20
-44.2
 30
0.0
  0
VERTEX
  8
0
 10
2.64986107817
 20
-44.2032287114
 30
0.0
  0
VERTEX
  8
0
 10
2.69891503227
 20
-44.2127393488
 30
0.0
  0
VERTEX
  8
0
 10
2.74642215022
 20
-44.228229646
 30
0.0
  0
VERTEX
  8
0
 10
2.79169266311
 20
-44.2493838136
 30
0.0
  0
VERTEX
  8
0
 10
2.83404695828
 20
-44.2758972552
 30
0.0
  0
VERTEX
  8
0
 10
2.8727716892
 20
-44.3074733022
 30
0.0
  0
VERTEX
  8
0
 10
2.90712956233
 20
-44.3437515514
 30
0.0
  0
VERTEX
  8
0
 10
2.93664123786
 20
-44.3840725407
 30
0.0
  0
VERTEX
  8
0
 10
2.96089600708
 20
-44.4277586597
 30
0.0
  0
VERTEX
  8
0
 10
2.97955142314
 20
-44.4741135365
 30
0.0
  0
VERTEX
  8
0
 10
2.99232885361
 20
-44.5224201172
 30
0.0
  0
VERTEX
  8
0
 10
2.99899998914
 20
-44.5719400939
 30
0.0
  0
VERTEX
  8
0
 10
3.0
 20
-44.6
 30
0.0
  0
SEQEND
  8
0
  0
POLYLINE
  8
0
 62
0
 70
0
 66
1
 10
0.0
 20
0.0
 30
0.0
  0
VERTEX
  8
0
 10
-3.85199857145
 20
-48.1520594934
 30
0.0
  0
VERTEX
  8
0
 10
-3.84887799412
 20
-48.2019294152
 30
0.0
  0
VERTEX
  8
0
 10
-3.83956449088
 20
-48.2510212175
 30
0.0
  0
VERTEX
  8
0
 10
-3.8242027591
 20
-48.2985686983
 30
0.0
  0
VERTEX
  8
0
 10
-3.80303202599
 20
-48.3438295563
 30
0.0
  0
VERTEX
  8
0
 10
-3.77638237436
 20
-48.3860970481
 30
0.0
  0
VERTEX
  8
0
 10
-3.74466961826
 20
-48.4247111086
 30
0.0
  0
VERTEX
  8
0
 10
-3.70838880506
 20
-48.459068744
 30
0.0
  0
VERTEX
  8
0
 10
-3.66810644667
 20
-48.4886335245
 30
0.0
  0
VERTEX
  8
0
 10
-3.62445160777
 20
-48.5129440159
 30
0.0
  0
VERTEX
  8
0
 10
-3.57810600016
 20
-48.5316210091
 30
0.0
  0
VERTEX
  8
0
 10
-3.52979325085
 20
-48.5443734312
 30
0.0
  0
VERTEX
  8
0
 10
-3.48026752466
 20
-48.551002846
 30
0.0
  0
VERTEX
  8
0
 10
-3.45205949338
 20
-48.5519985714
 30
0.0
  0
SEQEND
  8
0
  0
POLYLINE
  8
0
 62
0
 70
0
 66
1
 10
0.0
 20
0.0
 30
0.0
  0
VERTEX
  8
0
 10
3.45205949338
 20
-48.5519985714
 30
0.0
  0
VERTEX
  8
0
 10
3.50192941522
 20
-48.5488779941
 30
0.0
  0
VERTEX
  8
0
 10
3.55102121746
 20
-48.5395644909
 30
0.0
  0
VERTEX
  8
0
 10
3.59856869834
 20
-48.5242027591
 30
0.0
  0
VERTEX
  8
0
 10
3.64382955625
 20
-48.503032026
 30
0.0
  0
VERTEX
  8
0
 10
3.6860970481
 20
-48.4763823744
 30
0.0
  0
VERTEX
  8
0
 10
3.72471110859
 20
-48.4446696183
 30
0.0
  0
VERTEX
  8
0
 10
3.75906874395
 20
-48.4083888051
 30
0.0
  0
VERTEX
  8
0
 10
3.7886335245
 20
-48.3681064467
 30
0.0
  0
VERTEX
  8
0
 10
3.81294401595
 20
-48.3244516078
 30
0.0
  0
VERTEX
  8
0
 10
3.83162100915
 20
-48.2781060002
 30
0.0
  0
VERTEX
  8
0
 10
3.84437343115
 20
-48.2297932508
 30
0.0
  0
VERTEX
  8
0
 10
3.85100284602
 20
-48.1802675247
 30
0.0
  0
VERTEX
  8
0
 10
3.85199857145
 20
-48.1520594934
 30
0.0
  0
SEQEND
  8
0
  0
POLYLINE
  8
0
 62
0
 70
0
 66
1
 10
0.0
 20
0.0
 30
0.0
  0
VERTEX
  8
0
 10
3.85199857145
 20
-43.7479405066
 30
0.0
  0
VERTEX
  8
0
 10
3.84887799412
 20
-43.6980705848
 30
0.0
  0
VERTEX
  8
0
 10
3.83956449088
 20
-43.6489787825
 30
0.0
  0
VERTEX
  8
0
 10
3.8242027591
 20
-43.6014313017
 30
0.0
  0
VERTEX
  8
0
 10
3.80303202599
 20
-43.5561704437
 30
0.0
  0
VERTEX
  8
0
 10
3.77638237436
 20
-43.5139029519
 30
0.0
  0
VERTEX
  8
0
 10
3.74466961826
 20
-43.4752888914
 30
0.0
  0
VERTEX
  8
0
 10
3.70838880506
 20
-43.440931256
 30
0.0
  0
VERTEX
  8
0
 10
3.66810644667
 20
-43.4113664755
 30
0.0
  0
VERTEX
  8
0
 10
3.62445160777
 20
-43.3870559841
 30
0.0
  0
VERTEX
  8
0
 10
3.57810600016
 20
-43.3683789909
 30
0.0
  0
VERTEX
  8
0
 10
3.52979325085
 20
-43.3556265688
 30
0.0
  0
VERTEX
  8
0
 10
3.48026752466
 20
-43.348997154
 30
0.0
  0
VERTEX
  8
0
 10
3.45205949338
 20
-43.3480014286
 30
0.0
  0
SEQEND
  8
0
  0
POLYLINE
  8
0
 62
0
 70
0
 66
1
 10
0.0
 20
0.0
 30
0.0
  0
VERTEX
  8
0
 10
-3.45205949338
 20
-43.3480014286
 30
0.0
  0
VERTEX
  8
0
 10
-3.50192941522
 20
-43.3511220059
 30
0.0
  0
VERTEX
  8
0
 10
-3.55102121746
 20
-43.3604355091
 30
0.0
  0
VERTEX
  8
0
 10
-3.59856869834
 20
-43.3757972409
 30
0.0
  0
VERTEX
  8
0
 10
-3.64382955625
 20
-43.396967974
 30
0.0
  0
VERTEX
  8
0
 10
-3.6860970481
 20
-43.4236176256
 30
0.0
  0
VERTEX
  8
0
 10
-3.72471110859
 20
-43.4553303817
 30
0.0
  0
VERTEX
  8
0
 10
-3.75906874395
 20
-43.4916111949
 30
0.0
  0
VERTEX
  8
0
 10
-3.7886335245
 20
-43.5318935533
 30
0.0
  0
VERTEX
  8
0
 10
-3.81294401595
 20
-43.5755483922
 30
0.0
  0
VERTEX
  8
0
 10
-3.83162100915
 20
-43.6218939998
 30
0.0
  0
VERTEX
  8
0
 10
-3.84437343115
 20
-43.6702067492
 30
0.0
  0
VERTEX
  8
0
 10
-3.85100284602
 20
-43.7197324753
 30
0.0
  0
VERTEX
  8
0
 10
-3.85199857145
 20
-43.7479405066
 30
0.0
  0
SEQEND
  8
0
  0
POLYLINE
  8
0
 62
0
 70
0
 66
1
 10
0.0
 20
0.0
 30
0.0
  0
VERTEX
  8
0
 10
0.483522727273
 20
-27.2243236181
 30
0.0
  0
VERTEX
  8
0
 10
0.433535497306
 20
-27.2232304301
 30
0.0
  0
VERTEX
  8
0
 10
0.383630229529
 20
-27.2202557134
 30
0.0
  0
VERTEX
  8
0
 10
0.333969765242
 20
-27.2144934145
 30
0.0
  0
VERTEX
  8
0
 10
0.284693896509
 20
-27.2060505099
 30
0.0
  0
VERTEX
  8
0
 10
0.235954256013
 20
-27.1949243706
 30
0.0
  0
VERTEX
  8
0
 10
0.187973149983
 20
-27.1808904442
 30
0.0
  0
VERTEX
  8
0
 10
0.141054475992
 20
-27.1636396152
 30
0.0
  0
VERTEX
  8
0
 10
0.0955149555336
 20
-27.1430232986
 30
0.0
  0
VERTEX
  8
0
 10
0.0515829456339
 20
-27.1191713432
 30
0.0
  0
VERTEX
  8
0
 10
0.00946071243637
 20
-27.092252083
 30
0.0
  0
VERTEX
  8
0
 10
-0.0303709687326
 20
-27.0620571354
 30
0.0
  0
VERTEX
  8
0
 10
-0.0669514987164
 20
-27.0280086725
 30
0.0
  0
VERTEX
  8
0
 10
-0.0992961749976
 20
-26.9899174672
 30
0.0
  0
VERTEX
  8
0
 10
-0.127345808854
 20
-26.9485515936
 30
0.0
  0
VERTEX
  8
0
 10
-0.151141199705
 20
-26.904600643
 30
0.0
  0
VERTEX
  8
0
 10
-0.170694444191
 20
-26.8585987196
 30
0.0
  0
VERTEX
  8
0
 10
-0.186761904562
 20
-26.8112608835
 30
0.0
  0
VERTEX
  8
0
 10
-0.199546330118
 20
-26.7629332312
 30
0.0
  0
VERTEX
  8
0
 10
-0.209124976727
 20
-26.7138671906
 30
0.0
  0
VERTEX
  8
0
 10
-0.215967728773
 20
-26.6643430488
 30
0.0
  0
VERTEX
  8
0
 10
-0.220414651773
 20
-26.6145456026
 30
0.0
  0
VERTEX
  8
0
 10
-0.222791888932
 20
-26.5646046044
 30
0.0
  0
VERTEX
  8
0
 10
-0.224025974026
 20
-26.5149080337
 30
0.0
  0
SEQEND
  8
0
  0
POLYLINE
  8
0
 62
0
 70
0
 66
1
 10
0.0
 20
0.0
 30
0.0
  0
VERTEX
  8
0
 10
1.10566152597
 20
-26.8677489428
 30
0.0
  0
VERTEX
  8
0
 10
1.08628338414
 20
-26.913823222
 30
0.0
  0
VERTEX
  8
0
 10
1.06184538983
 20
-26.9574185553
 30
0.0
  0
VERTEX
  8
0
 10
1.03324624958
 20
-26.9984043942
 30
0.0
  0
VERTEX
  8
0
 10
1.00036845835
 20
-27.0360410868
 30
0.0
  0
VERTEX
  8
0
 10
0.963861480538
 20
-27.0701802016
 30
0.0
  0
VERTEX
  8
0
 10
0.92446542547
 20
-27.100941497
 30
0.0
  0
VERTEX
  8
0
 10
0.882468179
 20
-27.1280507138
 30
0.0
  0
VERTEX
  8
0
 10
0.838599274004
 20
-27.1520110187
 30
0.0
  0
VERTEX
  8
0
 10
0.792745556799
 20
-27.1719083045
 30
0.0
  0
VERTEX
  8
0
 10
0.745488264788
 20
-27.1882058501
 30
0.0
  0
VERTEX
  8
0
 10
0.697213190973
 20
-27.2011958902
 30
0.0
  0
VERTEX
  8
0
 10
0.648248867465
 20
-27.2112751093
 30
0.0
  0
VERTEX
  8
0
 10
0.59872475352
 20
-27.2181084536
 30
0.0
  0
VERTEX
  8
0
 10
0.548926053467
 20
-27.2225287789
 30
0.0
  0
VERTEX
  8
0
 10
0.498957135324
 20
-27.2241469672
 30
0.0
  0
VERTEX
  8
0
 10
0.483522727273
 20
-27.2243236181
 30
0.0
  0
SEQEND
  8
0
  0
POLYLINE
  8
0
 62
0
 70
0
 66
1
 10
0.0
 20
0.0
 30
0.0
  0
VERTEX
  8
0
 10
1.15
 20
-26.4990395272
 30
0.0
  0
VERTEX
  8
0
 10
1.14975462976
 20
-26.5490382314
 30
0.0
  0
VERTEX
  8
0
 10
1.14802961903
 20
-26.5990062849
 30
0.0
  0
VERTEX
  8
0
 10
1.14534295338
 20
-26.648933536
 30
0.0
  0
VERTEX
  8
0
 10
1.14085001415
 20
-26.6987258474
 30
0.0
  0
VERTEX
  8
0
 10
1.13455629431
 20
-26.7483264779
 30
0.0
  0
VERTEX
  8
0
 10
1.12582021131
 20
-26.7975466079
 30
0.0
  0
VERTEX
  8
0
 10
1.11289579616
 20
-26.8458275028
 30
0.0
  0
VERTEX
  8
0
 10
1.10566152597
 20
-26.8677489428
 30
0.0
  0
SEQEND
  8
0
  0
POLYLINE
  8
0
 62
0
 70
0
 66
1
 10
0.0
 20
0.0
 30
0.0
  0
VERTEX
  8
0
 10
0.470921266234
 20
-26.9853625791
 30
0.0
  0
VERTEX
  8
0
 10
0.520882452803
 20
-26.9834900298
 30
0.0
  0
VERTEX
  8
0
 10
0.570528887748
 20
-26.9777511573
 30
0.0
  0
VERTEX
  8
0
 10
0.619349344721
 20
-26.9670439686
 30
0.0
  0
VERTEX
  8
0
 10
0.666784069692
 20
-26.9513222509
 30
0.0
  0
VERTEX
  8
0
 10
0.71199599023
 20
-26.9300417118
 30
0.0
  0
VERTEX
  8
0
 10
0.754321989609
 20
-26.9034818894
 30
0.0
  0
VERTEX
  8
0
 10
0.792813170125
 20
-26.8716393921
 30
0.0
  0
VERTEX
  8
0
 10
0.825299312074
 20
-26.8337371872
 30
0.0
  0
VERTEX
  8
0
 10
0.849271572825
 20
-26.7899601479
 30
0.0
  0
VERTEX
  8
0
 10
0.863641468361
 20
-26.74215108
 30
0.0
  0
VERTEX
  8
0
 10
0.871944822468
 20
-26.6928554919
 30
0.0
  0
VERTEX
  8
0
 10
0.877194759478
 20
-26.6431403933
 30
0.0
  0
VERTEX
  8
0
 10
0.88001638589
 20
-26.5932217701
 30
0.0
  0
VERTEX
  8
0
 10
0.881115421916
 20
-26.5432371405
 30
0.0
  0
VERTEX
  8
0
 10
0.881168831169
 20
-26.5251758908
 30
0.0
  0
SEQEND
  8
0
  0
POLYLINE
  8
0
 62
0
 70
0
 66
1
 10
0.0
 20
0.0
 30
0.0
  0
VERTEX
  8
0
 10
0.0448051948052
 20
-26.5298430986
 30
0.0
  0
VERTEX
  8
0
 10
0.0463251516878
 20
-26.5798187274
 30
0.0
  0
VERTEX
  8
0
 10
0.0501127550943
 20
-26.6296665125
 30
0.0
  0
VERTEX
  8
0
 10
0.0576271655013
 20
-26.6790842804
 30
0.0
  0
VERTEX
  8
0
 10
0.0692961901713
 20
-26.7276858814
 30
0.0
  0
VERTEX
  8
0
 10
0.0859241945016
 20
-26.7748110183
 30
0.0
  0
VERTEX
  8
0
 10
0.108200073583
 20
-26.8195341202
 30
0.0
  0
VERTEX
  8
0
 10
0.136748092418
 20
-26.8605154054
 30
0.0
  0
VERTEX
  8
0
 10
0.171970110062
 20
-26.8959079987
 30
0.0
  0
VERTEX
  8
0
 10
0.21255322717
 20
-26.925037861
 30
0.0
  0
VERTEX
  8
0
 10
0.256972634951
 20
-26.9478603366
 30
0.0
  0
VERTEX
  8
0
 10
0.304226008532
 20
-26.9641487478
 30
0.0
  0
VERTEX
  8
0
 10
0.352878658841
 20
-26.9755495506
 30
0.0
  0
VERTEX
  8
0
 10
0.402426657571
 20
-26.9821626623
 30
0.0
  0
VERTEX
  8
0
 10
0.452339795975
 20
-26.984932615
 30
0.0
  0
VERTEX
  8
0
 10
0.470921266234
 20
-26.9853625791
 30
0.0
  0
SEQEND
  8
0
  0
POLYLINE
  8
0
 62
0
 70
0
 66
1
 10
0.0
 20
0.0
 30
0.0
  0
VERTEX
  8
0
 10
0.0448051948052
 20
-26.5298430986
 30
0.0
  0
VERTEX
  8
0
 10
0.0463251516878
 20
-26.5798187274
 30
0.0
  0
VERTEX
  8
0
 10
0.0501127550943
 20
-26.6296665125
 30
0.0
  0
VERTEX
  8
0
 10
0.0576271655013
 20
-26.6790842804
 30
0.0
  0
VERTEX
  8
0
 10
0.0692961901713
 20
-26.7276858814
 30
0.0
  0
VERTEX
  8
0
 10
0.0859241945016
 20
-26.7748110183
 30
0.0
  0
VERTEX
  8
0
 10
0.108200073583
 20
-26.8195341202
 30
0.0
  0
VERTEX
  8
0
 10
0.136748092418
 20
-26.8605154054
 30
0.0
  0
VERTEX
  8
0
 10
0.171970110062
 20
-26.8959079987
 30
0.0
  0
VERTEX
  8
0
 10
0.21255322717
 20
-26.925037861
 30
0.0
  0
VERTEX
  8
0
 10
0.256972634951
 20
-26.9478603366
 30
0.0
  0
VERTEX
  8
0
 10
0.304226008532
 20
-26.9641487478
 30
0.0
  0
VERTEX
  8
0
 10
0.352878658841
 20
-26.9755495506
 30
0.0
  0
VERTEX
  8
0
 10
0.402426657571
 20
-26.9821626623
 30
0.0
  0
VERTEX
  8
0
 10
0.452339795975
 20
-26.984932615
 30
0.0
  0
VERTEX
  8
0
 10
0.470921266234
 20
-26.9853625791
 30
0.0
  0
SEQEND
  8
0
  0
POLYLINE
  8
0
 62
0
 70
0
 66
1
 10
0.0
 20
0.0
 30
0.0
  0
VERTEX
  8
0
 10
-0.911038961039
 20
-28.3435200467
 30
0.0
  0
VERTEX
  8
0
 10
-0.908744218215
 20
-28.3934605585
 30
0.0
  0
VERTEX
  8
0
 10
-0.902075248858
 20
-28.4429939478
 30
0.0
  0
VERTEX
  8
0
 10
-0.890844387747
 20
-28.4916955649
 30
0.0
  0
VERTEX
  8
0
 10
-0.874395722184
 20
-28.5388833689
 30
0.0
  0
VERTEX
  8
0
 10
-0.852957209816
 20
-28.5840338815
 30
0.0
  0
VERTEX
  8
0
 10
-0.827446995312
 20
-28.6270103452
 30
0.0
  0
VERTEX
  8
0
 10
-0.797583877124
 20
-28.6670893462
 30
0.0
  0
VERTEX
  8
0
 10
-0.764217098941
 20
-28.7043028731
 30
0.0
  0
VERTEX
  8
0
 10
-0.727425900896
 20
-28.7381322766
 30
0.0
  0
VERTEX
  8
0
 10
-0.687651774646
 20
-28.7684059278
 30
0.0
  0
VERTEX
  8
0
 10
-0.645479041563
 20
-28.7952357128
 30
0.0
  0
VERTEX
  8
0
 10
-0.601095153469
 20
-28.8182301044
 30
0.0
  0
VERTEX
  8
0
 10
-0.55530971239
 20
-28.8383062522
 30
0.0
  0
VERTEX
  8
0
 10
-0.508469811632
 20
-28.8557808809
 30
0.0
  0
VERTEX
  8
0
 10
-0.460750993715
 20
-28.8706922879
 30
0.0
  0
VERTEX
  8
0
 10
-0.412322988463
 20
-28.8831083082
 30
0.0
  0
VERTEX
  8
0
 10
-0.363367190858
 20
-28.8932612877
 30
0.0
  0
VERTEX
  8
0
 10
-0.343506493506
 20
-28.8970508908
 30
0.0
  0
SEQEND
  8
0
  0
POLYLINE
  8
0
 62
0
 70
0
 66
1
 10
0.0
 20
0.0
 30
0.0
  0
VERTEX
  8
0
 10
0.0154017857143
 20
-27.7321158259
 30
0.0
  0
VERTEX
  8
0
 10
-0.0345902574167
 20
-27.7330041779
 30
0.0
  0
VERTEX
  8
0
 10
-0.0845693351087
 20
-27.7344313798
 30
0.0
  0
VERTEX
  8
0
 10
-0.134506623051
 20
-27.7369087986
 30
0.0
  0
VERTEX
  8
0
 10
-0.184359508074
 20
-27.7407194717
 30
0.0
  0
VERTEX
  8
0
 10
-0.234075239019
 20
-27.7460244195
 30
0.0
  0
VERTEX
  8
0
 10
-0.28359987243
 20
-27.7528876791
 30
0.0
  0
VERTEX
  8
0
 10
-0.332879163132
 20
-27.7613326224
 30
0.0
  0
VERTEX
  8
0
 10
-0.38179859387
 20
-27.771652659
 30
0.0
  0
VERTEX
  8
0
 10
-0.430183968198
 20
-27.7842374618
 30
0.0
  0
VERTEX
  8
0
 10
-0.47794885128
 20
-27.7990067591
 30
0.0
  0
VERTEX
  8
0
 10
-0.524991007606
 20
-27.8159323814
 30
0.0
  0
VERTEX
  8
0
 10
-0.570919207285
 20
-27.8356712871
 30
0.0
  0
VERTEX
  8
0
 10
-0.615365801672
 20
-27.8585513205
 30
0.0
  0
VERTEX
  8
0
 10
-0.658102727424
 20
-27.8844836153
 30
0.0
  0
VERTEX
  8
0
 10
-0.698781791206
 20
-27.9135346351
 30
0.0
  0
VERTEX
  8
0
 10
-0.737076525314
 20
-27.9456632579
 30
0.0
  0
VERTEX
  8
0
 10
-0.772663017301
 20
-27.980764506
 30
0.0
  0
VERTEX
  8
0
 10
-0.804949068885
 20
-28.0189195485
 30
0.0
  0
VERTEX
  8
0
 10
-0.833595386455
 20
-28.0598784854
 30
0.0
  0
VERTEX
  8
0
 10
-0.858042900842
 20
-28.1034663352
 30
0.0
  0
VERTEX
  8
0
 10
-0.877699941448
 20
-28.1494169426
 30
0.0
  0
VERTEX
  8
0
 10
-0.892848612604
 20
-28.1970473529
 30
0.0
  0
VERTEX
  8
0
 10
-0.90333799125
 20
-28.2459141349
 30
0.0
  0
VERTEX
  8
0
 10
-0.90894640874
 20
-28.2955785881
 30
0.0
  0
VERTEX
  8
0
 10
-0.911038961039
 20
-28.3435200467
 30
0.0
  0
SEQEND
  8
0
  0
POLYLINE
  8
0
 62
0
 70
0
 66
1
 10
0.0
 20
0.0
 30
0.0
  0
VERTEX
  8
0
 10
0.911038961039
 20
-28.3626555986
 30
0.0
  0
VERTEX
  8
0
 10
0.908739096412
 20
-28.3127100694
 30
0.0
  0
VERTEX
  8
0
 10
0.903803322522
 20
-28.2629675215
 30
0.0
  0
VERTEX
  8
0
 10
0.894425759055
 20
-28.2138726774
 30
0.0
  0
VERTEX
  8
0
 10
0.880727311377
 20
-28.1658019988
 30
0.0
  0
VERTEX
  8
0
 10
0.862775892761
 20
-28.1191553899
 30
0.0
  0
VERTEX
  8
0
 10
0.84035977395
 20
-28.0744849172
 30
0.0
  0
VERTEX
  8
0
 10
0.813701335115
 20
-28.0322069067
 30
0.0
  0
VERTEX
  8
0
 10
0.782998601664
 20
-27.9927734083
 30
0.0
  0
VERTEX
  8
0
 10
0.748537669754
 20
-27.9565672429
 30
0.0
  0
VERTEX
  8
0
 10
0.711078283605
 20
-27.9234750154
 30
0.0
  0
VERTEX
  8
0
 10
0.67075201727
 20
-27.8939428
 30
0.0
  0
VERTEX
  8
0
 10
0.628388480754
 20
-27.8673984426
 30
0.0
  0
VERTEX
  8
0
 10
0.584513740483
 20
-27.8434353664
 30
0.0
  0
VERTEX
  8
0
 10
0.539247534635
 20
-27.8222179323
 30
0.0
  0
VERTEX
  8
0
 10
0.49278777033
 20
-27.8037573298
 30
0.0
  0
VERTEX
  8
0
 10
0.445416476738
 20
-27.7877736869
 30
0.0
  0
VERTEX
  8
0
 10
0.397338586284
 20
-27.7740606852
 30
0.0
  0
VERTEX
  8
0
 10
0.348669110637
 20
-27.7626223993
 30
0.0
  0
VERTEX
  8
0
 10
0.299531631304
 20
-27.7533970808
 30
0.0
  0
VERTEX
  8
0
 10
0.250054179138
 20
-27.7462072753
 30
0.0
  0
VERTEX
  8
0
 10
0.200372430679
 20
-27.7405890039
 30
0.0
  0
VERTEX
  8
0
 10
0.150546596323
 20
-27.7364451767
 30
0.0
  0
VERTEX
  8
0
 10
0.100614421362
 20
-27.7338771084
 30
0.0
  0
VERTEX
  8
0
 10
0.0506315870943
 20
-27.7326015178
 30
0.0
  0
VERTEX
  8
0
 10
0.0154017857143
 20
-27.7321158259
 30
0.0
  0
SEQEND
  8
0
  0
POLYLINE
  8
0
 62
0
 70
0
 66
1
 10
0.0
 20
0.0
 30
0.0
  0
VERTEX
  8
0
 10
0.433116883117
 20
-28.867180761
 30
0.0
  0
VERTEX
  8
0
 10
0.481178084132
 20
-28.853396031
 30
0.0
  0
VERTEX
  8
0
 10
0.528661752701
 20
-28.83775067
 30
0.0
  0
VERTEX
  8
0
 10
0.575323513509
 20
-28.8198010153
 30
0.0
  0
VERTEX
  8
0
 10
0.620988341685
 20
-28.7994528202
 30
0.0
  0
VERTEX
  8
0
 10
0.665174946957
 20
-28.7760794277
 30
0.0
  0
VERTEX
  8
0
 10
0.707458620887
 20
-28.7494162954
 30
0.0
  0
VERTEX
  8
0
 10
0.747484055163
 20
-28.7194766197
 30
0.0
  0
VERTEX
  8
0
 10
0.784301353491
 20
-28.6856819231
 30
0.0
  0
VERTEX
  8
0
 10
0.817607104461
 20
-28.6484179055
 30
0.0
  0
VERTEX
  8
0
 10
0.846258748494
 20
-28.6074829351
 30
0.0
  0
VERTEX
  8
0
 10
0.869734851295
 20
-28.5633664878
 30
0.0
  0
VERTEX
  8
0
 10
0.887978064405
 20
-28.5168476995
 30
0.0
  0
VERTEX
  8
0
 10
0.900724526144
 20
-28.4685238125
 30
0.0
  0
VERTEX
  8
0
 10
0.908285146605
 20
-28.4191231902
 30
0.0
  0
VERTEX
  8
0
 10
0.910884778191
 20
-28.3692030197
 30
0.0
  0
VERTEX
  8
0
 10
0.911038961039
 20
-28.3626555986
 30
0.0
  0
SEQEND
  8
0
  0
POLYLINE
  8
0
 62
0
 70
0
 66
1
 10
0.0
 20
0.0
 30
0.0
  0
VERTEX
  8
0
 10
1.17987012987
 20
-28.372456735
 30
0.0
  0
VERTEX
  8
0
 10
1.17811227913
 20
-28.4224240996
 30
0.0
  0
VERTEX
  8
0
 10
1.17369690985
 20
-28.472217349
 30
0.0
  0
VERTEX
  8
0
 10
1.16538320366
 20
-28.5215071595
 30
0.0
  0
VERTEX
  8
0
 10
1.15341614563
 20
-28.5700448593
 30
0.0
  0
VERTEX
  8
0
 10
1.13827714749
 20
-28.6176857161
 30
0.0
  0
VERTEX
  8
0
 10
1.11921984945
 20
-28.663894923
 30
0.0
  0
VERTEX
  8
0
 10
1.09657395402
 20
-28.7084598661
 30
0.0
  0
VERTEX
  8
0
 10
1.07074862081
 20
-28.7512612678
 30
0.0
  0
VERTEX
  8
0
 10
1.04178753232
 20
-28.7920040817
 30
0.0
  0
VERTEX
  8
0
 10
1.00981559966
 20
-28.8304328948
 30
0.0
  0
VERTEX
  8
0
 10
0.975394693436
 20
-28.8666858201
 30
0.0
  0
VERTEX
  8
0
 10
0.938347916676
 20
-28.9002443402
 30
0.0
  0
VERTEX
  8
0
 10
0.899052405708
 20
-28.9311505209
 30
0.0
  0
VERTEX
  8
0
 10
0.858113568351
 20
-28.9598433486
 30
0.0
  0
VERTEX
  8
0
 10
0.815429196961
 20
-28.9858663572
 30
0.0
  0
VERTEX
  8
0
 10
0.771350273195
 20
-29.0094575234
 30
0.0
  0
VERTEX
  8
0
 10
0.726121329903
 20
-29.0307579519
 30
0.0
  0
VERTEX
  8
0
 10
0.679786470995
 20
-29.049534812
 30
0.0
  0
VERTEX
  8
0
 10
0.632780211413
 20
-29.0665719374
 30
0.0
  0
VERTEX
  8
0
 10
0.585256790106
 20
-29.0821017381
 30
0.0
  0
VERTEX
  8
0
 10
0.537054582817
 20
-29.0953719552
 30
0.0
  0
VERTEX
  8
0
 10
0.492857142857
 20
-29.1061417999
 30
0.0
  0
SEQEND
  8
0
  0
POLYLINE
  8
0
 62
0
 70
0
 66
1
 10
0.0
 20
0.0
 30
0.0
  0
VERTEX
  8
0
 10
0.0154017857143
 20
-27.4931547869
 30
0.0
  0
VERTEX
  8
0
 10
0.0653971192142
 20
-27.4938263267
 30
0.0
  0
VERTEX
  8
0
 10
0.115372972705
 20
-27.4953368324
 30
0.0
  0
VERTEX
  8
0
 10
0.165288306009
 20
-27.4982204893
 30
0.0
  0
VERTEX
  8
0
 10
0.215125661685
 20
-27.5022400259
 30
0.0
  0
VERTEX
  8
0
 10
0.264855684587
 20
-27.5074128632
 30
0.0
  0
VERTEX
  8
0
 10
0.314386023918
 20
-27.5142300417
 30
0.0
  0
VERTEX
  8
0
 10
0.363668186723
 20
-27.5226617886
 30
0.0
  0
VERTEX
  8
0
 10
0.41269659802
 20
-27.5324614494
 30
0.0
  0
VERTEX
  8
0
 10
0.461365595419
 20
-27.5439083964
 30
0.0
  0
VERTEX
  8
0
 10
0.509550956525
 20
-27.5572441315
 30
0.0
  0
VERTEX
  8
0
 10
0.557157735558
 20
-27.5725162936
 30
0.0
  0
VERTEX
  8
0
 10
0.604072341846
 20
-27.5897970484
 30
0.0
  0
VERTEX
  8
0
 10
0.650199293843
 20
-27.6090825947
 30
0.0
  0
VERTEX
  8
0
 10
0.69548104687
 20
-27.6302769
 30
0.0
  0
VERTEX
  8
0
 10
0.739816895578
 20
-27.6533838673
 30
0.0
  0
VERTEX
  8
0
 10
0.78302509699
 20
-27.6785341547
 30
0.0
  0
VERTEX
  8
0
 10
0.82496558852
 20
-27.7057476708
 30
0.0
  0
VERTEX
  8
0
 10
0.865672828925
 20
-27.7347722695
 30
0.0
  0
VERTEX
  8
0
 10
0.904528835613
 20
-27.7662234772
 30
0.0
  0
VERTEX
  8
0
 10
0.941272981086
 20
-27.8001228218
 30
0.0
  0
VERTEX
  8
0
 10
0.975946114695
 20
-27.8361360209
 30
0.0
  0
VERTEX
  8
0
 10
1.00826925383
 20
-27.8742731802
 30
0.0
  0
VERTEX
  8
0
 10
1.03828428685
 20
-27.9142521466
 30
0.0
  0
VERTEX
  8
0
 10
1.06556125023
 20
-27.9561445754
 30
0.0
  0
VERTEX
  8
0
 10
1.09021602754
 20
-27.9996360067
 30
0.0
  0
VERTEX
  8
0
 10
1.11216055766
 20
-28.0445521284
 30
0.0
  0
VERTEX
  8
0
 10
1.13097980069
 20
-28.0908654905
 30
0.0
  0
VERTEX
  8
0
 10
1.14677278586
 20
-28.1382967226
 30
0.0
  0
VERTEX
  8
0
 10
1.15944184244
 20
-28.1866554995
 30
0.0
  0
VERTEX
  8
0
 10
1.16889062848
 20
-28.2357464392
 30
0.0
  0
VERTEX
  8
0
 10
1.17567029771
 20
-28.2852789966
 30
0.0
  0
VERTEX
  8
0
 10
1.17913356612
 20
-28.3351462147
 30
0.0
  0
VERTEX
  8
0
 10
1.17987012987
 20
-28.372456735
 30
0.0
  0
SEQEND
  8
0
  0
POLYLINE
  8
0
 62
0
 70
0
 66
1
 10
0.0
 20
0.0
 30
0.0
  0
VERTEX
  8
0
 10
-1.17987012987
 20
-28.3509875791
 30
0.0
  0
VERTEX
  8
0
 10
-1.17869643378
 20
-28.3010032223
 30
0.0
  0
VERTEX
  8
0
 10
-1.17489164744
 20
-28.2511575432
 30
0.0
  0
VERTEX
  8
0
 10
-1.16824168359
 20
-28.2016068506
 30
0.0
  0
VERTEX
  8
0
 10
-1.15876166272
 20
-28.1525233909
 30
0.0
  0
VERTEX
  8
0
 10
-1.14596577595
 20
-28.1041977704
 30
0.0
  0
VERTEX
  8
0
 10
-1.12999874685
 20
-28.0568263771
 30
0.0
  0
VERTEX
  8
0
 10
-1.11064312816
 20
-28.0107370151
 30
0.0
  0
VERTEX
  8
0
 10
-1.08795853324
 20
-27.9661916996
 30
0.0
  0
VERTEX
  8
0
 10
-1.06204771573
 20
-27.923442648
 30
0.0
  0
VERTEX
  8
0
 10
-1.03301245764
 20
-27.8827518442
 30
0.0
  0
VERTEX
  8
0
 10
-1.00083733047
 20
-27.844497539
 30
0.0
  0
VERTEX
  8
0
 10
-0.965965509261
 20
-27.8086771481
 30
0.0
  0
VERTEX
  8
0
 10
-0.928775784765
 20
-27.7752732216
 30
0.0
  0
VERTEX
  8
0
 10
-0.889354838297
 20
-27.7445288814
 30
0.0
  0
VERTEX
  8
0
 10
-0.848358670198
 20
-27.7159141248
 30
0.0
  0
VERTEX
  8
0
 10
-0.805972660122
 20
-27.6894018871
 30
0.0
  0
VERTEX
  8
0
 10
-0.762391719761
 20
-27.6649005985
 30
0.0
  0
VERTEX
  8
0
 10
-0.717840144728
 20
-27.6422107079
 30
0.0
  0
VERTEX
  8
0
 10
-0.672457840856
 20
-27.621230372
 30
0.0
  0
VERTEX
  8
0
 10
-0.626388561513
 20
-27.6018035197
 30
0.0
  0
VERTEX
  8
0
 10
-0.579636330577
 20
-27.5840876745
 30
0.0
  0
VERTEX
  8
0
 10
-0.532125369309
 20
-27.5685217688
 30
0.0
  0
VERTEX
  8
0
 10
-0.484067027155
 20
-27.5547302455
 30
0.0
  0
VERTEX
  8
0
 10
-0.43564336785
 20
-27.5422804494
 30
0.0
  0
VERTEX
  8
0
 10
-0.386897786131
 20
-27.5311583898
 30
0.0
  0
VERTEX
  8
0
 10
-0.337826486467
 20
-27.5215794941
 30
0.0
  0
VERTEX
  8
0
 10
-0.288446259752
 20
-27.513746715
 30
0.0
  0
VERTEX
  8
0
 10
-0.238848062988
 20
-27.507433114
 30
0.0
  0
VERTEX
  8
0
 10
-0.189106629795
 20
-27.5023655542
 30
0.0
  0
VERTEX
  8
0
 10
-0.139268562795
 20
-27.4983554009
 30
0.0
  0
VERTEX
  8
0
 10
-0.0893529371452
 20
-27.4954749994
 30
0.0
  0
VERTEX
  8
0
 10
-0.0393785950147
 20
-27.4939138924
 30
0.0
  0
VERTEX
  8
0
 10
0.010616208692
 20
-27.4932062651
 30
0.0
  0
VERTEX
  8
0
 10
0.0154017857143
 20
-27.4931547869
 30
0.0
  0
SEQEND
  8
0
  0
POLYLINE
  8
0
 62
0
 70
0
 66
1
 10
0.0
 20
0.0
 30
0.0
  0
VERTEX
  8
0
 10
-0.403246753247
 20
-29.1360119298
 30
0.0
  0
VERTEX
  8
0
 10
-0.451996349501
 20
-29.1249006709
 30
0.0
  0
VERTEX
  8
0
 10
-0.500544124252
 20
-29.1129436346
 30
0.0
  0
VERTEX
  8
0
 10
-0.548686262804
 20
-29.0994499376
 30
0.0
  0
VERTEX
  8
0
 10
-0.596311673949
 20
-29.0842336578
 30
0.0
  0
VERTEX
  8
0
 10
-0.643328161126
 20
-29.0672294854
 30
0.0
  0
VERTEX
  8
0
 10
-0.689644746981
 20
-29.0484027179
 30
0.0
  0
VERTEX
  8
0
 10
-0.735178051808
 20
-29.027753498
 30
0.0
  0
VERTEX
  8
0
 10
-0.779837888915
 20
-29.0052786416
 30
0.0
  0
VERTEX
  8
0
 10
-0.823370604933
 20
-28.9806957842
 30
0.0
  0
VERTEX
  8
0
 10
-0.865415776441
 20
-28.9536512099
 30
0.0
  0
VERTEX
  8
0
 10
-0.905613114845
 20
-28.9239317553
 30
0.0
  0
VERTEX
  8
0
 10
-0.943853133506
 20
-28.8917298709
 30
0.0
  0
VERTEX
  8
0
 10
-0.980047955957
 20
-28.8572474788
 30
0.0
  0
VERTEX
  8
0
 10
-1.01372127049
 20
-28.8203016912
 30
0.0
  0
VERTEX
  8
0
 10
-1.04467102065
 20
-28.7810448799
 30
0.0
  0
VERTEX
  8
0
 10
-1.07280021577
 20
-28.7397204119
 30
0.0
  0
VERTEX
  8
0
 10
-1.09789559006
 20
-28.6964872555
 30
0.0
  0
VERTEX
  8
0
 10
-1.11969754678
 20
-28.6515039571
 30
0.0
  0
VERTEX
  8
0
 10
-1.13814613685
 20
-28.6050434142
 30
0.0
  0
VERTEX
  8
0
 10
-1.15316160298
 20
-28.5573636259
 30
0.0
  0
VERTEX
  8
0
 10
-1.1646234978
 20
-28.5087052382
 30
0.0
  0
VERTEX
  8
0
 10
-1.17303207292
 20
-28.4594249043
 30
0.0
  0
VERTEX
  8
0
 10
-1.17798839485
 20
-28.4096844372
 30
0.0
  0
VERTEX
  8
0
 10
-1.17970774488
 20
-28.3597175307
 30
0.0
  0
VERTEX
  8
0
 10
-1.17987012987
 20
-28.3509875791
 30
0.0
  0
SEQEND
  8
0
  0
POLYLINE
  8
0
 62
0
 70
0
 66
1
 10
0.0
 20
0.0
 30
0.0
  0
VERTEX
  8
0
 10
-8.38910478343
 20
-40.0
 30
0.0
  0
VERTEX
  8
0
 10
-8.38916305201
 20
-40.0000279034
 30
0.0
  0
SEQEND
  8
0
  0
POLYLINE
  8
0
 62
0
 70
0
 66
1
 10
0.0
 20
0.0
 30
0.0
  0
VERTEX
  8
0
 10
-8.58913259104
 20
-40.2
 30
0.0
  0
VERTEX
  8
0
 10
-8.55378396846
 20
-40.1646379457
 30
0.0
  0
VERTEX
  8
0
 10
-8.51843500159
 20
-40.1292762356
 30
0.0
  0
VERTEX
  8
0
 10
-8.48308514137
 20
-40.0939154186
 30
0.0
  0
VERTEX
  8
0
 10
-8.44773359224
 20
-40.05855629
 30
0.0
  0
VERTEX
  8
0
 10
-8.41237764096
 20
-40.0232015634
 30
0.0
  0
VERTEX
  8
0
 10
-8.38916305201
 20
-40.0000279034
 30
0.0
  0
SEQEND
  8
0
  0
POLYLINE
  8
0
 62
0
 70
0
 66
1
 10
0.0
 20
0.0
 30
0.0
  0
VERTEX
  8
0
 10
-8.38916305201
 20
-41.9999720966
 30
0.0
  0
VERTEX
  8
0
 10
-8.42454002139
 20
-41.9646384474
 30
0.0
  0
VERTEX
  8
0
 10
-8.45989372808
 20
-41.9292814761
 30
0.0
  0
VERTEX
  8
0
 10
-8.49524458368
 20
-41.8939216542
 30
0.0
  0
VERTEX
  8
0
 10
-8.5305940639
 20
-41.8585604572
 30
0.0
  0
VERTEX
  8
0
 10
-8.56594285787
 20
-41.8231985743
 30
0.0
  0
VERTEX
  8
0
 10
-8.58913259104
 20
-41.8
 30
0.0
  0
SEQEND
  8
0
  0
POLYLINE
  8
0
 62
0
 70
0
 66
1
 10
0.0
 20
0.0
 30
0.0
  0
VERTEX
  8
0
 10
-8.38916305201
 20
-41.9999720966
 30
0.0
  0
VERTEX
  8
0
 10
-8.38910478343
 20
-42.0
 30
0.0
  0
SEQEND
  8
0
  0
POLYLINE
  8
0
 62
0
 70
0
 66
1
 10
0.0
 20
0.0
 30
0.0
  0
VERTEX
  8
0
 10
-8.38387225096
 20
-42.0
 30
0.0
  0
VERTEX
  8
0
 10
-8.38156775897
 20
-41.9501433399
 30
0.0
  0
VERTEX
  8
0
 10
-8.38085274525
 20
-41.9001486428
 30
0.0
  0
VERTEX
  8
0
 10
-8.3804953423
 20
-41.8501499841
 30
0.0
  0
VERTEX
  8
0
 10
-8.38038389696
 20
-41.8001501503
 30
0.0
  0
VERTEX
  8
0
 10
-8.38038389598
 20
-41.8
 30
0.0
  0
SEQEND
  8
0
  0
POLYLINE
  8
0
 62
0
 70
0
 66
1
 10
0.0
 20
0.0
 30
0.0
  0
VERTEX
  8
0
 10
-8.38038389598
 20
-40.2
 30
0.0
  0
VERTEX
  8
0
 10
-8.38049466503
 20
-40.1500001647
 30
0.0
  0
VERTEX
  8
0
 10
-8.38085123183
 20
-40.1000014999
 30
0.0
  0
VERTEX
  8
0
 10
-8.38156478692
 20
-40.050006781
 30
0.0
  0
VERTEX
  8
0
 10
-8.38376454416
 20
-40.0000953561
 30
0.0
  0
VERTEX
  8
0
 10
-8.38387225096
 20
-40.0
 30
0.0
  0
SEQEND
  8
0
  0
POLYLINE
  8
0
 62
0
 70
0
 66
1
 10
0.0
 20
0.0
 30
0.0
  0
VERTEX
  8
0
 10
-8.38910478343
 20
-2.6
 30
0.0
  0
VERTEX
  8
0
 10
-8.38916305201
 20
-2.60002790344
 30
0.0
  0
SEQEND
  8
0
  0
POLYLINE
  8
0
 62
0
 70
0
 66
1
 10
0.0
 20
0.0
 30
0.0
  0
VERTEX
  8
0
 10
-8.58913259104
 20
-2.8
 30
0.0
  0
VERTEX
  8
0
 10
-8.55378396846
 20
-2.76463794573
 30
0.0
  0
VERTEX
  8
0
 10
-8.51843500159
 20
-2.72927623563
 30
0.0
  0
VERTEX
  8
0
 10
-8.48308514137
 20
-2.69391541858
 30
0.0
  0
VERTEX
  8
0
 10
-8.44773359224
 20
-2.65855629002
 30
0.0
  0
VERTEX
  8
0
 10
-8.41237764096
 20
-2.62320156335
 30
0.0
  0
VERTEX
  8
0
 10
-8.38916305201
 20
-2.60002790344
 30
0.0
  0
SEQEND
  8
0
  0
POLYLINE
  8
0
 62
0
 70
0
 66
1
 10
0.0
 20
0.0
 30
0.0
  0
VERTEX
  8
0
 10
-8.38916305201
 20
-4.59997209656
 30
0.0
  0
VERTEX
  8
0
 10
-8.42454002139
 20
-4.56463844739
 30
0.0
  0
VERTEX
  8
0
 10
-8.45989372808
 20
-4.52928147609
 30
0.0
  0
VERTEX
  8
0
 10
-8.49524458368
 20
-4.49392165415
 30
0.0
  0
VERTEX
  8
0
 10
-8.5305940639
 20
-4.45856045723
 30
0.0
  0
VERTEX
  8
0
 10
-8.56594285787
 20
-4.42319857429
 30
0.0
  0
VERTEX
  8
0
 10
-8.58913259104
 20
-4.4
 30
0.0
  0
SEQEND
  8
0
  0
POLYLINE
  8
0
 62
0
 70
0
 66
1
 10
0.0
 20
0.0
 30
0.0
  0
VERTEX
  8
0
 10
-8.38916305201
 20
-4.59997209656
 30
0.0
  0
VERTEX
  8
0
 10
-8.38910478343
 20
-4.6
 30
0.0
  0
SEQEND
  8
0
  0
POLYLINE
  8
0
 62
0
 70
0
 66
1
 10
0.0
 20
0.0
 30
0.0
  0
VERTEX
  8
0
 10
-8.38387225096
 20
-4.6
 30
0.0
  0
VERTEX
  8
0
 10
-8.38156775897
 20
-4.55014333986
 30
0.0
  0
VERTEX
  8
0
 10
-8.38085274525
 20
-4.50014864275
 30
0.0
  0
VERTEX
  8
0
 10
-8.3804953423
 20
-4.45014998406
 30
0.0
  0
VERTEX
  8
0
 10
-8.38038389696
 20
-4.40015015025
 30
0.0
  0
VERTEX
  8
0
 10
-8.38038389598
 20
-4.4
 30
0.0
  0
SEQEND
  8
0
  0
POLYLINE
  8
0
 62
0
 70
0
 66
1
 10
0.0
 20
0.0
 30
0.0
  0
VERTEX
  8
0
 10
-8.38038389598
 20
-2.8
 30
0.0
  0
VERTEX
  8
0
 10
-8.38049466503
 20
-2.75000016466
 30
0.0
  0
VERTEX
  8
0
 10
-8.38085123183
 20
-2.70000149987
 30
0.0
  0
VERTEX
  8
0
 10
-8.38156478692
 20
-2.65000678097
 30
0.0
  0
VERTEX
  8
0
 10
-8.38376454416
 20
-2.6000953561
 30
0.0
  0
VERTEX
  8
0
 10
-8.38387225096
 20
-2.6
 30
0.0
  0
SEQEND
  8
0
  0
POLYLINE
  8
0
 62
0
 70
0
 66
1
 10
0.0
 20
0.0
 30
0.0
  0
VERTEX
  8
0
 10
8.38038951059
 20
-41.8
 30
0.0
  0
VERTEX
  8
0
 10
8.38050021217
 20
-41.8499998355
 30
0.0
  0
VERTEX
  8
0
 10
8.38085656177
 20
-41.899998502
 30
0.0
  0
VERTEX
  8
0
 10
8.38156968233
 20
-41.9499932273
 30
0.0
  0
VERTEX
  8
0
 10
8.38376815583
 20
-41.9999047439
 30
0.0
  0
VERTEX
  8
0
 10
8.38387574056
 20
-42.0
 30
0.0
  0
SEQEND
  8
0
  0
POLYLINE
  8
0
 62
0
 70
0
 66
1
 10
0.0
 20
0.0
 30
0.0
  0
VERTEX
  8
0
 10
8.38910508551
 20
-42.0
 30
0.0
  0
VERTEX
  8
0
 10
8.38916122907
 20
-41.9999740632
 30
0.0
  0
SEQEND
  8
0
  0
POLYLINE
  8
0
 62
0
 70
0
 66
1
 10
0.0
 20
0.0
 30
0.0
  0
VERTEX
  8
0
 10
8.5891307681
 20
-41.8
 30
0.0
  0
VERTEX
  8
0
 10
8.55378751979
 20
-41.8353674257
 30
0.0
  0
VERTEX
  8
0
 10
8.51844365165
 20
-41.8707342319
 30
0.0
  0
VERTEX
  8
0
 10
8.48309817527
 20
-41.9060994309
 30
0.0
  0
VERTEX
  8
0
 10
8.44774965842
 20
-41.9414615908
 30
0.0
  0
VERTEX
  8
0
 10
8.41239321733
 20
-41.9768158273
 30
0.0
  0
VERTEX
  8
0
 10
8.38916122907
 20
-41.9999740632
 30
0.0
  0
SEQEND
  8
0
  0
POLYLINE
  8
0
 62
0
 70
0
 66
1
 10
0.0
 20
0.0
 30
0.0
  0
VERTEX
  8
0
 10
8.38916122907
 20
-40.0000259368
 30
0.0
  0
VERTEX
  8
0
 10
8.42455549917
 20
-40.0353421503
 30
0.0
  0
VERTEX
  8
0
 10
8.45990790015
 20
-40.070700427
 30
0.0
  0
VERTEX
  8
0
 10
8.49525516858
 20
-40.1060638348
 30
0.0
  0
VERTEX
  8
0
 10
8.53059996092
 20
-40.1414297175
 30
0.0
  0
VERTEX
  8
0
 10
8.56594351782
 20
-40.1767968348
 30
0.0
  0
VERTEX
  8
0
 10
8.5891307681
 20
-40.2
 30
0.0
  0
SEQEND
  8
0
  0
POLYLINE
  8
0
 62
0
 70
0
 66
1
 10
0.0
 20
0.0
 30
0.0
  0
VERTEX
  8
0
 10
8.38916122907
 20
-40.0000259368
 30
0.0
  0
VERTEX
  8
0
 10
8.38910508551
 20
-40.0
 30
0.0
  0
SEQEND
  8
0
  0
POLYLINE
  8
0
 62
0
 70
0
 66
1
 10
0.0
 20
0.0
 30
0.0
  0
VERTEX
  8
0
 10
8.38387574056
 20
-40.0
 30
0.0
  0
VERTEX
  8
0
 10
8.38157264931
 20
-40.0498568162
 30
0.0
  0
VERTEX
  8
0
 10
8.38085807261
 20
-40.0998515198
 30
0.0
  0
VERTEX
  8
0
 10
8.38050088828
 20
-40.1498501801
 30
0.0
  0
VERTEX
  8
0
 10
8.38038951157
 20
-40.1998500141
 30
0.0
  0
VERTEX
  8
0
 10
8.38038951059
 20
-40.2
 30
0.0
  0
SEQEND
  8
0
  0
POLYLINE
  8
0
 62
0
 70
0
 66
1
 10
0.0
 20
0.0
 30
0.0
  0
VERTEX
  8
0
 10
8.38038951059
 20
-4.4
 30
0.0
  0
VERTEX
  8
0
 10
8.38050021217
 20
-4.44999983554
 30
0.0
  0
VERTEX
  8
0
 10
8.38085656177
 20
-4.49999850196
 30
0.0
  0
VERTEX
  8
0
 10
8.38156968233
 20
-4.54999322729
 30
0.0
  0
VERTEX
  8
0
 10
8.38376815583
 20
-4.59990474394
 30
0.0
  0
VERTEX
  8
0
 10
8.38387574056
 20
-4.6
 30
0.0
  0
SEQEND
  8
0
  0
POLYLINE
  8
0
 62
0
 70
0
 66
1
 10
0.0
 20
0.0
 30
0.0
  0
VERTEX
  8
0
 10
8.38910508551
 20
-4.6
 30
0.0
  0
VERTEX
  8
0
 10
8.38916122907
 20
-4.59997406322
 30
0.0
  0
SEQEND
  8
0
  0
POLYLINE
  8
0
 62
0
 70
0
 66
1
 10
0.0
 20
0.0
 30
0.0
  0
VERTEX
  8
0
 10
8.5891307681
 20
-4.4
 30
0.0
  0
VERTEX
  8
0
 10
8.55378751979
 20
-4.43536742567
 30
0.0
  0
VERTEX
  8
0
 10
8.51844365165
 20
-4.47073423192
 30
0.0
  0
VERTEX
  8
0
 10
8.48309817527
 20
-4.50609943091
 30
0.0
  0
VERTEX
  8
0
 10
8.44774965842
 20
-4.54146159082
 30
0.0
  0
VERTEX
  8
0
 10
8.41239321733
 20
-4.57681582729
 30
0.0
  0
VERTEX
  8
0
 10
8.38916122907
 20
-4.59997406322
 30
0.0
  0
SEQEND
  8
0
  0
POLYLINE
  8
0
 62
0
 70
0
 66
1
 10
0.0
 20
0.0
 30
0.0
  0
VERTEX
  8
0
 10
8.38916122907
 20
-2.60002593678
 30
0.0
  0
VERTEX
  8
0
 10
8.42455549917
 20
-2.63534215029
 30
0.0
  0
VERTEX
  8
0
 10
8.45990790015
 20
-2.67070042701
 30
0.0
  0
VERTEX
  8
0
 10
8.49525516858
 20
-2.70606383483
 30
0.0
  0
VERTEX
  8
0
 10
8.53059996092
 20
-2.74142971745
 30
0.0
  0
VERTEX
  8
0
 10
8.56594351782
 20
-2.77679683475
 30
0.0
  0
VERTEX
  8
0
 10
8.5891307681
 20
-2.8
 30
0.0
  0
SEQEND
  8
0
  0
POLYLINE
  8
0
 62
0
 70
0
 66
1
 10
0.0
 20
0.0
 30
0.0
  0
VERTEX
  8
0
 10
8.38916122907
 20
-2.60002593678
 30
0.0
  0
VERTEX
  8
0
 10
8.38910508551
 20
-2.6
 30
0.0
  0
SEQEND
  8
0
  0
POLYLINE
  8
0
 62
0
 70
0
 66
1
 10
0.0
 20
0.0
 30
0.0
  0
VERTEX
  8
0
 10
8.38387574056
 20
-2.6
 30
0.0
  0
VERTEX
  8
0
 10
8.38157264931
 20
-2.64985681619
 30
0.0
  0
VERTEX
  8
0
 10
8.38085807261
 20
-2.69985151979
 30
0.0
  0
VERTEX
  8
0
 10
8.38050088828
 20
-2.74985018012
 30
0.0
  0
VERTEX
  8
0
 10
8.38038951157
 20
-2.79985001413
 30
0.0
  0
VERTEX
  8
0
 10
8.38038951059
 20
-2.8
 30
0.0
  0
SEQEND
  8
0
  0
POLYLINE
  8
0
 62
0
 70
0
 66
1
 10
0.0
 20
0.0
 30
0.0
  0
VERTEX
  8
0
 10
-8.08903685151
 20
1.88938065527
 30
0.0
  0
VERTEX
  8
0
 10
-8.03967175088
 20
1.88302732335
 30
0.0
  0
VERTEX
  8
0
 10
-7.98971973788
 20
1.88087680588
 30
0.0
  0
VERTEX
  8
0
 10
-7.93973190729
 20
1.87980018723
 30
0.0
  0
VERTEX
  8
0
 10
-7.88973342854
 20
1.87946213091
 30
0.0
  0
VERTEX
  8
0
 10
-7.8893117795
 20
1.87946210765
 30
0.0
  0
SEQEND
  8
0
  0
POLYLINE
  8
0
 62
0
 70
0
 66
1
 10
0.0
 20
0.0
 30
0.0
  0
VERTEX
  8
0
 10
7.8893117795
 20
1.87946210765
 30
0.0
  0
VERTEX
  8
0
 10
7.93931029708
 20
1.87979446452
 30
0.0
  0
VERTEX
  8
0
 10
7.98929828221
 20
1.88086403757
 30
0.0
  0
VERTEX
  8
0
 10
8.03925084571
 20
1.88300228832
 30
0.0
  0
VERTEX
  8
0
 10
8.08870862192
 20
1.88911699624
 30
0.0
  0
VERTEX
  8
0
 10
8.08903685151
 20
1.88938065527
 30
0.0
  0
SEQEND
  8
0
  0
POLYLINE
  8
0
 62
0
 70
0
 66
1
 10
0.0
 20
0.0
 30
0.0
  0
VERTEX
  8
0
 10
-3.0
 20
-44.6
 30
0.0
  0
VERTEX
  8
0
 10
-2.99681395053
 20
-44.5501353226
 30
0.0
  0
VERTEX
  8
0
 10
-2.98739867373
 20
-44.5010627124
 30
0.0
  0
VERTEX
  8
0
 10
-2.97199221139
 20
-44.4535287999
 30
0.0
  0
VERTEX
  8
0
 10
-2.95085600967
 20
-44.4082509075
 30
0.0
  0
VERTEX
  8
0
 10
-2.9242821735
 20
-44.3659354948
 30
0.0
  0
VERTEX
  8
0
 10
-2.89261691378
 20
-44.3272835311
 30
0.0
  0
VERTEX
  8
0
 10
-2.85625966817
 20
-44.2930107596
 30
0.0
  0
VERTEX
  8
0
 10
-2.81583988304
 20
-44.2636339646
 30
0.0
  0
VERTEX
  8
0
 10
-2.77211524572
 20
-44.2394459214
 30
0.0
  0
VERTEX
  8
0
 10
-2.72578005822
 20
-44.220738301
 30
0.0
  0
VERTEX
  8
0
 10
-2.67750967056
 20
-44.2078230774
 30
0.0
  0
VERTEX
  8
0
 10
-2.62800793602
 20
-44.2010233901
 30
0.0
  0
VERTEX
  8
0
 10
-2.6
 20
-44.2
 30
0.0
  0
SEQEND
  8
0
  0
POLYLINE
  8
0
 62
0
 70
0
 66
1
 10
0.0
 20
0.0
 30
0.0
  0
VERTEX
  8
0
 10
-2.6
 20
-47.7
 30
0.0
  0
VERTEX
  8
0
 10
-2.64986144312
 20
-47.6967764281
 30
0.0
  0
VERTEX
  8
0
 10
-2.69891420849
 20
-47.6872607112
 30
0.0
  0
VERTEX
  8
0
 10
-2.74641419347
 20
-47.6717489711
 30
0.0
  0
VERTEX
  8
0
 10
-2.79167423275
 20
-47.6505721892
 30
0.0
  0
VERTEX
  8
0
 10
-2.83402618521
 20
-47.6240544315
 30
0.0
  0
VERTEX
  8
0
 10
-2.87276847651
 20
-47.5924994204
 30
0.0
  0
VERTEX
  8
0
 10
-2.9071562538
 20
-47.5562493131
 30
0.0
  0
VERTEX
  8
0
 10
-2.93675337598
 20
-47.5159904959
 30
0.0
  0
VERTEX
  8
0
 10
-2.96108576782
 20
-47.472348321
 30
0.0
  0
VERTEX
  8
0
 10
-2.97974471207
 20
-47.4259959551
 30
0.0
  0
VERTEX
  8
0
 10
-2.99244482544
 20
-47.377669657
 30
0.0
  0
VERTEX
  8
0
 10
-2.99901930671
 20
-47.3281364005
 30
0.0
  0
VERTEX
  8
0
 10
-3.0
 20
-47.3
 30
0.0
  0
SEQEND
  8
0
  0
POLYLINE
  8
0
 62
0
 70
0
 66
1
 10
0.0
 20
0.0
 30
0.0
  0
VERTEX
  8
0
 10
3.0
 20
-47.3
 30
0.0
  0
VERTEX
  8
0
 10
2.9968640247
 20
-47.3498687184
 30
0.0
  0
VERTEX
  8
0
 10
2.98753180026
 20
-47.398957094
 30
0.0
  0
VERTEX
  8
0
 10
2.97216924955
 20
-47.4465045393
 30
0.0
  0
VERTEX
  8
0
 10
2.95101223038
 20
-47.4917719133
 30
0.0
  0
VERTEX
  8
0
 10
2.9243755443
 20
-47.5340474762
 30
0.0
  0
VERTEX
  8
0
 10
2.89266688967
 20
-47.5726647996
 30
0.0
  0
VERTEX
  8
0
 10
2.8562752906
 20
-47.6069006388
 30
0.0
  0
VERTEX
  8
0
 10
2.81583402764
 20
-47.6362485565
 30
0.0
  0
VERTEX
  8
0
 10
2.77211248139
 20
-47.6604430638
 30
0.0
  0
VERTEX
  8
0
 10
2.7257916785
 20
-47.6791868019
 30
0.0
  0
VERTEX
  8
0
 10
2.67753289936
 20
-47.6921450222
 30
0.0
  0
VERTEX
  8
0
 10
2.62803513584
 20
-47.6989716841
 30
0.0
  0
VERTEX
  8
0
 10
2.6
 20
-47.7
 30
0.0
  0
SEQEND
  8
0
  0
POLYLINE
  8
0
 62
0
 70
0
 66
1
 10
0.0
 20
0.0
 30
0.0
  0
VERTEX
  8
0
 10
2.6
 20
-44.2
 30
0.0
  0
VERTEX
  8
0
 10
2.64986107817
 20
-44.2032287114
 30
0.0
  0
VERTEX
  8
0
 10
2.69891503227
 20
-44.2127393488
 30
0.0
  0
VERTEX
  8
0
 10
2.74642215022
 20
-44.228229646
 30
0.0
  0
VERTEX
  8
0
 10
2.79169266311
 20
-44.2493838136
 30
0.0
  0
VERTEX
  8
0
 10
2.83404695828
 20
-44.2758972552
 30
0.0
  0
VERTEX
  8
0
 10
2.8727716892
 20
-44.3074733022
 30
0.0
  0
VERTEX
  8
0
 10
2.90712956233
 20
-44.3437515514
 30
0.0
  0
VERTEX
  8
0
 10
2.93664123786
 20
-44.3840725407
 30
0.0
  0
VERTEX
  8
0
 10
2.96089600708
 20
-44.4277586597
 30
0.0
  0
VERTEX
  8
0
 10
2.97955142314
 20
-44.4741135365
 30
0.0
  0
VERTEX
  8
0
 10
2.99232885361
 20
-44.5224201172
 30
0.0
  0
VERTEX
  8
0
 10
2.99899998914
 20
-44.5719400939
 30
0.0
  0
VERTEX
  8
0
 10
3.0
 20
-44.6
 30
0.0
  0
SEQEND
  8
0
  0
POLYLINE
  8
0
 62
0
 70
0
 66
1
 10
0.0
 20
0.0
 30
0.0
  0
VERTEX
  8
0
 10
-9.23061739643
 20
-50.5666973685
 30
0.0
  0
VERTEX
  8
0
 10
-9.18160540601
 20
-50.5765705345
 30
0.0
  0
VERTEX
  8
0
 10
-9.13224363545
 20
-50.584515414
 30
0.0
  0
VERTEX
  8
0
 10
-9.08262691328
 20
-50.5906742198
 30
0.0
  0
VERTEX
  8
0
 10
-9.03283226906
 20
-50.5951775711
 30
0.0
  0
VERTEX
  8
0
 10
-8.98292241501
 20
-50.5981482479
 30
0.0
  0
VERTEX
  8
0
 10
-8.9329480908
 20
-50.5997012221
 30
0.0
  0
VERTEX
  8
0
 10
-8.898627654
 20
-50.6
 30
0.0
  0
SEQEND
  8
0
  0
ARC
  8
0
 62
0
 10
0.257179676972
 20
-40.8681566817
 30
0.0
 40
0.14893745294
 50
-180.0
 51
-150.0
  0
ARC
  8
0
 62
0
 10
1.74282032303
 20
-40.8681566817
 30
0.0
 40
0.14893745294
 50
-0.0
 51
60.0
  0
ARC
  8
0
 62
0
 10
-7.01339745962
 20
-7.5475795451
 30
0.0
 40
0.14893745294
 50
0.0
 51
30.0
  0
ARC
  8
0
 62
0
 10
-7.01339745962
 20
-7.5475795451
 30
0.0
 40
0.2
 50
-0.0
 51
30.0
  0
ARC
  8
0
 62
0
 10
7.01339745962
 20
-7.5475795451
 30
0.0
 40
0.14893745294
 50
-180.0
 51
-120.0
  0
ARC
  8
0
 62
0
 10
7.01339745962
 20
-7.5475795451
 30
0.0
 40
0.2
 50
180.0
 51
-120.0
  0
ARC
  8
0
 62
0
 10
7.5
 20
-6.90475922207
 30
0.0
 40
0.380179740287
 50
-0.0
 51
-180.0
  0
ARC
  8
0
 62
0
 10
7.5
 20
-6.90475922207
 30
0.0
 40
0.41596262339
 50
0.0
 51
36.7597620259
  0
ARC
  8
0
 62
0
 10
7.5
 20
-6.90475922207
 30
0.0
 40
0.45
 50
41.8103148958
 51
78.1896851042
  0
ARC
  8
0
 62
0
 10
7.5
 20
-6.90475922207
 30
0.0
 40
0.41596262339
 50
83.2402379741
 51
156.759762026
  0
ARC
  8
0
 62
0
 10
7.5
 20
-6.90475922207
 30
0.0
 40
0.45
 50
161.810314896
 51
180.0
  0
ARC
  8
0
 62
0
 10
-7.5
 20
-6.90475922207
 30
0.0
 40
0.380179740287
 50
-180.0
 51
-0.0
  0
ARC
  8
0
 62
0
 10
-7.5
 20
-6.90475922207
 30
0.0
 40
0.41596262339
 50
-180.0
 51
-143.240237974
  0
ARC
  8
0
 62
0
 10
-7.5
 20
-6.90475922207
 30
0.0
 40
0.45
 50
-138.189685104
 51
-101.810314896
  0
ARC
  8
0
 62
0
 10
-7.5
 20
-6.90475922207
 30
0.0
 40
0.41596262339
 50
-96.7597620259
 51
-23.2402379741
  0
ARC
  8
0
 62
0
 10
-7.5
 20
-6.90475922207
 30
0.0
 40
0.45
 50
-18.1896851042
 51
0.0
  0
ARC
  8
0
 62
0
 10
1.0
 20
-40.5547592221
 30
0.0
 40
0.380179740287
 50
0.0
 51
180.0
  0
ARC
  8
0
 62
0
 10
1.0
 20
-40.5547592221
 30
0.0
 40
0.41596262339
 50
-0.0
 51
6.75976202593
  0
ARC
  8
0
 62
0
 10
1.0
 20
-40.5547592221
 30
0.0
 40
0.41596262339
 50
53.2402379741
 51
126.759762026
  0
ARC
  8
0
 62
0
 10
1.0
 20
-40.5547592221
 30
0.0
 40
0.41596262339
 50
173.240237974
 51
-180.0
  0
LINE
  8
0
 62
0
 10
-6.225
 20
0.0
 30
0.0
 11
-8.19997693982
 21
0.0
 31
0.0
  0
LINE
  8
0
 62
0
 10
-6.14805243539
 20
-0.115480014935
 30
0.0
 11
-6.225
 21
1.47104550763e-15
 31
0.0
  0
LINE
  8
0
 62
0
 10
6.225
 20
1.47104550763e-15
 30
0.0
 11
6.14805243539
 21
-0.115480014935
 31
0.0
  0
LINE
  8
0
 62
0
 10
8.19997693982
 20
0.0
 30
0.0
 11
6.225
 21
0.0
 31
0.0
  0
LINE
  8
0
 62
0
 10
9.70027409305
 20
0.0
 30
0.0
 11
8.70066520592
 21
0.0
 31
0.0
  0
LINE
  8
0
 62
0
 10
-8.70066520592
 20
0.0
 30
0.0
 11
-9.70027409305
 21
0.0
 31
0.0
  0
LINE
  8
0
 62
0
 10
-3.45544185709
 20
-48.5553809352
 30
0.0
 11
3.45544185709
 21
-48.5553809352
 31
0.0
  0
LINE
  8
0
 62
0
 10
3.48525772523
 20
-43.3148031967
 30
0.0
 11
-3.48525772523
 21
-43.3148031967
 31
0.0
  0
LINE
  8
0
 62
0
 10
8.8988741818
 20
-49.1162852249
 30
0.0
 11
-8.8988741818
 21
-49.1162852249
 31
0.0
  0
LINE
  8
0
 62
0
 10
1.1
 20
-39.5600237685
 30
0.0
 11
0.9
 21
-39.5600237685
 31
0.0
  0
ARC
  8
0
 62
0
 10
1.0
 20
-40.5547592221
 30
0.0
 40
0.380179740287
 50
-180.0
 51
-0.0
  0
ARC
  8
0
 62
0
 10
1.0
 20
-40.5547592221
 30
0.0
 40
0.41596262339
 50
-180.0
 51
-113.240237974
  0
ARC
  8
0
 62
0
 10
1.0
 20
-40.5547592221
 30
0.0
 40
0.41596262339
 50
-66.7597620259
 51
-0.0
  0
LINE
  8
0
 62
0
 10
-0.791558441558
 20
-30.6593885532
 30
0.0
 11
-0.141883116883
 21
-29.4048430986
 31
0.0
  0
LINE
  8
0
 62
0
 10
0.791558441558
 20
-24.1775703713
 30
0.0
 11
0.141883116883
 21
-25.4321158259
 31
0.0
  0
LINE
  8
0
 62
0
 10
-0.141883116883
 20
-25.4321158259
 30
0.0
 11
-0.791558441558
 21
-24.1775703713
 31
0.0
  0
LINE
  8
0
 62
0
 10
-7.59210252282
 20
-7.34523297304
 30
0.0
 11
-7.35980762114
 21
-7.7475795451
 31
0.0
  0
LINE
  8
0
 62
0
 10
-8.85
 20
-7.20475922207
 30
0.0
 11
-7.83541019662
 21
-7.20475922207
 31
0.0
  0
LINE
  8
0
 62
0
 10
-8.85
 20
-35.961818303
 30
0.0
 11
-8.85
 21
-7.20475922207
 31
0.0
  0
LINE
  8
0
 62
0
 10
8.85
 20
-35.961818303
 30
0.0
 11
8.85
 21
-7.20475922207
 31
0.0
  0
LINE
  8
0
 62
0
 10
7.83541019663
 20
-7.20475922207
 30
0.0
 11
8.85
 21
-7.20475922207
 31
0.0
  0
ARC
  8
0
 62
0
 10
7.5
 20
-6.90475922207
 30
0.0
 40
0.45
 50
-78.1896851042
 51
-41.8103148958
  0
LINE
  8
0
 62
0
 10
7.35980762114
 20
-7.7475795451
 30
0.0
 11
7.59210252282
 21
-7.34523297304
 31
0.0
  0
ARC
  8
0
 62
0
 10
7.18660254038
 20
-7.6475795451
 30
0.0
 40
0.2
 50
-120.0
 51
-30.0
  0
LINE
  8
0
 62
0
 10
6.91339745962
 20
-7.72078462586
 30
0.0
 11
7.08660254038
 21
-7.82078462586
 31
0.0
  0
ARC
  8
0
 62
0
 10
7.01339745962
 20
-7.5475795451
 30
0.0
 40
0.2
 50
150.0
 51
-180.0
  0
LINE
  8
0
 62
0
 10
7.07248728055
 20
-7.04523297304
 30
0.0
 11
6.84019237886
 21
-7.4475795451
 31
0.0
  0
ARC
  8
0
 62
0
 10
7.5
 20
-6.90475922207
 30
0.0
 40
0.45
 50
-180.0
 51
-161.810314896
  0
LINE
  8
0
 62
0
 10
6.84019237886
 20
-6.36193889904
 30
0.0
 11
7.07248728055
 21
-6.76428547111
 31
0.0
  0
ARC
  8
0
 62
0
 10
7.01339745962
 20
-6.26193889904
 30
0.0
 40
0.2
 50
120.0
 51
-150.0
  0
LINE
  8
0
 62
0
 10
7.08660254038
 20
-5.98873381829
 30
0.0
 11
6.91339745962
 21
-6.08873381829
 31
0.0
  0
ARC
  8
0
 62
0
 10
7.18660254038
 20
-6.16193889904
 30
0.0
 40
0.2
 50
30.0
 51
120.0
  0
LINE
  8
0
 62
0
 10
7.59210252282
 20
-6.46428547111
 30
0.0
 11
7.35980762114
 21
-6.06193889904
 31
0.0
  0
LINE
  8
0
 62
0
 10
8.85
 20
-6.60475922207
 30
0.0
 11
7.83541019663
 21
-6.60475922207
 31
0.0
  0
LINE
  8
0
 62
0
 10
8.85
 20
-6.60475922207
 30
0.0
 11
8.85
 21
-4.6
 31
0.0
  0
LINE
  8
0
 62
0
 10
8.85
 20
-2.6
 30
0.0
 11
8.85
 21
-0.7
 31
0.0
  0
LINE
  8
0
 62
0
 10
-8.85
 20
-0.7
 30
0.0
 11
8.85
 21
-0.7
 31
0.0
  0
LINE
  8
0
 62
0
 10
-8.85
 20
-6.60475922207
 30
0.0
 11
-8.85
 21
-4.6
 31
0.0
  0
LINE
  8
0
 62
0
 10
-8.85
 20
-2.6
 30
0.0
 11
-8.85
 21
-0.7
 31
0.0
  0
LINE
  8
0
 62
0
 10
-7.83541019663
 20
-6.60475922207
 30
0.0
 11
-8.85
 21
-6.60475922207
 31
0.0
  0
ARC
  8
0
 62
0
 10
-7.5
 20
-6.90475922207
 30
0.0
 40
0.45
 50
101.810314896
 51
138.189685104
  0
LINE
  8
0
 62
0
 10
-7.35980762114
 20
-6.06193889904
 30
0.0
 11
-7.59210252282
 21
-6.46428547111
 31
0.0
  0
ARC
  8
0
 62
0
 10
-7.18660254038
 20
-6.16193889904
 30
0.0
 40
0.2
 50
60.0
 51
150.0
  0
LINE
  8
0
 62
0
 10
-6.91339745962
 20
-6.08873381829
 30
0.0
 11
-7.08660254038
 21
-5.98873381829
 31
0.0
  0
ARC
  8
0
 62
0
 10
-7.01339745962
 20
-6.26193889904
 30
0.0
 40
0.2
 50
-30.0
 51
60.0
  0
LINE
  8
0
 62
0
 10
-7.07248728055
 20
-6.76428547111
 30
0.0
 11
-6.84019237886
 21
-6.36193889904
 31
0.0
  0
ARC
  8
0
 62
0
 10
-7.5
 20
-6.90475922207
 30
0.0
 40
0.45
 50
0.0
 51
18.1896851042
  0
LINE
  8
0
 62
0
 10
-6.84019237886
 20
-7.4475795451
 30
0.0
 11
-7.07248728055
 21
-7.04523297304
 31
0.0
  0
ARC
  8
0
 62
0
 10
-7.01339745962
 20
-7.5475795451
 30
0.0
 40
0.2
 50
-60.0
 51
0.0
  0
LINE
  8
0
 62
0
 10
-7.08660254038
 20
-7.82078462586
 30
0.0
 11
-6.91339745962
 21
-7.72078462586
 31
0.0
  0
ARC
  8
0
 62
0
 10
-7.18660254038
 20
-7.6475795451
 30
0.0
 40
0.2
 50
-150.0
 51
-60.0
  0
ARC
  8
0
 62
0
 10
-7.5
 20
-6.90475922207
 30
0.0
 40
0.380179740287
 50
-0.0
 51
-180.0
  0
ARC
  8
0
 62
0
 10
-7.5
 20
-6.90475922207
 30
0.0
 40
0.41596262339
 50
23.2402379741
 51
96.7597620259
  0
ARC
  8
0
 62
0
 10
-7.5
 20
-6.90475922207
 30
0.0
 40
0.41596262339
 50
143.240237974
 51
-180.0
  0
LINE
  8
0
 62
0
 10
-8.89259313841
 20
-2.8
 30
0.0
 11
-8.89259313841
 21
-4.4
 31
0.0
  0
LINE
  8
0
 62
0
 10
-8.89259313841
 20
-40.2
 30
0.0
 11
-8.89259313841
 21
-41.8
 31
0.0
  0
LINE
  8
0
 62
0
 10
-8.85
 20
-7.20475922207
 30
0.0
 11
-8.88403737661
 21
-7.15369667501
 31
0.0
  0
LINE
  8
0
 62
0
 10
-8.88403737661
 20
-6.65582176913
 30
0.0
 11
-8.88403737661
 21
-7.15369667501
 31
0.0
  0
LINE
  8
0
 62
0
 10
-8.88403737661
 20
-6.65582176913
 30
0.0
 11
-8.85
 21
-6.60475922207
 31
0.0
  0
LINE
  8
0
 62
0
 10
-8.85
 20
-0.7
 30
0.0
 11
-8.8988741818
 21
-0.651125818201
 31
0.0
  0
LINE
  8
0
 62
0
 10
-8.8988741818
 20
-0.651125818201
 30
0.0
 11
-8.8988741818
 21
-49.1162852249
 31
0.0
  0
ARC
  8
0
 62
0
 10
7.5
 20
-6.90475922207
 30
0.0
 40
0.380179740287
 50
-180.0
 51
-0.0
  0
ARC
  8
0
 62
0
 10
7.5
 20
-6.90475922207
 30
0.0
 40
0.41596262339
 50
-156.759762026
 51
-83.2402379741
  0
ARC
  8
0
 62
0
 10
7.5
 20
-6.90475922207
 30
0.0
 40
0.41596262339
 50
-36.7597620259
 51
-0.0
  0
LINE
  8
0
 62
0
 10
8.89259131548
 20
-4.4
 30
0.0
 11
8.89259131548
 21
-2.8
 31
0.0
  0
LINE
  8
0
 62
0
 10
8.89259131548
 20
-41.8
 30
0.0
 11
8.89259131548
 21
-40.2
 31
0.0
  0
LINE
  8
0
 62
0
 10
8.88403737661
 20
-6.65582176913
 30
0.0
 11
8.85
 21
-6.60475922207
 31
0.0
  0
LINE
  8
0
 62
0
 10
8.88403737661
 20
-6.65582176913
 30
0.0
 11
8.88403737661
 21
-7.15369667501
 31
0.0
  0
LINE
  8
0
 62
0
 10
8.85
 20
-7.20475922207
 30
0.0
 11
8.88403737661
 21
-7.15369667501
 31
0.0
  0
LINE
  8
0
 62
0
 10
8.8988741818
 20
-0.651125818201
 30
0.0
 11
8.8988741818
 21
-49.1162852249
 31
0.0
  0
LINE
  8
0
 62
0
 10
8.85
 20
-0.7
 30
0.0
 11
8.8988741818
 21
-0.651125818201
 31
0.0
  0
LINE
  8
0
 62
0
 10
-3.0
 20
-47.3
 30
0.0
 11
-3.0
 21
-44.6
 31
0.0
  0
LINE
  8
0
 62
0
 10
-2.6
 20
-44.2
 30
0.0
 11
2.6
 21
-44.2
 31
0.0
  0
LINE
  8
0
 62
0
 10
3.0
 20
-44.6
 30
0.0
 11
3.0
 21
-47.3
 31
0.0
  0
LINE
  8
0
 62
0
 10
2.6
 20
-47.7
 30
0.0
 11
-2.6
 21
-47.7
 31
0.0
  0
LINE
  8
0
 62
0
 10
3.85199857145
 20
-48.1520594934
 30
0.0
 11
3.85199857145
 21
-43.7479405066
 31
0.0
  0
LINE
  8
0
 62
0
 10
-3.45205949338
 20
-48.5519985714
 30
0.0
 11
3.45205949338
 21
-48.5519985714
 31
0.0
  0
LINE
  8
0
 62
0
 10
-3.85199857145
 20
-43.7479405066
 30
0.0
 11
-3.85199857145
 21
-48.1520594934
 31
0.0
  0
LINE
  8
0
 62
0
 10
3.45205949338
 20
-43.3480014286
 30
0.0
 11
-3.45205949338
 21
-43.3480014286
 31
0.0
  0
ARC
  8
0
 62
0
 10
-2.6
 20
-44.6
 30
0.0
 40
0.4
 50
90.0
 51
-180.0
  0
ARC
  8
0
 62
0
 10
-2.6
 20
-47.3
 30
0.0
 40
0.4
 50
180.0
 51
-90.0
  0
ARC
  8
0
 62
0
 10
2.6
 20
-47.3
 30
0.0
 40
0.4
 50
-90.0
 51
0.0
  0
ARC
  8
0
 62
0
 10
2.6
 20
-44.6
 30
0.0
 40
0.4
 50
-0.0
 51
90.0
  0
LINE
  8
0
 62
0
 10
-8.58646189095
 20
2.0
 30
0.0
 11
-8.19997693982
 21
2.0
 31
0.0
  0
LINE
  8
0
 62
0
 10
-8.58646189095
 20
2.0
 30
0.0
 11
-8.70066520592
 21
1.49426788484
 31
0.0
  0
LINE
  8
0
 62
0
 10
-8.70066520592
 20
1.49426788484
 30
0.0
 11
-8.70066520592
 21
0.0
 31
0.0
  0
LINE
  8
0
 62
0
 10
-9.9
 20
-0.199725906951
 30
0.0
 11
-9.9
 21
-49.5999519425
 31
0.0
  0
LINE
  8
0
 62
0
 10
8.898627654
 20
-50.6
 30
0.0
 11
-8.898627654
 21
-50.6
 31
0.0
  0
LINE
  8
0
 62
0
 10
9.9
 20
-0.199725906951
 30
0.0
 11
9.9
 21
-49.6000325223
 31
0.0
  0
LINE
  8
0
 62
0
 10
8.70066520592
 20
1.49426788484
 30
0.0
 11
8.70066520592
 21
0.0
 31
0.0
  0
LINE
  8
0
 62
0
 10
8.70066520592
 20
1.49426788484
 30
0.0
 11
8.58646189095
 21
2.0
 31
0.0
  0
LINE
  8
0
 62
0
 10
8.19997693982
 20
2.0
 30
0.0
 11
8.58646189095
 21
2.0
 31
0.0
  0
LINE
  8
0
 62
0
 10
8.19997693982
 20
2.0
 30
0.0
 11
8.19997693982
 21
0.0
 31
0.0
  0
LINE
  8
0
 62
0
 10
6.225
 20
-0.651125818201
 30
0.0
 11
6.225
 21
0.0
 31
0.0
  0
LINE
  8
0
 62
0
 10
6.225
 20
-0.651125818201
 30
0.0
 11
8.8988741818
 21
-0.651125818201
 31
0.0
  0
LINE
  8
0
 62
0
 10
-8.8988741818
 20
-0.651125818201
 30
0.0
 11
-6.225
 21
-0.651125818201
 31
0.0
  0
LINE
  8
0
 62
0
 10
-6.225
 20
-0.651125818201
 30
0.0
 11
-6.225
 21
0.0
 31
0.0
  0
LINE
  8
0
 62
0
 10
-8.19997693982
 20
2.0
 30
0.0
 11
-8.19997693982
 21
0.0
 31
0.0
  0
LINE
  8
0
 62
0
 10
6.225
 20
-0.651125818201
 30
0.0
 11
6.14805243539
 21
-0.689587878341
 31
0.0
  0
LINE
  8
0
 62
0
 10
6.04811335269
 20
-0.691272467536
 30
0.0
 11
-6.04811335269
 21
-0.691272467536
 31
0.0
  0
LINE
  8
0
 62
0
 10
-6.14805243539
 20
-0.689587878341
 30
0.0
 11
-6.225
 21
-0.651125818201
 31
0.0
  0
LINE
  8
0
 62
0
 10
-7.8893117795
 20
1.87946210765
 30
0.0
 11
7.8893117795
 21
1.87946210765
 31
0.0
  0
LINE
  8
0
 62
0
 10
0.141883116883
 20
-25.4321158259
 30
0.0
 11
-0.141883116883
 21
-25.4321158259
 31
0.0
  0
LINE
  8
0
 62
0
 10
0.791558441558
 20
-24.1775703713
 30
0.0
 11
0.141883116883
 21
-25.4321158259
 31
0.0
  0
LINE
  8
0
 62
0
 10
0.525994318182
 20
-24.1775703713
 30
0.0
 11
0.791558441558
 21
-24.1775703713
 31
0.0
  0
LINE
  8
0
 62
0
 10
1.30104260698e-15
 20
-25.1931547869
 30
0.0
 11
0.525994318182
 21
-24.1775703713
 31
0.0
  0
LINE
  8
0
 62
0
 10
-0.525994318182
 20
-24.1775703713
 30
0.0
 11
-2.22044604925e-16
 21
-25.1931547869
 31
0.0
  0
LINE
  8
0
 62
0
 10
-0.791558441558
 20
-24.1775703713
 30
0.0
 11
-0.525994318182
 21
-24.1775703713
 31
0.0
  0
LINE
  8
0
 62
0
 10
-0.141883116883
 20
-25.4321158259
 30
0.0
 11
-0.791558441558
 21
-24.1775703713
 31
0.0
  0
LINE
  8
0
 62
0
 10
-1.15
 20
-26.0295184233
 30
0.0
 11
-1.15
 21
-25.7905573843
 31
0.0
  0
LINE
  8
0
 62
0
 10
-0.224025974026
 20
-26.0295184233
 30
0.0
 11
-1.15
 21
-26.0295184233
 31
0.0
  0
LINE
  8
0
 62
0
 10
-0.224025974026
 20
-26.5149080337
 30
0.0
 11
-0.224025974026
 21
-26.0295184233
 31
0.0
  0
LINE
  8
0
 62
0
 10
1.15
 20
-25.7905573843
 30
0.0
 11
1.15
 21
-26.4990395272
 31
0.0
  0
LINE
  8
0
 62
0
 10
-1.15
 20
-25.7905573843
 30
0.0
 11
1.15
 21
-25.7905573843
 31
0.0
  0
LINE
  8
0
 62
0
 10
0.0448051948052
 20
-26.0295184233
 30
0.0
 11
0.0448051948052
 21
-26.5298430986
 31
0.0
  0
LINE
  8
0
 62
0
 10
0.881168831169
 20
-26.0295184233
 30
0.0
 11
0.0448051948052
 21
-26.0295184233
 31
0.0
  0
LINE
  8
0
 62
0
 10
0.881168831169
 20
-26.5251758908
 30
0.0
 11
0.881168831169
 21
-26.0295184233
 31
0.0
  0
LINE
  8
0
 62
0
 10
0.492857142857
 20
-29.1061417999
 30
0.0
 11
0.433116883117
 21
-28.867180761
 31
0.0
  0
LINE
  8
0
 62
0
 10
-0.343506493506
 20
-28.8970508908
 30
0.0
 11
-0.403246753247
 21
-29.1360119298
 31
0.0
  0
LINE
  8
0
 62
0
 10
-0.791558441558
 20
-30.6593885532
 30
0.0
 11
-0.141883116883
 21
-29.4048430986
 31
0.0
  0
LINE
  8
0
 62
0
 10
-0.525994318182
 20
-30.6593885532
 30
0.0
 11
-0.791558441558
 21
-30.6593885532
 31
0.0
  0
LINE
  8
0
 62
0
 10
2.16840434497e-15
 20
-29.6438041376
 30
0.0
 11
-0.525994318182
 21
-30.6593885532
 31
0.0
  0
LINE
  8
0
 62
0
 10
0.525994318182
 20
-30.6593885532
 30
0.0
 11
3.77475828373e-15
 21
-29.6438041376
 31
0.0
  0
LINE
  8
0
 62
0
 10
0.791558441558
 20
-30.6593885532
 30
0.0
 11
0.525994318182
 21
-30.6593885532
 31
0.0
  0
LINE
  8
0
 62
0
 10
0.141883116883
 20
-29.4048430986
 30
0.0
 11
0.791558441558
 21
-30.6593885532
 31
0.0
  0
LINE
  8
0
 62
0
 10
-0.141883116883
 20
-29.4048430986
 30
0.0
 11
0.141883116883
 21
-29.4048430986
 31
0.0
  0
LINE
  8
0
 62
0
 10
-8.38910478343
 20
-40.0
 30
0.0
 11
-8.88910478343
 21
-40.0
 31
0.0
  0
LINE
  8
0
 62
0
 10
-8.38910478343
 20
-42.0
 30
0.0
 11
-8.88910478343
 21
-42.0
 31
0.0
  0
LINE
  8
0
 62
0
 10
-8.38910478343
 20
-42.0
 30
0.0
 11
-8.38387225096
 21
-42.0
 31
0.0
  0
LINE
  8
0
 62
0
 10
-8.38038389598
 20
-41.8
 30
0.0
 11
-8.38038389598
 21
-40.2
 31
0.0
  0
LINE
  8
0
 62
0
 10
-8.38387225096
 20
-40.0
 30
0.0
 11
-8.38910478343
 21
-40.0
 31
0.0
  0
LINE
  8
0
 62
0
 10
-8.38910478343
 20
-2.6
 30
0.0
 11
-8.88910478343
 21
-2.6
 31
0.0
  0
LINE
  8
0
 62
0
 10
-8.38910478343
 20
-4.6
 30
0.0
 11
-8.88910478343
 21
-4.6
 31
0.0
  0
LINE
  8
0
 62
0
 10
-8.38387225096
 20
-4.6
 30
0.0
 11
-8.38916305201
 21
-4.6
 31
0.0
  0
LINE
  8
0
 62
0
 10
-8.38910478343
 20
-4.6
 30
0.0
 11
-8.38387225096
 21
-4.6
 31
0.0
  0
LINE
  8
0
 62
0
 10
-8.38038389598
 20
-4.4
 30
0.0
 11
-8.38038389598
 21
-2.8
 31
0.0
  0
LINE
  8
0
 62
0
 10
-8.38387225096
 20
-2.6
 30
0.0
 11
-8.38910478343
 21
-2.6
 31
0.0
  0
LINE
  8
0
 62
0
 10
8.38910508551
 20
-42.0
 30
0.0
 11
8.88910508551
 21
-42.0
 31
0.0
  0
LINE
  8
0
 62
0
 10
8.38387574056
 20
-42.0
 30
0.0
 11
8.38910508551
 21
-42.0
 31
0.0
  0
LINE
  8
0
 62
0
 10
8.38910508551
 20
-40.0
 30
0.0
 11
8.88910508551
 21
-40.0
 31
0.0
  0
LINE
  8
0
 62
0
 10
8.38387574056
 20
-40.0
 30
0.0
 11
8.38916122907
 21
-40.0
 31
0.0
  0
LINE
  8
0
 62
0
 10
8.38910508551
 20
-40.0
 30
0.0
 11
8.38387574056
 21
-40.0
 31
0.0
  0
LINE
  8
0
 62
0
 10
8.38038951059
 20
-40.2
 30
0.0
 11
8.38038951059
 21
-41.8
 31
0.0
  0
LINE
  8
0
 62
0
 10
8.38910508551
 20
-4.6
 30
0.0
 11
8.88910508551
 21
-4.6
 31
0.0
  0
LINE
  8
0
 62
0
 10
8.38387574056
 20
-4.6
 30
0.0
 11
8.38910508551
 21
-4.6
 31
0.0
  0
LINE
  8
0
 62
0
 10
8.38910508551
 20
-2.6
 30
0.0
 11
8.88910508551
 21
-2.6
 31
0.0
  0
LINE
  8
0
 62
0
 10
8.38910508551
 20
-2.6
 30
0.0
 11
8.38387574056
 21
-2.6
 31
0.0
  0
LINE
  8
0
 62
0
 10
8.38038951059
 20
-2.8
 30
0.0
 11
8.38038951059
 21
-4.4
 31
0.0
  0
LINE
  8
0
 62
0
 10
8.88403737661
 20
-6.65582176913
 30
0.0
 11
7.83324922893
 21
-6.65582176913
 31
0.0
  0
LINE
  8
0
 62
0
 10
7.83324922893
 20
-7.15369667501
 30
0.0
 11
8.88403737661
 21
-7.15369667501
 31
0.0
  0
LINE
  8
0
 62
0
 10
7.11778922734
 20
-7.06889279365
 30
0.0
 11
6.8844138418
 21
-7.47311081863
 31
0.0
  0
LINE
  8
0
 62
0
 10
7.3155861582
 20
-7.72204827157
 30
0.0
 11
7.54896154374
 21
-7.31783024659
 31
0.0
  0
ARC
  8
0
 62
0
 10
7.01339745962
 20
-7.5475795451
 30
0.0
 40
0.14893745294
 50
150.0
 51
-180.0
  0
LINE
  8
0
 62
0
 10
6.93892873315
 20
-7.67656316292
 30
0.0
 11
7.11213381391
 21
-7.77656316292
 31
0.0
  0
ARC
  8
0
 62
0
 10
7.18660254038
 20
-7.6475795451
 30
0.0
 40
0.14893745294
 50
-120.0
 51
-30.0
  0
LINE
  8
0
 62
0
 10
7.54896154374
 20
-6.49168819756
 30
0.0
 11
7.3155861582
 21
-6.08747017257
 31
0.0
  0
LINE
  8
0
 62
0
 10
6.8844138418
 20
-6.33640762551
 30
0.0
 11
7.11778922734
 21
-6.7406256505
 31
0.0
  0
ARC
  8
0
 62
0
 10
7.18660254038
 20
-6.16193889904
 30
0.0
 40
0.14893745294
 50
30.0
 51
120.0
  0
LINE
  8
0
 62
0
 10
7.11213381391
 20
-6.03295528122
 30
0.0
 11
6.93892873315
 21
-6.13295528122
 31
0.0
  0
ARC
  8
0
 62
0
 10
7.01339745962
 20
-6.26193889904
 30
0.0
 40
0.14893745294
 50
120.0
 51
-150.0
  0
LINE
  8
0
 62
0
 10
-8.88403737661
 20
-7.15369667501
 30
0.0
 11
-7.83324922893
 21
-7.15369667501
 31
0.0
  0
LINE
  8
0
 62
0
 10
-7.83324922893
 20
-6.65582176913
 30
0.0
 11
-8.88403737661
 21
-6.65582176913
 31
0.0
  0
LINE
  8
0
 62
0
 10
-7.11778922734
 20
-6.7406256505
 30
0.0
 11
-6.8844138418
 21
-6.33640762551
 31
0.0
  0
LINE
  8
0
 62
0
 10
-7.3155861582
 20
-6.08747017257
 30
0.0
 11
-7.54896154374
 21
-6.49168819756
 31
0.0
  0
ARC
  8
0
 62
0
 10
-7.01339745962
 20
-6.26193889904
 30
0.0
 40
0.14893745294
 50
-30.0
 51
60.0
  0
LINE
  8
0
 62
0
 10
-6.93892873315
 20
-6.13295528122
 30
0.0
 11
-7.11213381391
 21
-6.03295528122
 31
0.0
  0
ARC
  8
0
 62
0
 10
-7.18660254038
 20
-6.16193889904
 30
0.0
 40
0.14893745294
 50
60.0
 51
150.0
  0
LINE
  8
0
 62
0
 10
-7.54896154374
 20
-7.31783024659
 30
0.0
 11
-7.3155861582
 21
-7.72204827157
 31
0.0
  0
LINE
  8
0
 62
0
 10
-6.8844138418
 20
-7.47311081863
 30
0.0
 11
-7.11778922734
 21
-7.06889279364
 31
0.0
  0
ARC
  8
0
 62
0
 10
-7.18660254038
 20
-7.6475795451
 30
0.0
 40
0.14893745294
 50
-150.0
 51
-60.0
  0
LINE
  8
0
 62
0
 10
-7.11213381391
 20
-7.77656316292
 30
0.0
 11
-6.93892873315
 21
-7.67656316292
 31
0.0
  0
ARC
  8
0
 62
0
 10
-7.01339745962
 20
-7.5475795451
 30
0.0
 40
0.14893745294
 50
-60.0
 51
-0.0
  0
ARC
  8
0
 62
0
 10
1.1
 20
-39.7547592221
 30
0.0
 40
0.14893745294
 50
-0.0
 51
90.0
  0
LINE
  8
0
 62
0
 10
1.1
 20
-39.6058217691
 30
0.0
 11
0.9
 21
-39.6058217691
 31
0.0
  0
ARC
  8
0
 62
0
 10
0.9
 20
-39.7547592221
 30
0.0
 40
0.14893745294
 50
90.0
 51
-180.0
  0
LINE
  8
0
 62
0
 10
0.75106254706
 20
-39.7547592221
 30
0.0
 11
0.75106254706
 21
-40.2215099931
 31
0.0
  0
LINE
  8
0
 62
0
 10
1.24893745294
 20
-40.2215099931
 30
0.0
 11
1.24893745294
 21
-39.7547592221
 31
0.0
  0
ARC
  8
0
 62
0
 10
1.64282032303
 20
-41.0413617625
 30
0.0
 40
0.14893745294
 50
-120.0
 51
-30.0
  0
LINE
  8
0
 62
0
 10
1.77180394085
 20
-41.1158304889
 30
0.0
 11
1.87180394085
 21
-40.9426254082
 31
0.0
  0
ARC
  8
0
 62
0
 10
1.74282032303
 20
-40.8681566817
 30
0.0
 40
0.14893745294
 50
-30.0
 51
0.0
  0
LINE
  8
0
 62
0
 10
1.8172890495
 20
-40.7391730639
 30
0.0
 11
1.41307102451
 21
-40.5057976783
 31
0.0
  0
LINE
  8
0
 62
0
 10
1.16413357157
 20
-40.9369699947
 30
0.0
 11
1.56835159656
 21
-41.1703453803
 31
0.0
  0
ARC
  8
0
 62
0
 10
0.257179676972
 20
-40.8681566817
 30
0.0
 40
0.14893745294
 50
120.0
 51
-180.0
  0
LINE
  8
0
 62
0
 10
0.128196059151
 20
-40.9426254082
 30
0.0
 11
0.228196059151
 21
-41.1158304889
 31
0.0
  0
ARC
  8
0
 62
0
 10
0.357179676972
 20
-41.0413617625
 30
0.0
 40
0.14893745294
 50
-150.0
 51
-60.0
  0
LINE
  8
0
 62
0
 10
0.431648403442
 20
-41.1703453803
 30
0.0
 11
0.835866428427
 21
-40.9369699947
 31
0.0
  0
LINE
  8
0
 62
0
 10
0.586928975487
 20
-40.5057976783
 30
0.0
 11
0.182710950502
 21
-40.7391730639
 31
0.0
  0
LINE
  8
0
 62
0
 10
-8.19997693982
 20
2.0
 30
0.0
 11
-8.08903685151
 21
1.88938065527
 31
0.0
  0
LINE
  8
0
 62
0
 10
8.08903685151
 20
1.88938065527
 30
0.0
 11
8.19997693982
 21
2.0
 31
0.0
  0
LINE
  8
0
 62
0
 10
0.108242224032
 20
-40.8681566817
 30
0.0
 11
0.066994386483
 21
-40.8681566817
 31
0.0
  0
LINE
  8
0
 62
0
 10
0.128196059151
 20
-40.9426254082
 30
0.0
 11
0.0928084004823
 21
-40.9630564824
 31
0.0
  0
LINE
  8
0
 62
0
 10
1.89175777597
 20
-40.8681566817
 30
0.0
 11
1.93300561352
 21
-40.8681566817
 31
0.0
  0
LINE
  8
0
 62
0
 10
1.8172890495
 20
-40.7391730639
 30
0.0
 11
1.83823979138
 21
-40.7028853145
 31
0.0
  0
LINE
  8
0
 62
0
 10
-6.86446000668
 20
-7.5475795451
 30
0.0
 11
-6.81339745962
 21
-7.5475795451
 31
0.0
  0
LINE
  8
0
 62
0
 10
-6.8844138418
 20
-7.47311081863
 30
0.0
 11
-6.84019237886
 21
-7.4475795451
 31
0.0
  0
LINE
  8
0
 62
0
 10
6.86446000668
 20
-7.5475795451
 30
0.0
 11
6.81339745962
 21
-7.5475795451
 31
0.0
  0
LINE
  8
0
 62
0
 10
6.93892873315
 20
-7.67656316292
 30
0.0
 11
6.91339745962
 21
-7.72078462586
 31
0.0
  0
LINE
  8
0
 62
0
 10
7.88017974029
 20
-6.90475922207
 30
0.0
 11
7.91596262339
 21
-6.90475922207
 31
0.0
  0
LINE
  8
0
 62
0
 10
7.11982025971
 20
-6.90475922207
 30
0.0
 11
7.05
 21
-6.90475922207
 31
0.0
  0
LINE
  8
0
 62
0
 10
-7.88017974029
 20
-6.90475922207
 30
0.0
 11
-7.91596262339
 21
-6.90475922207
 31
0.0
  0
LINE
  8
0
 62
0
 10
-7.11982025971
 20
-6.90475922207
 30
0.0
 11
-7.05
 21
-6.90475922207
 31
0.0
  0
LINE
  8
0
 62
0
 10
1.38017974029
 20
-40.5547592221
 30
0.0
 11
1.41596262339
 21
-40.5547592221
 31
0.0
  0
LINE
  8
0
 62
0
 10
0.619820259713
 20
-40.5547592221
 30
0.0
 11
0.58403737661
 21
-40.5547592221
 31
0.0
  0
LINE
  8
0
 62
0
 10
-8.85
 20
-35.961818303
 30
0.0
 11
8.85
 21
-35.961818303
 31
0.0
  0
LINE
  8
0
 62
0
 10
3.85199857145
 20
-48.1520594934
 30
0.0
 11
3.85826115062
 21
-48.1583220726
 31
0.0
  0
LINE
  8
0
 62
0
 10
3.88351052912
 20
-43.7164285489
 30
0.0
 11
3.85199857145
 21
-43.7479405066
 31
0.0
  0
LINE
  8
0
 62
0
 10
-3.45205949338
 20
-48.5519985714
 30
0.0
 11
-3.45544185709
 21
-48.5553809352
 31
0.0
  0
LINE
  8
0
 62
0
 10
3.45544185709
 20
-48.5553809352
 30
0.0
 11
3.45205949338
 21
-48.5519985714
 31
0.0
  0
LINE
  8
0
 62
0
 10
-3.85826115062
 20
-48.1583220726
 30
0.0
 11
-3.85199857145
 21
-48.1520594934
 31
0.0
  0
LINE
  8
0
 62
0
 10
-3.85199857145
 20
-43.7479405066
 30
0.0
 11
-3.88351052912
 21
-43.7164285489
 31
0.0
  0
LINE
  8
0
 62
0
 10
3.45205949338
 20
-43.3480014286
 30
0.0
 11
3.48525772523
 21
-43.3148031967
 31
0.0
  0
LINE
  8
0
 62
0
 10
-3.48525772523
 20
-43.3148031967
 30
0.0
 11
-3.45205949338
 21
-43.3480014286
 31
0.0
  0
LINE
  8
0
 62
0
 10
-6.14805243539
 20
-0.689587878341
 30
0.0
 11
-6.14805243539
 21
-0.115480014935
 31
0.0
  0
LINE
  8
0
 62
0
 10
6.04811335269
 20
-0.691272467536
 30
0.0
 11
6.04811335269
 21
-0.120537892351
 31
0.0
  0
LINE
  8
0
 62
0
 10
7.8893117795
 20
1.87946210765
 30
0.0
 11
7.8893117795
 21
0.0
 31
0.0
  0
LINE
  8
0
 62
0
 10
-7.8893117795
 20
1.87946210765
 30
0.0
 11
-7.8893117795
 21
0.0
 31
0.0
  0
LINE
  8
0
 62
0
 10
-6.04811335269
 20
-0.120537892351
 30
0.0
 11
-6.04811335269
 21
-0.691272467536
 31
0.0
  0
LINE
  8
0
 62
0
 10
6.14805243539
 20
-0.115480014935
 30
0.0
 11
6.14805243539
 21
-0.689587878341
 31
0.0
  0
LINE
  8
0
 62
0
 10
-8.58913259104
 20
-40.2
 30
0.0
 11
-8.89259313841
 21
-40.2
 31
0.0
  0
LINE
  8
0
 62
0
 10
-8.58913259104
 20
-41.8
 30
0.0
 11
-8.89259313841
 21
-41.8
 31
0.0
  0
LINE
  8
0
 62
0
 10
-8.58913259104
 20
-41.8
 30
0.0
 11
-8.58913259104
 21
-40.2
 31
0.0
  0
LINE
  8
0
 62
0
 10
-8.38916305201
 20
-40.0000279034
 30
0.0
 11
-8.38916305201
 21
-41.9999720966
 31
0.0
  0
LINE
  8
0
 62
0
 10
-8.58913259104
 20
-2.8
 30
0.0
 11
-8.89259313841
 21
-2.8
 31
0.0
  0
LINE
  8
0
 62
0
 10
-8.58913259104
 20
-4.4
 30
0.0
 11
-8.89259313841
 21
-4.4
 31
0.0
  0
LINE
  8
0
 62
0
 10
-8.58913259104
 20
-4.4
 30
0.0
 11
-8.58913259104
 21
-2.8
 31
0.0
  0
LINE
  8
0
 62
0
 10
-8.38916305201
 20
-2.60002790344
 30
0.0
 11
-8.38916305201
 21
-4.59997209656
 31
0.0
  0
LINE
  8
0
 62
0
 10
8.5891307681
 20
-41.8
 30
0.0
 11
8.89259131548
 21
-41.8
 31
0.0
  0
LINE
  8
0
 62
0
 10
8.5891307681
 20
-40.2
 30
0.0
 11
8.89259131548
 21
-40.2
 31
0.0
  0
LINE
  8
0
 62
0
 10
8.5891307681
 20
-40.2
 30
0.0
 11
8.5891307681
 21
-41.8
 31
0.0
  0
LINE
  8
0
 62
0
 10
8.38916122907
 20
-41.9999740632
 30
0.0
 11
8.38916122907
 21
-40.0000259368
 31
0.0
  0
LINE
  8
0
 62
0
 10
8.5891307681
 20
-4.4
 30
0.0
 11
8.89259131548
 21
-4.4
 31
0.0
  0
LINE
  8
0
 62
0
 10
8.5891307681
 20
-2.8
 30
0.0
 11
8.89259131548
 21
-2.8
 31
0.0
  0
LINE
  8
0
 62
0
 10
8.5891307681
 20
-2.8
 30
0.0
 11
8.5891307681
 21
-4.4
 31
0.0
  0
LINE
  8
0
 62
0
 10
8.38916122907
 20
-4.59997406322
 30
0.0
 11
8.38916122907
 21
-2.60002593678
 31
0.0
  0
LINE
  8
0
 62
0
 10
6.8844138418
 20
-7.47311081863
 30
0.0
 11
6.84019237886
 21
-7.4475795451
 31
0.0
  0
LINE
  8
0
 62
0
 10
7.3155861582
 20
-7.72204827157
 30
0.0
 11
7.35980762114
 21
-7.7475795451
 31
0.0
  0
LINE
  8
0
 62
0
 10
7.11213381391
 20
-7.77656316292
 30
0.0
 11
7.08660254038
 21
-7.82078462586
 31
0.0
  0
LINE
  8
0
 62
0
 10
7.3155861582
 20
-6.08747017257
 30
0.0
 11
7.35980762114
 21
-6.06193889904
 31
0.0
  0
LINE
  8
0
 62
0
 10
6.8844138418
 20
-6.33640762551
 30
0.0
 11
6.84019237886
 21
-6.36193889904
 31
0.0
  0
LINE
  8
0
 62
0
 10
7.11213381391
 20
-6.03295528122
 30
0.0
 11
7.08660254038
 21
-5.98873381829
 31
0.0
  0
LINE
  8
0
 62
0
 10
6.93892873315
 20
-6.13295528122
 30
0.0
 11
6.91339745962
 21
-6.08873381829
 31
0.0
  0
LINE
  8
0
 62
0
 10
-6.8844138418
 20
-6.33640762551
 30
0.0
 11
-6.84019237886
 21
-6.36193889904
 31
0.0
  0
LINE
  8
0
 62
0
 10
-7.3155861582
 20
-6.08747017257
 30
0.0
 11
-7.35980762114
 21
-6.06193889904
 31
0.0
  0
LINE
  8
0
 62
0
 10
-6.93892873315
 20
-6.13295528122
 30
0.0
 11
-6.91339745962
 21
-6.08873381829
 31
0.0
  0
LINE
  8
0
 62
0
 10
-7.11213381391
 20
-6.03295528122
 30
0.0
 11
-7.08660254038
 21
-5.98873381829
 31
0.0
  0
LINE
  8
0
 62
0
 10
-7.3155861582
 20
-7.72204827157
 30
0.0
 11
-7.35980762114
 21
-7.7475795451
 31
0.0
  0
LINE
  8
0
 62
0
 10
-7.11213381391
 20
-7.77656316292
 30
0.0
 11
-7.08660254038
 21
-7.82078462586
 31
0.0
  0
LINE
  8
0
 62
0
 10
-6.93892873315
 20
-7.67656316292
 30
0.0
 11
-6.91339745962
 21
-7.72078462586
 31
0.0
  0
LINE
  8
0
 62
0
 10
1.24893745294
 20
-39.7547592221
 30
0.0
 11
1.29414815959
 21
-39.7547592221
 31
0.0
  0
LINE
  8
0
 62
0
 10
1.1
 20
-39.6058217691
 30
0.0
 11
1.1
 21
-39.5600237685
 31
0.0
  0
LINE
  8
0
 62
0
 10
0.9
 20
-39.6058217691
 30
0.0
 11
0.9
 21
-39.5600237685
 31
0.0
  0
LINE
  8
0
 62
0
 10
0.75106254706
 20
-39.7547592221
 30
0.0
 11
0.705851840409
 21
-39.7547592221
 31
0.0
  0
LINE
  8
0
 62
0
 10
1.56835159656
 20
-41.1703453803
 30
0.0
 11
1.54842899669
 21
-41.2048523355
 31
0.0
  0
LINE
  8
0
 62
0
 10
1.77180394085
 20
-41.1158304889
 30
0.0
 11
1.80656638977
 21
-41.1359005982
 31
0.0
  0
LINE
  8
0
 62
0
 10
1.87180394085
 20
-40.9426254082
 30
0.0
 11
1.90719159952
 21
-40.9630564824
 31
0.0
  0
LINE
  8
0
 62
0
 10
0.182710950502
 20
-40.7391730639
 30
0.0
 11
0.161760208617
 21
-40.7028853145
 31
0.0
  0
LINE
  8
0
 62
0
 10
0.228196059151
 20
-41.1158304889
 30
0.0
 11
0.193433610233
 21
-41.1359005982
 31
0.0
  0
LINE
  8
0
 62
0
 10
0.431648403442
 20
-41.1703453803
 30
0.0
 11
0.451571003311
 21
-41.2048523355
 31
0.0
  0
LINE
  8
0
 62
0
 10
-8.08903685151
 20
1.88938065527
 30
0.0
 11
-8.08903685151
 21
0.0
 31
0.0
  0
LINE
  8
0
 62
0
 10
8.08903685151
 20
1.88938065527
 30
0.0
 11
8.08903685151
 21
0.0
 31
0.0
  0
ENDBLK
  0
ENDSEC
  0
SECTION
  2
ENTITIES
  0
INSERT
  2
PART__FEATURE045
  8
0
 62
0
 10
0.0
 20
0.0
 30
0.0
  0
ENDSEC
  0
EOF
