  0
SECTION
  2
HEADER
  9
$ACADVER
  1
AC1009
  9
$INSBASE
 10
0.0
 20
0.0
 30
0.0
  9
$EXTMIN
 10
0.0
 20
0.0
 30
0.0
  9
$EXTMAX
 10
0.0
 20
0.0
 30
0.0
  0
ENDSEC
  0
SECTION
  2
TABLES
  0
TABLE
  2
VPORT
 70
0
  0
ENDTAB
  0
TABLE
  2
LTYPE
 70
1
  0
LTYPE
  2
CONTINUOUS
 70
0
  3
Solid line
 72
65
 73
0
 40
0.0
  0
ENDTAB
  0
TABLE
  2
LAYER
 70
1
  0
LAYER
  2
0
 70
64
 62
7
  6
continuous
  0
ENDTAB
  0
TABLE
  2
STYLE
 70
1
  0
STYLE
  2
STANDARD
 70
0
 40
0
 41
1.0
 50
0.0
 71
0
 42
1
 3
ARIAL.TTF
 4

  0
ENDTAB
  0
TABLE
  2
VIEW
 70
0
  0
ENDTAB
  0
ENDSEC
  0
SECTION
  2
BLOCKS
  0
BLOCK
  8
0
  2
PART__FEATURE
 70
0
 10
0.0
 20
0.0
 30
0.0
  3
PART__FEATURE
  0
POLYLINE
  8
0
 62
0
 70
0
 66
1
 10
0.0
 20
0.0
 30
0.0
  0
VERTEX
  8
0
 10
1.24566161524
 20
17.4265075341
 30
0.0
  0
VERTEX
  8
0
 10
1.29566132689
 20
17.4263604757
 30
0.0
  0
VERTEX
  8
0
 10
1.34565930845
 20
17.4259193056
 30
0.0
  0
VERTEX
  8
0
 10
1.3956538299
 20
17.425184039
 30
0.0
  0
VERTEX
  8
0
 10
1.44564316131
 20
17.4241547015
 30
0.0
  0
VERTEX
  8
0
 10
1.49562557297
 20
17.4228313285
 30
0.0
  0
VERTEX
  8
0
 10
1.54559933539
 20
17.421213966
 30
0.0
  0
VERTEX
  8
0
 10
1.59556271936
 20
17.4193026698
 30
0.0
  0
VERTEX
  8
0
 10
1.64551399607
 20
17.4170975061
 30
0.0
  0
VERTEX
  8
0
 10
1.69545143709
 20
17.4145985513
 30
0.0
  0
VERTEX
  8
0
 10
1.74537331449
 20
17.4118058917
 30
0.0
  0
VERTEX
  8
0
 10
1.79527790089
 20
17.408719624
 30
0.0
  0
VERTEX
  8
0
 10
1.84516346947
 20
17.405339855
 30
0.0
  0
VERTEX
  8
0
 10
1.8950282941
 20
17.4016667017
 30
0.0
  0
VERTEX
  8
0
 10
1.94487064937
 20
17.3977002911
 30
0.0
  0
VERTEX
  8
0
 10
1.99468881062
 20
17.3934407605
 30
0.0
  0
VERTEX
  8
0
 10
2.04448105405
 20
17.3888882573
 30
0.0
  0
VERTEX
  8
0
 10
2.09424565674
 20
17.384042939
 30
0.0
  0
VERTEX
  8
0
 10
2.14398089675
 20
17.3789049732
 30
0.0
  0
VERTEX
  8
0
 10
2.19368505314
 20
17.3734745378
 30
0.0
  0
VERTEX
  8
0
 10
2.24335640605
 20
17.3677518206
 30
0.0
  0
VERTEX
  8
0
 10
2.29299323674
 20
17.3617370197
 30
0.0
  0
VERTEX
  8
0
 10
2.34259382769
 20
17.3554303432
 30
0.0
  0
VERTEX
  8
0
 10
2.39215646262
 20
17.3488320093
 30
0.0
  0
VERTEX
  8
0
 10
2.44167942656
 20
17.3419422463
 30
0.0
  0
VERTEX
  8
0
 10
2.49116100592
 20
17.3347612926
 30
0.0
  0
VERTEX
  8
0
 10
2.54059948853
 20
17.3272893968
 30
0.0
  0
VERTEX
  8
0
 10
2.58999316374
 20
17.3195268173
 30
0.0
  0
VERTEX
  8
0
 10
2.63934032242
 20
17.3114738227
 30
0.0
  0
VERTEX
  8
0
 10
2.68863925707
 20
17.3031306917
 30
0.0
  0
VERTEX
  8
0
 10
2.73788826183
 20
17.2944977131
 30
0.0
  0
VERTEX
  8
0
 10
2.7870856326
 20
17.2855751854
 30
0.0
  0
VERTEX
  8
0
 10
2.83622966706
 20
17.2763634174
 30
0.0
  0
VERTEX
  8
0
 10
2.88531866472
 20
17.266862728
 30
0.0
  0
VERTEX
  8
0
 10
2.934350927
 20
17.2570734457
 30
0.0
  0
VERTEX
  8
0
 10
2.9833247573
 20
17.2469959095
 30
0.0
  0
VERTEX
  8
0
 10
3.03223846102
 20
17.2366304678
 30
0.0
  0
VERTEX
  8
0
 10
3.08109034564
 20
17.2259774796
 30
0.0
  0
VERTEX
  8
0
 10
3.12987872081
 20
17.2150373132
 30
0.0
  0
VERTEX
  8
0
 10
3.17860189834
 20
17.2038103473
 30
0.0
  0
VERTEX
  8
0
 10
3.22725819231
 20
17.1922969704
 30
0.0
  0
VERTEX
  8
0
 10
3.27584591913
 20
17.1804975809
 30
0.0
  0
VERTEX
  8
0
 10
3.32436339756
 20
17.1684125869
 30
0.0
  0
VERTEX
  8
0
 10
3.3728089488
 20
17.1560424068
 30
0.0
  0
VERTEX
  8
0
 10
3.42118089654
 20
17.1433874685
 30
0.0
  0
VERTEX
  8
0
 10
3.46947756701
 20
17.1304482099
 30
0.0
  0
VERTEX
  8
0
 10
3.51769728905
 20
17.1172250788
 30
0.0
  0
VERTEX
  8
0
 10
3.56583839417
 20
17.1037185326
 30
0.0
  0
VERTEX
  8
0
 10
3.61389921659
 20
17.0899290388
 30
0.0
  0
VERTEX
  8
0
 10
3.6618780933
 20
17.0758570745
 30
0.0
  0
VERTEX
  8
0
 10
3.70977336415
 20
17.0615031265
 30
0.0
  0
VERTEX
  8
0
 10
3.75758337187
 20
17.0468676917
 30
0.0
  0
VERTEX
  8
0
 10
3.80530646212
 20
17.0319512763
 30
0.0
  0
VERTEX
  8
0
 10
3.85294098361
 20
17.0167543965
 30
0.0
  0
VERTEX
  8
0
 10
3.90048528807
 20
17.0012775783
 30
0.0
  0
VERTEX
  8
0
 10
3.9479377304
 20
16.985521357
 30
0.0
  0
VERTEX
  8
0
 10
3.99529666862
 20
16.9694862779
 30
0.0
  0
VERTEX
  8
0
 10
4.04256046404
 20
16.9531728958
 30
0.0
  0
VERTEX
  8
0
 10
4.08972748123
 20
16.9365817753
 30
0.0
  0
VERTEX
  8
0
 10
4.13679608813
 20
16.9197134904
 30
0.0
  0
VERTEX
  8
0
 10
4.18376465605
 20
16.9025686247
 30
0.0
  0
VERTEX
  8
0
 10
4.2306315598
 20
16.8851477716
 30
0.0
  0
VERTEX
  8
0
 10
4.2773951777
 20
16.8674515338
 30
0.0
  0
VERTEX
  8
0
 10
4.32405389162
 20
16.8494805236
 30
0.0
  0
VERTEX
  8
0
 10
4.37060608708
 20
16.8312353629
 30
0.0
  0
VERTEX
  8
0
 10
4.41705015329
 20
16.812716683
 30
0.0
  0
VERTEX
  8
0
 10
4.46338448319
 20
16.7939251247
 30
0.0
  0
VERTEX
  8
0
 10
4.50960747352
 20
16.7748613382
 30
0.0
  0
VERTEX
  8
0
 10
4.55571752487
 20
16.7555259831
 30
0.0
  0
VERTEX
  8
0
 10
4.60171304174
 20
16.7359197285
 30
0.0
  0
VERTEX
  8
0
 10
4.6475924326
 20
16.7160432529
 30
0.0
  0
VERTEX
  8
0
 10
4.69335410994
 20
16.6958972438
 30
0.0
  0
VERTEX
  8
0
 10
4.73899649029
 20
16.6754823986
 30
0.0
  0
VERTEX
  8
0
 10
4.78451799436
 20
16.6547994235
 30
0.0
  0
VERTEX
  8
0
 10
4.829917047
 20
16.6338490342
 30
0.0
  0
VERTEX
  8
0
 10
4.87519207733
 20
16.6126319557
 30
0.0
  0
VERTEX
  8
0
 10
4.92034151872
 20
16.5911489221
 30
0.0
  0
VERTEX
  8
0
 10
4.96536380893
 20
16.5694006768
 30
0.0
  0
VERTEX
  8
0
 10
5.01025739009
 20
16.5473879722
 30
0.0
  0
VERTEX
  8
0
 10
5.05502070879
 20
16.5251115701
 30
0.0
  0
VERTEX
  8
0
 10
5.09965221614
 20
16.5025722413
 30
0.0
  0
VERTEX
  8
0
 10
5.1441503678
 20
16.4797707657
 30
0.0
  0
VERTEX
  8
0
 10
5.18851362405
 20
16.4567079323
 30
0.0
  0
VERTEX
  8
0
 10
5.23274044982
 20
16.433384539
 30
0.0
  0
VERTEX
  8
0
 10
5.27682931479
 20
16.409801393
 30
0.0
  0
VERTEX
  8
0
 10
5.32077869338
 20
16.3859593102
 30
0.0
  0
VERTEX
  8
0
 10
5.36458706487
 20
16.3618591156
 30
0.0
  0
VERTEX
  8
0
 10
5.4082529134
 20
16.3375016432
 30
0.0
  0
VERTEX
  8
0
 10
5.45177472805
 20
16.3128877357
 30
0.0
  0
VERTEX
  8
0
 10
5.49515100287
 20
16.2880182448
 30
0.0
  0
VERTEX
  8
0
 10
5.53838023695
 20
16.2628940312
 30
0.0
  0
VERTEX
  8
0
 10
5.58146093449
 20
16.2375159641
 30
0.0
  0
VERTEX
  8
0
 10
5.6243916048
 20
16.2118849216
 30
0.0
  0
VERTEX
  8
0
 10
5.66717076241
 20
16.1860017907
 30
0.0
  0
VERTEX
  8
0
 10
5.70979692705
 20
16.1598674669
 30
0.0
  0
VERTEX
  8
0
 10
5.75226862379
 20
16.1334828546
 30
0.0
  0
VERTEX
  8
0
 10
5.79458438303
 20
16.1068488667
 30
0.0
  0
VERTEX
  8
0
 10
5.83674274054
 20
16.0799664248
 30
0.0
  0
VERTEX
  8
0
 10
5.87874223758
 20
16.0528364591
 30
0.0
  0
VERTEX
  8
0
 10
5.92058142087
 20
16.0254599083
 30
0.0
  0
VERTEX
  8
0
 10
5.96225884269
 20
15.9978377197
 30
0.0
  0
VERTEX
  8
0
 10
6.00377306093
 20
15.9699708491
 30
0.0
  0
VERTEX
  8
0
 10
6.04512263911
 20
15.9418602608
 30
0.0
  0
VERTEX
  8
0
 10
6.08630614645
 20
15.9135069274
 30
0.0
  0
VERTEX
  8
0
 10
6.12732215792
 20
15.8849118301
 30
0.0
  0
VERTEX
  8
0
 10
6.16816925429
 20
15.8560759581
 30
0.0
  0
VERTEX
  8
0
 10
6.20884602217
 20
15.8270003095
 30
0.0
  0
VERTEX
  8
0
 10
6.24935105406
 20
15.7976858901
 30
0.0
  0
VERTEX
  8
0
 10
6.2896829484
 20
15.7681337144
 30
0.0
  0
VERTEX
  8
0
 10
6.32984030964
 20
15.7383448049
 30
0.0
  0
VERTEX
  8
0
 10
6.36982174825
 20
15.7083201923
 30
0.0
  0
VERTEX
  8
0
 10
6.40962588079
 20
15.6780609157
 30
0.0
  0
VERTEX
  8
0
 10
6.44925132996
 20
15.6475680219
 30
0.0
  0
VERTEX
  8
0
 10
6.48869672464
 20
15.6168425662
 30
0.0
  0
VERTEX
  8
0
 10
6.52796069995
 20
15.5858856117
 30
0.0
  0
VERTEX
  8
0
 10
6.56704189727
 20
15.5546982295
 30
0.0
  0
VERTEX
  8
0
 10
6.60593896431
 20
15.5232814988
 30
0.0
  0
VERTEX
  8
0
 10
6.64465055516
 20
15.4916365067
 30
0.0
  0
VERTEX
  8
0
 10
6.68317533033
 20
15.4597643482
 30
0.0
  0
VERTEX
  8
0
 10
6.72151195677
 20
15.427666126
 30
0.0
  0
VERTEX
  8
0
 10
6.75965910797
 20
15.3953429509
 30
0.0
  0
VERTEX
  8
0
 10
6.79761546396
 20
15.3627959414
 30
0.0
  0
VERTEX
  8
0
 10
6.83537971137
 20
15.3300262235
 30
0.0
  0
VERTEX
  8
0
 10
6.87295054349
 20
15.2970349313
 30
0.0
  0
VERTEX
  8
0
 10
6.91032666029
 20
15.2638232062
 30
0.0
  0
VERTEX
  8
0
 10
6.94750676849
 20
15.2303921974
 30
0.0
  0
VERTEX
  8
0
 10
6.98448958157
 20
15.1967430618
 30
0.0
  0
VERTEX
  8
0
 10
7.02127381987
 20
15.1628769637
 30
0.0
  0
VERTEX
  8
0
 10
7.05785821057
 20
15.1287950748
 30
0.0
  0
VERTEX
  8
0
 10
7.09424148778
 20
15.0944985745
 30
0.0
  0
VERTEX
  8
0
 10
7.13042239256
 20
15.0599886496
 30
0.0
  0
VERTEX
  8
0
 10
7.166399673
 20
15.025266494
 30
0.0
  0
VERTEX
  8
0
 10
7.20217208419
 20
14.9903333094
 30
0.0
  0
VERTEX
  8
0
 10
7.23773838835
 20
14.9551903044
 30
0.0
  0
VERTEX
  8
0
 10
7.27309735481
 20
14.9198386951
 30
0.0
  0
VERTEX
  8
0
 10
7.30824776009
 20
14.8842797047
 30
0.0
  0
VERTEX
  8
0
 10
7.3431883879
 20
14.8485145636
 30
0.0
  0
VERTEX
  8
0
 10
7.37791802923
 20
14.8125445093
 30
0.0
  0
VERTEX
  8
0
 10
7.41243548237
 20
14.7763707865
 30
0.0
  0
VERTEX
  8
0
 10
7.44673955295
 20
14.7399946469
 30
0.0
  0
VERTEX
  8
0
 10
7.48082905398
 20
14.7034173491
 30
0.0
  0
VERTEX
  8
0
 10
7.51470280589
 20
14.6666401589
 30
0.0
  0
VERTEX
  8
0
 10
7.54835963658
 20
14.6296643487
 30
0.0
  0
VERTEX
  8
0
 10
7.58179838147
 20
14.592491198
 30
0.0
  0
VERTEX
  8
0
 10
7.6150178835
 20
14.5551219931
 30
0.0
  0
VERTEX
  8
0
 10
7.64801699322
 20
14.517558027
 30
0.0
  0
VERTEX
  8
0
 10
7.68079456879
 20
14.4798005995
 30
0.0
  0
VERTEX
  8
0
 10
7.71334947604
 20
14.4418510171
 30
0.0
  0
VERTEX
  8
0
 10
7.74568058851
 20
14.4037105929
 30
0.0
  0
VERTEX
  8
0
 10
7.77778678747
 20
14.3653806467
 30
0.0
  0
VERTEX
  8
0
 10
7.80966696199
 20
14.3268625047
 30
0.0
  0
VERTEX
  8
0
 10
7.84132000896
 20
14.2881574997
 30
0.0
  0
VERTEX
  8
0
 10
7.87274483311
 20
14.249266971
 30
0.0
  0
VERTEX
  8
0
 10
7.90394034709
 20
14.2101922644
 30
0.0
  0
VERTEX
  8
0
 10
7.93490547146
 20
14.1709347318
 30
0.0
  0
VERTEX
  8
0
 10
7.96563913477
 20
14.1314957317
 30
0.0
  0
VERTEX
  8
0
 10
7.99614027358
 20
14.0918766287
 30
0.0
  0
VERTEX
  8
0
 10
8.02640783249
 20
14.0520787937
 30
0.0
  0
VERTEX
  8
0
 10
8.05644076417
 20
14.0121036039
 30
0.0
  0
VERTEX
  8
0
 10
8.08623802944
 20
13.9719524423
 30
0.0
  0
VERTEX
  8
0
 10
8.11579859724
 20
13.9316266984
 30
0.0
  0
VERTEX
  8
0
 10
8.14512144473
 20
13.8911277675
 30
0.0
  0
VERTEX
  8
0
 10
8.17420555727
 20
13.8504570509
 30
0.0
  0
VERTEX
  8
0
 10
8.2030499285
 20
13.8096159559
 30
0.0
  0
VERTEX
  8
0
 10
8.23165356034
 20
13.7686058957
 30
0.0
  0
VERTEX
  8
0
 10
8.26001546306
 20
13.7274282893
 30
0.0
  0
VERTEX
  8
0
 10
8.28813465526
 20
13.6860845616
 30
0.0
  0
VERTEX
  8
0
 10
8.31601016399
 20
13.6445761431
 30
0.0
  0
VERTEX
  8
0
 10
8.34364102467
 20
13.6029044701
 30
0.0
  0
VERTEX
  8
0
 10
8.37102628125
 20
13.5610709846
 30
0.0
  0
VERTEX
  8
0
 10
8.39816498612
 20
13.519077134
 30
0.0
  0
VERTEX
  8
0
 10
8.42505620024
 20
13.4769243714
 30
0.0
  0
VERTEX
  8
0
 10
8.45169899312
 20
13.4346141554
 30
0.0
  0
VERTEX
  8
0
 10
8.47809244287
 20
13.39214795
 30
0.0
  0
VERTEX
  8
0
 10
8.50423563621
 20
13.3495272246
 30
0.0
  0
VERTEX
  8
0
 10
8.53012766855
 20
13.306753454
 30
0.0
  0
VERTEX
  8
0
 10
8.55576764396
 20
13.2638281182
 30
0.0
  0
VERTEX
  8
0
 10
8.58115467526
 20
13.2207527025
 30
0.0
  0
VERTEX
  8
0
 10
8.606287884
 20
13.1775286975
 30
0.0
  0
VERTEX
  8
0
 10
8.63116640053
 20
13.1341575988
 30
0.0
  0
VERTEX
  8
0
 10
8.65578936399
 20
13.090640907
 30
0.0
  0
VERTEX
  8
0
 10
8.68015592239
 20
13.046980128
 30
0.0
  0
VERTEX
  8
0
 10
8.70426523259
 20
13.0031767725
 30
0.0
  0
VERTEX
  8
0
 10
8.72811646037
 20
12.9592323562
 30
0.0
  0
VERTEX
  8
0
 10
8.75170878042
 20
12.9151483996
 30
0.0
  0
VERTEX
  8
0
 10
8.77504137641
 20
12.8709264282
 30
0.0
  0
VERTEX
  8
0
 10
8.79811344097
 20
12.8265679721
 30
0.0
  0
VERTEX
  8
0
 10
8.82092417578
 20
12.7820745662
 30
0.0
  0
VERTEX
  8
0
 10
8.84347279153
 20
12.7374477501
 30
0.0
  0
VERTEX
  8
0
 10
8.86575850799
 20
12.6926890679
 30
0.0
  0
VERTEX
  8
0
 10
8.88778055404
 20
12.6478000683
 30
0.0
  0
VERTEX
  8
0
 10
8.90953816768
 20
12.6027823047
 30
0.0
  0
VERTEX
  8
0
 10
8.93103059604
 20
12.5576373348
 30
0.0
  0
VERTEX
  8
0
 10
8.95225709544
 20
12.5123667205
 30
0.0
  0
VERTEX
  8
0
 10
8.97321693141
 20
12.4669720284
 30
0.0
  0
VERTEX
  8
0
 10
8.9939093787
 20
12.4214548293
 30
0.0
  0
VERTEX
  8
0
 10
9.01433372129
 20
12.3758166981
 30
0.0
  0
VERTEX
  8
0
 10
9.03448925248
 20
12.330059214
 30
0.0
  0
VERTEX
  8
0
 10
9.05437527484
 20
12.2841839602
 30
0.0
  0
VERTEX
  8
0
 10
9.07399110028
 20
12.2381925242
 30
0.0
  0
VERTEX
  8
0
 10
9.09333605004
 20
12.1920864974
 30
0.0
  0
VERTEX
  8
0
 10
9.11240945475
 20
12.1458674751
 30
0.0
  0
VERTEX
  8
0
 10
9.13121065445
 20
12.0995370566
 30
0.0
  0
VERTEX
  8
0
 10
9.14973899856
 20
12.0530968449
 30
0.0
  0
VERTEX
  8
0
 10
9.16799384598
 20
12.0065484472
 30
0.0
  0
VERTEX
  8
0
 10
9.18597456504
 20
11.9598934739
 30
0.0
  0
VERTEX
  8
0
 10
9.20368053358
 20
11.9131335394
 30
0.0
  0
VERTEX
  8
0
 10
9.22111113894
 20
11.8662702618
 30
0.0
  0
VERTEX
  8
0
 10
9.23826577798
 20
11.8193052626
 30
0.0
  0
VERTEX
  8
0
 10
9.25514385712
 20
11.7722401669
 30
0.0
  0
VERTEX
  8
0
 10
9.27174479235
 20
11.7250766032
 30
0.0
  0
VERTEX
  8
0
 10
9.28806800924
 20
11.6778162035
 30
0.0
  0
VERTEX
  8
0
 10
9.30411294297
 20
11.630460603
 30
0.0
  0
VERTEX
  8
0
 10
9.31987903836
 20
11.5830114405
 30
0.0
  0
VERTEX
  8
0
 10
9.33536574986
 20
11.5354703576
 30
0.0
  0
VERTEX
  8
0
 10
9.35057254162
 20
11.4878389995
 30
0.0
  0
VERTEX
  8
0
 10
9.36549888744
 20
11.4401190143
 30
0.0
  0
VERTEX
  8
0
 10
9.38014427085
 20
11.3923120531
 30
0.0
  0
VERTEX
  8
0
 10
9.39450818507
 20
11.3444197702
 30
0.0
  0
VERTEX
  8
0
 10
9.4085901331
 20
11.2964438228
 30
0.0
  0
VERTEX
  8
0
 10
9.42238962768
 20
11.2483858709
 30
0.0
  0
VERTEX
  8
0
 10
9.4359061913
 20
11.2002475774
 30
0.0
  0
VERTEX
  8
0
 10
9.44913935627
 20
11.152030608
 30
0.0
  0
VERTEX
  8
0
 10
9.4620886647
 20
11.1037366312
 30
0.0
  0
VERTEX
  8
0
 10
9.47475366852
 20
11.0553673179
 30
0.0
  0
VERTEX
  8
0
 10
9.48713392949
 20
11.0069243418
 30
0.0
  0
VERTEX
  8
0
 10
9.49922901922
 20
10.9584093792
 30
0.0
  0
VERTEX
  8
0
 10
9.51103851922
 20
10.9098241088
 30
0.0
  0
VERTEX
  8
0
 10
9.52256202083
 20
10.8611702117
 30
0.0
  0
VERTEX
  8
0
 10
9.53379912534
 20
10.8124493715
 30
0.0
  0
VERTEX
  8
0
 10
9.54474944391
 20
10.7636632739
 30
0.0
  0
VERTEX
  8
0
 10
9.55541259763
 20
10.7148136071
 30
0.0
  0
VERTEX
  8
0
 10
9.56578821755
 20
10.6659020614
 30
0.0
  0
VERTEX
  8
0
 10
9.57587594465
 20
10.6169303292
 30
0.0
  0
VERTEX
  8
0
 10
9.58567542986
 20
10.5679001051
 30
0.0
  0
VERTEX
  8
0
 10
9.59518633412
 20
10.5188130855
 30
0.0
  0
VERTEX
  8
0
 10
9.60440832832
 20
10.469670969
 30
0.0
  0
VERTEX
  8
0
 10
9.61334109336
 20
10.420475456
 30
0.0
  0
VERTEX
  8
0
 10
9.62198432015
 20
10.3712282488
 30
0.0
  0
VERTEX
  8
0
 10
9.63033770963
 20
10.3219310513
 30
0.0
  0
VERTEX
  8
0
 10
9.63840097274
 20
10.2725855695
 30
0.0
  0
VERTEX
  8
0
 10
9.64617383048
 20
10.2231935106
 30
0.0
  0
VERTEX
  8
0
 10
9.6536560139
 20
10.1737565839
 30
0.0
  0
VERTEX
  8
0
 10
9.66084726409
 20
10.1242764999
 30
0.0
  0
VERTEX
  8
0
 10
9.66774733223
 20
10.0747549708
 30
0.0
  0
VERTEX
  8
0
 10
9.67435597956
 20
10.02519371
 30
0.0
  0
VERTEX
  8
0
 10
9.6806729774
 20
9.97559443247
 30
0.0
  0
VERTEX
  8
0
 10
9.68669810718
 20
9.92595885448
 30
0.0
  0
VERTEX
  8
0
 10
9.69243116042
 20
9.8762886935
 30
0.0
  0
VERTEX
  8
0
 10
9.69787193874
 20
9.82658566822
 30
0.0
  0
VERTEX
  8
0
 10
9.70302025387
 20
9.77685149845
 30
0.0
  0
VERTEX
  8
0
 10
9.70787592768
 20
9.7270879051
 30
0.0
  0
VERTEX
  8
0
 10
9.71243879215
 20
9.67729661009
 30
0.0
  0
VERTEX
  8
0
 10
9.7167086894
 20
9.62747933629
 30
0.0
  0
VERTEX
  8
0
 10
9.72068547168
 20
9.57763780748
 30
0.0
  0
VERTEX
  8
0
 10
9.72436900138
 20
9.52777374828
 30
0.0
  0
VERTEX
  8
0
 10
9.72775915105
 20
9.47788888408
 30
0.0
  0
VERTEX
  8
0
 10
9.73085580338
 20
9.42798494099
 30
0.0
  0
VERTEX
  8
0
 10
9.73365885123
 20
9.37806364579
 30
0.0
  0
VERTEX
  8
0
 10
9.73616819759
 20
9.32812672586
 30
0.0
  0
VERTEX
  8
0
 10
9.73838375564
 20
9.27817590912
 30
0.0
  0
VERTEX
  8
0
 10
9.74030544873
 20
9.22821292395
 30
0.0
  0
VERTEX
  8
0
 10
9.74193321035
 20
9.17823949918
 30
0.0
  0
VERTEX
  8
0
 10
9.74326698418
 20
9.12825736398
 30
0.0
  0
VERTEX
  8
0
 10
9.74430672407
 20
9.07826824784
 30
0.0
  0
VERTEX
  8
0
 10
9.74436702407
 20
9.07485298887
 30
0.0
  0
SEQEND
  8
0
  0
POLYLINE
  8
0
 62
0
 70
0
 66
1
 10
0.0
 20
0.0
 30
0.0
  0
VERTEX
  8
0
 10
-9.73975406112
 20
9.07485298887
 30
0.0
  0
VERTEX
  8
0
 10
-9.73873440983
 20
9.1248425188
 30
0.0
  0
VERTEX
  8
0
 10
-9.73742072181
 20
9.17482518594
 30
0.0
  0
VERTEX
  8
0
 10
-9.73581304253
 20
9.22479926081
 30
0.0
  0
VERTEX
  8
0
 10
-9.73391142762
 20
9.27476301419
 30
0.0
  0
VERTEX
  8
0
 10
-9.73171594287
 20
9.32471471724
 30
0.0
  0
VERTEX
  8
0
 10
-9.72922666425
 20
9.37465264154
 30
0.0
  0
VERTEX
  8
0
 10
-9.72644367789
 20
9.42457505913
 30
0.0
  0
VERTEX
  8
0
 10
-9.7233670801
 20
9.4744802426
 30
0.0
  0
VERTEX
  8
0
 10
-9.71999697732
 20
9.52436646513
 30
0.0
  0
VERTEX
  8
0
 10
-9.71633348618
 20
9.57423200057
 30
0.0
  0
VERTEX
  8
0
 10
-9.71237673343
 20
9.62407512345
 30
0.0
  0
VERTEX
  8
0
 10
-9.70812685599
 20
9.67389410912
 30
0.0
  0
VERTEX
  8
0
 10
-9.7035840009
 20
9.72368723373
 30
0.0
  0
VERTEX
  8
0
 10
-9.69874832537
 20
9.77345277436
 30
0.0
  0
VERTEX
  8
0
 10
-9.69361999672
 20
9.823189009
 30
0.0
  0
VERTEX
  8
0
 10
-9.68819919239
 20
9.87289421669
 30
0.0
  0
VERTEX
  8
0
 10
-9.68248609995
 20
9.92256667753
 30
0.0
  0
VERTEX
  8
0
 10
-9.6764809171
 20
9.97220467276
 30
0.0
  0
VERTEX
  8
0
 10
-9.67018385162
 20
10.0218064848
 30
0.0
  0
VERTEX
  8
0
 10
-9.66359512141
 20
10.0713703973
 30
0.0
  0
VERTEX
  8
0
 10
-9.65671495444
 20
10.1208946953
 30
0.0
  0
VERTEX
  8
0
 10
-9.64954358878
 20
10.1703776652
 30
0.0
  0
VERTEX
  8
0
 10
-9.64208127258
 20
10.2198175947
 30
0.0
  0
VERTEX
  8
0
 10
-9.63432826405
 20
10.2692127731
 30
0.0
  0
VERTEX
  8
0
 10
-9.62628483146
 20
10.3185614913
 30
0.0
  0
VERTEX
  8
0
 10
-9.61795125312
 20
10.3678620416
 30
0.0
  0
VERTEX
  8
0
 10
-9.6093278174
 20
10.4171127182
 30
0.0
  0
VERTEX
  8
0
 10
-9.60041482268
 20
10.4663118169
 30
0.0
  0
VERTEX
  8
0
 10
-9.59121257737
 20
10.5154576354
 30
0.0
  0
VERTEX
  8
0
 10
-9.58172139988
 20
10.5645484731
 30
0.0
  0
VERTEX
  8
0
 10
-9.57194161863
 20
10.6135826313
 30
0.0
  0
VERTEX
  8
0
 10
-9.56187357202
 20
10.6625584133
 30
0.0
  0
VERTEX
  8
0
 10
-9.55151760843
 20
10.7114741246
 30
0.0
  0
VERTEX
  8
0
 10
-9.54087408618
 20
10.7603280725
 30
0.0
  0
VERTEX
  8
0
 10
-9.52994337357
 20
10.8091185666
 30
0.0
  0
VERTEX
  8
0
 10
-9.51872584882
 20
10.8578439186
 30
0.0
  0
VERTEX
  8
0
 10
-9.50722190008
 20
10.9065024426
 30
0.0
  0
VERTEX
  8
0
 10
-9.49543192541
 20
10.9550924548
 30
0.0
  0
VERTEX
  8
0
 10
-9.48335633277
 20
11.003612274
 30
0.0
  0
VERTEX
  8
0
 10
-9.47099553999
 20
11.0520602212
 30
0.0
  0
VERTEX
  8
0
 10
-9.45834997478
 20
11.1004346202
 30
0.0
  0
VERTEX
  8
0
 10
-9.44542007471
 20
11.1487337969
 30
0.0
  0
VERTEX
  8
0
 10
-9.43220628717
 20
11.1969560803
 30
0.0
  0
VERTEX
  8
0
 10
-9.41870906938
 20
11.2450998016
 30
0.0
  0
VERTEX
  8
0
 10
-9.40492888839
 20
11.293163295
 30
0.0
  0
VERTEX
  8
0
 10
-9.390866221
 20
11.3411448975
 30
0.0
  0
VERTEX
  8
0
 10
-9.37652155382
 20
11.3890429488
 30
0.0
  0
VERTEX
  8
0
 10
-9.3618953832
 20
11.4368557915
 30
0.0
  0
VERTEX
  8
0
 10
-9.34698821523
 20
11.4845817711
 30
0.0
  0
VERTEX
  8
0
 10
-9.33180056573
 20
11.5322192363
 30
0.0
  0
VERTEX
  8
0
 10
-9.31633296023
 20
11.5797665388
 30
0.0
  0
VERTEX
  8
0
 10
-9.30058593393
 20
11.6272220333
 30
0.0
  0
VERTEX
  8
0
 10
-9.28456003171
 20
11.6745840777
 30
0.0
  0
VERTEX
  8
0
 10
-9.2682558081
 20
11.7218510332
 30
0.0
  0
VERTEX
  8
0
 10
-9.25167382726
 20
11.7690212643
 30
0.0
  0
VERTEX
  8
0
 10
-9.23481466296
 20
11.8160931388
 30
0.0
  0
VERTEX
  8
0
 10
-9.21767889855
 20
11.8630650279
 30
0.0
  0
VERTEX
  8
0
 10
-9.20026712697
 20
11.9099353064
 30
0.0
  0
VERTEX
  8
0
 10
-9.1825799507
 20
11.9567023523
 30
0.0
  0
VERTEX
  8
0
 10
-9.16461798176
 20
12.0033645476
 30
0.0
  0
VERTEX
  8
0
 10
-9.14638184165
 20
12.0499202774
 30
0.0
  0
VERTEX
  8
0
 10
-9.1278721614
 20
12.0963679311
 30
0.0
  0
VERTEX
  8
0
 10
-9.10908958146
 20
12.1427059013
 30
0.0
  0
VERTEX
  8
0
 10
-9.09003475176
 20
12.1889325847
 30
0.0
  0
VERTEX
  8
0
 10
-9.07070833163
 20
12.2350463817
 30
0.0
  0
VERTEX
  8
0
 10
-9.05111098979
 20
12.2810456967
 30
0.0
  0
VERTEX
  8
0
 10
-9.03124340437
 20
12.3269289381
 30
0.0
  0
VERTEX
  8
0
 10
-9.01110626281
 20
12.3726945182
 30
0.0
  0
VERTEX
  8
0
 10
-8.9907002619
 20
12.4183408534
 30
0.0
  0
VERTEX
  8
0
 10
-8.97002610773
 20
12.4638663643
 30
0.0
  0
VERTEX
  8
0
 10
-8.94908451566
 20
12.5092694756
 30
0.0
  0
VERTEX
  8
0
 10
-8.92787621032
 20
12.5545486162
 30
0.0
  0
VERTEX
  8
0
 10
-8.90640192555
 20
12.5997022194
 30
0.0
  0
VERTEX
  8
0
 10
-8.88466240441
 20
12.6447287229
 30
0.0
  0
VERTEX
  8
0
 10
-8.86265839913
 20
12.6896265685
 30
0.0
  0
VERTEX
  8
0
 10
-8.84039067109
 20
12.7343942028
 30
0.0
  0
VERTEX
  8
0
 10
-8.81785999079
 20
12.7790300766
 30
0.0
  0
VERTEX
  8
0
 10
-8.79506713785
 20
12.8235326456
 30
0.0
  0
VERTEX
  8
0
 10
-8.77201290094
 20
12.8679003698
 30
0.0
  0
VERTEX
  8
0
 10
-8.74869807779
 20
12.9121317141
 30
0.0
  0
VERTEX
  8
0
 10
-8.72512347512
 20
12.9562251478
 30
0.0
  0
VERTEX
  8
0
 10
-8.70128990868
 20
13.0001791454
 30
0.0
  0
VERTEX
  8
0
 10
-8.67719820314
 20
13.0439921859
 30
0.0
  0
VERTEX
  8
0
 10
-8.65284919213
 20
13.0876627532
 30
0.0
  0
VERTEX
  8
0
 10
-8.62824371818
 20
13.1311893364
 30
0.0
  0
VERTEX
  8
0
 10
-8.60338263267
 20
13.1745704293
 30
0.0
  0
VERTEX
  8
0
 10
-8.57826679586
 20
13.2178045308
 30
0.0
  0
VERTEX
  8
0
 10
-8.55289707681
 20
13.2608901449
 30
0.0
  0
VERTEX
  8
0
 10
-8.52727435334
 20
13.3038257809
 30
0.0
  0
VERTEX
  8
0
 10
-8.50139951207
 20
13.3466099529
 30
0.0
  0
VERTEX
  8
0
 10
-8.47527344831
 20
13.3892411807
 30
0.0
  0
VERTEX
  8
0
 10
-8.44889706607
 20
13.4317179891
 30
0.0
  0
VERTEX
  8
0
 10
-8.42227127803
 20
13.4740389083
 30
0.0
  0
VERTEX
  8
0
 10
-8.3953970055
 20
13.516202474
 30
0.0
  0
VERTEX
  8
0
 10
-8.36827517837
 20
13.5582072271
 30
0.0
  0
VERTEX
  8
0
 10
-8.34090673512
 20
13.6000517142
 30
0.0
  0
VERTEX
  8
0
 10
-8.31329262275
 20
13.6417344875
 30
0.0
  0
VERTEX
  8
0
 10
-8.28543379676
 20
13.6832541047
 30
0.0
  0
VERTEX
  8
0
 10
-8.25733122112
 20
13.7246091289
 30
0.0
  0
VERTEX
  8
0
 10
-8.22898586824
 20
13.7657981294
 30
0.0
  0
VERTEX
  8
0
 10
-8.20039871892
 20
13.8068196809
 30
0.0
  0
VERTEX
  8
0
 10
-8.17157076233
 20
13.8476723639
 30
0.0
  0
VERTEX
  8
0
 10
-8.14250299598
 20
13.8883547649
 30
0.0
  0
VERTEX
  8
0
 10
-8.11319642567
 20
13.9288654762
 30
0.0
  0
VERTEX
  8
0
 10
-8.08365206547
 20
13.969203096
 30
0.0
  0
VERTEX
  8
0
 10
-8.05387093767
 20
14.0093662286
 30
0.0
  0
VERTEX
  8
0
 10
-8.02385407275
 20
14.0493534842
 30
0.0
  0
VERTEX
  8
0
 10
-7.99360250935
 20
14.0891634792
 30
0.0
  0
VERTEX
  8
0
 10
-7.96311729425
 20
14.1287948361
 30
0.0
  0
VERTEX
  8
0
 10
-7.93239948229
 20
14.1682461836
 30
0.0
  0
VERTEX
  8
0
 10
-7.90145013636
 20
14.2075161566
 30
0.0
  0
VERTEX
  8
0
 10
-7.87027032738
 20
14.2466033963
 30
0.0
  0
VERTEX
  8
0
 10
-7.83886113423
 20
14.2855065501
 30
0.0
  0
VERTEX
  8
0
 10
-7.80722364373
 20
14.3242242719
 30
0.0
  0
VERTEX
  8
0
 10
-7.7753589506
 20
14.3627552221
 30
0.0
  0
VERTEX
  8
0
 10
-7.74326815741
 20
14.4010980674
 30
0.0
  0
VERTEX
  8
0
 10
-7.71095237458
 20
14.439251481
 30
0.0
  0
VERTEX
  8
0
 10
-7.67841272029
 20
14.4772141428
 30
0.0
  0
VERTEX
  8
0
 10
-7.64565032049
 20
14.5149847392
 30
0.0
  0
VERTEX
  8
0
 10
-7.61266630881
 20
14.5525619632
 30
0.0
  0
VERTEX
  8
0
 10
-7.57946182656
 20
14.5899445146
 30
0.0
  0
VERTEX
  8
0
 10
-7.5460380227
 20
14.6271310999
 30
0.0
  0
VERTEX
  8
0
 10
-7.51239605374
 20
14.6641204324
 30
0.0
  0
VERTEX
  8
0
 10
-7.47853708376
 20
14.7009112321
 30
0.0
  0
VERTEX
  8
0
 10
-7.44446228436
 20
14.737502226
 30
0.0
  0
VERTEX
  8
0
 10
-7.41017283459
 20
14.7738921481
 30
0.0
  0
VERTEX
  8
0
 10
-7.37566992092
 20
14.810079739
 30
0.0
  0
VERTEX
  8
0
 10
-7.34095473724
 20
14.8460637468
 30
0.0
  0
VERTEX
  8
0
 10
-7.30602848475
 20
14.8818429262
 30
0.0
  0
VERTEX
  8
0
 10
-7.27089237197
 20
14.9174160392
 30
0.0
  0
VERTEX
  8
0
 10
-7.23554761469
 20
14.9527818549
 30
0.0
  0
VERTEX
  8
0
 10
-7.19999543589
 20
14.9879391497
 30
0.0
  0
VERTEX
  8
0
 10
-7.16423706575
 20
15.0228867069
 30
0.0
  0
VERTEX
  8
0
 10
-7.12827374159
 20
15.0576233174
 30
0.0
  0
VERTEX
  8
0
 10
-7.09210670781
 20
15.0921477791
 30
0.0
  0
VERTEX
  8
0
 10
-7.05573721586
 20
15.1264588975
 30
0.0
  0
VERTEX
  8
0
 10
-7.01916652418
 20
15.1605554854
 30
0.0
  0
VERTEX
  8
0
 10
-6.98239589821
 20
15.1944363628
 30
0.0
  0
VERTEX
  8
0
 10
-6.94542661028
 20
15.2281003575
 30
0.0
  0
VERTEX
  8
0
 10
-6.9082599396
 20
15.2615463047
 30
0.0
  0
VERTEX
  8
0
 10
-6.87089717221
 20
15.294773047
 30
0.0
  0
VERTEX
  8
0
 10
-6.83333960093
 20
15.3277794347
 30
0.0
  0
VERTEX
  8
0
 10
-6.79558852533
 20
15.3605643258
 30
0.0
  0
VERTEX
  8
0
 10
-6.75764525168
 20
15.3931265858
 30
0.0
  0
VERTEX
  8
0
 10
-6.71951109288
 20
15.425465088
 30
0.0
  0
VERTEX
  8
0
 10
-6.68118736845
 20
15.4575787134
 30
0.0
  0
VERTEX
  8
0
 10
-6.64267540447
 20
15.4894663508
 30
0.0
  0
VERTEX
  8
0
 10
-6.60397653353
 20
15.5211268969
 30
0.0
  0
VERTEX
  8
0
 10
-6.56509209468
 20
15.5525592562
 30
0.0
  0
VERTEX
  8
0
 10
-6.52602343342
 20
15.5837623409
 30
0.0
  0
VERTEX
  8
0
 10
-6.48677190157
 20
15.6147350715
 30
0.0
  0
VERTEX
  8
0
 10
-6.44733885734
 20
15.6454763762
 30
0.0
  0
VERTEX
  8
0
 10
-6.40772566518
 20
15.6759851913
 30
0.0
  0
VERTEX
  8
0
 10
-6.36793369578
 20
15.7062604611
 30
0.0
  0
VERTEX
  8
0
 10
-6.32796432602
 20
15.736301138
 30
0.0
  0
VERTEX
  8
0
 10
-6.28781893893
 20
15.7661061827
 30
0.0
  0
VERTEX
  8
0
 10
-6.24749892361
 20
15.7956745637
 30
0.0
  0
VERTEX
  8
0
 10
-6.20700567522
 20
15.825005258
 30
0.0
  0
VERTEX
  8
0
 10
-6.16634059491
 20
15.8540972506
 30
0.0
  0
VERTEX
  8
0
 10
-6.12550508975
 20
15.8829495349
 30
0.0
  0
VERTEX
  8
0
 10
-6.08450057275
 20
15.9115611126
 30
0.0
  0
VERTEX
  8
0
 10
-6.04332846274
 20
15.9399309936
 30
0.0
  0
VERTEX
  8
0
 10
-6.00199018436
 20
15.9680581963
 30
0.0
  0
VERTEX
  8
0
 10
-5.960487168
 20
15.9959417474
 30
0.0
  0
VERTEX
  8
0
 10
-5.91882084973
 20
16.0235806822
 30
0.0
  0
VERTEX
  8
0
 10
-5.8769926713
 20
16.0509740441
 30
0.0
  0
VERTEX
  8
0
 10
-5.83500408004
 20
16.0781208855
 30
0.0
  0
VERTEX
  8
0
 10
-5.79285652885
 20
16.1050202669
 30
0.0
  0
VERTEX
  8
0
 10
-5.75055147611
 20
16.1316712576
 30
0.0
  0
VERTEX
  8
0
 10
-5.70809038566
 20
16.1580729353
 30
0.0
  0
VERTEX
  8
0
 10
-5.66547472674
 20
16.1842243866
 30
0.0
  0
VERTEX
  8
0
 10
-5.62270597393
 20
16.2101247066
 30
0.0
  0
VERTEX
  8
0
 10
-5.57978560712
 20
16.235772999
 30
0.0
  0
VERTEX
  8
0
 10
-5.53671511143
 20
16.2611683764
 30
0.0
  0
VERTEX
  8
0
 10
-5.49349597719
 20
16.28630996
 30
0.0
  0
VERTEX
  8
0
 10
-5.45012969988
 20
16.31119688
 30
0.0
  0
VERTEX
  8
0
 10
-5.40661778004
 20
16.335828275
 30
0.0
  0
VERTEX
  8
0
 10
-5.36296172327
 20
16.360203293
 30
0.0
  0
VERTEX
  8
0
 10
-5.31916304017
 20
16.3843210903
 30
0.0
  0
VERTEX
  8
0
 10
-5.27522324625
 20
16.4081808326
 30
0.0
  0
VERTEX
  8
0
 10
-5.23114386191
 20
16.4317816942
 30
0.0
  0
VERTEX
  8
0
 10
-5.1869264124
 20
16.4551228585
 30
0.0
  0
VERTEX
  8
0
 10
-5.14257242772
 20
16.4782035178
 30
0.0
  0
VERTEX
  8
0
 10
-5.0980834426
 20
16.5010228735
 30
0.0
  0
VERTEX
  8
0
 10
-5.05346099646
 20
16.523580136
 30
0.0
  0
VERTEX
  8
0
 10
-5.00870663331
 20
16.5458745247
 30
0.0
  0
VERTEX
  8
0
 10
-4.96382190175
 20
16.5679052683
 30
0.0
  0
VERTEX
  8
0
 10
-4.91880835488
 20
16.5896716045
 30
0.0
  0
VERTEX
  8
0
 10
-4.87366755026
 20
16.61117278
 30
0.0
  0
VERTEX
  8
0
 10
-4.82840104984
 20
16.632408051
 30
0.0
  0
VERTEX
  8
0
 10
-4.78301041994
 20
16.6533766825
 30
0.0
  0
VERTEX
  8
0
 10
-4.73749723117
 20
16.6740779491
 30
0.0
  0
VERTEX
  8
0
 10
-4.69186305836
 20
16.6945111344
 30
0.0
  0
VERTEX
  8
0
 10
-4.64610948055
 20
16.7146755315
 30
0.0
  0
VERTEX
  8
0
 10
-4.60023808091
 20
16.7345704426
 30
0.0
  0
VERTEX
  8
0
 10
-4.55425044668
 20
16.7541951792
 30
0.0
  0
VERTEX
  8
0
 10
-4.50814816911
 20
16.7735490624
 30
0.0
  0
VERTEX
  8
0
 10
-4.46193284345
 20
16.7926314225
 30
0.0
  0
VERTEX
  8
0
 10
-4.41560606883
 20
16.8114415991
 30
0.0
  0
VERTEX
  8
0
 10
-4.36916944824
 20
16.8299789414
 30
0.0
  0
VERTEX
  8
0
 10
-4.3226245885
 20
16.848242808
 30
0.0
  0
VERTEX
  8
0
 10
-4.27597310013
 20
16.8662325669
 30
0.0
  0
VERTEX
  8
0
 10
-4.22921659739
 20
16.8839475956
 30
0.0
  0
VERTEX
  8
0
 10
-4.18235669812
 20
16.9013872811
 30
0.0
  0
VERTEX
  8
0
 10
-4.13539502379
 20
16.9185510201
 30
0.0
  0
VERTEX
  8
0
 10
-4.08833319935
 20
16.9354382185
 30
0.0
  0
VERTEX
  8
0
 10
-4.04117285324
 20
16.9520482922
 30
0.0
  0
VERTEX
  8
0
 10
-3.99391561729
 20
16.9683806662
 30
0.0
  0
VERTEX
  8
0
 10
-3.94656312671
 20
16.9844347756
 30
0.0
  0
VERTEX
  8
0
 10
-3.89911701998
 20
17.0002100647
 30
0.0
  0
VERTEX
  8
0
 10
-3.85157893883
 20
17.0157059878
 30
0.0
  0
VERTEX
  8
0
 10
-3.80395052818
 20
17.0309220086
 30
0.0
  0
VERTEX
  8
0
 10
-3.75623343605
 20
17.0458576007
 30
0.0
  0
VERTEX
  8
0
 10
-3.70842931356
 20
17.0605122472
 30
0.0
  0
VERTEX
  8
0
 10
-3.66053981483
 20
17.074885441
 30
0.0
  0
VERTEX
  8
0
 10
-3.61256659691
 20
17.0889766849
 30
0.0
  0
VERTEX
  8
0
 10
-3.56451131979
 20
17.1027854912
 30
0.0
  0
VERTEX
  8
0
 10
-3.51637564627
 20
17.1163113822
 30
0.0
  0
VERTEX
  8
0
 10
-3.46816124194
 20
17.1295538897
 30
0.0
  0
VERTEX
  8
0
 10
-3.41986977511
 20
17.1425125557
 30
0.0
  0
VERTEX
  8
0
 10
-3.37150291677
 20
17.1551869316
 30
0.0
  0
VERTEX
  8
0
 10
-3.32306234049
 20
17.1675765789
 30
0.0
  0
VERTEX
  8
0
 10
-3.27454972243
 20
17.179681069
 30
0.0
  0
VERTEX
  8
0
 10
-3.22596674121
 20
17.191499983
 30
0.0
  0
VERTEX
  8
0
 10
-3.1773150779
 20
17.2030329119
 30
0.0
  0
VERTEX
  8
0
 10
-3.12859641595
 20
17.2142794566
 30
0.0
  0
VERTEX
  8
0
 10
-3.07981244112
 20
17.2252392281
 30
0.0
  0
VERTEX
  8
0
 10
-3.03096484142
 20
17.235911847
 30
0.0
  0
VERTEX
  8
0
 10
-2.98205530709
 20
17.2462969442
 30
0.0
  0
VERTEX
  8
0
 10
-2.93308553048
 20
17.2563941601
 30
0.0
  0
VERTEX
  8
0
 10
-2.88405720606
 20
17.2662031456
 30
0.0
  0
VERTEX
  8
0
 10
-2.83497203029
 20
17.2757235611
 30
0.0
  0
VERTEX
  8
0
 10
-2.78583170162
 20
17.2849550772
 30
0.0
  0
VERTEX
  8
0
 10
-2.73663792041
 20
17.2938973745
 30
0.0
  0
VERTEX
  8
0
 10
-2.68739238885
 20
17.3025501436
 30
0.0
  0
VERTEX
  8
0
 10
-2.63809681094
 20
17.310913085
 30
0.0
  0
VERTEX
  8
0
 10
-2.5887528924
 20
17.3189859095
 30
0.0
  0
VERTEX
  8
0
 10
-2.53936234063
 20
17.3267683376
 30
0.0
  0
VERTEX
  8
0
 10
-2.48992686465
 20
17.3342601001
 30
0.0
  0
VERTEX
  8
0
 10
-2.440448175
 20
17.3414609377
 30
0.0
  0
VERTEX
  8
0
 10
-2.39092798377
 20
17.3483706013
 30
0.0
  0
VERTEX
  8
0
 10
-2.34136800444
 20
17.3549888518
 30
0.0
  0
VERTEX
  8
0
 10
-2.29176995188
 20
17.3613154602
 30
0.0
  0
VERTEX
  8
0
 10
-2.24213554229
 20
17.3673502076
 30
0.0
  0
VERTEX
  8
0
 10
-2.19246649311
 20
17.3730928851
 30
0.0
  0
VERTEX
  8
0
 10
-2.142764523
 20
17.3785432941
 30
0.0
  0
VERTEX
  8
0
 10
-2.09303135173
 20
17.3837012459
 30
0.0
  0
VERTEX
  8
0
 10
-2.04326870018
 20
17.3885665622
 30
0.0
  0
VERTEX
  8
0
 10
-1.99347829024
 20
17.3931390744
 30
0.0
  0
VERTEX
  8
0
 10
-1.94366184473
 20
17.3974186245
 30
0.0
  0
VERTEX
  8
0
 10
-1.89382108743
 20
17.4014050643
 30
0.0
  0
VERTEX
  8
0
 10
-1.84395774291
 20
17.4050982559
 30
0.0
  0
VERTEX
  8
0
 10
-1.79407353654
 20
17.4084980715
 30
0.0
  0
VERTEX
  8
0
 10
-1.74417019441
 20
17.4116043935
 30
0.0
  0
VERTEX
  8
0
 10
-1.69424944329
 20
17.4144171144
 30
0.0
  0
VERTEX
  8
0
 10
-1.64431301053
 20
17.4169361368
 30
0.0
  0
VERTEX
  8
0
 10
-1.59436262402
 20
17.4191613736
 30
0.0
  0
VERTEX
  8
0
 10
-1.54440001215
 20
17.4210927478
 30
0.0
  0
VERTEX
  8
0
 10
-1.49442690372
 20
17.4227301925
 30
0.0
  0
VERTEX
  8
0
 10
-1.4444450279
 20
17.4240736512
 30
0.0
  0
VERTEX
  8
0
 10
-1.39445611417
 20
17.4251230773
 30
0.0
  0
VERTEX
  8
0
 10
-1.34446189224
 20
17.4258784344
 30
0.0
  0
VERTEX
  8
0
 10
-1.294464092
 20
17.4263396966
 30
0.0
  0
VERTEX
  8
0
 10
-1.24446444348
 20
17.4265068478
 30
0.0
  0
VERTEX
  8
0
 10
-1.24104865229
 20
17.4265075341
 30
0.0
  0
SEQEND
  8
0
  0
POLYLINE
  8
0
 62
0
 70
0
 66
1
 10
0.0
 20
0.0
 30
0.0
  0
VERTEX
  8
0
 10
-9.8365376239
 20
0.086594855153
 30
0.0
  0
VERTEX
  8
0
 10
-9.83654803126
 20
0.0866054457568
 30
0.0
  0
SEQEND
  8
0
  0
POLYLINE
  8
0
 62
0
 70
0
 66
1
 10
0.0
 20
0.0
 30
0.0
  0
VERTEX
  8
0
 10
-9.83654803126
 20
0.0866054457568
 30
0.0
  0
VERTEX
  8
0
 10
-9.86682048997
 20
0.126237750468
 30
0.0
  0
VERTEX
  8
0
 10
-9.88640172653
 20
0.172103775142
 30
0.0
  0
VERTEX
  8
0
 10
-9.89406970706
 20
0.221381318632
 30
0.0
  0
VERTEX
  8
0
 10
-9.89412729639
 20
0.230816263369
 30
0.0
  0
SEQEND
  8
0
  0
POLYLINE
  8
0
 62
0
 70
0
 66
1
 10
0.0
 20
0.0
 30
0.0
  0
VERTEX
  8
0
 10
9.89874025935
 20
0.230816263369
 30
0.0
  0
VERTEX
  8
0
 10
9.8933991667
 20
0.18123262119
 30
0.0
  0
VERTEX
  8
0
 10
9.87599377557
 20
0.134497597057
 30
0.0
  0
VERTEX
  8
0
 10
9.84761420309
 20
0.093488593476
 30
0.0
  0
VERTEX
  8
0
 10
9.84116099421
 20
0.0866054457568
 30
0.0
  0
SEQEND
  8
0
  0
POLYLINE
  8
0
 62
0
 70
0
 66
1
 10
0.0
 20
0.0
 30
0.0
  0
VERTEX
  8
0
 10
9.84116099421
 20
0.0866054457568
 30
0.0
  0
VERTEX
  8
0
 10
9.84115058686
 20
0.086594855153
 30
0.0
  0
SEQEND
  8
0
  0
POLYLINE
  8
0
 62
0
 70
0
 66
1
 10
0.0
 20
0.0
 30
0.0
  0
VERTEX
  8
0
 10
9.05945922235
 20
0.0308676663893
 30
0.0
  0
VERTEX
  8
0
 10
9.10945046234
 20
0.0318028649445
 30
0.0
  0
VERTEX
  8
0
 10
9.15943909491
 20
0.0328682784578
 30
0.0
  0
VERTEX
  8
0
 10
9.20942455512
 20
0.034073273788
 30
0.0
  0
VERTEX
  8
0
 10
9.25940612795
 20
0.0354298428381
 30
0.0
  0
VERTEX
  8
0
 10
9.30938288131
 20
0.0369535005168
 30
0.0
  0
VERTEX
  8
0
 10
9.35935355852
 20
0.0386646668367
 30
0.0
  0
VERTEX
  8
0
 10
9.40931639652
 20
0.040590889263
 30
0.0
  0
VERTEX
  8
0
 10
9.45926879712
 20
0.0427706234787
 30
0.0
  0
VERTEX
  8
0
 10
9.50920668049
 20
0.0452601589028
 30
0.0
  0
VERTEX
  8
0
 10
9.55912305949
 20
0.0481476431395
 30
0.0
  0
VERTEX
  8
0
 10
9.60900433482
 20
0.0515858886612
 30
0.0
  0
VERTEX
  8
0
 10
9.65881775762
 20
0.0558889001867
 30
0.0
  0
VERTEX
  8
0
 10
9.70843867534
 20
0.061978805438
 30
0.0
  0
VERTEX
  8
0
 10
9.74154196244
 20
0.0708383000768
 30
0.0
  0
SEQEND
  8
0
  0
POLYLINE
  8
0
 62
0
 70
0
 66
1
 10
0.0
 20
0.0
 30
0.0
  0
VERTEX
  8
0
 10
9.05945922235
 20
0.0308676663893
 30
0.0
  0
VERTEX
  8
0
 10
9.05832902814
 20
-0.0191058669332
 30
0.0
  0
VERTEX
  8
0
 10
9.05281901329
 20
-0.068781402675
 30
0.0
  0
VERTEX
  8
0
 10
9.04137872736
 20
-0.117404827976
 30
0.0
  0
VERTEX
  8
0
 10
9.0180640092
 20
-0.161168567822
 30
0.0
  0
VERTEX
  8
0
 10
8.99976898953
 20
-0.170203961654
 30
0.0
  0
SEQEND
  8
0
  0
POLYLINE
  8
0
 62
0
 70
0
 66
1
 10
0.0
 20
0.0
 30
0.0
  0
VERTEX
  8
0
 10
8.99976898953
 20
-0.170203961654
 30
0.0
  0
VERTEX
  8
0
 10
8.9962782154
 20
-0.16996029417
 30
0.0
  0
SEQEND
  8
0
  0
POLYLINE
  8
0
 62
0
 70
0
 66
1
 10
0.0
 20
0.0
 30
0.0
  0
VERTEX
  8
0
 10
9.74154196244
 20
0.0708383000768
 30
0.0
  0
VERTEX
  8
0
 10
9.73631053343
 20
0.0212441498164
 30
0.0
  0
VERTEX
  8
0
 10
9.71893498385
 20
-0.025499745812
 30
0.0
  0
VERTEX
  8
0
 10
9.69048756713
 20
-0.0664584687903
 30
0.0
  0
VERTEX
  8
0
 10
9.68450173999
 20
-0.0728239432115
 30
0.0
  0
SEQEND
  8
0
  0
POLYLINE
  8
0
 62
0
 70
0
 66
1
 10
0.0
 20
0.0
 30
0.0
  0
VERTEX
  8
0
 10
9.68450173999
 20
-0.0728239432115
 30
0.0
  0
VERTEX
  8
0
 10
9.6844986004
 20
-0.0728271382406
 30
0.0
  0
SEQEND
  8
0
  0
POLYLINE
  8
0
 62
0
 70
0
 66
1
 10
0.0
 20
0.0
 30
0.0
  0
VERTEX
  8
0
 10
-8.99553283223
 20
-0.170164717096
 30
0.0
  0
VERTEX
  8
0
 10
-8.99515551117
 20
-0.170174871745
 30
0.0
  0
SEQEND
  8
0
  0
POLYLINE
  8
0
 62
0
 70
0
 66
1
 10
0.0
 20
0.0
 30
0.0
  0
VERTEX
  8
0
 10
-8.99515551117
 20
-0.170174871745
 30
0.0
  0
VERTEX
  8
0
 10
-8.9947815498
 20
-0.170177896699
 30
0.0
  0
SEQEND
  8
0
  0
POLYLINE
  8
0
 62
0
 70
0
 66
1
 10
0.0
 20
0.0
 30
0.0
  0
VERTEX
  8
0
 10
-9.18303463237
 20
-0.165022847915
 30
0.0
  0
VERTEX
  8
0
 10
-9.13306072481
 20
-0.166636135233
 30
0.0
  0
VERTEX
  8
0
 10
-9.08307938029
 20
-0.168000175836
 30
0.0
  0
VERTEX
  8
0
 10
-9.03309243627
 20
-0.169141079537
 30
0.0
  0
VERTEX
  8
0
 10
-8.99166525244
 20
-0.169931276292
 30
0.0
  0
SEQEND
  8
0
  0
POLYLINE
  8
0
 62
0
 70
0
 66
1
 10
0.0
 20
0.0
 30
0.0
  0
VERTEX
  8
0
 10
8.9962782154
 20
-0.16996029417
 30
0.0
  0
VERTEX
  8
0
 10
8.94628430907
 20
-0.170739040385
 30
0.0
  0
VERTEX
  8
0
 10
8.89628790588
 20
-0.171336588063
 30
0.0
  0
VERTEX
  8
0
 10
8.84628972924
 20
-0.171760752218
 30
0.0
  0
VERTEX
  8
0
 10
8.79629040795
 20
-0.172016817075
 30
0.0
  0
VERTEX
  8
0
 10
8.74629051331
 20
-0.172107880033
 30
0.0
  0
VERTEX
  8
0
 10
8.74351467568
 20
-0.172108132361
 30
0.0
  0
SEQEND
  8
0
  0
POLYLINE
  8
0
 62
0
 70
0
 66
1
 10
0.0
 20
0.0
 30
0.0
  0
VERTEX
  8
0
 10
1.24566161524
 20
17.2665295708
 30
0.0
  0
VERTEX
  8
0
 10
1.29566131573
 20
17.2663796918
 30
0.0
  0
VERTEX
  8
0
 10
1.34565921912
 20
17.26593006
 30
0.0
  0
VERTEX
  8
0
 10
1.39565352838
 20
17.2651806918
 30
0.0
  0
VERTEX
  8
0
 10
1.44564244663
 20
17.2641316139
 30
0.0
  0
VERTEX
  8
0
 10
1.49562417716
 20
17.2627828642
 30
0.0
  0
VERTEX
  8
0
 10
1.54559692351
 20
17.261134491
 30
0.0
  0
VERTEX
  8
0
 10
1.59555888957
 20
17.2591865537
 30
0.0
  0
VERTEX
  8
0
 10
1.64550827959
 20
17.2569391222
 30
0.0
  0
VERTEX
  8
0
 10
1.6954432983
 20
17.2543922774
 30
0.0
  0
VERTEX
  8
0
 10
1.74536215092
 20
17.2515461107
 30
0.0
  0
VERTEX
  8
0
 10
1.79526304327
 20
17.2484007244
 30
0.0
  0
VERTEX
  8
0
 10
1.84514418181
 20
17.2449562317
 30
0.0
  0
VERTEX
  8
0
 10
1.89500377371
 20
17.2412127563
 30
0.0
  0
VERTEX
  8
0
 10
1.9448400269
 20
17.2371704327
 30
0.0
  0
VERTEX
  8
0
 10
1.99465115018
 20
17.2328294063
 30
0.0
  0
VERTEX
  8
0
 10
2.04443535322
 20
17.2281898331
 30
0.0
  0
VERTEX
  8
0
 10
2.09419084668
 20
17.2232518798
 30
0.0
  0
VERTEX
  8
0
 10
2.14391584224
 20
17.218015724
 30
0.0
  0
VERTEX
  8
0
 10
2.19360855268
 20
17.2124815537
 30
0.0
  0
VERTEX
  8
0
 10
2.24326719196
 20
17.206649568
 30
0.0
  0
VERTEX
  8
0
 10
2.29288997522
 20
17.2005199763
 30
0.0
  0
VERTEX
  8
0
 10
2.34247511893
 20
17.1940929992
 30
0.0
  0
VERTEX
  8
0
 10
2.39202084089
 20
17.1873688674
 30
0.0
  0
VERTEX
  8
0
 10
2.44152536033
 20
17.1803478228
 30
0.0
  0
VERTEX
  8
0
 10
2.49098689794
 20
17.1730301177
 30
0.0
  0
VERTEX
  8
0
 10
2.540403676
 20
17.1654160151
 30
0.0
  0
VERTEX
  8
0
 10
2.58977391834
 20
17.1575057886
 30
0.0
  0
VERTEX
  8
0
 10
2.6390958505
 20
17.1492997226
 30
0.0
  0
VERTEX
  8
0
 10
2.68836769976
 20
17.1407981119
 30
0.0
  0
VERTEX
  8
0
 10
2.73758769517
 20
17.1320012623
 30
0.0
  0
VERTEX
  8
0
 10
2.78675406767
 20
17.1229094898
 30
0.0
  0
VERTEX
  8
0
 10
2.83586505012
 20
17.1135231212
 30
0.0
  0
VERTEX
  8
0
 10
2.88491887736
 20
17.1038424939
 30
0.0
  0
VERTEX
  8
0
 10
2.93391378631
 20
17.0938679559
 30
0.0
  0
VERTEX
  8
0
 10
2.98284801598
 20
17.0835998656
 30
0.0
  0
VERTEX
  8
0
 10
3.03171980757
 20
17.073038592
 30
0.0
  0
VERTEX
  8
0
 10
3.08052740454
 20
17.0621845149
 30
0.0
  0
VERTEX
  8
0
 10
3.12926905264
 20
17.0510380243
 30
0.0
  0
VERTEX
  8
0
 10
3.17794299998
 20
17.0395995208
 30
0.0
  0
VERTEX
  8
0
 10
3.22654749713
 20
17.0278694156
 30
0.0
  0
VERTEX
  8
0
 10
3.27508079715
 20
17.0158481302
 30
0.0
  0
VERTEX
  8
0
 10
3.32354115563
 20
17.0035360968
 30
0.0
  0
VERTEX
  8
0
 10
3.37192683083
 20
16.9909337578
 30
0.0
  0
VERTEX
  8
0
 10
3.42023608365
 20
16.9780415662
 30
0.0
  0
VERTEX
  8
0
 10
3.46846717777
 20
16.9648599854
 30
0.0
  0
VERTEX
  8
0
 10
3.51661837966
 20
16.9513894892
 30
0.0
  0
VERTEX
  8
0
 10
3.56468795866
 20
16.9376305616
 30
0.0
  0
VERTEX
  8
0
 10
3.61267418705
 20
16.9235836973
 30
0.0
  0
VERTEX
  8
0
 10
3.66057534011
 20
16.9092494012
 30
0.0
  0
VERTEX
  8
0
 10
3.70838969618
 20
16.8946281883
 30
0.0
  0
VERTEX
  8
0
 10
3.7561155367
 20
16.8797205842
 30
0.0
  0
VERTEX
  8
0
 10
3.80375114631
 20
16.8645271248
 30
0.0
  0
VERTEX
  8
0
 10
3.85129481289
 20
16.8490483561
 30
0.0
  0
VERTEX
  8
0
 10
3.89874482762
 20
16.8332848345
 30
0.0
  0
VERTEX
  8
0
 10
3.94609948504
 20
16.8172371265
 30
0.0
  0
VERTEX
  8
0
 10
3.99335708315
 20
16.8009058089
 30
0.0
  0
VERTEX
  8
0
 10
4.04051592339
 20
16.7842914687
 30
0.0
  0
VERTEX
  8
0
 10
4.08757431078
 20
16.7673947031
 30
0.0
  0
VERTEX
  8
0
 10
4.13453055395
 20
16.7502161194
 30
0.0
  0
VERTEX
  8
0
 10
4.18138296519
 20
16.7327563349
 30
0.0
  0
VERTEX
  8
0
 10
4.22812986052
 20
16.7150159773
 30
0.0
  0
VERTEX
  8
0
 10
4.27476955978
 20
16.6969956842
 30
0.0
  0
VERTEX
  8
0
 10
4.32130038663
 20
16.6786961032
 30
0.0
  0
VERTEX
  8
0
 10
4.36772066865
 20
16.660117892
 30
0.0
  0
VERTEX
  8
0
 10
4.41402873742
 20
16.6412617185
 30
0.0
  0
VERTEX
  8
0
 10
4.46022292851
 20
16.6221282603
 30
0.0
  0
VERTEX
  8
0
 10
4.50630158161
 20
16.6027182052
 30
0.0
  0
VERTEX
  8
0
 10
4.55226304056
 20
16.5830322508
 30
0.0
  0
VERTEX
  8
0
 10
4.59810565342
 20
16.5630711045
 30
0.0
  0
VERTEX
  8
0
 10
4.6438277725
 20
16.542835484
 30
0.0
  0
VERTEX
  8
0
 10
4.68942775445
 20
16.5223261164
 30
0.0
  0
VERTEX
  8
0
 10
4.73490396032
 20
16.501543739
 30
0.0
  0
VERTEX
  8
0
 10
4.78025475561
 20
16.4804890987
 30
0.0
  0
VERTEX
  8
0
 10
4.82547851029
 20
16.4591629522
 30
0.0
  0
VERTEX
  8
0
 10
4.87057359895
 20
16.437566066
 30
0.0
  0
VERTEX
  8
0
 10
4.91553840077
 20
16.4156992165
 30
0.0
  0
VERTEX
  8
0
 10
4.96037129963
 20
16.3935631895
 30
0.0
  0
VERTEX
  8
0
 10
5.00507068413
 20
16.3711587806
 30
0.0
  0
VERTEX
  8
0
 10
5.04963494769
 20
16.3484867951
 30
0.0
  0
VERTEX
  8
0
 10
5.09406248857
 20
16.3255480479
 30
0.0
  0
VERTEX
  8
0
 10
5.13835170996
 20
16.3023433634
 30
0.0
  0
VERTEX
  8
0
 10
5.18250102001
 20
16.2788735758
 30
0.0
  0
VERTEX
  8
0
 10
5.22650883191
 20
16.2551395284
 30
0.0
  0
VERTEX
  8
0
 10
5.27037356392
 20
16.2311420744
 30
0.0
  0
VERTEX
  8
0
 10
5.31409363945
 20
16.2068820763
 30
0.0
  0
VERTEX
  8
0
 10
5.35766748711
 20
16.1823604061
 30
0.0
  0
VERTEX
  8
0
 10
5.40109354078
 20
16.157577945
 30
0.0
  0
VERTEX
  8
0
 10
5.44437023962
 20
16.1325355839
 30
0.0
  0
VERTEX
  8
0
 10
5.48749602818
 20
16.1072342228
 30
0.0
  0
VERTEX
  8
0
 10
5.53046935643
 20
16.0816747711
 30
0.0
  0
VERTEX
  8
0
 10
5.57328867983
 20
16.0558581475
 30
0.0
  0
VERTEX
  8
0
 10
5.61595245935
 20
16.0297852798
 30
0.0
  0
VERTEX
  8
0
 10
5.65845916158
 20
16.0034571052
 30
0.0
  0
VERTEX
  8
0
 10
5.70080725872
 20
15.97687457
 30
0.0
  0
VERTEX
  8
0
 10
5.74299522872
 20
15.9500386295
 30
0.0
  0
VERTEX
  8
0
 10
5.78502155523
 20
15.9229502484
 30
0.0
  0
VERTEX
  8
0
 10
5.82688472776
 20
15.8956104002
 30
0.0
  0
VERTEX
  8
0
 10
5.86858324164
 20
15.8680200677
 30
0.0
  0
VERTEX
  8
0
 10
5.91011559816
 20
15.8401802423
 30
0.0
  0
VERTEX
  8
0
 10
5.95148030454
 20
15.8120919249
 30
0.0
  0
VERTEX
  8
0
 10
5.99267587406
 20
15.7837561248
 30
0.0
  0
VERTEX
  8
0
 10
6.03370082606
 20
15.7551738606
 30
0.0
  0
VERTEX
  8
0
 10
6.07455368603
 20
15.7263461597
 30
0.0
  0
VERTEX
  8
0
 10
6.11523298562
 20
15.697274058
 30
0.0
  0
VERTEX
  8
0
 10
6.15573726274
 20
15.6679586005
 30
0.0
  0
VERTEX
  8
0
 10
6.19606506157
 20
15.6384008409
 30
0.0
  0
VERTEX
  8
0
 10
6.23621493266
 20
15.6086018415
 30
0.0
  0
VERTEX
  8
0
 10
6.27618543294
 20
15.5785626734
 30
0.0
  0
VERTEX
  8
0
 10
6.31597512578
 20
15.5482844163
 30
0.0
  0
VERTEX
  8
0
 10
6.35558258105
 20
15.5177681583
 30
0.0
  0
VERTEX
  8
0
 10
6.3950063752
 20
15.4870149964
 30
0.0
  0
VERTEX
  8
0
 10
6.43424509123
 20
15.4560260359
 30
0.0
  0
VERTEX
  8
0
 10
6.47329731884
 20
15.4248023905
 30
0.0
  0
VERTEX
  8
0
 10
6.5121616544
 20
15.3933451825
 30
0.0
  0
VERTEX
  8
0
 10
6.55083670104
 20
15.3616555426
 30
0.0
  0
VERTEX
  8
0
 10
6.58932106872
 20
15.3297346097
 30
0.0
  0
VERTEX
  8
0
 10
6.62761337422
 20
15.2975835311
 30
0.0
  0
VERTEX
  8
0
 10
6.66571224123
 20
15.2652034625
 30
0.0
  0
VERTEX
  8
0
 10
6.7036163004
 20
15.2325955676
 30
0.0
  0
VERTEX
  8
0
 10
6.74132418939
 20
15.1997610184
 30
0.0
  0
VERTEX
  8
0
 10
6.77883455289
 20
15.1667009951
 30
0.0
  0
VERTEX
  8
0
 10
6.8161460427
 20
15.1334166859
 30
0.0
  0
VERTEX
  8
0
 10
6.85325731778
 20
15.0999092871
 30
0.0
  0
VERTEX
  8
0
 10
6.89016704425
 20
15.066180003
 30
0.0
  0
VERTEX
  8
0
 10
6.92687389553
 20
15.032230046
 30
0.0
  0
VERTEX
  8
0
 10
6.96337655227
 20
14.9980606362
 30
0.0
  0
VERTEX
  8
0
 10
6.99967370251
 20
14.9636730019
 30
0.0
  0
VERTEX
  8
0
 10
7.03576404164
 20
14.9290683789
 30
0.0
  0
VERTEX
  8
0
 10
7.07164627251
 20
14.894248011
 30
0.0
  0
VERTEX
  8
0
 10
7.10731910543
 20
14.8592131497
 30
0.0
  0
VERTEX
  8
0
 10
7.14278125825
 20
14.8239650543
 30
0.0
  0
VERTEX
  8
0
 10
7.17803145639
 20
14.7885049917
 30
0.0
  0
VERTEX
  8
0
 10
7.21306843287
 20
14.7528342363
 30
0.0
  0
VERTEX
  8
0
 10
7.24789092841
 20
14.7169540702
 30
0.0
  0
VERTEX
  8
0
 10
7.2824976914
 20
14.6808657831
 30
0.0
  0
VERTEX
  8
0
 10
7.316887478
 20
14.644570672
 30
0.0
  0
VERTEX
  8
0
 10
7.35105905219
 20
14.6080700415
 30
0.0
  0
VERTEX
  8
0
 10
7.38501118576
 20
14.5713652034
 30
0.0
  0
VERTEX
  8
0
 10
7.41874265839
 20
14.534457477
 30
0.0
  0
VERTEX
  8
0
 10
7.45225225772
 20
14.4973481889
 30
0.0
  0
VERTEX
  8
0
 10
7.48553877933
 20
14.4600386728
 30
0.0
  0
VERTEX
  8
0
 10
7.51860102685
 20
14.4225302697
 30
0.0
  0
VERTEX
  8
0
 10
7.55143781194
 20
14.3848243278
 30
0.0
  0
VERTEX
  8
0
 10
7.58404795438
 20
14.3469222022
 30
0.0
  0
VERTEX
  8
0
 10
7.6164302821
 20
14.3088252553
 30
0.0
  0
VERTEX
  8
0
 10
7.64858363121
 20
14.2705348563
 30
0.0
  0
VERTEX
  8
0
 10
7.68050684605
 20
14.2320523816
 30
0.0
  0
VERTEX
  8
0
 10
7.71219877923
 20
14.1933792141
 30
0.0
  0
VERTEX
  8
0
 10
7.74365829169
 20
14.1545167439
 30
0.0
  0
VERTEX
  8
0
 10
7.77488425269
 20
14.1154663678
 30
0.0
  0
VERTEX
  8
0
 10
7.80587553993
 20
14.0762294894
 30
0.0
  0
VERTEX
  8
0
 10
7.83663103949
 20
14.0368075189
 30
0.0
  0
VERTEX
  8
0
 10
7.86714964598
 20
13.9972018732
 30
0.0
  0
VERTEX
  8
0
 10
7.89743026248
 20
13.9574139759
 30
0.0
  0
VERTEX
  8
0
 10
7.92747180065
 20
13.9174452569
 30
0.0
  0
VERTEX
  8
0
 10
7.95727318073
 20
13.8772971528
 30
0.0
  0
VERTEX
  8
0
 10
7.9868333316
 20
13.8369711068
 30
0.0
  0
VERTEX
  8
0
 10
8.01615119081
 20
13.796468568
 30
0.0
  0
VERTEX
  8
0
 10
8.04522570461
 20
13.7557909924
 30
0.0
  0
VERTEX
  8
0
 10
8.074055828
 20
13.7149398419
 30
0.0
  0
VERTEX
  8
0
 10
8.10264052478
 20
13.6739165848
 30
0.0
  0
VERTEX
  8
0
 10
8.13097876754
 20
13.6327226956
 30
0.0
  0
VERTEX
  8
0
 10
8.15906953775
 20
13.5913596548
 30
0.0
  0
VERTEX
  8
0
 10
8.18691182577
 20
13.5498289492
 30
0.0
  0
VERTEX
  8
0
 10
8.2145046309
 20
13.5081320714
 30
0.0
  0
VERTEX
  8
0
 10
8.24184696138
 20
13.4662705201
 30
0.0
  0
VERTEX
  8
0
 10
8.26893783449
 20
13.4242458
 30
0.0
  0
VERTEX
  8
0
 10
8.29577627651
 20
13.3820594213
 30
0.0
  0
VERTEX
  8
0
 10
8.32236132282
 20
13.3397129005
 30
0.0
  0
VERTEX
  8
0
 10
8.34869201789
 20
13.2972077595
 30
0.0
  0
VERTEX
  8
0
 10
8.37476741536
 20
13.2545455261
 30
0.0
  0
VERTEX
  8
0
 10
8.400586578
 20
13.2117277337
 30
0.0
  0
VERTEX
  8
0
 10
8.42614857783
 20
13.1687559211
 30
0.0
  0
VERTEX
  8
0
 10
8.45145249611
 20
13.1256316329
 30
0.0
  0
VERTEX
  8
0
 10
8.47649742334
 20
13.0823564191
 30
0.0
  0
VERTEX
  8
0
 10
8.50128245937
 20
13.038931835
 30
0.0
  0
VERTEX
  8
0
 10
8.52580671337
 20
12.9953594415
 30
0.0
  0
VERTEX
  8
0
 10
8.55006930389
 20
12.9516408046
 30
0.0
  0
VERTEX
  8
0
 10
8.57406935888
 20
12.9077774956
 30
0.0
  0
VERTEX
  8
0
 10
8.59780601572
 20
12.8637710911
 30
0.0
  0
VERTEX
  8
0
 10
8.62127842129
 20
12.8196231728
 30
0.0
  0
VERTEX
  8
0
 10
8.64448573191
 20
12.7753353275
 30
0.0
  0
VERTEX
  8
0
 10
8.66742711349
 20
12.7309091469
 30
0.0
  0
VERTEX
  8
0
 10
8.69010174146
 20
12.6863462278
 30
0.0
  0
VERTEX
  8
0
 10
8.71250880084
 20
12.6416481719
 30
0.0
  0
VERTEX
  8
0
 10
8.73464748627
 20
12.5968165857
 30
0.0
  0
VERTEX
  8
0
 10
8.75651700206
 20
12.5518530806
 30
0.0
  0
VERTEX
  8
0
 10
8.77811656216
 20
12.5067592727
 30
0.0
  0
VERTEX
  8
0
 10
8.79944539024
 20
12.4615367826
 30
0.0
  0
VERTEX
  8
0
 10
8.82050271969
 20
12.4161872359
 30
0.0
  0
VERTEX
  8
0
 10
8.84128779368
 20
12.3707122624
 30
0.0
  0
VERTEX
  8
0
 10
8.86179986515
 20
12.3251134967
 30
0.0
  0
VERTEX
  8
0
 10
8.88203819684
 20
12.2793925776
 30
0.0
  0
VERTEX
  8
0
 10
8.90200206136
 20
12.2335511485
 30
0.0
  0
VERTEX
  8
0
 10
8.92169074115
 20
12.1875908569
 30
0.0
  0
VERTEX
  8
0
 10
8.94110352857
 20
12.1415133548
 30
0.0
  0
VERTEX
  8
0
 10
8.96023972589
 20
12.0953202984
 30
0.0
  0
VERTEX
  8
0
 10
8.97909864529
 20
12.0490133478
 30
0.0
  0
VERTEX
  8
0
 10
8.99767960897
 20
12.0025941675
 30
0.0
  0
VERTEX
  8
0
 10
9.01598194907
 20
11.9560644259
 30
0.0
  0
VERTEX
  8
0
 10
9.03400500779
 20
11.9094257952
 30
0.0
  0
VERTEX
  8
0
 10
9.05174813732
 20
11.8626799519
 30
0.0
  0
VERTEX
  8
0
 10
9.06921069994
 20
11.8158285761
 30
0.0
  0
VERTEX
  8
0
 10
9.08639206802
 20
11.7688733516
 30
0.0
  0
VERTEX
  8
0
 10
9.10329162402
 20
11.7218159662
 30
0.0
  0
VERTEX
  8
0
 10
9.11990876054
 20
11.6746581113
 30
0.0
  0
VERTEX
  8
0
 10
9.13624288031
 20
11.6274014816
 30
0.0
  0
VERTEX
  8
0
 10
9.15229339626
 20
11.5800477759
 30
0.0
  0
VERTEX
  8
0
 10
9.16805973151
 20
11.532598696
 30
0.0
  0
VERTEX
  8
0
 10
9.18354131937
 20
11.4850559473
 30
0.0
  0
VERTEX
  8
0
 10
9.1987376034
 20
11.4374212387
 30
0.0
  0
VERTEX
  8
0
 10
9.21364803743
 20
11.3896962822
 30
0.0
  0
VERTEX
  8
0
 10
9.22827208553
 20
11.3418827933
 30
0.0
  0
VERTEX
  8
0
 10
9.24260922209
 20
11.2939824903
 30
0.0
  0
VERTEX
  8
0
 10
9.2566589318
 20
11.2459970949
 30
0.0
  0
VERTEX
  8
0
 10
9.27042070969
 20
11.1979283318
 30
0.0
  0
VERTEX
  8
0
 10
9.28389406113
 20
11.1497779288
 30
0.0
  0
VERTEX
  8
0
 10
9.29707850186
 20
11.1015476164
 30
0.0
  0
VERTEX
  8
0
 10
9.309973558
 20
11.0532391281
 30
0.0
  0
VERTEX
  8
0
 10
9.32257876608
 20
11.0048542003
 30
0.0
  0
VERTEX
  8
0
 10
9.33489367304
 20
10.9563945719
 30
0.0
  0
VERTEX
  8
0
 10
9.34691783626
 20
10.9078619848
 30
0.0
  0
VERTEX
  8
0
 10
9.35865082357
 20
10.8592581833
 30
0.0
  0
VERTEX
  8
0
 10
9.37009221325
 20
10.8105849143
 30
0.0
  0
VERTEX
  8
0
 10
9.38124159408
 20
10.7618439273
 30
0.0
  0
VERTEX
  8
0
 10
9.39209856533
 20
10.713036974
 30
0.0
  0
VERTEX
  8
0
 10
9.40266273678
 20
10.6641658088
 30
0.0
  0
VERTEX
  8
0
 10
9.41293372872
 20
10.615232188
 30
0.0
  0
VERTEX
  8
0
 10
9.422911172
 20
10.5662378706
 30
0.0
  0
VERTEX
  8
0
 10
9.43259470801
 20
10.5171846175
 30
0.0
  0
VERTEX
  8
0
 10
9.4419839887
 20
10.4680741917
 30
0.0
  0
VERTEX
  8
0
 10
9.4510786766
 20
10.4189083584
 30
0.0
  0
VERTEX
  8
0
 10
9.45987844482
 20
10.3696888847
 30
0.0
  0
VERTEX
  8
0
 10
9.4683829771
 20
10.3204175397
 30
0.0
  0
VERTEX
  8
0
 10
9.47659196775
 20
10.2710960942
 30
0.0
  0
VERTEX
  8
0
 10
9.48450512173
 20
10.221726321
 30
0.0
  0
VERTEX
  8
0
 10
9.49212215462
 20
10.1723099945
 30
0.0
  0
VERTEX
  8
0
 10
9.49944279265
 20
10.1228488909
 30
0.0
  0
VERTEX
  8
0
 10
9.50646677271
 20
10.0733447879
 30
0.0
  0
VERTEX
  8
0
 10
9.51319384233
 20
10.0237994647
 30
0.0
  0
VERTEX
  8
0
 10
9.51962375973
 20
9.97421470222
 30
0.0
  0
VERTEX
  8
0
 10
9.52575629381
 20
9.92459228251
 30
0.0
  0
VERTEX
  8
0
 10
9.53159122415
 20
9.87493398914
 30
0.0
  0
VERTEX
  8
0
 10
9.53712834103
 20
9.82524160694
 30
0.0
  0
VERTEX
  8
0
 10
9.54236744544
 20
9.77551692196
 30
0.0
  0
VERTEX
  8
0
 10
9.54730834907
 20
9.72576172139
 30
0.0
  0
VERTEX
  8
0
 10
9.55195087433
 20
9.67597779355
 30
0.0
  0
VERTEX
  8
0
 10
9.55629485437
 20
9.62616692777
 30
0.0
  0
VERTEX
  8
0
 10
9.56034013304
 20
9.57633091436
 30
0.0
  0
VERTEX
  8
0
 10
9.56408656497
 20
9.52647154453
 30
0.0
  0
VERTEX
  8
0
 10
9.56753401548
 20
9.47659061033
 30
0.0
  0
VERTEX
  8
0
 10
9.57068236068
 20
9.42668990458
 30
0.0
  0
VERTEX
  8
0
 10
9.5735314874
 20
9.37677122081
 30
0.0
  0
VERTEX
  8
0
 10
9.57608129325
 20
9.32683635321
 30
0.0
  0
VERTEX
  8
0
 10
9.57833168657
 20
9.27688709654
 30
0.0
  0
VERTEX
  8
0
 10
9.58028258648
 20
9.22692524608
 30
0.0
  0
VERTEX
  8
0
 10
9.58193392286
 20
9.17695259756
 30
0.0
  0
VERTEX
  8
0
 10
9.58328563637
 20
9.1269709471
 30
0.0
  0
VERTEX
  8
0
 10
9.58433767841
 20
9.07698209114
 30
0.0
  0
VERTEX
  8
0
 10
9.5844252386
 20
9.07204938042
 30
0.0
  0
SEQEND
  8
0
  0
POLYLINE
  8
0
 62
0
 70
0
 66
1
 10
0.0
 20
0.0
 30
0.0
  0
VERTEX
  8
0
 10
-9.57981227564
 20
9.07204938042
 30
0.0
  0
VERTEX
  8
0
 10
-9.57878980434
 20
9.12203884995
 30
0.0
  0
VERTEX
  8
0
 10
-9.57746765736
 20
9.17202129126
 30
0.0
  0
VERTEX
  8
0
 10
-9.57584588223
 20
9.22199490788
 30
0.0
  0
VERTEX
  8
0
 10
-9.57392453723
 20
9.27195790364
 30
0.0
  0
VERTEX
  8
0
 10
-9.57170369143
 20
9.32190848277
 30
0.0
  0
VERTEX
  8
0
 10
-9.56918342465
 20
9.37184484996
 30
0.0
  0
VERTEX
  8
0
 10
-9.56636382747
 20
9.42176521037
 30
0.0
  0
VERTEX
  8
0
 10
-9.56324500123
 20
9.47166776977
 30
0.0
  0
VERTEX
  8
0
 10
-9.55982705803
 20
9.52155073456
 30
0.0
  0
VERTEX
  8
0
 10
-9.55611012072
 20
9.57141231185
 30
0.0
  0
VERTEX
  8
0
 10
-9.55209432289
 20
9.62125070949
 30
0.0
  0
VERTEX
  8
0
 10
-9.54777980887
 20
9.6710641362
 30
0.0
  0
VERTEX
  8
0
 10
-9.54316673375
 20
9.72085080159
 30
0.0
  0
VERTEX
  8
0
 10
-9.53825526332
 20
9.7706089162
 30
0.0
  0
VERTEX
  8
0
 10
-9.53304557411
 20
9.82033669165
 30
0.0
  0
VERTEX
  8
0
 10
-9.52753785338
 20
9.87003234059
 30
0.0
  0
VERTEX
  8
0
 10
-9.52173229907
 20
9.91969407688
 30
0.0
  0
VERTEX
  8
0
 10
-9.51562911985
 20
9.96932011557
 30
0.0
  0
VERTEX
  8
0
 10
-9.50922853509
 20
10.018908673
 30
0.0
  0
VERTEX
  8
0
 10
-9.50253077482
 20
10.0684579668
 30
0.0
  0
VERTEX
  8
0
 10
-9.4955360798
 20
10.1179662162
 30
0.0
  0
VERTEX
  8
0
 10
-9.48824470141
 20
10.1674316416
 30
0.0
  0
VERTEX
  8
0
 10
-9.48065690172
 20
10.2168524652
 30
0.0
  0
VERTEX
  8
0
 10
-9.47277295347
 20
10.2662269108
 30
0.0
  0
VERTEX
  8
0
 10
-9.46459314
 20
10.3155532036
 30
0.0
  0
VERTEX
  8
0
 10
-9.45611775533
 20
10.3648295708
 30
0.0
  0
VERTEX
  8
0
 10
-9.44734710407
 20
10.4140542413
 30
0.0
  0
VERTEX
  8
0
 10
-9.43828150146
 20
10.4632254459
 30
0.0
  0
VERTEX
  8
0
 10
-9.42892127333
 20
10.5123414173
 30
0.0
  0
VERTEX
  8
0
 10
-9.41926675612
 20
10.5614003901
 30
0.0
  0
VERTEX
  8
0
 10
-9.40931829683
 20
10.610400601
 30
0.0
  0
VERTEX
  8
0
 10
-9.39907625302
 20
10.6593402889
 30
0.0
  0
VERTEX
  8
0
 10
-9.38854099281
 20
10.7082176947
 30
0.0
  0
VERTEX
  8
0
 10
-9.37771289486
 20
10.7570310618
 30
0.0
  0
VERTEX
  8
0
 10
-9.36659234836
 20
10.8057786357
 30
0.0
  0
VERTEX
  8
0
 10
-9.35517975301
 20
10.8544586642
 30
0.0
  0
VERTEX
  8
0
 10
-9.34347551899
 20
10.9030693978
 30
0.0
  0
VERTEX
  8
0
 10
-9.33148006698
 20
10.9516090892
 30
0.0
  0
VERTEX
  8
0
 10
-9.31919382812
 20
11.0000759939
 30
0.0
  0
VERTEX
  8
0
 10
-9.306617244
 20
11.0484683698
 30
0.0
  0
VERTEX
  8
0
 10
-9.29375076666
 20
11.0967844776
 30
0.0
  0
VERTEX
  8
0
 10
-9.28059485854
 20
11.1450225807
 30
0.0
  0
VERTEX
  8
0
 10
-9.26714999248
 20
11.1931809454
 30
0.0
  0
VERTEX
  8
0
 10
-9.25341665174
 20
11.2412578407
 30
0.0
  0
VERTEX
  8
0
 10
-9.2393953299
 20
11.2892515387
 30
0.0
  0
VERTEX
  8
0
 10
-9.22508653093
 20
11.3371603143
 30
0.0
  0
VERTEX
  8
0
 10
-9.21049076912
 20
11.3849824457
 30
0.0
  0
VERTEX
  8
0
 10
-9.19560856906
 20
11.432716214
 30
0.0
  0
VERTEX
  8
0
 10
-9.18044046566
 20
11.4803599035
 30
0.0
  0
VERTEX
  8
0
 10
-9.16498700408
 20
11.5279118018
 30
0.0
  0
VERTEX
  8
0
 10
-9.14924873976
 20
11.5753701999
 30
0.0
  0
VERTEX
  8
0
 10
-9.13322623836
 20
11.622733392
 30
0.0
  0
VERTEX
  8
0
 10
-9.11692007577
 20
11.6699996757
 30
0.0
  0
VERTEX
  8
0
 10
-9.10033083805
 20
11.7171673521
 30
0.0
  0
VERTEX
  8
0
 10
-9.08345912147
 20
11.7642347261
 30
0.0
  0
VERTEX
  8
0
 10
-9.06630553243
 20
11.8112001058
 30
0.0
  0
VERTEX
  8
0
 10
-9.04887068745
 20
11.8580618034
 30
0.0
  0
VERTEX
  8
0
 10
-9.0311552132
 20
11.9048181343
 30
0.0
  0
VERTEX
  8
0
 10
-9.01315974639
 20
11.9514674182
 30
0.0
  0
VERTEX
  8
0
 10
-8.99488493382
 20
11.9980079783
 30
0.0
  0
VERTEX
  8
0
 10
-8.97633143233
 20
12.0444381419
 30
0.0
  0
VERTEX
  8
0
 10
-8.95749990877
 20
12.0907562403
 30
0.0
  0
VERTEX
  8
0
 10
-8.93839103998
 20
12.1369606085
 30
0.0
  0
VERTEX
  8
0
 10
-8.91900551277
 20
12.183049586
 30
0.0
  0
VERTEX
  8
0
 10
-8.89934402391
 20
12.2290215162
 30
0.0
  0
VERTEX
  8
0
 10
-8.87940728006
 20
12.2748747468
 30
0.0
  0
VERTEX
  8
0
 10
-8.85919599779
 20
12.3206076298
 30
0.0
  0
VERTEX
  8
0
 10
-8.83871090354
 20
12.3662185213
 30
0.0
  0
VERTEX
  8
0
 10
-8.81795273358
 20
12.4117057821
 30
0.0
  0
VERTEX
  8
0
 10
-8.79692223401
 20
12.4570677772
 30
0.0
  0
VERTEX
  8
0
 10
-8.7756201607
 20
12.5023028762
 30
0.0
  0
VERTEX
  8
0
 10
-8.7540472793
 20
12.5474094533
 30
0.0
  0
VERTEX
  8
0
 10
-8.73220436518
 20
12.5923858873
 30
0.0
  0
VERTEX
  8
0
 10
-8.71009220342
 20
12.6372305616
 30
0.0
  0
VERTEX
  8
0
 10
-8.68771158878
 20
12.6819418645
 30
0.0
  0
VERTEX
  8
0
 10
-8.66506332566
 20
12.7265181888
 30
0.0
  0
VERTEX
  8
0
 10
-8.64214822809
 20
12.7709579324
 30
0.0
  0
VERTEX
  8
0
 10
-8.61896711968
 20
12.8152594981
 30
0.0
  0
VERTEX
  8
0
 10
-8.59552083361
 20
12.8594212936
 30
0.0
  0
VERTEX
  8
0
 10
-8.57181021259
 20
12.9034417317
 30
0.0
  0
VERTEX
  8
0
 10
-8.54783610883
 20
12.94731923
 30
0.0
  0
VERTEX
  8
0
 10
-8.52359938401
 20
12.9910522116
 30
0.0
  0
VERTEX
  8
0
 10
-8.49910090923
 20
13.0346391047
 30
0.0
  0
VERTEX
  8
0
 10
-8.47434156504
 20
13.0780783426
 30
0.0
  0
VERTEX
  8
0
 10
-8.44932224134
 20
13.121368364
 30
0.0
  0
VERTEX
  8
0
 10
-8.42404383736
 20
13.164507613
 30
0.0
  0
VERTEX
  8
0
 10
-8.39850726167
 20
13.207494539
 30
0.0
  0
VERTEX
  8
0
 10
-8.3727134321
 20
13.2503275972
 30
0.0
  0
VERTEX
  8
0
 10
-8.34666327574
 20
13.2930052478
 30
0.0
  0
VERTEX
  8
0
 10
-8.32035772888
 20
13.3355259571
 30
0.0
  0
VERTEX
  8
0
 10
-8.29379773701
 20
13.3778881967
 30
0.0
  0
VERTEX
  8
0
 10
-8.26698425474
 20
13.420090444
 30
0.0
  0
VERTEX
  8
0
 10
-8.2399182458
 20
13.4621311823
 30
0.0
  0
VERTEX
  8
0
 10
-8.212600683
 20
13.5040089004
 30
0.0
  0
VERTEX
  8
0
 10
-8.18503254819
 20
13.5457220932
 30
0.0
  0
VERTEX
  8
0
 10
-8.15721483223
 20
13.5872692615
 30
0.0
  0
VERTEX
  8
0
 10
-8.12914853494
 20
13.6286489119
 30
0.0
  0
VERTEX
  8
0
 10
-8.10083466509
 20
13.6698595572
 30
0.0
  0
VERTEX
  8
0
 10
-8.07227424034
 20
13.7108997162
 30
0.0
  0
VERTEX
  8
0
 10
-8.04346828719
 20
13.7517679138
 30
0.0
  0
VERTEX
  8
0
 10
-8.01441784101
 20
13.7924626811
 30
0.0
  0
VERTEX
  8
0
 10
-7.98512394592
 20
13.8329825555
 30
0.0
  0
VERTEX
  8
0
 10
-7.9555876548
 20
13.8733260807
 30
0.0
  0
VERTEX
  8
0
 10
-7.92581002926
 20
13.9134918065
 30
0.0
  0
VERTEX
  8
0
 10
-7.89579213956
 20
13.9534782893
 30
0.0
  0
VERTEX
  8
0
 10
-7.8655350646
 20
13.993284092
 30
0.0
  0
VERTEX
  8
0
 10
-7.8350398919
 20
14.0329077838
 30
0.0
  0
VERTEX
  8
0
 10
-7.8043077175
 20
14.0723479406
 30
0.0
  0
VERTEX
  8
0
 10
-7.77333964598
 20
14.1116031448
 30
0.0
  0
VERTEX
  8
0
 10
-7.74213679041
 20
14.1506719856
 30
0.0
  0
VERTEX
  8
0
 10
-7.71070027228
 20
14.1895530586
 30
0.0
  0
VERTEX
  8
0
 10
-7.67903122147
 20
14.2282449664
 30
0.0
  0
VERTEX
  8
0
 10
-7.64713077625
 20
14.2667463185
 30
0.0
  0
VERTEX
  8
0
 10
-7.61500008318
 20
14.3050557308
 30
0.0
  0
VERTEX
  8
0
 10
-7.58264029711
 20
14.3431718266
 30
0.0
  0
VERTEX
  8
0
 10
-7.5500525811
 20
14.3810932358
 30
0.0
  0
VERTEX
  8
0
 10
-7.51723810644
 20
14.4188185955
 30
0.0
  0
VERTEX
  8
0
 10
-7.48419805254
 20
14.4563465498
 30
0.0
  0
VERTEX
  8
0
 10
-7.45093360692
 20
14.4936757497
 30
0.0
  0
VERTEX
  8
0
 10
-7.4174459652
 20
14.5308048537
 30
0.0
  0
VERTEX
  8
0
 10
-7.38373633096
 20
14.5677325273
 30
0.0
  0
VERTEX
  8
0
 10
-7.34980591582
 20
14.6044574431
 30
0.0
  0
VERTEX
  8
0
 10
-7.3156559393
 20
14.6409782812
 30
0.0
  0
VERTEX
  8
0
 10
-7.28128762883
 20
14.6772937289
 30
0.0
  0
VERTEX
  8
0
 10
-7.24670221966
 20
14.7134024811
 30
0.0
  0
VERTEX
  8
0
 10
-7.21190095488
 20
14.7493032399
 30
0.0
  0
VERTEX
  8
0
 10
-7.1768850853
 20
14.7849947149
 30
0.0
  0
VERTEX
  8
0
 10
-7.14165586948
 20
14.8204756234
 30
0.0
  0
VERTEX
  8
0
 10
-7.10621457362
 20
14.85574469
 30
0.0
  0
VERTEX
  8
0
 10
-7.07056247157
 20
14.8908006471
 30
0.0
  0
VERTEX
  8
0
 10
-7.03470084472
 20
14.9256422348
 30
0.0
  0
VERTEX
  8
0
 10
-6.99863098202
 20
14.9602682008
 30
0.0
  0
VERTEX
  8
0
 10
-6.96235417989
 20
14.9946773004
 30
0.0
  0
VERTEX
  8
0
 10
-6.9258717422
 20
15.0288682971
 30
0.0
  0
VERTEX
  8
0
 10
-6.88918498021
 20
15.0628399618
 30
0.0
  0
VERTEX
  8
0
 10
-6.85229521251
 20
15.0965910737
 30
0.0
  0
VERTEX
  8
0
 10
-6.81520376499
 20
15.1301204195
 30
0.0
  0
VERTEX
  8
0
 10
-6.7779119708
 20
15.1634267943
 30
0.0
  0
VERTEX
  8
0
 10
-6.74042117028
 20
15.1965090008
 30
0.0
  0
VERTEX
  8
0
 10
-6.70273271094
 20
15.2293658501
 30
0.0
  0
VERTEX
  8
0
 10
-6.66484794736
 20
15.2619961611
 30
0.0
  0
VERTEX
  8
0
 10
-6.62676824122
 20
15.2943987612
 30
0.0
  0
VERTEX
  8
0
 10
-6.58849496116
 20
15.3265724857
 30
0.0
  0
VERTEX
  8
0
 10
-6.55002948282
 20
15.3585161782
 30
0.0
  0
VERTEX
  8
0
 10
-6.51137318872
 20
15.3902286905
 30
0.0
  0
VERTEX
  8
0
 10
-6.47252746825
 20
15.4217088829
 30
0.0
  0
VERTEX
  8
0
 10
-6.4334937176
 20
15.4529556239
 30
0.0
  0
VERTEX
  8
0
 10
-6.39427333973
 20
15.4839677904
 30
0.0
  0
VERTEX
  8
0
 10
-6.3548677443
 20
15.5147442678
 30
0.0
  0
VERTEX
  8
0
 10
-6.31527834762
 20
15.5452839499
 30
0.0
  0
VERTEX
  8
0
 10
-6.27550657263
 20
15.575585739
 30
0.0
  0
VERTEX
  8
0
 10
-6.23555384881
 20
15.6056485461
 30
0.0
  0
VERTEX
  8
0
 10
-6.19542161213
 20
15.6354712907
 30
0.0
  0
VERTEX
  8
0
 10
-6.15511130503
 20
15.6650529007
 30
0.0
  0
VERTEX
  8
0
 10
-6.11462437635
 20
15.6943923131
 30
0.0
  0
VERTEX
  8
0
 10
-6.07396228127
 20
15.7234884732
 30
0.0
  0
VERTEX
  8
0
 10
-6.03312648127
 20
15.7523403354
 30
0.0
  0
VERTEX
  8
0
 10
-5.99211844408
 20
15.7809468626
 30
0.0
  0
VERTEX
  8
0
 10
-5.95093964361
 20
15.8093070266
 30
0.0
  0
VERTEX
  8
0
 10
-5.90959155991
 20
15.8374198082
 30
0.0
  0
VERTEX
  8
0
 10
-5.86807567911
 20
15.8652841968
 30
0.0
  0
VERTEX
  8
0
 10
-5.82639349339
 20
15.892899191
 30
0.0
  0
VERTEX
  8
0
 10
-5.78454650088
 20
15.9202637983
 30
0.0
  0
VERTEX
  8
0
 10
-5.74253620566
 20
15.947377035
 30
0.0
  0
VERTEX
  8
0
 10
-5.70036411765
 20
15.9742379268
 30
0.0
  0
VERTEX
  8
0
 10
-5.65803175262
 20
16.0008455081
 30
0.0
  0
VERTEX
  8
0
 10
-5.61554063208
 20
16.0271988226
 30
0.0
  0
VERTEX
  8
0
 10
-5.57289228324
 20
16.0532969232
 30
0.0
  0
VERTEX
  8
0
 10
-5.53008823898
 20
16.0791388718
 30
0.0
  0
VERTEX
  8
0
 10
-5.48713003775
 20
16.1047237396
 30
0.0
  0
VERTEX
  8
0
 10
-5.44401922357
 20
16.130050607
 30
0.0
  0
VERTEX
  8
0
 10
-5.40075734594
 20
16.1551185637
 30
0.0
  0
VERTEX
  8
0
 10
-5.35734595976
 20
16.1799267088
 30
0.0
  0
VERTEX
  8
0
 10
-5.31378662534
 20
16.2044741506
 30
0.0
  0
VERTEX
  8
0
 10
-5.27008090829
 20
16.2287600067
 30
0.0
  0
VERTEX
  8
0
 10
-5.22623037947
 20
16.2527834044
 30
0.0
  0
VERTEX
  8
0
 10
-5.18223661498
 20
16.2765434801
 30
0.0
  0
VERTEX
  8
0
 10
-5.13810119604
 20
16.3000393799
 30
0.0
  0
VERTEX
  8
0
 10
-5.09382570896
 20
16.3232702592
 30
0.0
  0
VERTEX
  8
0
 10
-5.04941174511
 20
16.3462352832
 30
0.0
  0
VERTEX
  8
0
 10
-5.0048609008
 20
16.3689336264
 30
0.0
  0
VERTEX
  8
0
 10
-4.96017477729
 20
16.391364473
 30
0.0
  0
VERTEX
  8
0
 10
-4.91535498069
 20
16.4135270167
 30
0.0
  0
VERTEX
  8
0
 10
-4.87040312191
 20
16.435420461
 30
0.0
  0
VERTEX
  8
0
 10
-4.82532081663
 20
16.4570440191
 30
0.0
  0
VERTEX
  8
0
 10
-4.78010968518
 20
16.4783969136
 30
0.0
  0
VERTEX
  8
0
 10
-4.73477135256
 20
16.4994783772
 30
0.0
  0
VERTEX
  8
0
 10
-4.68930744831
 20
16.5202876521
 30
0.0
  0
VERTEX
  8
0
 10
-4.6437196065
 20
16.5408239904
 30
0.0
  0
VERTEX
  8
0
 10
-4.59800946566
 20
16.561086654
 30
0.0
  0
VERTEX
  8
0
 10
-4.5521786687
 20
16.5810749146
 30
0.0
  0
VERTEX
  8
0
 10
-4.50622886287
 20
16.6007880538
 30
0.0
  0
VERTEX
  8
0
 10
-4.46016169971
 20
16.6202253631
 30
0.0
  0
VERTEX
  8
0
 10
-4.41397883496
 20
16.6393861437
 30
0.0
  0
VERTEX
  8
0
 10
-4.36768192854
 20
16.6582697072
 30
0.0
  0
VERTEX
  8
0
 10
-4.32127264444
 20
16.6768753746
 30
0.0
  0
VERTEX
  8
0
 10
-4.27475265072
 20
16.6952024774
 30
0.0
  0
VERTEX
  8
0
 10
-4.2281236194
 20
16.7132503568
 30
0.0
  0
VERTEX
  8
0
 10
-4.18138722643
 20
16.7310183641
 30
0.0
  0
VERTEX
  8
0
 10
-4.13454515159
 20
16.7485058607
 30
0.0
  0
VERTEX
  8
0
 10
-4.08759907851
 20
16.7657122181
 30
0.0
  0
VERTEX
  8
0
 10
-4.04055069451
 20
16.7826368178
 30
0.0
  0
VERTEX
  8
0
 10
-3.99340169062
 20
16.7992790515
 30
0.0
  0
VERTEX
  8
0
 10
-3.94615376146
 20
16.8156383211
 30
0.0
  0
VERTEX
  8
0
 10
-3.89880860522
 20
16.8317140386
 30
0.0
  0
VERTEX
  8
0
 10
-3.8513679236
 20
16.8475056262
 30
0.0
  0
VERTEX
  8
0
 10
-3.80383342169
 20
16.8630125163
 30
0.0
  0
VERTEX
  8
0
 10
-3.756206808
 20
16.8782341516
 30
0.0
  0
VERTEX
  8
0
 10
-3.70848979431
 20
16.8931699849
 30
0.0
  0
VERTEX
  8
0
 10
-3.66068409569
 20
16.9078194795
 30
0.0
  0
VERTEX
  8
0
 10
-3.61279143036
 20
16.9221821087
 30
0.0
  0
VERTEX
  8
0
 10
-3.56481351968
 20
16.9362573565
 30
0.0
  0
VERTEX
  8
0
 10
-3.51675208809
 20
16.9500447168
 30
0.0
  0
VERTEX
  8
0
 10
-3.46860886301
 20
16.9635436942
 30
0.0
  0
VERTEX
  8
0
 10
-3.4203855748
 20
16.9767538035
 30
0.0
  0
VERTEX
  8
0
 10
-3.37208395671
 20
16.9896745698
 30
0.0
  0
VERTEX
  8
0
 10
-3.3237057448
 20
17.0023055288
 30
0.0
  0
VERTEX
  8
0
 10
-3.27525267789
 20
17.0146462264
 30
0.0
  0
VERTEX
  8
0
 10
-3.22672649747
 20
17.0266962192
 30
0.0
  0
VERTEX
  8
0
 10
-3.17812894768
 20
17.038455074
 30
0.0
  0
VERTEX
  8
0
 10
-3.12946177522
 20
17.0499223683
 30
0.0
  0
VERTEX
  8
0
 10
-3.08072672928
 20
17.0610976897
 30
0.0
  0
VERTEX
  8
0
 10
-3.03192556151
 20
17.0719806367
 30
0.0
  0
VERTEX
  8
0
 10
-2.98306002591
 20
17.0825708181
 30
0.0
  0
VERTEX
  8
0
 10
-2.93413187881
 20
17.0928678534
 30
0.0
  0
VERTEX
  8
0
 10
-2.88514287881
 20
17.1028713723
 30
0.0
  0
VERTEX
  8
0
 10
-2.83609478665
 20
17.1125810153
 30
0.0
  0
VERTEX
  8
0
 10
-2.78698936523
 20
17.1219964335
 30
0.0
  0
VERTEX
  8
0
 10
-2.73782837951
 20
17.1311172884
 30
0.0
  0
VERTEX
  8
0
 10
-2.68861359642
 20
17.1399432522
 30
0.0
  0
VERTEX
  8
0
 10
-2.63934678486
 20
17.1484740078
 30
0.0
  0
VERTEX
  8
0
 10
-2.59002971556
 20
17.1567092484
 30
0.0
  0
VERTEX
  8
0
 10
-2.5406641611
 20
17.1646486781
 30
0.0
  0
VERTEX
  8
0
 10
-2.49125189576
 20
17.1722920116
 30
0.0
  0
VERTEX
  8
0
 10
-2.44179469553
 20
17.1796389741
 30
0.0
  0
VERTEX
  8
0
 10
-2.392294338
 20
17.1866893015
 30
0.0
  0
VERTEX
  8
0
 10
-2.34275260232
 20
17.1934427404
 30
0.0
  0
VERTEX
  8
0
 10
-2.29317126912
 20
17.1998990482
 30
0.0
  0
VERTEX
  8
0
 10
-2.24355212046
 20
17.2060579928
 30
0.0
  0
VERTEX
  8
0
 10
-2.19389693974
 20
17.2119193527
 30
0.0
  0
VERTEX
  8
0
 10
-2.14420751169
 20
17.2174829174
 30
0.0
  0
VERTEX
  8
0
 10
-2.09448562224
 20
17.2227484868
 30
0.0
  0
VERTEX
  8
0
 10
-2.0447330585
 20
17.2277158717
 30
0.0
  0
VERTEX
  8
0
 10
-1.99495160867
 20
17.2323848936
 30
0.0
  0
VERTEX
  8
0
 10
-1.94514306202
 20
17.2367553847
 30
0.0
  0
VERTEX
  8
0
 10
-1.89530920875
 20
17.2408271878
 30
0.0
  0
VERTEX
  8
0
 10
-1.84545184
 20
17.2446001567
 30
0.0
  0
VERTEX
  8
0
 10
-1.79557274776
 20
17.2480741556
 30
0.0
  0
VERTEX
  8
0
 10
-1.74567372477
 20
17.2512490598
 30
0.0
  0
VERTEX
  8
0
 10
-1.69575656451
 20
17.2541247551
 30
0.0
  0
VERTEX
  8
0
 10
-1.6458230611
 20
17.2567011383
 30
0.0
  0
VERTEX
  8
0
 10
-1.59587500927
 20
17.2589781165
 30
0.0
  0
VERTEX
  8
0
 10
-1.54591420424
 20
17.2609556082
 30
0.0
  0
VERTEX
  8
0
 10
-1.49594244172
 20
17.2626335421
 30
0.0
  0
VERTEX
  8
0
 10
-1.44596151778
 20
17.2640118579
 30
0.0
  0
VERTEX
  8
0
 10
-1.39597322885
 20
17.2650905062
 30
0.0
  0
VERTEX
  8
0
 10
-1.34597937162
 20
17.2658694481
 30
0.0
  0
VERTEX
  8
0
 10
-1.29598174295
 20
17.2663486556
 30
0.0
  0
VERTEX
  8
0
 10
-1.24598213988
 20
17.2665281116
 30
0.0
  0
VERTEX
  8
0
 10
-1.24104865229
 20
17.2665295708
 30
0.0
  0
SEQEND
  8
0
  0
POLYLINE
  8
0
 62
0
 70
0
 66
1
 10
0.0
 20
0.0
 30
0.0
  0
VERTEX
  8
0
 10
8.58594779996
 20
9.05461722392
 30
0.0
  0
VERTEX
  8
0
 10
8.58490494582
 20
9.10460625063
 30
0.0
  0
VERTEX
  8
0
 10
8.58352165894
 20
9.15458701547
 30
0.0
  0
VERTEX
  8
0
 10
8.58179800347
 20
9.20455720006
 30
0.0
  0
VERTEX
  8
0
 10
8.57973405937
 20
9.25451448653
 30
0.0
  0
VERTEX
  8
0
 10
8.57732992237
 20
9.30445655759
 30
0.0
  0
VERTEX
  8
0
 10
8.57458570399
 20
9.35438109666
 30
0.0
  0
VERTEX
  8
0
 10
8.57150153153
 20
9.40428578799
 30
0.0
  0
VERTEX
  8
0
 10
8.56807754804
 20
9.45416831673
 30
0.0
  0
VERTEX
  8
0
 10
8.56431391234
 20
9.50402636907
 30
0.0
  0
VERTEX
  8
0
 10
8.56021079902
 20
9.55385763232
 30
0.0
  0
VERTEX
  8
0
 10
8.55576839839
 20
9.60365979506
 30
0.0
  0
VERTEX
  8
0
 10
8.55098691652
 20
9.65343054718
 30
0.0
  0
VERTEX
  8
0
 10
8.54586657519
 20
9.70316758008
 30
0.0
  0
VERTEX
  8
0
 10
8.54040761193
 20
9.75286858667
 30
0.0
  0
VERTEX
  8
0
 10
8.53461027993
 20
9.80253126157
 30
0.0
  0
VERTEX
  8
0
 10
8.52847484812
 20
9.85215330116
 30
0.0
  0
VERTEX
  8
0
 10
8.52200160109
 20
9.9017324037
 30
0.0
  0
VERTEX
  8
0
 10
8.51519083909
 20
9.95126626947
 30
0.0
  0
VERTEX
  8
0
 10
8.50804287806
 20
10.0007526008
 30
0.0
  0
VERTEX
  8
0
 10
8.50055804954
 20
10.0501891023
 30
0.0
  0
VERTEX
  8
0
 10
8.49273670073
 20
10.0995734808
 30
0.0
  0
VERTEX
  8
0
 10
8.48457919441
 20
10.1489034456
 30
0.0
  0
VERTEX
  8
0
 10
8.47608590899
 20
10.1981767085
 30
0.0
  0
VERTEX
  8
0
 10
8.46725723841
 20
10.247390984
 30
0.0
  0
VERTEX
  8
0
 10
8.45809359221
 20
10.2965439892
 30
0.0
  0
VERTEX
  8
0
 10
8.44859539544
 20
10.3456334443
 30
0.0
  0
VERTEX
  8
0
 10
8.43876308867
 20
10.394657072
 30
0.0
  0
VERTEX
  8
0
 10
8.42859712799
 20
10.4436125986
 30
0.0
  0
VERTEX
  8
0
 10
8.41809798493
 20
10.4924977531
 30
0.0
  0
VERTEX
  8
0
 10
8.40726614652
 20
10.541310268
 30
0.0
  0
VERTEX
  8
0
 10
8.39610211517
 20
10.5900478792
 30
0.0
  0
VERTEX
  8
0
 10
8.38460640875
 20
10.6387083258
 30
0.0
  0
VERTEX
  8
0
 10
8.37277956048
 20
10.6872893509
 30
0.0
  0
VERTEX
  8
0
 10
8.36062211895
 20
10.7357887009
 30
0.0
  0
VERTEX
  8
0
 10
8.34813464809
 20
10.7842041262
 30
0.0
  0
VERTEX
  8
0
 10
8.33531772714
 20
10.8325333811
 30
0.0
  0
VERTEX
  8
0
 10
8.32217195061
 20
10.8807742237
 30
0.0
  0
VERTEX
  8
0
 10
8.30869792827
 20
10.9289244164
 30
0.0
  0
VERTEX
  8
0
 10
8.29489628511
 20
10.9769817257
 30
0.0
  0
VERTEX
  8
0
 10
8.28076766134
 20
11.0249439226
 30
0.0
  0
VERTEX
  8
0
 10
8.26631271231
 20
11.0728087822
 30
0.0
  0
VERTEX
  8
0
 10
8.25153210851
 20
11.1205740843
 30
0.0
  0
VERTEX
  8
0
 10
8.23642653555
 20
11.1682376134
 30
0.0
  0
VERTEX
  8
0
 10
8.22099669411
 20
11.2157971585
 30
0.0
  0
VERTEX
  8
0
 10
8.2052432999
 20
11.2632505136
 30
0.0
  0
VERTEX
  8
0
 10
8.18916708365
 20
11.3105954775
 30
0.0
  0
VERTEX
  8
0
 10
8.17276879105
 20
11.3578298541
 30
0.0
  0
VERTEX
  8
0
 10
8.15604918275
 20
11.4049514525
 30
0.0
  0
VERTEX
  8
0
 10
8.13900903429
 20
11.4519580869
 30
0.0
  0
VERTEX
  8
0
 10
8.12164913608
 20
11.4988475769
 30
0.0
  0
VERTEX
  8
0
 10
8.10397029337
 20
11.5456177474
 30
0.0
  0
VERTEX
  8
0
 10
8.08597332619
 20
11.5922664292
 30
0.0
  0
VERTEX
  8
0
 10
8.06765906934
 20
11.6387914583
 30
0.0
  0
VERTEX
  8
0
 10
8.04902837232
 20
11.6851906767
 30
0.0
  0
VERTEX
  8
0
 10
8.03008209934
 20
11.7314619321
 30
0.0
  0
VERTEX
  8
0
 10
8.01082112921
 20
11.7776030782
 30
0.0
  0
VERTEX
  8
0
 10
7.99124635536
 20
11.8236119748
 30
0.0
  0
VERTEX
  8
0
 10
7.97135868577
 20
11.8694864877
 30
0.0
  0
VERTEX
  8
0
 10
7.95115904294
 20
11.915224489
 30
0.0
  0
VERTEX
  8
0
 10
7.93064836384
 20
11.9608238572
 30
0.0
  0
VERTEX
  8
0
 10
7.90982759985
 20
12.0062824771
 30
0.0
  0
VERTEX
  8
0
 10
7.88869771676
 20
12.0515982401
 30
0.0
  0
VERTEX
  8
0
 10
7.86725969467
 20
12.0967690442
 30
0.0
  0
VERTEX
  8
0
 10
7.845514528
 20
12.1417927942
 30
0.0
  0
VERTEX
  8
0
 10
7.8234632254
 20
12.1866674016
 30
0.0
  0
VERTEX
  8
0
 10
7.80110680973
 20
12.2313907849
 30
0.0
  0
VERTEX
  8
0
 10
7.778446318
 20
12.2759608696
 30
0.0
  0
VERTEX
  8
0
 10
7.75548280131
 20
12.3203755884
 30
0.0
  0
VERTEX
  8
0
 10
7.73221732484
 20
12.3646328809
 30
0.0
  0
VERTEX
  8
0
 10
7.70865096777
 20
12.4087306943
 30
0.0
  0
VERTEX
  8
0
 10
7.68478482322
 20
12.4526669832
 30
0.0
  0
VERTEX
  8
0
 10
7.66061999823
 20
12.4964397095
 30
0.0
  0
VERTEX
  8
0
 10
7.6361576137
 20
12.5400468429
 30
0.0
  0
VERTEX
  8
0
 10
7.61139880431
 20
12.5834863605
 30
0.0
  0
VERTEX
  8
0
 10
7.58634471851
 20
12.6267562475
 30
0.0
  0
VERTEX
  8
0
 10
7.56099651845
 20
12.6698544968
 30
0.0
  0
VERTEX
  8
0
 10
7.53535537991
 20
12.7127791092
 30
0.0
  0
VERTEX
  8
0
 10
7.50942249225
 20
12.7555280937
 30
0.0
  0
VERTEX
  8
0
 10
7.48319905838
 20
12.7980994673
 30
0.0
  0
VERTEX
  8
0
 10
7.45668629468
 20
12.8404912554
 30
0.0
  0
VERTEX
  8
0
 10
7.42988543095
 20
12.8827014916
 30
0.0
  0
VERTEX
  8
0
 10
7.40279771037
 20
12.924728218
 30
0.0
  0
VERTEX
  8
0
 10
7.37542438939
 20
12.9665694851
 30
0.0
  0
VERTEX
  8
0
 10
7.34776673774
 20
13.0082233522
 30
0.0
  0
VERTEX
  8
0
 10
7.31982603832
 20
13.0496878871
 30
0.0
  0
VERTEX
  8
0
 10
7.29160358718
 20
13.0909611664
 30
0.0
  0
VERTEX
  8
0
 10
7.26310069341
 20
13.1320412757
 30
0.0
  0
VERTEX
  8
0
 10
7.23431867914
 20
13.1729263096
 30
0.0
  0
VERTEX
  8
0
 10
7.20525887942
 20
13.2136143714
 30
0.0
  0
VERTEX
  8
0
 10
7.1759226422
 20
13.2541035739
 30
0.0
  0
VERTEX
  8
0
 10
7.14631132825
 20
13.2943920391
 30
0.0
  0
VERTEX
  8
0
 10
7.1164263111
 20
13.334477898
 30
0.0
  0
VERTEX
  8
0
 10
7.08626897697
 20
13.3743592913
 30
0.0
  0
VERTEX
  8
0
 10
7.05584072472
 20
13.4140343692
 30
0.0
  0
VERTEX
  8
0
 10
7.02514296577
 20
13.4535012912
 30
0.0
  0
VERTEX
  8
0
 10
6.99417712405
 20
13.4927582266
 30
0.0
  0
VERTEX
  8
0
 10
6.96294463591
 20
13.5318033547
 30
0.0
  0
VERTEX
  8
0
 10
6.93144695007
 20
13.5706348641
 30
0.0
  0
VERTEX
  8
0
 10
6.89968552758
 20
13.6092509537
 30
0.0
  0
VERTEX
  8
0
 10
6.86766184169
 20
13.6476498323
 30
0.0
  0
VERTEX
  8
0
 10
6.83537737783
 20
13.6858297188
 30
0.0
  0
VERTEX
  8
0
 10
6.80283363352
 20
13.7237888421
 30
0.0
  0
VERTEX
  8
0
 10
6.77003211831
 20
13.7615254415
 30
0.0
  0
VERTEX
  8
0
 10
6.73697435371
 20
13.7990377666
 30
0.0
  0
VERTEX
  8
0
 10
6.70366187311
 20
13.8363240774
 30
0.0
  0
VERTEX
  8
0
 10
6.67009622172
 20
13.8733826443
 30
0.0
  0
VERTEX
  8
0
 10
6.6362789565
 20
13.9102117484
 30
0.0
  0
VERTEX
  8
0
 10
6.60221164606
 20
13.9468096814
 30
0.0
  0
VERTEX
  8
0
 10
6.56789587062
 20
13.9831747456
 30
0.0
  0
VERTEX
  8
0
 10
6.53333322194
 20
14.0193052542
 30
0.0
  0
VERTEX
  8
0
 10
6.49852530321
 20
14.0551995313
 30
0.0
  0
VERTEX
  8
0
 10
6.463473729
 20
14.090855912
 30
0.0
  0
VERTEX
  8
0
 10
6.4281801252
 20
14.1262727422
 30
0.0
  0
VERTEX
  8
0
 10
6.39264612889
 20
14.1614483793
 30
0.0
  0
VERTEX
  8
0
 10
6.35687338835
 20
14.1963811915
 30
0.0
  0
VERTEX
  8
0
 10
6.32086356289
 20
14.2310695586
 30
0.0
  0
VERTEX
  8
0
 10
6.28461832285
 20
14.2655118714
 30
0.0
  0
VERTEX
  8
0
 10
6.24813934946
 20
14.2997065323
 30
0.0
  0
VERTEX
  8
0
 10
6.21142833481
 20
14.3336519553
 30
0.0
  0
VERTEX
  8
0
 10
6.17448698176
 20
14.3673465657
 30
0.0
  0
VERTEX
  8
0
 10
6.13731700383
 20
14.4007888006
 30
0.0
  0
VERTEX
  8
0
 10
6.09992012518
 20
14.4339771088
 30
0.0
  0
VERTEX
  8
0
 10
6.06229808045
 20
14.4669099509
 30
0.0
  0
VERTEX
  8
0
 10
6.02445261476
 20
14.4995857992
 30
0.0
  0
VERTEX
  8
0
 10
5.98638548359
 20
14.5320031381
 30
0.0
  0
VERTEX
  8
0
 10
5.94809845268
 20
14.5641604639
 30
0.0
  0
VERTEX
  8
0
 10
5.909593298
 20
14.5960562849
 30
0.0
  0
VERTEX
  8
0
 10
5.8708718056
 20
14.6276891217
 30
0.0
  0
VERTEX
  8
0
 10
5.8319357716
 20
14.6590575069
 30
0.0
  0
VERTEX
  8
0
 10
5.79278700206
 20
14.6901599856
 30
0.0
  0
VERTEX
  8
0
 10
5.7534273129
 20
14.720995115
 30
0.0
  0
VERTEX
  8
0
 10
5.71385852984
 20
14.7515614649
 30
0.0
  0
VERTEX
  8
0
 10
5.67408248827
 20
14.7818576173
 30
0.0
  0
VERTEX
  8
0
 10
5.63410103323
 20
14.8118821671
 30
0.0
  0
VERTEX
  8
0
 10
5.59391601927
 20
14.8416337215
 30
0.0
  0
VERTEX
  8
0
 10
5.55352931036
 20
14.8711109005
 30
0.0
  0
VERTEX
  8
0
 10
5.51294277988
 20
14.9003123367
 30
0.0
  0
VERTEX
  8
0
 10
5.47215831042
 20
14.9292366758
 30
0.0
  0
VERTEX
  8
0
 10
5.4311777938
 20
14.9578825759
 30
0.0
  0
VERTEX
  8
0
 10
5.39000313089
 20
14.9862487083
 30
0.0
  0
VERTEX
  8
0
 10
5.34863623161
 20
15.0143337574
 30
0.0
  0
VERTEX
  8
0
 10
5.30707901476
 20
15.0421364203
 30
0.0
  0
VERTEX
  8
0
 10
5.26533340798
 20
15.0696554074
 30
0.0
  0
VERTEX
  8
0
 10
5.22340134767
 20
15.0968894422
 30
0.0
  0
VERTEX
  8
0
 10
5.18128477884
 20
15.1238372616
 30
0.0
  0
VERTEX
  8
0
 10
5.13898565509
 20
15.1504976154
 30
0.0
  0
VERTEX
  8
0
 10
5.09650593847
 20
15.1768692671
 30
0.0
  0
VERTEX
  8
0
 10
5.05384759941
 20
15.2029509933
 30
0.0
  0
VERTEX
  8
0
 10
5.01101261664
 20
15.2287415844
 30
0.0
  0
VERTEX
  8
0
 10
4.96800297706
 20
15.2542398439
 30
0.0
  0
VERTEX
  8
0
 10
4.92482067569
 20
15.2794445892
 30
0.0
  0
VERTEX
  8
0
 10
4.88146771555
 20
15.3043546511
 30
0.0
  0
VERTEX
  8
0
 10
4.83794610758
 20
15.3289688742
 30
0.0
  0
VERTEX
  8
0
 10
4.79425787054
 20
15.3532861166
 30
0.0
  0
VERTEX
  8
0
 10
4.75040503093
 20
15.3773052505
 30
0.0
  0
VERTEX
  8
0
 10
4.70638962286
 20
15.4010251618
 30
0.0
  0
VERTEX
  8
0
 10
4.662213688
 20
15.4244447501
 30
0.0
  0
VERTEX
  8
0
 10
4.61787927547
 20
15.4475629291
 30
0.0
  0
VERTEX
  8
0
 10
4.57338844173
 20
15.4703786265
 30
0.0
  0
VERTEX
  8
0
 10
4.5287432505
 20
15.4928907841
 30
0.0
  0
VERTEX
  8
0
 10
4.48394577266
 20
15.5150983574
 30
0.0
  0
VERTEX
  8
0
 10
4.43899808614
 20
15.5370003166
 30
0.0
  0
VERTEX
  8
0
 10
4.39390227587
 20
15.5585956455
 30
0.0
  0
VERTEX
  8
0
 10
4.34866043362
 20
15.5798833426
 30
0.0
  0
VERTEX
  8
0
 10
4.30327465794
 20
15.6008624203
 30
0.0
  0
VERTEX
  8
0
 10
4.25774705408
 20
15.6215319056
 30
0.0
  0
VERTEX
  8
0
 10
4.21207973383
 20
15.6418908397
 30
0.0
  0
VERTEX
  8
0
 10
4.16627481549
 20
15.6619382783
 30
0.0
  0
VERTEX
  8
0
 10
4.12033442373
 20
15.6816732913
 30
0.0
  0
VERTEX
  8
0
 10
4.07426068951
 20
15.7010949636
 30
0.0
  0
VERTEX
  8
0
 10
4.02805574998
 20
15.720202394
 30
0.0
  0
VERTEX
  8
0
 10
3.98172174835
 20
15.7389946964
 30
0.0
  0
VERTEX
  8
0
 10
3.93526083385
 20
15.7574709991
 30
0.0
  0
VERTEX
  8
0
 10
3.88867516157
 20
15.775630445
 30
0.0
  0
VERTEX
  8
0
 10
3.84196689242
 20
15.7934721918
 30
0.0
  0
VERTEX
  8
0
 10
3.79513819295
 20
15.8109954119
 30
0.0
  0
VERTEX
  8
0
 10
3.74819123533
 20
15.8281992924
 30
0.0
  0
VERTEX
  8
0
 10
3.70112819722
 20
15.8450830355
 30
0.0
  0
VERTEX
  8
0
 10
3.65395126163
 20
15.8616458579
 30
0.0
  0
VERTEX
  8
0
 10
3.60666261689
 20
15.8778869913
 30
0.0
  0
VERTEX
  8
0
 10
3.5592644565
 20
15.8938056825
 30
0.0
  0
VERTEX
  8
0
 10
3.51175897902
 20
15.9094011929
 30
0.0
  0
VERTEX
  8
0
 10
3.46414838802
 20
15.9246727992
 30
0.0
  0
VERTEX
  8
0
 10
3.41643489191
 20
15.9396197931
 30
0.0
  0
VERTEX
  8
0
 10
3.36862070392
 20
15.9542414812
 30
0.0
  0
VERTEX
  8
0
 10
3.3207080419
 20
15.9685371853
 30
0.0
  0
VERTEX
  8
0
 10
3.27269912831
 20
15.9825062422
 30
0.0
  0
VERTEX
  8
0
 10
3.22459619004
 20
15.9961480041
 30
0.0
  0
VERTEX
  8
0
 10
3.17640145837
 20
16.0094618381
 30
0.0
  0
VERTEX
  8
0
 10
3.12811716881
 20
16.0224471266
 30
0.0
  0
VERTEX
  8
0
 10
3.07974556106
 20
16.0351032674
 30
0.0
  0
VERTEX
  8
0
 10
3.03128887884
 20
16.0474296734
 30
0.0
  0
VERTEX
  8
0
 10
2.98274936982
 20
16.0594257728
 30
0.0
  0
VERTEX
  8
0
 10
2.93412928552
 20
16.0710910092
 30
0.0
  0
VERTEX
  8
0
 10
2.88543088121
 20
16.0824248414
 30
0.0
  0
VERTEX
  8
0
 10
2.83665641576
 20
16.0934267438
 30
0.0
  0
VERTEX
  8
0
 10
2.7878081516
 20
16.1040962061
 30
0.0
  0
VERTEX
  8
0
 10
2.73888835456
 20
16.1144327332
 30
0.0
  0
VERTEX
  8
0
 10
2.6898992938
 20
16.1244358459
 30
0.0
  0
VERTEX
  8
0
 10
2.6408432417
 20
16.13410508
 30
0.0
  0
VERTEX
  8
0
 10
2.59172247372
 20
16.1434399871
 30
0.0
  0
VERTEX
  8
0
 10
2.54253926836
 20
16.1524401341
 30
0.0
  0
VERTEX
  8
0
 10
2.49329590698
 20
16.1611051036
 30
0.0
  0
VERTEX
  8
0
 10
2.44399467375
 20
16.1694344936
 30
0.0
  0
VERTEX
  8
0
 10
2.39463785553
 20
16.1774279179
 30
0.0
  0
VERTEX
  8
0
 10
2.34522774174
 20
16.1850850056
 30
0.0
  0
VERTEX
  8
0
 10
2.29576662428
 20
16.1924054015
 30
0.0
  0
VERTEX
  8
0
 10
2.24625679743
 20
16.1993887661
 30
0.0
  0
VERTEX
  8
0
 10
2.1967005577
 20
16.2060347754
 30
0.0
  0
VERTEX
  8
0
 10
2.14710020377
 20
16.2123431212
 30
0.0
  0
VERTEX
  8
0
 10
2.09745803638
 20
16.2183135109
 30
0.0
  0
VERTEX
  8
0
 10
2.04777635819
 20
16.2239456676
 30
0.0
  0
VERTEX
  8
0
 10
1.99805747369
 20
16.2292393299
 30
0.0
  0
VERTEX
  8
0
 10
1.94830368911
 20
16.2341942523
 30
0.0
  0
VERTEX
  8
0
 10
1.89851731229
 20
16.238810205
 30
0.0
  0
VERTEX
  8
0
 10
1.84870065258
 20
16.2430869739
 30
0.0
  0
VERTEX
  8
0
 10
1.79885602076
 20
16.2470243606
 30
0.0
  0
VERTEX
  8
0
 10
1.74898572886
 20
16.2506221825
 30
0.0
  0
VERTEX
  8
0
 10
1.69909209013
 20
16.2538802727
 30
0.0
  0
VERTEX
  8
0
 10
1.64917741892
 20
16.25679848
 30
0.0
  0
VERTEX
  8
0
 10
1.59924403052
 20
16.2593766691
 30
0.0
  0
VERTEX
  8
0
 10
1.5492942411
 20
16.2616147204
 30
0.0
  0
VERTEX
  8
0
 10
1.49933036761
 20
16.2635125301
 30
0.0
  0
VERTEX
  8
0
 10
1.44935472762
 20
16.2650700102
 30
0.0
  0
VERTEX
  8
0
 10
1.39936963927
 20
16.2662870883
 30
0.0
  0
VERTEX
  8
0
 10
1.34937742113
 20
16.2671637082
 30
0.0
  0
VERTEX
  8
0
 10
1.29938039211
 20
16.267699829
 30
0.0
  0
VERTEX
  8
0
 10
1.24938087133
 20
16.267895426
 30
0.0
  0
VERTEX
  8
0
 10
1.24566161524
 20
16.2678963681
 30
0.0
  0
SEQEND
  8
0
  0
POLYLINE
  8
0
 62
0
 70
0
 66
1
 10
0.0
 20
0.0
 30
0.0
  0
VERTEX
  8
0
 10
-1.24104865229
 20
16.2678963681
 30
0.0
  0
VERTEX
  8
0
 10
-1.29104826574
 20
16.2677261016
 30
0.0
  0
VERTEX
  8
0
 10
-1.34104555995
 20
16.26721531
 30
0.0
  0
VERTEX
  8
0
 10
-1.39103821578
 20
16.266364017
 30
0.0
  0
VERTEX
  8
0
 10
-1.4410239143
 20
16.2651722621
 30
0.0
  0
VERTEX
  8
0
 10
-1.49100033692
 20
16.2636401006
 30
0.0
  0
VERTEX
  8
0
 10
-1.54096516546
 20
16.2617676036
 30
0.0
  0
VERTEX
  8
0
 10
-1.59091608229
 20
16.2595548578
 30
0.0
  0
VERTEX
  8
0
 10
-1.64085077043
 20
16.2570019659
 30
0.0
  0
VERTEX
  8
0
 10
-1.69076691364
 20
16.2541090465
 30
0.0
  0
VERTEX
  8
0
 10
-1.74066219656
 20
16.2508762335
 30
0.0
  0
VERTEX
  8
0
 10
-1.79053430476
 20
16.2473036771
 30
0.0
  0
VERTEX
  8
0
 10
-1.84038092493
 20
16.2433915428
 30
0.0
  0
VERTEX
  8
0
 10
-1.89019974491
 20
16.2391400123
 30
0.0
  0
VERTEX
  8
0
 10
-1.93998845385
 20
16.2345492826
 30
0.0
  0
VERTEX
  8
0
 10
-1.98974474227
 20
16.2296195668
 30
0.0
  0
VERTEX
  8
0
 10
-2.03946630223
 20
16.2243510934
 30
0.0
  0
VERTEX
  8
0
 10
-2.08915082738
 20
16.2187441069
 30
0.0
  0
VERTEX
  8
0
 10
-2.13879601308
 20
16.2127988674
 30
0.0
  0
VERTEX
  8
0
 10
-2.18839955653
 20
16.2065156506
 30
0.0
  0
VERTEX
  8
0
 10
-2.23795915686
 20
16.199894748
 30
0.0
  0
VERTEX
  8
0
 10
-2.28747251523
 20
16.1929364666
 30
0.0
  0
VERTEX
  8
0
 10
-2.33693733496
 20
16.1856411294
 30
0.0
  0
VERTEX
  8
0
 10
-2.38635132159
 20
16.1780090745
 30
0.0
  0
VERTEX
  8
0
 10
-2.43571218306
 20
16.1700406561
 30
0.0
  0
VERTEX
  8
0
 10
-2.48501762974
 20
16.1617362438
 30
0.0
  0
VERTEX
  8
0
 10
-2.5342653746
 20
16.1530962228
 30
0.0
  0
VERTEX
  8
0
 10
-2.58345313325
 20
16.1441209938
 30
0.0
  0
VERTEX
  8
0
 10
-2.63257862411
 20
16.1348109732
 30
0.0
  0
VERTEX
  8
0
 10
-2.68163956849
 20
16.1251665928
 30
0.0
  0
VERTEX
  8
0
 10
-2.73063369067
 20
16.1151883
 30
0.0
  0
VERTEX
  8
0
 10
-2.77955871806
 20
16.1048765576
 30
0.0
  0
VERTEX
  8
0
 10
-2.82841238125
 20
16.0942318439
 30
0.0
  0
VERTEX
  8
0
 10
-2.87719241415
 20
16.0832546527
 30
0.0
  0
VERTEX
  8
0
 10
-2.92589655409
 20
16.0719454932
 30
0.0
  0
VERTEX
  8
0
 10
-2.97452254191
 20
16.0603048899
 30
0.0
  0
VERTEX
  8
0
 10
-3.02306812209
 20
16.0483333828
 30
0.0
  0
VERTEX
  8
0
 10
-3.07153104282
 20
16.0360315272
 30
0.0
  0
VERTEX
  8
0
 10
-3.11990905614
 20
16.0233998938
 30
0.0
  0
VERTEX
  8
0
 10
-3.16819991802
 20
16.0104390684
 30
0.0
  0
VERTEX
  8
0
 10
-3.21640138848
 20
15.9971496522
 30
0.0
  0
VERTEX
  8
0
 10
-3.26451123168
 20
15.9835322617
 30
0.0
  0
VERTEX
  8
0
 10
-3.31252721603
 20
15.9695875286
 30
0.0
  0
VERTEX
  8
0
 10
-3.3604471143
 20
15.9553160995
 30
0.0
  0
VERTEX
  8
0
 10
-3.40826870371
 20
15.9407186367
 30
0.0
  0
VERTEX
  8
0
 10
-3.45598976604
 20
15.925795817
 30
0.0
  0
VERTEX
  8
0
 10
-3.50360808774
 20
15.9105483328
 30
0.0
  0
VERTEX
  8
0
 10
-3.55112146002
 20
15.8949768913
 30
0.0
  0
VERTEX
  8
0
 10
-3.59852767896
 20
15.8790822147
 30
0.0
  0
VERTEX
  8
0
 10
-3.64582454561
 20
15.8628650405
 30
0.0
  0
VERTEX
  8
0
 10
-3.69300986609
 20
15.8463261207
 30
0.0
  0
VERTEX
  8
0
 10
-3.74008145171
 20
15.8294662226
 30
0.0
  0
VERTEX
  8
0
 10
-3.78703711902
 20
15.8122861282
 30
0.0
  0
VERTEX
  8
0
 10
-3.83387468998
 20
15.7947866344
 30
0.0
  0
VERTEX
  8
0
 10
-3.88059199202
 20
15.7769685529
 30
0.0
  0
VERTEX
  8
0
 10
-3.92718685814
 20
15.7588327103
 30
0.0
  0
VERTEX
  8
0
 10
-3.97365712703
 20
15.7403799478
 30
0.0
  0
VERTEX
  8
0
 10
-4.02000064315
 20
15.7216111212
 30
0.0
  0
VERTEX
  8
0
 10
-4.06621525684
 20
15.7025271013
 30
0.0
  0
VERTEX
  8
0
 10
-4.11229882443
 20
15.6831287731
 30
0.0
  0
VERTEX
  8
0
 10
-4.15824920832
 20
15.6634170366
 30
0.0
  0
VERTEX
  8
0
 10
-4.20406427709
 20
15.643392806
 30
0.0
  0
VERTEX
  8
0
 10
-4.24974190559
 20
15.6230570102
 30
0.0
  0
VERTEX
  8
0
 10
-4.29527997506
 20
15.6024105925
 30
0.0
  0
VERTEX
  8
0
 10
-4.3406763732
 20
15.5814545105
 30
0.0
  0
VERTEX
  8
0
 10
-4.38592899428
 20
15.5601897363
 30
0.0
  0
VERTEX
  8
0
 10
-4.43103573926
 20
15.5386172563
 30
0.0
  0
VERTEX
  8
0
 10
-4.47599451584
 20
15.5167380711
 30
0.0
  0
VERTEX
  8
0
 10
-4.5208032386
 20
15.4945531956
 30
0.0
  0
VERTEX
  8
0
 10
-4.56545982907
 20
15.4720636588
 30
0.0
  0
VERTEX
  8
0
 10
-4.60996221584
 20
15.449270504
 30
0.0
  0
VERTEX
  8
0
 10
-4.65430833467
 20
15.4261747883
 30
0.0
  0
VERTEX
  8
0
 10
-4.69849612854
 20
15.4027775832
 30
0.0
  0
VERTEX
  8
0
 10
-4.74252354779
 20
15.3790799738
 30
0.0
  0
VERTEX
  8
0
 10
-4.7863885502
 20
15.3550830594
 30
0.0
  0
VERTEX
  8
0
 10
-4.83008910108
 20
15.3307879531
 30
0.0
  0
VERTEX
  8
0
 10
-4.87362317337
 20
15.3061957819
 30
0.0
  0
VERTEX
  8
0
 10
-4.91698874772
 20
15.2813076864
 30
0.0
  0
VERTEX
  8
0
 10
-4.96018381262
 20
15.2561248211
 30
0.0
  0
VERTEX
  8
0
 10
-5.00320636445
 20
15.2306483541
 30
0.0
  0
VERTEX
  8
0
 10
-5.04605440759
 20
15.2048794671
 30
0.0
  0
VERTEX
  8
0
 10
-5.08872595453
 20
15.1788193555
 30
0.0
  0
VERTEX
  8
0
 10
-5.13121902594
 20
15.152469228
 30
0.0
  0
VERTEX
  8
0
 10
-5.17353165077
 20
15.1258303069
 30
0.0
  0
VERTEX
  8
0
 10
-5.21566186633
 20
15.0989038279
 30
0.0
  0
VERTEX
  8
0
 10
-5.2576077184
 20
15.0716910399
 30
0.0
  0
VERTEX
  8
0
 10
-5.29936726131
 20
15.0441932052
 30
0.0
  0
VERTEX
  8
0
 10
-5.34093855804
 20
15.0164115993
 30
0.0
  0
VERTEX
  8
0
 10
-5.38231968028
 20
14.9883475109
 30
0.0
  0
VERTEX
  8
0
 10
-5.42350870858
 20
14.9600022418
 30
0.0
  0
VERTEX
  8
0
 10
-5.46450373235
 20
14.9313771066
 30
0.0
  0
VERTEX
  8
0
 10
-5.50530285004
 20
14.9024734333
 30
0.0
  0
VERTEX
  8
0
 10
-5.54590416916
 20
14.8732925625
 30
0.0
  0
VERTEX
  8
0
 10
-5.58630580643
 20
14.8438358477
 30
0.0
  0
VERTEX
  8
0
 10
-5.62650588778
 20
14.8141046554
 30
0.0
  0
VERTEX
  8
0
 10
-5.66650254854
 20
14.7841003647
 30
0.0
  0
VERTEX
  8
0
 10
-5.70629393345
 20
14.7538243672
 30
0.0
  0
VERTEX
  8
0
 10
-5.74587819677
 20
14.7232780673
 30
0.0
  0
VERTEX
  8
0
 10
-5.78525350237
 20
14.692462882
 30
0.0
  0
VERTEX
  8
0
 10
-5.82441802383
 20
14.6613802407
 30
0.0
  0
VERTEX
  8
0
 10
-5.86336994449
 20
14.630031585
 30
0.0
  0
VERTEX
  8
0
 10
-5.90210745754
 20
14.5984183691
 30
0.0
  0
VERTEX
  8
0
 10
-5.94062876615
 20
14.5665420594
 30
0.0
  0
VERTEX
  8
0
 10
-5.97893208349
 20
14.5344041345
 30
0.0
  0
VERTEX
  8
0
 10
-6.01701563284
 20
14.5020060851
 30
0.0
  0
VERTEX
  8
0
 10
-6.0548776477
 20
14.469349414
 30
0.0
  0
VERTEX
  8
0
 10
-6.09251637183
 20
14.436435636
 30
0.0
  0
VERTEX
  8
0
 10
-6.12993005934
 20
14.4032662778
 30
0.0
  0
VERTEX
  8
0
 10
-6.16711697479
 20
14.369842878
 30
0.0
  0
VERTEX
  8
0
 10
-6.20407539325
 20
14.3361669869
 30
0.0
  0
VERTEX
  8
0
 10
-6.24080360041
 20
14.3022401666
 30
0.0
  0
VERTEX
  8
0
 10
-6.2772998926
 20
14.2680639908
 30
0.0
  0
VERTEX
  8
0
 10
-6.31356257694
 20
14.2336400447
 30
0.0
  0
VERTEX
  8
0
 10
-6.34958997138
 20
14.1989699252
 30
0.0
  0
VERTEX
  8
0
 10
-6.38538040477
 20
14.1640552404
 30
0.0
  0
VERTEX
  8
0
 10
-6.42093221698
 20
14.1288976099
 30
0.0
  0
VERTEX
  8
0
 10
-6.45624375891
 20
14.0934986644
 30
0.0
  0
VERTEX
  8
0
 10
-6.49131339263
 20
14.0578600459
 30
0.0
  0
VERTEX
  8
0
 10
-6.52613949143
 20
14.0219834076
 30
0.0
  0
VERTEX
  8
0
 10
-6.56072043988
 20
13.9858704135
 30
0.0
  0
VERTEX
  8
0
 10
-6.59505463395
 20
13.9495227388
 30
0.0
  0
VERTEX
  8
0
 10
-6.62914048104
 20
13.9129420696
 30
0.0
  0
VERTEX
  8
0
 10
-6.66297640005
 20
13.8761301025
 30
0.0
  0
VERTEX
  8
0
 10
-6.69656082151
 20
13.8390885451
 30
0.0
  0
VERTEX
  8
0
 10
-6.72989218759
 20
13.8018191157
 30
0.0
  0
VERTEX
  8
0
 10
-6.76296895221
 20
13.7643235429
 30
0.0
  0
VERTEX
  8
0
 10
-6.79578958108
 20
13.726603566
 30
0.0
  0
VERTEX
  8
0
 10
-6.82835255183
 20
13.6886609346
 30
0.0
  0
VERTEX
  8
0
 10
-6.860656354
 20
13.6504974088
 30
0.0
  0
VERTEX
  8
0
 10
-6.89269948918
 20
13.6121147588
 30
0.0
  0
VERTEX
  8
0
 10
-6.92448047104
 20
13.5735147649
 30
0.0
  0
VERTEX
  8
0
 10
-6.9559978254
 20
13.5346992176
 30
0.0
  0
VERTEX
  8
0
 10
-6.98725009034
 20
13.4956699174
 30
0.0
  0
VERTEX
  8
0
 10
-7.01823581619
 20
13.4564286747
 30
0.0
  0
VERTEX
  8
0
 10
-7.04895356568
 20
13.4169773097
 30
0.0
  0
VERTEX
  8
0
 10
-7.07940191397
 20
13.3773176523
 30
0.0
  0
VERTEX
  8
0
 10
-7.10957944869
 20
13.3374515422
 30
0.0
  0
VERTEX
  8
0
 10
-7.13948477005
 20
13.2973808286
 30
0.0
  0
VERTEX
  8
0
 10
-7.16911649089
 20
13.2571073701
 30
0.0
  0
VERTEX
  8
0
 10
-7.19847323673
 20
13.2166330349
 30
0.0
  0
VERTEX
  8
0
 10
-7.22755364585
 20
13.1759597004
 30
0.0
  0
VERTEX
  8
0
 10
-7.25635636934
 20
13.1350892532
 30
0.0
  0
VERTEX
  8
0
 10
-7.2848800712
 20
13.0940235891
 30
0.0
  0
VERTEX
  8
0
 10
-7.31312342833
 20
13.0527646129
 30
0.0
  0
VERTEX
  8
0
 10
-7.34108513066
 20
13.0113142385
 30
0.0
  0
VERTEX
  8
0
 10
-7.36876388118
 20
12.9696743885
 30
0.0
  0
VERTEX
  8
0
 10
-7.39615839601
 20
12.9278469945
 30
0.0
  0
VERTEX
  8
0
 10
-7.42326740443
 20
12.8858339965
 30
0.0
  0
VERTEX
  8
0
 10
-7.450089649
 20
12.8436373434
 30
0.0
  0
VERTEX
  8
0
 10
-7.47662388556
 20
12.8012589925
 30
0.0
  0
VERTEX
  8
0
 10
-7.50286888331
 20
12.7587009095
 30
0.0
  0
VERTEX
  8
0
 10
-7.52882342486
 20
12.7159650684
 30
0.0
  0
VERTEX
  8
0
 10
-7.55448630631
 20
12.6730534517
 30
0.0
  0
VERTEX
  8
0
 10
-7.57985633729
 20
12.6299680497
 30
0.0
  0
VERTEX
  8
0
 10
-7.60493234098
 20
12.586710861
 30
0.0
  0
VERTEX
  8
0
 10
-7.62971315425
 20
12.543283892
 30
0.0
  0
VERTEX
  8
0
 10
-7.65419762762
 20
12.4996891573
 30
0.0
  0
VERTEX
  8
0
 10
-7.67838462537
 20
12.4559286788
 30
0.0
  0
VERTEX
  8
0
 10
-7.70227302558
 20
12.4120044865
 30
0.0
  0
VERTEX
  8
0
 10
-7.72586172019
 20
12.3679186177
 30
0.0
  0
VERTEX
  8
0
 10
-7.74914961502
 20
12.3236731175
 30
0.0
  0
VERTEX
  8
0
 10
-7.77213562987
 20
12.2792700381
 30
0.0
  0
VERTEX
  8
0
 10
-7.79481869851
 20
12.2347114392
 30
0.0
  0
VERTEX
  8
0
 10
-7.81719776879
 20
12.1899993877
 30
0.0
  0
VERTEX
  8
0
 10
-7.83927180265
 20
12.1451359576
 30
0.0
  0
VERTEX
  8
0
 10
-7.86103977618
 20
12.1001232298
 30
0.0
  0
VERTEX
  8
0
 10
-7.88250067966
 20
12.0549632922
 30
0.0
  0
VERTEX
  8
0
 10
-7.90365351763
 20
12.0096582397
 30
0.0
  0
VERTEX
  8
0
 10
-7.92449730891
 20
11.9642101738
 30
0.0
  0
VERTEX
  8
0
 10
-7.94503108665
 20
11.9186212024
 30
0.0
  0
VERTEX
  8
0
 10
-7.96525389838
 20
11.8728934404
 30
0.0
  0
VERTEX
  8
0
 10
-7.98516480607
 20
11.8270290087
 30
0.0
  0
VERTEX
  8
0
 10
-8.00476288615
 20
11.7810300349
 30
0.0
  0
VERTEX
  8
0
 10
-8.02404722954
 20
11.7348986525
 30
0.0
  0
VERTEX
  8
0
 10
-8.04301694175
 20
11.6886370015
 30
0.0
  0
VERTEX
  8
0
 10
-8.06167114285
 20
11.6422472277
 30
0.0
  0
VERTEX
  8
0
 10
-8.08000896757
 20
11.5957314828
 30
0.0
  0
VERTEX
  8
0
 10
-8.09802956531
 20
11.5490919246
 30
0.0
  0
VERTEX
  8
0
 10
-8.11573210016
 20
11.5023307163
 30
0.0
  0
VERTEX
  8
0
 10
-8.133115751
 20
11.4554500271
 30
0.0
  0
VERTEX
  8
0
 10
-8.15017971148
 20
11.4084520315
 30
0.0
  0
VERTEX
  8
0
 10
-8.16692319008
 20
11.3613389096
 30
0.0
  0
VERTEX
  8
0
 10
-8.18334541015
 20
11.3141128466
 30
0.0
  0
VERTEX
  8
0
 10
-8.19944560995
 20
11.2667760332
 30
0.0
  0
VERTEX
  8
0
 10
-8.21522304266
 20
11.2193306651
 30
0.0
  0
VERTEX
  8
0
 10
-8.23067697644
 20
11.1717789431
 30
0.0
  0
VERTEX
  8
0
 10
-8.24580669446
 20
11.1241230728
 30
0.0
  0
VERTEX
  8
0
 10
-8.26061149491
 20
11.0763652649
 30
0.0
  0
VERTEX
  8
0
 10
-8.27509069109
 20
11.0285077345
 30
0.0
  0
VERTEX
  8
0
 10
-8.28924361135
 20
10.9805527016
 30
0.0
  0
VERTEX
  8
0
 10
-8.30306959923
 20
10.9325023905
 30
0.0
  0
VERTEX
  8
0
 10
-8.31656801339
 20
10.8843590301
 30
0.0
  0
VERTEX
  8
0
 10
-8.32973822771
 20
10.8361248535
 30
0.0
  0
VERTEX
  8
0
 10
-8.34257963128
 20
10.7878020981
 30
0.0
  0
VERTEX
  8
0
 10
-8.35509162845
 20
10.7393930053
 30
0.0
  0
VERTEX
  8
0
 10
-8.36727363885
 20
10.6908998206
 30
0.0
  0
VERTEX
  8
0
 10
-8.37912509742
 20
10.6423247934
 30
0.0
  0
VERTEX
  8
0
 10
-8.39064545442
 20
10.5936701769
 30
0.0
  0
VERTEX
  8
0
 10
-8.40183417547
 20
10.5449382278
 30
0.0
  0
VERTEX
  8
0
 10
-8.41269074159
 20
10.4961312067
 30
0.0
  0
VERTEX
  8
0
 10
-8.42321464918
 20
10.4472513775
 30
0.0
  0
VERTEX
  8
0
 10
-8.43340541011
 20
10.3983010075
 30
0.0
  0
VERTEX
  8
0
 10
-8.44326255165
 20
10.3492823672
 30
0.0
  0
VERTEX
  8
0
 10
-8.4527856166
 20
10.3001977304
 30
0.0
  0
VERTEX
  8
0
 10
-8.46197416321
 20
10.2510493738
 30
0.0
  0
VERTEX
  8
0
 10
-8.47082776528
 20
10.2018395774
 30
0.0
  0
VERTEX
  8
0
 10
-8.47934601212
 20
10.1525706236
 30
0.0
  0
VERTEX
  8
0
 10
-8.48752850862
 20
10.1032447978
 30
0.0
  0
VERTEX
  8
0
 10
-8.49537487524
 20
10.0538643881
 30
0.0
  0
VERTEX
  8
0
 10
-8.502884748
 20
10.0044316849
 30
0.0
  0
VERTEX
  8
0
 10
-8.51005777858
 20
9.95494898114
 30
0.0
  0
VERTEX
  8
0
 10
-8.51689363423
 20
9.90541857216
 30
0.0
  0
VERTEX
  8
0
 10
-8.52339199789
 20
9.85584275542
 30
0.0
  0
VERTEX
  8
0
 10
-8.52955256812
 20
9.80622383049
 30
0.0
  0
VERTEX
  8
0
 10
-8.53537505916
 20
9.75656409897
 30
0.0
  0
VERTEX
  8
0
 10
-8.54085920094
 20
9.70686586434
 30
0.0
  0
VERTEX
  8
0
 10
-8.54600473907
 20
9.65713143186
 30
0.0
  0
VERTEX
  8
0
 10
-8.55081143487
 20
9.60736310849
 30
0.0
  0
VERTEX
  8
0
 10
-8.55527906539
 20
9.55756320272
 30
0.0
  0
VERTEX
  8
0
 10
-8.55940742339
 20
9.50773402456
 30
0.0
  0
VERTEX
  8
0
 10
-8.56319631737
 20
9.45787788533
 30
0.0
  0
VERTEX
  8
0
 10
-8.5666455716
 20
9.40799709763
 30
0.0
  0
VERTEX
  8
0
 10
-8.56975502607
 20
9.35809397519
 30
0.0
  0
VERTEX
  8
0
 10
-8.57252453655
 20
9.30817083278
 30
0.0
  0
VERTEX
  8
0
 10
-8.57495397458
 20
9.2582299861
 30
0.0
  0
VERTEX
  8
0
 10
-8.57704322746
 20
9.20827375167
 30
0.0
  0
VERTEX
  8
0
 10
-8.57879219829
 20
9.15830444671
 30
0.0
  0
VERTEX
  8
0
 10
-8.58020080594
 20
9.10832438908
 30
0.0
  0
VERTEX
  8
0
 10
-8.58126898507
 20
9.05833589711
 30
0.0
  0
VERTEX
  8
0
 10
-8.581334837
 20
9.05461722392
 30
0.0
  0
SEQEND
  8
0
  0
POLYLINE
  8
0
 62
0
 70
0
 66
1
 10
0.0
 20
0.0
 30
0.0
  0
VERTEX
  8
0
 10
-9.73692899948
 20
0.0708383000768
 30
0.0
  0
VERTEX
  8
0
 10
-9.6884648366
 20
0.0597676651345
 30
0.0
  0
VERTEX
  8
0
 10
-9.63875407273
 20
0.0544280903141
 30
0.0
  0
VERTEX
  8
0
 10
-9.58891363595
 20
0.0504459085786
 30
0.0
  0
VERTEX
  8
0
 10
-9.53901929861
 20
0.0472014398325
 30
0.0
  0
VERTEX
  8
0
 10
-9.48909521603
 20
0.04444981047
 30
0.0
  0
VERTEX
  8
0
 10
-9.43915225676
 20
0.0420639814537
 30
0.0
  0
VERTEX
  8
0
 10
-9.38919626716
 20
0.0399679389003
 30
0.0
  0
VERTEX
  8
0
 10
-9.33923076571
 20
0.0381119756589
 30
0.0
  0
VERTEX
  8
0
 10
-9.28925804221
 20
0.0364615695513
 30
0.0
  0
VERTEX
  8
0
 10
-9.23927967632
 20
0.0349916970033
 30
0.0
  0
VERTEX
  8
0
 10
-9.18929680892
 20
0.03368364939
 30
0.0
  0
VERTEX
  8
0
 10
-9.13931029558
 20
0.0325231255866
 30
0.0
  0
VERTEX
  8
0
 10
-9.0893207989
 20
0.0314990280547
 30
0.0
  0
VERTEX
  8
0
 10
-9.03932884692
 20
0.0306026716405
 30
0.0
  0
VERTEX
  8
0
 10
-8.98933487173
 20
0.0298272472951
 30
0.0
  0
VERTEX
  8
0
 10
-8.93933923595
 20
0.0291674504575
 30
0.0
  0
VERTEX
  8
0
 10
-8.88934225167
 20
0.0286192202506
 30
0.0
  0
VERTEX
  8
0
 10
-8.83934419436
 20
0.0281795563247
 30
0.0
  0
VERTEX
  8
0
 10
-8.78934531367
 20
0.0278463925134
 30
0.0
  0
VERTEX
  8
0
 10
-8.73934584214
 20
0.0276185141842
 30
0.0
  0
VERTEX
  8
0
 10
-8.73890171272
 20
0.0276169599656
 30
0.0
  0
SEQEND
  8
0
  0
POLYLINE
  8
0
 62
0
 70
0
 66
1
 10
0.0
 20
0.0
 30
0.0
  0
VERTEX
  8
0
 10
-9.57981227564
 20
9.07204938042
 30
0.0
  0
VERTEX
  8
0
 10
-9.52981990873
 20
9.07117573838
 30
0.0
  0
VERTEX
  8
0
 10
-9.47982753224
 20
9.07030264476
 30
0.0
  0
VERTEX
  8
0
 10
-9.42983515358
 20
9.06942967511
 30
0.0
  0
VERTEX
  8
0
 10
-9.37984277374
 20
9.06855677296
 30
0.0
  0
VERTEX
  8
0
 10
-9.32985039312
 20
9.06768391597
 30
0.0
  0
VERTEX
  8
0
 10
-9.2798580119
 20
9.06681109253
 30
0.0
  0
VERTEX
  8
0
 10
-9.22986563023
 20
9.06593829568
 30
0.0
  0
VERTEX
  8
0
 10
-9.17987324817
 20
9.06506552089
 30
0.0
  0
VERTEX
  8
0
 10
-9.12988086578
 20
9.06419276498
 30
0.0
  0
VERTEX
  8
0
 10
-9.07988848309
 20
9.06332002568
 30
0.0
  0
VERTEX
  8
0
 10
-9.02989610015
 20
9.06244730126
 30
0.0
  0
VERTEX
  8
0
 10
-8.97990371698
 20
9.06157459042
 30
0.0
  0
VERTEX
  8
0
 10
-8.92991133358
 20
9.06070189214
 30
0.0
  0
VERTEX
  8
0
 10
-8.87991894998
 20
9.05982920561
 30
0.0
  0
VERTEX
  8
0
 10
-8.82992656618
 20
9.05895653023
 30
0.0
  0
VERTEX
  8
0
 10
-8.7799341822
 20
9.05808386551
 30
0.0
  0
VERTEX
  8
0
 10
-8.72994179804
 20
9.05721121106
 30
0.0
  0
VERTEX
  8
0
 10
-8.6799494137
 20
9.05633856663
 30
0.0
  0
VERTEX
  8
0
 10
-8.62995702919
 20
9.05546593202
 30
0.0
  0
VERTEX
  8
0
 10
-8.581334837
 20
9.05461722392
 30
0.0
  0
SEQEND
  8
0
  0
POLYLINE
  8
0
 62
0
 70
0
 66
1
 10
0.0
 20
0.0
 30
0.0
  0
VERTEX
  8
0
 10
-1.24104865229
 20
17.2665295708
 30
0.0
  0
VERTEX
  8
0
 10
-1.24104865229
 20
17.2165295708
 30
0.0
  0
VERTEX
  8
0
 10
-1.24104865229
 20
17.1665295708
 30
0.0
  0
VERTEX
  8
0
 10
-1.24104865229
 20
17.1165295708
 30
0.0
  0
VERTEX
  8
0
 10
-1.24104865229
 20
17.0665295708
 30
0.0
  0
VERTEX
  8
0
 10
-1.24104865229
 20
17.0165295708
 30
0.0
  0
VERTEX
  8
0
 10
-1.24104865229
 20
16.9665295708
 30
0.0
  0
VERTEX
  8
0
 10
-1.24104865229
 20
16.9165295708
 30
0.0
  0
VERTEX
  8
0
 10
-1.24104865229
 20
16.8665295708
 30
0.0
  0
VERTEX
  8
0
 10
-1.24104865229
 20
16.8165295708
 30
0.0
  0
VERTEX
  8
0
 10
-1.24104865229
 20
16.7665295708
 30
0.0
  0
VERTEX
  8
0
 10
-1.24104865229
 20
16.7165295708
 30
0.0
  0
VERTEX
  8
0
 10
-1.24104865229
 20
16.6665295708
 30
0.0
  0
VERTEX
  8
0
 10
-1.24104865229
 20
16.6165295708
 30
0.0
  0
VERTEX
  8
0
 10
-1.24104865229
 20
16.5665295708
 30
0.0
  0
VERTEX
  8
0
 10
-1.24104865229
 20
16.5165295708
 30
0.0
  0
VERTEX
  8
0
 10
-1.24104865229
 20
16.4665295708
 30
0.0
  0
VERTEX
  8
0
 10
-1.24104865229
 20
16.4165295708
 30
0.0
  0
VERTEX
  8
0
 10
-1.24104865229
 20
16.3665295708
 30
0.0
  0
VERTEX
  8
0
 10
-1.24104865229
 20
16.3165295708
 30
0.0
  0
VERTEX
  8
0
 10
-1.24104865229
 20
16.2678963681
 30
0.0
  0
SEQEND
  8
0
  0
POLYLINE
  8
0
 62
0
 70
0
 66
1
 10
0.0
 20
0.0
 30
0.0
  0
VERTEX
  8
0
 10
1.24566161524
 20
17.2665295708
 30
0.0
  0
VERTEX
  8
0
 10
1.24566161524
 20
17.2165295708
 30
0.0
  0
VERTEX
  8
0
 10
1.24566161524
 20
17.1665295708
 30
0.0
  0
VERTEX
  8
0
 10
1.24566161524
 20
17.1165295708
 30
0.0
  0
VERTEX
  8
0
 10
1.24566161524
 20
17.0665295708
 30
0.0
  0
VERTEX
  8
0
 10
1.24566161524
 20
17.0165295708
 30
0.0
  0
VERTEX
  8
0
 10
1.24566161524
 20
16.9665295708
 30
0.0
  0
VERTEX
  8
0
 10
1.24566161524
 20
16.9165295708
 30
0.0
  0
VERTEX
  8
0
 10
1.24566161524
 20
16.8665295708
 30
0.0
  0
VERTEX
  8
0
 10
1.24566161524
 20
16.8165295708
 30
0.0
  0
VERTEX
  8
0
 10
1.24566161524
 20
16.7665295708
 30
0.0
  0
VERTEX
  8
0
 10
1.24566161524
 20
16.7165295708
 30
0.0
  0
VERTEX
  8
0
 10
1.24566161524
 20
16.6665295708
 30
0.0
  0
VERTEX
  8
0
 10
1.24566161524
 20
16.6165295708
 30
0.0
  0
VERTEX
  8
0
 10
1.24566161524
 20
16.5665295708
 30
0.0
  0
VERTEX
  8
0
 10
1.24566161524
 20
16.5165295708
 30
0.0
  0
VERTEX
  8
0
 10
1.24566161524
 20
16.4665295708
 30
0.0
  0
VERTEX
  8
0
 10
1.24566161524
 20
16.4165295708
 30
0.0
  0
VERTEX
  8
0
 10
1.24566161524
 20
16.3665295708
 30
0.0
  0
VERTEX
  8
0
 10
1.24566161524
 20
16.3165295708
 30
0.0
  0
VERTEX
  8
0
 10
1.24566161524
 20
16.2678963681
 30
0.0
  0
SEQEND
  8
0
  0
POLYLINE
  8
0
 62
0
 70
0
 66
1
 10
0.0
 20
0.0
 30
0.0
  0
VERTEX
  8
0
 10
9.5844252386
 20
9.07204938042
 30
0.0
  0
VERTEX
  8
0
 10
9.53443287169
 20
9.07117573838
 30
0.0
  0
VERTEX
  8
0
 10
9.4844404952
 20
9.07030264476
 30
0.0
  0
VERTEX
  8
0
 10
9.43444811654
 20
9.06942967511
 30
0.0
  0
VERTEX
  8
0
 10
9.3844557367
 20
9.06855677296
 30
0.0
  0
VERTEX
  8
0
 10
9.33446335607
 20
9.06768391597
 30
0.0
  0
VERTEX
  8
0
 10
9.28447097486
 20
9.06681109253
 30
0.0
  0
VERTEX
  8
0
 10
9.23447859318
 20
9.06593829568
 30
0.0
  0
VERTEX
  8
0
 10
9.18448621112
 20
9.06506552089
 30
0.0
  0
VERTEX
  8
0
 10
9.13449382873
 20
9.06419276498
 30
0.0
  0
VERTEX
  8
0
 10
9.08450144605
 20
9.06332002568
 30
0.0
  0
VERTEX
  8
0
 10
9.03450906311
 20
9.06244730126
 30
0.0
  0
VERTEX
  8
0
 10
8.98451667993
 20
9.06157459042
 30
0.0
  0
VERTEX
  8
0
 10
8.93452429654
 20
9.06070189214
 30
0.0
  0
VERTEX
  8
0
 10
8.88453191293
 20
9.05982920561
 30
0.0
  0
VERTEX
  8
0
 10
8.83453952914
 20
9.05895653023
 30
0.0
  0
VERTEX
  8
0
 10
8.78454714515
 20
9.05808386551
 30
0.0
  0
VERTEX
  8
0
 10
8.73455476099
 20
9.05721121106
 30
0.0
  0
VERTEX
  8
0
 10
8.68456237666
 20
9.05633856663
 30
0.0
  0
VERTEX
  8
0
 10
8.63456999215
 20
9.05546593202
 30
0.0
  0
VERTEX
  8
0
 10
8.58594779996
 20
9.05461722392
 30
0.0
  0
SEQEND
  8
0
  0
POLYLINE
  8
0
 62
0
 70
0
 66
1
 10
0.0
 20
0.0
 30
0.0
  0
VERTEX
  8
0
 10
8.74351467568
 20
0.0276169599656
 30
0.0
  0
VERTEX
  8
0
 10
8.79351415145
 20
0.0278439060893
 30
0.0
  0
VERTEX
  8
0
 10
8.84351303839
 20
0.0281761305566
 30
0.0
  0
VERTEX
  8
0
 10
8.89351110408
 20
0.0286148406949
 30
0.0
  0
VERTEX
  8
0
 10
8.94350809906
 20
0.0291620948007
 30
0.0
  0
VERTEX
  8
0
 10
8.99350374813
 20
0.029820884442
 30
0.0
  0
VERTEX
  8
0
 10
9.04349773958
 20
0.0305952603659
 30
0.0
  0
VERTEX
  8
0
 10
9.05945922235
 20
0.0308676663893
 30
0.0
  0
SEQEND
  8
0
  0
POLYLINE
  8
0
 62
0
 70
0
 66
1
 10
0.0
 20
0.0
 30
0.0
  0
VERTEX
  8
0
 10
-9.73692899948
 20
0.0708383000768
 30
0.0
  0
VERTEX
  8
0
 10
-9.73169757047
 20
0.0212441498164
 30
0.0
  0
VERTEX
  8
0
 10
-9.71432202089
 20
-0.025499745812
 30
0.0
  0
VERTEX
  8
0
 10
-9.68587460417
 20
-0.0664584687903
 30
0.0
  0
VERTEX
  8
0
 10
-9.67988877703
 20
-0.0728239432115
 30
0.0
  0
SEQEND
  8
0
  0
POLYLINE
  8
0
 62
0
 70
0
 66
1
 10
0.0
 20
0.0
 30
0.0
  0
VERTEX
  8
0
 10
-9.67988877703
 20
-0.0728239432115
 30
0.0
  0
VERTEX
  8
0
 10
-9.6798828017
 20
-0.0728300239423
 30
0.0
  0
SEQEND
  8
0
  0
POLYLINE
  8
0
 62
0
 70
0
 66
1
 10
0.0
 20
0.0
 30
0.0
  0
VERTEX
  8
0
 10
-8.73890171272
 20
0.0276169599656
 30
0.0
  0
VERTEX
  8
0
 10
-8.73890171272
 20
-0.0223830400344
 30
0.0
  0
VERTEX
  8
0
 10
-8.73890171272
 20
-0.0723830400344
 30
0.0
  0
VERTEX
  8
0
 10
-8.73890171272
 20
-0.122383040034
 30
0.0
  0
VERTEX
  8
0
 10
-8.73890171272
 20
-0.172382265925
 30
0.0
  0
SEQEND
  8
0
  0
POLYLINE
  8
0
 62
0
 70
0
 66
1
 10
0.0
 20
0.0
 30
0.0
  0
VERTEX
  8
0
 10
-8.73890171272
 20
-0.172382265925
 30
0.0
  0
VERTEX
  8
0
 10
-8.73890171272
 20
-0.172108132361
 30
0.0
  0
SEQEND
  8
0
  0
POLYLINE
  8
0
 62
0
 70
0
 66
1
 10
0.0
 20
0.0
 30
0.0
  0
VERTEX
  8
0
 10
8.74351467568
 20
0.0276169599656
 30
0.0
  0
VERTEX
  8
0
 10
8.74351467568
 20
-0.0223830400344
 30
0.0
  0
VERTEX
  8
0
 10
8.74351467568
 20
-0.0723830400344
 30
0.0
  0
VERTEX
  8
0
 10
8.74351467568
 20
-0.122383040034
 30
0.0
  0
VERTEX
  8
0
 10
8.74351467568
 20
-0.172382265926
 30
0.0
  0
SEQEND
  8
0
  0
POLYLINE
  8
0
 62
0
 70
0
 66
1
 10
0.0
 20
0.0
 30
0.0
  0
VERTEX
  8
0
 10
8.74351467568
 20
-0.172382265926
 30
0.0
  0
VERTEX
  8
0
 10
8.74351467568
 20
-0.172108132361
 30
0.0
  0
SEQEND
  8
0
  0
POLYLINE
  8
0
 62
0
 70
0
 66
1
 10
0.0
 20
0.0
 30
0.0
  0
VERTEX
  8
0
 10
8.99976895588
 20
-0.170203962241
 30
0.0
  0
VERTEX
  8
0
 10
9.04975948554
 20
-0.169232554772
 30
0.0
  0
VERTEX
  8
0
 10
9.0997455837
 20
-0.168055185553
 30
0.0
  0
VERTEX
  8
0
 10
9.14972593333
 20
-0.166655141335
 30
0.0
  0
VERTEX
  8
0
 10
9.19969876518
 20
-0.165008813167
 30
0.0
  0
VERTEX
  8
0
 10
9.2496615671
 20
-0.163082456619
 30
0.0
  0
VERTEX
  8
0
 10
9.29961053742
 20
-0.160826476262
 30
0.0
  0
VERTEX
  8
0
 10
9.34953945937
 20
-0.15816464908
 30
0.0
  0
VERTEX
  8
0
 10
9.39943703578
 20
-0.154970962694
 30
0.0
  0
VERTEX
  8
0
 10
9.4492804755
 20
-0.151025998539
 30
0.0
  0
VERTEX
  8
0
 10
9.49901664212
 20
-0.145914808081
 30
0.0
  0
VERTEX
  8
0
 10
9.54847544103
 20
-0.138633320696
 30
0.0
  0
VERTEX
  8
0
 10
9.59694805244
 20
-0.1265418678
 30
0.0
  0
VERTEX
  8
0
 10
9.64236800254
 20
-0.105869602109
 30
0.0
  0
VERTEX
  8
0
 10
9.68188934026
 20
-0.0754354706618
 30
0.0
  0
VERTEX
  8
0
 10
9.6844986004
 20
-0.0728271382409
 30
0.0
  0
SEQEND
  8
0
  0
POLYLINE
  8
0
 62
0
 70
0
 66
1
 10
0.0
 20
0.0
 30
0.0
  0
VERTEX
  8
0
 10
-8.99515547751
 20
-0.170174872333
 30
0.0
  0
VERTEX
  8
0
 10
-9.04514600996
 20
-0.169203608046
 30
0.0
  0
VERTEX
  8
0
 10
-9.08146456657
 20
-0.168369606973
 30
0.0
  0
SEQEND
  8
0
  0
POLYLINE
  8
0
 62
0
 70
0
 66
1
 10
0.0
 20
0.0
 30
0.0
  0
VERTEX
  8
0
 10
-9.39502482309
 20
-0.154929863542
 30
0.0
  0
VERTEX
  8
0
 10
-9.4448680135
 20
-0.150981778046
 30
0.0
  0
VERTEX
  8
0
 10
-9.49460361256
 20
-0.145865154434
 30
0.0
  0
VERTEX
  8
0
 10
-9.54406062637
 20
-0.138571924375
 30
0.0
  0
VERTEX
  8
0
 10
-9.58023326579
 20
-0.130265743657
 30
0.0
  0
SEQEND
  8
0
  0
POLYLINE
  8
0
 62
0
 70
0
 66
1
 10
0.0
 20
0.0
 30
0.0
  0
VERTEX
  8
0
 10
-9.6798828017
 20
-0.0728300239421
 30
0.0
  0
VERTEX
  8
0
 10
-9.6409020174
 20
-0.103952146197
 30
0.0
  0
VERTEX
  8
0
 10
-9.59581428768
 20
-0.125332596116
 30
0.0
  0
VERTEX
  8
0
 10
-9.54747197908
 20
-0.13791778236
 30
0.0
  0
VERTEX
  8
0
 10
-9.49804743225
 20
-0.145421833948
 30
0.0
  0
VERTEX
  8
0
 10
-9.44832368488
 20
-0.150651149492
 30
0.0
  0
VERTEX
  8
0
 10
-9.39848712084
 20
-0.154681701681
 30
0.0
  0
VERTEX
  8
0
 10
-9.3485941406
 20
-0.157946142237
 30
0.0
  0
VERTEX
  8
0
 10
-9.29866788041
 20
-0.160657069069
 30
0.0
  0
VERTEX
  8
0
 10
-9.24872006827
 20
-0.162938288509
 30
0.0
  0
VERTEX
  8
0
 10
-9.19875771968
 20
-0.164876249466
 30
0.0
  0
VERTEX
  8
0
 10
-9.1487850888
 20
-0.166528632583
 30
0.0
  0
VERTEX
  8
0
 10
-9.09880489769
 20
-0.167934346686
 30
0.0
  0
VERTEX
  8
0
 10
-9.04881900625
 20
-0.169120526498
 30
0.0
  0
VERTEX
  8
0
 10
-8.99882875762
 20
-0.170106401359
 30
0.0
  0
VERTEX
  8
0
 10
-8.9488351727
 20
-0.170905606409
 30
0.0
  0
VERTEX
  8
0
 10
-8.89883906762
 20
-0.171527671985
 30
0.0
  0
VERTEX
  8
0
 10
-8.84884112544
 20
-0.171978671554
 30
0.0
  0
VERTEX
  8
0
 10
-8.79884195179
 20
-0.172262080992
 30
0.0
  0
VERTEX
  8
0
 10
-8.74884211158
 20
-0.172378958114
 30
0.0
  0
VERTEX
  8
0
 10
-8.73890171272
 20
-0.172382265926
 30
0.0
  0
SEQEND
  8
0
  0
POLYLINE
  8
0
 62
0
 70
0
 66
1
 10
0.0
 20
0.0
 30
0.0
  0
VERTEX
  8
0
 10
-8.99515547588
 20
-0.170174872361
 30
0.0
  0
VERTEX
  8
0
 10
-8.96426403846
 20
-0.170678235681
 30
0.0
  0
SEQEND
  8
0
  0
POLYLINE
  8
0
 62
0
 70
0
 66
1
 10
0.0
 20
0.0
 30
0.0
  0
VERTEX
  8
0
 10
8.99976895425
 20
-0.17020396227
 30
0.0
  0
VERTEX
  8
0
 10
8.94977506189
 20
-0.170983644867
 30
0.0
  0
VERTEX
  8
0
 10
8.89977869761
 20
-0.171584502954
 30
0.0
  0
VERTEX
  8
0
 10
8.84978057163
 20
-0.172014685966
 30
0.0
  0
VERTEX
  8
0
 10
8.79978129438
 20
-0.172279334493
 30
0.0
  0
VERTEX
  8
0
 10
8.74978141972
 20
-0.172380988744
 30
0.0
  0
VERTEX
  8
0
 10
8.74351467568
 20
-0.172382265926
 30
0.0
  0
SEQEND
  8
0
  0
POLYLINE
  8
0
 62
0
 70
0
 66
1
 10
0.0
 20
0.0
 30
0.0
  0
VERTEX
  8
0
 10
8.74351467568
 20
-0.172352849789
 30
0.0
  0
VERTEX
  8
0
 10
8.79351458243
 20
-0.172269184498
 30
0.0
  0
VERTEX
  8
0
 10
8.84351393308
 20
-0.172018934309
 30
0.0
  0
VERTEX
  8
0
 10
8.89351216695
 20
-0.171601499551
 30
0.0
  0
VERTEX
  8
0
 10
8.94350869002
 20
-0.171013958667
 30
0.0
  0
VERTEX
  8
0
 10
8.99350283728
 20
-0.170250704504
 30
0.0
  0
VERTEX
  8
0
 10
8.99819907953
 20
-0.170169693624
 30
0.0
  0
SEQEND
  8
0
  0
LINE
  8
0
 62
0
 10
9.74436702407
 20
9.07485298887
 30
0.0
 11
9.89874025935
 21
0.230816263369
 31
0.0
  0
LINE
  8
0
 62
0
 10
-1.24104865229
 20
17.4265075341
 30
0.0
 11
1.24566161524
 21
17.4265075341
 31
0.0
  0
LINE
  8
0
 62
0
 10
-9.89412729639
 20
0.230816263369
 30
0.0
 11
-9.73975406112
 21
9.07485298887
 31
0.0
  0
LINE
  8
0
 62
0
 10
8.74351467568
 20
-0.172108132361
 30
0.0
 11
-8.73890171272
 21
-0.172108132361
 31
0.0
  0
LINE
  8
0
 62
0
 10
9.5844252386
 20
9.07204938042
 30
0.0
 11
9.74154196244
 21
0.0708383000768
 31
0.0
  0
LINE
  8
0
 62
0
 10
9.74154196244
 20
0.0708383000768
 30
0.0
 11
9.89874025935
 21
0.230816263369
 31
0.0
  0
LINE
  8
0
 62
0
 10
9.5844252386
 20
9.07204938042
 30
0.0
 11
9.74436702407
 21
9.07485298887
 31
0.0
  0
LINE
  8
0
 62
0
 10
1.24566161524
 20
17.2665295708
 30
0.0
 11
1.24566161524
 21
17.4265075341
 31
0.0
  0
LINE
  8
0
 62
0
 10
-1.24104865229
 20
17.2665295708
 30
0.0
 11
-1.24104865229
 21
17.4265075341
 31
0.0
  0
LINE
  8
0
 62
0
 10
-1.24104865229
 20
17.2665295708
 30
0.0
 11
1.24566161524
 21
17.2665295708
 31
0.0
  0
LINE
  8
0
 62
0
 10
-9.57981227564
 20
9.07204938042
 30
0.0
 11
-9.73975406112
 21
9.07485298887
 31
0.0
  0
LINE
  8
0
 62
0
 10
-9.89412729639
 20
0.230816263369
 30
0.0
 11
-9.73692899948
 21
0.0708383000768
 31
0.0
  0
LINE
  8
0
 62
0
 10
-9.73692899948
 20
0.0708383000768
 30
0.0
 11
-9.57981227564
 21
9.07204938042
 31
0.0
  0
LINE
  8
0
 62
0
 10
-8.581334837
 20
9.05461722392
 30
0.0
 11
-8.73890171272
 21
0.0276169599656
 31
0.0
  0
LINE
  8
0
 62
0
 10
-8.73890171272
 20
0.0276169599656
 30
0.0
 11
8.74351467568
 21
0.0276169599656
 31
0.0
  0
LINE
  8
0
 62
0
 10
8.74351467568
 20
0.0276169599656
 30
0.0
 11
8.58594779996
 21
9.05461722392
 31
0.0
  0
LINE
  8
0
 62
0
 10
1.24566161524
 20
16.2678963681
 30
0.0
 11
-1.24104865229
 21
16.2678963681
 31
0.0
  0
LINE
  8
0
 62
0
 10
-9.67988877703
 20
-0.0728239432115
 30
0.0
 11
-9.83654803126
 21
0.0866054457552
 31
0.0
  0
LINE
  8
0
 62
0
 10
8.74351467568
 20
-0.172382265926
 30
0.0
 11
-8.73890171272
 21
-0.172382265926
 31
0.0
  0
LINE
  8
0
 62
0
 10
9.68450173999
 20
-0.0728239432115
 30
0.0
 11
9.84116099421
 21
0.0866054457552
 31
0.0
  0
ENDBLK
  0
ENDSEC
  0
SECTION
  2
ENTITIES
  0
INSERT
  2
PART__FEATURE
  8
0
 62
0
 10
0.0
 20
0.0
 30
0.0
  0
ENDSEC
  0
EOF
